<?xml version="1.0" encoding="iso-8859-1"?>
<svg version="1.1" id="Capa_1" xmlns="http://www.w3.org/2000/svg" xmlns:xlink="http://www.w3.org/1999/xlink" x="0px" y="0px"
	 viewBox="0 0 97 97" style="enable-background:new 0 0 97 97;" xml:space="preserve">
<g>
	<linearGradient id="SVGID_1_" gradientUnits="userSpaceOnUse" x1="19.2743" y1="11.4626" x2="11.7257" y2="24.5374">
		<stop  offset="0" style="stop-color:#FFFFFF"/>
		<stop  offset="0.0636" style="stop-color:#CFE8E9"/>
		<stop  offset="0.1515" style="stop-color:#9AD1D4"/>
		<stop  offset="0.2428" style="stop-color:#71C0C2"/>
		<stop  offset="0.3369" style="stop-color:#4AB4B6"/>
		<stop  offset="0.4351" style="stop-color:#2DADAF"/>
		<stop  offset="0.5398" style="stop-color:#01A9AC"/>
		<stop  offset="0.7809" style="stop-color:#01A7AA"/>
	</linearGradient>
	
		<path style="fill-rule:evenodd;clip-rule:evenodd;fill:url(#SVGID_1_);stroke:#01737A;stroke-width:2;stroke-linecap:round;stroke-linejoin:round;stroke-miterlimit:22.9256;" d="
		M21,21.546C21,23.454,19.454,25,17.547,25h-4.093C11.546,25,10,23.454,10,21.546v-7.093C10,12.546,11.546,11,13.453,11h4.093
		C19.454,11,21,12.546,21,14.454V21.546z"/>
	
		<circle style="fill-rule:evenodd;clip-rule:evenodd;fill:#F5B175;stroke:#157880;stroke-width:1.9168;stroke-linecap:round;stroke-linejoin:round;stroke-miterlimit:22.9256;" cx="15.268" cy="8.707" r="4.108"/>
	<linearGradient id="SVGID_2_" gradientUnits="userSpaceOnUse" x1="13.8063" y1="10.2378" x2="16.8154" y2="7.0109">
		<stop  offset="0" style="stop-color:#F7B66E"/>
		<stop  offset="1" style="stop-color:#FFFFFF"/>
	</linearGradient>
	<circle style="fill-rule:evenodd;clip-rule:evenodd;fill:url(#SVGID_2_);" cx="15.268" cy="8.67" r="2.25"/>
</g>
<g>
	<path style="fill:#157880;" d="M15.443,67.863c7.551,0,13.693,6.143,13.693,13.693S22.994,95.25,15.443,95.25
		S1.75,89.107,1.75,81.557S7.893,67.863,15.443,67.863 M15.443,66.113C6.914,66.113,0,73.028,0,81.557S6.914,97,15.443,97
		s15.443-6.914,15.443-15.443S23.972,66.113,15.443,66.113L15.443,66.113z"/>
</g>
<g>
	<path style="fill:#157880;" d="M48.691,34.696c7.551,0,13.693,6.143,13.693,13.693s-6.143,13.693-13.693,13.693
		S34.997,55.94,34.997,48.389S41.14,34.696,48.691,34.696 M48.691,32.946c-8.529,0-15.443,6.914-15.443,15.443
		s6.914,15.443,15.443,15.443s15.443-6.914,15.443-15.443S57.22,32.946,48.691,32.946L48.691,32.946z"/>
</g>
<g>
	<path style="fill:#157880;" d="M15.443,1.75c7.551,0,13.693,6.143,13.693,13.693s-6.143,13.693-13.693,13.693
		S1.75,22.994,1.75,15.443S7.893,1.75,15.443,1.75 M15.443,0C6.914,0,0,6.914,0,15.443s6.914,15.443,15.443,15.443
		s15.443-6.914,15.443-15.443S23.972,0,15.443,0L15.443,0z"/>
</g>
<path style="fill-rule:evenodd;clip-rule:evenodd;fill:none;stroke:#157880;stroke-width:2;stroke-linecap:round;stroke-linejoin:round;stroke-miterlimit:22.9256;stroke-dasharray:3,6;" d="
	M38.249,38.249"/>
<g>
	<path style="fill-rule:evenodd;clip-rule:evenodd;fill:none;" d="M71.124,71.124"/>
</g>
<g>
	<path style="fill:#157880;" d="M81.557,1.75c7.551,0,13.693,6.143,13.693,13.693s-6.143,13.693-13.693,13.693
		s-13.693-6.143-13.693-13.693S74.006,1.75,81.557,1.75 M81.557,0c-8.529,0-15.443,6.914-15.443,15.443s6.914,15.443,15.443,15.443
		S97,23.972,97,15.443S90.086,0,81.557,0L81.557,0z"/>
</g>
<path style="fill-rule:evenodd;clip-rule:evenodd;fill:none;stroke:#157880;stroke-width:1.75;stroke-linecap:round;stroke-linejoin:round;stroke-miterlimit:22.9256;" d="
	M69.5,27"/>
<g>
	
		<line style="fill-rule:evenodd;clip-rule:evenodd;fill:none;stroke:#157880;stroke-width:2;stroke-linecap:round;stroke-linejoin:round;stroke-miterlimit:22.9256;stroke-dasharray:3,6;" x1="64" y1="15" x2="29" y2="15"/>
	
		<path style="fill-rule:evenodd;clip-rule:evenodd;fill:none;stroke:#157880;stroke-width:2;stroke-linecap:round;stroke-linejoin:round;stroke-miterlimit:22.9256;stroke-dasharray:3,6;" d="
		M82,63V28"/>
	
		<line style="fill-rule:evenodd;clip-rule:evenodd;fill:none;stroke:#157880;stroke-width:2;stroke-linecap:round;stroke-linejoin:round;stroke-miterlimit:22.9256;stroke-dasharray:3,6;" x1="34" y1="83" x2="69" y2="83"/>
	
		<path style="fill-rule:evenodd;clip-rule:evenodd;fill:none;stroke:#157880;stroke-width:2;stroke-linecap:round;stroke-linejoin:round;stroke-miterlimit:22.9256;stroke-dasharray:3,6;" d="
		M13,33v35"/>
	<g>
		
			<line style="fill-rule:evenodd;clip-rule:evenodd;fill:none;stroke:#157880;stroke-width:2;stroke-linecap:round;stroke-linejoin:round;stroke-miterlimit:22.9256;stroke-dasharray:3,6;" x1="36.249" y1="36.249" x2="23.751" y2="23.751"/>
		
			<line style="fill-rule:evenodd;clip-rule:evenodd;fill:none;stroke:#157880;stroke-width:2;stroke-linecap:round;stroke-linejoin:round;stroke-miterlimit:22.9256;stroke-dasharray:3,6;" x1="69.124" y1="69.124" x2="57.375" y2="57.375"/>
	</g>
	<g>
		
			<line style="fill-rule:evenodd;clip-rule:evenodd;fill:none;stroke:#157880;stroke-width:2;stroke-linecap:round;stroke-linejoin:round;stroke-miterlimit:22.9256;stroke-dasharray:3,6;" x1="60.626" y1="35.249" x2="72.124" y2="23.751"/>
		
			<line style="fill-rule:evenodd;clip-rule:evenodd;fill:none;stroke:#157880;stroke-width:2;stroke-linecap:round;stroke-linejoin:round;stroke-miterlimit:22.9256;stroke-dasharray:3,6;" x1="26.751" y1="69.124" x2="38.499" y2="57.375"/>
	</g>
</g>
<g>
	<path style="fill:#F77E11;" d="M81.557,67.863c7.551,0,13.693,6.143,13.693,13.693S89.107,95.25,81.557,95.25
		s-13.693-6.143-13.693-13.693S74.006,67.863,81.557,67.863 M81.557,66.113c-8.529,0-15.443,6.914-15.443,15.443
		S73.028,97,81.557,97S97,90.086,97,81.557S90.086,66.113,81.557,66.113L81.557,66.113z"/>
</g>
<g>
	<linearGradient id="SVGID_3_" gradientUnits="userSpaceOnUse" x1="85.2743" y1="77.4626" x2="76.0066" y2="93.5148">
		<stop  offset="0" style="stop-color:#FFEDBF"/>
		<stop  offset="1" style="stop-color:#EC7E20"/>
	</linearGradient>
	
		<path style="fill-rule:evenodd;clip-rule:evenodd;fill:url(#SVGID_3_);stroke:#F77E11;stroke-width:2;stroke-linecap:round;stroke-linejoin:round;stroke-miterlimit:22.9256;" d="
		M87,87.546C87,89.454,85.454,91,83.547,91h-4.093C77.546,91,76,89.454,76,87.546v-7.093C76,78.546,77.546,77,79.453,77h4.093
		C85.454,77,87,78.546,87,80.454V87.546z"/>
	
		<circle style="fill-rule:evenodd;clip-rule:evenodd;fill:#F5B175;stroke:#F77E11;stroke-width:1.9168;stroke-linecap:round;stroke-linejoin:round;stroke-miterlimit:22.9256;" cx="81.684" cy="74.805" r="4.108"/>
	<linearGradient id="SVGID_4_" gradientUnits="userSpaceOnUse" x1="80.2228" y1="76.3364" x2="83.2319" y2="73.1095">
		<stop  offset="0" style="stop-color:#F7B66E"/>
		<stop  offset="1" style="stop-color:#FFFFFF"/>
	</linearGradient>
	<circle style="fill-rule:evenodd;clip-rule:evenodd;fill:url(#SVGID_4_);" cx="81.684" cy="74.769" r="2.25"/>
</g>
<g>
	<linearGradient id="SVGID_5_" gradientUnits="userSpaceOnUse" x1="52.2743" y1="44.4626" x2="44.7257" y2="57.5374">
		<stop  offset="0" style="stop-color:#FFFFFF"/>
		<stop  offset="0.0636" style="stop-color:#CFE8E9"/>
		<stop  offset="0.1515" style="stop-color:#9AD1D4"/>
		<stop  offset="0.2428" style="stop-color:#71C0C2"/>
		<stop  offset="0.3369" style="stop-color:#4AB4B6"/>
		<stop  offset="0.4351" style="stop-color:#2DADAF"/>
		<stop  offset="0.5398" style="stop-color:#01A9AC"/>
		<stop  offset="0.7809" style="stop-color:#01A7AA"/>
	</linearGradient>
	
		<path style="fill-rule:evenodd;clip-rule:evenodd;fill:url(#SVGID_5_);stroke:#01737A;stroke-width:2;stroke-linecap:round;stroke-linejoin:round;stroke-miterlimit:22.9256;" d="
		M54,54.546C54,56.454,52.454,58,50.547,58h-4.093C44.546,58,43,56.454,43,54.546v-7.093C43,45.546,44.546,44,46.453,44h4.093
		C52.454,44,54,45.546,54,47.454V54.546z"/>
	
		<circle style="fill-rule:evenodd;clip-rule:evenodd;fill:#F5B175;stroke:#157880;stroke-width:1.9168;stroke-linecap:round;stroke-linejoin:round;stroke-miterlimit:22.9256;" cx="48.831" cy="41.551" r="4.108"/>
	<linearGradient id="SVGID_6_" gradientUnits="userSpaceOnUse" x1="47.3698" y1="43.0824" x2="50.3789" y2="39.8555">
		<stop  offset="0" style="stop-color:#F7B66E"/>
		<stop  offset="1" style="stop-color:#FFFFFF"/>
	</linearGradient>
	<circle style="fill-rule:evenodd;clip-rule:evenodd;fill:url(#SVGID_6_);" cx="48.831" cy="41.515" r="2.25"/>
</g>
<g>
	<linearGradient id="SVGID_7_" gradientUnits="userSpaceOnUse" x1="85.2743" y1="11.4626" x2="77.7257" y2="24.5374">
		<stop  offset="0" style="stop-color:#FFFFFF"/>
		<stop  offset="0.0636" style="stop-color:#CFE8E9"/>
		<stop  offset="0.1515" style="stop-color:#9AD1D4"/>
		<stop  offset="0.2428" style="stop-color:#71C0C2"/>
		<stop  offset="0.3369" style="stop-color:#4AB4B6"/>
		<stop  offset="0.4351" style="stop-color:#2DADAF"/>
		<stop  offset="0.5398" style="stop-color:#01A9AC"/>
		<stop  offset="0.7809" style="stop-color:#01A7AA"/>
	</linearGradient>
	
		<path style="fill-rule:evenodd;clip-rule:evenodd;fill:url(#SVGID_7_);stroke:#01737A;stroke-width:2;stroke-linecap:round;stroke-linejoin:round;stroke-miterlimit:22.9256;" d="
		M87,21.546C87,23.454,85.454,25,83.547,25h-4.093C77.546,25,76,23.454,76,21.546v-7.093C76,12.546,77.546,11,79.453,11h4.093
		C85.454,11,87,12.546,87,14.454V21.546z"/>
	
		<circle style="fill-rule:evenodd;clip-rule:evenodd;fill:#F5B175;stroke:#157880;stroke-width:1.9168;stroke-linecap:round;stroke-linejoin:round;stroke-miterlimit:22.9256;" cx="81.199" cy="8.207" r="4.108"/>
	<linearGradient id="SVGID_8_" gradientUnits="userSpaceOnUse" x1="79.738" y1="9.7378" x2="82.7471" y2="6.5109">
		<stop  offset="0" style="stop-color:#F7B66E"/>
		<stop  offset="1" style="stop-color:#FFFFFF"/>
	</linearGradient>
	<circle style="fill-rule:evenodd;clip-rule:evenodd;fill:url(#SVGID_8_);" cx="81.199" cy="8.17" r="2.25"/>
</g>
<g>
	<linearGradient id="SVGID_9_" gradientUnits="userSpaceOnUse" x1="19.2743" y1="77.4626" x2="11.7257" y2="90.5374">
		<stop  offset="0" style="stop-color:#FFFFFF"/>
		<stop  offset="0.0636" style="stop-color:#CFE8E9"/>
		<stop  offset="0.1515" style="stop-color:#9AD1D4"/>
		<stop  offset="0.2428" style="stop-color:#71C0C2"/>
		<stop  offset="0.3369" style="stop-color:#4AB4B6"/>
		<stop  offset="0.4351" style="stop-color:#2DADAF"/>
		<stop  offset="0.5398" style="stop-color:#01A9AC"/>
		<stop  offset="0.7809" style="stop-color:#01A7AA"/>
	</linearGradient>
	
		<path style="fill-rule:evenodd;clip-rule:evenodd;fill:url(#SVGID_9_);stroke:#01737A;stroke-width:2;stroke-linecap:round;stroke-linejoin:round;stroke-miterlimit:22.9256;" d="
		M21,87.546C21,89.454,19.454,91,17.547,91h-4.093C11.546,91,10,89.454,10,87.546v-7.093C10,78.546,11.546,77,13.453,77h4.093
		C19.454,77,21,78.546,21,80.454V87.546z"/>
	
		<circle style="fill-rule:evenodd;clip-rule:evenodd;fill:#F5B175;stroke:#157880;stroke-width:1.9168;stroke-linecap:round;stroke-linejoin:round;stroke-miterlimit:22.9256;" cx="15.268" cy="74.457" r="4.108"/>
	<linearGradient id="SVGID_10_" gradientUnits="userSpaceOnUse" x1="13.8063" y1="75.9878" x2="16.8154" y2="72.7609">
		<stop  offset="0" style="stop-color:#F7B66E"/>
		<stop  offset="1" style="stop-color:#FFFFFF"/>
	</linearGradient>
	<circle style="fill-rule:evenodd;clip-rule:evenodd;fill:url(#SVGID_10_);" cx="15.268" cy="74.42" r="2.25"/>
</g>
</svg>
