<?xml version="1.0" encoding="iso-8859-1"?>
<!-- Generator: Adobe Illustrator 9.0, SVG Export Plug-In  -->
<!DOCTYPE svg PUBLIC "-//W3C//DTD SVG 20000303 Stylable//EN"   "http://www.w3.org/TR/2000/03/WD-SVG-20000303/DTD/svg-20000303-stylable.dtd" [
	<!ENTITY st0 "fill:url(#aigrd1);">
	<!ENTITY st1 "fill:url(#aigrd2);">
	<!ENTITY st2 "fill:url(#aigrd3);">
	<!ENTITY st3 "fill:url(#aigrd4);">
	<!ENTITY st4 "fill:url(#aigrd5);">
	<!ENTITY st5 "fill:url(#aigrd8);">
	<!ENTITY st6 "opacity:0.1;fill:#000030;">
	<!ENTITY st7 "fill:url(#aigrd10);">
	<!ENTITY st8 "opacity:0.8;">
	<!ENTITY st9 "opacity:0.46;fill:url(#aigrd9);">
	<!ENTITY st10 "opacity:0.6;fill:url(#aigrd6);">
	<!ENTITY st11 "opacity:0.2;fill:#000000;stroke:none;">
	<!ENTITY st12 "fill:none;stroke:none;">
	<!ENTITY st13 "fill-rule:nonzero;clip-rule:nonzero;fill:#FFFFFF;stroke:#FFFFFF;stroke-width:0;stroke-miterlimit:4;">
	<!ENTITY st14 "opacity:0.5;fill:url(#aigrd7);">
	<!ENTITY st15 "stroke:none;">
]>
<svg  width="48pt" height="48pt" viewBox="0 0 144 144" xml:space="preserve">
	<g id="Layer_x0020_1" style="&st13;">
		<path style="&st12;" d="M144,144H0V0h144v144z"/>
		<path style="&st11;" d="M131.887,38.284c-0.32-0.256-0.745-0.333-1.129-0.195l-19.929,7.137l-2.181-3.841l-3.471-12.82c-0.085-0.318-0.296-0.584-0.584-0.736c-0.284-0.151-0.621-0.18-0.93-0.074c0,0-0.843,0.293-2.298,0.801L90.47,9.36
			c-0.12-0.212-0.337-0.352-0.588-0.381c-0.252-0.029-0.503,0.063-0.681,0.245L54.096,44.719c-1.532-1.293-7.635-6.45-7.635-6.45c-0.312-0.263-0.739-0.345-1.127-0.215L13.446,48.856c-0.603,0.201-0.935,0.859-0.744,1.475l28.41,91.504
			c0.105,0.336,0.351,0.61,0.674,0.742c0.086,0.035,0.178,0.032,0.268,0.047c0.315,0.135,0.676,0.132,0.984-0.037l80.402-43.131c0.325-0.175,0.548-0.496,0.601-0.867l8.261-59.22c0.058-0.41-0.103-0.823-0.415-1.086z"/>
		<g style="&st15;">
			<g>
				<linearGradient id="aigrd1" gradientUnits="userSpaceOnUse" x1="123.5684" y1="45.2363" x2="182.512" y2="80.2523" gradientTransform="matrix(0.9982 -0.0593 0.0593 0.9982 -87.0182 26.8942)">
					<stop  offset="0" style="stop-color:#FFFFFF"/>
					<stop  offset="1" style="stop-color:#C0E1FF"/>
				</linearGradient>
				<path style="&st0;" d="M35.712,135.649L7.159,43.683L39.21,32.828l8.439,7.128l50.193-17.483l18.831,69.581l-80.961,43.596z"/>
				<radialGradient id="aigrd2" cx="76.9199" cy="23.5454" r="171.6249" fx="76.9199" fy="23.5454" gradientTransform="matrix(0.9982 -0.0593 0.0593 0.9982 -87.0182 26.8942)" gradientUnits="userSpaceOnUse">
					<stop  offset="0" style="stop-color:#FFFFFF"/>
					<stop  offset="1" style="stop-color:#006FFF"/>
				</radialGradient>
				<path style="&st1;" d="M38.903,133.541L11.699,45.912l30.538-10.346l8.041,6.792l47.827-16.657l17.942,66.303l-77.144,41.537z"/>
				<linearGradient id="aigrd3" gradientUnits="userSpaceOnUse" x1="83.3145" y1="85.458" x2="7.2846" y2="56.0723">
					<stop  offset="0" style="stop-color:#0032A4"/>
					<stop  offset="1" style="stop-color:#3995E5"/>
				</linearGradient>
				<path style="&st2;" d="M38.833,31.7L6.783,42.557c-0.605,0.202-0.939,0.864-0.748,1.482l28.553,91.964c0.106,0.338,0.353,0.613,0.678,0.746s0.691,0.117,1-0.049l80.966-43.597c0.48-0.261,0.725-0.827,0.581-1.36L98.977,22.163
					c-0.086-0.319-0.297-0.587-0.586-0.74c-0.287-0.152-0.626-0.181-0.936-0.074c0,0-48.334,16.835-49.563,17.265c-0.903-0.762-7.927-6.698-7.927-6.698c-0.313-0.265-0.743-0.347-1.133-0.216z M38.962,34.167c0.895,0.756,7.935,6.701,7.935,6.701
					c0.314,0.266,0.747,0.346,1.137,0.209c0,0,46.736-16.279,49.002-17.067c0.634,2.333,17.778,65.69,18.251,67.441c-1.594,0.856-76.473,41.175-78.876,42.474c-0.814-2.629-27.12-87.354-27.782-89.487c1.997-0.674,29.172-9.88,30.333-10.271z"/>
			</g>
			<path style="&st6;" d="M109.896,59.11L81.246,8.642L29.653,60.811l34.299,60.053l45.944-61.753z"/>
			<linearGradient id="aigrd4" gradientUnits="userSpaceOnUse" x1="839.4697" y1="-191.2197" x2="903.9094" y2="-152.9207" gradientTransform="matrix(0.8683 -0.496 0.496 0.8683 -612.582 640.8694)">
				<stop  offset="0" style="stop-color:#D9D9D9"/>
				<stop  offset="1" style="stop-color:#8C99C9"/>
			</linearGradient>
			<path style="&st3;" d="M83.604,2.479c-0.254-0.029-0.506,0.064-0.684,0.246l-51.596,52.17c-0.253,0.257-0.31,0.643-0.138,0.943l34.3,60.052c0.132,0.23,0.377,0.375,0.651,0.385c0.274,0.012,0.538-0.117,0.703-0.338l45.94-61.752
				c0.188-0.252,0.213-0.588,0.063-0.853L84.195,2.862c-0.121-0.212-0.34-0.354-0.592-0.382z"/>
			<path d="M110.273,53.164L83.314,5.665L34.282,55.039l32.28,56.515l43.711-58.39z"/>
			<linearGradient id="aigrd5" gradientUnits="userSpaceOnUse" x1="129.0498" y1="36.8999" x2="180.0103" y2="44.0866" gradientTransform="matrix(0.9982 -0.0593 0.0593 0.9982 -87.0182 26.8942)">
				<stop  offset="0" style="stop-color:#FFFFFF"/>
				<stop  offset="1" style="stop-color:#DFDFEC"/>
			</linearGradient>
			<path style="&st4;" d="M106.338,53.843l-24.08-42.431L38.881,55.271l28.835,50.484l38.622-51.913z"/>
			<linearGradient id="aigrd6" gradientUnits="userSpaceOnUse" x1="40.3745" y1="62.0771" x2="74.974" y2="80.8179">
				<stop  offset="0" style="stop-color:#FFFFFF"/>
				<stop  offset="0.2022" style="stop-color:#CDF8FF"/>
				<stop  offset="1" style="stop-color:#0074FF"/>
			</linearGradient>
			<path style="&st10;" d="M36.542,135.561l4.669-62.654L67.21,61.57l6.947-10.423l51.486-18.443l-8.302,59.515l-80.8,43.342z"/>
			<linearGradient id="aigrd7" gradientUnits="userSpaceOnUse" x1="42.6982" y1="76.6982" x2="99.7029" y2="86.9298">
				<stop  offset="0.1067" style="stop-color:#9DD2FF"/>
				<stop  offset="0.1878" style="stop-color:#96CBFD"/>
				<stop  offset="0.3054" style="stop-color:#83B8F7"/>
				<stop  offset="0.4452" style="stop-color:#6498EC"/>
				<stop  offset="0.6021" style="stop-color:#386CDE"/>
				<stop  offset="0.7714" style="stop-color:#0134CC"/>
				<stop  offset="0.7753" style="stop-color:#0033CC"/>
				<stop  offset="1" style="stop-color:#000090"/>
			</linearGradient>
			<path style="&st14;" d="M36.094,133.84l1.71-15.906c0,0,14.885-35.813,49.148-46.66c29.498-9.335,37.682-38.195,37.682-38.195L116.9,90.5l-80.806,43.34z"/>
			<linearGradient id="aigrd8" gradientUnits="userSpaceOnUse" x1="39.0737" y1="115.6035" x2="111.7554" y2="91.3764">
				<stop  offset="0" style="stop-color:#FFFFFF"/>
				<stop  offset="1" style="stop-color:#B1B1C5"/>
			</linearGradient>
			<path style="&st5;" d="M37.297,133.656l1.807-21.222l79.532-40.813l-2.93,19.979l-78.41,42.057z"/>
			<linearGradient id="aigrd9" gradientUnits="userSpaceOnUse" x1="29.1387" y1="135.3262" x2="98.3116" y2="100.5803">
				<stop  offset="0" style="stop-color:#FFFFFF"/>
				<stop  offset="1" style="stop-color:#797E81"/>
			</linearGradient>
			<path style="&st9;" d="M37.297,133.656l0.818-4.404l79.533-40.814l-1.941,3.162l-78.41,42.057z"/>
			<g>
				<path style="&st8;" d="M70.688,63.599l6.986-10.368l46.357-16.558l0.613-4.316l-51.627,18.44l-6.99,10.37L39.954,72.487l-4.839,62.224l5.058-2.699l4.442-57.092l26.074-11.321z"/>
			</g>
			<linearGradient id="aigrd10" gradientUnits="userSpaceOnUse" x1="94.6201" y1="89.7422" x2="44.392" y2="70.3289">
				<stop  offset="0" style="stop-color:#0032A4"/>
				<stop  offset="1" style="stop-color:#3995E5"/>
			</linearGradient>
			<path style="&st7;" d="M124.686,31.735L73.201,50.173c-0.235,0.083-0.439,0.241-0.576,0.455c0,0-6.392,9.593-6.755,10.135c-0.609,0.269-25.689,11.204-25.689,11.204c-0.398,0.172-0.667,0.552-0.701,0.991l-4.669,62.655c-0.011,0.134,0.001,0.268,0.036,0.394
				c0.071,0.277,0.245,0.528,0.492,0.693c0.354,0.238,0.811,0.267,1.187,0.061l80.806-43.348c0.328-0.176,0.553-0.498,0.604-0.871l8.302-59.518c0.059-0.413-0.104-0.827-0.417-1.091c-0.321-0.258-0.749-0.335-1.134-0.197z M123.652,34.631
				c-0.5,3.602-7.785,55.833-7.94,56.968c-1.013,0.541-74.858,40.15-78.411,42.057c0.297-3.961,4.361-58.438,4.46-59.783c1.229-0.537,25.352-11.056,25.352-11.056c0.204-0.088,0.379-0.234,0.503-0.419c0,0,6.327-9.501,6.731-10.106
				c0.682-0.248,45.941-16.458,49.305-17.661z"/>
		</g>
	</g>
</svg>
