<?xml version="1.0" encoding="iso-8859-1"?>
<svg version="1.1" id="Capa_1" xmlns="http://www.w3.org/2000/svg" xmlns:xlink="http://www.w3.org/1999/xlink" x="0px" y="0px"
	 viewBox="0 0 97 97" style="enable-background:new 0 0 97 97;" xml:space="preserve">
<g>
	<path style="fill:#FFFFFF;" d="M42.606,80.137c2.946-0.961,6.308,1.515,6.261,4.583c0.197,2.969-2.775,5.568-5.715,5.005
		c-2.913-0.355-4.938-3.61-3.958-6.363C39.693,81.809,41.007,80.536,42.606,80.137z"/>
</g>
<g>
	<ellipse style="fill:#FFFFFF;" cx="43.431" cy="84.76" rx="3.613" ry="3.412"/>
	<path style="fill:#FFFFFF;" d="M43.431,89.32c-2.629,0-4.767-2.046-4.767-4.56c0-2.515,2.139-4.56,4.767-4.56
		c2.628,0,4.767,2.046,4.767,4.56C48.198,87.274,46.059,89.32,43.431,89.32z M43.431,82.495c-1.356,0-2.46,1.016-2.46,2.265
		c0,1.249,1.104,2.265,2.46,2.265s2.459-1.016,2.459-2.265C45.89,83.511,44.787,82.495,43.431,82.495z"/>
</g>
<g>
	<g>
		<path style="fill:#F8B87A;" d="M81.348,16.291c-0.087-0.129-0.163-0.258-0.23-0.388c-0.667-1.229-1.456-2.646-2.337-3.996
			c-0.04-0.08-0.09-0.166-0.143-0.257c4.595-2.592,9.095-5.057,13.418-7.35c0.186-0.098,0.419-0.142,0.751-0.142
			c0.241,0,0.485-0.103,0.729-0.083C93.833,4.101,94.131,4,94.423,4h0.014c0.972,1,1.431,1.386,1.536,2.191
			c0.111,0.851-0.114,2.107-1.118,2.673c-1.723,0.953-3.471,1.913-5.219,2.843C86.9,13.161,84.079,14.692,81.348,16.291z"/>
		<path style="fill:#028189;" d="M92.807,5.159L92.807,5.159c0.185,0,0.408,0.019,0.645,0.039c0.243,0.02,0.512,0.043,0.796,0.05
			c0.567,0.265,0.704,0.971,0.734,1.198c0.076,0.585-0.085,1.309-0.603,1.602c-1.721,0.952-3.496,1.895-5.212,2.808
			c-2.454,1.305-4.975,2.645-7.446,4.065c-0.5-0.912-1.066-1.913-1.686-2.907c4.26-2.395,8.455-4.689,12.482-6.824
			C92.516,5.188,92.579,5.159,92.807,5.159 M92.806,3.159c-0.422,0-0.835,0.056-1.22,0.258c-4.658,2.47-9.278,5.009-13.866,7.603
			c-0.596,0.303,0.012,0.993,0.189,1.382c0.84,1.281,1.589,2.614,2.319,3.959c0.232,0.45,0.538,0.857,0.88,1.232
			c4.646-2.77,9.505-5.18,14.238-7.797c2.519-1.423,2.08-5.809-0.776-6.55c-0.049,0.002-0.098,0.002-0.147,0.002
			C93.893,3.249,93.342,3.159,92.806,3.159L92.806,3.159z"/>
	</g>
	<g>
		<linearGradient id="SVGID_1_" gradientUnits="userSpaceOnUse" x1="25.9296" y1="74.1758" x2="64.872" y2="1.0236">
			<stop  offset="0" style="stop-color:#038890"/>
			<stop  offset="0.0824" style="stop-color:#2A9BA1"/>
			<stop  offset="0.2282" style="stop-color:#6AB9BD"/>
			<stop  offset="0.3675" style="stop-color:#9FD2D5"/>
			<stop  offset="0.4964" style="stop-color:#C9E5E7"/>
			<stop  offset="0.6128" style="stop-color:#E6F3F4"/>
			<stop  offset="0.7126" style="stop-color:#F9FCFC"/>
			<stop  offset="0.7842" style="stop-color:#FFFFFF"/>
		</linearGradient>
		<path style="fill:url(#SVGID_1_);" d="M25.901,83.007c-0.247-0.14-0.495-0.278-0.745-0.41c-4.267-2.348-8.366-4.484-12.33-6.55
			c-3.719-1.938-7.557-3.938-11.547-6.121c0.243-0.495,0.529-0.984,0.826-1.492c0.111-0.191,0.223-0.382,0.333-0.573
			c3.883,2.093,7.628,4.056,11.258,5.958c4.42,2.316,8.982,4.707,13.724,7.298c-0.353,0.648-0.72,1.377-1.044,2.154
			C26.219,83.186,26.062,83.097,25.901,83.007z M53.622,71.614c-0.72-0.455-1.464-0.896-2.257-1.266
			c0.156-0.292,0.325-0.584,0.499-0.885c0.355-0.614,0.723-1.249,1.019-1.941c0.205-0.48,0.005-1.039-0.459-1.28
			c-0.611-0.317-1.211-0.656-1.811-0.995c-1.007-0.569-2.047-1.157-3.143-1.645c-0.132-0.06-0.27-0.087-0.406-0.087
			c-0.347,0-0.682,0.181-0.866,0.499c-0.368,0.634-0.716,1.282-1.064,1.932c-0.558,1.038-1.088,2.026-1.695,2.96
			c-1.116,0.118-2.203,0.315-3.255,0.589L65.871,23.39c0.954-1.729,1.94-3.517,3.372-4.812c0.904-0.842,2.004-1.433,3.169-2.058
			c0.311-0.167,0.621-0.334,0.928-0.506c0.828-0.458,2.038-1.025,3.207-1.574c0.96-0.45,1.943-0.911,2.777-1.34
			c0.368,0.623,0.694,1.244,1.033,1.891c0.037,0.07,0.073,0.14,0.11,0.21c-1.076,0.578-2.298,1.216-3.521,1.856
			c-1.63,0.853-3.266,1.708-4.575,2.426c-1.926,1.045-3.03,3.017-3.837,4.457c-0.527,0.958-1.058,1.905-1.589,2.852
			c-0.608,1.088-1.218,2.176-1.816,3.269c-0.438,0.63-0.188,1.368-0.054,1.764l0.043,0.13c0.354,0.981,0.673,1.926,0.993,2.87
			c0.405,1.197,0.812,2.394,1.254,3.578c0.579,1.561,1.143,3.4,0.926,5.185c-0.182,1.964-1.132,3.782-2.174,5.628
			c-1.884,3.36-3.754,6.726-5.625,10.091C58.21,63.413,55.927,67.521,53.622,71.614z M54.5,50.274c-0.086,0-0.172,0.011-0.256,0.033
			c-0.258,0.068-0.478,0.236-0.61,0.467c-1.699,2.945-3.496,6.086-5.136,9.246c-0.25,0.482-0.069,1.076,0.407,1.338
			c0.437,0.239,0.872,0.482,1.306,0.726c1.159,0.649,2.357,1.32,3.588,1.913c0.14,0.066,0.287,0.099,0.433,0.099
			c0.344,0,0.677-0.178,0.862-0.491c0.891-1.508,1.747-3.063,2.575-4.564c0.816-1.48,1.66-3.011,2.53-4.485
			c0.26-0.439,0.146-1.004-0.264-1.31c-1.019-0.76-2.14-1.344-3.224-1.909c-0.575-0.3-1.15-0.6-1.707-0.925
			C54.851,50.321,54.676,50.274,54.5,50.274z M62.911,35.451c-0.173,0-0.346,0.045-0.5,0.134c-0.558,0.322-0.832,0.822-1.033,1.188
			l-0.093,0.167c-0.861,1.578-1.728,3.125-2.595,4.672c-0.949,1.695-1.899,3.391-2.826,5.099c-0.245,0.452-0.107,1.017,0.318,1.305
			c1.024,0.693,2.114,1.268,3.168,1.825c0.563,0.297,1.125,0.594,1.677,0.908c0.155,0.088,0.325,0.131,0.495,0.131
			c0.28,0,0.557-0.118,0.752-0.341c0.463-0.528,0.767-1.104,1.061-1.66c0.129-0.243,0.257-0.487,0.399-0.721l0.267-0.485
			c0.819-1.487,1.747-3.173,1.744-5.112c0-0.035-0.002-0.069-0.006-0.104c-0.15-1.418-0.631-2.71-1.096-3.96
			c-0.293-0.787-0.569-1.53-0.764-2.292c-0.077-0.303-0.292-0.553-0.58-0.674C63.175,35.477,63.043,35.451,62.911,35.451z"/>
		<path style="fill:#028189;" d="M78.921,14.42c0.066,0.122,0.132,0.244,0.198,0.368c-0.843,0.447-1.744,0.918-2.628,1.38
			c-1.611,0.843-3.277,1.714-4.594,2.436c-2.182,1.185-3.37,3.302-4.244,4.862c-0.523,0.951-1.054,1.898-1.584,2.844
			c-0.598,1.069-1.197,2.137-1.785,3.21c-0.676,1.093-0.301,2.201-0.157,2.627l0.035,0.106c0.009,0.029,0.018,0.057,0.029,0.085
			c0.337,0.933,0.655,1.873,0.974,2.812c0.4,1.18,0.813,2.401,1.261,3.599c0.538,1.45,1.063,3.145,0.872,4.719
			c-0.002,0.019-0.004,0.038-0.006,0.057c-0.161,1.738-1.059,3.452-2.049,5.205c-1.881,3.356-3.75,6.718-5.619,10.081
			c-2.081,3.744-4.224,7.599-6.365,11.409c-0.168-0.098-0.337-0.195-0.51-0.289c0.364-0.629,0.738-1.28,1.052-2.014
			c0.411-0.962,0.011-2.079-0.917-2.561c-0.592-0.307-1.17-0.634-1.783-0.981c-1.026-0.58-2.086-1.179-3.224-1.686
			c-0.264-0.117-0.54-0.173-0.813-0.173c-0.694,0-1.364,0.363-1.732,0.998c-0.378,0.652-0.734,1.316-1.078,1.957
			c-0.469,0.873-0.918,1.71-1.405,2.497c-0.242,0.031-0.483,0.065-0.722,0.103c3.548-6.367,7.094-12.735,10.64-19.102
			c4.622-8.3,9.245-16.601,13.874-24.905l0.105-0.189c0.957-1.734,1.86-3.371,3.189-4.574c0.8-0.745,1.846-1.306,2.953-1.901
			c0.315-0.169,0.63-0.339,0.934-0.508c0.803-0.444,1.996-1.004,3.15-1.545C77.627,15.038,78.294,14.726,78.921,14.42 M61.522,51.88
			c0.561,0,1.115-0.236,1.506-0.683c0.539-0.616,0.885-1.271,1.191-1.85c0.119-0.226,0.237-0.452,0.37-0.669
			c0.017-0.028,0.033-0.056,0.049-0.084l0.239-0.435c0.878-1.594,1.873-3.401,1.87-5.599c0-0.069-0.004-0.139-0.011-0.208
			c-0.164-1.543-0.666-2.895-1.152-4.202c-0.283-0.762-0.551-1.481-0.732-2.193c-0.155-0.606-0.584-1.105-1.161-1.349
			c-0.249-0.105-0.514-0.157-0.777-0.157c-0.346,0-0.691,0.09-0.999,0.267c-0.801,0.461-1.182,1.156-1.411,1.572l-0.082,0.148
			c-0.009,0.015-0.017,0.03-0.026,0.046c-0.847,1.554-1.713,3.098-2.578,4.643c-0.934,1.668-1.901,3.393-2.831,5.108
			c-0.491,0.904-0.215,2.034,0.637,2.61c1.07,0.724,2.184,1.312,3.261,1.881c0.553,0.292,1.106,0.583,1.649,0.893
			C60.843,51.795,61.184,51.88,61.522,51.88 M54.231,65.096c0.687,0,1.352-0.355,1.723-0.983c0.899-1.521,1.759-3.082,2.591-4.591
			c0.812-1.474,1.652-2.997,2.515-4.459c0.519-0.88,0.292-2.009-0.527-2.62c-1.083-0.808-2.24-1.411-3.359-1.995
			c-0.584-0.305-1.136-0.592-1.665-0.902c-0.309-0.181-0.658-0.273-1.01-0.273c-0.172,0-0.344,0.022-0.513,0.067
			c-0.515,0.137-0.954,0.473-1.22,0.934c-1.71,2.965-3.516,6.124-5.157,9.286c-0.5,0.964-0.139,2.152,0.813,2.675
			c0.434,0.238,0.866,0.48,1.298,0.722c1.172,0.656,2.385,1.335,3.643,1.941C53.643,65.032,53.939,65.096,54.231,65.096
			 M2.816,69.199c3.586,1.925,7.052,3.742,10.419,5.507c4.146,2.173,8.418,4.412,12.843,6.819c-0.056,0.112-0.112,0.227-0.168,0.342
			c-0.088-0.048-0.173-0.093-0.253-0.135c-4.295-2.364-8.4-4.503-12.37-6.572C9.844,73.365,6.3,71.518,2.63,69.523
			C2.691,69.415,2.753,69.308,2.816,69.199 M79.678,11.776c-1.781,1.013-5.033,2.373-6.826,3.366
			c-1.47,0.822-3.036,1.538-4.28,2.695c-1.61,1.457-2.647,3.388-3.682,5.26C56.092,38.881,47.305,54.673,38.507,70.46
			c-0.081,0.185-0.244,0.551-0.328,0.736c1.868-0.736,3.83-1.169,5.829-1.339c1.156-1.685,2.031-3.569,3.057-5.341
			c1.691,0.753,3.254,1.76,4.899,2.614c-0.555,1.298-1.418,2.438-1.958,3.74c1.433,0.508,2.702,1.339,3.969,2.158
			c4.373-7.753,8.662-15.556,13.015-23.321c1.055-1.87,2.095-3.829,2.296-5.999c0.235-1.939-0.314-3.855-0.982-5.656
			c-0.79-2.115-1.462-4.271-2.229-6.394c-0.11-0.355-0.308-0.765-0.067-1.117c1.119-2.043,2.275-4.069,3.4-6.112
			c0.869-1.55,1.825-3.189,3.446-4.069c2.569-1.408,6.394-3.347,8.965-4.752C81.088,14.264,80.518,13.057,79.678,11.776
			L79.678,11.776z M61.523,49.88c-1.589-0.906-3.266-1.668-4.78-2.692c1.772-3.266,3.629-6.487,5.408-9.747
			c0.209-0.361,0.381-0.77,0.761-0.99c0.526,2.063,1.607,3.976,1.833,6.112c0.003,1.855-1.005,3.494-1.865,5.076
			C62.426,48.383,62.104,49.217,61.523,49.88L61.523,49.88z M54.232,63.096c-1.653-0.796-3.237-1.731-4.847-2.614
			c1.616-3.113,3.362-6.169,5.114-9.208c1.604,0.938,3.356,1.668,4.838,2.773C57.577,57.031,55.993,60.115,54.232,63.096
			L54.232,63.096z M2.036,66.506C1.38,67.802,0.507,68.999,0,70.364c8.561,4.713,16.13,8.407,24.693,13.12
			c0.742,0.388,1.45,0.847,2.231,1.16c0.466-1.376,1.138-2.664,1.863-3.918C19.54,75.647,11.313,71.527,2.036,66.506L2.036,66.506z"
			/>
	</g>
	
		<linearGradient id="SVGID_2_" gradientUnits="userSpaceOnUse" x1="-13.9055" y1="-6.6872" x2="-8.9758" y2="-6.6872" gradientTransform="matrix(-0.1686 -0.3195 -0.9217 0.4864 79.7495 9.0986)">
		<stop  offset="0" style="stop-color:#F9BD72"/>
		<stop  offset="1" style="stop-color:#FFFFFF"/>
	</linearGradient>
	<path style="fill-rule:evenodd;clip-rule:evenodd;fill:url(#SVGID_2_);" d="M81.268,12.37l0.533,1.003
		c0.077,0.145,0.719-0.096,1.154-0.324l-0.884,0.464L92.569,8.01l1.108-0.581c0.696-0.365,0.833-0.623,0.709-0.855l-0.365-0.686
		c-0.123-0.232-0.466-0.364-1.163,0.001L91.751,6.47l-10.499,5.502l0.884-0.464C81.701,11.737,81.191,12.225,81.268,12.37z"/>
</g>
<g>
	<linearGradient id="SVGID_3_" gradientUnits="userSpaceOnUse" x1="43.5827" y1="29.9469" x2="4.6843" y2="74.6944">
		<stop  offset="0" style="stop-color:#FFFFFF"/>
		<stop  offset="0.0929" style="stop-color:#FEF8F1"/>
		<stop  offset="0.2695" style="stop-color:#FCE6CB"/>
		<stop  offset="0.5114" style="stop-color:#F8CA8E"/>
		<stop  offset="0.8059" style="stop-color:#F3A33B"/>
		<stop  offset="1" style="stop-color:#F08701"/>
	</linearGradient>
	
		<path style="fill:url(#SVGID_3_);stroke:#028189;stroke-width:2;stroke-linecap:round;stroke-linejoin:round;stroke-miterlimit:10;" d="
		M1.2,57.57c4.82-8.527,9.491-17.135,14.336-25.648c4.053,2.137,8.028,4.418,12.067,6.587c-1.456,2.407-2.848,4.864-4.092,7.387
		c1.89,1.183,3.901,2.162,5.848,3.253c1.505-2.362,2.71-4.899,4.145-7.302c4.081,2.028,8,4.379,12.025,6.52
		c-4.891,8.931-9.901,17.795-14.838,26.701c-0.191-0.081-0.572-0.246-0.767-0.33c-9.742-5.295-19.417-10.724-29.188-15.973
		C0.832,58.345,0.967,57.935,1.2,57.57z"/>
	<linearGradient id="SVGID_4_" gradientUnits="userSpaceOnUse" x1="27.7089" y1="45.128" x2="32.8765" y2="36.5123">
		<stop  offset="0" style="stop-color:#FFFFFF"/>
		<stop  offset="1" style="stop-color:#00AFB3"/>
	</linearGradient>
	
		<path style="fill:url(#SVGID_4_);stroke:#028189;stroke-width:1.8102;stroke-linecap:round;stroke-linejoin:round;stroke-miterlimit:10;" d="
		M27.603,38.508c2.074,0.898,3.965,2.169,5.986,3.186l-0.085,0.151c-1.435,2.404-2.64,4.941-4.145,7.302
		c-1.947-1.091-3.958-2.07-5.848-3.253C24.755,43.372,26.147,40.915,27.603,38.508z"/>
	<g>
		<path style="fill:#028189;stroke:#028189;stroke-width:0.6914;stroke-miterlimit:10;" d="M29.49,57.685
			c-0.206-0.109-0.432-0.095-0.503,0.032l-2.431,4.33l-3.656-1.927l2.431-4.33c0.071-0.126-0.039-0.317-0.246-0.426l-1.855-0.978
			l5.96-1.252l2.153,5.529L29.49,57.685z"/>
		<path style="fill:#028189;stroke:#028189;stroke-width:0.6439;stroke-miterlimit:10;" d="M19.953,52.749
			c-0.192-0.101-0.402-0.088-0.468,0.029l-2.264,4.033l-3.405-1.795l2.264-4.033c0.066-0.118-0.036-0.295-0.229-0.397l-1.728-0.911
			l5.551-1.166l2.005,5.149L19.953,52.749z"/>
		<polygon style="fill:#028189;" points="12.033,59.24 12.829,57.597 26.023,64.866 25.26,66.278 		"/>
	</g>
</g>
<g>
	<linearGradient id="SVGID_5_" gradientUnits="userSpaceOnUse" x1="62.32" y1="-3.32" x2="19.2313" y2="46.248">
		<stop  offset="0" style="stop-color:#FFFFFF"/>
		<stop  offset="0.0929" style="stop-color:#FEF8F1"/>
		<stop  offset="0.2695" style="stop-color:#FCE6CB"/>
		<stop  offset="0.5114" style="stop-color:#F8CA8E"/>
		<stop  offset="0.8059" style="stop-color:#F3A33B"/>
		<stop  offset="1" style="stop-color:#F08701"/>
	</linearGradient>
	
		<path style="fill:url(#SVGID_5_);stroke:#028189;stroke-width:2;stroke-linecap:round;stroke-linejoin:round;stroke-miterlimit:10;" d="
		M18.116,26.398c4.82-8.527,9.491-17.135,14.336-25.648c4.053,2.137,8.028,4.418,12.067,6.587c-1.456,2.407-2.848,4.864-4.092,7.387
		c1.89,1.183,3.901,2.162,5.848,3.253c1.505-2.362,2.71-4.899,4.145-7.302c4.081,2.028,8,4.379,12.025,6.52
		c-4.891,8.931-9.901,17.795-14.838,26.701c-0.191-0.081-0.572-0.246-0.767-0.33c-9.742-5.295-19.417-10.724-29.188-15.973
		C17.748,27.173,17.883,26.763,18.116,26.398z"/>
	<linearGradient id="SVGID_6_" gradientUnits="userSpaceOnUse" x1="44.6248" y1="13.9563" x2="49.7924" y2="5.3407">
		<stop  offset="0" style="stop-color:#FFFFFF"/>
		<stop  offset="1" style="stop-color:#00AFB3"/>
	</linearGradient>
	
		<path style="fill:url(#SVGID_6_);stroke:#028189;stroke-width:1.8102;stroke-linecap:round;stroke-linejoin:round;stroke-miterlimit:10;" d="
		M44.519,7.337c2.074,0.898,3.965,2.169,5.986,3.186l-0.085,0.151c-1.435,2.404-2.64,4.941-4.145,7.302
		c-1.947-1.091-3.958-2.07-5.848-3.253C41.671,12.2,43.063,9.744,44.519,7.337z"/>
	<g>
		<path style="fill:#028189;stroke:#028189;stroke-width:0.6954;stroke-miterlimit:10;" d="M46.506,26.464
			c-0.208-0.109-0.434-0.095-0.505,0.032l-2.445,4.355l-3.677-1.938l2.445-4.355c0.071-0.127-0.039-0.319-0.247-0.428l-1.866-0.983
			l5.994-1.259l2.166,5.561L46.506,26.464z"/>
		<path style="fill:#028189;stroke:#028189;stroke-width:0.6476;stroke-miterlimit:10;" d="M36.914,21.5
			c-0.193-0.102-0.404-0.089-0.471,0.03l-2.277,4.056l-3.424-1.805l2.277-4.056c0.066-0.118-0.037-0.297-0.23-0.399l-1.738-0.916
			l5.583-1.173l2.017,5.179L36.914,21.5z"/>
		<polygon style="fill:#028189;" points="28.949,28.028 29.749,26.376 43.019,33.687 42.252,35.106 		"/>
	</g>
</g>
<g>
	
		<ellipse style="fill:#028189;stroke:#028189;stroke-width:2;stroke-miterlimit:10;" cx="44.08" cy="84.899" rx="11.224" ry="11.351"/>
</g>
<linearGradient id="SVGID_7_" gradientUnits="userSpaceOnUse" x1="39.8375" y1="88.8723" x2="46.9815" y2="81.4744">
	<stop  offset="0" style="stop-color:#038890"/>
	<stop  offset="0.1049" style="stop-color:#349FA6"/>
	<stop  offset="0.2345" style="stop-color:#69B8BD"/>
	<stop  offset="0.3658" style="stop-color:#97CED1"/>
	<stop  offset="0.4961" style="stop-color:#BCE0E2"/>
	<stop  offset="0.6254" style="stop-color:#DAEDEF"/>
	<stop  offset="0.7531" style="stop-color:#EEF7F8"/>
	<stop  offset="0.8788" style="stop-color:#FBFDFD"/>
	<stop  offset="1" style="stop-color:#FFFFFF"/>
</linearGradient>
<ellipse style="fill-rule:evenodd;clip-rule:evenodd;fill:url(#SVGID_7_);" cx="43.633" cy="84.942" rx="5.299" ry="5.272"/>
</svg>
