<?xml version="1.0" encoding="iso-8859-1"?>
<svg version="1.1" id="Capa_1" xmlns="http://www.w3.org/2000/svg" xmlns:xlink="http://www.w3.org/1999/xlink" x="0px" y="0px"
	 viewBox="0 0 97 97" style="enable-background:new 0 0 97 97;" xml:space="preserve">
<g>
	<path style="fill:#FFFFFF;" d="M54.394,80.137c-2.946-0.961-6.308,1.515-6.261,4.583c-0.197,2.969,2.775,5.568,5.715,5.005
		c2.913-0.355,4.938-3.61,3.958-6.363C57.307,81.809,55.993,80.536,54.394,80.137z"/>
</g>
<g>
	<ellipse style="fill:#FFFFFF;" cx="53.569" cy="84.76" rx="3.613" ry="3.412"/>
	<path style="fill:#FFFFFF;" d="M48.802,84.76c0-2.515,2.139-4.56,4.767-4.56c2.629,0,4.767,2.046,4.767,4.56
		c0,2.515-2.139,4.56-4.767,4.56C50.941,89.32,48.802,87.274,48.802,84.76z M51.11,84.76c0,1.249,1.103,2.265,2.459,2.265
		s2.46-1.016,2.46-2.265c0-1.249-1.104-2.265-2.46-2.265S51.11,83.511,51.11,84.76z"/>
</g>
<g>
	<g>
		<path style="fill:#F8B87A;" d="M15.652,16.291c-2.732-1.599-5.552-3.099-8.288-4.553c-1.748-0.929-3.496-1.859-5.228-2.816
			c-0.995-0.562-1.221-1.88-1.11-2.73C1.132,5.387,1.591,5,2.563,4h0.014c0.292,0,0.59,0.101,0.888,0.076
			c0.244-0.02,0.488,0.02,0.729,0.02c0.333,0,0.566,0.076,0.755,0.175c4.333,2.298,8.844,4.785,13.414,7.364
			c-0.053,0.09-0.102,0.185-0.143,0.264c-0.875,1.341-1.635,2.708-2.327,3.981C15.822,16.019,15.742,16.157,15.652,16.291z"/>
		<path style="fill:#028189;" d="M4.194,5.159c0.214,0,0.282,0.026,0.283,0.026c0,0,0,0,0,0c4.034,2.139,8.23,4.433,12.49,6.828
			c-0.615,0.986-1.179,1.983-1.686,2.907c-2.471-1.419-4.993-2.76-7.447-4.065C6.118,9.942,4.343,8.999,2.637,8.055
			C2.104,7.754,1.942,7.03,2.019,6.445c0.03-0.227,0.167-0.933,0.734-1.198c0.284-0.007,0.553-0.03,0.796-0.05
			C3.785,5.177,4.009,5.159,4.194,5.159 M4.194,3.159c-0.535,0-1.086,0.091-1.617,0.091c-0.049,0-0.098-0.001-0.147-0.002
			c-2.856,0.742-3.295,5.128-0.776,6.55c4.733,2.617,9.592,5.027,14.238,7.797c0.343-0.375,0.648-0.782,0.88-1.232
			c0.729-1.345,1.479-2.678,2.319-3.959c0.177-0.39,0.785-1.079,0.189-1.382c-4.588-2.594-9.208-5.133-13.866-7.603
			C5.029,3.215,4.616,3.159,4.194,3.159L4.194,3.159z"/>
	</g>
	<g>
		
			<linearGradient id="SVGID_1_" gradientUnits="userSpaceOnUse" x1="25.9295" y1="74.1757" x2="64.8719" y2="1.0235" gradientTransform="matrix(-1 0 0 1 97 0)">
			<stop  offset="0" style="stop-color:#038890"/>
			<stop  offset="0.0824" style="stop-color:#2A9BA1"/>
			<stop  offset="0.2282" style="stop-color:#6AB9BD"/>
			<stop  offset="0.3675" style="stop-color:#9FD2D5"/>
			<stop  offset="0.4964" style="stop-color:#C9E5E7"/>
			<stop  offset="0.6128" style="stop-color:#E6F3F4"/>
			<stop  offset="0.7126" style="stop-color:#F9FCFC"/>
			<stop  offset="0.7842" style="stop-color:#FFFFFF"/>
		</linearGradient>
		<path style="fill:url(#SVGID_1_);" d="M70.625,83.271c-0.325-0.777-0.691-1.506-1.044-2.153c4.742-2.592,9.305-4.983,13.727-7.301
			c3.629-1.901,7.372-3.863,11.255-5.956c0.109,0.191,0.221,0.382,0.332,0.572c0.297,0.508,0.583,0.997,0.826,1.493
			c-3.99,2.183-7.828,4.183-11.547,6.121c-3.965,2.065-8.064,4.202-12.35,6.561c-0.231,0.121-0.478,0.26-0.725,0.398
			C70.938,83.097,70.781,83.186,70.625,83.271z M43.377,71.614c-2.304-4.094-4.586-8.2-6.869-12.306
			c-1.871-3.366-3.742-6.731-5.625-10.091c-1.043-1.849-1.993-3.667-2.172-5.602c-0.22-1.814,0.344-3.653,0.924-5.216
			c0.441-1.181,0.847-2.376,1.252-3.572c0.32-0.945,0.641-1.891,0.98-2.83l0.057-0.172c0.134-0.396,0.383-1.135-0.106-1.85
			c-0.545-1.007-1.154-2.094-1.763-3.182c-0.53-0.948-1.061-1.896-1.585-2.847c-0.856-1.527-1.917-3.418-3.845-4.465
			c-1.31-0.718-2.951-1.577-4.586-2.432c-1.219-0.638-2.435-1.273-3.507-1.849c0.037-0.07,0.074-0.14,0.11-0.21
			c0.339-0.647,0.666-1.269,1.033-1.891c0.834,0.429,1.817,0.89,2.777,1.34c1.169,0.548,2.378,1.115,3.211,1.576
			c0.302,0.169,0.613,0.336,0.924,0.503c1.165,0.625,2.265,1.217,3.16,2.049c1.441,1.305,2.427,3.091,3.381,4.819l25.683,46.106
			c-1.051-0.272-2.136-0.469-3.25-0.587c-0.607-0.935-1.139-1.924-1.697-2.964c-0.348-0.647-0.695-1.295-1.062-1.928
			c-0.184-0.317-0.519-0.499-0.866-0.499c-0.136,0-0.274,0.027-0.405,0.087c-1.096,0.487-2.137,1.076-3.144,1.645
			c-0.6,0.339-1.199,0.678-1.81,0.995c-0.464,0.241-0.664,0.8-0.458,1.28c0.296,0.692,0.663,1.327,1.018,1.941
			c0.174,0.301,0.343,0.593,0.5,0.885C44.841,70.718,44.098,71.159,43.377,71.614z M42.5,50.274c-0.176,0-0.35,0.046-0.504,0.137
			c-0.557,0.325-1.132,0.624-1.706,0.924c-1.084,0.565-2.206,1.15-3.226,1.91c-0.409,0.306-0.522,0.87-0.263,1.31
			c0.87,1.475,1.713,3.005,2.529,4.484c0.829,1.503,1.685,3.057,2.576,4.565c0.186,0.313,0.518,0.491,0.861,0.491
			c0.146,0,0.294-0.032,0.433-0.099c1.23-0.593,2.429-1.264,3.588-1.913c0.435-0.243,0.869-0.486,1.306-0.726
			c0.476-0.262,0.657-0.855,0.407-1.338c-1.63-3.141-3.359-6.166-5.135-9.246c-0.133-0.23-0.353-0.398-0.61-0.467
			C42.672,50.285,42.586,50.274,42.5,50.274z M34.088,35.451c-0.132,0-0.264,0.026-0.389,0.079
			c-0.289,0.122-0.503,0.371-0.581,0.674c-0.194,0.763-0.471,1.506-0.763,2.294c-0.465,1.25-0.945,2.542-1.096,3.959
			c-0.003,0.035-0.005,0.069-0.005,0.104c-0.003,1.941,0.927,3.628,1.747,5.117l0.24,0.438c0.167,0.276,0.294,0.52,0.423,0.763
			c0.294,0.556,0.598,1.132,1.061,1.66c0.195,0.223,0.472,0.341,0.752,0.341c0.169,0,0.339-0.043,0.495-0.131
			c0.551-0.314,1.114-0.611,1.676-0.907c1.054-0.557,2.144-1.132,3.169-1.826c0.426-0.288,0.564-0.853,0.318-1.305
			c-0.927-1.708-1.876-3.403-2.826-5.098c-0.867-1.547-1.734-3.095-2.583-4.651l-0.106-0.189c-0.201-0.366-0.476-0.866-1.034-1.188
			C34.434,35.496,34.261,35.451,34.088,35.451z"/>
		<path style="fill:#028189;" d="M18.079,14.42c0.627,0.306,1.294,0.619,1.95,0.926c1.154,0.541,2.348,1.101,3.143,1.541
			c0.311,0.174,0.626,0.343,0.941,0.513c1.107,0.595,2.152,1.156,2.973,1.92c1.308,1.184,2.212,2.822,3.168,4.555l0.108,0.196
			c4.625,8.298,9.248,16.598,13.87,24.899c3.546,6.367,7.092,12.735,10.64,19.102c-0.24-0.038-0.48-0.072-0.722-0.103
			c-0.487-0.788-0.936-1.624-1.405-2.497c-0.345-0.642-0.701-1.305-1.078-1.957c-0.368-0.636-1.038-0.998-1.732-0.998
			c-0.273,0-0.549,0.056-0.813,0.173c-1.138,0.507-2.198,1.106-3.224,1.686c-0.613,0.346-1.192,0.673-1.783,0.981
			c-0.929,0.482-1.329,1.599-0.917,2.561c0.314,0.734,0.688,1.385,1.052,2.014c-0.172,0.094-0.342,0.191-0.51,0.289
			c-2.141-3.81-4.284-7.665-6.365-11.409c-1.869-3.363-3.738-6.725-5.622-10.086c-0.987-1.749-1.885-3.463-2.046-5.2
			c-0.002-0.019-0.004-0.038-0.006-0.057c-0.191-1.574,0.333-3.269,0.87-4.715c0.449-1.202,0.863-2.423,1.263-3.603
			c0.318-0.939,0.636-1.879,0.974-2.812c0.01-0.028,0.02-0.057,0.029-0.085l0.035-0.106c0.144-0.426,0.519-1.534-0.157-2.627
			c-0.588-1.073-1.186-2.141-1.785-3.21c-0.53-0.947-1.06-1.894-1.591-2.858c-0.867-1.546-2.054-3.664-4.229-4.844
			c-1.324-0.726-2.99-1.597-4.601-2.44c-0.884-0.462-1.784-0.933-2.628-1.38C17.946,14.664,18.012,14.542,18.079,14.42
			 M35.478,51.88c0.338,0,0.679-0.086,0.99-0.263c0.543-0.309,1.096-0.601,1.649-0.893c1.077-0.569,2.192-1.157,3.261-1.881
			c0.852-0.577,1.128-1.706,0.637-2.61c-0.931-1.715-1.897-3.44-2.831-5.108c-0.865-1.545-1.731-3.089-2.578-4.643
			c-0.008-0.015-0.017-0.031-0.026-0.046l-0.082-0.148c-0.228-0.415-0.61-1.11-1.411-1.572c-0.308-0.177-0.652-0.267-0.999-0.267
			c-0.264,0-0.528,0.052-0.777,0.157c-0.577,0.243-1.006,0.742-1.161,1.349c-0.181,0.711-0.449,1.431-0.732,2.193
			c-0.486,1.307-0.989,2.659-1.152,4.202c-0.007,0.069-0.011,0.139-0.011,0.208c-0.003,2.198,0.992,4.005,1.87,5.599l0.239,0.435
			c0.016,0.029,0.032,0.057,0.049,0.084c0.132,0.217,0.25,0.443,0.37,0.669c0.306,0.579,0.652,1.234,1.191,1.85
			C34.364,51.644,34.917,51.88,35.478,51.88 M42.769,65.096c0.292,0,0.588-0.064,0.867-0.198c1.258-0.606,2.47-1.285,3.643-1.941
			c0.432-0.242,0.864-0.484,1.298-0.722c0.953-0.523,1.314-1.71,0.813-2.675c-1.641-3.162-3.447-6.321-5.157-9.286
			c-0.266-0.461-0.705-0.797-1.22-0.934c-0.169-0.045-0.341-0.067-0.513-0.067c-0.352,0-0.701,0.093-1.01,0.273
			c-0.529,0.309-1.081,0.597-1.665,0.902c-1.119,0.583-2.276,1.187-3.359,1.995c-0.819,0.611-1.046,1.74-0.527,2.62
			c0.862,1.461,1.702,2.985,2.515,4.459c0.832,1.509,1.692,3.07,2.591,4.591C41.417,64.741,42.082,65.096,42.769,65.096
			 M94.184,69.199c0.063,0.109,0.126,0.216,0.187,0.323c-3.67,1.995-7.215,3.842-10.658,5.637c-3.97,2.069-8.075,4.208-12.332,6.552
			c-0.097,0.051-0.194,0.103-0.291,0.156c-0.056-0.116-0.112-0.23-0.168-0.342c4.424-2.407,8.696-4.645,12.843-6.819
			C87.132,72.941,90.598,71.124,94.184,69.199 M17.322,11.776c-0.84,1.281-1.41,2.489-2.139,3.833
			c2.572,1.405,6.397,3.344,8.965,4.752c1.621,0.88,2.577,2.519,3.446,4.069c1.125,2.043,2.281,4.069,3.4,6.112
			c0.241,0.352,0.044,0.762-0.067,1.117c-0.767,2.124-1.438,4.279-2.229,6.394c-0.668,1.801-1.217,3.717-0.982,5.656
			c0.2,2.17,1.241,4.129,2.295,5.999c4.353,7.765,8.642,15.567,13.015,23.321c1.267-0.819,2.537-1.651,3.969-2.158
			c-0.54-1.301-1.403-2.441-1.958-3.74c1.645-0.854,3.208-1.861,4.899-2.614c1.026,1.772,1.9,3.656,3.057,5.341
			c1.999,0.17,3.96,0.603,5.829,1.339c-0.084-0.185-0.247-0.551-0.328-0.736C49.695,54.673,40.908,38.881,32.11,23.097
			c-1.034-1.873-2.072-3.803-3.682-5.26c-1.244-1.157-2.81-1.873-4.28-2.695C22.355,14.149,19.103,12.788,17.322,11.776
			L17.322,11.776z M35.477,49.88c-0.581-0.664-0.904-1.498-1.357-2.242c-0.86-1.581-1.868-3.22-1.865-5.076
			c0.227-2.135,1.308-4.048,1.833-6.112c0.381,0.219,0.552,0.629,0.761,0.99c1.778,3.261,3.635,6.481,5.408,9.747
			C38.743,48.212,37.067,48.974,35.477,49.88L35.477,49.88z M42.768,63.096c-1.761-2.981-3.344-6.065-5.105-9.049
			c1.482-1.105,3.234-1.835,4.838-2.773c1.752,3.038,3.498,6.094,5.114,9.208C46.005,61.365,44.421,62.3,42.768,63.096
			L42.768,63.096z M94.964,66.506c-9.277,5.02-17.504,9.141-26.751,14.219c0.725,1.254,1.397,2.542,1.863,3.918
			c0.781-0.313,1.489-0.773,2.231-1.16C80.87,78.771,88.439,75.077,97,70.364C96.493,68.999,95.62,67.802,94.964,66.506
			L94.964,66.506z"/>
	</g>
	
		<linearGradient id="SVGID_2_" gradientUnits="userSpaceOnUse" x1="-13.9055" y1="-6.6872" x2="-8.9758" y2="-6.6872" gradientTransform="matrix(0.1686 -0.3195 0.9217 0.4864 17.2505 9.0986)">
		<stop  offset="0" style="stop-color:#F9BD72"/>
		<stop  offset="1" style="stop-color:#FFFFFF"/>
	</linearGradient>
	<path style="fill-rule:evenodd;clip-rule:evenodd;fill:url(#SVGID_2_);" d="M15.732,12.37L15.2,13.372
		c-0.077,0.145-0.719-0.096-1.154-0.324l0.884,0.464L4.431,8.01L3.323,7.429C2.627,7.064,2.491,6.806,2.614,6.574l0.365-0.686
		C3.102,5.656,3.445,5.525,4.141,5.89L5.249,6.47l10.499,5.502l-0.884-0.464C15.299,11.737,15.809,12.225,15.732,12.37z"/>
</g>
<g>
	
		<linearGradient id="SVGID_3_" gradientUnits="userSpaceOnUse" x1="43.5827" y1="29.9469" x2="4.6843" y2="74.6944" gradientTransform="matrix(-1 0 0 1 97 0)">
		<stop  offset="0" style="stop-color:#FFFFFF"/>
		<stop  offset="0.0929" style="stop-color:#FEF8F1"/>
		<stop  offset="0.2695" style="stop-color:#FCE6CB"/>
		<stop  offset="0.5114" style="stop-color:#F8CA8E"/>
		<stop  offset="0.8059" style="stop-color:#F3A33B"/>
		<stop  offset="1" style="stop-color:#F08701"/>
	</linearGradient>
	
		<path style="fill:url(#SVGID_3_);stroke:#028189;stroke-width:2;stroke-linecap:round;stroke-linejoin:round;stroke-miterlimit:10;" d="
		M95.8,57.57c-4.82-8.527-9.491-17.135-14.336-25.648c-4.053,2.137-8.028,4.418-12.067,6.587c1.456,2.407,2.848,4.864,4.092,7.387
		c-1.89,1.183-3.901,2.162-5.848,3.253c-1.505-2.362-2.71-4.899-4.145-7.302c-4.081,2.028-8,4.379-12.025,6.52
		c4.891,8.931,9.901,17.795,14.838,26.701c0.191-0.081,0.572-0.246,0.767-0.33c9.742-5.295,19.417-10.724,29.188-15.973
		C96.168,58.345,96.033,57.935,95.8,57.57z"/>
	
		<linearGradient id="SVGID_4_" gradientUnits="userSpaceOnUse" x1="27.7089" y1="45.128" x2="32.8765" y2="36.5123" gradientTransform="matrix(-1 0 0 1 97 0)">
		<stop  offset="0" style="stop-color:#FFFFFF"/>
		<stop  offset="1" style="stop-color:#00AFB3"/>
	</linearGradient>
	
		<path style="fill:url(#SVGID_4_);stroke:#028189;stroke-width:1.8102;stroke-linecap:round;stroke-linejoin:round;stroke-miterlimit:10;" d="
		M69.397,38.508c-2.074,0.898-3.965,2.169-5.986,3.186l0.085,0.151c1.435,2.404,2.64,4.941,4.145,7.302
		c1.947-1.091,3.958-2.07,5.848-3.253C72.245,43.372,70.853,40.915,69.397,38.508z"/>
	<g>
		<path style="fill:#028189;stroke:#028189;stroke-width:0.6914;stroke-miterlimit:10;" d="M67.51,57.685
			c0.206-0.109,0.432-0.095,0.503,0.032l2.431,4.33l3.656-1.927l-2.431-4.33c-0.071-0.126,0.039-0.317,0.246-0.426l1.855-0.978
			l-5.96-1.252l-2.153,5.529L67.51,57.685z"/>
		<path style="fill:#028189;stroke:#028189;stroke-width:0.6439;stroke-miterlimit:10;" d="M77.047,52.749
			c0.192-0.101,0.402-0.088,0.468,0.029l2.264,4.033l3.405-1.795l-2.264-4.033c-0.066-0.118,0.036-0.295,0.229-0.397l1.728-0.911
			l-5.551-1.166l-2.005,5.149L77.047,52.749z"/>
		<polygon style="fill:#028189;" points="84.967,59.24 84.171,57.597 70.977,64.866 71.74,66.278 		"/>
	</g>
</g>
<g>
	
		<linearGradient id="SVGID_5_" gradientUnits="userSpaceOnUse" x1="62.32" y1="-3.32" x2="19.2313" y2="46.248" gradientTransform="matrix(-1 0 0 1 97 0)">
		<stop  offset="0" style="stop-color:#FFFFFF"/>
		<stop  offset="0.0929" style="stop-color:#FEF8F1"/>
		<stop  offset="0.2695" style="stop-color:#FCE6CB"/>
		<stop  offset="0.5114" style="stop-color:#F8CA8E"/>
		<stop  offset="0.8059" style="stop-color:#F3A33B"/>
		<stop  offset="1" style="stop-color:#F08701"/>
	</linearGradient>
	
		<path style="fill:url(#SVGID_5_);stroke:#028189;stroke-width:2;stroke-linecap:round;stroke-linejoin:round;stroke-miterlimit:10;" d="
		M78.884,26.398c-4.82-8.527-9.491-17.135-14.336-25.648c-4.053,2.137-8.028,4.418-12.067,6.587
		c1.456,2.407,2.848,4.864,4.092,7.387c-1.89,1.183-3.901,2.162-5.848,3.253c-1.505-2.362-2.71-4.899-4.145-7.302
		c-4.081,2.028-8,4.379-12.025,6.52c4.891,8.931,9.901,17.795,14.838,26.701c0.191-0.081,0.572-0.246,0.767-0.33
		c9.742-5.295,19.417-10.724,29.188-15.973C79.252,27.173,79.117,26.763,78.884,26.398z"/>
	
		<linearGradient id="SVGID_6_" gradientUnits="userSpaceOnUse" x1="44.6248" y1="13.9564" x2="49.7924" y2="5.3407" gradientTransform="matrix(-1 0 0 1 97 0)">
		<stop  offset="0" style="stop-color:#FFFFFF"/>
		<stop  offset="1" style="stop-color:#00AFB3"/>
	</linearGradient>
	
		<path style="fill:url(#SVGID_6_);stroke:#028189;stroke-width:1.8102;stroke-linecap:round;stroke-linejoin:round;stroke-miterlimit:10;" d="
		M52.481,7.337c-2.074,0.898-3.965,2.169-5.986,3.186l0.085,0.151c1.435,2.404,2.64,4.941,4.145,7.302
		c1.947-1.091,3.958-2.07,5.848-3.253C55.329,12.2,53.937,9.744,52.481,7.337z"/>
	<g>
		<path style="fill:#028189;stroke:#028189;stroke-width:0.6954;stroke-miterlimit:10;" d="M50.494,26.464
			c0.208-0.109,0.434-0.095,0.505,0.032l2.445,4.355l3.677-1.938l-2.445-4.355c-0.071-0.127,0.039-0.319,0.247-0.428l1.866-0.983
			l-5.994-1.259l-2.166,5.561L50.494,26.464z"/>
		<path style="fill:#028189;stroke:#028189;stroke-width:0.6476;stroke-miterlimit:10;" d="M60.086,21.5
			c0.193-0.102,0.404-0.089,0.471,0.03l2.277,4.056l3.424-1.805l-2.277-4.056c-0.066-0.118,0.037-0.297,0.23-0.399l1.738-0.916
			l-5.583-1.173l-2.017,5.179L60.086,21.5z"/>
		<polygon style="fill:#028189;" points="68.051,28.028 67.251,26.376 53.981,33.687 54.748,35.106 		"/>
	</g>
</g>
<g>
	
		<ellipse style="fill:#028189;stroke:#028189;stroke-width:2;stroke-miterlimit:10;" cx="52.92" cy="84.899" rx="11.224" ry="11.351"/>
</g>
<linearGradient id="SVGID_7_" gradientUnits="userSpaceOnUse" x1="39.8375" y1="88.8723" x2="46.9815" y2="81.4744" gradientTransform="matrix(-1 0 0 1 97 0)">
	<stop  offset="0" style="stop-color:#038890"/>
	<stop  offset="0.1049" style="stop-color:#349FA6"/>
	<stop  offset="0.2345" style="stop-color:#69B8BD"/>
	<stop  offset="0.3658" style="stop-color:#97CED1"/>
	<stop  offset="0.4961" style="stop-color:#BCE0E2"/>
	<stop  offset="0.6254" style="stop-color:#DAEDEF"/>
	<stop  offset="0.7531" style="stop-color:#EEF7F8"/>
	<stop  offset="0.8788" style="stop-color:#FBFDFD"/>
	<stop  offset="1" style="stop-color:#FFFFFF"/>
</linearGradient>
<ellipse style="fill-rule:evenodd;clip-rule:evenodd;fill:url(#SVGID_7_);" cx="53.367" cy="84.942" rx="5.299" ry="5.272"/>
</svg>
