<?xml version="1.0" encoding="UTF-8" standalone="no"?>
<!-- Created with Inkscape (http://www.inkscape.org/) -->
<svg
   xmlns:dc="http://purl.org/dc/elements/1.1/"
   xmlns:cc="http://web.resource.org/cc/"
   xmlns:rdf="http://www.w3.org/1999/02/22-rdf-syntax-ns#"
   xmlns:svg="http://www.w3.org/2000/svg"
   xmlns="http://www.w3.org/2000/svg"
   xmlns:xlink="http://www.w3.org/1999/xlink"
   xmlns:sodipodi="http://sodipodi.sourceforge.net/DTD/sodipodi-0.dtd"
   xmlns:inkscape="http://www.inkscape.org/namespaces/inkscape"
   width="552.72595"
   height="761.76489"
   id="svg2"
   sodipodi:version="0.32"
   inkscape:version="0.45.1"
   version="1.0"
   sodipodi:docbase="D:\Documents and Settings\Joanna\My Documents\My Pictures\graph_vector"
   sodipodi:docname="papapishu_Baby_boy_sitting.svg"
   inkscape:output_extension="org.inkscape.output.svg.inkscape"
   inkscape:export-filename="D:\Documents and Settings\Joanna\My Documents\My Pictures\graph_vector\baby_girl_crawling_1.png"
   inkscape:export-xdpi="152"
   inkscape:export-ydpi="152">
  <defs
     id="defs4">
    <linearGradient
       inkscape:collect="always"
       id="linearGradient7416">
      <stop
         style="stop-color:#daab9b;stop-opacity:1;"
         offset="0"
         id="stop7418" />
      <stop
         style="stop-color:#daab9b;stop-opacity:0;"
         offset="1"
         id="stop7420" />
    </linearGradient>
    <radialGradient
       inkscape:collect="always"
       xlink:href="#linearGradient7416"
       id="radialGradient3973"
       gradientUnits="userSpaceOnUse"
       cx="119.28571"
       cy="400.21933"
       fx="119.28571"
       fy="400.21933"
       r="52.142857" />
    <radialGradient
       inkscape:collect="always"
       xlink:href="#linearGradient7416"
       id="radialGradient3975"
       gradientUnits="userSpaceOnUse"
       cx="119.28571"
       cy="400.21933"
       fx="119.28571"
       fy="400.21933"
       r="52.142857" />
    <linearGradient
       gradientUnits="userSpaceOnUse"
       y2="546.77863"
       x2="445.02139"
       y1="269.99683"
       x1="450.17905"
       id="linearGradient4579"
       xlink:href="#linearGradient4573"
       inkscape:collect="always" />
    <linearGradient
       id="linearGradient4573">
      <stop
         id="stop4575"
         offset="0"
         style="stop-color:#d19b75;stop-opacity:1;" />
      <stop
         id="stop4577"
         offset="1"
         style="stop-color:#e8cdba;stop-opacity:0;" />
    </linearGradient>
  </defs>
  <sodipodi:namedview
     id="base"
     pagecolor="#ffffff"
     bordercolor="#666666"
     borderopacity="1.0"
     gridtolerance="1"
     guidetolerance="10"
     objecttolerance="10"
     inkscape:pageopacity="0.0"
     inkscape:pageshadow="2"
     inkscape:zoom="0.76447926"
     inkscape:cx="330.59473"
     inkscape:cy="419.0757"
     inkscape:document-units="px"
     inkscape:current-layer="layer4"
     inkscape:window-width="836"
     inkscape:window-height="968"
     inkscape:window-x="154"
     inkscape:window-y="22"
     width="750px"
     height="750px"
     borderlayer="true"
     gridspacingx="2px"
     gridspacingy="2px"
     showgrid="true"
     inkscape:grid-bbox="false" />
  <metadata
     id="metadata7">
    <rdf:RDF>
      <cc:Work
         rdf:about="">
        <dc:format>image/svg+xml</dc:format>
        <dc:type
           rdf:resource="http://purl.org/dc/dcmitype/StillImage" />
      </cc:Work>
    </rdf:RDF>
  </metadata>
  <g
     inkscape:groupmode="layer"
     id="layer4"
     inkscape:label="najwyz"
     transform="translate(-126.13021,52.896583)">
    <path
       sodipodi:nodetypes="cccssccsscsss"
       id="path15659"
       d="M 325.46946,354.21767 C 285.35872,369.64871 229.34994,390.22294 229.18872,469.77693 C 231.63214,527.28378 265.70145,527.93331 298.6137,536.42707 C 236.97139,523.4947 136.85374,512.33614 126.56959,588.24581 C 118.07505,650.94604 235.24252,690.9304 262.23904,693.62505 C 311.96984,698.58891 337.42713,688.01016 334.16798,644.02249 C 399.31546,669.33243 440.69888,656.90077 483.6297,642.71441 C 484.66659,693.67627 518.63187,692.0234 548.36814,691.04377 C 630.21118,688.39063 670.28618,648.34981 677.98333,604.06188 C 689.36941,538.54857 586.73991,521.87115 522.60521,536.42707 C 573.2005,531.606 596.27956,516.42666 596.67028,456.81994 C 597.08532,393.50261 544.18937,356.39413 478.20139,344.96049 C 414.55203,333.93207 356.14355,342.41701 325.46946,354.21767 z "
       style="fill:#000000;fill-opacity:1;fill-rule:evenodd;stroke:none;stroke-width:1.0182128px;stroke-linecap:butt;stroke-linejoin:miter;stroke-opacity:1" />
    <path
       sodipodi:nodetypes="ccccc"
       id="path19543"
       d="M 272.44837,531.1579 C 279.568,558.33691 291.17386,580.38882 281.17343,627.13361 C 379.36956,684.58629 460.09664,668.28083 535.16976,628.10306 C 525.28539,589.01144 545.89631,561.35555 554.55879,529.219 C 449.36204,553.58018 356.99162,550.6854 272.44837,531.1579 z "
       style="fill:#000000;fill-opacity:1;fill-rule:evenodd;stroke:none;stroke-width:1px;stroke-linecap:butt;stroke-linejoin:miter;stroke-opacity:1" />
    <path
       style="fill:#e8cdba;fill-opacity:1;fill-rule:evenodd;stroke:none;stroke-width:1px;stroke-linecap:butt;stroke-linejoin:miter;stroke-opacity:1"
       d="M 324.14387,358.90016 C 284.75059,374.05519 233.37726,392.44458 233.21892,470.57559 C 235.61864,527.05381 272.71218,528.60014 303.21892,540.57559 C 242.6792,527.87454 140.71872,515.09877 130.61853,589.65064 C 122.27593,651.22935 236.70529,687.92914 263.21892,690.57559 C 312.06018,695.45066 336.41978,683.77645 333.21892,640.57559 C 397.20111,665.43281 441.05601,654.5082 483.21892,640.57559 C 488.46568,685.37018 505.45505,696.97505 534.527,694.03519 C 629.91577,684.38915 669.75103,648.12254 674.89435,604.2754 C 683.3019,532.60049 567.11484,527.18844 503.21892,540.57559 C 551.09239,533.56974 595.27029,520.98554 593.21892,460.57559 C 590.83258,390.30115 538.95153,360.12928 474.14387,348.90016 C 411.63301,338.069 354.26929,347.31058 324.14387,358.90016 z "
       id="path12728"
       sodipodi:nodetypes="cccssccsscsss" />
    <path
       style="fill:#ffffff;fill-opacity:1;fill-rule:evenodd;stroke:none;stroke-width:1px;stroke-linecap:butt;stroke-linejoin:miter;stroke-opacity:1"
       d="M 233.08796,541.09704 C 239.88079,567.02849 250.95392,588.06818 241.41253,632.66731 C 335.10129,687.48281 412.12287,671.9258 483.75001,633.59226 C 474.31935,596.29501 493.98419,569.90857 502.24905,539.24714 C 401.881,562.4901 313.75054,559.72819 233.08796,541.09704 z "
       id="path18572"
       transform="translate(45.835075,-6.59554)"
       sodipodi:nodetypes="ccccc" />
    <path
       sodipodi:nodetypes="ccccccccc"
       id="path16632"
       d="M 296.36272,362.94576 C 250.10403,377.41873 230.3721,412.52362 205.86674,443.91585 C 224.5149,477.74022 265.92835,486.26983 306.8412,495.35567 L 284.93165,546.79549 C 410.39633,584.02648 477.11562,565.88312 532.49432,543.04042 L 515.34772,490.56509 C 559.97184,490.94716 592.44705,475.9201 619.2905,445.82103 C 588.22371,412.73587 580.1753,369.58017 512.60049,352.46727 C 454.3558,324.89343 366.9576,330.33755 296.36272,362.94576 z "
       style="fill:#000000;fill-opacity:1;fill-rule:evenodd;stroke:none;stroke-width:1.02987945px;stroke-linecap:butt;stroke-linejoin:miter;stroke-opacity:1" />
    <path
       style="fill:#87cdde;fill-opacity:1;fill-rule:evenodd;stroke:none;stroke-width:1px;stroke-linecap:butt;stroke-linejoin:miter;stroke-opacity:1"
       d="M 255.28681,370.90584 C 210.3702,384.95891 191.21075,419.04531 167.41635,449.52677 C 179.08608,475.10485 209.3628,484.07807 252.80651,496.58908 C 270.82651,501.77852 246.90643,451.89644 266.76936,439.30251 L 244.18738,549.42161 C 366.012,585.57243 427.20313,569.75169 480.97515,547.57171 L 465.63409,437.67704 C 480.75842,453.5595 466.68745,499.28358 485.12579,495.5221 C 519.58647,488.49201 555.81328,465.98959 568.84561,451.37668 C 538.68015,419.25141 530.86524,377.34777 465.25096,360.73136 C 408.6961,333.9575 323.83355,339.24368 255.28681,370.90584 z "
       id="path16630"
       transform="translate(45.835075,-6.59554)"
       sodipodi:nodetypes="ccsccccsccc" />
    <g
       id="g14672"
       transform="translate(2.6161599,1.30808)">
      <path
         style="fill:#000000;fill-opacity:1;fill-rule:evenodd;stroke:none;stroke-width:1.04528022px;stroke-linecap:butt;stroke-linejoin:miter;stroke-opacity:1"
         d="M 320.89642,684.67283 C 342.26151,665.51941 339.38196,631.19767 305.66149,593.40011 C 283.94573,570.05975 252.5508,515.62797 229.26538,533.69934 C 215.22425,544.5964 222.3766,553.75583 226.4602,559.92672 C 221.43488,555.42334 215.09347,546.15874 202.44968,557.05606 C 189.19352,568.48114 195.69163,576.02715 200.0968,581.27308 C 195.75207,577.85051 188.43305,571.39701 177.04181,581.32916 C 165.80236,591.12896 174.59658,602.90625 178.18806,605.92542 C 174.02873,604.50732 170.58849,599.15549 161.5898,609.8538 C 152.73948,620.37572 146.40228,624.22626 180.64454,655.84035 C 218.70654,690.981 295.43709,707.49666 320.89642,684.67283 z "
         id="path12732"
         sodipodi:nodetypes="ccscscscsss" />
      <path
         sodipodi:nodetypes="ccscscscsss"
         id="path12730"
         d="M 318.60993,683.19175 C 338.46688,665.08289 336.39847,632.01458 303.23469,595.04165 C 283.05182,572.97419 254.17116,518.33837 230.45983,535.79213 C 214.63678,547.43937 232.08016,561.56557 235.83507,571.16737 C 226.97376,565.10556 216.49827,544.82977 202.13526,560.24242 C 190.54707,572.67747 205.33331,583.56993 211.38479,594.1167 C 201.31432,587.43403 192.61498,569.61641 178.60993,583.19175 C 165.05781,596.32805 181.76916,605.61984 189.94059,615.27289 C 177.84157,609.69343 173.20193,600.66172 164.15964,610.41689 C 153.7291,621.66976 152.3345,625.15169 184.15964,655.04165 C 219.53488,688.26584 294.94776,704.77084 318.60993,683.19175 z "
         style="fill:#e8cdba;fill-opacity:1;fill-rule:evenodd;stroke:none;stroke-width:1px;stroke-linecap:butt;stroke-linejoin:miter;stroke-opacity:1" />
    </g>
    <g
       id="g14676"
       transform="matrix(-1,0,0,1,814.94938,1.9169883)">
      <path
         sodipodi:nodetypes="ccscscscsss"
         id="path14678"
         d="M 320.89642,684.67283 C 342.26151,665.51941 339.38196,631.19767 305.66149,593.40011 C 283.94573,570.05975 252.5508,515.62797 229.26538,533.69934 C 215.22425,544.5964 222.3766,553.75583 226.4602,559.92672 C 221.43488,555.42334 215.09347,546.15874 202.44968,557.05606 C 189.19352,568.48114 195.69163,576.02715 200.0968,581.27308 C 195.75207,577.85051 188.43305,571.39701 177.04181,581.32916 C 165.80236,591.12896 174.59658,602.90625 178.18806,605.92542 C 174.02873,604.50732 170.58849,599.15549 161.5898,609.8538 C 152.73948,620.37572 146.40228,624.22626 180.64454,655.84035 C 218.70654,690.981 295.43709,707.49666 320.89642,684.67283 z "
         style="fill:#000000;fill-opacity:1;fill-rule:evenodd;stroke:none;stroke-width:1.04528022px;stroke-linecap:butt;stroke-linejoin:miter;stroke-opacity:1" />
      <path
         style="fill:#e8cdba;fill-opacity:1;fill-rule:evenodd;stroke:none;stroke-width:1px;stroke-linecap:butt;stroke-linejoin:miter;stroke-opacity:1"
         d="M 318.60993,683.19175 C 338.46688,665.08289 336.39847,632.01458 303.23469,595.04165 C 283.05182,572.97419 254.17116,518.33837 230.45983,535.79213 C 214.63678,547.43937 232.08016,561.56557 235.83507,571.16737 C 226.97376,565.10556 216.49827,544.82977 202.13526,560.24242 C 190.54707,572.67747 205.33331,583.56993 211.38479,594.1167 C 201.31432,587.43403 192.61498,569.61641 178.60993,583.19175 C 165.05781,596.32805 181.76916,605.61984 189.94059,615.27289 C 177.84157,609.69343 173.20193,600.66172 164.15964,610.41689 C 153.7291,621.66976 152.3345,625.15169 184.15964,655.04165 C 219.53488,688.26584 294.94776,704.77084 318.60993,683.19175 z "
         id="path14680"
         sodipodi:nodetypes="ccscscscsss" />
    </g>
    <path
       sodipodi:nodetypes="cscscsssssc"
       id="path14684"
       d="M 348.2968,485.80775 C 363.73829,485.6378 387.36595,487.27958 386.81053,503.42505 C 386.25698,519.51628 380.66478,518.75989 372.32479,520.52746 C 380.97712,521.74919 386.50957,521.17636 385.73296,537.62987 C 385.00445,553.0643 370.11917,550.58544 364.3798,550.47408 C 374.37281,554.61108 376.33476,559.00858 376.22786,566.92245 C 376.07367,578.01067 358.10394,582.80238 327.95178,579.87798 C 303.35683,577.49256 277.59417,567.40433 277.38656,516.46407 C 277.261,485.65571 290.28524,462.65724 324.48856,456.45951 C 341.75288,453.33117 364.45865,454.83933 370.13772,461.50396 C 379.35409,472.31977 366.78043,482.68472 348.2968,485.80775 z "
       style="fill:#000000;fill-opacity:1;fill-rule:evenodd;stroke:none;stroke-width:1.04255092px;stroke-linecap:butt;stroke-linejoin:miter;stroke-opacity:1" />
    <path
       style="fill:#e8cdba;fill-opacity:1;fill-rule:evenodd;stroke:none;stroke-width:1px;stroke-linecap:butt;stroke-linejoin:miter;stroke-opacity:1"
       d="M 336.88287,487.73736 C 353.69978,487.57435 383.56327,486.66894 384.62779,502.12624 C 386.24412,525.26907 363.94642,517.55597 343.42326,519.78532 C 367.30528,524.25408 386.3092,517.56384 383.31971,537.4444 C 380.55603,555.82328 356.59672,545.09937 342.11519,547.255 C 356.03477,550.70258 374.06303,551.99077 374.16315,564.91408 C 374.25769,577.11884 353.93447,581.0869 327.07227,577.34084 C 304.26785,574.16066 280.17473,565.37629 279.98139,516.51512 C 279.86446,486.96418 292.41192,463.69201 324.45611,458.9596 C 338.40235,456.89996 354.12319,453.99161 366.96871,462.2298 C 380.63771,470.99611 358.36019,483.4871 336.88287,487.73736 z "
       id="path14682"
       sodipodi:nodetypes="cscscsssssc" />
    <path
       style="fill:#000000;fill-opacity:1;fill-rule:evenodd;stroke:none;stroke-width:1.04255092px;stroke-linecap:butt;stroke-linejoin:miter;stroke-opacity:1"
       d="M 476.14881,484.49967 C 460.70732,484.32972 437.07966,485.9715 437.63508,502.11697 C 438.18863,518.2082 443.78083,517.45181 452.12082,519.21938 C 443.46849,520.44111 437.93604,519.86828 438.71265,536.32179 C 439.44116,551.75622 454.32644,549.27736 460.06581,549.166 C 450.0728,553.303 448.11085,557.7005 448.21775,565.61437 C 448.37194,576.70259 466.34167,581.4943 496.49383,578.5699 C 521.08878,576.18448 546.85144,566.09625 547.05905,515.15599 C 547.18461,484.34763 534.16037,461.34916 499.95705,455.15143 C 482.69273,452.02309 459.98696,453.53125 454.30789,460.19588 C 445.09152,471.01169 457.66518,481.37664 476.14881,484.49967 z "
       id="path15655"
       sodipodi:nodetypes="cscscsssssc" />
    <path
       sodipodi:nodetypes="cscscsssssc"
       id="path15657"
       d="M 487.56274,486.42928 C 470.74583,486.26627 440.88234,485.36086 439.81782,500.81816 C 438.20149,523.96099 460.49919,516.24789 481.02235,518.47724 C 457.14033,522.946 438.13641,516.25576 441.1259,536.13632 C 443.88958,554.5152 467.84889,543.79129 482.33042,545.94692 C 468.41084,549.3945 450.38258,550.68269 450.28246,563.606 C 450.18792,575.81076 470.51114,579.77882 497.37334,576.03276 C 520.17776,572.85258 544.27088,564.06821 544.46422,515.20704 C 544.58115,485.6561 532.03369,462.38393 499.9895,457.65152 C 486.04326,455.59188 470.32242,452.68353 457.4769,460.92172 C 443.8079,469.68803 466.08542,482.17902 487.56274,486.42928 z "
       style="fill:#e8cdba;fill-opacity:1;fill-rule:evenodd;stroke:none;stroke-width:1px;stroke-linecap:butt;stroke-linejoin:miter;stroke-opacity:1" />
    <g
       transform="matrix(0.8408993,0,0,0.7270069,184.80757,-114.99421)"
       id="layer1"
       inkscape:label="Layer 1">
      <g
         transform="translate(-178.797,-110.1066)"
         id="g4581">
        <path
           id="path3686"
           d="M 417.99222,824.31946 C 365.69644,816.60711 321.24382,781.66137 291.57909,739.21357 C 260.70596,695.31594 244.63398,642.21682 241.1678,588.95814 C 234.7463,578.71828 218.83858,577.30128 217.20105,562.90187 C 213.47202,552.28007 214.56345,539.78967 217.38366,528.92991 C 219.31145,513.81661 237.27013,510.78214 245.89162,506.17791 C 258.39543,441.80222 290.87511,378.71906 345.42807,340.35369 C 372.42934,320.52808 405.29857,308.68843 438.89921,308.29527 C 445.90719,306.28652 460.46362,311.47047 461.18546,301.32642 C 458.75819,294.25851 459.80795,286.0817 464.24766,281.55029 C 453.86372,275.5684 450.78997,260.48956 464.69432,256.35855 C 480.46844,251.22981 480.41811,274.06642 489.153,282.14534 C 492.81019,294.36079 473.92759,296.04193 481.71409,309.17392 C 487.76129,317.2857 505.27105,316.67303 514.7719,323.91575 C 567.8715,349.34341 606.37634,398.75896 626.8988,453.08422 C 634.77913,473.56056 640.37828,494.90111 643.7477,516.57694 C 656.58943,516.24565 675.3262,520.61494 675.02734,536.69956 C 675.92578,553.09783 674.12895,571.30187 663.43944,584.47011 C 657.42517,592.30629 643.0186,588.6776 645.90125,601.42474 C 639.00356,664.59883 614.46563,727.63164 568.31866,772.50749 C 536.35567,804.47694 492.77046,826.55415 446.84692,825.80064 C 437.20984,825.90487 427.57252,825.34644 417.99222,824.31946 z "
           style="fill:#e8cdba;fill-opacity:1" />
        <path
           style="fill:url(#linearGradient4579);fill-opacity:1"
           d="M 417.99222,824.31946 C 365.69644,816.60711 321.24382,781.66137 291.57909,739.21357 C 260.70596,695.31594 244.63398,642.21682 241.1678,588.95814 C 234.7463,578.71828 218.83858,577.30128 217.20105,562.90187 C 213.47202,552.28007 214.56345,539.78967 217.38366,528.92991 C 219.31145,513.81661 237.27013,510.78214 245.89162,506.17791 C 258.39543,441.80222 290.87511,378.71906 345.42807,340.35369 C 372.42934,320.52808 405.29857,308.68843 438.89921,308.29527 C 445.90719,306.28652 460.46362,311.47047 461.18546,301.32642 C 458.75819,294.25851 459.80795,286.0817 464.24766,281.55029 C 453.86372,275.5684 450.78997,260.48956 464.69432,256.35855 C 480.46844,251.22981 480.41811,274.06642 489.153,282.14534 C 492.81019,294.36079 473.92759,296.04193 481.71409,309.17392 C 487.76129,317.2857 505.27105,316.67303 514.7719,323.91575 C 567.8715,349.34341 606.37634,398.75896 626.8988,453.08422 C 634.77913,473.56056 640.37828,494.90111 643.7477,516.57694 C 656.58943,516.24565 675.3262,520.61494 675.02734,536.69956 C 675.92578,553.09783 674.12895,571.30187 663.43944,584.47011 C 657.42517,592.30629 643.0186,588.6776 645.90125,601.42474 C 639.00356,664.59883 614.46563,727.63164 568.31866,772.50749 C 536.35567,804.47694 492.77046,826.55415 446.84692,825.80064 C 437.20984,825.90487 427.57252,825.34644 417.99222,824.31946 z "
           id="path1912" />
        <path
           style="fill:#000000"
           d="M 417.99222,824.31946 C 365.69644,816.60711 321.24382,781.66137 291.57909,739.21357 C 260.70596,695.31594 244.63398,642.21682 241.1678,588.95814 C 234.7463,578.71828 218.83858,577.30128 217.20105,562.90187 C 213.47202,552.28007 214.56345,539.78967 217.38366,528.92991 C 219.31145,513.81661 237.27013,510.78214 245.89162,506.17791 C 258.39543,441.80222 290.87511,378.71906 345.42807,340.35369 C 372.42934,320.52808 405.29857,308.68843 438.89921,308.29527 C 445.90719,306.28652 460.46362,311.47047 461.18546,301.32642 C 458.75819,294.25851 459.80795,286.0817 464.24766,281.55029 C 453.86372,275.5684 450.78997,260.48956 464.69432,256.35855 C 480.46844,251.22981 480.41811,274.06642 489.153,282.14534 C 492.81019,294.36079 473.92759,296.04193 481.71409,309.17392 C 487.76129,317.2857 505.27105,316.67303 514.7719,323.91575 C 567.8715,349.34341 606.37634,398.75896 626.8988,453.08422 C 634.77913,473.56056 640.37828,494.90111 643.7477,516.57694 C 656.58943,516.24565 675.3262,520.61494 675.02734,536.69956 C 675.92578,553.09783 674.12895,571.30187 663.43944,584.47011 C 657.42517,592.30629 643.0186,588.6776 645.90125,601.42474 C 639.00356,664.59883 614.46563,727.63164 568.31866,772.50749 C 536.35567,804.47694 492.77046,826.55415 446.84692,825.80064 C 437.20984,825.90487 427.57252,825.34644 417.99222,824.31946 z M 470.09247,819.54889 C 522.89632,811.44135 567.48775,775.30513 596.30351,731.63963 C 623.42783,690.51173 638.0083,642.0127 642.50378,593.19061 C 644.61121,583.53132 663.00837,587.21733 665.09812,574.36918 C 670.04793,563.64902 670.78192,551.48032 671.42484,539.89356 C 671.57973,525.6605 657.13765,520.49617 645.21186,521.04697 C 634.11871,518.57985 639.42808,504.36079 635.40319,496.40141 C 621.56962,434.77447 587.93623,375.28179 534.3864,339.99002 C 518.18534,329.45402 500.3209,321.40036 481.56366,316.6795 C 476.08047,325.61248 460.3638,321.01674 458.03478,331.98041 C 445.70573,343.91778 435.00173,322.24433 444.43927,312.45153 C 436.44453,311.19461 427.44065,313.53222 419.12777,314.42532 C 369.50458,321.81476 326.57759,353.80971 297.84598,393.90697 C 276.54746,423.41562 262.0357,457.52061 253.22347,492.68268 C 252.67925,504.20618 248.75057,516.45789 235.24627,514.98746 C 219.27377,521.76897 217.2869,542.30277 220.21626,557.25516 C 220.78083,574.3877 241.4176,575.7179 246.48383,588.97703 C 245.80208,607.31836 249.91289,625.6648 253.82082,643.56218 C 267.95384,702.03171 300.42645,757.84581 350.61735,792.31115 C 385.1422,816.24624 428.50563,826.9662 470.09247,819.54889 z M 440.08258,758.09613 C 426.13459,756.4232 412.99838,751.59868 400.51447,745.33296 C 388.54888,740.61932 377.65904,734.16714 367.06388,726.93689 C 356.17053,720.28541 352.76159,707.27736 344.76707,697.93466 C 336.69942,683.31615 329.25981,667.62361 329.14816,650.524 C 326.24205,639.98877 329.8132,625.51326 326.83485,617.42256 C 315.99989,616.9752 304.26297,623.42675 294.11649,618.5061 C 288.74455,608.68032 308.57793,619.13479 313.98137,615.0922 C 327.23066,613.74603 340.67577,606.25117 345.47367,593.27235 C 347.26994,587.47962 355.83626,582.33824 351.51619,592.41716 C 348.29883,605.00763 332.52866,610.10042 331.47623,623.18603 C 331.7744,635.54528 332.61811,648.00123 334.32363,660.25895 C 335.87397,672.27328 342.1694,682.41943 347.55324,692.96639 C 356.27859,708.33564 366.71571,724.6063 383.86258,731.41797 C 395.59238,738.8846 408.65816,743.37982 421.26072,748.99715 C 433.19815,751.9316 445.95174,756.16112 458.05791,751.71427 C 475.83653,745.74261 492.84495,737.62107 508.09094,726.65893 C 520.21492,720.52225 528.85339,710.46025 535.12336,698.62414 C 541.57484,687.55141 547.18263,675.84904 550.9733,663.57656 C 554.46143,649.19789 553.58321,634.0604 553.60469,619.44828 C 552.84793,608.39666 547.45191,599.02559 538.92494,592.27929 C 534.40942,589.21821 526.30455,571.6407 535.89091,581.33526 C 543.12082,591.36135 552.45707,602.17766 566.16892,600.23955 C 577.96135,600.87324 590.53687,601.02137 601.18746,595.15717 C 609.79455,600.18867 590.29902,604.68964 585.59557,604.12548 C 576.43252,606.64463 560.50502,601.40962 555.58459,607.52694 C 559.00459,622.93916 557.9376,638.91138 556.84918,654.51953 C 553.73569,677.47625 541.01885,697.67878 528.85805,716.8229 C 517.47032,728.31806 502.73717,735.78391 488.92926,743.93267 C 475.28701,750.08544 461.37961,757.21169 446.28323,758.61694 C 444.20601,758.6698 442.12001,758.51159 440.08258,758.09613 z M 629.92889,575.49359 C 630.41288,565.84562 649.28134,582.33057 649.99598,567.99462 C 654.15848,559.26266 656.77033,536.44413 643.60695,536.77211 C 639.86437,538.80618 625.79871,547.49957 632.88046,537.40997 C 643.50983,526.36289 660.83329,534.58815 657.3781,550.12279 C 657.69221,561.34381 655.45858,579.90186 640.40977,578.28873 C 636.78354,578.28877 632.87977,577.80463 629.92889,575.49359 z M 238.10008,566.06903 C 230.29053,555.5709 226.1218,540.20033 234.1956,528.88625 C 238.54507,522.70487 256.30436,530.29066 247.96222,533.59865 C 233.84934,526.42519 230.55427,548.8666 237.41705,557.20722 C 239.30848,565.60652 248.19868,561.59983 250.98098,560.55906 C 253.65702,566.69062 241.34138,570.2317 238.10008,566.06903 z M 457.892,513.54956 C 444.49687,502.50287 471.14391,485.67374 475.9163,502.0577 C 480.30798,512.33013 465.20534,522.68539 457.892,513.54956 z M 418.892,504.54959 C 405.49686,493.5029 432.14389,476.67372 436.9163,493.0577 C 441.30797,503.33013 426.20537,513.68535 418.892,504.54959 z M 498.492,481.63766 C 492.72893,475.57794 472.4969,472.35818 475.24157,465.60517 C 485.25221,466.42509 501.37925,473.61125 503.4629,482.0735 C 501.99238,483.09915 499.84144,482.6533 498.492,481.63766 z M 391.82388,475.37204 C 399.11216,464.8027 413.09453,462.29754 424.18471,457.64772 C 429.00015,467.34915 409.33651,465.6964 404.62925,472.38972 C 400.88658,474.57989 396.24225,477.3921 391.82388,475.37204 z M 453.75336,330.19958 C 454.38453,315.61929 481.85356,323.84933 477.1699,306.25609 C 474.27056,299.62523 473.85285,290.54425 483.00059,290.37356 C 490.95344,278.88253 470.69532,270.98742 471.65794,260.1929 C 459.24934,256.70711 455.00408,275.81006 468.17729,278.20252 C 471.87154,286.84464 457.46172,295.21035 466.53961,303.88305 C 464.54446,315.31431 435.60016,313.28765 447.72274,330.57146 C 449.26675,332.5778 452.40633,332.30559 453.75336,330.19958 z "
           id="path1882" />
        <path
           style="fill:#000000"
           d="M 440.08258,758.09613 C 426.13459,756.4232 412.99838,751.59868 400.51447,745.33296 C 388.54888,740.61932 377.65904,734.16714 367.06388,726.93689 C 356.17053,720.28541 352.76159,707.27736 344.76707,697.93466 C 336.69942,683.31615 329.25981,667.62361 329.14816,650.524 C 326.24205,639.98877 329.8132,625.51326 326.83485,617.42256 C 315.99989,616.9752 304.26297,623.42675 294.11649,618.5061 C 288.74455,608.68032 308.57793,619.13479 313.98137,615.0922 C 327.23066,613.74603 340.67577,606.25117 345.47367,593.27235 C 347.26994,587.47962 355.83626,582.33824 351.51619,592.41716 C 348.29883,605.00763 332.52866,610.10042 331.47623,623.18603 C 331.7744,635.54528 332.61811,648.00123 334.32363,660.25895 C 335.87397,672.27328 342.1694,682.41943 347.55324,692.96639 C 356.27859,708.33564 366.71571,724.6063 383.86258,731.41797 C 395.59238,738.8846 408.65816,743.37982 421.26072,748.99715 C 433.19815,751.9316 445.95174,756.16112 458.05791,751.71427 C 475.83653,745.74261 492.84495,737.62107 508.09094,726.65893 C 520.21492,720.52225 528.85339,710.46025 535.12336,698.62414 C 541.57484,687.55141 547.18263,675.84904 550.9733,663.57656 C 554.46143,649.19789 553.58321,634.0604 553.60469,619.44828 C 552.84793,608.39666 547.45191,599.02559 538.92494,592.27929 C 534.40942,589.21821 526.30455,571.6407 535.89091,581.33526 C 543.12082,591.36135 552.45707,602.17766 566.16892,600.23955 C 577.96135,600.87324 590.53687,601.02137 601.18746,595.15717 C 609.79455,600.18867 590.29902,604.68964 585.59557,604.12548 C 576.43252,606.64463 560.50502,601.40962 555.58459,607.52694 C 559.00459,622.93916 557.9376,638.91138 556.84918,654.51953 C 553.73569,677.47625 541.01885,697.67878 528.85805,716.8229 C 517.47032,728.31806 502.73717,735.78391 488.92926,743.93267 C 475.28701,750.08544 461.37961,757.21169 446.28323,758.61694 C 444.20601,758.6698 442.12001,758.51159 440.08258,758.09613 z "
           id="path1908" />
        <path
           style="fill:#000000"
           d="M 629.92889,575.49359 C 630.41288,565.84562 649.28134,582.33057 649.99598,567.99462 C 654.15848,559.26266 656.77033,536.44413 643.60695,536.77211 C 639.86437,538.80618 625.79871,547.49957 632.88046,537.40997 C 643.50983,526.36289 660.83329,534.58815 657.3781,550.12279 C 657.69221,561.34381 655.45858,579.90186 640.40977,578.28873 C 636.78354,578.28877 632.87977,577.80463 629.92889,575.49359 z "
           id="path1906" />
        <path
           style="fill:#000000"
           d="M 238.10008,566.06903 C 230.29053,555.5709 226.1218,540.20033 234.1956,528.88625 C 238.54507,522.70487 256.30436,530.29066 247.96222,533.59865 C 233.84934,526.42519 230.55427,548.8666 237.41705,557.20722 C 239.30848,565.60652 248.19868,561.59983 250.98098,560.55906 C 253.65702,566.69062 241.34138,570.2317 238.10008,566.06903 z "
           id="path1904" />
        <path
           style="fill:#000000"
           d="M 457.892,513.54956 C 444.49687,502.50287 471.14391,485.67374 475.9163,502.0577 C 480.30798,512.33013 465.20534,522.68539 457.892,513.54956 z "
           id="path1902" />
        <path
           style="fill:#000000"
           d="M 418.892,504.54959 C 405.49686,493.5029 432.14389,476.67372 436.9163,493.0577 C 441.30797,503.33013 426.20537,513.68535 418.892,504.54959 z "
           id="path1900" />
        <path
           style="fill:#000000"
           d="M 498.492,481.63766 C 492.72893,475.57794 472.4969,472.35818 475.24157,465.60517 C 485.25221,466.42509 501.37925,473.61125 503.4629,482.0735 C 501.99238,483.09915 499.84144,482.6533 498.492,481.63766 z "
           id="path1898" />
        <path
           style="fill:#000000"
           d="M 391.82388,475.37204 C 399.11216,464.8027 413.09453,462.29754 424.18471,457.64772 C 429.00015,467.34915 409.33651,465.6964 404.62925,472.38972 C 400.88658,474.57989 396.24225,477.3921 391.82388,475.37204 z "
           id="path1896" />
        <path
           style="fill:#947968;fill-opacity:1"
           d="M 453.75336,330.19958 C 454.38453,315.61929 481.85356,323.84933 477.1699,306.25609 C 474.27056,299.62523 473.85285,290.54425 483.00059,290.37356 C 490.95344,278.88253 470.69532,270.98742 471.65794,260.1929 C 459.24934,256.70711 455.00408,275.81006 468.17729,278.20252 C 471.87154,286.84464 457.46172,295.21035 466.53961,303.88305 C 464.54446,315.31431 435.60016,313.28765 447.72274,330.57146 C 449.26675,332.5778 452.40633,332.30559 453.75336,330.19958 z "
           id="path1892" />
      </g>
    </g>
  </g>
</svg>
