<?xml version="1.0" encoding="utf-8"?>
<svg version="1.1" xmlns="http://www.w3.org/2000/svg" xmlns:xlink="http://www.w3.org/1999/xlink" x="0px" y="0px"
	 viewBox="0 0 97 97" enable-background="new 0 0 97 97" xml:space="preserve">
<g id="Capa_1">
	<g>
		<linearGradient id="SVGID_1_" gradientUnits="userSpaceOnUse" x1="16.4071" y1="62.328" x2="98.4071" y2="28.9947">
			<stop  offset="0.1452" style="stop-color:#076A72"/>
			<stop  offset="0.6684" style="stop-color:#33A8AE"/>
		</linearGradient>
		
			<path fill="url(#SVGID_1_)" stroke="#118389" stroke-width="2" stroke-linecap="round" stroke-linejoin="round" stroke-miterlimit="22.9256" d="
			M45.003,4.637c0.951-0.383,2.039-0.455,3.03-0.178c14.984,3.353,29.969,6.702,44.954,10.053c1.449,0.31,2.69,1.49,2.993,2.953
			c0.269,1.182-0.111,2.458-0.913,3.354C82.109,35.764,69.15,50.71,56.192,65.656c-0.762,0.85-1.9,1.383-3.052,1.314
			c-0.663-0.011-1.283-0.258-1.914-0.428C39.14,63.07,27.056,59.595,14.971,56.121c-0.449-0.133-0.9-0.294-1.375-0.269
			c-1.176-0.027-2.462,0.152-3.36,0.982c-1.104,1.048-1.528,2.595-1.685,4.064c-0.192,1.998-0.091,4.053,0.525,5.975
			c0.571,1.783,1.691,3.449,3.32,4.421c0.917,0.567,1.991,0.762,3.005,1.086c13.151,3.886,26.301,7.776,39.453,11.66
			C65.887,70.754,76.924,57.469,87.955,44.18c-1.062-3.496-0.652-7.336,0.842-10.642c0.514-1.027,1.546-1.772,2.678-1.95
			c1.308-0.214,2.697,0.364,3.475,1.433c0.764,1.012,0.939,2.425,0.451,3.595c-0.894,2.185-0.942,4.716-0.094,6.922
			c0.64,1.334,0.336,3-0.664,4.074C82.712,61.971,70.794,76.341,58.863,90.7c-0.934,1.122-2.566,1.557-3.942,1.085
			c-14.543-4.322-29.087-8.636-43.631-12.955c-0.521-0.168-0.985-0.469-1.456-0.739c-3.152-1.95-5.817-4.832-7.303-8.237
			C1.614,67.785,1,65.534,1,63.279V62.05c0-1.895,0.424-3.79,1.047-5.585c0.729-3.023,1.832-6.043,3.701-8.561
			C18.135,34.082,30.551,20.271,42.942,6.453C43.562,5.787,44.13,4.993,45.003,4.637"/>
	</g>
	<g>
		<g>
			<linearGradient id="SVGID_2_" gradientUnits="userSpaceOnUse" x1="48.5409" y1="34.1244" x2="-3.6659" y2="66.6128">
				<stop  offset="0" style="stop-color:#FBD19E"/>
				<stop  offset="1" style="stop-color:#F08701"/>
			</linearGradient>
			<path fill="url(#SVGID_2_)" d="M35,19.446c0-4.407,4.548-8.274,12.574-6.377c6.319,1.493,10.6,4.881,13.502,8.035
				c2.135-0.201,5.044,0.044,8.033,0.751c5.378,1.271,10.248,4.712,9.907,8.509c-0.598,5.676-11.355,5.867-19.125,4.824
				c-2.817-0.401-5.464-1.027-7.94-1.876c-5.379,7.278-13.148,10.731-15.283,11.637c1.28,0.479,3.842,1.789,7.941,3.903
				c1.964,0.993,4.867,2.12,6.233,2.442c5.209,1.23,9.307,1.229,14.004-2.244c0.17-0.136,0.598-0.387,0.853-0.062
				c0.256,0.325-0.256,0.732-0.683,1.073c-5.635,4.485-9.393,6.417-14.943,5.107c-2.731-0.645-4.866-1.679-8.196-3.699
				c-3.074-1.872-6.575-4.197-8.112-4.825c-2.902,1.517-6.403,2.894-11.527,1.771c-3.5-0.738-5.208-1.935-5.123-3.237
				c0.086-2.888,7.429-3.357,12.723-2.283c2.561,0.517,3.842,0.908,4.952,1.258c4.014-3.459,6.21-9.986,9.456-13.802
				C39.291,28.123,35,24.029,35,19.534V19.446z M25.738,43.425c-2.306-0.457-5.037,0.22-4.867,2.111
				c0.085,0.99,1.025,1.829,2.733,2.144c2.988,0.53,6.574-0.298,8.794-1.8C30.264,44.758,28.214,43.922,25.738,43.425z M36,19.824
				c0,3.966,4.474,8.032,8.744,9.922c5.124-6.722,10.904-8.083,14.576-8.537c-2.391-2.239-6.11-4.802-12.087-6.214
				C39.974,13.281,36,15.77,36,19.736V19.824z M59.977,34.15c4.696,0.493,15.113-0.131,15.625-5.298
				c0.257-3.288-2.732-5.405-5.89-6.151c-2.391-0.565-5.209-0.262-7.002,0.725c0.512,0.738,0.94,1.72,1.281,3.035
				c0.512,1.971,0.257,3.322,0.084,3.281c-0.256-0.06,0-0.793-1.281-3.388c-0.427-0.894-0.938-1.72-1.365-2.261
				c-2.818,1.538-5.892,4.601-9.051,8.527C54.939,33.489,56.99,33.797,59.977,34.15z"/>
		</g>
	</g>
</g>
<g id="Capa_2">
</g>
<g id="Capa_3">
	<g>
	</g>
	<g>
	</g>
	<g>
	</g>
	<g>
	</g>
	<g>
	</g>
	<g>
	</g>
</g>
</svg>
