<?xml version="1.0" encoding="iso-8859-1"?>
<svg version="1.1" id="_x24_federation" xmlns="http://www.w3.org/2000/svg" xmlns:xlink="http://www.w3.org/1999/xlink" x="0px"
	 y="0px" viewBox="0 0 48 48" style="enable-background:new 0 0 48 48;" xml:space="preserve">
<path style="fill:#028189;" d="M28.592,41.499c-0.067,0-0.134-0.005-0.201-0.015L6.634,38.183c-0.73-0.111-1.238-0.792-1.141-1.532
	l2.635-20.146c0.048-0.368,0.242-0.701,0.538-0.922c0.296-0.221,0.668-0.31,1.03-0.248l33.41,5.727
	c0.475,0.082,0.871,0.412,1.041,0.868c0.17,0.456,0.087,0.968-0.218,1.345l-14.289,17.72C29.382,41.317,28.995,41.499,28.592,41.499
	z M8.352,35.677l19.678,2.986l12.334-15.295L10.628,18.27L8.352,35.677z"/>
<path style="fill:#028189;" d="M6.836,37.576c-0.289,0-0.563-0.172-0.682-0.459c-0.157-0.38,0.02-0.817,0.397-0.976l34.113-14.4
	L27.581,6.249L10.636,18.434c-0.332,0.239-0.793,0.16-1.03-0.175c-0.237-0.336-0.159-0.802,0.174-1.041L27.275,4.637
	c0.313-0.224,0.742-0.171,0.99,0.124l14.179,16.791c0.153,0.181,0.212,0.426,0.157,0.658c-0.055,0.232-0.216,0.423-0.434,0.515
	L7.12,37.518C7.027,37.558,6.931,37.576,6.836,37.576z"/>
<g>
	<path style="fill-rule:evenodd;clip-rule:evenodd;fill:#47ABB0;" d="M3.334,10.987c3.075-3.094,8.061-3.093,11.136,0
		c3.075,3.091,3.075,8.103,0,11.196c-3.076,3.093-8.061,3.093-11.136,0C0.259,19.091,0.259,14.077,3.334,10.987z"/>
	<path style="fill:#028189;" d="M8.902,25.531c-2.278,0-4.555-0.872-6.289-2.616c-1.682-1.691-2.608-3.94-2.608-6.332
		c0-2.392,0.926-4.639,2.608-6.329l0,0c3.468-3.488,9.111-3.488,12.579,0c1.681,1.69,2.607,3.937,2.608,6.329
		c0,2.392-0.926,4.641-2.608,6.333C13.457,24.659,11.179,25.531,8.902,25.531z M8.901,9.704c-1.755,0-3.51,0.672-4.846,2.016
		c0,0,0,0,0,0c-1.293,1.299-2.005,3.027-2.005,4.864c0,1.838,0.712,3.566,2.005,4.866c2.672,2.687,7.02,2.687,9.693,0
		c1.293-1.301,2.005-3.029,2.005-4.867c0-1.837-0.712-3.564-2.004-4.863C12.412,10.376,10.656,9.704,8.901,9.704z"/>
</g>
<linearGradient id="SVGID_1_" gradientUnits="userSpaceOnUse" x1="9.038" y1="21.8511" x2="8.6535" y2="10.8421">
	<stop  offset="0" style="stop-color:#32A5AE"/>
	<stop  offset="1" style="stop-color:#FFFFFF"/>
</linearGradient>
<path style="fill-rule:evenodd;clip-rule:evenodd;fill:url(#SVGID_1_);" d="M4.844,12.505c2.212-2.225,5.801-2.225,8.015,0
	c2.214,2.227,2.214,5.833,0,8.06c-2.214,2.224-5.803,2.224-8.015,0C2.631,18.338,2.631,14.732,4.844,12.505z"/>
<g>
	<path style="fill-rule:evenodd;clip-rule:evenodd;fill:#47ABB0;" d="M3.33,11.07c-3.076,3.092-3.075,8.105,0,11.197
		c3.076,3.091,8.06,3.091,11.136,0c3.074-3.093,3.074-8.105,0-11.197C11.39,7.978,6.406,7.978,3.33,11.07z"/>
	<path style="fill:#028189;" d="M8.897,25.614c-2.278,0-4.555-0.871-6.289-2.613C0.926,21.309,0,19.059,0,16.667
		c0-2.391,0.926-4.639,2.608-6.33l0,0c3.469-3.486,9.111-3.486,12.579,0c1.681,1.691,2.607,3.939,2.607,6.331
		c0,2.392-0.925,4.641-2.606,6.332C13.453,24.743,11.175,25.614,8.897,25.614z M4.051,11.803c-1.293,1.3-2.005,3.027-2.005,4.864
		c0,1.838,0.712,3.567,2.005,4.868c2.672,2.685,7.02,2.686,9.693,0c1.292-1.3,2.004-3.028,2.003-4.866
		c0-1.838-0.712-3.566-2.004-4.866C11.073,9.117,6.724,9.116,4.051,11.803L4.051,11.803z"/>
</g>
<linearGradient id="SVGID_2_" gradientUnits="userSpaceOnUse" x1="7.4619" y1="20.8846" x2="10.523" y2="11.4637">
	<stop  offset="0" style="stop-color:#32A5AE"/>
	<stop  offset="1" style="stop-color:#FFFFFF"/>
</linearGradient>
<path style="fill-rule:evenodd;clip-rule:evenodd;fill:url(#SVGID_2_);" d="M13.273,14.05c-1.412-2.456-4.536-3.298-6.98-1.88
	c-2.443,1.419-3.28,4.561-1.87,7.018c1.411,2.457,4.536,3.299,6.979,1.881C13.846,19.649,14.683,16.509,13.273,14.05z"/>
<g>
	<g>
		<path style="fill-rule:evenodd;clip-rule:evenodd;fill:#47ABB0;" d="M25.978,33.373c3.075-3.094,8.061-3.093,11.136,0
			c3.075,3.091,3.075,8.103,0,11.196c-3.076,3.092-8.061,3.092-11.136,0C22.903,41.477,22.903,36.463,25.978,33.373z"/>
		<path style="fill:#028189;" d="M31.546,47.917c-2.278,0-4.555-0.872-6.289-2.616c-1.682-1.691-2.608-3.939-2.608-6.332
			c0-2.392,0.927-4.64,2.608-6.33c3.467-3.487,9.11-3.489,12.579,0c1.681,1.69,2.607,3.937,2.608,6.329
			c0,2.392-0.925,4.641-2.608,6.332C36.102,47.045,33.824,47.917,31.546,47.917z M31.546,32.09c-1.755,0-3.51,0.672-4.846,2.016v0
			c-1.293,1.299-2.005,3.027-2.005,4.864c0,1.838,0.712,3.566,2.005,4.866c2.672,2.688,7.02,2.688,9.693,0
			c1.293-1.301,2.005-3.029,2.005-4.867c0-1.837-0.712-3.564-2.005-4.863C35.056,32.762,33.301,32.09,31.546,32.09z"/>
	</g>
	<linearGradient id="SVGID_3_" gradientUnits="userSpaceOnUse" x1="31.6825" y1="44.2371" x2="31.2981" y2="33.2281">
		<stop  offset="0" style="stop-color:#32A5AE"/>
		<stop  offset="1" style="stop-color:#FFFFFF"/>
	</linearGradient>
	<path style="fill-rule:evenodd;clip-rule:evenodd;fill:url(#SVGID_3_);" d="M27.489,34.891c2.212-2.225,5.801-2.225,8.015,0
		c2.214,2.227,2.214,5.833,0,8.06c-2.214,2.224-5.803,2.224-8.015,0C25.276,40.724,25.276,37.118,27.489,34.891z"/>
	<g>
		<path style="fill-rule:evenodd;clip-rule:evenodd;fill:#47ABB0;" d="M25.974,33.456c-3.076,3.092-3.075,8.105,0,11.197
			c3.076,3.091,8.06,3.091,11.136,0c3.074-3.093,3.074-8.105,0-11.197C34.035,30.364,29.05,30.364,25.974,33.456z"/>
		<path style="fill:#028189;" d="M31.542,48c-2.278,0-4.555-0.871-6.289-2.614c-1.682-1.692-2.608-3.941-2.608-6.333
			c0-2.392,0.926-4.64,2.608-6.331l0,0c3.469-3.486,9.112-3.486,12.579,0c1.681,1.692,2.607,3.94,2.607,6.332
			c0,2.392-0.926,4.64-2.607,6.332C36.098,47.128,33.82,48,31.542,48z M26.696,34.189c-1.293,1.3-2.005,3.027-2.005,4.864
			c0,1.838,0.712,3.567,2.005,4.867c2.672,2.685,7.02,2.686,9.694,0c1.291-1.3,2.003-3.028,2.003-4.866
			c0-1.838-0.712-3.566-2.004-4.866C33.717,31.503,29.369,31.502,26.696,34.189L26.696,34.189z"/>
	</g>
	<linearGradient id="SVGID_4_" gradientUnits="userSpaceOnUse" x1="30.1065" y1="43.2706" x2="33.1675" y2="33.8497">
		<stop  offset="0" style="stop-color:#32A5AE"/>
		<stop  offset="1" style="stop-color:#FFFFFF"/>
	</linearGradient>
	<path style="fill-rule:evenodd;clip-rule:evenodd;fill:url(#SVGID_4_);" d="M35.918,36.436c-1.412-2.456-4.536-3.298-6.98-1.88
		c-2.443,1.419-3.28,4.561-1.87,7.018c1.411,2.457,4.536,3.299,6.979,1.881C36.49,42.035,37.328,38.895,35.918,36.436z"/>
</g>
<g>
	<g>
		<path style="fill-rule:evenodd;clip-rule:evenodd;fill:#47ABB0;" d="M24.764,2.302c2.114-2.127,5.542-2.126,7.656,0
			c2.114,2.125,2.114,5.571,0,7.697c-2.114,2.126-5.542,2.126-7.656,0C22.65,7.874,22.65,4.427,24.764,2.302z"/>
		<path style="fill:#028189;" d="M28.592,12.302c-1.566,0-3.132-0.599-4.324-1.798c-1.156-1.162-1.793-2.708-1.793-4.353
			c0-1.644,0.637-3.19,1.793-4.352c2.383-2.398,6.264-2.398,8.648,0c1.156,1.162,1.792,2.707,1.793,4.351
			c0,1.645-0.636,3.191-1.793,4.354C31.724,11.702,30.158,12.302,28.592,12.302z M28.591,1.42c-1.207,0-2.413,0.462-3.331,1.386
			c0,0,0,0,0,0c-0.889,0.893-1.378,2.08-1.378,3.344c0,1.264,0.489,2.452,1.378,3.346c1.837,1.848,4.827,1.848,6.664,0
			c0.889-0.894,1.378-2.082,1.378-3.346c0-1.263-0.49-2.45-1.378-3.343C31.005,1.883,29.798,1.42,28.591,1.42z"/>
	</g>
	<linearGradient id="SVGID_5_" gradientUnits="userSpaceOnUse" x1="28.6856" y1="9.7716" x2="28.4213" y2="2.2029">
		<stop  offset="0" style="stop-color:#32A5AE"/>
		<stop  offset="1" style="stop-color:#FFFFFF"/>
	</linearGradient>
	<path style="fill-rule:evenodd;clip-rule:evenodd;fill:url(#SVGID_5_);" d="M25.803,3.347c1.521-1.53,3.988-1.53,5.51,0
		c1.522,1.531,1.522,4.01,0,5.541c-1.522,1.529-3.989,1.529-5.51,0C24.281,7.356,24.281,4.877,25.803,3.347z"/>
	<g>
		<path style="fill-rule:evenodd;clip-rule:evenodd;fill:#47ABB0;" d="M24.761,2.36c-2.115,2.126-2.114,5.572,0,7.698
			c2.115,2.125,5.541,2.125,7.656,0c2.113-2.126,2.113-5.573,0-7.698C30.303,0.234,26.876,0.234,24.761,2.36z"/>
		<path style="fill:#028189;" d="M28.589,12.359c-1.566,0-3.132-0.599-4.324-1.797c-1.157-1.163-1.793-2.71-1.793-4.355
			c0-1.644,0.637-3.19,1.793-4.352c2.384-2.396,6.264-2.396,8.648,0c1.155,1.163,1.792,2.708,1.792,4.353
			c0,1.645-0.636,3.191-1.792,4.353C31.721,11.76,30.155,12.359,28.589,12.359z M28.589,1.478c-1.207,0-2.413,0.462-3.332,1.385l0,0
			c-0.889,0.893-1.379,2.081-1.379,3.344c0,1.264,0.489,2.452,1.379,3.347c1.837,1.846,4.827,1.846,6.664,0
			c0.888-0.894,1.377-2.082,1.377-3.346s-0.489-2.451-1.377-3.345C31.003,1.94,29.796,1.478,28.589,1.478z"/>
	</g>
	<linearGradient id="SVGID_6_" gradientUnits="userSpaceOnUse" x1="27.6021" y1="9.1071" x2="29.7065" y2="2.6303">
		<stop  offset="0" style="stop-color:#32A5AE"/>
		<stop  offset="1" style="stop-color:#FFFFFF"/>
	</linearGradient>
	<path style="fill-rule:evenodd;clip-rule:evenodd;fill:url(#SVGID_6_);" d="M31.597,4.409c-0.971-1.689-3.118-2.268-4.799-1.293
		c-1.679,0.975-2.255,3.135-1.286,4.825c0.97,1.689,3.118,2.268,4.798,1.293C31.991,8.258,32.567,6.099,31.597,4.409z"/>
</g>
<g>
	<g>
		<path style="fill-rule:evenodd;clip-rule:evenodd;fill:#47ABB0;" d="M3.596,33.643c2.114-2.127,5.542-2.126,7.656,0
			c2.114,2.125,2.114,5.571,0,7.697c-2.114,2.126-5.542,2.126-7.656,0C1.482,39.215,1.482,35.768,3.596,33.643z"/>
		<path style="fill:#028189;" d="M7.424,43.642c-1.566,0-3.132-0.599-4.324-1.798c-1.156-1.163-1.793-2.708-1.793-4.353
			c0-1.644,0.637-3.19,1.793-4.352c2.383-2.398,6.264-2.398,8.648,0c1.156,1.162,1.793,2.707,1.793,4.351
			c0,1.644-0.636,3.191-1.793,4.353C10.556,43.043,8.99,43.642,7.424,43.642z M7.424,32.761c-1.207,0-2.413,0.462-3.332,1.386h0
			c-0.889,0.893-1.378,2.081-1.378,3.344c0,1.264,0.489,2.451,1.378,3.345c1.837,1.848,4.826,1.848,6.664,0
			c0.889-0.894,1.379-2.082,1.378-3.346c0-1.263-0.49-2.45-1.378-3.344C9.837,33.223,8.63,32.761,7.424,32.761z"/>
	</g>
	<linearGradient id="SVGID_7_" gradientUnits="userSpaceOnUse" x1="7.5178" y1="41.112" x2="7.2535" y2="33.5433">
		<stop  offset="0" style="stop-color:#32A5AE"/>
		<stop  offset="1" style="stop-color:#FFFFFF"/>
	</linearGradient>
	<path style="fill-rule:evenodd;clip-rule:evenodd;fill:url(#SVGID_7_);" d="M4.635,34.687c1.521-1.53,3.988-1.53,5.51,0
		c1.522,1.531,1.522,4.01,0,5.541c-1.522,1.529-3.989,1.529-5.51,0C3.113,38.697,3.113,36.218,4.635,34.687z"/>
	<g>
		<path style="fill-rule:evenodd;clip-rule:evenodd;fill:#47ABB0;" d="M3.593,33.7c-2.115,2.126-2.114,5.572,0,7.698
			c2.115,2.125,5.541,2.125,7.656,0c2.113-2.126,2.113-5.573,0-7.698C9.135,31.574,5.708,31.574,3.593,33.7z"/>
		<path style="fill:#028189;" d="M7.421,43.699c-1.566,0-3.132-0.599-4.323-1.797c-1.157-1.163-1.794-2.71-1.793-4.354
			c0-1.644,0.637-3.19,1.793-4.352l0,0c2.384-2.396,6.264-2.397,8.648,0c1.156,1.163,1.792,2.708,1.792,4.352
			c0,1.645-0.636,3.191-1.792,4.354C10.553,43.1,8.987,43.699,7.421,43.699z M4.089,34.204c-0.889,0.893-1.378,2.081-1.379,3.344
			c0,1.264,0.489,2.452,1.379,3.347c1.837,1.847,4.827,1.846,6.664,0c0.888-0.894,1.378-2.082,1.377-3.346
			c0-1.264-0.489-2.451-1.378-3.345C8.916,32.357,5.927,32.357,4.089,34.204L4.089,34.204z"/>
	</g>
	<linearGradient id="SVGID_8_" gradientUnits="userSpaceOnUse" x1="6.4343" y1="40.4475" x2="8.5388" y2="33.9707">
		<stop  offset="0" style="stop-color:#32A5AE"/>
		<stop  offset="1" style="stop-color:#FFFFFF"/>
	</linearGradient>
	<path style="fill-rule:evenodd;clip-rule:evenodd;fill:url(#SVGID_8_);" d="M10.429,35.749c-0.971-1.689-3.118-2.268-4.799-1.293
		c-1.679,0.975-2.255,3.135-1.286,4.825c0.97,1.689,3.118,2.268,4.798,1.293C10.823,39.598,11.399,37.44,10.429,35.749z"/>
</g>
<g>
	<g>
		<path style="fill-rule:evenodd;clip-rule:evenodd;fill:#47ABB0;" d="M38.055,18.221c2.114-2.127,5.542-2.126,7.656,0
			c2.114,2.125,2.114,5.571,0,7.697c-2.114,2.126-5.542,2.126-7.656,0C35.941,23.793,35.941,20.346,38.055,18.221z"/>
		<path style="fill:#028189;" d="M41.883,28.221c-1.566,0-3.132-0.599-4.324-1.798c-1.156-1.163-1.793-2.708-1.793-4.353
			c0-1.644,0.637-3.19,1.793-4.352c2.384-2.398,6.264-2.398,8.648,0C47.363,18.879,48,20.424,48,22.068
			c0,1.645-0.636,3.191-1.793,4.354C45.015,27.621,43.449,28.221,41.883,28.221z M41.883,17.339c-1.207,0-2.413,0.462-3.331,1.386v0
			c-0.889,0.893-1.378,2.08-1.378,3.344c0,1.264,0.489,2.452,1.378,3.346c1.837,1.848,4.827,1.848,6.664,0
			c0.889-0.894,1.378-2.082,1.378-3.346c0-1.263-0.49-2.45-1.378-3.343C44.296,17.801,43.089,17.339,41.883,17.339z"/>
	</g>
	<linearGradient id="SVGID_9_" gradientUnits="userSpaceOnUse" x1="41.977" y1="25.6906" x2="41.7126" y2="18.1219">
		<stop  offset="0" style="stop-color:#32A5AE"/>
		<stop  offset="1" style="stop-color:#FFFFFF"/>
	</linearGradient>
	<path style="fill-rule:evenodd;clip-rule:evenodd;fill:url(#SVGID_9_);" d="M39.094,19.265c1.521-1.53,3.988-1.53,5.51,0
		c1.522,1.531,1.522,4.01,0,5.541c-1.522,1.529-3.989,1.529-5.51,0C37.572,23.275,37.572,20.796,39.094,19.265z"/>
	<g>
		<path style="fill-rule:evenodd;clip-rule:evenodd;fill:#47ABB0;" d="M38.053,18.279c-2.115,2.126-2.114,5.572,0,7.698
			c2.115,2.125,5.541,2.125,7.656,0c2.113-2.126,2.113-5.573,0-7.698C43.594,16.153,40.167,16.153,38.053,18.279z"/>
		<path style="fill:#028189;" d="M41.88,28.278c-1.566,0-3.132-0.599-4.324-1.797c-1.157-1.163-1.793-2.709-1.793-4.354
			c0-1.644,0.637-3.19,1.793-4.352c2.384-2.396,6.264-2.396,8.648,0c1.155,1.163,1.792,2.708,1.792,4.353
			c0,1.645-0.636,3.191-1.792,4.354C45.013,27.679,43.446,28.278,41.88,28.278z M41.881,17.397c-1.207,0-2.413,0.462-3.332,1.385
			c-0.889,0.893-1.379,2.081-1.379,3.344c0,1.264,0.489,2.452,1.379,3.346c1.836,1.846,4.827,1.846,6.664,0
			c0.888-0.894,1.377-2.082,1.377-3.346s-0.489-2.451-1.377-3.345C44.294,17.859,43.087,17.397,41.881,17.397z"/>
	</g>
	<linearGradient id="SVGID_10_" gradientUnits="userSpaceOnUse" x1="40.8934" y1="25.0261" x2="42.9979" y2="18.5492">
		<stop  offset="0" style="stop-color:#32A5AE"/>
		<stop  offset="1" style="stop-color:#FFFFFF"/>
	</linearGradient>
	<path style="fill-rule:evenodd;clip-rule:evenodd;fill:url(#SVGID_10_);" d="M44.889,20.327c-0.971-1.689-3.118-2.268-4.799-1.293
		c-1.679,0.975-2.255,3.135-1.286,4.825c0.97,1.689,3.118,2.268,4.798,1.293C45.282,24.177,45.858,22.018,44.889,20.327z"/>
</g>
</svg>
