<?xml version="1.0" encoding="UTF-8" standalone="no"?>
<!-- Created with Inkscape (http://www.inkscape.org/) -->

<svg
   xmlns:dc="http://purl.org/dc/elements/1.1/"
   xmlns:cc="http://creativecommons.org/ns#"
   xmlns:rdf="http://www.w3.org/1999/02/22-rdf-syntax-ns#"
   xmlns:svg="http://www.w3.org/2000/svg"
   xmlns="http://www.w3.org/2000/svg"
   xmlns:sodipodi="http://sodipodi.sourceforge.net/DTD/sodipodi-0.dtd"
   xmlns:inkscape="http://www.inkscape.org/namespaces/inkscape"
   width="48px"
   height="48px"
   id="svg2952"
   version="1.1"
   inkscape:version="0.48.1 r9760"
   sodipodi:docname="medical_icon.svg">
  <title
     id="title3017">GNU Health</title>
  <defs
     id="defs2954">
    <inkscape:perspective
       sodipodi:type="inkscape:persp3d"
       inkscape:vp_x="0 : 24 : 1"
       inkscape:vp_y="0 : 1000 : 0"
       inkscape:vp_z="48 : 24 : 1"
       inkscape:persp3d-origin="24 : 16 : 1"
       id="perspective2960" />
    <inkscape:perspective
       id="perspective2915"
       inkscape:persp3d-origin="0.5 : 0.33333333 : 1"
       inkscape:vp_z="1 : 0.5 : 1"
       inkscape:vp_y="0 : 1000 : 0"
       inkscape:vp_x="0 : 0.5 : 1"
       sodipodi:type="inkscape:persp3d" />
  </defs>
  <sodipodi:namedview
     id="base"
     pagecolor="#ffffff"
     bordercolor="#666666"
     borderopacity="1.0"
     inkscape:pageopacity="0.0"
     inkscape:pageshadow="2"
     inkscape:zoom="7"
     inkscape:cx="24"
     inkscape:cy="24"
     inkscape:current-layer="layer1"
     showgrid="true"
     inkscape:grid-bbox="true"
     inkscape:document-units="px"
     inkscape:window-width="803"
     inkscape:window-height="616"
     inkscape:window-x="0"
     inkscape:window-y="49"
     inkscape:window-maximized="0" />
  <metadata
     id="metadata2957">
    <rdf:RDF>
      <cc:Work
         rdf:about="">
        <dc:format>image/svg+xml</dc:format>
        <dc:type
           rdf:resource="http://purl.org/dc/dcmitype/StillImage" />
        <dc:title>GNU Health</dc:title>
        <dc:creator>
          <cc:Agent>
            <dc:title>Luis Falcon</dc:title>
          </cc:Agent>
        </dc:creator>
        <dc:rights>
          <cc:Agent>
            <dc:title></dc:title>
          </cc:Agent>
        </dc:rights>
        <cc:license
           rdf:resource="http://creativecommons.org/licenses/by-sa/3.0/" />
      </cc:Work>
      <cc:License
         rdf:about="http://creativecommons.org/licenses/by-sa/3.0/">
        <cc:permits
           rdf:resource="http://creativecommons.org/ns#Reproduction" />
        <cc:permits
           rdf:resource="http://creativecommons.org/ns#Distribution" />
        <cc:requires
           rdf:resource="http://creativecommons.org/ns#Notice" />
        <cc:requires
           rdf:resource="http://creativecommons.org/ns#Attribution" />
        <cc:permits
           rdf:resource="http://creativecommons.org/ns#DerivativeWorks" />
        <cc:requires
           rdf:resource="http://creativecommons.org/ns#ShareAlike" />
      </cc:License>
    </rdf:RDF>
  </metadata>
  <g
     id="layer1"
     inkscape:label="Layer 1"
     inkscape:groupmode="layer">
    <g
       id="g2881"
       transform="matrix(0.14551905,0,0,0.14551905,-29.774767,-40.185626)">
      <path
         d="m 286.79244,375.40792 c -2.78325,2.88399 -4.21663,6.45827 -5.31628,10.2288 -0.70106,3.60239 -0.76466,7.29109 -0.56773,10.9445 0.16294,3.66867 0.71693,7.30096 1.51572,10.88228 0.95862,4.37313 1.1796,8.85791 1.33017,13.31859 -0.0949,5.91637 -0.62535,11.81275 -1.3277,17.68446 -0.69275,7.13589 -2.05811,14.17607 -3.79498,21.1245 -1.69586,6.80368 -3.99672,13.42842 -6.23393,20.06589 -1.469,4.22438 -2.87468,8.46936 -4.53312,12.62438 -1.33299,2.99108 -2.65844,5.92523 -5.00671,8.25266 -2.18298,1.50346 -1.00046,0.77489 -3.57064,2.1477 l -3.55742,1.4738 c -1.81687,0.70069 -0.98316,0.56477 -2.45415,0.63167 -0.57352,-1.96359 2.61299,-5.22587 3.01708,-7.18807 1.89982,-4.15162 3.39211,-8.4685 4.97768,-12.74776 2.52037,-6.61433 4.84088,-13.31535 6.69254,-20.14982 1.75297,-6.99769 3.397,-14.015 4.25268,-21.19117 0.76625,-5.875 1.5483,-11.76366 1.66261,-17.69579 0.14681,-4.49879 0.009,-8.98529 -0.67777,-13.44419 -0.50722,-3.72509 -1.18645,-7.43522 -1.20385,-11.21014 -0.0569,-3.82937 0.004,-7.66647 0.88956,-11.41801 0.91424,-4.00839 2.76312,-7.59301 5.41083,-10.75066 l 8.49541,-3.58362 z"
         id="path3338"
         style="fill:#003d00;fill-opacity:1;stroke:#003d00;stroke-width:2.05950975;stroke-opacity:1" />
      <path
         d="m 344.93603,378.27138 c -2.74103,2.85066 -4.73223,6.17837 -5.97212,9.91623 -1.15628,3.50536 -0.78897,7.18018 -0.64034,10.79272 0.51053,4.21151 0.88034,8.43965 1.09545,12.67683 0.16163,4.01866 0.46911,8.02678 0.77675,12.03657 0.25996,4.0383 0.5637,8.06909 0.80562,12.10829 0.10209,5.00861 0.37307,10.01273 0.39795,15.0238 -0.008,5.17042 -0.23489,10.34773 -0.80813,15.48718 -0.44077,4.946 -1.1458,9.85756 -1.90571,14.76198 -0.80912,4.58787 -1.78367,9.14673 -2.55022,13.74165 -0.55341,2.65196 -0.61712,5.39879 -1.34801,8.01291 -0.67315,2.05299 -2.92228,2.57342 -4.35486,3.95327 l -0.42322,0.20696 c -1.33086,-0.0152 -3.33945,1.95064 -4.12428,0.23576 -0.14532,-2.68168 0.76023,-5.30959 1.08959,-7.94806 0.90737,-4.56901 1.60204,-9.17821 2.5609,-13.73835 0.95436,-4.89432 1.52524,-9.84978 2.14363,-14.79552 0.44421,-5.13558 0.97636,-10.26677 0.92152,-15.42999 -0.0166,-5.00194 -0.0256,-10.00723 -0.35389,-15.00094 -0.12523,-4.08513 -0.30983,-8.1678 -0.51325,-12.2497 -0.12739,-4.06275 -0.46147,-8.11889 -0.50197,-12.18417 -0.1948,-4.25646 -0.55148,-8.48855 -0.95605,-12.72942 -0.34902,-3.72725 -0.31134,-7.49957 0.59494,-11.15386 1.24007,-3.87618 3.24035,-7.33275 6.01495,-10.33386 l 8.05075,-3.39028 z"
         id="path3340"
         style="fill:#003d00;fill-opacity:1;stroke:#003d00;stroke-width:2.05950975;stroke-opacity:1" />
      <path
         d="m 227.65614,414.37236 c 4.16956,-2.79056 7.97292,-6.08964 11.68539,-9.45284 3.80095,-3.46953 7.37515,-7.17672 11.05843,-10.76904 2.85238,-2.87532 5.88647,-5.55783 8.90956,-8.24974 2.96523,-2.6963 6.1557,-5.12798 9.11932,-7.82595 2.74133,-2.67923 5.20356,-5.621 7.86454,-8.37791 2.89818,-2.9608 5.90511,-5.81161 8.98521,-8.5817 3.23952,-2.86957 6.18794,-6.02928 9.03428,-9.28186 2.36316,-2.75234 4.58676,-5.61788 6.90218,-8.4103 2.02792,-2.34827 4.18964,-4.59514 5.97831,-7.13674 1.4882,-2.78857 5.71712,-7.67782 8.88489,-4.54982 1.36181,1.72767 2.89452,3.30445 4.33493,4.96353 2.76924,3.06484 5.77913,5.90064 8.60494,8.9136 3.41249,3.85746 6.55773,7.9384 10.12354,11.65779 3.93931,4.10433 8.26287,7.80457 12.58261,11.4959 4.25076,3.9407 8.91998,7.35564 13.65533,10.67821 5.33839,3.63134 11.47078,5.17221 17.7272,6.29598 4.37861,0.79245 8.87595,0.7067 13.23163,1.6127 0.85544,0.83282 -0.13532,1.67435 -0.67074,2.40599 l -0.38235,0.27532 c -1.82278,0.87193 -3.63468,1.83537 -5.66499,2.12203 -4.62421,0.10095 -9.21896,-0.62037 -13.77552,-1.33567 -6.32947,-1.14961 -12.50759,-2.88123 -17.81322,-6.68863 -4.79074,-3.25909 -9.08528,-7.13263 -13.45965,-10.92093 -4.20327,-3.82372 -8.50672,-7.54031 -12.33772,-11.75033 -3.37441,-3.86964 -6.63131,-7.81955 -9.81107,-11.85147 -2.70232,-3.08887 -5.5481,-6.04844 -8.29733,-9.09521 -1.52942,-1.58251 -2.91967,-3.27551 -4.3438,-4.95061 -1.96478,-2.31725 -0.62168,-0.38181 5.49182,-4.31334 0.1045,-0.0672 -1.55149,2.19598 -1.39681,2.14237 -1.90137,2.54844 -4.11903,4.83571 -6.15551,7.27403 -2.41747,2.75386 -4.63907,5.66549 -7.00456,8.46291 -2.88587,3.29753 -5.84958,6.53479 -9.15932,9.41775 -3.00882,2.77985 -6.01708,5.56296 -8.88392,8.49081 -2.64908,2.7689 -5.1857,5.63692 -7.8244,8.41446 -3.00808,2.69389 -6.15081,5.22039 -9.2012,7.86499 -3.03707,2.69629 -6.06101,5.41052 -8.97353,8.24171 -3.7025,3.61694 -7.37269,7.26708 -11.12849,10.829 -3.75814,3.32974 -7.56504,6.61108 -11.64272,9.5485 l -6.24726,2.43451 z"
         id="path3342"
         style="fill:#003d00;fill-opacity:1;stroke:#003d00;stroke-width:2.05950975;stroke-opacity:1" />
      <path
         d="m 423.49132,412.39131 c -3.53062,2.38237 -5.9134,5.63873 -7.43716,9.5648 -1.36035,3.96016 -1.5282,8.18058 -0.7372,12.26838 0.91332,3.25332 2.21084,4.69992 5.64269,3.93183 4.65092,-2.23552 -2.32299,1.61141 -3.61108,2.1714 -0.64752,0.2815 1.12774,-0.85302 1.6502,-1.32795 1.59812,-1.45274 2.77401,-3.11729 3.92095,-4.92652 1.48709,-2.68792 2.22559,-5.6309 1.58387,-8.65985 -0.6203,-1.74762 0.038,-3.43842 -0.36972,-5.16334 l 0.39352,-0.25903 c 2.48005,0.0264 5.03039,-0.46572 6.75322,1.71838 1.21793,3.19974 0.60663,6.19775 -1.09885,9.15449 -3.53182,5.92383 -8.81408,10.09955 -15.65786,12.12166 -3.52334,0.33953 -5.69873,-1.35837 -6.65557,-4.78743 -0.79499,-4.23553 -0.66374,-8.50276 0.49554,-12.6739 1.58074,-4.11999 3.91857,-7.60874 7.59677,-10.17021 l 7.53068,-2.96271 z"
         id="path3344"
         style="fill:#003d00;fill-opacity:1;stroke:#003d00;stroke-width:2.05950975;stroke-opacity:1" />
      <path
         d="m 422.69209,439.81513 c -1.19802,5.42308 -2.44024,10.82981 -3.78509,16.21815 -1.34093,4.96828 -2.79295,9.90564 -4.12079,14.878 -0.77413,2.38781 -1.35332,4.82936 -2.10807,7.22264 -0.96829,3.41176 -0.36129,2.11058 -7.56993,3.82211 -0.0478,0.0113 0.28955,-0.60497 1.11715,-2.14062 1.14988,-2.57238 2.6449,-4.95385 4.00265,-7.41488 l 0.97755,-0.47818 c 0.78658,1.59715 1.74875,2.95652 1.50466,4.85262 -0.01,0.10108 -0.11863,1.6717 -0.27665,1.77171 -10.92535,6.91435 -8.57895,6.58938 -7.37511,3.20546 0.61903,-2.41454 1.32989,-4.79886 2.01939,-7.19446 1.67307,-4.96383 3.07973,-10.00932 4.53355,-15.03914 1.4865,-5.44153 2.88505,-10.90371 4.18542,-16.39287 l 6.89527,-3.31054 z"
         id="path3346"
         style="fill:#003d00;fill-opacity:1;stroke:#003d00;stroke-width:2.05950975;stroke-opacity:1" />
      <path
         d="m 411.26635,460.73376 c 0.53482,-2.44944 1.62374,-4.79417 1.78356,-7.3177 -0.0453,-0.0439 -0.077,-0.15458 -0.13576,-0.13166 -0.23668,0.0924 -0.27951,0.44264 -0.49169,0.58242 -0.61736,0.40675 -1.41684,0.68109 -2.07784,1.01105 0.47137,-0.27811 -2.44731,1.4299 -1.83067,1.08074 1.84497,-1.04459 7.34843,-4.23315 5.52261,-3.1554 -3.24,1.91249 -6.44325,3.82215 -9.78119,5.53283 -3.08712,1.48895 -11.64522,6.513 1.24778,-0.87113 -0.43834,0.35159 -2.59875,1.80624 -2.00755,2.5278 2.67992,0.13748 5.14341,-1.5834 7.39573,-2.82829 2.7897,-1.62873 4.3933,-3.05199 7.38483,-1.15937 3.17818,2.6348 6.32265,5.27157 9.69571,7.65536 1.20023,1.0585 7.54472,3.57604 7.43925,5.2552 -0.0422,0.67213 -0.53816,1.2347 -0.80724,1.85203 l -0.84532,0.54341 c -0.95154,0.17996 -1.88765,0.48708 -2.85461,0.53988 -3.129,0.17085 -6.61876,-2.76932 -9.18668,-4.21071 -3.35542,-2.38236 -6.45314,-5.07837 -9.76066,-7.51838 -2.52577,-1.20616 -4.46412,0.30284 -6.70476,1.59025 -2.48839,1.36395 -5.5793,3.5158 -8.49462,2.35891 -1.25639,-1.37083 -0.14453,-2.58756 1.0544,-3.60936 4.2127,-2.47373 8.36424,-5.08084 12.77483,-7.19768 0.63899,-0.32345 2.53139,-1.33879 1.91597,-0.97242 -12.65789,7.53518 -1.05786,0.2665 3.39461,-1.80786 0.74983,-0.26776 2.27914,-0.78356 1.90287,0.64702 -0.99111,2.68759 -2.03173,5.36016 -3.10871,8.01356 l -3.42485,1.5895 z"
         id="path3348"
         style="fill:#003d00;fill-opacity:1;stroke:#003d00;stroke-width:2.05950975;stroke-opacity:1" />
      <path
         d="m 412.73839,476.05409 c -1.29236,3.24649 -2.53703,6.50967 -3.91183,9.72225 -0.78191,1.75742 -1.47162,3.56835 -2.45967,5.22469 -0.60976,1.20138 -0.76017,0.13226 -1.03639,0.25312 -2.78079,1.21679 -5.22512,3.24909 -3.47372,1.82297 0.83701,-0.89844 1.55553,-1.90336 2.31113,-2.87093 0.89269,-1.13887 1.88908,-2.20709 2.69282,-3.41254 3.75159,-5.19535 5.79275,-4.60181 8.19231,-1.33817 1.00567,1.65516 2.04074,3.28967 2.96598,4.9914 0.68483,1.26044 1.13514,2.62478 1.60595,3.97433 0.92224,2.2342 -0.35321,1.57984 -1.03243,3.23706 l -0.37425,0.28619 c -1.72887,0.83462 -3.87111,2.21307 -5.2439,0.18248 -0.56054,-1.30978 -0.81073,-2.75336 -1.36842,-4.07576 -0.59989,-1.81424 -1.08172,-3.71296 -2.11555,-5.34206 -0.38345,-0.6662 -0.44536,-0.89859 -0.98768,-1.4088 -0.12878,-0.12116 -0.57357,-0.19779 -0.4335,-0.3057 8.06524,-6.21302 5.63858,-3.69613 3.90767,-2.35475 -1.20324,1.12906 -2.27665,2.38289 -3.32536,3.65505 -0.79343,0.93751 -1.48013,1.95473 -2.24302,2.9161 -1.48461,1.59429 -5.08017,5.07475 -6.03503,2.53421 0.47317,-1.80415 1.49785,-3.41546 2.23262,-5.11565 1.42061,-3.18793 2.85316,-6.37725 3.94025,-9.6987 l 6.19202,-2.87679 z"
         id="path3350"
         style="fill:#003d00;fill-opacity:1;stroke:#003d00;stroke-width:2.05950975;stroke-opacity:1" />
      <path
         d="m 483.13573,418.88323 c -3.58557,0.88568 -15.81477,8.03593 -2.29609,0.43908 -1.9292,1.32852 -3.1039,3.20896 -3.96602,5.33672 -0.84141,2.12251 -1.04573,4.37551 -1.25983,6.62215 -0.13307,2.02082 0.31164,3.9336 0.89724,5.84052 0.75162,1.75674 1.93509,2.96405 3.71206,3.6361 1.96958,0.88593 3.93324,0.78556 5.96079,0.22917 2.60983,-1.05014 7.52768,-3.91185 -3.6619,2.31759 -0.33297,0.18535 0.64522,-0.40599 0.96077,-0.61965 0.49359,-0.33416 1.27429,-0.91841 1.75094,-1.27038 1.87681,-1.39961 3.15168,-3.34397 4.31875,-5.33586 0.94529,-1.71646 1.51232,-3.55342 1.7655,-5.48859 0.41501,-3.17248 0.0277,-3.877 2.57488,-6.19068 0.34509,-0.36525 0.69018,-0.7305 1.03528,-1.09573 l 0.41274,-0.22719 c 0.45022,-0.0474 0.90045,-0.0949 1.35069,-0.14229 0.52846,-0.0584 1.05659,-0.23015 1.58541,-0.17508 1.42058,0.14792 0.38035,3.43796 0.43698,4.20099 -0.34367,2.02774 -0.7343,4.0466 -1.80412,5.84038 -1.14911,2.04598 -2.37431,4.12735 -4.20787,5.63836 -3.92462,3.07411 -8.23187,5.84969 -12.96079,7.47048 -2.31016,0.50706 -4.4905,0.41415 -6.75314,-0.32355 -1.91968,-0.88511 -3.47778,-2.11165 -4.26116,-4.14779 -0.81801,-1.93602 -1.16623,-4.07228 -1.0727,-6.17222 0.11076,-2.33945 0.43395,-4.68948 1.22136,-6.90542 0.89124,-2.28581 1.98965,-4.43122 4.0229,-5.91854 5.4142,-3.22498 10.48828,-6.56726 16.50918,-8.45836 l -6.27185,4.89979 z"
         id="path3352"
         style="fill:#003d00;fill-opacity:1;stroke:#003d00;stroke-width:2.05950975;stroke-opacity:1" />
      <path
         d="m 481.99118,441.31358 c -1.07455,4.05471 -2.1764,8.10377 -3.31737,12.14083 -0.50839,1.87682 -0.81071,3.78375 -1.15314,5.69561 -0.3977,4.27476 0.0632,2.30098 -6.64446,4.99419 0.24238,-0.93467 0.75384,-1.8167 0.76147,-2.79983 0.10492,-0.54108 0.32307,-1.85887 -0.56559,-1.61227 -4.13673,2.66373 9.98152,-6.15844 3.80186,-1.75935 -2.82714,1.82791 -1.07352,0.70877 -7.75164,4.47367 -0.41204,0.23228 -1.66871,0.89135 -1.25775,0.65708 6.1984,-3.53332 7.84413,-4.84156 5.50638,-3.03671 -0.83578,0.85483 -1.77937,1.58861 -2.7111,2.33316 -1.0238,1.02883 -2.05827,2.048 -3.07365,3.08517 -0.95518,1.0242 -1.76964,2.19783 -2.53838,3.3689 -0.86209,1.07837 -1.48109,2.30886 -1.72416,3.66843 -0.16965,1.24081 -0.27985,2.52415 -0.12139,3.77046 0.35296,1.25123 1.32606,2.11391 2.45321,2.67312 1.13948,0.75452 2.4436,0.9413 3.77965,0.95198 1.65988,-0.0136 3.19109,-0.62472 4.71436,-1.20857 2.38454,-1.20585 6.16195,-3.30935 -4.67725,2.71932 -0.1918,0.1067 0.36112,-0.24965 0.53847,-0.37895 0.54982,-0.40102 0.52293,-0.39152 1.01922,-0.80588 2.70255,-2.18715 4.93381,-2.59475 8.62862,-3.8805 -0.21039,1.4466 -0.78006,2.79091 -1.06534,4.22465 -0.4568,2.60309 -1.21855,5.12907 -1.98455,7.65375 -0.69959,2.39182 -1.45214,4.76665 -2.17122,7.15242 -0.14235,1.10628 -0.7086,2.12638 -0.9594,3.18842 -0.28593,0.23007 -0.28635,0.53574 -0.13839,1.0091 0.53642,0.59166 -6.28072,6.37913 -7.25505,3.48181 -0.98648,-0.32599 -1.99131,0.30719 -2.8842,0.71448 -7.53735,4.10218 9.23793,-5.57148 4.32191,-2.50074 -0.95367,0.94628 -1.56291,-0.23861 -0.49563,-0.99677 -15.18026,8.95993 0.40076,-0.68428 5.19336,-2.83268 1.76254,-0.67662 3.53517,-1.53259 5.44452,-1.1124 1.81317,0.96408 2.77043,2.96654 3.89144,4.61425 1.55158,2.75733 2.31975,3.45885 -0.21979,5.83961 -0.35185,0.30716 -0.70369,0.6143 -1.05554,0.92143 l -0.41287,0.22694 c -0.4135,0.1169 -0.82704,0.23377 -1.24054,0.35067 -3.35379,0.84769 -2.84581,-0.55078 -4.55345,-2.97743 -0.8734,-1.48305 -1.69321,-3.37892 -3.3324,-4.08382 -1.81908,-0.0521 -3.46627,0.74133 -5.10297,1.45384 -0.64365,0.30879 -2.52942,1.32237 -1.91561,0.95783 2.07305,-1.23118 4.15906,-2.44051 6.24942,-3.64207 0.56952,-0.32736 -1.09941,0.72025 -1.66592,1.05279 -2.6505,1.55577 -5.31119,3.0941 -7.96678,4.64116 -0.94954,0.43666 -2.08509,-0.37473 -1.14165,-1.14458 3.31245,-2.5365 7.05951,-4.51861 10.88346,-6.17659 1.2271,-0.41211 2.73027,-0.86858 3.56472,0.45239 1.57661,3.36602 -6.67956,8.45073 -7.50092,4.48803 0.0692,-0.48219 -0.23879,-0.98803 -0.0757,-1.45014 0.77152,-0.81543 0.74471,-2.09989 1.19802,-3.08891 0.77127,-2.43728 1.6009,-4.85251 2.41883,-7.27428 0.83204,-2.54208 1.52043,-5.12379 2.20505,-7.70873 0.43932,-1.47237 0.9191,-2.90863 1.59341,-4.28958 11.39699,-6.2864 6.47942,-3.90051 4.15279,-1.93742 -2.85294,2.45621 -6.11303,4.44378 -9.60047,5.94085 -1.70687,0.69125 -3.4884,1.24838 -5.34595,1.28166 -1.53785,-0.058 -2.92792,-0.40625 -4.30854,-1.10722 -1.28533,-0.85389 -2.40168,-1.7947 -2.85487,-3.33718 -0.22656,-1.32428 -0.25007,-2.64742 -0.0815,-3.98308 0.25278,-1.47408 0.62785,-2.83131 1.58655,-4.02751 0.91618,-1.23211 1.72419,-2.54598 2.7971,-3.65738 1.15912,-1.06466 2.30573,-2.13742 3.37997,-3.28978 0.99355,-0.8015 2.03731,-1.53622 2.98411,-2.39408 0.50398,-0.52673 18.3931,-10.94384 2.96785,-1.90894 -0.20463,0.11987 0.41866,-0.22291 0.62797,-0.33437 2.98077,-1.94555 5.79311,-5.58076 9.46477,-5.31374 1.10025,0.58662 1.22464,1.41784 1.13416,2.59045 -0.27175,1.01976 -0.27768,2.11486 -0.86369,3.03526 -6.79612,3.8331 -7.44927,6.22232 -6.75004,1.39211 0.26015,-2.00953 0.76577,-3.97702 1.37953,-5.90562 1.14946,-4.03652 2.49181,-8.01871 3.39116,-12.12324 l 6.44554,-3.11548 z"
         id="path3354"
         style="fill:#003d00;fill-opacity:1;stroke:#003d00;stroke-width:2.05950975;stroke-opacity:1" />
      <path
         d="m 470.07355,448.79012 c 1.43419,3.22685 3.8227,5.85261 6.41137,8.19372 1.69353,1.67018 3.78624,2.51416 6.06049,3.02693 1.63913,0.38982 2.78969,0.0413 3.3134,1.77029 l -0.69836,0.51743 c -2.8278,1.10025 -5.72211,2.37164 -8.83023,2.05288 -2.49507,-0.39615 -4.58543,-1.59007 -6.45558,-3.28315 -2.59996,-2.47837 -4.78168,-5.30959 -6.52647,-8.45577 l 6.72538,-3.82233 z"
         id="path3356"
         style="fill:#003d00;fill-opacity:1;stroke:#003d00;stroke-width:2.05950975;stroke-opacity:1" />
      <path
         d="m 485.65393,414.9172 c 2.92482,-0.44879 5.97571,-0.72522 8.79899,0.31317 1.62726,0.66345 2.47547,2.08652 3.1654,3.60677 0.66757,1.65386 0.31149,3.0515 -0.42215,4.60864 -1.35606,1.65624 -0.61832,0.82399 -2.22949,2.48216 l -0.42173,0.20997 c -1.43489,-0.11511 -0.75853,-0.002 -2.03384,-0.30935 -0.87143,-0.96703 -0.99461,-2.13068 -1.39775,-3.32158 -0.60907,-1.35657 -1.34805,-2.49925 -2.76744,-3.11708 -2.86182,-0.74051 -5.75851,-0.6564 -8.63565,0.0512 l 5.94366,-4.52388 z"
         id="path3358"
         style="fill:#003d00;fill-opacity:1;stroke:#003d00;stroke-width:2.05950975;stroke-opacity:1" />
      <path
         d="m 496.48034,419.58125 c 0.36377,3.50205 0.76376,7.0046 1.333,10.48028 0.23245,1.94579 1.27371,3.59551 2.04857,5.34638 0.92701,1.4503 1.24216,2.22738 0.14068,3.63826 -0.04,0.16604 -0.0799,0.3321 -0.11989,0.49814 l -0.38711,0.26853 c -0.35172,0.097 -0.70345,0.19395 -1.05514,0.29093 -2.04756,0.76982 -3.89403,1.18874 -5.20842,-0.91693 -0.99434,-1.73751 -1.8618,-3.56625 -2.15121,-5.56769 -0.47873,-3.50414 -0.69725,-7.03867 -1.28399,-10.52895 l 6.68351,-3.50895 z"
         id="path3360"
         style="fill:#003d00;fill-opacity:1;stroke:#003d00;stroke-width:2.05950975;stroke-opacity:1" />
      <path
         d="m 424.92488,421.81878 c -2.40013,-1.62377 -5.91277,-1.8087 -7.97493,-3.8976 -0.13186,-1.06902 0.84211,-1.7992 1.477,-2.53857 l 0.38498,-0.27157 c 1.5019,-0.68027 3.00097,-1.50026 4.68549,-1.57785 3.21547,0.36365 6.05221,2.17677 9.09115,3.18342 l -7.66369,5.10217 z"
         id="path3362"
         style="fill:#003d00;fill-opacity:1;stroke:#003d00;stroke-width:2.05950975;stroke-opacity:1" />
      <path
         d="m 516.06381,455.08182 c -1.51092,3.7432 -3.20044,7.69377 -2.51013,11.79004 1.78426,3.8139 6.27153,1.85701 9.17601,0.5804 0.75489,-0.4341 3.03835,-1.70191 2.26465,-1.30228 -10.71367,5.53403 -3.97739,2.97125 -1.4508,-2.51313 0.82715,-1.71955 0.0308,-3.72182 0.6527,-5.4761 0.25303,-0.71371 0.67821,-1.35413 1.01731,-2.03122 l 0.39176,-0.26172 c 3.66278,-0.88894 8.325,-2.18388 7.38845,3.41339 -2.68478,7.15765 -10.71661,10.24191 -17.03968,13.49315 -3.58171,1.23775 -7.92042,2.26027 -9.85006,-1.94584 -0.72943,-4.18537 0.65056,-8.23396 2.10879,-12.13892 l 7.851,-3.60777 z"
         id="path3374"
         style="fill:#003d00;fill-opacity:1;stroke:#003d00;stroke-width:2.05950975;stroke-opacity:1" />
      <path
         d="m 516.86533,472.7347 c -0.81925,4.418 -1.87924,8.78428 -2.83709,13.17234 -0.72037,2.4651 -1.35596,4.95336 -2.09317,7.41356 -0.6485,1.73712 -1.04781,3.54946 -1.65378,5.29998 -0.52803,1.339 -1.5766,2.16144 -2.74027,2.92503 l -0.42482,0.20371 c -0.88793,0.25197 -1.82114,0.50526 -1.84992,-0.72189 0.21095,-1.68557 0.67967,-3.30755 0.98353,-4.97474 0.3941,-2.34167 0.73813,-4.69108 1.25195,-7.01197 1.12411,-4.28841 2.19246,-8.61552 2.69599,-13.02703 l 6.66758,-3.27899 z"
         id="path3376"
         style="fill:#003d00;fill-opacity:1;stroke:#003d00;stroke-width:2.05950975;stroke-opacity:1" />
      <path
         d="m 512.43345,479.27266 c 0.33352,0.37538 0.66704,0.75078 1.00056,1.12616 l -0.58746,0.39264 c -0.77179,-0.0806 -1.54356,-0.16117 -2.31535,-0.24177 l 1.90225,-1.27703 z"
         id="path3378"
         style="fill:#003d00;fill-opacity:1;stroke:#003d00;stroke-width:2.05950975;stroke-opacity:1" />
      <path
         d="m 500.57054,474.01128 c 3.52146,1.79934 7.14477,3.3995 11.00513,4.29197 2.77582,0.55393 5.59261,0.94589 8.41656,1.14699 1.60707,0.12727 3.2153,0.0457 4.82462,0.0239 0.79953,0.0871 1.21824,-0.0297 0.42585,0.70198 -1.1551,0.95493 -0.68744,0.55931 -1.41124,1.17701 l -0.36725,0.29513 c -0.9861,0.74332 -0.37196,0.27989 -1.84153,1.39148 -1.27136,0.87009 -2.59017,1.57292 -4.11283,1.89828 -1.87743,0.41013 -3.78715,0.56821 -5.70529,0.35382 -2.82384,-0.28664 -5.63026,-0.73069 -8.4012,-1.354 -3.87582,-1.05712 -7.47604,-2.77828 -11.1249,-4.43345 l 8.29208,-5.49307 z"
         id="path3380"
         style="fill:#003d00;fill-opacity:1;stroke:#003d00;stroke-width:2.05950975;stroke-opacity:1" />
      <path
         d="m 507.67537,494.12473 c -1.08528,1.69825 -3.6738,3.44344 -3.60268,5.6918 1.58508,-0.63021 3.045,-1.5774 4.52328,-2.42732 1.82223,-1.04725 3.74047,-2.05794 5.84843,-2.3262 1.88147,-0.18274 3.35424,0.97902 4.75144,2.07946 0.3105,0.65369 2.94474,1.53388 2.62373,2.4162 -0.12374,0.34012 -0.41849,0.59062 -0.62775,0.88594 -0.5023,0.45431 -1.00463,0.90861 -1.50693,1.36292 l -0.3923,0.26089 c -0.72563,0.35609 -1.45124,0.71216 -2.17685,1.06825 -2.57218,0.82188 -3.18136,0.23036 -5.0953,-1.46792 -1.29236,-0.96868 -2.62771,-1.82217 -4.31793,-1.50096 -2.02275,0.5506 -3.90113,1.43114 -5.68268,2.54085 -1.57859,0.8926 -3.98649,2.86738 -5.56463,1.11716 -0.45072,-2.45142 2.27208,-4.6474 3.54535,-6.44228 l 7.67482,-3.25879 z"
         id="path3382"
         style="fill:#003d00;fill-opacity:1;stroke:#003d00;stroke-width:2.05950975;stroke-opacity:1" />
      <path
         d="m 523.01837,454.45314 c -3.24237,0.69584 -6.51624,1.30581 -9.68341,2.3017 0.72092,-0.63105 -3.42128,1.72241 -2.59031,1.24556 14.09629,-8.08908 8.96394,-5.36022 6.12579,-3.44818 -2.35324,2.06355 -4.99755,3.71171 -7.54588,5.51212 l -0.43429,0.18266 c -0.91261,-1.05957 -2.25801,0.17136 -0.4634,-2.28593 3.26646,-3.59686 8.15355,-5.50583 12.66,-7.1904 3.24916,-0.92515 6.57798,-1.52912 9.86281,-2.31428 l -7.93131,5.99675 z"
         id="path3384"
         style="fill:#003d00;fill-opacity:1;stroke:#003d00;stroke-width:2.05950975;stroke-opacity:1" />
      <path
         d="m 506.23933,328.53833 c -1.87663,0.11709 -3.7563,0.2153 -5.60278,0.58495 -1.77623,0.12963 -7.17421,3.39898 -1.10131,-0.0287 -1.55867,0.93176 -2.73596,2.25538 -3.7708,3.72179 -1.22395,1.95551 -1.9103,4.16293 -2.54014,6.36365 -0.66286,2.56615 -1.08629,5.18581 -1.14633,7.83585 -0.0754,2.40647 0.67179,4.57829 2.03143,6.52964 1.34659,1.73977 3.28977,2.50915 5.35233,3.03121 2.03309,0.39583 4.07616,0.40179 6.10811,0.0336 1.61603,-0.13397 8.27918,-4.03979 2.02184,-0.58265 1.70695,-1.11893 3.0301,-2.63804 4.20256,-4.28402 1.119,-1.60369 1.84386,-3.41269 2.45198,-5.25755 0.36618,-1.44364 0.51817,-2.8906 0.35945,-4.37052 -0.31898,-1.71314 -0.87409,-3.37981 -1.53162,-4.99046 -0.37979,-1.37326 -1.12993,-2.59519 -1.65441,-3.9079 -0.10953,-0.29092 -0.46839,-1.17951 -0.48153,-1.48669 -0.0151,-0.3516 0.14808,-0.69511 0.13691,-1.04686 -0.01,-0.30726 -0.13247,-0.60037 -0.19871,-0.90056 l 0.17906,-0.11332 c 1.5588,0.25743 3.17957,0.0521 4.47365,1.12475 1.11308,1.01664 1.69286,2.34267 2.20353,3.74339 0.57869,1.70361 1.23688,3.39644 1.42472,5.20193 0.14464,1.60076 0.026,3.1959 -0.56853,4.70706 -0.66543,1.96978 -1.62489,3.81969 -2.77419,5.55222 -1.22197,1.71983 -2.61629,3.31421 -4.36545,4.52045 -2.9216,1.74483 -5.78754,3.81966 -9.16893,4.56583 -2.06987,0.32406 -4.16252,0.32414 -6.21211,-0.16782 -2.1768,-0.5376 -4.14105,-1.45328 -5.57542,-3.2448 -1.39592,-2.03921 -2.15957,-4.26565 -2.16794,-6.76116 0.12752,-2.67985 0.4324,-5.34832 1.14129,-7.94384 0.6115,-2.24419 1.28957,-4.49795 2.50927,-6.49842 1.00755,-1.52637 2.18801,-2.90543 3.74914,-3.89465 2.61765,-1.53575 4.92778,-3.25406 7.94079,-3.72688 1.798,-0.21498 3.60379,-0.29662 5.41121,-0.39359 l -2.83707,2.08413 z"
         id="path3386"
         style="fill:#003d00;fill-opacity:1;stroke:#003d00;stroke-width:0.92632508;stroke-opacity:1" />
      <path
         d="m 489.00309,334.79518 c -0.84044,-1.05322 -1.9485,-1.81455 -3.05858,-2.55276 -0.80544,-0.49399 -1.2607,-0.75175 -1.48086,-1.69421 l 0.11082,-0.0748 c 1.19645,-0.11525 2.34243,-0.15174 3.44223,0.42632 1.23075,0.64777 2.37323,1.45461 3.2349,2.56322 l -2.24851,1.33224 z"
         id="path3388"
         style="fill:#003d00;fill-opacity:1;stroke:#003d00;stroke-width:0.58448696;stroke-opacity:1" />
      <path
         d="m 486.00386,351.36134 c -1.97051,0.0626 -3.92511,0.33336 -5.87969,0.57264 -0.78453,-0.032 -0.54023,0.15799 -0.86304,-0.34222 l 0.16832,-0.12873 c 2.0636,-0.97767 1.07102,-0.57596 2.96143,-1.24462 2.11767,-0.54307 4.27082,-0.85846 6.45793,-0.94019 l -2.84495,2.08312 z"
         id="path3390"
         style="fill:#003d00;fill-opacity:1;stroke:#003d00;stroke-width:0.92632508;stroke-opacity:1" />
      <path
         d="m 505.93091,360.51816 c 0.75533,1.30573 2.16351,2.4258 2.63,3.89417 0.76325,2.40246 -0.57817,0.28308 0.7497,2.09584 l -0.17925,0.11301 c -1.63117,-0.74076 -0.72383,-0.41884 -2.74965,-0.8841 -1.50222,-0.62913 -2.39476,-2.2805 -3.4349,-3.42882 l 2.9841,-1.7901 z"
         id="path3392"
         style="fill:#003d00;fill-opacity:1;stroke:#003d00;stroke-width:0.92632508;stroke-opacity:1" />
      <path
         d="m 520.02857,344.90367 c 1.34601,-0.1371 3.46159,-0.62381 4.71276,0.0956 0.17974,0.10335 0.27023,0.31455 0.40534,0.47182 l -0.23677,0.17173 c -2.60612,0.70905 -5.27544,1.00944 -7.90905,1.58466 l 3.02772,-2.32383 z"
         id="path3394"
         style="fill:#003d00;fill-opacity:1;stroke:#003d00;stroke-width:0.92632508;stroke-opacity:1" />
      <path
         d="m 519.17704,355.11304 c 0.64859,0.74727 1.52064,1.38647 1.94784,2.30843 0.15316,0.33056 0.19304,0.70259 0.28956,1.05387 l -0.17863,0.11401 c -2.04213,-0.30661 -2.92033,-0.61312 -4.48283,-1.98325 l 2.42406,-1.49306 z"
         id="path3398"
         style="fill:#003d00;fill-opacity:1;stroke:#003d00;stroke-width:0.92632508;stroke-opacity:1" />
      <path
         d="m 240.69115,411.48105 c 4.74626,-1.94369 9.47666,-3.92857 14.08878,-6.17465 0.0958,-0.0403 1.83834,-0.87478 2.30427,-0.80209 0.12986,0.0203 0.12022,0.23376 0.18033,0.35062 0.24421,-0.0169 0.48843,-0.0339 0.73262,-0.0508 l -0.37144,0.28982 c -2.79848,1.34493 -5.36674,3.09414 -8.16234,4.45085 -4.68663,2.21185 -9.46726,4.20338 -14.2248,6.25597 l 5.45258,-4.3197 z"
         id="path3404"
         style="fill:#003d00;fill-opacity:1;stroke:#003d00;stroke-width:2.05950975;stroke-opacity:1" />
      <path
         d="m 359.97229,395.23777 c 4.19089,-0.51186 9.56126,-3.55952 13.67782,-2.76136 l -0.3725,0.28843 c -6.16561,2.92242 -12.51595,5.4013 -19.18164,6.94501 l 5.87632,-4.47208 z"
         id="path3406"
         style="fill:#003d00;fill-opacity:1;stroke:#003d00;stroke-width:2.05950975;stroke-opacity:1" />
      <path
         d="m 500.30782,325.42275 c 0.22027,-0.32501 0.44053,-0.65003 0.66079,-0.97504 l 0.1199,-0.0592 c 0.16134,0.1383 0.32269,0.2766 0.48404,0.4149 l -1.26473,0.61933 z"
         id="path3286"
         style="fill:#003d00;fill-opacity:1;stroke:#003d00;stroke-width:0.58448696;stroke-miterlimit:4;stroke-opacity:1;stroke-dasharray:none" />
      <path
         d="m 513.79568,332.73984 c 1.62745,-1.33925 3.44366,-2.40616 5.16452,-3.61426 l 0.19663,-0.079 c -0.75437,0.76716 -1.29213,1.68319 -2.13687,2.38327 l -3.22428,1.30998 z"
         id="path3290"
         style="fill:#003d00;fill-opacity:1;stroke:#003d00;stroke-width:0.92632508;stroke-miterlimit:4;stroke-opacity:1;stroke-dasharray:none" />
      <path
         d="m 214.27075,516.60254 c 4.94443,-1.70302 9.64487,-4.01183 14.48019,-5.98738 3.33963,-1.43894 6.91385,-2.13149 10.42642,-2.98786 3.25364,-0.73416 6.45029,-1.67841 9.69592,-2.44869 3.71781,-0.75684 7.51603,-1.03317 11.30408,-1.05902 3.37344,-0.11675 6.71185,0.11194 9.81414,1.49832 2.4487,1.11715 4.00306,3.27271 5.82253,5.13085 2.6957,3.03442 6.68881,2.92152 10.43675,2.85358 6.63529,-0.54928 13.1173,-2.21134 19.52889,-3.9335 2.76013,-0.77973 5.39794,-1.98889 7.90119,-0.0881 1.67731,1.81524 3.08001,3.76302 5.07858,5.25509 3.32423,1.70749 7.13399,1.96809 10.80616,2.11901 3.71688,0.11552 7.41101,0.25565 10.97182,1.39967 1.95393,1.06123 3.63606,2.42447 5.68073,3.32223 4.03822,0.9354 8.21289,0.24963 12.26116,-0.27721 3.86127,-0.4396 7.68762,-1.37622 11.57171,-1.59308 2.87101,0.50767 5.67424,1.11307 8.5914,1.35467 5.74307,0.3027 11.45781,-0.53236 17.13014,-1.32037 3.28707,-0.57891 6.58302,-1.03396 9.91022,-1.28192 2.99553,-0.0901 5.99315,-0.0567 8.99044,-0.076 3.56333,-6e-4 7.08527,0.40963 10.55591,1.19859 3.71934,0.94359 7.5,1.58709 11.26783,2.30205 4.78346,0.7555 9.62077,0.8016 14.45038,0.84588 5.28699,-0.0433 10.57806,-0.15348 15.85743,0.19258 2.49786,0.27863 4.58336,1.53725 6.67041,2.82981 2.88828,1.45633 6.13967,1.81628 9.2939,2.29901 3.56086,0.38879 7.14032,0.52651 10.71767,0.68153 2.84203,-0.01 5.53106,0.48965 8.0771,1.73767 1.77489,1.16058 3.87244,1.29731 5.92354,1.45345 2.74997,-0.10076 5.463,-0.19066 8.19074,0.22736 2.93562,0.73335 5.95502,0.86567 8.9631,0.98975 3.19898,0.42581 6.62073,-0.66572 9.77522,0.0328 -0.0202,1.00134 -1.19618,1.88413 -1.80159,2.65693 l -0.3786,0.28042 c -1.90744,1.01804 -3.76288,2.19409 -5.8119,2.90779 -3.43639,0.61075 -6.98421,0.24366 -10.45662,0.38319 -3.08962,-0.0639 -6.13718,-0.36488 -9.15916,-1.01661 -2.65128,-0.43243 -5.32091,-0.17925 -7.99512,-0.24039 -2.2444,-0.10823 -4.36358,-0.56717 -6.32837,-1.69693 -2.37636,-1.19399 -4.96493,-1.49471 -7.60439,-1.51972 -3.60584,-0.15729 -7.22905,-0.21054 -10.80539,-0.74579 -3.28936,-0.42984 -6.66222,-0.98186 -9.61661,-2.56772 -2.0427,-1.07174 -3.90807,-2.44839 -6.32799,-2.49959 -5.187,-0.52912 -10.40504,-0.18246 -15.60778,-0.26827 -4.90232,0.0182 -9.85462,0.0843 -14.68392,-0.88898 -3.82408,-0.55625 -7.58452,-1.41436 -11.34561,-2.28896 -3.46737,-0.60076 -6.95992,-1.12438 -10.49327,-0.984 -3.00888,-0.0174 -6.02001,-0.0145 -9.02298,0.18748 -3.23504,0.18556 -6.42479,0.75837 -9.63488,1.1748 -5.75954,0.81511 -11.5709,1.45508 -17.39746,1.2196 -2.90152,-0.26006 -5.71525,-1.05119 -8.61631,-1.13932 -3.78485,0.264 -7.51034,1.03253 -11.27685,1.46418 -4.19829,0.55067 -8.66856,1.34486 -12.77862,-0.0573 -2.02683,-0.8632 -3.62376,-2.43486 -5.68787,-3.20612 -3.4364,-1.1959 -7.09744,-1.14164 -10.69784,-1.25429 -3.81828,-0.346 -7.83762,-0.44687 -11.14588,-2.63236 -1.97323,-1.47775 -3.357,-3.42685 -5.05113,-5.18255 -2.32356,-1.17415 -4.83701,0.10652 -7.19558,0.66125 -6.47882,1.66804 -13.02585,3.24091 -19.71469,3.74734 -4.09175,-0.005 -8.2441,-0.19637 -11.08957,-3.53193 -1.42183,-1.96417 -3.12608,-3.75373 -5.30903,-4.8718 -2.99298,-1.17762 -6.13769,-1.39029 -9.33656,-1.30177 -3.78631,0.17709 -7.59499,0.3698 -11.28763,1.30235 -3.22454,0.73835 -6.39315,1.69135 -9.62705,2.39366 -3.43332,0.748 -6.85465,1.58092 -10.10545,2.94418 -4.78738,1.97512 -9.48853,4.1774 -14.4025,5.83169 l 7.6485,-5.93124 z"
         id="path3294"
         style="fill:#003d00;fill-opacity:1;stroke:#003d00;stroke-width:2.05950975;stroke-miterlimit:4;stroke-opacity:1;stroke-dasharray:none" />
      <path
         d="m 282.37711,506.5638 c 2.0754,-5.71123 3.31602,-11.6767 4.76887,-17.56453 0.66291,-2.53465 1.10745,-5.13932 1.86743,-7.647 0.26559,-1.53255 0.97672,-2.84275 1.7832,-4.14543 0.85343,-1.15179 2.01521,-1.93049 3.17757,-2.72955 4.48169,-3.54429 7.99913,-6.20423 13.10977,-5.35947 1.97968,0.44422 3.40142,1.55135 4.72956,3.01431 0.96359,1.34874 2.16902,2.45849 3.08066,3.84551 0.84096,2.25268 0.44161,4.53318 -0.10451,6.80436 -0.93353,3.68289 -1.88965,7.38093 -3.16527,10.96363 -0.99834,2.17557 -3.17228,3.2855 -4.80616,4.93138 l -0.42688,0.1993 c -1.19067,-0.64335 -2.85237,0.49924 -2.59002,-1.4485 1.05094,-3.62432 2.18339,-7.22481 3.14833,-10.87384 0.44545,-1.99437 1.10662,-4.19394 0.32773,-6.18707 -0.68341,-1.45849 -1.99691,-2.46309 -3.04614,-3.65405 -1.20778,-1.41814 -2.74667,-2.22925 -4.64686,-2.25355 -0.97831,-0.0254 -1.86456,0.0128 -2.81408,0.27654 -0.24581,0.0683 -0.94225,0.37867 -0.72522,0.24455 8.51759,-5.26322 9.67899,-6.28003 7.19302,-4.16871 -0.96042,0.73294 -2.0447,1.33186 -2.8636,2.22563 -0.80795,1.03638 -1.34666,2.25172 -1.4985,3.56628 -0.39965,2.61678 -1.52721,5.11797 -1.97567,7.73246 -1.58265,5.86021 -2.98271,11.76611 -4.66751,17.59912 l -9.85572,4.62863 z"
         id="path3298"
         style="fill:#003d00;fill-opacity:1;stroke:#003d00;stroke-width:2.05950975;stroke-miterlimit:4;stroke-opacity:1;stroke-dasharray:none" />
      <path
         d="m 304.23475,405.73003 c 0.32862,2.86004 0.16923,5.9148 0.96995,8.70823 -1.86026,0.68254 -3.62167,1.75045 -5.5808,2.04758 -0.40104,0.0608 0.0673,-0.80869 0.0844,-1.21395 0.0841,-1.98778 0.009,-3.95426 -0.0886,-5.93915 -0.0375,-1.88678 -0.59275,-3.72944 -0.46137,-5.61886 1.14062,-4.74315 7.47582,-3.60338 10.78427,-3.07236 2.05785,0.37718 4.1592,0.67498 6.01583,1.68724 1.72969,1.52045 1.7219,4.01015 1.93281,6.14115 0.12027,3.20718 -0.006,6.4096 0.12185,9.61611 0.11933,1.54828 -0.0235,3.68374 1.06361,4.96974 0.0751,0.10298 0.34028,0.25402 0.22528,0.30897 -7.90203,3.77616 -6.38481,3.55294 -12.30468,0.55534 -0.76241,-0.4261 -2.6957,-1.19286 -2.44876,-2.47286 0.8639,-1.59908 0.68801,-0.88139 0.85117,-2.04682 l 0.40245,-0.24496 c 1.94286,0.19456 -0.78735,0.006 2.91877,-0.44893 1.61828,-0.19867 3.15519,0.34023 4.55243,1.0871 1.32112,0.66313 2.63665,1.32225 3.96231,1.97306 0.34322,0.16849 1.281,0.27759 1.00873,0.54606 -4.16748,4.1089 -7.40887,3.02339 -4.85758,3.78464 0.35299,-1.8021 -0.23635,-3.72259 -0.2063,-5.53459 -0.0249,-3.19286 0.0478,-6.39087 -0.13871,-9.57936 -0.0799,-1.9778 -0.0826,-4.28092 -1.79793,-5.56511 -1.92055,-0.95935 -4.13184,-1.05098 -6.23471,-1.28744 -1.14295,-0.11131 -2.28402,-0.25646 -3.43178,-0.30884 -0.32184,-0.0147 -1.20968,0.18777 -0.96624,-0.0233 2.22173,-1.92599 6.34032,-3.98297 4.21403,-2.91189 -0.18902,1.77828 0.76113,3.67045 0.53712,5.48505 0.0342,0.72781 0.20437,7.09836 10e-4,7.27662 -1.75423,1.54119 -3.87262,2.61019 -5.80892,3.91528 -0.9467,-2.38608 0.16486,-6.49736 -0.7199,-9.02406 L 304.2342,405.73 z"
         id="path3302"
         style="fill:#003d00;fill-opacity:1;stroke:#003d00;stroke-width:2.05950975;stroke-miterlimit:4;stroke-opacity:1;stroke-dasharray:none" />
    </g>
  </g>
</svg>
