<?xml version="1.0" encoding="utf-8"?>
<!-- Generator: Adobe Illustrator 12.0.1, SVG Export Plug-In . SVG Version: 6.00 Build 51448)  -->
<!DOCTYPE svg PUBLIC "-//W3C//DTD SVG 1.1//EN" "http://www.w3.org/Graphics/SVG/1.1/DTD/svg11.dtd" [
	<!ENTITY ns_svg "http://www.w3.org/2000/svg">
	<!ENTITY ns_xlink "http://www.w3.org/1999/xlink">
]>
<svg  version="1.1" id="Layer_1" xmlns="&ns_svg;" xmlns:xlink="&ns_xlink;" width="360.034" height="241"
	 viewBox="0 0 360.034 241" overflow="visible" enable-background="new 0 0 360.034 241" xml:space="preserve">
<path fill-rule="evenodd" clip-rule="evenodd" fill="#D3EBDB" d="M20.101,151.035l-0.965-17.369l55.968-64.653l28.95-3.859
	l34.417,1.286l25.089,0.644l29.593,3.538l16.727,2.896l10.614-3.86l10.937-3.859l10.937-6.434l15.439-1.93l9.971-7.077
	l30.558-15.761l13.7-8.596c0,0,37.443,13.42,42.59,51.697s4.825,21.552,4.825,21.552l-0.965,24.445l-4.825,11.58l-45.354,6.434
	l-5.79,4.181l-10.937,0.322l-13.831,5.146l-11.901,0.644l-3.538,4.181l-17.369,6.112l-5.146-0.965l-6.755,9.649l-27.02,9.649
	l-33.774,3.538l-9.649,9.972l-14.796,16.083l-18.013,6.755l-11.901-1.931l-15.118-6.754l-8.363-4.825l-2.251-0.644l-13.832-4.825
	l-9.649-7.397L20.101,151.035z"/>
<path fill-rule="evenodd" clip-rule="evenodd" fill="#EFF0F0" d="M59.034,114l13.175-36.624l15.118-40.851
	c0,0,5.146-22.516,4.182-24.124S88.034,2,88.034,2s-7.462,0.752-8.427,4.29S73.034,17,73.034,17l-7.901,16.631l-9.971,26.697
	l-5.146,24.446l-4.825,4.824v9.328L38.435,120.8l-2.251,12.866l10.615-7.398L59.034,114z"/>
<g>
	<path fill-rule="evenodd" clip-rule="evenodd" d="M328.034,34c2.545,0.122,3.878,1.455,4,4
		C329.489,37.878,328.156,36.545,328.034,34z"/>
	<path fill-rule="evenodd" clip-rule="evenodd" d="M332.034,38c2.545,0.122,3.878,1.455,4,4
		C333.489,41.878,332.156,40.545,332.034,38z"/>
	<path fill-rule="evenodd" clip-rule="evenodd" fill="#D3EBDB" d="M240.034,76c1.58-2.475,5.373,1.215,5,4
		C242.711,79.323,242.357,76.677,240.034,76z"/>
	<path fill-rule="evenodd" clip-rule="evenodd" d="M84.034,76c3.852,0.148,2.434,5.566,5,7c3.692-0.725-3.119-5.702,2-5
		c-0.657,6.99,3.657,9.01,3,16C90.099,88.602,86.728,82.64,84.034,76z"/>
	<path fill-rule="evenodd" clip-rule="evenodd" d="M350.034,78c3.613-0.947,1.395,3.938,2,6
		C350.288,83.08,349.827,80.874,350.034,78z"/>
	<path fill-rule="evenodd" clip-rule="evenodd" fill="#D3EBDB" d="M71.034,107c-2.928-0.261-3.072,2.261-6,2
		c1.332-5.669,2.34-11.66,4-17C73.034,93.667,70.169,102.198,71.034,107z"/>
	<path fill-rule="evenodd" clip-rule="evenodd" d="M353.034,92c6.347,9.095,2.692,31.252-2,39c-0.981-3.457,2.589-11.7,3-19
		C354.419,105.157,352.381,98.536,353.034,92z"/>
	<path fill-rule="evenodd" clip-rule="evenodd" d="M323.034,100c2.305,2.049-1.629,6.314-2,9
		C318.397,106.619,322.831,102.854,323.034,100z"/>
	<path fill-rule="evenodd" clip-rule="evenodd" d="M59.034,133c2.991,2.528,1.193,7.44,0,11
		C57.418,142.641,60.067,137.091,59.034,133z"/>
	<path fill-rule="evenodd" clip-rule="evenodd" d="M108.034,142c4.258,5.409,9.838,9.495,13,16
		C116.585,152.782,109.716,149.984,108.034,142z"/>
	<path fill-rule="evenodd" clip-rule="evenodd" fill="#EFF0F0" d="M16.034,218c-3.64-4.975,1.984-8.223,4-14
		c4.658-13.35,2.868-32.247,8-43c4.538,0.463,8.202,1.798,13,2c-0.934,4.065-1.615,8.385-3,12
		C24.813,183.446,29.015,209.314,16.034,218z"/>
	<path fill-rule="evenodd" clip-rule="evenodd" fill="#D3EBDB" d="M47.034,168c-0.197,6.913,14.126,12.31,16,22
		c1.642,8.489-2.222,19.795-10,20c-9.459,0.249-9.98-14.358-22-14c0.609-14.725,13.14-17.526,14-32c2.667,0,5.333,0,8,0
		c-1.666,1.334-0.334,5.666-2,7C50.296,169.405,46.139,171.229,47.034,168z"/>
	<path fill-rule="evenodd" clip-rule="evenodd" fill="#EFF0F0" d="M23.034,212c2.713,11.389-5.129,20.864-12,26
		C8.438,225.869,17.799,222.703,23.034,212z"/>
	<path fill-rule="evenodd" clip-rule="evenodd" d="M360.034,123c-2.391,4.942-2.935,11.732-8,14c-15.015,3.274-30.668,1.053-43,5
		c-3.105,0.994-4.908,4.158-8,5c-3.021,0.822-6.657-0.583-10,0c-8.618,1.502-15.091,9.411-24,6c-3.388,6.945-15.467,5.199-20,11
		c-2.823,1.172-4.247,0.198-7-1c-11.142,18.859-39.392,20.608-67,23c-14.89,11.169-19.7,27.491-39,32
		c-19.426,4.538-30.331-9.326-48-16c-10.731-4.053-20.24-5.773-23-15c4.534,13.247,0.817,28.205-11,27
		c-9.099-0.928-12.376-17.012-23-17c-4.421,17.245-3.286,40.048-21,44c1.524-6.191-2.817-6.516-2-12c5.757-7.909,10.473-16.86,10-31
		c-0.515-1.092-6.534,0.733-10,0c-2.404-15.596-6.448-29.552-6-48c8.951-13.867,10.65-26.306,20-40
		c7.107-10.409,22.612-16.005,28-27c2.583-5.271,1.276-11.602,3-17c3.381-10.592,10.902-20.341,10-34
		c11.392-8.274,11.311-28.022,27-32c11.777,19.914-6.021,45.141-9,66c16.902-6.128,36.908,0.188,57,0c25.05-0.234,50.525-0.232,72,6
		c14.135-3.64,25.231-6.803,34-14c2.333,0,4.667,0,7,0c21.705-10.962,43.223-22.11,64-34c4.943,2.404,14.56,5.421,14,10
		c-4.485-3.181-8.973-6.361-15-8c-7.917,7.118-18.661,10.731-29,16c-9.808,4.998-18.967,12.919-29,16
		c-5.968,1.833-13.816-0.184-17,7c5.108-0.411,8.537,6.089,12,4c-1.332-1.002-3.018-1.648-4-3c5.962-0.935,10.077,5.22,9,8
		c-8.173-2.16-13.281-7.385-22-9c-2.869,6.464-15.626,3.041-20,8c5.579,1.71,17.172-0.541,18,3c-26.375-0.961-56.047-11.082-87-10
		c-20.704,0.724-53.308-3.913-67,4c-4.923,12.016-4.105,22.417-4,36c11.565-2.768,18.887-9.779,30-13c2.422-3.578,2.371-9.629,8-10
		c-0.658,2.075-5.733,4.844-3,7c1.584-1.799,5.826-6.107,8-4c-16.012,11.988-36.069,19.931-56,28c4.525-16.225,10.249-31.69,16-48
		c7.031-19.94,17.282-42.065,13-64c-9.885,0.115-7.368,12.632-15,15c-7.956,22.377-18.726,41.941-22,69c-0.627,2.039-5.053,0.28-4,4
		c-2.179,14.491-9.42,29.242-10,42c7.895-5.438,12.953-13.714,22-18c-10.194,13.473-25.806,21.527-40,31
		c1.149,13.206,14.241,15.439,22,16c22.958,1.657,29.997-12.913,43-19c12.423-5.815,27.803-6.761,35-13
		c-1.842,2.491-4.175,4.491-7,6c24.512,18.972,86.233,16.629,106-2c-12.068,13.432-34.588,21.186-58,20
		c2.066,6.934,10.556,7.444,13,14c-9.925-8.408-19.335-17.331-38-17c-1.474,4.498,8.872,5.775,9,12
		c-11.757-8.243-22.897-17.103-37-23c-3.385,3.408-8.638,1.959-13,4c-1.281,0.6-2.961,3.506-4,4c-4.888,2.322-10.017,1.488-14,6
		c-6.881,7.793-10.861,21.216-9,36c7.588,5.924,17.241,11.439,27,13c23.221,3.712,38.308-18.114,54-24
		c-1.422-12.761-16.478-13.137-28-13c10.805-4.121,25.142-0.769,28,9c4.707-0.6,10.349-3.961,14,0c-4.35-0.017-8.997-0.331-12,1
		c0,2.333,0,4.667,0,7c-18.047,5.62-26.301,21.032-46,25c7.756,3.231,15.38,8.544,24,8c6.662-0.42,19.456-5.314,24-9
		c4.007-3.25,5.577-10.281,9-14c3.993-4.339,8.412-4,10-9c0.066-4.764-8.207-6.419-7-9c5.262,0.738,6.687,5.313,10,8
		c36.746-1.587,68.468-8.199,75-40c4.763,7.562,0.57,16.869-6,19c14.447-2.445,18.982-24.32,16-35c4.99,5.371,4.562,9.171,4,16
		c-1.651-0.016-0.56-2.773-2-3c-0.638,7.029-4.412,10.921-6,17c10.021,1.354,8.086-9.248,16-10c-0.406,1.927-3.877,0.79-3,4
		c14.202,1.352,21.386-9.03,34-6c6.215-4.459,12.562-14.095,18-16c-0.856,4.376-11.778,8.57-8,11c14.389-0.944,24.552-6.114,41-5
		c12.888-31.276-1.286-73.256-17-92c14.72,11.947,19.261,34.072,24,56C360.034,106.333,360.034,114.667,360.034,123z M69.034,92
		c-1.66,5.34-2.668,11.331-4,17c2.928,0.261,3.072-2.261,6-2C70.169,102.198,73.034,93.667,69.034,92z M56.034,163
		c-0.244,4.423-2.048,7.285-2,12c3.774,2.892,6.065,7.268,9,11c-0.594-11.671,8.857-23.705,8-29
		C66.663,159.629,62.595,162.561,56.034,163z M51.034,171c1.666-1.334,0.334-5.666,2-7c-2.667,0-5.333,0-8,0
		c-0.86,14.474-13.391,17.275-14,32c12.02-0.358,12.541,14.249,22,14c7.778-0.205,11.642-11.511,10-20
		c-1.874-9.69-16.197-15.087-16-22C46.139,171.229,50.296,169.405,51.034,171z M38.034,175c1.385-3.615,2.066-7.935,3-12
		c-4.798-0.202-8.462-1.537-13-2c-5.132,10.753-3.342,29.65-8,43c-2.016,5.777-7.64,9.025-4,14
		C29.015,209.314,24.813,183.446,38.034,175z M11.034,238c6.871-5.136,14.713-14.611,12-26C17.799,222.703,8.438,225.869,11.034,238
		z M3.034,149c-4.632,14.395,2.656,28.328,4,45c21.016,1.801,10.167-24.038,20-34c-16.489-6.139-7.674-24.459,7-26
		c1.581-15.756,10.088-29.908,10-44C26.97,102.308,10.234,126.627,3.034,149z"/>
	<path fill-rule="evenodd" clip-rule="evenodd" fill="#D3EBDB" d="M71.034,157c0.857,5.295-8.594,17.329-8,29
		c-2.935-3.732-5.226-8.108-9-11c-0.048-4.715,1.756-7.577,2-12C62.595,162.561,66.663,159.629,71.034,157z"/>
	<path fill-rule="evenodd" clip-rule="evenodd" d="M223.034,127c1.07,2.773-2.329,9.644-6,11
		C218.636,133.936,221.311,130.942,223.034,127z"/>
	<path fill-rule="evenodd" clip-rule="evenodd" d="M312.034,30c10.938,2.062,16.283,9.717,22,17c-3.617-1.398-9.333-9.321-14-13
		C316.922,33.112,313.155,32.879,312.034,30z"/>
	<path fill-rule="evenodd" clip-rule="evenodd" d="M238.034,73c6.641,0.692,10.247,4.42,10,12
		C242.751,82.949,240.522,77.846,238.034,73z M245.034,80c0.373-2.785-3.42-6.475-5-4C242.357,76.677,242.711,79.323,245.034,80z"/>
	<path fill-rule="evenodd" clip-rule="evenodd" d="M320.034,118c-5.544,2.122-5.558,9.775-11,12c3.522-6.478,7.117-12.883,10-20
		C321.056,112.31,318.344,114.459,320.034,118z"/>
	<path fill-rule="evenodd" clip-rule="evenodd" d="M119.034,166c-4.961,4.039-13.08,4.92-19,8c0.737-2.263,3.812-2.188,4-5
		c-0.19-0.81-1.003-0.997-1-2c-2.419-1.915-5.909-2.758-8-5c-5.71,0.701-5.71-1.701,0-1c6.088,0.912,10.59,3.41,12,9
		C111.271,168.903,113.322,165.621,119.034,166z"/>
	<path fill-rule="evenodd" clip-rule="evenodd" fill="#D3EBDB" d="M44.034,90c0.088,14.092-8.419,28.244-10,44
		c-14.674,1.541-23.489,19.861-7,26c-9.833,9.962,1.016,35.801-20,34c-1.344-16.672-8.632-30.605-4-45
		C10.234,126.627,26.97,102.308,44.034,90z"/>
</g>
</svg>
