<?xml version="1.0" encoding="UTF-8" standalone="no"?>
<!-- Created with Inkscape (http://www.inkscape.org/) -->
<svg
   xmlns:dc="http://purl.org/dc/elements/1.1/"
   xmlns:cc="http://web.resource.org/cc/"
   xmlns:rdf="http://www.w3.org/1999/02/22-rdf-syntax-ns#"
   xmlns:svg="http://www.w3.org/2000/svg"
   xmlns="http://www.w3.org/2000/svg"
   xmlns:xlink="http://www.w3.org/1999/xlink"
   xmlns:sodipodi="http://sodipodi.sourceforge.net/DTD/sodipodi-0.dtd"
   xmlns:inkscape="http://www.inkscape.org/namespaces/inkscape"
   width="131.61781"
   height="103.91293"
   id="svg2"
   sodipodi:version="0.32"
   inkscape:version="0.45.1"
   sodipodi:docbase="/Users/johnolsen/Desktop"
   sodipodi:docname="tulipan_Pharmaceutical_carton.svg"
   inkscape:output_extension="org.inkscape.output.svg.inkscape"
   version="1.0">
  <defs
     id="defs4">
    <linearGradient
       inkscape:collect="always"
       id="linearGradient3805">
      <stop
         style="stop-color:green;stop-opacity:1;"
         offset="0"
         id="stop3807" />
      <stop
         style="stop-color:green;stop-opacity:0;"
         offset="1"
         id="stop3809" />
    </linearGradient>
    <linearGradient
       id="linearGradient7259">
      <stop
         style="stop-color:#ff0400;stop-opacity:1;"
         offset="0"
         id="stop7261" />
      <stop
         style="stop-color:#ff0400;stop-opacity:0;"
         offset="1"
         id="stop7263" />
    </linearGradient>
    <linearGradient
       inkscape:collect="always"
       xlink:href="#linearGradient3805"
       id="linearGradient3811"
       x1="57.16383"
       y1="273.1871"
       x2="267.87427"
       y2="273.1871"
       gradientUnits="userSpaceOnUse"
       gradientTransform="matrix(0.591008,1.204987e-7,0,0.994589,23.70634,1.250759)" />
  </defs>
  <sodipodi:namedview
     id="base"
     pagecolor="#ffffff"
     bordercolor="#666666"
     borderopacity="1.0"
     inkscape:pageopacity="0.0"
     inkscape:pageshadow="2"
     inkscape:zoom="7.7372467"
     inkscape:cx="65.808907"
     inkscape:cy="51.956467"
     inkscape:document-units="px"
     inkscape:current-layer="layer1"
     inkscape:window-width="1269"
     inkscape:window-height="991"
     inkscape:window-x="0"
     inkscape:window-y="22" />
  <metadata
     id="metadata7">
    <rdf:RDF>
      <cc:Work
         rdf:about="">
        <dc:format>image/svg+xml</dc:format>
        <dc:type
           rdf:resource="http://purl.org/dc/dcmitype/StillImage" />
      </cc:Work>
    </rdf:RDF>
  </metadata>
  <g
     inkscape:label="Livello 1"
     inkscape:groupmode="layer"
     id="layer1"
     transform="translate(-47.296715,-195.35937)">
    <rect
       style="fill:#000000;fill-opacity:1;stroke:#000000;stroke-width:3;stroke-linejoin:round;stroke-miterlimit:4;stroke-dasharray:none;stroke-dashoffset:0;stroke-opacity:1"
       id="rect3683"
       width="4.5798321"
       height="0"
       x="31.093943"
       y="96.502296"
       rx="1.144958"
       ry="0"
       transform="matrix(0,-1,1,0,0,0)" />
    <path
       sodipodi:type="arc"
       style="fill:#000000;fill-opacity:1;stroke:#000000;stroke-width:3;stroke-linejoin:round;stroke-miterlimit:4;stroke-dasharray:none;stroke-dashoffset:0;stroke-opacity:1"
       id="path3685"
       sodipodi:cx="346.63602"
       sodipodi:cy="127.23613"
       sodipodi:rx="3.7211134"
       sodipodi:ry="0"
       d="M 346.59751,127.23613 A 3.7211134,0 0 0 1 346.5965,127.23613 L 346.63602,127.23613 z"
       sodipodi:start="1.5811449"
       sodipodi:end="4.7017687"
       transform="matrix(0,-1,1,0,26.51426,369.0691)" />
    <rect
       style="fill:url(#linearGradient3811);fill-opacity:1;stroke:#000000;stroke-width:0.79829264;stroke-linecap:round;stroke-linejoin:round;stroke-miterlimit:4;stroke-dasharray:none;stroke-dashoffset:0;stroke-opacity:1"
       id="rect2013"
       width="123.91622"
       height="73.418098"
       x="57.798317"
       y="236.2504"
       transform="matrix(0.982414,-0.186715,0,1,0,0)" />
    <rect
       style="fill:#f9f9f9;fill-opacity:1;stroke:#000000;stroke-width:0.47744066;stroke-linecap:round;stroke-linejoin:round;stroke-miterlimit:4;stroke-dasharray:none;stroke-dashoffset:0;stroke-opacity:1"
       id="rect2902"
       width="123.00462"
       height="26.456015"
       x="58.510906"
       y="237.18823"
       transform="matrix(0.981591,-0.190997,0,1,0,0)" />
    <path
       transform="matrix(1,-0.217439,0,1,0,0)"
       style="font-size:12px;font-style:normal;font-weight:normal;fill:#000000;fill-opacity:1;stroke:none;stroke-width:1px;stroke-linecap:butt;stroke-linejoin:miter;stroke-opacity:1;font-family:Bitstream Vera Sans"
       d="M 64.15358,246.57722 L 65.917252,246.57722 L 68.149673,252.53035 L 70.393814,246.57722 L 72.157486,246.57722 L 72.157486,255.32527 L 71.003189,255.32527 L 71.003189,247.64363 L 68.74733,253.64363 L 67.557877,253.64363 L 65.302017,247.64363 L 65.302017,255.32527 L 64.15358,255.32527 L 64.15358,246.57722 M 80.055923,251.77449 L 80.055923,252.30183 L 75.098892,252.30183 C 75.145765,253.04402 75.368421,253.61043 75.766861,254.00105 C 76.169202,254.38777 76.727795,254.58113 77.442642,254.58113 C 77.8567,254.58113 78.25709,254.53035 78.643814,254.42879 C 79.034433,254.32723 79.421152,254.17488 79.80397,253.97176 L 79.80397,254.99129 C 79.417245,255.15535 79.020762,255.28035 78.614517,255.36629 C 78.208262,255.45222 77.796153,255.49519 77.378189,255.49519 C 76.331311,255.49519 75.501234,255.19051 74.887955,254.58113 C 74.278579,253.97176 73.973892,253.14754 73.973892,252.10847 C 73.973892,251.03426 74.262954,250.1827 74.84108,249.55379 C 75.423109,248.92098 76.206311,248.60458 77.190689,248.60457 C 78.073497,248.60458 78.770762,248.88973 79.282486,249.46004 C 79.798104,250.02645 80.055917,250.79793 80.055923,251.77449 M 78.977798,251.45808 C 78.96998,250.86824 78.803965,250.39754 78.479752,250.04597 C 78.159434,249.69442 77.733653,249.51864 77.202408,249.51863 C 76.600842,249.51864 76.118421,249.68856 75.755142,250.0284 C 75.395765,250.36825 75.188734,250.84676 75.134048,251.46394 L 78.977798,251.45808 M 86.120377,249.75887 L 86.120377,246.20808 L 87.198502,246.20808 L 87.198502,255.32527 L 86.120377,255.32527 L 86.120377,254.3409 C 85.893809,254.73152 85.6067,255.02254 85.259048,255.21394 C 84.915294,255.40144 84.501232,255.49519 84.016861,255.49519 C 83.22389,255.49519 82.577406,255.17879 82.077408,254.54597 C 81.581313,253.91316 81.333267,253.08113 81.333267,252.04988 C 81.333267,251.01864 81.581313,250.1866 82.077408,249.55379 C 82.577406,248.92098 83.22389,248.60458 84.016861,248.60457 C 84.501232,248.60458 84.915294,248.70028 85.259048,248.89168 C 85.6067,249.07918 85.893809,249.36825 86.120377,249.75887 M 82.446548,252.04988 C 82.446547,252.84285 82.608656,253.4659 82.932877,253.91902 C 83.260999,254.36824 83.710217,254.59285 84.280533,254.59285 C 84.850841,254.59285 85.300059,254.36824 85.628189,253.91902 C 85.956309,253.4659 86.120371,252.84285 86.120377,252.04988 C 86.120371,251.25692 85.956309,250.63582 85.628189,250.1866 C 85.300059,249.73348 84.850841,249.50692 84.280533,249.50691 C 83.710217,249.50692 83.260999,249.73348 82.932877,250.1866 C 82.608656,250.63582 82.446547,251.25692 82.446548,252.04988 M 89.419205,248.76277 L 90.49733,248.76277 L 90.49733,255.32527 L 89.419205,255.32527 L 89.419205,248.76277 M 89.419205,246.20808 L 90.49733,246.20808 L 90.49733,247.57332 L 89.419205,247.57332 L 89.419205,246.20808 M 97.469986,249.01472 L 97.469986,250.02254 C 97.165293,249.85457 96.858653,249.72957 96.550064,249.64754 C 96.245372,249.56161 95.936779,249.51864 95.624283,249.51863 C 94.925061,249.51864 94.382093,249.74129 93.995377,250.1866 C 93.608656,250.62801 93.415297,251.2491 93.415298,252.04988 C 93.415297,252.85066 93.608656,253.47371 93.995377,253.91902 C 94.382093,254.36043 94.925061,254.58113 95.624283,254.58113 C 95.936779,254.58113 96.245372,254.54012 96.550064,254.45808 C 96.858653,254.37215 97.165293,254.24519 97.469986,254.07722 L 97.469986,255.07332 C 97.169199,255.21394 96.856699,255.31941 96.532486,255.38972 C 96.212169,255.46004 95.870372,255.49519 95.507095,255.49519 C 94.518811,255.49519 93.733656,255.18465 93.151627,254.56355 C 92.569594,253.94246 92.278579,253.10457 92.27858,252.04988 C 92.278579,250.97957 92.571548,250.13778 93.157486,249.52449 C 93.747328,248.91122 94.553967,248.60458 95.577408,248.60457 C 95.909435,248.60458 96.233653,248.63973 96.550064,248.71004 C 96.866465,248.77645 97.173105,248.87801 97.469986,249.01472 M 99.356705,248.76277 L 100.43483,248.76277 L 100.43483,255.32527 L 99.356705,255.32527 L 99.356705,248.76277 M 99.356705,246.20808 L 100.43483,246.20808 L 100.43483,247.57332 L 99.356705,247.57332 L 99.356705,246.20808 M 108.13991,251.36433 L 108.13991,255.32527 L 107.06178,255.32527 L 107.06178,251.39949 C 107.06178,250.7784 106.94068,250.31356 106.6985,250.00496 C 106.45631,249.69637 106.09303,249.54207 105.60866,249.54207 C 105.02662,249.54207 104.56764,249.72762 104.2317,250.09871 C 103.89576,250.46981 103.7278,250.97567 103.7278,251.61629 L 103.7278,255.32527 L 102.64381,255.32527 L 102.64381,248.76277 L 103.7278,248.76277 L 103.7278,249.7823 C 103.98561,249.38778 104.28834,249.09286 104.636,248.89754 C 104.98756,248.70223 105.39186,248.60458 105.84889,248.60457 C 106.60279,248.60458 107.17311,248.83895 107.55983,249.30769 C 107.94654,249.77254 108.1399,250.45809 108.13991,251.36433 M 115.9153,251.77449 L 115.9153,252.30183 L 110.95827,252.30183 C 111.00514,253.04402 111.2278,253.61043 111.62624,254.00105 C 112.02858,254.38777 112.58717,254.58113 113.30202,254.58113 C 113.71608,254.58113 114.11647,254.53035 114.50319,254.42879 C 114.89381,254.32723 115.28053,254.17488 115.66335,253.97176 L 115.66335,254.99129 C 115.27662,255.15535 114.88014,255.28035 114.47389,255.36629 C 114.06764,255.45222 113.65553,255.49519 113.23756,255.49519 C 112.19069,255.49519 111.36061,255.19051 110.74733,254.58113 C 110.13795,253.97176 109.83327,253.14754 109.83327,252.10847 C 109.83327,251.03426 110.12233,250.1827 110.70045,249.55379 C 111.28248,248.92098 112.06569,248.60458 113.05006,248.60457 C 113.93287,248.60458 114.63014,248.88973 115.14186,249.46004 C 115.65748,250.02645 115.91529,250.79793 115.9153,251.77449 M 114.83717,251.45808 C 114.82936,250.86824 114.66334,250.39754 114.33913,250.04597 C 114.01881,249.69442 113.59303,249.51864 113.06178,249.51863 C 112.46022,249.51864 111.9778,249.68856 111.61452,250.0284 C 111.25514,250.36825 111.04811,250.84676 110.99342,251.46394 L 114.83717,251.45808"
       id="text3793" />
    <rect
       style="fill:#008000;fill-opacity:1;stroke:#000000;stroke-width:1.02849543;stroke-linecap:round;stroke-linejoin:round;stroke-miterlimit:4;stroke-dasharray:none;stroke-dashoffset:0;stroke-opacity:1"
       id="rect3825"
       width="10.974214"
       height="73.567719"
       x="62.120647"
       y="179.21657"
       transform="matrix(0.777116,0.629358,-1.913843e-3,0.999998,0,0)" />
    <rect
       style="fill:#ffffff;fill-opacity:1;stroke:#000000;stroke-width:1.28307331;stroke-linecap:round;stroke-linejoin:round;stroke-miterlimit:4;stroke-dasharray:none;stroke-dashoffset:0;stroke-opacity:1"
       id="rect3829"
       width="123.70101"
       height="11.04555"
       x="-195.92871"
       y="301.9726"
       transform="matrix(0.98305,-0.18334,0.796286,0.60492,0,0)" />
    <path
       style="fill:#ff0000;fill-rule:evenodd;stroke:#ff1700;stroke-width:0.5;stroke-linecap:butt;stroke-linejoin:round;stroke-miterlimit:4;stroke-dasharray:none;stroke-opacity:1"
       d="M 62.380618,244.54724 L 165.7094,223.81849"
       id="path3833"
       inkscape:connector-type="polyline" />
    <path
       transform="matrix(-1.561127e-2,-0.876148,1.157574,0.909993,0,0)"
       style="font-size:3.09905958px;font-style:normal;font-weight:normal;fill:#ffffff;fill-opacity:1;stroke:none;stroke-width:1px;stroke-linecap:butt;stroke-linejoin:miter;stroke-opacity:1;font-family:Bitstream Vera Sans"
       d="M -291.91623,41.493181 L -291.60904,41.493181 L -291.60904,42.865664 C -291.60904,43.107779 -291.56516,43.282303 -291.47739,43.389236 C -291.38963,43.495161 -291.24739,43.548124 -291.05067,43.548123 C -290.85496,43.548124 -290.71322,43.495161 -290.62546,43.389236 C -290.53769,43.282303 -290.49381,43.107779 -290.49381,42.865664 L -290.49381,41.493181 L -290.18662,41.493181 L -290.18662,42.903495 C -290.18663,43.198067 -290.25976,43.420509 -290.40604,43.570822 C -290.55131,43.721134 -290.76619,43.79629 -291.05067,43.79629 C -291.33616,43.79629 -291.55205,43.721134 -291.69832,43.570822 C -291.84359,43.420509 -291.91623,43.198067 -291.91623,42.903495 L -291.91623,41.493181 M -288.54327,42.107545 L -288.54327,42.370844 C -288.62196,42.330493 -288.70368,42.300229 -288.78841,42.280051 C -288.87316,42.259876 -288.96092,42.249788 -289.05171,42.249787 C -289.18992,42.249788 -289.29383,42.270973 -289.36344,42.313342 C -289.43204,42.355713 -289.46633,42.419268 -289.46633,42.504007 C -289.46633,42.568572 -289.44162,42.619516 -289.39219,42.656841 C -289.34276,42.693159 -289.24339,42.727963 -289.09408,42.761253 L -288.99875,42.782438 C -288.80103,42.824809 -288.6608,42.884833 -288.57808,42.96251 C -288.49435,43.03918 -288.45248,43.146618 -288.45248,43.284824 C -288.45248,43.442199 -288.51503,43.566787 -288.64012,43.658588 C -288.7642,43.750389 -288.9352,43.79629 -289.1531,43.79629 C -289.24389,43.79629 -289.33872,43.787211 -289.43758,43.769052 C -289.53544,43.751903 -289.63884,43.725674 -289.74779,43.690365 L -289.74779,43.402855 C -289.64489,43.456322 -289.54351,43.496674 -289.44364,43.523912 C -289.34376,43.550141 -289.2449,43.563256 -289.14705,43.563255 C -289.0159,43.563256 -288.91502,43.541062 -288.8444,43.496674 C -288.77379,43.451278 -288.73848,43.387723 -288.73848,43.306009 C -288.73848,43.230349 -288.7642,43.172343 -288.81565,43.13199 C -288.86609,43.091638 -288.97757,43.052799 -289.15007,43.015472 L -289.24692,42.992774 C -289.41943,42.956458 -289.54401,42.900974 -289.62068,42.826321 C -289.69735,42.750661 -289.73569,42.647259 -289.73569,42.516112 C -289.73569,42.356722 -289.67919,42.233647 -289.56621,42.146888 C -289.45322,42.060133 -289.29282,42.016754 -289.085,42.016752 C -288.98211,42.016754 -288.88526,42.02432 -288.79447,42.03945 C -288.70368,42.054584 -288.61995,42.077282 -288.54327,42.107545 M -286.56399,42.8354 L -286.56399,42.971589 L -287.84417,42.971589 C -287.83206,43.163264 -287.77456,43.309541 -287.67166,43.410421 C -287.56776,43.510293 -287.4235,43.560229 -287.23889,43.560229 C -287.13195,43.560229 -287.02855,43.547115 -286.92868,43.520886 C -286.8278,43.494657 -286.72793,43.455313 -286.62906,43.402855 L -286.62906,43.666154 C -286.72893,43.708524 -286.83133,43.740806 -286.93624,43.763 C -287.04116,43.785193 -287.14759,43.79629 -287.25553,43.79629 C -287.52589,43.79629 -287.74026,43.717603 -287.89865,43.560229 C -288.05602,43.402855 -288.13471,43.189997 -288.13471,42.921653 C -288.13471,42.644232 -288.06006,42.424312 -287.91075,42.261893 C -287.76044,42.098467 -287.55817,42.016754 -287.30395,42.016752 C -287.07596,42.016754 -286.89589,42.090397 -286.76374,42.237681 C -286.63058,42.38396 -286.56399,42.583199 -286.56399,42.8354 M -286.84242,42.753687 C -286.84444,42.601358 -286.88732,42.479796 -286.97105,42.389002 C -287.05377,42.298211 -287.16373,42.252815 -287.30093,42.252813 C -287.45628,42.252815 -287.58087,42.296698 -287.67469,42.384463 C -287.7675,42.47223 -287.82097,42.595809 -287.83509,42.7552 L -286.84242,42.753687 M -283.90982,42.906521 C -283.90982,42.701734 -283.95219,42.541334 -284.03693,42.42532 C -284.12066,42.308299 -284.23617,42.249788 -284.38345,42.249787 C -284.53074,42.249788 -284.64675,42.308299 -284.73149,42.42532 C -284.81522,42.541334 -284.85709,42.701734 -284.85709,42.906521 C -284.85709,43.11131 -284.81522,43.272215 -284.73149,43.389236 C -284.64675,43.505249 -284.53074,43.563256 -284.38345,43.563255 C -284.23617,43.563256 -284.12066,43.505249 -284.03693,43.389236 C -283.95219,43.272215 -283.90982,43.11131 -283.90982,42.906521 M -284.85709,42.314855 C -284.79858,42.213976 -284.72494,42.139324 -284.63616,42.0909 C -284.54638,42.04147 -284.43944,42.016754 -284.31536,42.016752 C -284.10956,42.016754 -283.94261,42.098467 -283.81448,42.261893 C -283.68536,42.425321 -283.6208,42.640197 -283.62079,42.906521 C -283.6208,43.172847 -283.68536,43.387723 -283.81448,43.55115 C -283.94261,43.714577 -284.10956,43.79629 -284.31536,43.79629 C -284.43944,43.79629 -284.54638,43.772079 -284.63616,43.723656 C -284.72494,43.674224 -284.79858,43.599068 -284.85709,43.498187 L -284.85709,43.752407 L -285.13703,43.752407 L -285.13703,41.397848 L -284.85709,41.397848 L -284.85709,42.314855 M -281.70961,42.8354 L -281.70961,42.971589 L -282.98978,42.971589 C -282.97768,43.163264 -282.92018,43.309541 -282.81728,43.410421 C -282.71337,43.510293 -282.56911,43.560229 -282.3845,43.560229 C -282.27757,43.560229 -282.17416,43.547115 -282.07429,43.520886 C -281.97341,43.494657 -281.87354,43.455313 -281.77467,43.402855 L -281.77467,43.666154 C -281.87455,43.708524 -281.97694,43.740806 -282.08186,43.763 C -282.18677,43.785193 -282.2932,43.79629 -282.40114,43.79629 C -282.67151,43.79629 -282.88588,43.717603 -283.04426,43.560229 C -283.20163,43.402855 -283.28032,43.189997 -283.28032,42.921653 C -283.28032,42.644232 -283.20567,42.424312 -283.05637,42.261893 C -282.90605,42.098467 -282.70379,42.016754 -282.44957,42.016752 C -282.22158,42.016754 -282.04151,42.090397 -281.90935,42.237681 C -281.77619,42.38396 -281.70961,42.583199 -281.70961,42.8354 M -281.98804,42.753687 C -281.99006,42.601358 -282.03293,42.479796 -282.11666,42.389002 C -282.19938,42.298211 -282.30934,42.252815 -282.44654,42.252813 C -282.6019,42.252815 -282.72649,42.296698 -282.8203,42.384463 C -282.91312,42.47223 -282.96658,42.595809 -282.9807,42.7552 L -281.98804,42.753687 M -280.40068,41.397848 L -280.40068,41.62937 L -280.667,41.62937 C -280.76687,41.629372 -280.83648,41.649548 -280.87583,41.689898 C -280.91416,41.730253 -280.93333,41.802887 -280.93333,41.907801 L -280.93333,42.057609 L -280.47482,42.057609 L -280.47482,42.273998 L -280.93333,42.273998 L -280.93333,43.752407 L -281.21327,43.752407 L -281.21327,42.273998 L -281.4796,42.273998 L -281.4796,42.057609 L -281.21327,42.057609 L -281.21327,41.939578 C -281.21327,41.750933 -281.16939,41.613735 -281.08162,41.527984 C -280.99386,41.441229 -280.85464,41.39785 -280.66398,41.397848 L -280.40068,41.397848 M -279.51242,42.252813 C -279.66173,42.252815 -279.77976,42.311326 -279.86651,42.428346 C -279.95327,42.54436 -279.99665,42.703752 -279.99665,42.906521 C -279.99665,43.109292 -279.95378,43.269188 -279.86803,43.38621 C -279.78127,43.502223 -279.66273,43.560229 -279.51242,43.560229 C -279.36413,43.560229 -279.2466,43.501718 -279.15984,43.384696 C -279.07309,43.267675 -279.02971,43.108284 -279.02971,42.906521 C -279.02971,42.705769 -279.07309,42.546882 -279.15984,42.429859 C -279.2466,42.31183 -279.36413,42.252815 -279.51242,42.252813 M -279.51242,42.016752 C -279.27031,42.016754 -279.08015,42.095441 -278.94194,42.252813 C -278.80373,42.410189 -278.73463,42.628091 -278.73463,42.906521 C -278.73463,43.183944 -278.80373,43.401846 -278.94194,43.560229 C -279.08015,43.717603 -279.27031,43.79629 -279.51242,43.79629 C -279.75554,43.79629 -279.94621,43.717603 -280.08442,43.560229 C -280.22161,43.401846 -280.29021,43.183944 -280.29021,42.906521 C -280.29021,42.628091 -280.22161,42.410189 -280.08442,42.252813 C -279.94621,42.095441 -279.75554,42.016754 -279.51242,42.016752 M -277.29254,42.317881 C -277.32381,42.299724 -277.35811,42.28661 -277.39544,42.278538 C -277.43175,42.26946 -277.47211,42.26492 -277.51649,42.264919 C -277.67387,42.26492 -277.79493,42.31637 -277.87966,42.419267 C -277.9634,42.521158 -278.00526,42.667939 -278.00526,42.859612 L -278.00526,43.752407 L -278.28521,43.752407 L -278.28521,42.057609 L -278.00526,42.057609 L -278.00526,42.320908 C -277.94675,42.218011 -277.87059,42.141846 -277.77677,42.092413 C -277.68295,42.041974 -277.56895,42.016754 -277.43478,42.016752 C -277.41561,42.016754 -277.39443,42.018267 -277.37122,42.021292 C -277.34802,42.023311 -277.3223,42.026842 -277.29405,42.031884 L -277.29254,42.317881 M -275.62044,42.8354 L -275.62044,42.971589 L -276.90062,42.971589 C -276.88851,43.163264 -276.83101,43.309541 -276.72811,43.410421 C -276.6242,43.510293 -276.47994,43.560229 -276.29533,43.560229 C -276.1884,43.560229 -276.085,43.547115 -275.98512,43.520886 C -275.88424,43.494657 -275.78437,43.455313 -275.68551,43.402855 L -275.68551,43.666154 C -275.78538,43.708524 -275.88777,43.740806 -275.99269,43.763 C -276.09761,43.785193 -276.20403,43.79629 -276.31198,43.79629 C -276.58234,43.79629 -276.79671,43.717603 -276.95509,43.560229 C -277.11247,43.402855 -277.19115,43.189997 -277.19115,42.921653 C -277.19115,42.644232 -277.1165,42.424312 -276.9672,42.261893 C -276.81688,42.098467 -276.61462,42.016754 -276.3604,42.016752 C -276.13241,42.016754 -275.95234,42.090397 -275.82018,42.237681 C -275.68702,42.38396 -275.62044,42.583199 -275.62044,42.8354 M -275.89887,42.753687 C -275.90089,42.601358 -275.94376,42.479796 -276.02749,42.389002 C -276.11022,42.298211 -276.22018,42.252815 -276.35737,42.252813 C -276.51273,42.252815 -276.63732,42.296698 -276.73114,42.384463 C -276.82395,42.47223 -276.87741,42.595809 -276.89154,42.7552 L -275.89887,42.753687 M -275.09838,43.368051 L -274.77909,43.368051 L -274.77909,43.752407 L -275.09838,43.752407 L -275.09838,43.368051 M -275.09838,42.149915 L -274.77909,42.149915 L -274.77909,42.534271 L -275.09838,42.534271 L -275.09838,42.149915 M -273.12364,41.493181 L -272.71204,41.493181 L -271.7103,43.383183 L -271.7103,41.493181 L -271.41371,41.493181 L -271.41371,43.752407 L -271.8253,43.752407 L -272.82705,41.862404 L -272.82705,43.752407 L -273.12364,43.752407 L -273.12364,41.493181 M -269.88839,41.700491 C -270.11033,41.700493 -270.28687,41.783215 -270.41801,41.948658 C -270.54815,42.114104 -270.61322,42.339572 -270.61322,42.625064 C -270.61322,42.909548 -270.54815,43.134513 -270.41801,43.299956 C -270.28687,43.465401 -270.11033,43.548124 -269.88839,43.548123 C -269.66645,43.548124 -269.49092,43.465401 -269.36179,43.299956 C -269.23166,43.134513 -269.16659,42.909548 -269.16659,42.625064 C -269.16659,42.339572 -269.23166,42.114104 -269.36179,41.948658 C -269.49092,41.783215 -269.66645,41.700493 -269.88839,41.700491 M -269.88839,41.452324 C -269.57162,41.452326 -269.31841,41.558755 -269.12876,41.771612 C -268.9391,41.983463 -268.84427,42.267947 -268.84427,42.625064 C -268.84427,42.981174 -268.9391,43.265657 -269.12876,43.478516 C -269.31841,43.690365 -269.57162,43.79629 -269.88839,43.79629 C -270.20616,43.79629 -270.46038,43.690365 -270.65105,43.478516 C -270.8407,43.266666 -270.93553,42.982183 -270.93553,42.625064 C -270.93553,42.267947 -270.8407,41.983463 -270.65105,41.771612 C -270.46038,41.558755 -270.20616,41.452326 -269.88839,41.452324 M -267.83798,43.752407 L -268.70052,41.493181 L -268.38123,41.493181 L -267.66548,43.395289 L -266.94822,41.493181 L -266.63044,41.493181 L -267.49146,43.752407 L -267.83798,43.752407 M -265.02492,43.495161 L -263.95811,43.495161 L -263.95811,43.752407 L -265.39263,43.752407 L -265.39263,43.495161 C -265.27662,43.375113 -265.11874,43.214208 -264.919,43.012446 C -264.71825,42.809677 -264.59215,42.679036 -264.54069,42.620524 C -264.44284,42.510565 -264.37475,42.417755 -264.33641,42.342093 C -264.29707,42.265425 -264.2774,42.190269 -264.2774,42.116624 C -264.2774,41.996578 -264.31977,41.898723 -264.40451,41.823061 C -264.48824,41.747402 -264.59769,41.709572 -264.73287,41.70957 C -264.82871,41.709572 -264.9301,41.726217 -265.03703,41.759506 C -265.14295,41.792799 -265.25644,41.843239 -265.3775,41.910827 L -265.3775,41.602132 C -265.25443,41.552702 -265.13942,41.515377 -265.03249,41.490154 C -264.92556,41.464936 -264.8277,41.452326 -264.73893,41.452324 C -264.50488,41.452326 -264.31825,41.510837 -264.17904,41.627856 C -264.03982,41.74488 -263.97022,41.901245 -263.97021,42.096952 C -263.97022,42.189764 -263.98787,42.278035 -264.02318,42.361765 C -264.05748,42.444488 -264.12053,42.542343 -264.21233,42.655328 C -264.23755,42.684584 -264.31775,42.769324 -264.45293,42.909548 C -264.58811,43.048764 -264.77877,43.243968 -265.02492,43.495161 M -262.66734,41.694438 C -262.82471,41.69444 -262.94325,41.772118 -263.02294,41.927473 C -263.10163,42.081822 -263.14097,42.314352 -263.14097,42.625064 C -263.14097,42.934769 -263.10163,43.167299 -263.02294,43.322655 C -262.94325,43.477003 -262.82471,43.554176 -262.66734,43.554176 C -262.50896,43.554176 -262.39042,43.477003 -262.31173,43.322655 C -262.23204,43.167299 -262.19219,42.934769 -262.19219,42.625064 C -262.19219,42.314352 -262.23204,42.081822 -262.31173,41.927473 C -262.39042,41.772118 -262.50896,41.69444 -262.66734,41.694438 M -262.66734,41.452324 C -262.41413,41.452326 -262.22094,41.552702 -262.08778,41.753453 C -261.95361,41.953199 -261.88652,42.243736 -261.88652,42.625064 C -261.88652,43.005385 -261.95361,43.295922 -262.08778,43.496674 C -262.22094,43.696418 -262.41413,43.79629 -262.66734,43.79629 C -262.92055,43.79629 -263.11424,43.696418 -263.24841,43.496674 C -263.38157,43.295922 -263.44816,43.005385 -263.44816,42.625064 C -263.44816,42.243736 -263.38157,41.953199 -263.24841,41.753453 C -263.11424,41.552702 -262.92055,41.452326 -262.66734,41.452324 M -260.69411,41.694438 C -260.85148,41.69444 -260.97002,41.772118 -261.04971,41.927473 C -261.1284,42.081822 -261.16774,42.314352 -261.16774,42.625064 C -261.16774,42.934769 -261.1284,43.167299 -261.04971,43.322655 C -260.97002,43.477003 -260.85148,43.554176 -260.69411,43.554176 C -260.53573,43.554176 -260.41719,43.477003 -260.3385,43.322655 C -260.25881,43.167299 -260.21896,42.934769 -260.21896,42.625064 C -260.21896,42.314352 -260.25881,42.081822 -260.3385,41.927473 C -260.41719,41.772118 -260.53573,41.69444 -260.69411,41.694438 M -260.69411,41.452324 C -260.4409,41.452326 -260.24771,41.552702 -260.11455,41.753453 C -259.98038,41.953199 -259.91329,42.243736 -259.91329,42.625064 C -259.91329,43.005385 -259.98038,43.295922 -260.11455,43.496674 C -260.24771,43.696418 -260.4409,43.79629 -260.69411,43.79629 C -260.94732,43.79629 -261.14101,43.696418 -261.27518,43.496674 C -261.40834,43.295922 -261.47493,43.005385 -261.47493,42.625064 C -261.47493,42.243736 -261.40834,41.953199 -261.27518,41.753453 C -261.14101,41.552702 -260.94732,41.452326 -260.69411,41.452324 M -258.68305,42.50098 C -258.82025,42.500981 -258.9292,42.547891 -259.0099,42.641709 C -259.0896,42.735529 -259.12945,42.864152 -259.12945,43.027578 C -259.12945,43.189997 -259.0896,43.31862 -259.0099,43.413447 C -258.9292,43.507267 -258.82025,43.554176 -258.68305,43.554176 C -258.54585,43.554176 -258.43741,43.507267 -258.35771,43.413447 C -258.27701,43.31862 -258.23665,43.189997 -258.23665,43.027578 C -258.23665,42.864152 -258.27701,42.735529 -258.35771,42.641709 C -258.43741,42.547891 -258.54585,42.500981 -258.68305,42.50098 M -258.07625,41.543117 L -258.07625,41.821548 C -258.15292,41.785233 -258.2306,41.75749 -258.30929,41.738321 C -258.38697,41.719156 -258.46414,41.709572 -258.54081,41.70957 C -258.74257,41.709572 -258.89692,41.777666 -259.00385,41.913854 C -259.10978,42.050045 -259.17031,42.255841 -259.18544,42.531244 C -259.12592,42.443479 -259.05127,42.376394 -258.96148,42.329987 C -258.8717,42.282575 -258.77284,42.258868 -258.66489,42.258866 C -258.43791,42.258868 -258.25885,42.327971 -258.1277,42.466176 C -257.99555,42.603375 -257.92947,42.790509 -257.92947,43.027578 C -257.92947,43.259605 -257.99807,43.44573 -258.13527,43.585954 C -258.27247,43.726178 -258.45506,43.79629 -258.68305,43.79629 C -258.94433,43.79629 -259.14408,43.696418 -259.28228,43.496674 C -259.42049,43.295922 -259.48959,43.005385 -259.48959,42.625064 C -259.48959,42.267947 -259.40485,41.983463 -259.23537,41.771612 C -259.06589,41.558755 -258.83841,41.452326 -258.55291,41.452324 C -258.47625,41.452326 -258.39907,41.459892 -258.32139,41.475022 C -258.24271,41.490156 -258.16099,41.512855 -258.07625,41.543117"
       id="text4720" />
  </g>
</svg>
