<?xml version="1.0" encoding="iso-8859-1"?>
<svg version="1.1" id="Capa_1" xmlns="http://www.w3.org/2000/svg" xmlns:xlink="http://www.w3.org/1999/xlink" x="0px" y="0px"
	 viewBox="0 0 97 97" style="enable-background:new 0 0 97 97;" xml:space="preserve">
<g>
	<polygon style="fill:#FFFFFF;" points="49.728,48.124 96,25.055 95.841,72.932 49.569,96 	"/>
	<polygon style="fill:#FFFFFF;" points="1.159,24.068 47.431,1 96,25.055 49.728,48.124 	"/>
	<polygon style="fill:#FFFFFF;" points="49.728,48.124 49.569,96 1,71.946 1.159,24.068 	"/>
	<linearGradient id="SVGID_1_" gradientUnits="userSpaceOnUse" x1="24.5777" y1="91.5885" x2="60.6441" y2="68.3501">
		<stop  offset="0" style="stop-color:#FFFFFF"/>
		<stop  offset="0.0929" style="stop-color:#FEF8F1;stop-opacity:0.9675"/>
		<stop  offset="0.2695" style="stop-color:#FCE6CB;stop-opacity:0.9057"/>
		<stop  offset="0.5114" style="stop-color:#F8CA8E;stop-opacity:0.821"/>
		<stop  offset="0.8059" style="stop-color:#F3A33B;stop-opacity:0.7179"/>
		<stop  offset="1" style="stop-color:#F08701;stop-opacity:0.65"/>
	</linearGradient>
	
		<polygon style="fill:url(#SVGID_1_);stroke:#028189;stroke-width:2;stroke-linecap:round;stroke-linejoin:round;stroke-miterlimit:10;" points="
		49.728,48.124 96,25.055 95.841,72.932 49.569,96 	"/>
	<linearGradient id="SVGID_2_" gradientUnits="userSpaceOnUse" x1="17.0396" y1="42.0509" x2="68.7757" y2="13.3627">
		<stop  offset="0" style="stop-color:#FFFFFF"/>
		<stop  offset="0.0929" style="stop-color:#FEF8F1;stop-opacity:0.9768"/>
		<stop  offset="0.2695" style="stop-color:#FCE6CB;stop-opacity:0.9326"/>
		<stop  offset="0.5114" style="stop-color:#F8CA8E;stop-opacity:0.8721"/>
		<stop  offset="0.8059" style="stop-color:#F3A33B;stop-opacity:0.7985"/>
		<stop  offset="1" style="stop-color:#F08701;stop-opacity:0.75"/>
	</linearGradient>
	
		<polygon style="fill:url(#SVGID_2_);stroke:#028189;stroke-width:2;stroke-linecap:round;stroke-linejoin:round;stroke-miterlimit:10;" points="
		1.159,24.068 47.431,1 96,25.055 49.728,48.124 	"/>
	<linearGradient id="SVGID_3_" gradientUnits="userSpaceOnUse" x1="36.3154" y1="22.9757" x2="7.4483" y2="120.6569">
		<stop  offset="0" style="stop-color:#FFFFFF"/>
		<stop  offset="0.0929" style="stop-color:#FEF8F1"/>
		<stop  offset="0.2695" style="stop-color:#FCE6CB"/>
		<stop  offset="0.5114" style="stop-color:#F8CA8E"/>
		<stop  offset="0.8059" style="stop-color:#F3A33B"/>
		<stop  offset="1" style="stop-color:#F08701"/>
	</linearGradient>
	
		<polygon style="fill:url(#SVGID_3_);stroke:#028189;stroke-width:2;stroke-linecap:round;stroke-linejoin:round;stroke-miterlimit:10;" points="
		49.728,48.124 49.569,96 1,71.946 1.159,24.068 	"/>
	<linearGradient id="SVGID_4_" gradientUnits="userSpaceOnUse" x1="27.3294" y1="41.1286" x2="199.9343" y2="-45.7057">
		<stop  offset="0" style="stop-color:#FFFFFF"/>
		<stop  offset="1" style="stop-color:#00AFB3"/>
	</linearGradient>
	
		<polygon style="fill:url(#SVGID_4_);stroke:#028189;stroke-width:2;stroke-linecap:round;stroke-linejoin:round;stroke-miterlimit:10;" points="
		73.759,13.802 61.785,8.293 14.284,29.99 16,30.664 16,54.14 26,59.499 26,36.916 	"/>
	<g>
		<path style="fill:#028189;stroke:#028189;stroke-width:1.0197;stroke-miterlimit:10;" d="M87.604,47.286
			c-0.41,0.201-0.752,0.664-0.764,1.033l-0.41,12.66l-7.255,3.559l0.41-12.66c0.012-0.369-0.311-0.506-0.721-0.305l-3.682,1.806
			l8.372-13.863l7.729,5.964L87.604,47.286z"/>
		<path style="fill:#028189;stroke:#028189;stroke-width:0.9497;stroke-miterlimit:10;" d="M68.75,56.738
			c-0.382,0.187-0.7,0.618-0.712,0.962L67.657,69.49L60.9,72.805l0.382-11.791c0.011-0.344-0.289-0.471-0.671-0.284l-3.429,1.682
			l7.797-12.911l7.199,5.554L68.75,56.738z"/>
		<polygon style="fill:#028189;" points="60.566,82.017 60.523,77.46 86.955,65.19 86.867,69.26 		"/>
	</g>
</g>
</svg>
