<?xml version="1.0" encoding="iso-8859-1"?>
<svg version="1.1" id="Capa_1" xmlns="http://www.w3.org/2000/svg" xmlns:xlink="http://www.w3.org/1999/xlink" x="0px" y="0px"
	 viewBox="0 0 97 97" style="enable-background:new 0 0 97 97;" xml:space="preserve">
<g>
	<g>
		<linearGradient id="SVGID_1_" gradientUnits="userSpaceOnUse" x1="9.9734" y1="57.9371" x2="54.3285" y2="12.006">
			<stop  offset="0" style="stop-color:#038890"/>
			<stop  offset="0.1049" style="stop-color:#349FA6"/>
			<stop  offset="0.2345" style="stop-color:#69B8BD"/>
			<stop  offset="0.3658" style="stop-color:#97CED1"/>
			<stop  offset="0.4961" style="stop-color:#BCE0E2"/>
			<stop  offset="0.6254" style="stop-color:#DAEDEF"/>
			<stop  offset="0.7531" style="stop-color:#EEF7F8"/>
			<stop  offset="0.8788" style="stop-color:#FBFDFD"/>
			<stop  offset="1" style="stop-color:#FFFFFF"/>
		</linearGradient>
		<path style="fill-rule:evenodd;clip-rule:evenodd;fill:url(#SVGID_1_);" d="M33.537,66.364c-18.101,0-32.827-14.727-32.827-32.829
			c0-18.101,14.726-32.826,32.827-32.826c18.101,0,32.826,14.726,32.826,32.826C66.363,51.638,51.638,66.364,33.537,66.364z"/>
		<path style="fill:#028189;" d="M33.537,1.419c17.709,0,32.117,14.407,32.117,32.116c0,17.71-14.408,32.119-32.117,32.119
			c-17.709,0-32.117-14.408-32.117-32.119C1.42,15.827,15.827,1.419,33.537,1.419 M33.537-0.001C15.015-0.001,0,15.015,0,33.536
			c0,18.523,15.015,33.538,33.537,33.538c18.522,0,33.537-15.015,33.537-33.538C67.074,15.015,52.059-0.001,33.537-0.001
			L33.537-0.001z"/>
	</g>
	<linearGradient id="SVGID_2_" gradientUnits="userSpaceOnUse" x1="10.9511" y1="56.576" x2="33.2152" y2="33.5209">
		<stop  offset="0" style="stop-color:#038890"/>
		<stop  offset="0.1049" style="stop-color:#349FA6"/>
		<stop  offset="0.2345" style="stop-color:#69B8BD"/>
		<stop  offset="0.3658" style="stop-color:#97CED1"/>
		<stop  offset="0.4961" style="stop-color:#BCE0E2"/>
		<stop  offset="0.6254" style="stop-color:#DAEDEF"/>
		<stop  offset="0.7531" style="stop-color:#EEF7F8"/>
		<stop  offset="0.8788" style="stop-color:#FBFDFD"/>
		<stop  offset="1" style="stop-color:#FFFFFF"/>
	</linearGradient>
	<path style="fill:url(#SVGID_2_);" d="M64.5,33h-24.85l24.308-5.224c0.367-0.078,0.602-0.469,0.524-0.836
		c-0.078-0.367-0.432-0.613-0.808-0.539l-24.306,5.159l22.701-10.111c0.344-0.153,0.498-0.557,0.346-0.9
		c-0.153-0.344-0.556-0.5-0.899-0.346L38.809,30.311l20.107-14.609c0.305-0.221,0.372-0.647,0.151-0.951
		c-0.221-0.303-0.646-0.373-0.951-0.15L38.012,29.207L54.641,10.74c0.251-0.279,0.229-0.709-0.05-0.961
		c-0.281-0.251-0.71-0.23-0.962,0.05L37,28.296L49.425,6.775c0.188-0.326,0.077-0.742-0.249-0.93
		c-0.323-0.188-0.742-0.075-0.929,0.249L35.821,27.616L43.5,3.981c0.116-0.357-0.079-0.741-0.437-0.858
		c-0.362-0.117-0.741,0.08-0.858,0.437l-7.679,23.636l2.598-24.716c0.039-0.374-0.232-0.709-0.605-0.748
		c-0.371-0.04-0.709,0.232-0.748,0.606l-2.598,24.717L30.574,2.339c-0.039-0.374-0.38-0.645-0.748-0.606
		c-0.374,0.039-0.645,0.374-0.606,0.748l2.598,24.716L24.139,3.561c-0.116-0.358-0.501-0.556-0.858-0.437
		c-0.358,0.116-0.553,0.5-0.437,0.858l7.679,23.635L18.098,6.094c-0.188-0.326-0.605-0.438-0.93-0.249
		c-0.326,0.188-0.437,0.604-0.249,0.93l12.425,21.521L12.716,9.829c-0.252-0.28-0.683-0.301-0.961-0.05
		c-0.279,0.252-0.302,0.682-0.05,0.961l16.628,18.468L8.228,14.601c-0.305-0.221-0.731-0.153-0.951,0.15
		c-0.221,0.305-0.154,0.73,0.15,0.951L27.534,30.31L4.831,20.202c-0.346-0.155-0.746,0.001-0.899,0.345
		c-0.153,0.344,0.001,0.746,0.345,0.899l22.702,10.107L2.671,26.386c-0.366-0.073-0.729,0.157-0.808,0.525
		c-0.078,0.368,0.157,0.787,0.525,0.865L26.696,33H1.845c-0.376,0-0.681,0.624-0.681,1s0.305,1,0.681,1h24.85L2.388,39.79
		c-0.368,0.078-0.603,0.251-0.525,0.619c0.068,0.32,0.351,0.445,0.666,0.445c0.047,0,0.094-0.052,0.142-0.062l24.309-5.191
		L4.277,45.697c-0.343,0.153-0.498,0.549-0.345,0.893c0.113,0.254,0.362,0.401,0.622,0.401c0.092,0,0.186-0.021,0.277-0.061
		l22.702-10.108L7.428,51.429c-0.304,0.221-0.371,0.646-0.15,0.951c0.133,0.183,0.34,0.281,0.551,0.281
		c0.139,0,0.279-0.043,0.4-0.13l20.104-14.607L11.704,56.39c-0.252,0.279-0.229,0.709,0.05,0.961
		c0.13,0.117,0.293,0.175,0.455,0.175c0.186,0,0.371-0.076,0.506-0.225l16.628-18.467L16.919,60.355
		c-0.188,0.326-0.077,0.742,0.249,0.93c0.107,0.062,0.224,0.092,0.34,0.092c0.235,0,0.464-0.122,0.59-0.34l12.426-21.522
		l-7.68,23.636c-0.116,0.357,0.079,0.741,0.437,0.858c0.07,0.023,0.141,0.034,0.21,0.034c0.287,0,0.554-0.183,0.647-0.471
		l7.679-23.636L29.221,64.65c-0.04,0.374,0.232,0.709,0.606,0.748c0.024,0.003,0.048,0.004,0.072,0.004
		c0.344,0,0.639-0.26,0.676-0.61l2.598-24.717l2.598,24.717c0.036,0.35,0.332,0.61,0.676,0.61c0.024,0,0.048-0.001,0.072-0.004
		c0.374-0.039,0.645-0.374,0.605-0.748l-2.598-24.716l7.679,23.636c0.093,0.288,0.361,0.471,0.647,0.471
		c0.069,0,0.14-0.011,0.21-0.034c0.358-0.116,0.553-0.5,0.437-0.858l-7.68-23.636l12.426,21.522c0.126,0.218,0.355,0.34,0.59,0.34
		c0.115,0,0.233-0.029,0.339-0.092c0.326-0.188,0.437-0.604,0.249-0.93L37,38.834l16.628,18.467c0.135,0.149,0.32,0.225,0.506,0.225
		c0.163,0,0.325-0.057,0.456-0.175c0.279-0.252,0.302-0.682,0.05-0.961L38.012,37.923L58.117,52.53
		c0.121,0.088,0.261,0.13,0.399,0.13c0.211,0,0.418-0.098,0.552-0.281c0.22-0.305,0.153-0.73-0.151-0.951L38.811,36.821
		l22.704,10.108c0.09,0.04,0.184,0.059,0.277,0.059c0.261,0,0.509-0.151,0.622-0.404c0.152-0.344-0.002-0.746-0.346-0.899
		L39.365,35.578l24.308,5.167c0.049,0.01,0.096,0.015,0.143,0.015c0.314,0,0.597-0.22,0.665-0.539
		c0.078-0.368-0.157-0.352-0.524-0.43L39.649,35H64.5c0.376,0,0.681-0.624,0.681-1S64.875,33,64.5,33z"/>
	<linearGradient id="SVGID_3_" gradientUnits="userSpaceOnUse" x1="29.1205" y1="-24.4114" x2="36.9564" y2="87.648">
		<stop  offset="0" style="stop-color:#038890"/>
		<stop  offset="0.0113" style="stop-color:#139097"/>
		<stop  offset="0.0449" style="stop-color:#3FA4AB"/>
		<stop  offset="0.0834" style="stop-color:#69B8BD"/>
		<stop  offset="0.125" style="stop-color:#8DC9CD"/>
		<stop  offset="0.1708" style="stop-color:#ACD8DB"/>
		<stop  offset="0.222" style="stop-color:#C6E4E6"/>
		<stop  offset="0.2805" style="stop-color:#DBEEEF"/>
		<stop  offset="0.3501" style="stop-color:#ECF6F6"/>
		<stop  offset="0.4383" style="stop-color:#F7FBFB"/>
		<stop  offset="0.5675" style="stop-color:#FDFEFE"/>
		<stop  offset="1" style="stop-color:#FFFFFF"/>
	</linearGradient>
	<circle style="fill-rule:evenodd;clip-rule:evenodd;fill:url(#SVGID_3_);" cx="33.173" cy="33.537" r="26.672"/>
</g>
<g>
	<g>
		<path style="fill:#016F72;" d="M35.288,19.579c-2.142,0-3.907,0.707-5.295,1.945C28.606,22.762,27.71,25,27.306,27H38v5H26.911
			L27,32.381v1.238L26.911,35H37v5h-9.641c0.895,4,3.685,5.99,8.426,5.99c2.511,0,5.215-0.912,7.215-1.912v6.743
			c-2,1.037-4.581,1.555-7.689,1.555c-4.304,0-7.827-0.757-10.602-3.093C21.934,46.948,20.202,44,19.482,40H16v-5h2.982
			c-0.071-1-0.105-0.934-0.105-1.619L18.929,32H16v-5h3.377c0.65-4,2.397-7.697,5.243-10.164c2.845-2.467,6.401-3.746,10.668-3.746
			c3.302,0,6.392,0.698,9.273,2.138l-2.582,6.101c-1.212-0.545-2.345-0.976-3.398-1.284C37.527,19.738,36.429,19.579,35.288,19.579z
			"/>
	</g>
</g>
<g>
	<g>
		<linearGradient id="SVGID_4_" gradientUnits="userSpaceOnUse" x1="39.8998" y1="87.8638" x2="84.2553" y2="41.9323">
			<stop  offset="0" style="stop-color:#038890"/>
			<stop  offset="0.1049" style="stop-color:#349FA6"/>
			<stop  offset="0.2345" style="stop-color:#69B8BD"/>
			<stop  offset="0.3658" style="stop-color:#97CED1"/>
			<stop  offset="0.4961" style="stop-color:#BCE0E2"/>
			<stop  offset="0.6254" style="stop-color:#DAEDEF"/>
			<stop  offset="0.7531" style="stop-color:#EEF7F8"/>
			<stop  offset="0.8788" style="stop-color:#FBFDFD"/>
			<stop  offset="1" style="stop-color:#FFFFFF"/>
		</linearGradient>
		<path style="fill-rule:evenodd;clip-rule:evenodd;fill:url(#SVGID_4_);" d="M63.464,96.291c-18.101,0-32.828-14.727-32.828-32.829
			c0-18.101,14.727-32.826,32.828-32.826c18.101,0,32.826,14.726,32.826,32.826C96.29,81.564,81.564,96.291,63.464,96.291z"/>
		<path style="fill:#028189;" d="M63.463,31.346c17.709,0,32.117,14.407,32.117,32.116c0,17.71-14.408,32.119-32.117,32.119
			c-17.709,0-32.117-14.408-32.117-32.119C31.346,45.753,45.754,31.346,63.463,31.346 M63.463,29.926
			c-18.522,0-33.537,15.015-33.537,33.536c0,18.523,15.015,33.538,33.537,33.538C81.985,97.001,97,81.985,97,63.462
			C97,44.941,81.985,29.926,63.463,29.926L63.463,29.926z"/>
	</g>
	<linearGradient id="SVGID_5_" gradientUnits="userSpaceOnUse" x1="40.8776" y1="86.5025" x2="63.1417" y2="63.4474">
		<stop  offset="0" style="stop-color:#038890"/>
		<stop  offset="0.1049" style="stop-color:#349FA6"/>
		<stop  offset="0.2345" style="stop-color:#69B8BD"/>
		<stop  offset="0.3658" style="stop-color:#97CED1"/>
		<stop  offset="0.4961" style="stop-color:#BCE0E2"/>
		<stop  offset="0.6254" style="stop-color:#DAEDEF"/>
		<stop  offset="0.7531" style="stop-color:#EEF7F8"/>
		<stop  offset="0.8788" style="stop-color:#FBFDFD"/>
		<stop  offset="1" style="stop-color:#FFFFFF"/>
	</linearGradient>
	<path style="fill:url(#SVGID_5_);" d="M94.426,63h-24.85l24.308-5.261c0.367-0.078,0.602-0.487,0.524-0.855
		c-0.078-0.367-0.432-0.622-0.808-0.548L69.294,61.49l22.701-10.113c0.344-0.153,0.498-0.558,0.346-0.902
		c-0.153-0.344-0.556-0.5-0.899-0.346L68.736,60.238l20.107-14.609c0.305-0.221,0.372-0.647,0.151-0.951
		c-0.221-0.303-0.646-0.373-0.951-0.15L67.939,59.134l16.629-18.468c0.251-0.279,0.229-0.709-0.05-0.961
		c-0.281-0.251-0.71-0.23-0.962,0.05L66.927,58.223l12.425-21.521c0.188-0.326,0.077-0.742-0.249-0.93
		c-0.323-0.188-0.742-0.075-0.929,0.249L65.747,57.543l7.679-23.635c0.116-0.357-0.079-0.741-0.437-0.858
		c-0.362-0.117-0.741,0.08-0.858,0.437l-7.679,23.636l2.598-24.716c0.039-0.374-0.232-0.709-0.605-0.748
		c-0.371-0.04-0.709,0.232-0.748,0.606l-2.598,24.717l-2.598-24.717c-0.039-0.374-0.38-0.645-0.748-0.606
		c-0.374,0.039-0.645,0.374-0.606,0.748l2.598,24.716l-7.679-23.636c-0.116-0.358-0.501-0.556-0.858-0.437
		c-0.358,0.116-0.553,0.5-0.437,0.858l7.679,23.635L48.025,36.021c-0.188-0.326-0.605-0.438-0.93-0.249
		c-0.326,0.188-0.437,0.604-0.249,0.93l12.425,21.521L42.643,39.756c-0.252-0.28-0.683-0.301-0.961-0.05
		c-0.279,0.252-0.302,0.682-0.05,0.961l16.628,18.468L38.155,44.527c-0.305-0.221-0.731-0.153-0.951,0.15
		c-0.221,0.305-0.154,0.73,0.15,0.951l20.106,14.608L34.757,50.128c-0.346-0.155-0.746,0.001-0.899,0.345
		c-0.153,0.344,0.001,0.746,0.345,0.899l22.701,10.107l-24.307-5.167c-0.366-0.073-0.729,0.157-0.808,0.525
		c-0.078,0.368,0.157,0.824,0.525,0.902L56.622,63h-24.85c-0.376,0-0.681,0.624-0.681,1s0.305,1,0.681,1h24.85l-24.307,4.753
		c-0.368,0.078-0.603,0.233-0.525,0.601c0.068,0.32,0.351,0.436,0.666,0.436c0.047,0,0.094-0.057,0.142-0.067l24.309-5.193
		L34.203,75.625c-0.343,0.153-0.498,0.548-0.345,0.892c0.113,0.254,0.362,0.401,0.622,0.401c0.092,0,0.186-0.021,0.277-0.061
		l22.702-10.108L37.354,81.355c-0.304,0.221-0.371,0.646-0.15,0.951c0.133,0.183,0.34,0.281,0.551,0.281
		c0.139,0,0.279-0.043,0.4-0.13l20.104-14.607L41.631,86.317c-0.252,0.279-0.229,0.709,0.05,0.961
		c0.13,0.117,0.293,0.175,0.455,0.175c0.186,0,0.371-0.076,0.506-0.225L59.271,68.76L46.846,90.281
		c-0.188,0.326-0.077,0.742,0.249,0.93c0.107,0.062,0.224,0.092,0.34,0.092c0.235,0,0.464-0.122,0.59-0.34L60.45,69.44l-7.68,23.636
		c-0.116,0.357,0.079,0.741,0.437,0.858c0.07,0.023,0.141,0.034,0.21,0.034c0.287,0,0.554-0.183,0.647-0.471l7.679-23.636
		l-2.598,24.716c-0.04,0.374,0.232,0.709,0.606,0.748c0.024,0.003,0.048,0.004,0.072,0.004c0.344,0,0.639-0.26,0.676-0.61
		l2.598-24.717l2.598,24.717c0.036,0.35,0.332,0.61,0.676,0.61c0.024,0,0.048-0.001,0.072-0.004
		c0.374-0.039,0.645-0.374,0.605-0.748l-2.598-24.716l7.679,23.636c0.093,0.288,0.361,0.471,0.647,0.471
		c0.069,0,0.14-0.011,0.21-0.034c0.358-0.116,0.553-0.5,0.437-0.858l-7.68-23.636l12.426,21.522c0.126,0.218,0.355,0.34,0.59,0.34
		c0.115,0,0.233-0.029,0.339-0.092c0.326-0.188,0.437-0.604,0.249-0.93L66.927,68.761l16.628,18.467
		c0.135,0.149,0.32,0.225,0.506,0.225c0.163,0,0.325-0.057,0.456-0.175c0.279-0.252,0.302-0.682,0.05-0.961L67.939,67.849
		l20.104,14.607c0.12,0.088,0.261,0.13,0.399,0.13c0.211,0,0.418-0.098,0.552-0.281c0.22-0.305,0.153-0.73-0.151-0.951
		L68.737,66.747l22.704,10.108c0.09,0.04,0.184,0.059,0.277,0.059c0.261,0,0.509-0.151,0.622-0.404
		c0.152-0.344-0.002-0.746-0.346-0.899L69.292,65.504l24.308,5.167c0.049,0.01,0.096,0.015,0.143,0.015
		c0.314,0,0.597-0.22,0.665-0.539c0.078-0.368-0.157-0.315-0.524-0.394L69.576,65h24.85c0.376,0,0.681-0.624,0.681-1
		S94.802,63,94.426,63z"/>
	<linearGradient id="SVGID_6_" gradientUnits="userSpaceOnUse" x1="59.0469" y1="5.5151" x2="66.8829" y2="117.5745">
		<stop  offset="0" style="stop-color:#038890"/>
		<stop  offset="0.0113" style="stop-color:#139097"/>
		<stop  offset="0.0449" style="stop-color:#3FA4AB"/>
		<stop  offset="0.0834" style="stop-color:#69B8BD"/>
		<stop  offset="0.125" style="stop-color:#8DC9CD"/>
		<stop  offset="0.1708" style="stop-color:#ACD8DB"/>
		<stop  offset="0.222" style="stop-color:#C6E4E6"/>
		<stop  offset="0.2805" style="stop-color:#DBEEEF"/>
		<stop  offset="0.3501" style="stop-color:#ECF6F6"/>
		<stop  offset="0.4383" style="stop-color:#F7FBFB"/>
		<stop  offset="0.5675" style="stop-color:#FDFEFE"/>
		<stop  offset="1" style="stop-color:#FFFFFF"/>
	</linearGradient>
	<circle style="fill-rule:evenodd;clip-rule:evenodd;fill:url(#SVGID_6_);" cx="63.099" cy="63.463" r="26.672"/>
</g>
<g>
	<path style="fill:#016F72;" d="M77.569,69.989c0,2.792-1.038,5.036-3.058,6.731C72.491,78.414,70,79.428,66,79.762V86h-3v-6.132
		c-4-0.088-8-0.844-11-2.266v-6.955c1,0.755,3.229,1.422,5.381,2.002C59.532,73.229,61,73.572,63,73.677V65.51l-2.041-0.685
		c-3.478-1.37-6.078-2.858-7.527-4.466c-1.45-1.606-2.242-3.596-2.242-5.967c0-2.546,1.238-4.64,3.231-6.282
		C56.414,46.468,59,45.472,63,45.121V41h3v4.016c4,0.175,7.685,0.983,10.935,2.423l-2.49,6.165C71.704,52.48,69,51.794,66,51.549
		v7.771c4,1.317,5.89,2.459,7.338,3.424c1.45,0.966,2.526,2.029,3.202,3.188C77.216,67.091,77.569,68.444,77.569,69.989z
		 M59.325,54.393c0,0.773,0.406,1.41,0.942,1.91C60.803,56.804,62,57.318,63,57.845v-6.191C61,51.988,59.325,52.901,59.325,54.393z
		 M69.611,70.384c0-0.738-0.313-1.361-0.909-1.87C68.104,68.004,68,67.477,66,66.933v6.559C69,73.089,69.611,72.052,69.611,70.384z"
		/>
</g>
</svg>
