<?xml version="1.0" encoding="iso-8859-1"?>
<svg version="1.1" id="Capa_1" xmlns="http://www.w3.org/2000/svg" xmlns:xlink="http://www.w3.org/1999/xlink" x="0px" y="0px"
	 viewBox="0 0 97 97" style="enable-background:new 0 0 97 97;" xml:space="preserve">
<g>
	<g>
		<linearGradient id="SVGID_1_" gradientUnits="userSpaceOnUse" x1="37.133" y1="30.6277" x2="7.7605" y2="81.5024">
			<stop  offset="0" style="stop-color:#FFFFFF"/>
			<stop  offset="0.0636" style="stop-color:#D4EAEC"/>
			<stop  offset="0.1515" style="stop-color:#A1D5D9"/>
			<stop  offset="0.2428" style="stop-color:#78C6C9"/>
			<stop  offset="0.3369" style="stop-color:#4DBBBE"/>
			<stop  offset="0.4351" style="stop-color:#27B4B7"/>
			<stop  offset="0.5398" style="stop-color:#00B0B5"/>
			<stop  offset="0.7809" style="stop-color:#00AFB3"/>
		</linearGradient>
		<path style="fill-rule:evenodd;clip-rule:evenodd;fill:url(#SVGID_1_);" d="M14.011,83C6.839,83,1,77.563,1,70.31V41.82
			C1,34.567,6.839,29,14.011,29h16.605C37.789,29,44,34.567,44,41.82v28.49C44,77.563,37.789,83,30.616,83H14.011z"/>
		<path style="fill:#007C84;" d="M30.616,30C37.234,30,43,35.122,43,41.82V70.31C43,77.008,37.234,82,30.616,82H14.011
			C7.394,82,2,77.008,2,70.31V41.82C2,35.122,7.394,30,14.011,30H31 M30.616,28H14.011C6.306,28,0,34.032,0,41.82V70.31
			C0,78.099,6.306,84,14.011,84h16.605C38.321,84,45,78.097,45,70.31V41.82C45,34.034,38.322,28,30.616,28L30.616,28z"/>
	</g>
	
		<ellipse style="fill-rule:evenodd;clip-rule:evenodd;fill:#F8B87A;stroke:#028189;stroke-width:2.0104;stroke-linecap:round;stroke-linejoin:round;stroke-miterlimit:22.9256;" cx="22.314" cy="17.774" rx="16.671" ry="16.842"/>
	<linearGradient id="SVGID_2_" gradientUnits="userSpaceOnUse" x1="14.4777" y1="26.0298" x2="30.6135" y2="8.7263">
		<stop  offset="0" style="stop-color:#F9BD72"/>
		<stop  offset="1" style="stop-color:#FFFFFF"/>
	</linearGradient>
	<ellipse style="fill-rule:evenodd;clip-rule:evenodd;fill:url(#SVGID_2_);" cx="22.314" cy="17.626" rx="11.998" ry="12.122"/>
</g>
<g>
	<linearGradient id="SVGID_3_" gradientUnits="userSpaceOnUse" x1="45.6626" y1="86.5147" x2="92.308" y2="39.8693">
		<stop  offset="0" style="stop-color:#036973"/>
		<stop  offset="1" style="stop-color:#32A5AE"/>
	</linearGradient>
	<path style="fill-rule:evenodd;clip-rule:evenodd;fill:url(#SVGID_3_);" d="M54.023,96C45.706,96,39,89.653,39,81.244V48.535
		C39,40.125,45.706,33,54.023,33H80.91C89.228,33,96,40.125,96,48.535v32.709C96,89.653,89.228,96,80.91,96H54.023z"/>
	<path style="fill:#028189;" d="M80.91,34C88.674,34,95,40.68,95,48.535v32.71C95,89.099,88.674,95,80.91,95H54.023
		C46.26,95,40,89.099,40,81.245v-32.71C40,40.68,46.26,34,54.023,34H81 M80.91,32H54.023C45.174,32,38,39.595,38,48.535v32.71
		C38,90.185,45.175,98,54.023,98H80.91C89.759,98,97,90.184,97,81.245v-32.71C97,39.595,89.759,32,80.91,32L80.91,32z"/>
</g>
<polygon style="fill-rule:evenodd;clip-rule:evenodd;fill:#FFFFFF;stroke:#FFFFFF;stroke-miterlimit:22.9256;" points="53.909,35.5 
	81.025,35.5 67.467,67.724 "/>
<ellipse style="fill-rule:evenodd;clip-rule:evenodd;fill:#F8B87A;stroke:#028189;stroke-width:2.0105;stroke-linecap:round;stroke-linejoin:round;stroke-miterlimit:22.9256;" cx="67.467" cy="23.465" rx="19.138" ry="19.338"/>
<linearGradient id="SVGID_4_" gradientUnits="userSpaceOnUse" x1="58.3881" y1="33.0292" x2="76.5452" y2="13.5581">
	<stop  offset="0" style="stop-color:#F9BD72"/>
	<stop  offset="1" style="stop-color:#FFFFFF"/>
</linearGradient>
<ellipse style="fill-rule:evenodd;clip-rule:evenodd;fill:url(#SVGID_4_);" cx="67.467" cy="23.294" rx="13.774" ry="13.918"/>
</svg>
