<?xml version="1.0" encoding="UTF-8" standalone="no"?>
<svg
   xmlns:dc="http://purl.org/dc/elements/1.1/"
   xmlns:cc="http://creativecommons.org/ns#"
   xmlns:rdf="http://www.w3.org/1999/02/22-rdf-syntax-ns#"
   xmlns:svg="http://www.w3.org/2000/svg"
   xmlns="http://www.w3.org/2000/svg"
   xmlns:sodipodi="http://sodipodi.sourceforge.net/DTD/sodipodi-0.dtd"
   xmlns:inkscape="http://www.inkscape.org/namespaces/inkscape"
   id="svg1609"
   sodipodi:docname="warning.svg"
   viewBox="0 0 148.4 137.64"
   sodipodi:version="0.32"
   version="1.1"
   inkscape:version="0.91 r13725">
  <sodipodi:namedview
     id="base"
     fit-margin-left="0"
     inkscape:snap-center="true"
     inkscape:zoom="12.897297"
     borderopacity="1.0"
     inkscape:current-layer="svg1609"
     inkscape:cx="86.699333"
     inkscape:cy="62.751906"
     inkscape:object-paths="true"
     inkscape:window-maximized="1"
     showgrid="true"
     fit-margin-right="0"
     inkscape:snap-midpoints="true"
     bordercolor="#666666"
     inkscape:window-x="0"
     inkscape:window-y="31"
     inkscape:snap-smooth-nodes="true"
     inkscape:object-nodes="true"
     fit-margin-bottom="0"
     inkscape:window-width="1920"
     inkscape:pageopacity="0.0"
     inkscape:pageshadow="2"
     pagecolor="#ffffff"
     inkscape:snap-object-midpoints="true"
     inkscape:window-height="971"
     fit-margin-top="0">
    <inkscape:grid
       id="grid2994"
       enabled="true"
       visible="true"
       snapvisiblegridlinesonly="true"
       type="xygrid"
       empspacing="10" />
  </sodipodi:namedview>
  <defs
     id="defs1610">
    <filter
       id="filter3789"
       inkscape:collect="always"
       color-interpolation-filters="sRGB">
      <feGaussianBlur
         id="feGaussianBlur3791"
         stdDeviation="1.3360687"
         inkscape:collect="always" />
    </filter>
    <linearGradient
       id="linearGradient3799"
       y2="115.22"
       gradientUnits="userSpaceOnUse"
       x2="120"
       gradientTransform="translate(4.1044775,3.1195794)"
       y1="57.222"
       x1="58"
       inkscape:collect="always">
      <stop
         id="stop3795"
         style="stop-color:#ffcc00"
         offset="0" />
      <stop
         id="stop3797"
         style="stop-color:#ff9000"
         offset="1" />
    </linearGradient>
  </defs>
  <path
     id="path4153-1-1"
     style="filter:url(#filter3789);stroke:#000000;stroke-width:3;fill:none"
     inkscape:connector-curvature="0"
     d="m74.202 4.7066c-0.80171 0-1.5735 0.17356-2.2681 0.49266-0.69467 0.3191-1.3194 0.77602-1.8448 1.3466-0.52538 0.57058-0.84393 1.3234-1.2399 2.0035-22.303 38.303-42.603 77.939-63.931 116.89-0.2117 0.13217-0.2117 0.76491-0.2117 1.1824 0 0.87068 0.15981 1.7088 0.45363 2.4633 0.29383 0.75443 0.71454 1.4329 1.2399 2.0035 0.52537 0.57057 1.1501 1.0275 1.8448 1.3466 0.69467 0.31911 1.4664 0.49266 2.2681 0.49266h63.508 0.3629 63.508c0.80172 0 1.5735-0.17355 2.2681-0.49266 0.69467-0.3191 1.3194-0.77602 1.8448-1.3466 0.52538-0.57059 0.9461-1.249 1.2399-2.0035 0.29381-0.75444 0.45363-1.5926 0.45363-2.4633 0-0.41748 0-1.0502-0.2117-1.1824-21.32-38.942-41.62-78.578-63.925-116.88-0.396-0.68008-0.71454-1.4329-1.2399-2.0035-0.52538-0.57058-1.1501-1.0275-1.8447-1.3466-0.69468-0.3191-1.4664-0.49266-2.2681-0.49266z" />
  <path
     id="path4153-1"
     style="stroke:#000000;stroke-width:3;fill:#ffffff"
     inkscape:connector-curvature="0"
     d="m71.845 4.8271c-0.80171 0-1.5735 0.17356-2.2681 0.49266-0.69467 0.3191-1.3194 0.77602-1.8448 1.3466-0.52538 0.57058-0.84393 1.3234-1.2399 2.0035-22.302 38.303-42.603 77.939-63.931 116.89-0.2117 0.13217-0.2117 0.76491-0.2117 1.1824 0 0.87068 0.15981 1.7088 0.45363 2.4633 0.29383 0.75443 0.71454 1.4329 1.2399 2.0035 0.52537 0.57057 1.1501 1.0275 1.8448 1.3466 0.69467 0.31911 1.4664 0.49266 2.2681 0.49266h63.508 0.3629 63.508c0.80172 0 1.5735-0.17355 2.2681-0.49266 0.69467-0.3191 1.3194-0.77602 1.8448-1.3466 0.52538-0.57059 0.9461-1.249 1.2399-2.0035 0.29381-0.75444 0.45363-1.5926 0.45363-2.4633 0-0.41748 0-1.0502-0.2117-1.1824-21.33-38.951-41.629-78.587-63.932-116.89-0.396-0.68008-0.71454-1.4329-1.2399-2.0035-0.52538-0.57058-1.1501-1.0275-1.8447-1.3466-0.69468-0.3191-1.4664-0.49266-2.2681-0.49266z" />
  <path
     id="path4153"
     sodipodi:nodetypes="ssssssscssccscccssssss"
     style="fill:url(#linearGradient3799);stroke:#000000;stroke-width:0.90046px"
     inkscape:connector-curvature="0"
     d="m 74.999977,13.396479 c -0.71581,0 -1.4049,0.15496 -2.0251,0.43987 -0.62024,0.28491 -1.178,0.69287 -1.6471,1.2023 -0.46909,0.50945 -0.75351,1.1816 -1.1071,1.7888 -19.913,34.199 -37.411,67.43 -57.081,104.370001 -0.16804,0.31554 -0.18902,0.68296 -0.18902,1.0557 0,0.77739 0.14268,1.5258 0.40503,2.1994 0.26234,0.67359 0.63798,1.2794 1.1071,1.7888 0.46908,0.50945 1.0268,0.91741 1.6471,1.2023 0.62024,0.28491 1.3093,0.43987 2.0251,0.43987 l 56.703,0 0.32402,0 56.703003,0 c 0.71583,0 1.4049,-0.15496 2.0251,-0.43987 0.62024,-0.28492 1.178,-0.69288 1.6471,-1.2023 0.4691,-0.50944 0.84473,-1.1152 1.1071,-1.7888 0.26233,-0.67361 0.40602,-1.422 0.40503,-2.1994 -4.8e-4,-0.37305 -0.0207,-0.74033 -0.18902,-1.0557 -18.66,-34.951001 -37.177003,-70.163001 -57.085003,-104.360001 -0.35348,-0.60726 -0.63798,-1.2794 -1.1071,-1.7888 -0.46908,-0.50945 -1.0268,-0.91741 -1.6471,-1.2023 -0.62025,-0.28491 -1.3093,-0.43987 -2.0251,-0.43987 z" />
  <g
     id="g3805"
     transform="translate(-6.4844 -2.7419)">
    <path
       id="path2992"
       d="m77 43.063c-4.9706 0-9 4.0294-9 9 0 0.1177-0.0045 0.22715 0 0.34375l4 48h0.03125c0.18138 2.5964 2.3262 4.6562 4.9688 4.6562s4.7874-2.0598 4.9688-4.6562h0.03125l3.7812-45.344c0.126-0.862 0.219-1.735 0.219-2.659 0.0045-0.1166 0-0.22605 0-0.34375 0-4.9706-4.0294-9-9-9z"
       style="fill:#000000"
       inkscape:connector-curvature="0" />
    <path
       id="path3803"
       sodipodi:rx="11"
       sodipodi:ry="9"
       style="fill:#000000"
       sodipodi:type="arc"
       d="m 22,57.406998 a 11,9 0 0 1 -11,9 11,9 0 0 1 -11,-9 11,9 0 0 1 11,-9 11,9 0 0 1 11,9 z"
       transform="matrix(.81818 0 0 1 68 59)"
       sodipodi:cy="57.406998"
       sodipodi:cx="11" />
  </g>
</svg>
