<?xml version="1.0" encoding="utf-8"?>
<svg version="1.0" id="Capa_1" xmlns="http://www.w3.org/2000/svg" xmlns:xlink="http://www.w3.org/1999/xlink" x="0px" y="0px"
	 viewBox="0 0 97 97" style="enable-background:new 0 0 97 97;" xml:space="preserve">
<style type="text/css">
	.st0{fill:url(#SVGID_1_);}
	.st1{fill:#028189;}
	.st2{fill:#FFFFFF;}
</style>
<g>
	<linearGradient id="SVGID_1_" gradientUnits="userSpaceOnUse" x1="83.2368" y1="35.3733" x2="10.8784" y2="102.8486">
		<stop  offset="0" style="stop-color:#FBD19E"/>
		<stop  offset="2.288473e-02" style="stop-color:#FACC94"/>
		<stop  offset="0.1209" style="stop-color:#F8BA6D"/>
		<stop  offset="0.226" style="stop-color:#F5AA4B"/>
		<stop  offset="0.3379" style="stop-color:#F39D30"/>
		<stop  offset="0.459" style="stop-color:#F2931B"/>
		<stop  offset="0.5938" style="stop-color:#F18C0C"/>
		<stop  offset="0.7533" style="stop-color:#F08804"/>
		<stop  offset="1" style="stop-color:#F08701"/>
	</linearGradient>
	<path class="st0" d="M7.2,96c-2.1,0-4.1-1.1-5.2-2.9c-1.1-1.8-1.2-4.1-0.3-6L43,4.4C44.1,2.3,46.1,1,48.5,1s4.4,1.3,5.5,3.4
		L95.3,87c1,1.9,0.9,4.2-0.3,6C93.9,94.9,92,96,89.8,96H7.2z"/>
	<path class="st1" d="M48.5,2c2,0,3.7,1.1,4.6,2.9l41.3,82.6c0.8,1.6,0.7,3.5-0.2,5.1c-0.9,1.5-2.6,2.4-4.4,2.4L7.2,95
		c-1.8,0-3.4-0.9-4.4-2.4c-1-1.5-1-3.4-0.2-5.1L43.9,4.9C44.8,3.1,46.5,2,48.5,2 M48.5,0c-2.5,0-5.1,1.3-6.4,4L0.8,86.6
		C-1.6,91.4,1.8,97,7.2,97h82.7c5.3,0,8.8-5.6,6.4-10.4L54.9,4C53.6,1.3,51,0,48.5,0L48.5,0z"/>
</g>
<g id="g6498" transform="matrix(0.555088,0,0,0.555052,7.749711,17.80196)">
	<path id="path6500" class="st2" d="M73.1,119c-7.6,0-13.5-5.9-13.5-13.5c0-8.2,5.3-13.5,13.5-13.5s12.9,5.3,13.5,13.5
		C86.5,113.1,81.3,119,73.1,119L73.1,119z M64.9,85l-3.5-68.5h23.4L81.3,85h-17H64.9z"/>
</g>
</svg>
