<?xml version="1.0" encoding="UTF-8" standalone="no"?>
<!-- Created with Inkscape (http://www.inkscape.org/) -->

<svg
   xmlns:dc="http://purl.org/dc/elements/1.1/"
   xmlns:cc="http://creativecommons.org/ns#"
   xmlns:rdf="http://www.w3.org/1999/02/22-rdf-syntax-ns#"
   xmlns:svg="http://www.w3.org/2000/svg"
   xmlns="http://www.w3.org/2000/svg"
   xmlns:xlink="http://www.w3.org/1999/xlink"
   xmlns:sodipodi="http://sodipodi.sourceforge.net/DTD/sodipodi-0.dtd"
   xmlns:inkscape="http://www.inkscape.org/namespaces/inkscape"
   width="108.96996"
   height="138.66498"
   id="svg4818"
   sodipodi:version="0.32"
   inkscape:version="0.47pre4 r22446"
   version="1.0"
   sodipodi:docname="therapist.svg"
   inkscape:output_extension="org.inkscape.output.svg.inkscape"
   inkscape:export-xdpi="197.95917"
   inkscape:export-ydpi="197.95917">
  <defs
     id="defs4820">
    <linearGradient
       id="linearGradient4738">
      <stop
         style="stop-color:#6b7283;stop-opacity:1"
         offset="0"
         id="stop4740" />
      <stop
         style="stop-color:#000000;stop-opacity:0;"
         offset="1"
         id="stop4742" />
    </linearGradient>
    <inkscape:perspective
       sodipodi:type="inkscape:persp3d"
       inkscape:vp_x="0 : 526.18109 : 1"
       inkscape:vp_y="0 : 1000 : 0"
       inkscape:vp_z="744.09448 : 526.18109 : 1"
       inkscape:persp3d-origin="372.04724 : 350.78739 : 1"
       id="perspective4826" />
    <inkscape:perspective
       id="perspective2911"
       inkscape:persp3d-origin="0.5 : 0.33333333 : 1"
       inkscape:vp_z="1 : 0.5 : 1"
       inkscape:vp_y="0 : 1000 : 0"
       inkscape:vp_x="0 : 0.5 : 1"
       sodipodi:type="inkscape:persp3d" />
    <radialGradient
       gradientUnits="userSpaceOnUse"
       gradientTransform="matrix(1,-1.159405e-6,1.09378e-6,0.699651,-7.083399e-4,194.5088)"
       r="34.599998"
       fy="647.60748"
       fx="395.61505"
       cy="647.60748"
       cx="395.61505"
       id="radialGradient28759"
       xlink:href="#linearGradient28753"
       inkscape:collect="always" />
    <radialGradient
       gradientUnits="userSpaceOnUse"
       gradientTransform="matrix(-0.158963,-0.951426,2.629455,-0.347975,-1257.271,1247.908)"
       r="40.475468"
       fy="645.91534"
       fx="396.772"
       cy="645.91534"
       cx="396.772"
       id="radialGradient27868"
       xlink:href="#linearGradient27862"
       inkscape:collect="always" />
    <radialGradient
       gradientUnits="userSpaceOnUse"
       gradientTransform="matrix(1.000093,-6.253541e-6,0,0.530956,-19.83867,179.8354)"
       r="272.12177"
       fy="878.23248"
       fx="395.56317"
       cy="878.23248"
       cx="395.56317"
       id="radialGradient26112"
       xlink:href="#linearGradient26106"
       inkscape:collect="always" />
    <linearGradient
       y2="407.36603"
       x2="317.27542"
       y1="107.06415"
       x1="520.95844"
       gradientTransform="translate(-64.99021,-75.17757)"
       gradientUnits="userSpaceOnUse"
       id="linearGradient24345"
       xlink:href="#linearGradient18994"
       inkscape:collect="always" />
    <linearGradient
       y2="224.57358"
       x2="524.87543"
       y1="195.16147"
       x1="652.8302"
       gradientTransform="translate(-64.99021,-75.17757)"
       gradientUnits="userSpaceOnUse"
       id="linearGradient24334"
       xlink:href="#linearGradient15453"
       inkscape:collect="always" />
    <linearGradient
       y2="142.31697"
       x2="456.65469"
       y1="36.232071"
       x1="414.70432"
       gradientTransform="translate(-64.99021,-75.17757)"
       gradientUnits="userSpaceOnUse"
       id="linearGradient24331"
       xlink:href="#linearGradient16336"
       inkscape:collect="always" />
    <radialGradient
       r="117.83584"
       fy="116.89105"
       fx="418.20651"
       cy="116.89105"
       cx="418.20651"
       gradientTransform="matrix(1.451531,-1.272981,0.05381112,0.06135868,-296.6847,687.3329)"
       gradientUnits="userSpaceOnUse"
       id="radialGradient24328"
       xlink:href="#linearGradient13697"
       inkscape:collect="always" />
    <radialGradient
       r="117.83584"
       fy="116.89105"
       fx="418.20651"
       cy="116.89105"
       cx="418.20651"
       gradientTransform="matrix(1.451531,-1.272981,5.381112e-2,6.135868e-2,-276.0101,766.2034)"
       gradientUnits="userSpaceOnUse"
       id="radialGradient24286"
       xlink:href="#linearGradient13697"
       inkscape:collect="always" />
    <linearGradient
       y2="142.31697"
       x2="456.65469"
       y1="36.232071"
       x1="414.70432"
       gradientTransform="translate(-44.31558,3.692965)"
       gradientUnits="userSpaceOnUse"
       id="linearGradient24284"
       xlink:href="#linearGradient16336"
       inkscape:collect="always" />
    <linearGradient
       y2="224.57358"
       x2="524.87543"
       y1="195.16147"
       x1="652.8302"
       gradientTransform="translate(-44.31558,3.692965)"
       gradientUnits="userSpaceOnUse"
       id="linearGradient24282"
       xlink:href="#linearGradient15453"
       inkscape:collect="always" />
    <linearGradient
       y2="218.5125"
       x2="463.11902"
       y1="170.8389"
       x1="441.10837"
       gradientTransform="translate(-44.31558,3.692965)"
       gradientUnits="userSpaceOnUse"
       id="linearGradient24280"
       xlink:href="#linearGradient21631"
       inkscape:collect="always" />
    <linearGradient
       y2="407.36603"
       x2="317.27542"
       y1="107.06415"
       x1="520.95844"
       gradientTransform="translate(-44.31558,3.692965)"
       gradientUnits="userSpaceOnUse"
       id="linearGradient24278"
       xlink:href="#linearGradient18994"
       inkscape:collect="always" />
    <linearGradient
       y2="268.14996"
       x2="335.55469"
       y1="441.31317"
       x1="596.68677"
       gradientTransform="translate(-44.31558,3.692965)"
       gradientUnits="userSpaceOnUse"
       id="linearGradient24276"
       xlink:href="#linearGradient17217"
       inkscape:collect="always" />
    <linearGradient
       id="linearGradient13697"
       inkscape:collect="always">
      <stop
         id="stop13699"
         offset="0"
         style="stop-color:#ffffff;stop-opacity:1;" />
      <stop
         id="stop13701"
         offset="1"
         style="stop-color:#ffffff;stop-opacity:0;" />
    </linearGradient>
    <linearGradient
       id="linearGradient15453"
       inkscape:collect="always">
      <stop
         id="stop15455"
         offset="0"
         style="stop-color:#ffffff;stop-opacity:1;" />
      <stop
         id="stop15457"
         offset="1"
         style="stop-color:#ffffff;stop-opacity:0;" />
    </linearGradient>
    <linearGradient
       id="linearGradient16336"
       inkscape:collect="always">
      <stop
         id="stop16338"
         offset="0"
         style="stop-color:#ffffff;stop-opacity:1;" />
      <stop
         id="stop16340"
         offset="1"
         style="stop-color:#ffffff;stop-opacity:0;" />
    </linearGradient>
    <linearGradient
       id="linearGradient17217">
      <stop
         id="stop17219"
         offset="0"
         style="stop-color:#000000;stop-opacity:1;" />
      <stop
         id="stop17221"
         offset="1"
         style="stop-color:#000000;stop-opacity:0;" />
    </linearGradient>
    <linearGradient
       id="linearGradient18994"
       inkscape:collect="always">
      <stop
         id="stop18996"
         offset="0"
         style="stop-color:#000000;stop-opacity:1;" />
      <stop
         id="stop18998"
         offset="1"
         style="stop-color:#000000;stop-opacity:0;" />
    </linearGradient>
    <linearGradient
       id="linearGradient21631"
       inkscape:collect="always">
      <stop
         id="stop21633"
         offset="0"
         style="stop-color:#ffffff;stop-opacity:1;" />
      <stop
         id="stop21635"
         offset="1"
         style="stop-color:#ffffff;stop-opacity:0;" />
    </linearGradient>
    <linearGradient
       id="linearGradient26106"
       inkscape:collect="always">
      <stop
         id="stop26108"
         offset="0"
         style="stop-color:#ffffff;stop-opacity:1;" />
      <stop
         id="stop26110"
         offset="1"
         style="stop-color:#ffffff;stop-opacity:0;" />
    </linearGradient>
    <linearGradient
       id="linearGradient27862"
       inkscape:collect="always">
      <stop
         id="stop27864"
         offset="0"
         style="stop-color:#ffffff;stop-opacity:1;" />
      <stop
         id="stop27866"
         offset="1"
         style="stop-color:#ffffff;stop-opacity:0;" />
    </linearGradient>
    <linearGradient
       id="linearGradient28753"
       inkscape:collect="always">
      <stop
         id="stop28755"
         offset="0"
         style="stop-color:#ffffff;stop-opacity:1;" />
      <stop
         id="stop28757"
         offset="1"
         style="stop-color:#ffffff;stop-opacity:0;" />
    </linearGradient>
    <inkscape:perspective
       id="perspective3903"
       inkscape:persp3d-origin="272.75766 : 242.92464 : 1"
       inkscape:vp_z="545.51532 : 364.38696 : 1"
       inkscape:vp_y="0 : 1000 : 0"
       inkscape:vp_x="0 : 364.38696 : 1"
       sodipodi:type="inkscape:persp3d" />
  </defs>
  <sodipodi:namedview
     id="base"
     pagecolor="#ffffff"
     bordercolor="#666666"
     borderopacity="1.0"
     gridtolerance="10000"
     guidetolerance="10"
     objecttolerance="10"
     inkscape:pageopacity="0.0"
     inkscape:pageshadow="2"
     inkscape:zoom="1.6658857"
     inkscape:cx="92.026058"
     inkscape:cy="23.28863"
     inkscape:document-units="px"
     inkscape:current-layer="g2220"
     showgrid="false"
     inkscape:window-width="1024"
     inkscape:window-height="742"
     inkscape:window-x="29"
     inkscape:window-y="84"
     inkscape:window-maximized="0" />
  <metadata
     id="metadata4823">
    <rdf:RDF>
      <cc:Work
         rdf:about="">
        <dc:format>image/svg+xml</dc:format>
        <dc:type
           rdf:resource="http://purl.org/dc/dcmitype/StillImage" />
      </cc:Work>
    </rdf:RDF>
  </metadata>
  <g
     inkscape:label="Layer 1"
     inkscape:groupmode="layer"
     id="layer1"
     transform="translate(-459.80074,-348.74398)">
    <path
       style="fill:#ffffff;fill-opacity:1;fill-rule:evenodd;stroke:#383838;stroke-width:3.22199999999999998;stroke-linecap:butt;stroke-linejoin:miter;stroke-miterlimit:4;stroke-dasharray:none;stroke-opacity:1"
       d="M 509.03431,412.36914 C 481.19633,413.15928 459.36035,458.74535 469.65782,474.20409 C 479.95526,489.66282 540.38003,489.66282 550.22416,474.20409 C 560.06828,458.74535 537.77809,411.55328 509.03431,412.36914 z"
       id="path7471"
       sodipodi:nodetypes="cssz" />
    <path
       style="fill:#ff8080;fill-rule:evenodd;stroke:#383838;stroke-width:3.47866367999999992;stroke-linecap:butt;stroke-linejoin:miter;stroke-miterlimit:4;stroke-dasharray:none;stroke-opacity:1;fill-opacity:1"
       d="M 488.31049,421.67525 L 534.71338,421.67525 C 534.71338,421.67525 535.45384,467.77778 518.91665,467.77778 C 503.36674,467.77778 488.31049,421.67525 488.31049,421.67525 z"
       id="path7473"
       sodipodi:nodetypes="cczc" />
    <path
       d="m 493.76054,437.69333 c -3.00389,3.083 -6.63297,7.5069 -6.63297,12.10912 0,6.28285 7.60065,5.11785 11.62969,6.40092 -4.98616,6.672 -9.18412,6.66237 -1.7946,13.33558 3.35814,3.03481 7.00715,5.7359 10.71715,8.29242 2.47256,1.70594 10.19401,8.53336 13.07359,8.17434 2.34822,-0.29035 6.13094,-4.74196 7.80004,-6.32984 3.93756,-3.74081 7.55138,-7.86955 10.81216,-12.24286 4.75157,-6.37442 8.13081,-10.49472 -0.89144,-13.74399 5.65709,-3.73839 6.80188,-6.38768 1.82158,-11.86094 -1.40518,-1.54571 -4.03257,-4.65762 -6.26233,-4.85641 -2.40921,-0.21565 -1.93652,8.21652 -2.15468,9.86945 -1.49316,11.29711 -5.09056,22.85324 -11.37165,32.35163 -8.85804,-13.86688 -18.46442,-27.73014 -25.63811,-42.61865 -0.36831,0.37468 -0.7366,0.74696 -1.10843,1.11923 m 3.59036,22.9737 c 6.14974,-5.18049 3.26312,-6.58043 -3.2115,-7.61894 -7.98303,-1.28067 -3.54931,-8.28519 0.16773,-12.5344 7.67807,14.68972 16.92904,28.71322 25.97357,42.54636 -7.00128,-4.08416 -13.86297,-8.5659 -20.1077,-13.80663 -3.80854,-3.20107 -7.3989,-4.78895 -2.8221,-8.58639 m 24.02063,21.31115 c 8.77828,-11.58746 12.65484,-27.75424 13.41021,-42.09579 2.83852,2.09027 9.6404,7.49967 4.76214,10.51642 -9.43395,5.83227 1.3266,3.37937 2.98044,7.68401 -0.56183,3.85164 -5.35799,8.54301 -7.65108,11.33926 -4.01146,4.89738 -8.9378,10.85497 -14.41543,13.7476 0.3038,-0.39756 0.60876,-0.79514 0.91372,-1.1915"
       id="path108"
       style="fill:#383838;fill-opacity:1;stroke-width:3.20000005;stroke-miterlimit:4;stroke-dasharray:none;overflow:visible" />
    <g
       transform="matrix(-0.08287732,0.08949206,-0.08949206,-0.08287732,590.85468,449.55124)"
       id="g2220">
      <path
         style="fill:#b1b7c5;fill-opacity:1;fill-rule:evenodd;stroke:#8f9088;stroke-width:3;stroke-linecap:butt;stroke-linejoin:miter;stroke-miterlimit:4;stroke-opacity:1;stroke-dasharray:none"
         d="m 386.76825,65.50732 3.91698,-7.83396 c 11.31572,5.22264 24.58994,9.79246 37.21132,16.97359 15.45031,7.83396 12.62138,35.25282 11.09811,45.04527 -21.86981,100.86226 -60.06038,159.94338 -97.59811,208.57923 l -9.79245,-6.5283 c 46.56855,-63.43333 78.77483,-128.17232 92.70188,-190.95282 2.82893,-13.0566 11.53333,-42.43395 -1.95849,-49.61508 -9.90126,-5.87547 -25.67798,-12.40378 -35.57924,-15.66793 z"
         id="path24290"
         sodipodi:nodetypes="ccccccccc" />
      <path
         style="fill:url(#linearGradient24345);fill-opacity:1;fill-rule:evenodd;stroke:#8f9088;stroke-width:3;stroke-linecap:butt;stroke-linejoin:miter;stroke-miterlimit:4;stroke-opacity:1;stroke-dasharray:none"
         d="m 476.20597,126.22053 5.87548,-3.91699 c -4.13459,-5.65786 -12.839,-17.84402 -18.93208,-23.50188 -6.96352,-5.87547 -24.37232,-5.22264 -35.90565,2.61132 -104.10383,58.92853 -149.71571,119.2503 -180.83395,150.80376 l 9.13962,9.13962 c 64.63019,-69.4176 113.15723,-118.16225 178.87546,-154.06791 5.87547,-2.82893 18.27924,-6.31069 26.76603,0 4.13459,4.56981 12.18616,14.36227 15.01509,18.93208 z"
         id="path24292"
         sodipodi:nodetypes="ccccccccc" />
      <path
         style="fill:#000000;fill-opacity:1;fill-rule:evenodd;stroke:#000000;stroke-width:1px;stroke-linecap:butt;stroke-linejoin:miter;stroke-opacity:1"
         d="m 372.40599,67.79223 c 7.83396,5.00503 17.62641,1.52327 20.89056,-3.91698 1.44649,-4.0962 -0.49581,-15.96405 -11.09811,-15.66793 -6.96352,-1.30566 -7.61636,-10.8805 -18.93208,-12.40377 -9.13962,0 -13.0566,9.79246 -13.70943,15.0151 0,6.09308 1.95849,11.53333 7.18113,16.32075 6.96352,1.74088 11.31573,-1.08805 15.66793,0.65283 z"
         id="path24294"
         sodipodi:nodetypes="ccccccc" />
      <path
         style="fill:#b1b7c5;fill-opacity:1;fill-rule:evenodd;stroke:none"
         d="m 476.11892,126.98857 5.87548,-3.91699 C 477.85981,117.41372 469.1554,105.22756 463.06232,99.5697 456.0988,93.69423 438.69,94.34706 427.15667,102.18102 323.05284,161.10955 277.44096,221.43132 246.32272,252.98478 l 9.13962,9.13962 c 64.63019,-69.4176 113.15723,-118.16225 178.87546,-154.06791 5.87547,-2.82893 18.27924,-6.31069 26.76603,0 4.13459,4.56981 12.18616,14.36227 15.01509,18.93208 z"
         id="path24296"
         sodipodi:nodetypes="ccccccccc" />
      <path
         style="fill:#000000;fill-opacity:1;fill-rule:evenodd;stroke:#000000;stroke-width:1px;stroke-linecap:butt;stroke-linejoin:miter;stroke-opacity:1"
         d="m 473.92107,121.3243 c -4.3522,3.26415 -2.82893,16.32075 2.61132,20.23773 2.39371,5.65786 0.87044,9.13963 3.91698,13.05661 3.04654,3.91698 12.839,5.65786 18.93208,2.61132 5.87547,-5.22264 6.6371,-14.79749 3.91698,-19.58491 -2.72013,-4.78742 -6.74592,-3.69937 -11.75095,-9.79245 -4.78742,-10.29925 -13.49182,-8.22095 -17.62641,-6.5283 z"
         id="path24298"
         sodipodi:nodetypes="cczczcc" />
      <path
         style="fill:#000000;fill-opacity:1;fill-rule:evenodd;stroke:#000000;stroke-width:1px;stroke-linecap:butt;stroke-linejoin:miter;stroke-opacity:1"
         d="m 240.93991,251.4519 c 1.90569,-2.3345 5.42705,-2.82252 8.94841,-1.00244 0.98245,2.88173 4.50381,5.99427 7.10193,7.26033 2.2553,2.78933 3.12574,4.88624 0.53403,8.13719 -18.93207,21.761 -33.01714,37.52094 -49.6411,60.6668 -9.23241,15.02868 -8.30917,27.74926 -2.30811,39.08498 4.49702,7.86676 16.37997,18.96488 26.41643,23.13868 17.24399,4.99222 33.79556,-0.40202 48.26983,-9.25842 15.66792,-18.71446 30.41261,-37.42893 46.08053,-56.14339 2.61132,-4.10179 6.37669,-4.27979 8.06477,-0.99565 2.1893,2.48611 3.68617,3.35655 5.64466,4.22699 2.73012,1.18686 4.537,3.52777 2.88173,6.3303 -16.92078,30.4822 -30.84103,49.42388 -53.30126,73.44339 -19.03767,15.83991 -32.07429,18.75445 -53.42006,17.05278 -10.03646,-1.22005 -20.53455,-2.4401 -28.26291,5.57226 -30.44166,28.76694 -54.08252,53.35535 -65.0126,109.84347 -14.87615,76.88199 86.28983,135.18813 121.92549,153.16554 38.54848,19.44686 72.23421,33.6406 123.16721,29.05551 47.26867,-4.25522 72.38259,-15.2393 123.46015,-38.65978 54.1098,-24.81084 76.3232,-47.85382 93.56111,-78.93081 18.78246,-33.86156 55.22448,-39.12548 31.50421,-72.29422 5.0216,-3.39271 31.70923,16.48197 36.75,22.1071 26.51562,33.81395 -12.83953,-2.13611 -16.06625,22.09619 -4.63031,34.77305 -25.54324,57.19772 -57.88581,93.78355 -30.55301,34.56147 -125.78635,83.79934 -183.00393,91.50918 -57.21757,7.70985 -96.21897,-0.75313 -131.72417,-13.90255 -36.8513,-13.64795 -104.67716,-46.70724 -140.34159,-93.75005 -26.59206,-35.07598 -41.29996,-81.09497 -14.86464,-153.9559 12.8454,-30.05979 31.23025,-60.5812 47.76861,-92.02585 6.35708,-8.40119 8.55959,-15.87913 5.68426,-25.66517 -3.29055,-6.88432 -7.96596,-11.92216 -8.48679,-19.72972 -1.07525,-17.67468 5.69707,-37.65748 13.39262,-47.94623 14.79748,-16.42956 38.36576,-45.7845 53.16324,-62.21406 z"
         id="path24300"
         sodipodi:nodetypes="cccccccccccccccszsssccssssscccccc" />
      <path
         style="fill:url(#linearGradient24334);fill-opacity:1;fill-rule:evenodd;stroke:none"
         d="m 474.04868,121.38361 c -4.3522,3.26415 -2.82893,16.32075 2.61132,20.23773 2.39371,5.65786 0.87044,9.13963 3.91698,13.05661 3.04654,3.91698 12.839,5.65786 18.93208,2.61132 5.87547,-5.22264 6.6371,-14.79749 3.91698,-19.58491 -2.72013,-4.78742 -6.74592,-3.69937 -11.75095,-9.79245 -4.78742,-10.29925 -13.49182,-8.22095 -17.62641,-6.5283 z"
         id="path24306"
         sodipodi:nodetypes="cczczcc" />
      <path
         style="fill:url(#linearGradient24331);fill-opacity:1;fill-rule:evenodd;stroke:none"
         d="m 372.56315,67.56222 c 7.83396,5.00503 17.62641,1.52327 20.89056,-3.91698 1.44649,-4.0962 -0.49581,-15.96405 -11.09811,-15.66793 -6.96352,-1.30566 -7.61636,-10.8805 -18.93208,-12.40377 -9.13962,0 -13.0566,9.79246 -13.70943,15.0151 0,6.09308 1.95849,11.53333 7.18113,16.32075 6.96352,1.74088 11.31573,-1.08805 15.66793,0.65283 z"
         id="path24308"
         sodipodi:nodetypes="ccccccc" />
      <path
         style="fill:url(#radialGradient24328);fill-opacity:1;fill-rule:evenodd;stroke:none"
         d="m 447.80786,123.60491 5.87548,-3.91699 c -4.13459,-5.65786 -12.839,-17.84402 -18.93208,-23.50188 -6.96352,-5.87547 -24.37232,-5.22264 -35.90565,2.61132 -104.10383,58.92853 -149.71571,119.2503 -180.83395,150.80376 l 9.13962,9.13962 c 64.63019,-69.4176 113.15723,-118.16225 178.87546,-154.06791 5.87547,-2.82893 18.27924,-6.31069 26.76603,0 4.13459,4.56981 12.18616,14.36227 15.01509,18.93208 z"
         id="path24310"
         sodipodi:nodetypes="ccccccccc" />
      <path
         style="opacity:0.23012552;fill:#ffffff;fill-opacity:1;fill-rule:evenodd;stroke:none"
         d="m 229.16611,279.84146 c -17.38959,24.08909 -28.5605,41.27337 -32.25908,52.65522 -5.53945,23.33785 -0.22402,34.05354 5.77704,45.38926 4.49702,7.86676 13.67586,11.42055 23.71232,15.59435 17.24399,4.99222 38.47738,5.36144 51.10517,-5.34144 19.36088,-16.86798 24.52353,-22.70308 37.64012,-37.44213 -16.92078,30.4822 -35.57721,48.55501 -50.65151,54.10969 -16.26795,1.99129 -25.74281,3.98258 -51.70479,-1.41205 -10.03646,-1.22005 -58.36823,79.71068 -69.54351,90.22366 7.10396,-18.21155 58.11656,-89.75486 55.24123,-99.5409 -3.29054,-6.88432 -6.6603,-11.92216 -9.95085,-19.72972 -4.76821,-15.8282 -4.4314,-28.51786 -1.35207,-39.72985 2.79534,-9.04363 18.15327,-31.66866 41.98593,-54.77609 z"
         id="path24312"
         sodipodi:nodetypes="ccccccccccccc" />
      <path
         style="fill:url(#radialGradient26112);fill-opacity:1;fill-rule:evenodd;stroke:none"
         d="m 240.16812,251.94721 c 1.90569,-2.3345 5.42705,-2.82252 8.94841,-1.00244 0.98245,2.88173 4.50381,5.99427 7.10193,7.26033 2.2553,2.78933 3.12574,4.88624 0.53403,8.13719 -18.93207,21.761 -33.01714,37.52094 -49.6411,60.6668 -9.23241,15.02868 -8.30917,27.74926 -2.30811,39.08498 4.49702,7.86676 16.37997,18.96488 26.41643,23.13868 17.24399,4.99222 33.79556,-0.40202 48.26983,-9.25842 15.66792,-18.71446 30.41261,-37.42893 46.08053,-56.14339 2.61132,-4.10179 6.37669,-4.27979 8.06477,-0.99565 2.1893,2.48611 3.68617,3.35655 5.64466,4.22699 2.73012,1.18686 4.537,3.52777 2.88173,6.3303 -16.92078,30.4822 -30.84103,49.42388 -53.30126,73.44339 -19.03767,15.83991 -32.07429,18.75445 -53.42006,17.05278 -10.03646,-1.22005 -20.53455,-2.4401 -28.26291,5.57226 -30.44166,28.76694 -54.08252,53.35535 -65.0126,109.84347 -14.87615,76.88199 86.28983,135.18813 121.92549,153.16554 38.54848,19.44686 72.23421,33.6406 123.16721,29.05551 47.26867,-4.25522 72.38259,-15.2393 123.46015,-38.65978 54.1098,-24.81084 76.3232,-47.85382 93.56111,-78.93081 18.78246,-33.86156 27.80361,-73.26179 4.08334,-106.43053 -2.43559,-13.25584 23.73201,-13.86096 29.39095,-13.00059 26.51562,33.81395 21.94039,67.10789 18.71367,91.34019 -4.63031,34.77305 -25.54324,57.19772 -57.88581,93.78355 -30.55301,34.56147 -125.78635,83.79934 -183.00393,91.50918 -57.21757,7.70985 -96.21897,-0.75313 -131.72417,-13.90255 -36.8513,-13.64795 -104.67716,-46.70724 -140.34159,-93.75005 -26.59206,-35.07598 -41.29996,-81.09497 -14.86464,-153.9559 12.8454,-30.05979 31.23026,-60.5812 47.76861,-92.02585 6.35708,-8.40119 8.55959,-15.87913 5.68426,-25.66517 -3.29055,-6.88432 -7.96596,-11.92216 -8.48679,-19.72972 -1.07525,-17.67468 5.69707,-37.65748 13.39262,-47.94623 14.79748,-16.42956 38.36576,-45.7845 53.16324,-62.21406 z"
         id="path24350"
         sodipodi:nodetypes="cccccccccccccccszsssccssssscccccc" />
      <path
         sodipodi:type="arc"
         style="fill:#ababab;fill-opacity:1;stroke:#000000;stroke-width:3.7119813;stroke-miterlimit:4;stroke-opacity:1;stroke-dasharray:none"
         id="path24302"
         sodipodi:cx="390.39243"
         sodipodi:cy="650.21881"
         sodipodi:rx="40.475468"
         sodipodi:ry="34.599998"
         d="m 430.86789,650.21881 a 40.475468,34.599998 0 1 1 -80.95093,0 40.475468,34.599998 0 1 1 80.95093,0 z"
         transform="matrix(1.270735,0,0,1.42782,159.58461,-376.20757)" />
      <path
         sodipodi:type="arc"
         style="fill:url(#radialGradient27868);fill-opacity:1;stroke:none"
         id="path26114"
         sodipodi:cx="390.39243"
         sodipodi:cy="650.21881"
         sodipodi:rx="40.475468"
         sodipodi:ry="34.599998"
         d="m 430.86789,650.21881 a 40.475468,34.599998 0 1 1 -80.95093,0 40.475468,34.599998 0 1 1 80.95093,0 z"
         transform="matrix(1.198154,0,0,1.381768,187.08747,-346.53267)" />
      <path
         sodipodi:type="arc"
         style="fill:#9f999b;fill-opacity:1;stroke:#000000;stroke-width:9.11101818;stroke-miterlimit:4;stroke-opacity:1;stroke-dasharray:none"
         id="path24304"
         sodipodi:cx="395.61505"
         sodipodi:cy="647.60748"
         sodipodi:rx="34.599998"
         sodipodi:ry="28.071695"
         d="m 430.21505,647.60748 a 34.599998,28.071695 0 1 1 -69.2,0 34.599998,28.071695 0 1 1 69.2,0 z"
         transform="matrix(1.018544,0,0,1.182732,252.71884,-218.98147)" />
      <path
         sodipodi:type="arc"
         style="fill:url(#radialGradient28759);fill-opacity:1;stroke:none"
         id="path27870"
         sodipodi:cx="395.61505"
         sodipodi:cy="647.60748"
         sodipodi:rx="34.599998"
         sodipodi:ry="28.071695"
         d="m 430.21505,647.60748 a 34.599998,28.071695 0 1 1 -69.2,0 34.599998,28.071695 0 1 1 69.2,0 z"
         transform="matrix(1.018544,0,0,1.182732,252.79124,-218.61697)" />
      <path
         sodipodi:type="arc"
         style="fill:#000000;fill-opacity:1;stroke:none"
         id="path29638"
         sodipodi:cx="406.38675"
         sodipodi:cy="379.29431"
         sodipodi:rx="4.2433958"
         sodipodi:ry="4.2433958"
         d="m 410.63015,379.29431 a 4.2433958,4.2433958 0 1 1 -8.4868,0 4.2433958,4.2433958 0 1 1 8.4868,0 z"
         transform="translate(249.02934,166.40274)" />
      <path
         style="opacity:0.23012552;fill:#ffffff;fill-opacity:1;fill-rule:evenodd;stroke:none"
         d="m 633.54631,528.39705 c -9.07401,7.10193 -8.7804,25.40437 -4.89622,31.33585 20.12893,-7.39874 35.03522,-7.94278 53.20565,0.97923 4.02579,-7.50754 5.76667,-17.6264 -0.97925,-28.72451 -22.32182,7.22112 -32.85591,3.96017 -47.33018,-3.59057 z"
         id="path30513"
         sodipodi:nodetypes="ccccc" />
    </g>
    <path
       sodipodi:type="arc"
       style="fill:#ffccaa;fill-rule:evenodd;stroke:#383838;stroke-width:5;stroke-linecap:butt;stroke-linejoin:miter;stroke-miterlimit:4;stroke-dasharray:none;stroke-opacity:1"
       id="path7475"
       sodipodi:cx="450.37299"
       sodipodi:cy="320.73038"
       sodipodi:rx="46.590309"
       sodipodi:ry="46.590309"
       d="m 496.96329,320.73038 c 0,25.73111 -20.85919,46.59031 -46.5903,46.59031 -25.73112,0 -46.59031,-20.8592 -46.59031,-46.59031 0,-25.73112 20.85919,-46.59031 46.59031,-46.59031 25.58387,0 46.38157,20.62993 46.58878,46.21297"
       sodipodi:start="0"
       sodipodi:end="6.2750861"
       sodipodi:open="true"
       transform="matrix(0.7431784,0,0,0.82978,176.8726,136.31927)" />
    <path
       style="fill:#d38d5f;fill-rule:evenodd;stroke:#383838;stroke-width:4.07852221;stroke-linecap:butt;stroke-linejoin:miter;stroke-miterlimit:4;stroke-dasharray:none;stroke-opacity:1"
       d="M 498.61036,391.45181 C 498.61036,391.45181 514.71485,408.47398 531.24324,407.14585 C 547.79674,405.81572 558.94844,398.10254 558.94844,398.10254 C 558.94844,398.10254 550.41094,351.56395 512.26924,350.79331 C 482.40898,350.16785 467.70653,378.83196 463.34839,398.10254 C 458.93423,417.62079 464.98961,417.54662 471.44182,415.88394 C 477.89404,414.22125 498.61036,391.45181 498.61036,391.45181 z"
       id="path7477"
       sodipodi:nodetypes="czcszsc" />
  </g>
</svg>
