<?xml version="1.0" encoding="UTF-8" standalone="no"?>
<!-- Created with Inkscape (http://www.inkscape.org/) -->

<svg
   xmlns:svg="http://www.w3.org/2000/svg"
   xmlns="http://www.w3.org/2000/svg"
   version="1.1"
   width="200"
   height="200"
   id="svg2">
  <defs
     id="defs4" />
  <g
     id="g2822">
    <rect
       width="200"
       height="200"
       x="0"
       y="0"
       id="rect1873"
       style="fill:#000000;fill-opacity:1;fill-rule:evenodd;stroke:none" />
    <rect
       width="198"
       height="198"
       x="1"
       y="1"
       id="rect1875"
       style="fill:#00408b;fill-opacity:1;fill-rule:evenodd;stroke:none" />
    <path
       d="m 124.84986,22.636712 0,16.372206 -16.3722,0 0,23.113702 16.3722,0 0,16.372206 23.1137,0 0,-16.372206 16.37221,0 0,-23.113702 -16.37221,0 0,-16.372206 -23.1137,0 z"
       id="rect1883"
       style="fill:#d40000;fill-opacity:1;fill-rule:evenodd;stroke:#ffffff;stroke-width:2.70000005;stroke-linecap:butt;stroke-linejoin:miter;stroke-miterlimit:4;stroke-opacity:1;stroke-dasharray:none" />
    <path
       d="M 38.854297,84.433378 82.68992,71.731012 c 3.053667,-0.818228 5.72851,2.554919 5.72851,5.728518 l 0,37.60897 c 0,0 -55.292651,18.67995 -55.292651,18.67995 l 0,-42.714823 c 0,-3.173599 2.693855,-5.787114 5.728518,-6.600249 z"
       id="rect3662"
       style="fill:#ffffff;fill-opacity:1;fill-rule:evenodd;stroke:none" />
    <path
       d="m 88.84375,89.28125 68.59375,35.34375 -38.0625,16.40625 -0.75,0.3125 -0.21875,0.78125 -5.625,19.71875 -67.5,-38.78125 0,-20.9375 43.5625,-12.84375 z"
       id="rect7228"
       style="fill:#ffffff;fill-opacity:1;fill-rule:evenodd;stroke:none" />
    <path
       d="M 88.3125,83.625 41.875,97.25 l 0,26.78125 0,1 0.875,0.46875 70.21875,40.34375 1.90625,1.09375 0.59375,-2.09375 6,-21.03125 40.59375,-17.46875 3.3125,-1.4375 -3.1875,-1.625 L 112.4375,97.625 115.25,96.78125 111.34375,94.875 88.3125,83.625 z m 0.53125,5.65625 14.53125,7.5 -39.40625,11.75 -14.34375,-7.6875 39.21875,-11.5625 z m 18.90625,9.75 49.6875,25.59375 -38.0625,16.40625 -0.75,0.3125 -0.21875,0.78125 -5.625,19.71875 -67.5,-38.78125 0,-20.6875 18.28125,9.78125 44.1875,-13.125 z"
       id="path9940"
       style="fill:#00408b;fill-opacity:1;fill-rule:evenodd;stroke:none" />
    <path
       d="M 88,87.25 105.9375,96 63.96875,108.53125 46.8125,99.34375 88,87.25 z"
       id="rect5437"
       style="fill:#ffffff;fill-opacity:1;fill-rule:evenodd;stroke:none" />
    <path
       d="m 120.29888,136.9863 41.09589,-11.95517 c 3.60395,-0.96567 6.22665,2.77709 6.22665,6.22665 l 0,32.12952 c 0,0 -7.22291,2.49066 -7.22291,2.49066 l 0,-15.33906 -37.85803,11.46069 0,13.09382 c 0,0 -8.46825,2.73972 -8.46825,2.73972 l 0,-33.56348 c 0,-3.44956 2.63511,-6.321 6.22665,-7.28335 z"
       id="rect7233"
       style="fill:#ffffff;fill-opacity:1;fill-rule:evenodd;stroke:#00408b;stroke-width:3.4000001;stroke-linecap:butt;stroke-linejoin:miter;stroke-miterlimit:4;stroke-opacity:1" />
  </g>
  <rect
     width="194.80612"
     height="194.80614"
     ry="18.580454"
     x="2.7485285"
     y="2.6374631"
     id="rect4614"
     style="fill:none;stroke:#ffffff;stroke-width:3.17199993;stroke-miterlimit:4;stroke-opacity:1;stroke-dasharray:none" />
</svg>
