<?xml version="1.0" encoding="utf-8"?>
<!DOCTYPE svg PUBLIC "-//W3C//DTD SVG 1.1//EN" "http://www.w3.org/Graphics/SVG/1.1/DTD/svg11.dtd">
<svg version="1.1" id="Capa_1" xmlns="http://www.w3.org/2000/svg" xmlns:xlink="http://www.w3.org/1999/xlink" x="0px" y="0px"
	 width="97px" height="97px" viewBox="0 0 97 97" enable-background="new 0 0 97 97" xml:space="preserve">
  <g>
    <path fill="#FBB579" d="M-118.606,70.244L-118.606,70.244"/>
    <linearGradient id="SVGID_1_" gradientUnits="userSpaceOnUse" x1="-5732.9473" y1="479.6787" x2="-5732.9473" y2="479.6787" gradientTransform="matrix(1 0 0 -1 5615.1445 551.2305)">
      <stop  offset="0" style="stop-color:#FCBA74"/>
      <stop  offset="1" style="stop-color:#FFFFFF"/>
    </linearGradient>
    <path fill="url(#SVGID_1_)" d="M-117.803,71.552L-117.803,71.552"/>
  </g>
  <g>
    <path fill="#FBB579" d="M-87.203,70.051L-87.203,70.051"/>
    <linearGradient id="SVGID_2_" gradientUnits="userSpaceOnUse" x1="-5701.5444" y1="479.873" x2="-5701.5444" y2="479.873" gradientTransform="matrix(1 0 0 -1 5615.1445 551.2305)">
      <stop  offset="0" style="stop-color:#FCBA74"/>
      <stop  offset="1" style="stop-color:#FFFFFF"/>
    </linearGradient>
    <path fill="url(#SVGID_2_)" d="M-86.4,71.357L-86.4,71.357"/>
  </g>
  <linearGradient id="SVGID_3_" gradientUnits="userSpaceOnUse" x1="-3695.0767" y1="599.9883" x2="-3695.0767" y2="516.0303" gradientTransform="matrix(1 0 0 1 3743.4297 -515.1797)">
    <stop  offset="0" style="stop-color:#0A6B73"/>
    <stop  offset="0.3978" style="stop-color:#33A9AF"/>
  </linearGradient>
  <path fill="url(#SVGID_3_)" stroke="#17717A" stroke-width="1.7794" stroke-linecap="round" stroke-linejoin="round" stroke-miterlimit="22.9256" d="
	M88.126,9.843h0.004l-0.015-0.012c-0.149-0.154-0.313-0.295-0.493-0.415L77.438,0.85H18.692L8.571,9.843
	c-0.521,0.543-0.838,1.278-0.838,2.089v69.852c0,1.67,1.358,3.024,3.033,3.024h75.175c1.675,0,3.031-1.354,3.031-3.024V11.932
	C88.973,11.119,88.646,10.386,88.126,9.843z"/>
  <g>
    <linearGradient id="SVGID_4_" gradientUnits="userSpaceOnUse" x1="-3695.0771" y1="561.458" x2="-3695.0771" y2="531.5576" gradientTransform="matrix(1 0 0 1 3743.4297 -515.1797)">
      <stop  offset="0" style="stop-color:#0A6D76"/>
      <stop  offset="0.6684" style="stop-color:#35A9AF"/>
    </linearGradient>
    <path fill="url(#SVGID_4_)" stroke="#18717A" stroke-width="1.7302" stroke-linecap="round" stroke-linejoin="round" stroke-miterlimit="22.9256" d="
		M80.054,43.563c0,1.5-1.217,2.715-2.721,2.715h-57.96c-1.503,0-2.722-1.216-2.722-2.715v-24.47c0-1.5,1.219-2.715,2.722-2.715
		h57.96c1.504,0,2.721,1.215,2.721,2.715V43.563z"/>
    <linearGradient id="SVGID_5_" gradientUnits="userSpaceOnUse" x1="-3681.585" y1="569.9785" x2="-3708.5415" y2="523.2884" gradientTransform="matrix(1 0 0 1 3743.4297 -515.1797)">
      <stop  offset="0.5" style="stop-color:#FFFFFF;stop-opacity:0"/>
      <stop  offset="1" style="stop-color:#FFFFFF;stop-opacity:0.95"/>
    </linearGradient>
    <path fill="url(#SVGID_5_)" d="M79.263,43.508c0,1.234-1.092,2.235-2.438,2.235H19.909c-1.347,0-2.439-1.001-2.439-2.235V19.399
		c0-1.235,1.093-2.235,2.439-2.235h56.914c1.348,0,2.438,1,2.438,2.235L79.263,43.508L79.263,43.508z"/>
  </g>
  <path fill="#095860" d="M81.26,80.77c0,1.654-1.344,2.993-3,2.993H18.445c-1.657,0-3-1.339-3-2.993V56.867
	c0-1.652,1.343-2.993,3-2.993H78.26c1.656,0,3,1.341,3,2.993V80.77z"/>
  <g>
    <linearGradient id="SVGID_6_" gradientUnits="userSpaceOnUse" x1="-3724.4712" y1="644.8906" x2="-3688.179" y2="555.0638" gradientTransform="matrix(1 0 0 1 3743.4297 -515.1797)">
      <stop  offset="0" style="stop-color:#35A8AE"/>
      <stop  offset="0.1799" style="stop-color:#77BBC0"/>
      <stop  offset="0.3751" style="stop-color:#A6CFD3"/>
      <stop  offset="0.5609" style="stop-color:#CBE1E3"/>
      <stop  offset="0.7322" style="stop-color:#E6EFF0"/>
      <stop  offset="0.8839" style="stop-color:#F6FAFA"/>
      <stop  offset="1" style="stop-color:#FFFFFF"/>
    </linearGradient>
    <path fill="url(#SVGID_6_)" stroke="#17717A" stroke-width="1.6446" stroke-linecap="round" stroke-linejoin="round" stroke-miterlimit="22.9256" d="
		M75.204,44.536l-12.646-3.381l-18.854-5.041l-12.648-3.38c-1.506-0.402-3.074,0.521-3.484,2.05l-3.453,12.862l-9.063,33.74h53.188
		l5.499-20.479l3.454-12.857C77.605,46.518,76.71,44.938,75.204,44.536z"/>
    <g>
      <line fill="none" stroke="#17717A" stroke-width="2.4668" stroke-linecap="round" stroke-linejoin="round" stroke-miterlimit="22.9256" x1="33.76" y1="46.023" x2="65.691" y2="54.561"/>
      <line fill="none" stroke="#17717A" stroke-width="2.4668" stroke-linecap="round" stroke-linejoin="round" stroke-miterlimit="22.9256" x1="32.075" y1="52.293" x2="64.008" y2="60.831"/>
      <line fill="none" stroke="#17717A" stroke-width="2.4668" stroke-linecap="round" stroke-linejoin="round" stroke-miterlimit="22.9256" x1="30.391" y1="58.563" x2="47.125" y2="63.037"/>
    </g>
  </g>
  <g>
    <linearGradient id="SVGID_7_" gradientUnits="userSpaceOnUse" x1="-3695.0767" y1="611.3301" x2="-3695.0767" y2="578.2363" gradientTransform="matrix(1 0 0 1 3743.4297 -515.1797)">
      <stop  offset="0" style="stop-color:#056A72"/>
      <stop  offset="0.6684" style="stop-color:#35A9AF"/>
    </linearGradient>
    <path fill="url(#SVGID_7_)" stroke="#17717A" stroke-width="1.7302" stroke-linecap="round" stroke-linejoin="round" stroke-miterlimit="22.9256" d="
		M83.33,93.155c0,1.653-1.342,2.995-3.002,2.995H16.379c-1.659,0-3.003-1.342-3.003-2.995V66.052c0-1.655,1.343-2.995,3.003-2.995
		h63.949c1.66,0,3.002,1.342,3.002,2.995V93.155z"/>
    <linearGradient id="SVGID_8_" gradientUnits="userSpaceOnUse" x1="-3680.3071" y1="620.542" x2="-3710.0811" y2="568.972" gradientTransform="matrix(1 0 0 1 3743.4297 -515.1797)">
      <stop  offset="0.5" style="stop-color:#FFFFFF;stop-opacity:0"/>
      <stop  offset="1" style="stop-color:#FFFFFF;stop-opacity:0.95"/>
    </linearGradient>
    <path fill="url(#SVGID_8_)" d="M82.468,92.813c0,1.379-1.22,2.5-2.726,2.5H16.729c-1.505,0-2.727-1.121-2.727-2.5V66.339
		c0-1.378,1.221-2.496,2.727-2.496h63.013c1.506,0,2.726,1.12,2.726,2.496V92.813z"/>
  </g>
  <linearGradient id="SVGID_9_" gradientUnits="userSpaceOnUse" x1="-3676.5054" y1="542.8105" x2="-3713.8716" y2="505.4444" gradientTransform="matrix(1 0 0 1 3743.4297 -515.1797)">
    <stop  offset="0" style="stop-color:#FFFFFF;stop-opacity:0"/>
    <stop  offset="1" style="stop-color:#FFFFFF;stop-opacity:0.95"/>
  </linearGradient>
  <polygon fill="url(#SVGID_9_)" points="10.875,8.947 85.607,8.947 77.109,1.738 19.032,1.738 "/>
  <g>
    <path fill="#17717A" d="M65.641,81.777c0,1.736-1.406,3.144-3.145,3.144h-28.29c-1.735,0-3.143-1.405-3.143-3.144V81.46
		c0-1.735,1.408-3.144,3.143-3.144h28.29c1.738,0,3.145,1.408,3.145,3.144V81.777z"/>
    <path fill="#FBB579" d="M65.643,79.784c0,1.735-1.408,3.144-3.145,3.144H34.207c-1.737,0-3.143-1.406-3.143-3.144v-0.317
		c0-1.736,1.406-3.144,3.143-3.144h28.292c1.735,0,3.146,1.407,3.146,3.144v0.317H65.643z"/>
    <g>
      <linearGradient id="SVGID_10_" gradientUnits="userSpaceOnUse" x1="-6829.5771" y1="303.7031" x2="-6825.6836" y2="303.7031" gradientTransform="matrix(0 -1 -1 0 352.0547 -6749.3604)">
        <stop  offset="0" style="stop-color:#FCBA74"/>
        <stop  offset="1" style="stop-color:#FFFFFF"/>
      </linearGradient>
      <path fill="url(#SVGID_10_)" d="M61.889,76.323c0.875,0,1.582,0.872,1.582,1.946l0,0c0,1.075-0.707,1.947-1.582,1.947H34.813
			c-0.873,0-1.581-0.872-1.581-1.947l0,0c0-1.074,0.708-1.946,1.581-1.946H61.889z"/>
    </g>
  </g>
  <g>
    <path fill="#17717A" d="M63.584,29.227c0,1.592-1.289,2.881-2.881,2.881H36.002c-1.592,0-2.881-1.29-2.881-2.881l0,0
		c0-1.592,1.29-2.881,2.881-2.881h24.701C62.293,26.346,63.584,27.635,63.584,29.227L63.584,29.227z"/>
    <path fill="#FBB579" d="M63.584,27.131c0,1.592-1.289,2.881-2.881,2.881H36.002c-1.592,0-2.881-1.29-2.881-2.881l0,0
		c0-1.591,1.29-2.881,2.881-2.881h24.701C62.293,24.25,63.584,25.54,63.584,27.131L63.584,27.131z"/>
    <g>
      <linearGradient id="SVGID_11_" gradientUnits="userSpaceOnUse" x1="-6777.6602" y1="303.7012" x2="-6773.6104" y2="303.7012" gradientTransform="matrix(0 -1 -1 0 352.0547 -6749.3604)">
        <stop  offset="0" style="stop-color:#FCBA74"/>
        <stop  offset="1" style="stop-color:#FFFFFF"/>
      </linearGradient>
      <path fill="url(#SVGID_11_)" d="M59.914,24.25c0.848,0,1.531,0.907,1.531,2.024l0,0c0,1.119-0.685,2.026-1.531,2.026H36.792
			c-0.846,0-1.531-0.907-1.531-2.026l0,0c0-1.118,0.686-2.024,1.531-2.024H59.914z"/>
    </g>
  </g>
</svg>
