<svg xmlns="http://www.w3.org/2000/svg" viewBox="0 0 491.15 195.15"><defs><style>.cls-1{fill:#108498;}.cls-2{fill:#fff;}.cls-3{fill:#2feded;}</style></defs><g id="Capa_2" data-name="Capa 2"><g id="Capa_1-2" data-name="Capa 1"><rect class="cls-1" width="491.15" height="195.15" rx="15.91"/><path class="cls-2" d="M165.38,175.67v-22.3h8.07a6.25,6.25,0,0,1,4.41,1.63,5.17,5.17,0,0,1,1.83,4.07,4.52,4.52,0,0,1-2.85,4.48,5.27,5.27,0,0,1,4.48,5.53,6.29,6.29,0,0,1-1.95,4.74,6.64,6.64,0,0,1-4.83,1.85Zm4-13.31h3.52a2.69,2.69,0,0,0,2.88-2.75,2.65,2.65,0,0,0-2.84-2.62h-3.56Zm0,9.7h4.48a3.19,3.19,0,1,0,0-6.34h-4.45Z"/><path class="cls-2" d="M183.56,167.61a8.13,8.13,0,0,1,2.56-6.08,9.14,9.14,0,0,1,12.48,0,8.5,8.5,0,0,1,0,12.16,9.14,9.14,0,0,1-12.48,0A8.13,8.13,0,0,1,183.56,167.61Zm12.35,3.61a5,5,0,0,0,1.44-3.61,4.84,4.84,0,0,0-1.44-3.58,5,5,0,0,0-7.13,0,4.93,4.93,0,0,0-1.41,3.58,5.05,5.05,0,0,0,1.41,3.61,5.13,5.13,0,0,0,7.13,0Z"/><path class="cls-2" d="M203.14,167.61a8.16,8.16,0,0,1,2.56-6.08,9.14,9.14,0,0,1,12.48,0,8.5,8.5,0,0,1,0,12.16,9.14,9.14,0,0,1-12.48,0A8.16,8.16,0,0,1,203.14,167.61Zm12.36,3.61a5,5,0,0,0,1.43-3.61A4.87,4.87,0,0,0,215.5,164a5,5,0,0,0-7.14,0,4.93,4.93,0,0,0-1.41,3.58,5.05,5.05,0,0,0,1.41,3.61,5.15,5.15,0,0,0,7.14,0Z"/><path class="cls-2" d="M223.43,175.67v-22.3h3.81v13l5.95-6.84h4.42l-6.31,7.19,7,8.93h-4.35l-5.09-6.49-1.6,1.79v4.7Z"/><path class="cls-2" d="M250.85,167.61a8.13,8.13,0,0,1,2.57-6.08,9.13,9.13,0,0,1,12.47,0,8.5,8.5,0,0,1,0,12.16,9.13,9.13,0,0,1-12.47,0A8.13,8.13,0,0,1,250.85,167.61Zm12.36,3.61a5,5,0,0,0,1.44-3.61,4.84,4.84,0,0,0-1.44-3.58,5,5,0,0,0-7.14,0,4.93,4.93,0,0,0-1.41,3.58,5.05,5.05,0,0,0,1.41,3.61,5.15,5.15,0,0,0,7.14,0Z"/><path class="cls-2" d="M272.46,175.67V163h-2.63v-3.48h2.63v-.8c0-2.47.51-3.78,1.75-4.77a6.21,6.21,0,0,1,4-1.06,8.32,8.32,0,0,1,1.67.13v3.3a5,5,0,0,0-1.47-.16c-1.44,0-2.12.64-2.12,2.27v1.09h3V163h-3v12.64Z"/><path class="cls-2" d="M295.27,175.67v-22.3h4v18.69h8.86v3.61Z"/><path class="cls-2" d="M310,155.39a2.29,2.29,0,1,1,2.3,2.27A2.27,2.27,0,0,1,310,155.39Zm.38,20.28V159.55h3.84v16.12Z"/><path class="cls-2" d="M318.34,175.67V163h-2.62v-3.48h2.62v-.8c0-2.47.51-3.78,1.76-4.77a6.21,6.21,0,0,1,4-1.06,8.32,8.32,0,0,1,1.67.13v3.3a5.07,5.07,0,0,0-1.48-.16c-1.44,0-2.11.64-2.11,2.27v1.09h3V163h-3v12.64Z"/><path class="cls-2" d="M326.31,167.61a8.06,8.06,0,0,1,8.45-8.51,7.55,7.55,0,0,1,5.73,2.33,8,8,0,0,1,2.24,5.8c0,.47,0,.92-.07,1.34H330.12c.13,2.56,2,4.22,4.86,4.22a5.93,5.93,0,0,0,4.35-1.85l2.31,2.24a9,9,0,0,1-6.79,2.88,8.58,8.58,0,0,1-6.17-2.28,8,8,0,0,1-2.37-6Zm12.51-1.73a3.12,3.12,0,0,0-1.21-2.46,4.11,4.11,0,0,0-2.85-1.06,4.9,4.9,0,0,0-3.1,1,3.5,3.5,0,0,0-1.45,2.49Z"/><path class="cls-2" d="M293.54,108.1V21.94A4.56,4.56,0,0,0,289,17.39h-74.6a11.94,11.94,0,0,0-11.93,11.93v91a12,12,0,0,0,11.93,11.94h0v8.29a1.83,1.83,0,0,0,2.92,1.48l5-3.67,5,3.67a1.8,1.8,0,0,0,1.08.36,1.85,1.85,0,0,0,1.84-1.84v-8.29H289a4.57,4.57,0,0,0,4.56-4.56V107.85a1.84,1.84,0,0,0-3.67,0V127.7a.89.89,0,0,1-.89.89H230.3V124h52.32a1.84,1.84,0,0,0,0-3.67H211.35a1.84,1.84,0,1,0,0,3.67h3.06v4.59h0a8.27,8.27,0,0,1-8.26-8.27V118.2a8.26,8.26,0,0,1,8.26-8.26H291.7A1.84,1.84,0,0,0,293.54,108.1ZM226.63,124v12.94l-3.19-2.34a1.91,1.91,0,0,0-1.09-.35,1.85,1.85,0,0,0-1.08.35l-3.19,2.34V124Zm-20.51-14.39V29.32a8.27,8.27,0,0,1,8.26-8.27H289a.89.89,0,0,1,.89.89v84.33H214.38A11.85,11.85,0,0,0,206.12,109.61Z"/><path class="cls-2" d="M211.84,113.19a1.84,1.84,0,1,0,0,3.67h70.8a1.84,1.84,0,0,0,0-3.67Z"/><path class="cls-3" d="M245.67,37.39A23.22,23.22,0,0,1,261,42.73a31.3,31.3,0,0,1,9.13-1.26c6.11,0,11.65,2.52,11.26,6.79-.68,6.41-12.91,9.42-21.75,10.29a46.92,46.92,0,0,1-9,0c-6.11,9.42-15,15.24-17.37,16.8,1.45.19,4.37,1,9,2.23a36.28,36.28,0,0,0,7.09,1.07c5.92,0,10.58-1.07,15.92-6.12.2-.19.68-.58,1-.29s-.29.87-.77,1.36c-6.41,6.41-10.68,9.51-17,9.51a25.37,25.37,0,0,1-9.32-1.94c-3.5-1.26-7.48-2.91-9.22-3.2-3.31,2.43-7.29,4.85-13.11,5-4,.1-5.92-.78-5.83-2.23.1-3.21,8.45-5.63,14.47-5.83a43.93,43.93,0,0,1,5.63.1c4.56-4.85,7.09-12.62,10.78-17.67-5.63-1.16-10.49-4.56-10.49-9.51S236.55,37.39,245.67,37.39ZM220.82,76.51c-2.62.1-5.73,1.56-5.53,3.59.09,1.07,1.16,1.75,3.1,1.65a18.08,18.08,0,0,0,10-4.27A24,24,0,0,0,220.82,76.51Zm21.55-20c5.83-8.73,12.43-11.74,16.6-13.2-2.72-1.84-7-3.69-13.78-3.69-8.25,0-12.82,3.79-12.82,8.16S237.52,55.54,242.37,56.51Zm17.38.88c5.34-.68,17.18-4.08,17.76-9.9.3-3.69-3.1-5.25-6.69-5.25a14.18,14.18,0,0,0-8,2.62,8,8,0,0,1,1.45,3c.58,2,.29,3.6.1,3.6s0-.88-1.46-3.4a9.79,9.79,0,0,0-1.55-2.14c-3.2,2.43-6.7,6.6-10.29,11.75A37.61,37.61,0,0,0,259.75,57.39Z"/></g></g></svg>