<svg xmlns="http://www.w3.org/2000/svg" viewBox="0 0 491.15 195.15"><defs><style>.cls-1{fill:#108498;}.cls-2,.cls-3{fill:#fff;}.cls-3{stroke:#fff;stroke-miterlimit:10;}.cls-4{opacity:0.65;}.cls-5{fill:#2feded;}</style></defs><g id="Capa_2" data-name="Capa 2"><g id="Capa_1-2" data-name="Capa 1"><rect class="cls-1" width="491.15" height="195.15" rx="15.91"/><path class="cls-2" d="M171.14,170.66v-22.3h14.21V152H175.14v5.32h9.57v3.61h-9.57V167h10.43v3.62Z"/><path class="cls-2" d="M188.87,170.66V154.53h3.81v2.31a4.56,4.56,0,0,1,4.35-2.63,4.45,4.45,0,0,1,4.51,2.82c.93-1.89,2.69-2.82,5.28-2.82,3.55,0,5.6,2.47,5.6,6.47v10h-3.84v-9.44c0-2.21-1.06-3.58-2.88-3.58s-3.2,1.53-3.2,3.74v9.28h-3.81v-9.44c0-2.21-1.05-3.58-2.88-3.58s-3.13,1.57-3.13,3.74v9.28Z"/><path class="cls-2" d="M215,162.6a8.06,8.06,0,0,1,8.45-8.51,7.48,7.48,0,0,1,5.72,2.33,8,8,0,0,1,2.24,5.79c0,.48,0,.93-.06,1.35H218.76c.12,2.56,2,4.22,4.86,4.22a5.94,5.94,0,0,0,4.35-1.86l2.31,2.24a9,9,0,0,1-6.79,2.88,8.54,8.54,0,0,1-6.17-2.27,8,8,0,0,1-2.37-6.05Zm12.51-1.73a3.13,3.13,0,0,0-1.22-2.46,4.09,4.09,0,0,0-2.84-1.06,5,5,0,0,0-3.11,1,3.56,3.56,0,0,0-1.44,2.5Z"/><path class="cls-2" d="M233.92,170.66V154.53h3.81v2.4a5,5,0,0,1,4.8-2.72,6.23,6.23,0,0,1,1.15.1V158a7.88,7.88,0,0,0-1.6-.16,4,4,0,0,0-4.35,4.32v8.48Z"/><path class="cls-2" d="M257.86,156.87v-2.34h3.84V168c0,3.87-.54,6.24-2.72,7.94a9.07,9.07,0,0,1-5.7,1.79,13.07,13.07,0,0,1-7.8-2.34l1.85-2.84a9.82,9.82,0,0,0,5.54,1.76,5.84,5.84,0,0,0,3.55-1c1-.74,1.54-2.12,1.54-4.1v-.8c-.77,1.38-2.69,2.37-5.25,2.37a7.85,7.85,0,0,1-5.76-2.37,8.66,8.66,0,0,1,0-11.81,7.61,7.61,0,0,1,5.73-2.43C255.36,154.18,257.32,155.3,257.86,156.87ZM256.71,166a4.68,4.68,0,0,0,1.44-3.49,4.61,4.61,0,0,0-1.44-3.45,4.77,4.77,0,0,0-3.49-1.41,4.6,4.6,0,0,0-3.42,1.41,4.77,4.77,0,0,0-1.35,3.45A4.85,4.85,0,0,0,249.8,166a4.58,4.58,0,0,0,3.42,1.38A4.75,4.75,0,0,0,256.71,166Z"/><path class="cls-2" d="M263.78,162.6a8.06,8.06,0,0,1,8.45-8.51,7.52,7.52,0,0,1,5.73,2.33,8,8,0,0,1,2.23,5.79c0,.48,0,.93-.06,1.35H267.59c.13,2.56,2,4.22,4.86,4.22a5.9,5.9,0,0,0,4.35-1.86l2.31,2.24a9,9,0,0,1-6.79,2.88,8.57,8.57,0,0,1-6.17-2.27,8,8,0,0,1-2.37-6.05Zm12.51-1.73a3.12,3.12,0,0,0-1.21-2.46,4.11,4.11,0,0,0-2.85-1.06,5,5,0,0,0-3.11,1,3.56,3.56,0,0,0-1.44,2.5Z"/><path class="cls-2" d="M282.76,170.66V154.53h3.8v2.31a5.26,5.26,0,0,1,4.9-2.63c3.84,0,6.11,2.47,6.11,6.47v10h-3.84v-9.44a3.23,3.23,0,0,0-3.42-3.58,3.59,3.59,0,0,0-3.75,3.74v9.28Z"/><path class="cls-2" d="M315.33,156.8,313,159.27a5.43,5.43,0,0,0-4.09-1.76,4.8,4.8,0,0,0-3.55,1.44,5.34,5.34,0,0,0,0,7.23,4.8,4.8,0,0,0,3.55,1.44,5.43,5.43,0,0,0,4.09-1.76l2.37,2.46a8.44,8.44,0,0,1-6.46,2.79,8.63,8.63,0,0,1-6.24-2.43,8.14,8.14,0,0,1-2.53-6.12,8,8,0,0,1,2.53-6.07,8.62,8.62,0,0,1,6.24-2.47A8.47,8.47,0,0,1,315.33,156.8Z"/><path class="cls-2" d="M318.53,173.89a5.74,5.74,0,0,0,1.79.26,2.57,2.57,0,0,0,1.41-.35,2.88,2.88,0,0,0,.93-1.38l.42-1.15-6.76-16.74h3.87l4.74,12.16,4.45-12.16h3.87L326,173.28a8.18,8.18,0,0,1-1.73,2.88,5.41,5.41,0,0,1-3.87,1.35,6.8,6.8,0,0,1-1.89-.26Z"/><path d="M247.45,36.3a2,2,0,0,0,2.88,0"/><path class="cls-2" d="M310.18,106.78V90.65c.06-6.21-3.29-10.42-9-11.24s-7-1.21-9-3.58l0,0L278,59.6l-.06-.06c-4.21-4.43-6-6.26-10.8-6.26h-13V48.94a8.42,8.42,0,0,0-8.41-8.41h-.64a8.42,8.42,0,0,0-8.41,8.41v4.34H211.78a2,2,0,1,0,0,4.08h32.3V106.6H223.91a16.47,16.47,0,0,0-22.26,0H186.51V60.16a2.82,2.82,0,0,1,2.77-2.8h26.64a2,2,0,1,0,0-4.08H189.28a6.87,6.87,0,0,0-6.85,6.88v46.61a6.64,6.64,0,0,0,1.51,13.11h12.38a16.5,16.5,0,0,0,32.93,0H255.4a2,2,0,1,0,0-4.07H229a16.48,16.48,0,0,0-1.87-5.14h40.4a16.48,16.48,0,0,0-1.87,5.14H254a2,2,0,1,0,0,4.07h11.5a16.51,16.51,0,0,0,32.94,0h10.24a6.64,6.64,0,0,0,1.55-13.1Zm-4.08-11h-6.16a.78.78,0,0,1-.78-.79V92.89a.79.79,0,0,1,.78-.78h6.16ZM240.76,48.94a4.35,4.35,0,0,1,4.34-4.34h.64a4.34,4.34,0,0,1,4.33,4.34v4.34h-9.31V48.94ZM248,57.36h19.19c3,0,3.63.56,7.81,5l14.07,16.16c3,3.6,5.9,4.16,11.56,5A5.76,5.76,0,0,1,305.83,88h-5.89a4.87,4.87,0,0,0-4.86,4.86V95a4.87,4.87,0,0,0,4.86,4.86h6.16v6.73H293.05a16.47,16.47,0,0,0-22.26,0H248V57.36Zm-66.61,55.88a2.57,2.57,0,0,1,2.56-2.57h0a1.7,1.7,0,0,0,.51.07,1.81,1.81,0,0,0,.52-.07h13.42a16.22,16.22,0,0,0-1.86,5.14H183.94a2.57,2.57,0,0,1-2.56-2.57Zm31.4,18a12.43,12.43,0,1,1,12.43-12.42,12.44,12.44,0,0,1-12.43,12.42Zm69.14,0a12.43,12.43,0,1,1,12.44-12.42,12.45,12.45,0,0,1-12.44,12.42Zm26.71-15.39H298.16a16.72,16.72,0,0,0-1.86-5.14h11.32a1.81,1.81,0,0,0,.52.07,1.7,1.7,0,0,0,.51-.07,2.57,2.57,0,0,1,0,5.14Z"/><path class="cls-2" d="M281.92,111a7.79,7.79,0,1,0,7.79,7.79A7.79,7.79,0,0,0,281.92,111Zm0,11.49a3.71,3.71,0,1,1,3.71-3.7A3.7,3.7,0,0,1,281.92,122.48Z"/><path class="cls-2" d="M212.78,111a7.79,7.79,0,1,0,7.78,7.79A7.79,7.79,0,0,0,212.78,111Zm0,11.49a3.71,3.71,0,1,1,3.71-3.7A3.7,3.7,0,0,1,212.78,122.48Z"/><path class="cls-2" d="M260.35,83.67h16.7a2.66,2.66,0,0,0,2.61-2.57v-.82a4,4,0,0,0-1.42-3c-.31-.34-.69-.75-1.18-1.36h0l-6.94-8.63a6.49,6.49,0,0,0-5.65-2.79h-6.85A2.77,2.77,0,0,0,254.78,67v.12l0,11.6a5.29,5.29,0,0,0,5.55,5Zm4.12-15.28a2.71,2.71,0,0,1,2.59,1.32L274,78.35c.5.61.9,1.06,1.22,1.4H260.35c-1.15,0-1.63-.7-1.63-1.08l0-10.28Z"/><path class="cls-3" d="M231,47.92h-9.35a1.26,1.26,0,1,1,0-2.52H231a1.26,1.26,0,0,1,0,2.52Z"/><path class="cls-3" d="M235.07,38a1.23,1.23,0,0,1-.89-.37l-7.78-7.79A1.27,1.27,0,0,1,228.19,28l7.78,7.8a1.25,1.25,0,0,1,0,1.78A1.23,1.23,0,0,1,235.07,38Z"/><path class="cls-3" d="M245.65,30.62a1.26,1.26,0,0,1-1.26-1.26v-17a1.26,1.26,0,1,1,2.52,0v17A1.26,1.26,0,0,1,245.65,30.62Z"/><path class="cls-3" d="M269.75,47.92h-9.34a1.26,1.26,0,1,1,0-2.52h9.34a1.26,1.26,0,0,1,0,2.52Z"/><path class="cls-3" d="M256.3,38a1.26,1.26,0,0,1-.89-2.15l7.77-7.8A1.27,1.27,0,1,1,265,29.82l-7.77,7.79A1.27,1.27,0,0,1,256.3,38Z"/><g class="cls-4"><rect class="cls-5" x="211" y="64.23" width="8.55" height="29.57"/><rect class="cls-5" x="200.52" y="74.74" width="29.51" height="8.56"/></g></g></g></svg>