<?xml version="1.0" encoding="utf-8"?>
<svg version="1.1" id="Capa_1" xmlns="http://www.w3.org/2000/svg" xmlns:xlink="http://www.w3.org/1999/xlink" x="0px" y="0px"
	 viewBox="0 0 158 158" style="enable-background:new 0 0 158 158;" xml:space="preserve">
<style type="text/css">
	.st0{fill:none;}
	.st1{fill:#0092B7;}
	.st2{fill:#07879A;}
	.st3{fill:#FFFFFF;}
</style>
<g>
	<path class="st0" d="M22.2,108.9c-0.3-0.1-0.5-0.1-0.5-0.1c-2.1-0.6-4.2-1.6-6.2-2.7c0.3,0.2,0.6,0.4,0.9,0.6
		c1.2,0.6,1.3,0.6,0.3,0.1c2.4,1.4,4.8,2.2,7.4,2.6c-0.1,0-0.1-0.1-0.8-0.2C22.9,109,22.5,108.9,22.2,108.9z"/>
	<path class="st0" d="M113.1,46.1c0,0.1,0.1,0.2,0.1,0.2c0,0.4,0.1,0.9,0.2,1.3l0.1-0.2c0-0.2-0.1-0.3-0.1,0c0-0.5-0.1-1-0.3-1.5
		C113.1,45.9,113.1,45.9,113.1,46.1z"/>
	<path class="st0" d="M120.4,121.2c-0.1-0.4-0.3-0.9-0.4-1.3c0,0.1,0,0.1,0,0.2C120.1,120.4,120.3,120.8,120.4,121.2z"/>
	<path class="st0" d="M10.3,101.2l-0.1-0.1l-0.2-0.2c-0.1-0.2-0.3-0.4-0.4-0.5c0.1,0.2,0.3,0.4,0.4,0.6c0.1,0.1,0.1,0.2,0.2,0.3
		c0,0,0.1,0.1,0.1,0.1c0,0,0,0,0,0l0.1,0c0,0,0,0-0.1,0.1l0,0c0,0,0,0,0,0C10.3,101.3,10.3,101.3,10.3,101.2
		C10.3,101.3,10.3,101.2,10.3,101.2C10.3,101.2,10.3,101.2,10.3,101.2C10.3,101.2,10.3,101.2,10.3,101.2c0,0,0.1-0.1,0.1-0.1l0,0
		c0,0,0,0,0,0l0,0C10.4,101.2,10.3,101.2,10.3,101.2z"/>
	<path class="st0" d="M15.1,74.7L15.1,74.7L15.1,74.7L15.1,74.7L15.1,74.7C15.1,74.6,15.2,74.6,15.1,74.7
		C15.1,74.7,15.1,74.7,15.1,74.7L15.1,74.7z"/>
	<path class="st0" d="M10.4,84.6c-0.4-0.2-0.9-0.3-1.3-0.4c-0.2,0-0.5,0-0.7,0c-0.2,0-0.4,0-0.6,0c0.2,0,0.3,0,0.5,0.1
		s0.4,0,0.6,0.1c0.4,0.1,0.9,0.2,1.2,0.4s0.8,0.4,1.1,0.7c0.3,0.3,0.5,0.6,0.7,0.9c-0.1-0.3-0.3-0.7-0.6-1
		C11.2,85.1,10.8,84.8,10.4,84.6z"/>
	<path class="st0" d="M119.4,118.5L119.4,118.5c0.2,0.5,0.4,0.9,0.5,1.4c-0.1-0.5-0.2-0.9-0.2-1.3c0,0.2-0.2,0.2-0.5-0.4v0
		C119.4,118.2,119.4,118.4,119.4,118.5L119.4,118.5z"/>
	<path class="st0" d="M8.9,99.4c0.2,0.3,0.4,0.6,0.6,0.9c0-0.1-0.1-0.1-0.1-0.2C9.3,99.9,9.1,99.7,8.9,99.4z"/>
	<path class="st0" d="M60.5,113.3C60.5,113.3,60.5,113.3,60.5,113.3c-0.2,0.1-0.3,0.2-0.4,0.3c-0.2,0.2-0.5,0.3-0.7,0.5
		c0.6-0.3,1.1-0.5,1.6-0.7c-0.4,0.1-0.6,0.1-0.1-0.3c0,0,0,0,0,0C60.7,113.2,60.6,113.2,60.5,113.3
		C60.5,113.3,60.5,113.3,60.5,113.3z"/>
	<path class="st0" d="M13.7,43c2.5-6,7.4-10.9,13.5-12.6c1.6-0.4,3.3-0.7,5-0.9c-1.8,0-3.6,0.2-5.4,0.5c-2.1,0.4-4.1,1.1-6,2.2
		c-3.7,2.1-6.9,5.6-8.9,9.7c-0.7,1.4-1.2,2.8-1.6,4.2c-0.4,1.5-0.7,3-0.9,4.5c-0.2,1.5-0.3,3.1-0.3,4.6c0,1.6,0.1,3.1,0.2,4.7
		c0,0.4,0.1,0.8,0.1,1.2L9.6,62l0.1,0.7c0,0.1,0,0.1,0,0.2l0.1-0.1l0.3-0.2c0.2-0.1,0.4-0.3,0.6-0.4l0.2-0.1
		c0.1-0.1,0.2-0.1,0.2-0.2l0.5-0.4l0.2-0.1C10.7,54.6,11,49.4,13.7,43z"/>
	<path class="st0" d="M28.7,85.3c-0.8,0.6-1.6,1.1-2.4,1.7l-0.3,0.2l-0.1,0.1l-0.1,0.1l-0.1,0.1l-0.1,0.1c-0.1,0-0.1,0.1-0.1,0.1
		c-0.2,0.2-0.4,0.4-0.5,0.6c-0.2,0.3-0.3,0.6-0.3,0.8c0,0.3,0,0.5,0.1,0.8l0.1,0.1c0.2,0.5,0.6,1,1.3,1.3c0.6,0.3,1.4,0.3,2,0
		c0.1-0.1,0.3-0.1,0.4-0.2c0.1,0,0.1-0.1,0.2-0.1l0,0c0,0,0,0,0.1-0.1l0.1-0.1l0,0l0.4-0.6l0.5-0.7c0.6-0.9,1.2-1.9,1.7-2.9
		c1-1.7,1.9-3.4,2.7-5.1c0,0-0.1,0.1-0.1,0.1C32.1,83,30.4,84.2,28.7,85.3z"/>
	<path class="st0" d="M58.2,114.8c0.4-0.2,0.7-0.5,1.1-0.7c-0.1,0-0.1,0.1-0.2,0.1C58.8,114.4,58.5,114.6,58.2,114.8z"/>
	<path class="st0" d="M119.8,117.8c0,0.2,0,0.5,0,0.8C119.8,118.4,119.8,117.9,119.8,117.8z"/>
	<path class="st0" d="M15.1,74.7L15.1,74.7L15.1,74.7z"/>
	<path class="st0" d="M112.4,87c0,0.6,0,1.8,0,1.8c-0.4,1.4-0.6,2.7-0.7,4.2l0,0l0,0c-0.1,0.6-0.1,1.3,0.1,2
		c0.1,0.6,0.5,1.2,0.7,1.9c0-0.4-0.1-0.9-0.1-1.2c-0.2-0.7-0.3-1.1-0.4-1.2c0,0-0.1,0.1-0.1,0.5c0,0.1,0,0.3,0,0.5
		c0-0.2,0-0.3,0-0.5c0-0.6,0-1.2,0.1-1.8v0c0.4-2.4,0.7-4.7,0.8-7C112.7,86.2,112.5,86.2,112.4,87z"/>
	<path class="st0" d="M58.2,114.8c0,0-0.1,0-0.1,0.1C58.1,114.9,58.1,114.8,58.2,114.8z"/>
	<path class="st0" d="M85.9,93c-0.4,0.5-1,1.5-1,1.5c-0.2,0.2-0.5,0.4-0.7,0.6c-0.2,0.2-0.5,0.4-0.7,0.7c-0.5,0.5-1,0.9-1.4,1.4
		s-1,1-1.4,1.5s-0.9,1-1.4,1.5c0.4-0.2,0.7-0.4,1.1-0.6c1-1.1,1.1-1.3,0.2-0.7c-0.1,0.1-0.1,0.1-0.2,0.2c0.1-0.1,0.1-0.1,0.2-0.2
		c2.5-1.9,4.5-4,6.3-6.3c0,0,0,0,0-0.1C86.6,92.5,86.5,92.4,85.9,93z"/>
	<path class="st0" d="M60.9,113.4c0.3-0.1,0.7-0.2,1-0.3C61.6,113.1,61.2,113.2,60.9,113.4z"/>
	<path class="st0" d="M11.1,100.7c-0.2,0.1-0.4,0.3-0.7,0.5c0,0,0,0,0,0l0,0C10.6,101.1,10.9,100.8,11.1,100.7z"/>
	<path class="st0" d="M94.4,41.4c0.1-0.1,0.2-0.1,0.4-0.2c0.4-0.1,0.9-0.3,1.3-0.3c0.7-0.1,1.5-0.2,2.2-0.4c0-0.1-0.1-0.2-0.1-0.3
		c-1.1-2-2.7-4.3-5-6.3c-1.1-1-2.5-1.9-3.9-2.5c-1.4-0.7-3-1.2-4.5-1.6c-2.8-0.6-5.7-0.6-8.4-0.4c4.1,0.2,8.2,1.5,11.6,4
		C90.7,35.5,92.9,38.3,94.4,41.4z"/>
	<path class="st0" d="M8.9,99.3C8.9,99.3,8.9,99.3,8.9,99.3C8.9,99.3,8.8,99.3,8.9,99.3C8.8,99.3,8.8,99.3,8.9,99.3z"/>
	<path class="st1" d="M86.9,93.9c0-0.2,0-0.4,0-0.5c-0.2,0.2-0.3,0.4-0.4,0.5c-0.4,0.6-1,1.4-1.6,2.2c-0.6,0.8-1.2,1.6-1.7,2.3
		c-1,1.3-1.4,2,0.1,0.5c1-1.2,2-2.3,2.9-3.4c0.2-0.3,0.5-0.6,0.7-0.9C86.9,94.3,86.9,94.1,86.9,93.9z"/>
	<path class="st1" d="M60.4,113.2c-0.2,0.1-0.5,0.3-0.8,0.5c-0.5,0.3-1,0.6-1.5,0.9c-0.1,0.1-0.2,0.1-0.4,0.2
		c-0.2,0.1-0.5,0.3-0.7,0.5c0.3-0.1,0.6-0.3,0.9-0.4c0.9-0.5,1.7-1,2.6-1.5c0.1-0.1,0.2-0.1,0.3-0.2c0.1-0.1,0.2-0.2,0.4-0.3
		C60.9,112.9,60.7,113.1,60.4,113.2z"/>
	<path class="st1" d="M60.5,113.3c-0.5,0.3-0.9,0.6-1.2,0.8c0,0-0.1,0.1-0.1,0.1c0.1,0,0.1-0.1,0.2-0.1c0.2-0.2,0.5-0.4,0.7-0.5
		C60.2,113.5,60.3,113.4,60.5,113.3z"/>
	<path class="st1" d="M81.4,26.6c0.2,0,0.4,0.1,0.6,0.1C81.9,26.7,81.7,26.7,81.4,26.6C81.5,26.6,81.5,26.6,81.4,26.6z"/>
	<path class="st1" d="M79.8,26.3c0.5,0.1,0.9,0.2,1.4,0.3c-0.1,0-0.3-0.1-0.5-0.1C80.5,26.4,80.2,26.3,79.8,26.3z"/>
	<path class="st1" d="M61.8,113.1c0,0,0.1,0,0.1,0C61.9,113,61.9,113.1,61.8,113.1z"/>
	<path class="st1" d="M80.5,98.8c-0.1,0-0.1,0.1-0.2,0.2C80.3,98.9,80.4,98.9,80.5,98.8z"/>
	<path class="st1" d="M81.4,26.6c-0.1,0-0.1,0-0.2,0C81.3,26.6,81.4,26.6,81.4,26.6z"/>
	<path class="st2" d="M98.6,39.8c-0.4-0.9-0.9-1.7-1.4-2.5c-0.6-0.8-1.1-1.7-1.9-2.5c-1.4-1.7-3.3-3.4-5.8-4.9c-2-1.2-4.5-2.2-7.4-3
		c0.2,0,0.4,0.1,0.5,0.1c0.5,0.1,0.6,0.2,0.4,0.2c-0.4,0-2-0.4-4.3-0.5c-0.6,0-1.2-0.1-1.9-0.1s-1.4,0-2,0c-0.7,0-1.4,0.1-2.2,0.1
		c-0.4,0-0.7,0.1-1.1,0.1c-0.4,0.1-0.8,0.1-1.2,0.2c-1.5,0.3-3.1,0.7-4.5,1.3c-1.4,0.6-2.8,1.2-4,1.9c-1.7,0.9-3.5,2.1-5,3.6
		c-0.2,0.2-0.4,0.4-0.6,0.6L56,34.5l-0.1,0.1l0,0l0,0l-0.1,0c-0.1,0-0.1,0.1-0.2,0.1c-0.1,0.1-0.2,0.1-0.2,0.1c0,0.1,0,0-0.1-0.1
		l0-0.1c0-0.1-0.1-0.1-0.1-0.2l0-0.1l0,0L55,34.2l-0.2-0.3c-0.3-0.4-0.6-0.7-0.9-1.1c-0.6-0.7-1.3-1.4-2-2.1
		c-0.7-0.6-1.5-1.3-2.3-1.9c-0.4-0.3-0.9-0.6-1.2-0.8c-0.4-0.2-0.8-0.5-1.3-0.7L46.4,27c-0.2-0.1-0.5-0.2-0.7-0.3L45,26.3
		c-0.2-0.1-0.5-0.2-0.7-0.3l-0.7-0.3l-0.7-0.2l-0.7-0.2l-0.7-0.2c-3.9-1-7.9-1-11.7-0.4c-0.5,0.1-0.9,0.2-1.4,0.2
		c-0.5,0.1-0.9,0.2-1.4,0.3c-0.5,0.1-0.9,0.2-1.4,0.4s-0.9,0.3-1.4,0.4c-1.8,0.6-3.5,1.5-5.1,2.5c-0.2,0.2-0.5,0.4-0.7,0.5
		c-0.2,0.2-0.5,0.4-0.7,0.6c-0.5,0.4-1,0.8-1.4,1.2c-0.9,0.9-1.8,1.8-2.6,2.9c-1.6,2-3,4.5-4,7.1c-1.4,3.4-2.1,6.9-2.3,10.4
		c-0.3,3.5-0.1,7,0.4,10.4c0.1,0.4,0.1,0.8,0.2,1.2l0.2,1.2l0.2,1.2l0.1,0.6l0,0.1v0.1c0,0,0,0.1,0,0l0.2-0.2l1.9-1.6
		c0.3-0.3,0.7-0.5,1-0.8l0.4-0.3c0.1-0.1,0.1-0.1,0.2-0.2c1.3-0.9,2.7-1.7,4.1-2.4c2.9-1.4,6-2.2,9.2-2.4c1.6-0.1,3.2-0.1,4.7,0
		c1.6,0.1,3.1,0.5,4.7,0.9c3,0.8,5.9,2.2,8.5,4.1c2.6,1.9,4.8,4.1,6.6,6.7c1.8,2.6,3.1,5.5,3.9,8.6c0.9,3.3,1.2,6.5,1,9.6
		c0,0.4,0,0.7-0.1,1.1c0,0.4-0.1,0.7-0.1,1.1l-0.1,0.6l-0.1,0.6c-0.1,0.4-0.1,0.7-0.2,1.1c-0.1,0.4-0.2,0.7-0.2,1.1
		c0,0.2-0.1,0.4-0.1,0.5L53.9,95c-0.1,0.4-0.2,0.7-0.3,1c-0.1,0.4-0.2,0.7-0.4,1c-0.9,2-2.1,3.8-3.5,5.4c-0.3,0.4-0.7,0.8-1,1.1
		c-0.4,0.4-0.7,0.7-1.1,1l-0.1,0.1l-0.2,0.2c-0.2,0.2-0.4,0.3-0.5,0.5c-0.4,0.3-0.8,0.6-1.1,0.9c-0.7,0.6-1.5,1.1-2.2,1.7
		c-0.7,0.5-1.4,1-2.1,1.5c-0.7,0.5-1.4,0.9-2,1.4l0.4,0.4c0.2,0.1,0.4,0.3,0.6,0.4c0.4,0.3,0.9,0.6,1.3,0.9c0.9,0.6,1.7,1.1,2.6,1.6
		c0.9,0.5,1.7,1.1,2.5,1.6c0.4,0.2,0.8,0.5,1.2,0.7l0.6,0.4l0.3,0.2c0.1,0.1,0.2,0.1,0.2,0.1c0.5,0.3,1.1,0.5,1.6,0.8
		c0.3,0.1,0.5,0.2,0.8,0.4l0.5,0.2c0.2,0.1,0.4,0.2,0.6,0.2c0.4,0.2,0.9,0.2,1.3,0.3c0.2,0,0.4,0,0.6,0s0.4,0,0.6,0
		c0.9-0.1,1.7-0.3,2.5-0.6c-0.9,0.4-1.8,0.6-2.7,0.6c-0.9,0-1.8-0.1-2.6-0.5c-0.2-0.1-0.4-0.2-0.6-0.2l-0.4-0.2
		c-0.2-0.1-0.5-0.2-0.8-0.4s-0.5-0.2-0.8-0.4l-0.4-0.2l-0.4-0.2c-1.6-0.9-3.1-1.9-4.7-2.9c-0.8-0.5-1.6-1-2.5-1.6
		c-0.4-0.3-0.9-0.5-1.3-0.8c-0.2-0.1-0.4-0.3-0.7-0.4c-0.1-0.1-0.3-0.3-0.4-0.4c0.9-0.6,2.1-1.4,3.4-2.4c0.5-0.4,1-0.7,1.3-0.9
		c0.3-0.2,0.5-0.4,0.6-0.4c0.2-0.1,0.1,0-0.2,0.4s-0.9,0.9-1.6,1.4c-0.7,0.6-1.4,1.2-2.2,1.8c0.1,0.1,0.2,0.2,0.3,0.4
		c0.2,0.1,0.4,0.2,0.6,0.4c0.4,0.2,0.9,0.5,1.3,0.7c0.8,0.5,1.5,0.9,2.1,1.2c0.8,0.4,1.5,1.1,2.4,1.8c0.4,0.4,0.9,0.7,1.3,1
		c0.1,0.1,0.2,0.1,0.3,0.2c0.1,0.1,0.2,0.1,0.3,0.2c0.1,0.1,0.3,0.2,0.4,0.2c0.6,0.3,1.2,0.6,1.8,0.9l0.5,0.2
		c0.2,0.1,0.4,0.2,0.7,0.2c0.4,0.2,0.9,0.2,1.4,0.3c0.9,0.1,1.9-0.1,2.8-0.4c0.2-0.1,0.5-0.2,0.7-0.3c0.2-0.1,0.4-0.2,0.6-0.3
		c0.4-0.2,0.7-0.4,1-0.6c0.5-0.4,0.8-0.4,1.1-0.4c0.2,0,0.4,0.1,0.6-0.1c0.4-0.2,0.7-0.5,1-0.7c0.4-0.3,0.7-0.6,1.1-0.8
		c0.7-0.6,1.3-1.1,1.9-1.6c1.1-1,2.1-1.9,3.2-2.5c0.8-0.5,1.5-0.9,2.2-1.4c0.7-0.5,1.4-0.9,2.1-1.4c0.9-0.6,1.6-1.2,2.5-1.9
		c0.5-0.5,1-1,1.5-1.5c3.5-3.5,7.3-7.7,10.4-11.9c0,0,0,0,0-0.1c-1.9,2.3-3.9,4.5-6.3,6.3c0.9-0.6,0.8-0.4-0.2,0.7
		c-0.4,0.2-0.7,0.4-1.1,0.6c0.5-0.5,0.9-1,1.4-1.5c0.5-0.5,1-1,1.4-1.5c0.5-0.5,0.9-1,1.4-1.4c0.2-0.2,0.5-0.4,0.7-0.7
		c0.2-0.2,0.5-0.4,0.7-0.6c0,0,0.7-1,1-1.5c0.6-0.5,0.7-0.5,0.9-0.5c0-0.1,0-0.2,0-0.4c-0.1,0.1-0.3,0.3-0.5,0.4
		c-0.2,0.2-0.5,0.4-0.7,0.6c-0.9,0.8-1.6,1.5-1.6,1.5c-2.6,2.9-5.4,5.5-8.2,7.8c-0.7,0.6-1.4,1.2-2.1,1.7c-0.7,0.6-1.4,1.1-2.2,1.7
		c-0.7,0.5-1.5,1.1-2.2,1.6c-0.7,0.5-1.5,1-2.2,1.5c-0.4,0.4-0.6,0.8-1.2,1.1c-0.5,0.2-1,0.5-1.5,0.7c-0.9,0.6-1.8,1.1-2.6,1.6
		c-0.3,0.2-0.6,0.4-0.9,0.6c0,0,0,0,0,0c-0.5,0.4-0.2,0.4,0.1,0.3c0.4-0.1,0.7-0.2,1-0.3c-0.2,0.1-0.7,0.2-1,0.3
		c-0.5,0.2-1,0.4-1.6,0.7c-0.4,0.2-0.7,0.5-1.1,0.7l0,0c0,0-0.1,0-0.1,0.1c-0.3,0.2-0.6,0.4-0.9,0.5c-0.4,0.2-0.8,0.3-1.1,0.3
		c-0.3,0-0.5,0-0.7-0.1c0.6,0,1.2-0.2,1.7-0.4c0.2-0.1,0.5-0.3,0.7-0.5c0.6-0.4,1.2-0.9,1.9-1.2c10.2-6.5,19.7-14.7,26.8-24.8
		c-0.1-0.8-0.1-1.6-0.2-2.4c-0.1-1.2-0.2-2.5-0.3-3.8c-0.1-0.6-0.1-1.2-0.2-1.9L85.6,80c0-0.3-0.1-0.7-0.1-1.1c0-0.7,0-1.4-0.1-1.9
		c0-0.5-0.1-0.8-0.2-1c0,0,0,0,0-0.1l-0.1-0.1l0,0L85,75.6l-0.1-0.2l-0.5-0.8c-0.3-0.6-0.6-1.1-1-1.7c-3-4.9-5.7-9.2-8.1-13.4
		c-1.2-2.1-2.5-4.2-3.7-6.3c-0.6-1.1-1.3-2.1-2-3.2c-0.4-0.6-0.7-1.1-1-1.7c-0.2-0.4-0.5-0.9-0.6-1.4s-0.2-0.9-0.3-1.4
		c-0.1-0.9,0-1.7,0.1-2.5l0-0.3l0-0.1l0-0.2c0-0.3,0.2-0.6,0.3-0.8c0.2-0.5,0.5-0.9,0.8-1.4c0.6-0.8,1.5-1.4,2.4-1.9
		c0.9-0.4,1.8-0.6,2.7-0.7c0.5,0,0.9,0,1.4,0c0.5,0.1,0.9,0.1,1.4,0.3c0.9,0.3,1.8,0.8,2.6,1.5c0.2,0.2,0.4,0.4,0.5,0.6l0.2,0.3
		l0.1,0.1l0,0l0.1,0.1l0.5,0.8c0.4,0.5,0.7,1.1,1,1.6c0.5,0.7,0.9,1.5,1.4,2.2c0.4,0.4,0.8,0.9,1.2,1.3c0.7,0.8,1.4,1.6,2.1,2.4
		c0.3,0.4,0.7,0.8,1,1.2l0.5,0.5l0.2,0.3c1.4,1.8,1.9,4.5,3,6.3c1,1.7,2.8,2.5,3.6,4.2c0.1,0.1,0.1,0.3,0.2,0.5c0,0.1,0,0.1,0.1,0.2
		c0,0.1,0.1,0.1,0.1,0.2l0,0.1c0,0,0,0.1,0.1,0.1c0.1,0,0.3,0.1,0.5,0.1h0.2h0.1h0h0.1l0.3,0c0.2,0,0.4,0,0.6,0.1
		c0-0.4,0.1-0.7,0.1-1c-0.2-0.1-0.5-0.2-0.7-0.2c-0.2,0-0.4-0.1-0.5-0.2l-0.5-0.3c-2.8-1.6-4.7-4.4-5.2-7.5
		c-0.3-1.2-0.4-2.2-0.3-3.2c0.1-1,0.2-2,0.5-3.1c0.1-0.5,0.3-1,0.4-1.5c0.1-0.2,0.2-0.5,0.2-0.7c0.1-0.2,0.2-0.5,0.3-0.7
		c0.1-0.2,0.2-0.5,0.4-0.7c0.1-0.2,0.3-0.4,0.5-0.6c0.3-0.4,0.7-0.8,1.1-1.1c0.3-0.2,0.6-0.4,0.9-0.6c-1.6-3.1-3.7-5.9-6.5-7.9
		c-3.4-2.6-7.5-3.8-11.6-4c2.7-0.3,5.6-0.3,8.4,0.4c1.6,0.4,3.1,0.9,4.5,1.6c1.4,0.7,2.7,1.6,3.9,2.5c2.3,2,3.9,4.3,5,6.3
		c0,0.1,0.1,0.2,0.1,0.3c0.2-0.1,0.4-0.1,0.6-0.2C98.8,40.1,98.7,40,98.6,39.8z M27.2,30.4c-6.1,1.7-11,6.6-13.5,12.6
		c-2.7,6.5-3,11.6-2,18.3l-0.2,0.1l-0.5,0.4c-0.1,0.1-0.2,0.1-0.2,0.2L10.7,62c-0.2,0.1-0.4,0.3-0.6,0.4l-0.3,0.2l-0.1,0.1
		c0,0,0-0.1,0-0.2l-0.1-0.7l-0.1-0.8c-0.1-0.4-0.1-0.8-0.1-1.2C9.1,58.4,9,56.8,9,55.3c0-1.6,0.1-3.1,0.3-4.6c0.2-1.5,0.5-3,0.9-4.5
		c0.4-1.5,0.9-2.9,1.6-4.2c2-4.2,5.1-7.6,8.9-9.7c1.9-1.1,3.9-1.8,6-2.2c1.8-0.4,3.6-0.5,5.4-0.5C30.5,29.7,28.8,29.9,27.2,30.4z"/>
	<path class="st1" d="M60.5,113.3C60.5,113.3,60.5,113.3,60.5,113.3C60.5,113.3,60.5,113.3,60.5,113.3
		C60.5,113.3,60.5,113.3,60.5,113.3z"/>
	<path class="st1" d="M56.8,115.5c0.5-0.1,0.9-0.4,1.3-0.6c0,0,0.1,0,0.1-0.1l0,0c0.3-0.2,0.6-0.4,0.9-0.6
		C58.4,114.6,57.7,115.1,56.8,115.5z"/>
	<path class="st1" d="M59.1,114.2c0,0,0.1-0.1,0.1-0.1c0.3-0.2,0.7-0.5,1.2-0.8l0,0c-0.9,0.5-1.7,1-2.6,1.5
		c-0.3,0.2-0.6,0.3-0.9,0.4c-0.3,0.2-0.6,0.4-1,0.5c0.4,0,0.7-0.1,1.1-0.3c0.3-0.1,0.6-0.3,0.9-0.5c-0.4,0.2-0.8,0.5-1.3,0.6
		C57.7,115.1,58.4,114.6,59.1,114.2z"/>
	<path class="st1" d="M58.2,114.8L58.2,114.8L58.2,114.8z"/>
	<path class="st1" d="M55.3,115.6c0.2,0.1,0.5,0.1,0.7,0.1c0.3-0.1,0.7-0.3,1-0.5C56.5,115.5,55.8,115.6,55.3,115.6z"/>
	<path class="st1" d="M29.7,109.2v-0.1v-0.4l0-1.4c0,0.5,0,1,0,1.4C29.7,108.9,29.7,109,29.7,109.2
		C29.7,109.2,29.7,109.2,29.7,109.2c0,0.1,0,0.1,0,0.1h0.1c0.2,0,0.4-0.1,0.6-0.1l-0.6,0.1C29.7,109.3,29.7,109.3,29.7,109.2
		L29.7,109.2z"/>
	<path class="st1" d="M29.5,104.2c0-0.1-0.1-0.3-0.1-0.4c0.1,0.2,0.1,0.4,0.2,0.5C29.5,104.2,29.5,104.2,29.5,104.2z"/>
	<path class="st1" d="M29.5,104.3c0,0.1,0,0.2,0.1,0.4C29.6,104.5,29.5,104.4,29.5,104.3z"/>
	<path class="st1" d="M27.1,102.7c-0.3,0.1-0.7,0.2-0.9,0.5C26.4,103,26.7,102.8,27.1,102.7c0.4-0.1,0.8-0.1,1.2,0.1
		C27.9,102.6,27.5,102.6,27.1,102.7z"/>
	<path class="st1" d="M25.9,103.4c0.1-0.1,0.1-0.2,0.2-0.2C26,103.3,25.9,103.3,25.9,103.4z"/>
	<path class="st1" d="M29.2,103.5c-0.2-0.3-0.6-0.6-1-0.7c0.5,0.2,0.9,0.6,1.1,0.9C29.3,103.5,29.2,103.4,29.2,103.5
		C29.2,103.4,29.2,103.4,29.2,103.5z"/>
	<path class="st1" d="M29.4,103.7c-0.1-0.1-0.1-0.2-0.2-0.2C29.3,103.5,29.3,103.7,29.4,103.7L29.4,103.7z"/>
	<path class="st1" d="M29.5,104.5c0,0,0,0.1,0,0.1C29.5,104.5,29.5,104.5,29.5,104.5z"/>
	<path class="st1" d="M29.3,103.7c0,0.1,0.1,0.1,0.1,0.2C29.4,103.8,29.4,103.8,29.3,103.7z"/>
	<path class="st1" d="M29.4,103.9C29.4,103.9,29.4,103.9,29.4,103.9C29.4,104,29.4,103.9,29.4,103.9z"/>
	<path class="st1" d="M29.4,104c0,0,0,0.1,0,0.1C29.4,104,29.4,104,29.4,104z"/>
	<path class="st1" d="M29.5,104.1c0,0.1,0,0.1,0,0.2C29.5,104.2,29.5,104.2,29.5,104.1z"/>
	<path class="st1" d="M29.5,104.3c0,0.1,0,0.1,0,0.2C29.5,104.4,29.5,104.3,29.5,104.3z"/>
	<path class="st1" d="M28.7,103.2L28.7,103.2C28.7,103.2,28.7,103.2,28.7,103.2z"/>
	<path class="st1" d="M28.7,103.2c-0.1-0.1-0.1-0.1-0.2-0.1C28.5,103.1,28.6,103.2,28.7,103.2z"/>
	<path class="st1" d="M28.4,103C28.4,103,28.4,103,28.4,103C28.4,103,28.4,103,28.4,103L28.4,103z"/>
	<path class="st1" d="M28.7,103.2c0.2,0.2,0.5,0.5,0.5,0.7c0-0.1-0.1-0.2-0.1-0.3C29,103.5,28.9,103.4,28.7,103.2z"/>
	<path class="st1" d="M29.3,104L29.3,104L29.3,104L29.3,104z"/>
	<path class="st1" d="M37.7,72.2C37.6,72.2,37.6,72.2,37.7,72.2l-0.1,0.1L37.7,72.2z"/>
	<path class="st1" d="M28.7,90.9L28.7,90.9L28.7,90.9C28.7,91,28.8,90.8,28.7,90.9L28.7,90.9L28.7,90.9L28.7,90.9z"/>
	<path class="st1" d="M43.8,88.2C43.8,88.2,43.8,88.1,43.8,88.2C43.8,88.2,43.8,88.2,43.8,88.2z"/>
	<path class="st1" d="M43.8,88.3c0,0,0.1,0.1,0.1,0.1C43.9,88.4,43.9,88.3,43.8,88.3C43.8,88.3,43.8,88.3,43.8,88.3z"/>
	<path class="st1" d="M43.7,88.1c0,0-0.1-0.1-0.1-0.1C43.7,88,43.7,88.1,43.7,88.1z"/>
	<path class="st1" d="M37.2,75.9c-0.1,0.1-0.1,0.2-0.2,0.3l0.1,0.1L37.2,75.9z"/>
	<path class="st1" d="M40,74.7"/>
	<path class="st1" d="M43.6,88c0,0,0-0.1-0.1-0.1C43.6,87.9,43.6,88,43.6,88z"/>
	<path class="st1" d="M9.3,69.3L9,69.5l-0.3,0.2c0.1,0.1,0.1,0.1,0.2,0.2c0.2-0.3,0.5-0.7,0.7-1L9.3,69.3z"/>
	<path class="st1" d="M43.6,87.9c0-0.1-0.1-0.1-0.1-0.2C43.5,87.8,43.5,87.9,43.6,87.9z"/>
	<path class="st1" d="M43.4,87.7c0,0,0-0.1,0-0.1C43.4,87.7,43.4,87.7,43.4,87.7z"/>
	<path class="st1" d="M43.4,87.6c0-0.1-0.1-0.2-0.1-0.3C43.3,87.4,43.4,87.5,43.4,87.6z"/>
	<polygon class="st1" points="15.1,74.7 15.1,74.7 15.1,74.7 15.1,74.7 	"/>
	<path class="st1" d="M15.1,74.7L15.1,74.7L15.1,74.7z"/>
	<path class="st1" d="M15.1,74.7L15.1,74.7L15.1,74.7L15.1,74.7L15.1,74.7C15.1,74.7,15.1,74.7,15.1,74.7L15.1,74.7L15.1,74.7z"/>
	<path class="st1" d="M10.3,87.1c0,0.1,0.1,0.1,0.1,0.2c0.1,0.1,0.1,0.2,0.2,0.4v-1.6l-0.1,0.2l-0.1,0.1l0,0.1c0,0,0,0.1-0.1,0.1
		c0,0-0.1,0.1-0.1,0.1c0,0.1-0.1,0.1-0.1,0.1C10.2,86.9,10.2,87,10.3,87.1z"/>
	<path class="st1" d="M10.1,68.7C10,68.6,10,68.6,10.1,68.7c-0.2,0.1-0.2,0.2-0.4,0.3l0.2-0.2L10.1,68.7z"/>
	<path class="st1" d="M28.5,61.5c0,0,0-0.1,0-0.1l-0.4,0l-0.2,0l0.2,0L28.5,61.5z"/>
	<g>
		<path class="st2" d="M39.1,97.9c-0.1,0.1-0.2,0.1-0.5,0.4c-0.1,0-0.1,0.1-0.2,0.1c0.3-0.2,0.6-0.5,0.9-0.6
			C39.2,97.8,39.2,97.8,39.1,97.9z"/>
		<path class="st2" d="M41.9,104.3L41.9,104.3L41.9,104.3L41.9,104.3z"/>
		<path class="st2" d="M37.6,99.8c0.1,0.2,0.3,0.5,0.7,0.7c-0.2-0.2-0.3-0.4-0.5-0.5L37.6,99.8z"/>
		<path class="st2" d="M37.8,99.1c-0.1,0.2-0.2,0.3-0.2,0.3l-0.1,0.2l0,0l0,0l0.1,0.1l0.1,0.1C37.6,99.6,37.7,99.3,37.8,99.1z"/>
		<path class="st2" d="M38.4,98.4c-0.2,0.2-0.4,0.4-0.6,0.6c0,0,0.1-0.1,0.1-0.1C38,98.7,38.2,98.6,38.4,98.4z"/>
		<path class="st2" d="M38.3,100.5c0,0,0.1,0.1,0.1,0.1c0.4,0.4,0.8,0.8,1.2,1.2s0.8,0.8,1.2,1.2l0.1,0.1
			C40,102.3,39.2,101.4,38.3,100.5L38.3,100.5z"/>
		<path class="st2" d="M41.8,104.2l-0.2-0.2c-0.1-0.1-0.2-0.2-0.4-0.4c-0.9-0.9-1-1.1-0.3-0.3l0.4,0.5l0.3,0.3L41.8,104.2
			c0,0,0.1,0.1,0.1,0.1l0,0L41.8,104.2z"/>
		<path class="st2" d="M41.1,103.4c0,0-0.1-0.1-0.1-0.1l0,0C41,103.3,41,103.3,41.1,103.4z"/>
		<path class="st2" d="M40.7,97.7l-0.1-0.1L40.7,97.7C40.7,97.7,40.7,97.7,40.7,97.7z"/>
		<path class="st2" d="M39.9,97.6c0,0,0.1,0,0.1,0h0C40,97.6,39.9,97.6,39.9,97.6z"/>
		<path class="st2" d="M40.4,97.5L40.4,97.5C40.4,97.5,40.5,97.5,40.4,97.5L40.4,97.5z"/>
		<path class="st2" d="M40.4,97.5l-0.2,0.1C40.3,97.5,40.3,97.5,40.4,97.5C40.4,97.5,40.4,97.5,40.4,97.5z"/>
		<path class="st2" d="M40.1,97.5C40.1,97.5,40,97.5,40.1,97.5l0.1,0C40.1,97.5,40.1,97.5,40.1,97.5z"/>
		<path class="st2" d="M39.3,97.8C39.3,97.8,39.3,97.8,39.3,97.8c0,0,0.1,0,0.2,0C39.4,97.7,39.4,97.7,39.3,97.8z"/>
		<path class="st2" d="M40.5,97.5L40.5,97.5L40.5,97.5z"/>
		<path class="st2" d="M40.7,97.7C40.7,97.7,40.7,97.7,40.7,97.7C40.7,97.7,40.7,97.7,40.7,97.7z"/>
		<path class="st2" d="M40.8,97.7c0.1,0.1,0.2,0.2,0.4,0.3C41,97.8,40.8,97.8,40.8,97.7z"/>
		<path class="st2" d="M27.9,102.9c-0.1,0-0.4-0.1-0.8,0c-0.5,0.1-1,0.5-1.2,1c-0.1,0.2-0.1,0.5-0.2,0.7c0,0.2-0.1,0.5-0.1,0.8
			c-0.1,1,0,2.1,0,3.1c0,0.1,0,0.3,0,0.5c0,0.2,0,0.4,0,0.6v0.1c0,0,0,0-0.1,0l-0.1,0c-0.1,0-0.2,0-0.3,0c-0.2,0-0.4-0.1-0.6-0.1
			c-0.6-0.1-1.2-0.2-1.7-0.3c-0.6-0.1-1.4-0.3-2.2-0.5c-0.8-0.2-1.6-0.5-2.2-0.7c-0.6-0.2-1.1-0.4-1.2-0.5c-0.1,0,0.1,0.1,1,0.5
			c1.2,0.5,2.4,0.9,3.5,1.2c0.3,0.1,0.6,0.1,0.8,0.2c0.3,0.1,0.5,0.1,0.8,0.1c0.3,0,0.5,0.1,0.8,0.1l0.4,0.1l0.5,0
			c0.2,0,0.4,0,0.6,0.1h0.1c0,0,0-0.1,0-0.1v-0.3c0-0.2,0-0.4,0-0.6v-0.4c0-0.5,0-1,0-1.6c0-0.5,0-1.1,0.1-1.6
			c0-0.3,0.1-0.5,0.1-0.8c0-0.3,0.1-0.5,0.2-0.7c0.5-0.7,1.6-1,2.3-0.6c0,0-0.1,0-0.1,0C28.1,102.9,28,102.9,27.9,102.9z"/>
		<path class="st2" d="M29.9,109.4l-0.2,0c0,0,0,0,0,0v-0.1v-0.1c0-0.3,0-0.5,0-0.8c0-0.6,0-1.1,0-1.8c0-0.6-0.1-1.3-0.2-2
			c0-0.2-0.1-0.4-0.1-0.6c0.1,0.4,0.2,0.9,0.2,1.4c0.1,0.9,0.1,1.9,0.1,2.8c0,0.2,0,0.5,0,0.7v0.4v0.1c0,0,0,0,0,0h0.1L29.9,109.4
			c0.5,0,1-0.1,1.5-0.2c1.1-0.2,2.1-0.5,3.1-0.8c-1.3,0.4-2.6,0.7-4.1,1C30.2,109.4,30,109.4,29.9,109.4z"/>
		<path class="st2" d="M41.3,98.2c0,0,0.1,0.1,0.2,0.1C41.5,98.3,41.4,98.3,41.3,98.2C41.4,98.2,41.3,98.2,41.3,98.2z"/>
		<path class="st2" d="M49.5,88.9c-0.1,0-0.3,0-0.5,0c-0.6,0-1.3,0-2,0c-0.7,0-1.4-0.1-2.2-0.2l-0.3-0.1l-0.1,0c0,0,0,0,0,0l-0.1,0
			c-0.1,0-0.2-0.1-0.3-0.2l0,0c0.3,0.2,0.5,0.2,0.7,0.3c0.4,0.1,0.5,0.1,0.3,0.1c-0.1,0-0.2,0-0.4-0.1c-0.2,0-0.4-0.1-0.7-0.3
			c-0.2-0.2-0.5-0.5-0.6-0.8c-0.1-0.4-0.2-0.8-0.1-1.2c0.1-0.4,0.4-0.9,0.8-1.1c0.2-0.1,0.5-0.2,0.7-0.2c0.3,0,0.6-0.1,0.9-0.1
			c1.1-0.1,2.4,0,3.6,0c0.2,0,0.4,0,0.6,0c0-0.2,0-0.4-0.1-0.6c0-0.3-0.1-0.6-0.1-0.9c-0.1-0.6-0.2-1.2-0.4-1.8
			c-0.3-1.2-0.6-2.3-1-3.3c-0.4-1-0.8-2.1-1.4-3.1c-0.1-0.2-0.3-0.5-0.4-0.8c-0.1-0.2-0.3-0.5-0.5-0.8l-0.2-0.4l-0.1-0.2
			c-0.1-0.1-0.1-0.2-0.2-0.3c-0.2-0.2-0.3-0.4-0.5-0.6l-0.2-0.3l0,0l0,0h0l-0.1,0.1l-0.1,0.1c-0.6,0.5-1.2,1.1-1.7,1.6
			c-0.5,0.4-0.9,0.8-1.4,1.2c-0.2,0.2-0.5,0.4-0.7,0.6l-0.4,0.3c-0.1,0.1-0.1,0-0.1,0.1c0,0,0,0,0,0H40c0,0,1,0.3-0.1,0
			c-1.4-0.1-0.5-1.4-0.5-1.4l5.6-5.6c0.2-0.2-2-1.7-4-2.9c-0.2-0.1-0.5-0.3-0.7-0.5l-0.5-0.3c-0.3-0.2-0.6-0.3-0.9-0.5
			c-0.6-0.3-1.1-0.6-1.7-0.9c-0.6-0.2-1.2-0.5-1.8-0.7l-0.9-0.3c-0.5-0.2-1.1-0.3-1.6-0.4l-1.6-0.3l-1.6-0.2l-1.2-0.1L28,61.4
			l-0.2,0l-0.7-0.1l-0.4-0.1c-0.1,0-0.3,0-0.4,0c0,0.1,0,0.2,0,0.4l-1.1,0.1c-0.5,0.1-1.1,0.1-1.6,0.2L23.3,62L22.9,62l-0.8,0.2
			l-0.4,0.1l-0.4,0.1l-0.7,0.2l-0.4,0.1L20,62.8l-0.5,0.1c-0.6,0.2-1.2,0.4-1.9,0.7c-0.6,0.2-1.2,0.5-1.8,0.9L15,64.9l-1.4,0.9
			c-0.4,0.3-0.9,0.6-1.3,1l-1.2,1l-1.1,0.9l-0.1,0.1L9.6,69c-0.2,0.3-0.5,0.7-0.7,1c-0.4,0.5-0.7,0.9-1,1.4
			c-0.6,0.9-1.2,1.8-1.8,2.8l-0.2,0.4l-0.1,0.2c-0.1,0.1-0.1,0.3-0.2,0.4c-0.1,0.3-0.3,0.6-0.4,0.9c-0.2,0.6-0.5,1.2-0.6,1.8
			c-0.1,0.3-0.2,0.6-0.3,0.9C4.1,79.1,4,79.4,4,79.7c-0.1,0.3-0.1,0.6-0.2,0.9L3.6,81c0,0.2-0.1,0.5-0.1,0.7l-0.1,0.7
			c0,0.2,0,0.5-0.1,0.7c0,0.5-0.1,0.9-0.1,1.3c0,0.4-0.1,0.9-0.1,1.3c0,0.4-0.1,0.9,0,1.2c0.1,0,0.1,0,0.2,0c0.6,0,1.1-0.1,1.7-0.1
			c0.5,0,1.1-0.1,1.6-0.1c0.3,0,0.5,0,0.8-0.1l0.4,0c0.1,0,0.3,0,0.4,0c0.2,0,0.5,0,0.7,0c0.4,0.1,0.7,0.2,0.9,0.4
			c0,0,0.1,0.1,0.1,0.1c0,0,0.1-0.1,0.1-0.1c0,0,0-0.1,0.1-0.1c0,0,0-0.1,0.1-0.1l0-0.1l0.1-0.1l0.1-0.2v1.6
			c-0.1-0.1-0.1-0.3-0.2-0.4c0-0.1-0.1-0.1-0.1-0.2c-0.1-0.1-0.1-0.1-0.2-0.2C9.9,87,9.8,87,9.7,87.1c-0.2,0.2-0.6,0.3-1.1,0.4
			c-0.2,0-0.5,0-0.9,0c-0.3,0-1,0-1.5,0c-0.6,0-1.1,0-1.6,0c-0.2,0-0.5,0-0.7,0l-0.4,0c-0.1,0-0.2,0-0.3,0.1
			c0.1,0.7,0.2,1.5,0.4,2.2c0.1,0.4,0.1,0.7,0.2,1.1l0.1,0.5C4,91.6,4,91.8,4.1,92c0.1,0.2,0.1,0.5,0.2,0.7c0.1,0.2,0.1,0.4,0.2,0.6
			c0.1,0.4,0.3,0.8,0.4,1.2c0.6,1.6,1.4,3,2.2,4.4c-0.5-0.7-0.9-1.5-1.2-2.3c-0.4-0.7-0.7-1.5-1-2.3c-0.1-0.4-0.3-0.8-0.4-1.2
			c-0.1-0.2-0.1-0.4-0.2-0.6c-0.1-0.2-0.1-0.5-0.2-0.7c-0.1-0.3-0.1-0.6-0.2-1c-0.1-0.3-0.1-0.7-0.2-1c-0.1-0.7-0.2-1.4-0.4-2.2
			c0.1,0,0.1,0,0.2-0.1c0.1,0,0.2,0,0.3,0c0.2,0,0.4,0,0.6,0c0.4,0,0.9,0,1.4,0s1,0,1.6,0h0.2c0.1,0,0.1,0,0.1,0h0.2
			c0.1,0,0.3,0,0.4,0c0.6-0.1,0.7-0.1,0.8-0.1c0,0-0.2,0.1-0.5,0.2c-0.4,0.1-0.8,0.2-2,0.2c-0.2,0-0.5,0-0.8,0c-0.2,0-0.5,0-0.7,0
			c-0.2,0-0.5,0-0.7,0c-0.1,0-0.2,0-0.4,0c-0.1,0-0.1,0-0.1,0.1L3.7,88C3.9,88.6,4,89.1,4,89.6c0.1,0.4,0.1,0.7,0.2,1.2
			c0,0.2,0.1,0.4,0.1,0.7c0,0.1,0,0.2,0.1,0.4l0,0.3c0,0.3,0.1,0.6,0.2,1c0.1,0.3,0.1,0.6,0.2,0.8c0.7,2.1,1.7,4,3.1,5.9
			c0.1,0.2,0.2,0.4,0.3,0.5c0,0.1,0.1,0.1,0.1,0.2c0,0.1,0.1,0.1,0.1,0.2c0.1,0.2,0.1,0.4,0.4,0.7c0.2,0.2,0.4,0.5,0.6,0.7
			c0.1,0.1,0.2,0.2,0.3,0.4c0,0.1,0.1,0.1,0.1,0.2l0.1,0c0.4-0.4,0.7-0.8,1-1.1c0.1-0.2,0.3-0.3,0.5-0.5l0.2-0.2l0.1-0.1l0.1-0.1
			c0.4-0.4,0.7-0.9,1.1-1.2c0.4-0.4,0.7-0.7,1-1.1c0.1-0.1,0.2-0.2,0.3-0.3l0.1-0.1c0,0,0-0.1,0.1,0c0.1,0,0.1,0.1,0.2,0.1
			c0.1,0.1,0.2,0.1,0.3,0.2l0.1,0l0.1,0.1l0.2,0.1c0.1,0.1,0.3,0.2,0.5,0.3c0.1,0.1,0.2,0.1,0.3,0.2c0.1,0.1,0.2,0.1,0.2,0.2
			c0,0.1-0.1,0.2-0.1,0.3c0,0.1-0.1,0.2-0.1,0.3l0,0.1l0,0.1c0,0.1-0.1,0.1-0.1,0.2c-0.4,0.7-0.9,1.4-1.4,2
			c-0.4,0.4-0.7,0.8-1.2,1.2c-0.2,0.2-0.5,0.5-0.7,0.7l-0.4,0.4l-0.1,0.1c0,0,0.1,0.1,0.1,0.1l0.2,0.2c0.3,0.2,0.6,0.5,0.9,0.6
			l0.4,0.2c0.1,0.1,0.2,0.1,0.4,0.2c0.9,0.6,2,1.1,3,1.6c2.1,1,4.3,1.6,6.5,2c0,0,0,0-0.1,0c-2.6-0.4-5-1.3-7.4-2.6
			c1,0.6,0.9,0.5-0.3-0.1c-0.3-0.2-0.6-0.4-0.9-0.6c2,1.2,4.1,2.1,6.2,2.7c0,0,0.2,0.1,0.5,0.1c0.3,0.1,0.7,0.1,0.9,0.2
			c0.7,0.1,0.7,0.2,0.8,0.2c0.2,0,0.5,0.1,0.7,0.1l0.4,0l0.2,0h0.1h0v0v0c0,0,0,0-0.1,0c0,0-0.1,0-0.1,0c-0.1,0-0.2,0-0.3,0
			c-0.2,0-0.4-0.1-0.7-0.1c-0.5-0.1-1-0.2-1.5-0.3c-1-0.2-1.8-0.5-1.8-0.5c-1.6-0.5-3.1-1.1-4.5-1.9c-0.7-0.4-1.4-0.8-2-1.2
			c-0.2-0.1-0.3-0.2-0.5-0.4c-0.1-0.1-0.3-0.2-0.5-0.3l-0.4-0.4c0,0-0.1,0,0,0l0,0l0.1-0.1l0.2-0.2c0.5-0.5,1.1-1,1.7-1.6
			s1-1.1,1.4-1.8c0.2-0.3,0.4-0.7,0.5-1.1c0.1-0.2,0.1-0.4,0.2-0.6l0-0.1l0-0.1v0l0,0l-0.2-0.1c-0.7-0.4-1.4-0.8-2-1.2
			c-0.1,0-0.2-0.1-0.3-0.1l-0.1-0.1c0,0,0,0-0.1,0l-0.1,0.1c-0.1,0.2-0.3,0.3-0.6,0.5c-0.4,0.3-0.7,0.6-1.1,0.9
			c-0.6,0.6-1.2,1.2-1.9,1.8c-0.2,0.2-0.4,0.4-0.6,0.6c0,0,0,0,0,0l0,0c0,0-0.1,0.1-0.1,0.1c0,0,0,0-0.1,0c0,0,0,0,0,0s0,0.1,0,0.1
			c0,0,0,0,0,0c0,0,0,0,0,0l0,0c0,0,0,0,0.1-0.1c0,0,0,0,0,0c0.2-0.2,0.5-0.4,0.7-0.5c-0.1,0.1-0.5,0.4-0.7,0.5l0,0l-0.1,0
			c0,0,0,0,0,0c0,0-0.1-0.1-0.1-0.1c-0.1-0.1-0.1-0.2-0.2-0.3c-0.1-0.2-0.3-0.4-0.4-0.6c-0.2-0.2-0.4-0.6-0.6-0.9c0,0,0,0,0,0l0,0
			c0,0,0,0,0-0.1s0-0.1,0-0.1c-0.1-0.2-0.3-0.5-0.4-0.7c-0.3-0.6-0.6-1.1-0.7-1.5c0.4,0.7,0.8,1.5,1.2,2.2c0.5,0.7,0.9,1.3,1.4,2
			c-0.3-0.3-0.5-0.6-0.7-0.9c0,0-0.1-0.1-0.1-0.1c0,0.1,0.1,0.1,0.1,0.2c0.1,0.2,0.3,0.4,0.4,0.5l0.2,0.2l0.1,0.1
			c0,0,0.1-0.1,0.1-0.1l0,0c0.1-0.1,0.2-0.2,0.3-0.3l-0.3,0.3c0,0-0.1,0.1-0.1,0.1L9.9,101l-0.2-0.2c-0.1-0.2-0.2-0.3-0.4-0.5
			c-0.1-0.2-0.2-0.3-0.4-0.5c-0.1-0.2-0.2-0.4-0.4-0.6c-0.5-0.8-0.9-1.6-1.3-2.4c-0.2-0.4-0.4-0.8-0.5-1.1c-0.6-1.3-1-2.7-1.1-3.6
			c0-0.2-0.1-0.3-0.1-0.5c0-0.1-0.1-0.3-0.1-0.5c0,0.1,0,0.1,0,0.2c0-0.1,0-0.2,0-0.4c-0.1-0.5-0.2-1-0.2-1.5l0-0.1v0h0h0.1h0.3
			c0.2,0,0.4,0,0.6,0c0.4,0,0.8,0.1,1.2,0.1c0.9,0,1.9,0,2.7-0.3c0.5-0.2,0.9-0.5,1.2-0.8c0.4-0.4,0.6-0.8,0.8-1.2l0.1-0.2L12,86.6
			c-0.1-0.1-0.1-0.3-0.2-0.4c-0.1-0.1-0.2-0.3-0.3-0.5c-0.1-0.1-0.2-0.3-0.4-0.4c-0.1-0.1-0.2-0.2-0.4-0.4c-0.6-0.5-1.3-0.7-2-0.8
			c-0.2,0-0.4,0-0.5-0.1c-0.2,0-0.4,0-0.5,0c-0.2,0-0.5,0-0.7,0c-0.5,0-1,0-1.5,0.1H5.4h0v0V84l0-0.4c0-0.2,0.1-0.5,0.1-0.7
			c0.1-0.4,0.2-0.9,0.3-1.3c0-0.2,0.1-0.5,0.2-0.7c0.1-0.2,0.2-0.5,0.2-0.8c0.2-0.5,0.4-1,0.6-1.5c0.2-0.5,0.5-1,0.7-1.5
			c0.1-0.2,0.2-0.5,0.4-0.7l0.4-0.6c0.4-0.7,0.9-1.4,1.5-2l0,0l0,0l0,0l0,0l0.1,0.1l0.2,0.2l0.4,0.4l0.7,0.8l0.4,0.4l0.5,0.5
			c0.4,0.4,0.7,0.7,1.1,1l0.2,0.2h0.3h0.3c0.1,0,0.2,0,0.3,0c0.2,0,0.5-0.1,0.7-0.1c0.5-0.1,0.9-0.4,1.3-0.8
			c0.4-0.4,0.6-0.9,0.7-1.4c0-0.2,0.1-0.5,0-0.7c0-0.1,0-0.2,0-0.4l0-0.3l0-0.2L17,73.2c-1.3-1.6-2-2.2-2.9-3.1L13.9,70
			c0,0,0.1-0.1,0.1-0.1l0.2-0.2c0.1-0.1,0.3-0.2,0.5-0.4c0.3-0.2,0.7-0.5,1-0.7c0.2-0.1,0.4-0.2,0.5-0.3c0.1,0,0.2-0.1,0.4-0.2
			L17,68c0.2-0.1,0.5-0.2,0.7-0.4l0.7-0.3l0.8-0.3l0.8-0.3l0.8-0.2l0.6-0.2c0.4-0.1,0.8-0.2,1.2-0.2c0.2,0,0.4-0.1,0.6-0.1l0.3,0
			h0.1h0c0,0,0,0,0,0v0v0.1c0,0.7,0,1.4,0,2.1v0.3l0,0.4c0,0.3,0.1,0.6,0.1,0.9c0,0.3,0.1,0.6,0.1,0.9c0.1,0.3,0.1,0.6,0.2,0.8
			l0.2,0.9l0.9,0c0.2,0,0.5,0,0.7,0c0.3,0,0.6,0,1-0.1c0.7-0.1,1.4-0.2,2-0.3l0.1,0c0,0,0,0,0-0.1l0.1-0.1c0-0.1,0.1-0.2,0.1-0.3
			c0.1-0.2,0.2-0.4,0.2-0.6c0.2-0.4,0.3-0.9,0.4-1.3c0-0.2,0.1-0.5,0.1-0.7c0-0.1,0-0.2,0-0.4l0-0.2c0-0.2,0-0.5,0-0.7
			c0-0.5,0-0.9,0-1.4v0h0.1l0.1,0l0.3,0l0.5,0.1c0.4,0.1,0.7,0.2,1.1,0.2l0.5,0.2c0.2,0.1,0.5,0.2,0.8,0.2c0.5,0.2,1,0.4,1.5,0.6
			c0.5,0.2,1,0.5,1.5,0.7c0.2,0.1,0.5,0.2,0.7,0.4l0.2,0.1l0.1,0.1c0.1,0,0.1,0.1,0.2,0.1c0.3,0.2,0.5,0.4,0.8,0.5
			c0.1,0.1,0.2,0.2,0.4,0.3l0.2,0.1l0,0l0,0c0,0,0,0,0,0l-0.1,0.1c-0.3,0.3-0.6,0.6-0.9,0.9l-0.2,0.2l-0.2,0.2
			c-0.2,0.2-0.5,0.5-0.7,0.8c0,0,0,0,0.1-0.1l-0.1,0.1l0,0c-0.5,0.5-0.9,1.2-1,2c0,0.3,0,0.6,0,0.9c-1.6,1.2-3.2,2.3-4.8,3.5
			c-2.2,1.5-4.3,3.1-6.4,4.7l-0.8,0.6l-0.7,0.6l-0.4,0.4c-0.1,0.1-0.3,0.3-0.5,0.4c-0.3,0.3-0.5,0.6-0.7,1c-0.4,0.7-0.7,1.5-0.8,2.4
			c-0.1,0.9,0.1,1.8,0.5,2.6l0-0.1c0.6,1.4,1.8,2.5,3.2,2.9c0.7,0.2,1.4,0.3,2.1,0.3c0.7,0,1.4-0.2,2.1-0.6c0.3-0.2,0.6-0.4,0.9-0.6
			c0.1-0.1,0.2-0.2,0.4-0.4c0.1-0.1,0.1-0.1,0.2-0.2l0.1-0.1l0,0l0.1-0.1v0l0.5-0.7l0.4-0.7c0.6-1,1.1-2,1.6-3c1-2,2-4,2.9-6.1
			c0.4-0.8,0.8-1.6,1.2-2.5c0.7-1.9,0.3-1.9,1.1-2.4l1.4,0.4c0.1,0,0.2,0,0.4,0l0.2,0l0.2,0l0.1,0l0.1-0.1c0.1,0,0.1-0.1,0.2-0.1
			l0.5-0.4l0.4-0.4c0.3-0.2,0.6-0.5,0.9-0.8c0.5-0.5,1.1-1.1,1.6-1.7l0,0l0,0l0,0l0,0l0,0l0,0c0,0,0,0,0,0l0.4,0.5
			c1.8,2.4,3.1,5.2,3.9,8.2c0.1,0.5,0.2,1,0.3,1.5c0,0.1,0,0.3,0.1,0.4v0.1l0,0l0,0l0,0l0,0l0,0l0,0h0h-0.2c-1.2,0-2.5,0-3.8,0.2
			c-0.2,0-0.4,0-0.5,0.1c-0.2,0-0.4,0.1-0.6,0.2c-0.4,0.2-0.7,0.4-0.9,0.8c-0.4,0.7-0.5,1.5-0.2,2.2c0.2,0.4,0.4,0.7,0.7,0.9
			c0,0,0.1,0.1,0.1,0.1l0.1,0c0,0,0.1,0,0.1,0l0.1,0c0,0,0,0,0.1,0h0.1c0.2,0,0.4,0.1,0.5,0.1c0.7,0.1,1.5,0.1,2.2,0.1
			s1.4,0,2.1-0.1h0.4l0,0l0,0v0V89l0,0.2c0,0.4-0.1,0.7-0.1,1c-0.2,1.4-0.6,2.7-1,4c-0.9,2.5-2.1,4.6-3.2,6.1
			c-0.2,0.2-0.4,0.5-0.6,0.7c0,0,0,0,0,0l0,0L44,101c0,0-0.1-0.1-0.1-0.1c-0.1-0.1-0.2-0.2-0.3-0.3c-0.4-0.4-0.7-0.7-1-1
			c-0.6-0.6-1.1-1-1.4-1.4c0,0-0.1-0.1-0.1-0.1c0.2,0.2,0.5,0.5,0.6,0.5c0.6,0.5,1.1,1.1,1.7,1.6l0.8,0.8l0,0c0,0,0,0,0,0l0-0.1
			l0.1-0.1l0.2-0.2c0.1-0.1,0.2-0.3,0.4-0.5c0.9-1.3,1.8-2.7,2.6-4.4c0.7-1.7,1.4-3.7,1.8-6.1c0.1-0.3,0.1-0.6,0.1-0.9l0-0.1v-0.1
			c0,0-0.1,0-0.1,0L49.5,88.9z M8.4,84.3c0.2,0,0.5,0,0.7,0c0.5,0,0.9,0.2,1.3,0.4c0.4,0.2,0.7,0.5,1,0.8c0.3,0.3,0.4,0.6,0.6,1
			c-0.2-0.3-0.4-0.6-0.7-0.9c-0.3-0.3-0.7-0.5-1.1-0.7c-0.4-0.2-0.8-0.3-1.2-0.4c-0.2,0-0.4-0.1-0.6-0.1c-0.2,0-0.3,0-0.5-0.1
			C8.1,84.3,8.2,84.3,8.4,84.3z M15.1,74.7C15.1,74.6,15.1,74.6,15.1,74.7L15.1,74.7L15.1,74.7L15.1,74.7
			C15.1,74.7,15.1,74.7,15.1,74.7L15.1,74.7C15.1,74.7,15.1,74.7,15.1,74.7C15.1,74.7,15.1,74.7,15.1,74.7
			C15.1,74.7,15.1,74.7,15.1,74.7L15.1,74.7L15.1,74.7L15.1,74.7L15.1,74.7L15.1,74.7L15.1,74.7z M31.3,86.7c-0.6,1-1.1,1.9-1.7,2.9
			l-0.5,0.7l-0.4,0.6v0c0,0-0.1,0.1-0.1,0.1l0,0l0,0v0v0l0,0l-0.1,0.1c0,0,0,0.1-0.1,0.1l0,0c0,0-0.1,0.1-0.2,0.1
			c-0.1,0.1-0.2,0.2-0.4,0.2c-0.6,0.3-1.4,0.2-2,0c-0.6-0.2-1.1-0.8-1.3-1.3l-0.1-0.1c-0.1-0.2-0.1-0.5-0.1-0.8
			c0-0.3,0.1-0.6,0.3-0.8c0.1-0.2,0.3-0.5,0.5-0.6c0,0,0.1-0.1,0.1-0.1l0.1-0.1l0.1-0.1l0.1-0.1l0.1-0.1l0.3-0.2
			c0.8-0.6,1.6-1.1,2.4-1.7c1.6-1.2,3.4-2.4,5.2-3.6c0,0,0.1-0.1,0.1-0.1C33.2,83.3,32.3,85,31.3,86.7z"/>
	</g>
	<path class="st1" d="M9.3,99.9c-0.1-0.2-0.2-0.3-0.3-0.5c-0.2-0.4-0.5-0.7-0.7-1.1c0.2,0.4,0.4,0.7,0.6,1c0,0,0.1,0.1,0.1,0.1
		c0,0,0,0,0,0c0.2,0.2,0.3,0.5,0.5,0.7C9.4,100,9.3,99.9,9.3,99.9z"/>
	<path class="st1" d="M8.9,99.4L8.9,99.4L8.9,99.4C8.9,99.4,8.9,99.4,8.9,99.4z"/>
	<path class="st1" d="M8.9,99.4c0.1,0.2,0.2,0.4,0.3,0.5c0.1,0.1,0.1,0.2,0.2,0.2c0,0,0.1,0.1,0.1,0.1c0.2,0.2,0.5,0.6,0.7,0.9
		c-0.5-0.6-0.9-1.2-1.4-2C8.4,98.5,8,97.8,7.6,97c0.1,0.4,0.4,1,0.7,1.5c0.1,0.2,0.3,0.5,0.4,0.7c-0.2-0.3-0.4-0.7-0.6-1
		C8.4,98.6,8.7,99,8.9,99.4z"/>
	<path class="st1" d="M127.7,90.7L127.7,90.7C127.7,90.7,127.7,90.7,127.7,90.7C127.7,90.7,127.7,90.7,127.7,90.7z"/>
	<path class="st1" d="M147.1,105.3c0.7,0,1.5,0,2.3,0.1c0.4,0,0.8,0,1.2,0h0.1c0,0,0,0,0,0.1v0.1v0.3v0.6c0,1.6,0,3.2,0,4.7
		c0-0.5,0.1-0.9,0.1-1.4c0-1.8,0-2-0.1-0.4c0-0.9,0-1.9,0.1-2.7c0-0.2,0-0.5,0-0.7v-0.4v-0.2v-0.1c0,0-0.1,0-0.1,0c-0.5,0-1,0-1.5,0
		c-1.8,0-3.5,0-5.3,0c0.2,0,0.2,0.1,1.2,0.1C145.7,105.3,147.1,105.3,147.1,105.3z"/>
	<path class="st2" d="M151.2,55L151.2,55l-0.3,0c-2.7,0-5.4,0-8.1,0c-1.4,0-2.7,0-4.1,0h-0.1l0,0l0,0l0,0l0,0
		c-0.1,0.1-0.2,0.2-0.2,0.4c-0.1,0.3-0.2,0.6-0.2,0.9c-0.1,0.6,0.1,1.2,0.4,1.6l0,0.1h0.1c0.2,0,0.4,0,0.6,0c0.4,0,0.7,0,1.1,0
		c0.7,0,1.5,0,2.2,0c1.5,0,2.9,0,4.3,0c0.7,0,1.4,0,2.1,0c0.4,0,0.7,0,1,0c0.2,0,0.5,0,0.7,0c0.1,0,0.3,0,0.5,0h0.1h0V58v0.2
		c0,1.5,0,2.9,0,4.3c0,0.6,0,1.3,0,2c0,0.3,0,0.6,0,1v0.6c0,0.3,0,0.6,0,0.9v0.1c0,0,0,0,0,0h-0.1H151h-0.5h-0.7h-1
		c-0.7,0-1.3,0-2,0c-2.7,0-5.3,0-8.1,0c-2.7,0-5.4,0-8.1,0h-0.5h-0.1l0,0l0,0c0,0,0,0,0,0l0,0c0,0,0,0.1-0.1,0.1
		c0,0.1-0.1,0.1-0.1,0.2c-0.2,0.5-0.3,1-0.1,1.4c0,0.1,0.1,0.2,0.1,0.3l0,0.1l0,0l0,0c0,0-0.1,0,0.4,0c0.7,0,1.4,0,2,0
		c5.3,0,10.5,0,15.4,0.1c0.6,0,1.2,0,1.8,0c0.5,0,1,0,1.5,0h0.4h0c0,0,0,0,0,0v0.1v0.2v0.8v0.7v0.4c0,0.3,0,0.6,0,0.9
		c0,0.6,0,1.2,0,1.7c0,1.2-0.1,2.5-0.1,3.7c0,0.2,0,0.4,0,0.7v0.2c0,0-0.1,0-0.1,0h-0.3c-0.2,0-0.4,0-0.7,0h-0.3h-0.1h-0.1
		c-0.5,0-1.1,0-1.6-0.1c-1.5,0-3.1-0.1-4.7-0.2c-0.8,0-1.7,0-2.5,0c-0.4,0-0.9,0-1.3,0h-0.6h-0.3c0,0-0.1,0-0.1,0l-0.1,0
		c0,0,0,0-0.1,0.1c0,0-0.1,0.1-0.1,0.1c-0.1,0.1-0.1,0.1-0.2,0.2c-0.1,0.1-0.2,0.3-0.2,0.5c-0.1,0.3-0.1,0.7-0.1,1
		c0.1,0.4,0.3,0.6,0.5,0.9c0.1,0.1,0.1,0.1,0.2,0.1c0.1,0,0.1,0,0.2,0c0.2,0,0.4,0,0.6,0c1.6,0.1,3.1,0.1,4.4,0.1
		c5.2,0,7.5,0,1.4-0.1c1.1,0,2.2,0,3.2,0.1c0.5,0,1,0,1.5,0c0.3,0,0.6,0,1,0h0.3h0l0,0l0,0v0.1v0.1c0,0.2,0,0.4,0,0.5
		c0,2-0.1,3.7-0.1,5.5c0,0.4,0,0.8,0,1.2c0,0.2,0,0.5,0,0.7c0,0.1,0,0.3,0,0.4v0h0h-0.1h-0.2c-0.8,0-1.6,0-2.4,0
		c-1.4,0-2.8,0-4.1-0.1c-2.5,0-4.8-0.1-6.9-0.1c-2.2,0-4.2,0-6.5-0.1l0,0c-0.8,0-1.6,0-2.5,0c-0.1,0.1-0.2,0.2-0.2,0.4c0,0,0,0,0,0
		c-0.1,0.1-0.1,0.2-0.2,0.4v0c0,0,0,0,0,0c0,0.1-0.1,0.2-0.1,0.4c0,0,0,0.1,0,0.1c0,0.1,0,0.2-0.1,0.4c0,0,0,0.1,0,0.1
		c0,0.1,0,0.2,0,0.3c0,0,0,0.1,0,0.1c0,0.1,0,0.2,0,0.4c0,0,0,0,0,0.1c0,0.1,0.1,0.2,0.1,0.4c0,0,0,0.1,0,0.1c0,0.1,0.1,0.2,0.2,0.4
		c0,0,0,0,0,0c0.2,0,0.4,0,0.5,0h0.1c0.2,0,0.3,0,0.5,0c0.7,0,1.4,0,2.1,0.1c4.4,0.1,6.5,0,6.5,0s8.1,0,12.1,0.1h1v1c0,1,0,2,0,3
		c0,1,0,2,0,3v1h-1c-1.5,0-3,0-4.6,0c-2.2,0-4.6,0-6.8-0.1c-0.9,1.2-0.9,2.6,0,3.8c2.4,0,4.9,0,7.3,0c0.1,0,0.2,0,0.3,0
		c-0.1,0-0.3,0-0.4,0c-1.4,0-2.9-0.1-3.6-0.1c0.7,0,1.4,0,2.1,0c0,0-0.1,0-0.1,0c1.5,0,3.1,0,4.6,0h1.2h0.7h0.4h0.1c0,0,0.1,0,0.1,0
		v0.2c0,0.9,0,1.7,0,2.5c0,1.6,0,3.1,0.1,4.7c0,0.2,0,0.5,0,0.7v0.4c0,0,0,0.1,0,0.1h-0.1h-0.2c-0.5,0-0.9,0-1.4,0
		c-0.7,0-1.5,0-2.2,0c-0.8,0-1.6,0-2.4,0c-1.2,0-2.4,0-3.6,0c-1.9,0-3.7-0.1-5.8-0.1c-1.4,0-2.9,0-4.6,0c-0.2,0-0.4,0-0.6,0h-0.2
		c-0.1,0-0.1,0-0.2,0c-0.1,0.1-0.1,0.2-0.2,0.3c0,0,0,0.1-0.1,0.2c0,0.1,0,0.2-0.1,0.3c0,0.4,0,0.8,0.1,1.2l0.1,0.1l0.1,0.1
		c0,0.1,0.1,0.1,0.1,0.1c0,0,0.1,0.1,0.1,0.1h0.2c0,0,0.1,0,0.1,0s0.1,0,0.1,0c0.1,0,0.2,0,0.3,0c0.2,0,0.5,0.1,1.2,0.1
		c3.2,0,5.9-0.1,8.9-0.1c1.4,0,3.5,0.2,4.8,0.1c0.8,0,1.9,0,3,0c0.7,0,1.4,0,2.1,0c0.1,0,0.2,0,0.3,0h0.1h0.1c0,0,0,0,0,0v0
		c0,0.2,0,0.4,0,0.6c0,0.4,0,0.8,0,1.1c0,1.9,0.1,2.7,0.1,0.3c0-0.7,0-1.4,0-2.1v-0.1v0h0h-0.1h-0.3c-0.2,0-0.4,0-0.5,0
		c-0.4,0-0.7,0-1.1,0c-0.8,0-1.6,0-2.4,0c-1.6,0-3,0-4.5,0c-2.9,0-5.7,0-8.9,0c2.9,0,5.8-0.1,8.9-0.1c1.6,0,3.1,0,4.8,0
		c0.9,0,1.9,0,2.8,0c0.4,0,0.7,0,1.1,0c0,0,0.1,0,0.1,0v0.1v0.3v0.6c0,0.6,0,1.1,0,1.7c0,1.1,0,2.3,0,3.6c0,0.7,0,1.5,0,2.2
		c0,0.3,0,0.6,0,0.9v0.2v0c0,0,0,0,0,0H151h-0.4c-0.5,0-1,0-1.6,0c-2.7,0-5.6-0.1-8.3-0.1c-0.5,0-0.9,0-1.4,0h-0.7h-0.1h0
		c0,0-0.1,0-0.1,0c0,0,0,0.1-0.1,0.1l0,0l0,0.1c-0.1,0.1-0.1,0.3-0.2,0.5c-0.1,0.3-0.1,0.7,0,1c0,0.1,0.1,0.2,0.1,0.2
		c0,0,0,0.1,0.1,0.1l0,0l0,0c0,0,0.1,0.1,0.1,0.1h0h0h0.1h0.4l0.7,0c1,0,2,0.1,3,0.1c2,0.1,4.1,0.1,6.2,0.2c1.1,0,2.1,0.1,3.2,0.1
		c0.5,0,1.1,0,1.6,0.1h0.2h0h0h0v0c0.1-6.8,0.2-13.4,0.3-20c0.1-6.7,0.2-13.3,0.3-19.8c0.1-6.5,0.2-13,0.3-19.4
		c0-3.2,0.1-6.5,0.1-9.7c0-1.6,0-3.2,0-4.8C153.8,54.9,152.5,54.9,151.2,55z"/>
	<path class="st3" d="M86.8,92.5C86.9,92.5,86.9,92.5,86.8,92.5C86.9,92.4,86.9,92.4,86.8,92.5C86.8,92.5,86.8,92.5,86.8,92.5z"/>
	<path class="st3" d="M86.9,92.4C86.9,92.5,86.9,92.5,86.9,92.4c-0.1,0.1-0.1,0.1-0.1,0.1C86.9,92.5,86.9,92.5,86.9,92.4
		C86.9,92.4,86.9,92.4,86.9,92.4z"/>
	<path class="st3" d="M111.5,52.9L111.5,52.9L111.5,52.9C111.5,52.9,111.5,52.9,111.5,52.9z"/>
	<path class="st1" d="M118.3,65.6c-0.6,1-1.1,2-1.7,3c0.3-0.5,0.6-1,1-1.4C117.9,66.5,118,66.1,118.3,65.6z"/>
	<path class="st1" d="M114.5,71.7c-0.1,0.1-0.2,0.3-0.2,0.4c0.2-0.3,0.4-0.6,0.6-1C114.8,71.4,114.7,71.6,114.5,71.7z"/>
	<path class="st1" d="M112.9,75.4c0.1-0.6,0.2-1.1,0.5-1.6c-0.2,0.4-0.4,0.9-0.5,1.5c0,0.1,0,0.3,0,0.4c0,0.1,0,0.2,0,0.4
		c0,0.3,0,0.5-0.1,0.9c0-0.2,0.1-0.5,0.1-0.8C112.8,75.9,112.8,75.6,112.9,75.4z"/>
	<path class="st1" d="M114.3,72.2C114.3,72.2,114.3,72.2,114.3,72.2c-0.3,0.5-0.6,1-0.9,1.6c0.3-0.6,0.7-1.1,1-1.5
		C114.1,72.6,114,72.7,114.3,72.2z"/>
	<path class="st1" d="M114.4,72.3c0.2-0.2,0.6-0.7,0.7-0.9C114.9,71.7,114.7,72,114.4,72.3z"/>
	<path class="st2" d="M113.6,94.2c0.1,0,0-0.2,0.1-0.7c0,0,0,0,0,0l0-0.2c0.5-6.4,0.4-10.5,0.7-16.1c0-0.5,0-1.1,0-1.6
		c0-0.4,0.1-0.9,0.4-1.3c0.2-0.5,0.5-0.9,0.7-1.5c0.1-0.2,0.3-0.5,0.4-0.8l0.4-0.7c1.1-2,2.1-4.1,3.1-6.2c0.6-1.2,1.2-2.3,1.7-3.4
		c-0.7,1.5-1.5,2.9-2.4,4.5c-0.6,1.1-1.2,2.3-1.8,3.7c-0.3,0.7-0.7,1.4-1,2.2c-0.4,0.8-0.9,1.6-1.2,2.4c-0.1,0.2-0.2,0.3-0.3,0.4
		c-0.1,0.1-0.3,0.3-0.3,0.8c0,0.7,0,1.4,0,2c0,0.6,0,1.3,0,1.9c0,1.3,0,2.5-0.1,3.8c0,1.2-0.7,3-0.6,4.2c0,1.5,0,4.1,0.1,5.8l0,0.1
		C113.4,93.8,113.6,94.1,113.6,94.2z"/>
	<path class="st2" d="M129.2,41.8c0,0.1,0,0.1-0.1,0.5c0,0,0,0,0,0.1C129.1,42.2,129.2,42,129.2,41.8z"/>
	<path class="st2" d="M125.9,51c0.6-1.5,0.7-1.6,0.1-0.4c0.6-1.3,1.1-2.6,1.7-3.8h0l0,0c-0.7,1.7-1.4,3.5-2.2,5.2l0,0
		C125.6,51.7,125.7,51.4,125.9,51z"/>
	<path class="st2" d="M125.4,52L125.4,52c-0.1,0.1-0.1,0.1-0.1,0.2C125.3,52.1,125.4,52,125.4,52z"/>
	<path class="st2" d="M128.9,43C128.9,43,128.9,43,128.9,43c0.1-0.2,0.1-0.4,0.2-0.6c0,0,0,0,0-0.1c0,0.1-0.1,0.3-0.1,0.5
		C128.9,42.9,128.9,43,128.9,43z"/>
	<path class="st2" d="M127.6,46.8c0.1-0.2,0.1-0.4,0.2-0.5c0.3-0.7,0.5-1.5,0.8-2.2c0.1-0.4,0.2-0.7,0.3-1c0,0,0,0,0-0.1
		c-0.1,0.3-0.2,0.6-0.2,0.9c-0.1,0.4-0.2,0.6-0.2,0.6C128.2,45.3,127.9,46.1,127.6,46.8L127.6,46.8
		C127.6,46.8,127.6,46.8,127.6,46.8z"/>
	<path class="st2" d="M129.2,40.4L129.2,40.4L129.2,40.4z"/>
	<path class="st2" d="M129.3,40.9L129.3,40.9C129.3,40.9,129.3,40.9,129.3,40.9L129.3,40.9z"/>
	<path class="st2" d="M129.2,40.5c0,0.1,0,0.3,0,0.4c0,0,0,0,0-0.1C129.3,40.7,129.3,40.6,129.2,40.5z"/>
	<path class="st2" d="M129.2,40.4C129.2,40.5,129.2,40.5,129.2,40.4C129.2,40.5,129.2,40.5,129.2,40.4
		C129.2,40.5,129.2,40.4,129.2,40.4z"/>
	<path class="st2" d="M129.3,41c0,0.3,0,0.6-0.1,0.9c0,0,0,0,0-0.1C129.3,41.5,129.3,41.2,129.3,41z"/>
	<path class="st2" d="M129.2,40.4C129.2,40.4,129.2,40.4,129.2,40.4C129.2,40.4,129.2,40.4,129.2,40.4
		C129.2,40.4,129.2,40.4,129.2,40.4z"/>
	<path class="st2" d="M128.9,40.1C128.9,40.1,128.9,40.1,128.9,40.1c0.1,0.1,0.2,0.1,0.2,0.2C129.1,40.2,129,40.1,128.9,40.1z"/>
	<path class="st2" d="M129.1,40.2L129.1,40.2L129.1,40.2z"/>
	<path class="st2" d="M129.2,40.4C129.2,40.3,129.2,40.3,129.2,40.4C129.2,40.3,129.2,40.3,129.2,40.4z"/>
	<path class="st1" d="M111.4,93L111.4,93C111.4,93,111.4,93,111.4,93L111.4,93z"/>
	<path class="st1" d="M111.8,94.9c0,0.1,0,0.3,0,0.5C111.9,95.2,111.9,95,111.8,94.9z"/>
	<path class="st1" d="M119.9,119.9c0,0,0,0.1,0.1,0.1C120,120,120,119.9,119.9,119.9c-0.1-0.5-0.3-1-0.5-1.4
		C119.6,119,119.8,119.5,119.9,119.9z"/>
	<path class="st2" d="M109.2,66.4c0.8,0,1.2-0.7,1.6-1.3l0.3-0.6l0.1-0.2l0.1-0.1l0.3-0.6c0.8-1.5,1.6-3.1,2.4-4.6
		c0.3-0.6,0.6-1.1,0.9-1.7c-1.5,2.4-2.9,4.7-4.3,6.9C110.1,64.9,109.6,65.7,109.2,66.4z"/>
	<path class="st1" d="M109.5,61.6c-0.2,0.2-0.4,0.5-0.6,0.7C109.1,62.1,109.3,61.9,109.5,61.6z"/>
	<path class="st1" d="M119.4,118.5L119.4,118.5L119.4,118.5z"/>
	<path class="st1" d="M120.8,122.7c-0.1-0.5-0.2-1-0.4-1.5c-0.1-0.4-0.2-0.7-0.4-1.1C120.1,120.7,120.4,121.5,120.8,122.7z"/>
	<path class="st2" d="M127.9,39.8c-0.5-0.1-1-0.2-1.1-0.2c-0.3,0-0.6,0-0.9,0c-0.7,0.1-1.3,0.3-1.9,0.7l0,0
		c-0.2,0.1-0.4,0.3-0.5,0.5c0,0-0.1,0.1-0.1,0.1l-0.1,0.1l-0.2,0.3c-0.2,0.4-0.5,0.8-0.8,1.2c-1,1.6-2.1,3.3-3.3,5.1
		c-1.2,1.9-2.6,4-4.2,6.4c-1.5,2.2-3.2,4.7-5.3,7.5c1.2-1.5,1.5-2,1.4-1.7c-0.1,0.2-0.4,0.6-0.7,1.2c-0.2,0.3-0.4,0.7-0.7,1.1
		c-0.1,0.2-0.3,0.4-0.4,0.6c-0.1,0.1-0.1,0.3-0.2,0.4c0,0.1-0.1,0.1-0.1,0.2c-0.1,0-0.2,0-0.3,0c-0.1,0-0.2,0-0.3,0
		c-0.1,0-0.2,0-0.2,0c-0.1,0-0.1,0-0.2,0c-0.3,0-0.7,0-1,0c-0.3,0-0.7,0-1,0c-1.4-0.1-2.9-0.2-4.4-0.3c-1.3-0.1-2.6-0.2-3.9-0.3
		c-0.2,0-0.4,0-0.6-0.1l-0.3,0h-0.1h0h-0.1h-0.2c-0.2,0-0.3-0.1-0.5-0.1c0,0,0,0-0.1-0.1l0-0.1c0-0.1-0.1-0.1-0.1-0.2
		c0-0.1,0-0.1-0.1-0.2c-0.1-0.1-0.1-0.3-0.2-0.5c-0.8-1.6-2.5-2.5-3.6-4.2c-1.1-1.8-1.6-4.5-3-6.3l-0.2-0.3l-0.5-0.5
		c-0.3-0.4-0.7-0.8-1-1.2c-0.7-0.8-1.4-1.6-2.1-2.4c-0.4-0.4-0.8-0.9-1.2-1.3c-0.3-0.3-0.6-0.7-1-1c-0.7-0.7-1.5-1.4-2.2-2.1
		c-1.4-1.3-3-2.5-4.3-2.7c-4.5-1-6.4,4.1-5.7,5.7c0.1,0.3,0.3,0.6,0.4,1c0.5,1,1,2,1.6,3.1c0.3,0.5,0.6,1.1,0.9,1.6l0.4,0.8l0.2,0.4
		l0.2,0.4l0.5,0.8l0.5,0.7l0.9,1.5c0.3,0.5,0.6,1,0.9,1.5l0.4,0.7c0.1,0.1,0.1,0.2,0.2,0.4c0,0,0.1,0.1,0.1,0.2l0.1,0.1
		c1.2,2,2.5,4,3.7,5.9c1.2,1.9,2.5,3.9,3.8,6c0.7,1,1.4,2.1,2.1,3.1c0.2,0.3,0.4,0.5,0.6,0.8c0.2,0.4,0.3,0.5,0.4,0.6
		c0.1,0.2,0.2,0.4,0.2,0.6c0.1,0.2,0.1,0.5,0.1,0.8c0.1,0.6,0.1,1.2,0.1,1.9c0,0.4,0.1,0.7,0.1,1l0.1,0.9c0.2,1.2,0.3,2.5,0.4,3.8
		c0,0.1,0,0.1,0,0.2c0.1,1.2,0.2,2.4,0.4,3.6c0.1,0.6,0.1,1.3,0.2,1.9c0,0.1,0,0.2,0,0.4c0.1,0.5,0.1,1,0.1,1.4
		c0.1,1.3,0.2,2.4,0,3.4c-0.1,0.2-0.1,0.5-0.2,0.7l-0.2,0.5l-0.2,0.5c-0.2,0.6-0.4,1.2-0.6,1.8c-0.8,2.4-1.5,4.8-2.3,7.2
		c-0.4,1.2-0.7,2.4-1.1,3.6c-1.1,3.6-2.1,7.3-3.1,10.9l-0.1,0.5l-0.1,0.2l-0.1,0.3c-0.2,0.6-0.3,1.2-0.5,1.9l-0.2,1l-0.1,0.5
		l-0.1,0.5c-0.1,0.3-0.2,0.7-0.2,1l-0.2,1l-0.2,1l-0.1,0.5l-0.1,0.5l-0.1,0.5c0,0.1,0,0.3,0,0.4l0,0.7v0.4v0.2c0,0.1,0,0.2,0,0.3
		l0,0.2c0,0.2,0.1,0.3,0.1,0.4c0,0.1,0,0.2,0.1,0.2c0,0,0,0.1,0,0.1c0.2,0.4,0.4,0.7,0.6,0.9c0.1,0.1,0.2,0.2,0.4,0.3
		c0.1,0,0.1,0.1,0.3,0.1c0.1,0,0.4,0.1,0.5,0.2c0.1,0,0.2,0,0.3,0c0.1,0,0.2,0,0.3,0c0.2,0,0.4,0,0.6-0.1l0.7-0.2l0.1,0
		c0,0,0.1,0,0.1-0.1l0.2-0.1l0,0l0.4-0.3c0.2-0.2,0.5-0.5,0.7-0.7c1-1.2,2.1-2.7,3.3-4.2c0.5-0.7,1-1.3,1.5-2
		c0.1-0.2,0.2-0.3,0.4-0.5l0.4-0.5l0.2-0.3l0.4-0.6c0.3-0.4,0.6-0.8,0.8-1.2c0.5-0.8,1.1-1.6,1.6-2.4c0.5-0.7,1-1.4,1.4-2.1
		c1.7-2.5,3.4-5.2,4.9-7.9l0,0l0.2-0.4l0.1-0.1l0,0l0,0l0,0c0,0,0,0,0-0.1l0-0.1v0c0,0,0,0,0-0.1c0-0.1,0.1-0.1,0.1-0.3
		c0-0.1,0-0.3,0.1-0.4c0,0,0-0.1,0-0.1c0,0,0,0,0-0.1l0,0l0.1,0c0.1,0,0.1,0.1,0.2,0.1c0.1,0.1,0.4,0.4,0.6,0.6c0,0,0,0,0,0
		c0,0,0,0,0,0l0,0.1l0,0l0.1,0.2l0.3,0.5c0.1,0.2,0.3,0.5,0.5,0.7c0,0.1,0.1,0.1,0.1,0.2c0.1,0.1,0.2,0.3,0.2,0.4
		c0.1,0.1,0.1,0.2,0.2,0.3c0.2,0.4,0.5,0.7,0.7,1.1c0.6,1.1,1.2,2.1,1.9,3.2c0.5,0.8,0.9,1.6,1.4,2.4c0.5,0.9,1.1,1.7,1.6,2.6
		c1.1,1.7,2.2,3.4,3.3,4.8c1.1,1.4,2.1,2.6,3,3.5c0.7,0.7,1.3,1.2,1.9,1.6c0.2,0.1,0.4,0.2,0.6,0.4l0,0c0,0,0,0,0,0c0,0,0,0,0,0l0,0
		l0,0c0,0,0.1,0,0.1,0.1c0.2,0.1,0.5,0.2,0.7,0.4c0.1,0.1,0.3,0.1,0.5,0.2c0.3,0.1,0.6,0.2,1,0.3c0.5,0.1,0.9,0.2,1.4,0.1
		c0.3,0,0.6-0.1,0.9-0.2c0.2-0.1,0.3-0.2,0.4-0.3c0.1-0.1,0.2-0.2,0.3-0.4c0.3-0.5,0.4-0.9,0.5-1.4c0.1-0.5,0.1-0.9,0.2-1.5
		c0-0.5,0-1.1,0-1.7c0,0.3,0,0.6,0,0.9c0,0.3,0,0.5,0,0.8c0,0.5-0.1,1-0.2,1.4c-0.1,0.4-0.2,0.9-0.5,1.3c-0.1,0.2-0.4,0.5-0.7,0.6
		c-0.3,0.2-0.6,0.2-0.9,0.2c-0.5,0-0.9-0.1-1.4-0.2c-0.2-0.1-0.5-0.1-0.7-0.2c-0.2-0.1-0.4-0.1-0.5-0.2c-0.2-0.1-0.5-0.2-0.7-0.3
		c0,0-0.1,0-0.1-0.1l0,0c0,0,0,0,0,0c0,0,0,0,0,0l0,0c-0.7-0.4-1.5-0.9-2.4-1.7c-0.2-0.2-0.4-0.4-0.6-0.6c-0.2-0.2-0.3-0.3-0.4-0.5
		c-0.2-0.2-0.2-0.4-0.2-0.4c0,0,0.2,0,0.4,0.2c0.1,0.1,0.2,0.1,0.4,0.2c0.1,0.1,0.3,0.2,0.4,0.3c0.6,0.4,1.3,0.8,2,1.1
		c0.4,0.2,0.8,0.4,1.1,0.5c0,0,0,0,0,0c0,0,0,0,0,0l0,0l0,0c0,0,0.1,0,0.1,0.1c0.1,0,0.2,0.1,0.3,0.1c0.2,0.1,0.6,0.4,1,0.6
		c0.2,0.1,0.4,0.2,0.6,0.4c0.3,0.1,0.7,0.3,1.1,0.2c0.2,0,0.4-0.1,0.5-0.2c0.1-0.1,0.2-0.2,0.3-0.4c0.2-0.2,0.3-0.5,0.4-0.7
		c0.1-0.2,0.1-0.5,0.1-0.7c0.1-0.5,0.1-1,0.1-1.5c-0.1-1.1-0.2-2.4-0.5-4c-0.2-0.7-0.1-0.9,0.1-0.9s0.4,0.1,0.2-0.3
		c-0.3-1.2-0.7-2.6-1.2-3.9s-1-2.5-1.5-3.6c-1-2.1-1.7-3.8-2.2-5.3c-0.5-1.8-1-3.4-1.5-5c-0.3-1-0.6-2-1-3c-0.3-0.6-0.6-1.2-0.9-1.9
		c-0.6-1.3-1.2-2.6-1.8-4c-0.1-0.4-0.3-0.7-0.5-1c-0.2-0.4-0.3-0.6-0.4-1c-0.2-0.6-0.3-1.2-0.2-1.8v-0.1c0.1-2.4,0.2-4.8,0.3-7.2
		c0,0,0,0-0.1,0.1c-0.2,2.4-0.4,4.7-0.8,7v0c-0.1,0.6-0.2,1.2-0.1,1.8c0-0.4,0-0.5,0.1-0.5c0.1,0.1,0.1,0.5,0.4,1.2
		c0,0.4,0.1,0.9,0.1,1.2c-0.2-0.6-0.6-1.2-0.7-1.9c-0.2-0.6-0.2-1.3-0.1-2l0,0l0,0c0.1-1.4,0.4-2.9,0.7-4.2c0,0,0-1.2,0-1.8
		c0.2-0.9,0.3-0.8,0.5-1c0-0.6,0.1-1.2,0.1-1.9c-0.2,0.6-0.5,2-0.7,3.1c-0.2,1.2-0.4,2.2-0.4,2.2c-0.1,1.2-0.2,2.4-0.4,3.5l0,0l0,0
		l0,0c-0.2,0.9-0.1,1.7,0.1,2.6c0.1,0.4,0.3,0.8,0.4,1.2c0.1,0.4,0.3,0.8,0.4,1.2c0.5,1.5,1.1,3.1,1.6,4.6c1.1,3,2.1,6,3.1,8.9
		c0.1,0.2,0.3,0.4,0.4,0.7c0.1,0.2,0.2,0.5,0.3,0.9c0,0.5,0.1,1,0.2,1.5c0.3,0.9,0.6,1.9,0.9,2.7c0.1,0.4,0.2,0.7,0.4,1v0
		c0.3,0.6,0.4,0.6,0.5,0.4c0-0.3,0-0.6,0-0.8c0,0.1,0,0.6,0,0.8c0,0.4,0.1,0.8,0.2,1.3c0.1,0.4,0.3,0.9,0.4,1.3
		c0.2,0.5,0.3,1,0.4,1.5c-0.4-1.1-0.6-2-0.8-2.6c0,0,0-0.1-0.1-0.1c-0.1-0.4-0.3-0.9-0.5-1.4l0,0c0-0.1-0.1-0.2-0.1-0.4
		c-0.1-0.2-0.1-0.4-0.2-0.5c0.6,2.1,1.2,4.1,1.7,6.1c0.1,0.5,0.3,1,0.4,1.5c0,0.1,0,0.1,0,0.2c0.2,0.9,0.4,1.7,0.3,2.4
		c0,0.2-0.1,0.3-0.2,0.4c-0.1,0.1-0.3,0.1-0.5,0.1c-0.1,0-0.1-0.1-0.2-0.1l0,0c0,0-0.1,0-0.1-0.1c-0.1,0-0.1-0.1-0.2-0.2
		c-0.2-0.1-0.4-0.4-0.5-0.6c-0.3-0.2-0.6-0.5-0.9-0.7c0.1,0.1,0.2,0.2,0.2,0.4c-0.2-0.2-0.3-0.4-0.4-0.5c-1.2-1.2-2.2-2.5-3.2-3.8
		c-1.9-2.6-3.6-5.1-5.1-7.7c-0.5-0.8-0.9-1.6-1.4-2.4c-0.5-0.8-0.9-1.6-1.4-2.4c-0.5-0.8-0.9-1.6-1.3-2.4l-0.4-0.7l-0.4-0.7
		c-0.2-0.5-0.5-1-0.7-1.5c-0.5-1-1-2.2-1.5-3.1c-0.1-0.2-0.2-0.4-0.4-0.6c-0.1-0.2-0.2-0.4-0.4-0.5l-0.3-0.4l-0.1-0.2l-0.1-0.1l0,0
		c0,0,0,0,0,0c-0.4,0.2-0.7,0.4-0.9,0.7c-0.1,0.1-0.2,0.4-0.3,0.6l-0.3,0.6l-0.1,0.1l-0.3,0.5l0,0l-0.4,0.7l-0.7,1.5l-0.9,1.9
		l-0.5,1c-0.1,0.1-0.1,0.3-0.2,0.5l-0.2,0.4l-0.2,0.4l-0.5,1l-0.8,1.4c-0.2,0.4-0.5,0.8-0.7,1.2c-0.9,1.5-1.7,2.9-2.6,4.4
		c-1.1,1.9-2.3,3.7-3.5,5.6l-0.4,0.7c-0.1,0.2-0.2,0.3-0.3,0.5l-0.7,1c-0.4,0.6-0.9,1.3-1.4,1.9c-0.4,0.5-0.7,1-1.1,1.4
		c-0.2,0.2-0.4,0.5-0.6,0.6c-0.1,0-0.1,0-0.2-0.1c0-0.1,0-0.1-0.1-0.2c0-0.1,0-0.3,0-0.5c0.1-1.2,0.3-2.5,0.5-3.7
		c0.1-0.6,0.2-1.2,0.4-1.8c0.2-0.8,0.4-1.6,0.5-2.4c0.4-1.8,0.8-3.6,1.3-5.5c0.8-3.2,1.6-6.5,2.5-9.6c0.5-1.6,0.9-3.1,1.4-4.7
		c0.2-0.8,0.5-1.5,0.7-2.3l0.4-1.1l0.1-0.3l0.1-0.3c0.1-0.2,0.1-0.4,0.2-0.6c0.2-0.9,0.2-1.7,0.2-2.6c0-0.4,0-0.8-0.1-1.2l0-0.6
		c0-0.2,0-0.4-0.1-0.6c-0.1-1-0.2-2-0.3-3c0-0.2,0-0.4,0-0.5c0-0.4-0.1-0.8-0.1-1.2c0-0.4,0-0.8-0.1-1.2v0c-0.1-1.2-0.1-2.3-0.2-3.5
		l0-0.2L91.2,80l-0.1-1.2c-0.1-0.7,0-1.5,0-2.3c0-0.8-0.1-1.8-0.6-2.7c-0.4-0.7-0.8-1.4-1.1-2.1c-0.7-1.4-1.5-2.7-2.2-4.1
		c-1.4-2.7-2.8-5.5-4.2-8.2c-0.4-0.7-0.7-1.4-1-2l-0.5-1l-0.2-0.4c-0.2-0.5-0.5-0.9-0.7-1.4c-0.5-0.9-1-1.8-1.3-2.7
		c0-0.1-0.1-0.2-0.1-0.3c0-0.1,0-0.1,0-0.2s0-0.1,0.1-0.1c0.1,0,0.2,0,0.4,0.1c0.1,0.1,0.2,0.1,0.4,0.2c0.4,0.3,0.8,0.7,1.2,1.1
		c0.7,0.7,1.4,1.5,1.9,2.2c0.1,0.1,0.1,0.2,0.2,0.2l0.7,0.8c0.2,0.2,0.4,0.4,0.5,0.6c0.3,0.4,0.6,0.7,0.9,1.1c1,1.2,1.9,2.4,2.9,3.5
		c0.9,1.2,1.9,2.4,2.7,3.6l0.2,0.2l0,0c0,0,0,0,0,0l0.1,0.1l0.1,0.2l0.6,0.9l0.3,0.4l0.1,0.2l0.1,0.1c0,0,0.1,0,0.1,0l1,0.1l0.5,0.1
		c0.2,0,0.4,0,0.6,0h1.1c0.1,0,0.1,0,0.2,0c0.3,0,0.7,0,1,0c1.2,0,2.6-0.1,4-0.2c1.4-0.1,3-0.1,4.6-0.2c0.4,0,0.8,0,1.2-0.1
		c0.2,0,0.4,0,0.6,0c0.1,0,0.3,0,0.5,0c0.2,0,0.4,0,0.6,0c0,0,0.1,0,0.1,0c0.5-0.7,1-1.5,1.5-2.2c1.4-2.2,2.9-4.5,4.3-6.9
		c1.3-2.5,2.6-5,3.8-7.2c1.5-2.8,3-5.3,4.2-7.3c0.2-0.4,0.4-0.7,0.6-1c0.1-0.1,0.2-0.3,0.2-0.5c0.1-0.1,0-0.1,0.1-0.1
		c0-0.1,0.1-0.1,0.1-0.2c0.3-0.3,0.6-0.5,1-0.7c0.1,0,0.2-0.1,0.3-0.1c0.5-0.2,1-0.2,1.4-0.2c0.3,0,0.5,0,0.7,0
		c0.5,0.1,0.9,0.2,1.1,0.2c0.2,0.1,0.3,0.1,0.2,0C128.8,40.1,128.4,39.9,127.9,39.8z M109.6,114.3c0.1,0.1,0.1,0.2,0.2,0.3
		c0.1,0.1,0.1,0.2,0.2,0.3c0.2,0.4,0.5,0.7,0.6,1.1c0.4,0.7,0.7,1.6,1.1,2.4c-0.5-0.6-1-1.4-1.5-2.2c-0.2-0.4-0.5-0.9-0.6-1.2
		c-0.2-0.4-0.4-0.9-0.6-1.3C109.3,113.9,109.5,114.1,109.6,114.3z"/>
	<path class="st1" d="M111.2,43.1c0.1,0.1,0.2,0.2,0.4,0.4c0-0.1-0.1-0.1-0.1-0.2C111.3,43.2,111.2,43.1,111.2,43.1z"/>
	<path class="st1" d="M111.9,44C111.9,44,111.9,44,111.9,44L111.9,44C111.8,43.9,111.8,43.9,111.9,44z"/>
	<path class="st1" d="M112.1,44.2c0.1,0.1,0.1,0.2,0.2,0.4C112.3,44.5,112.2,44.4,112.1,44.2z"/>
	<path class="st1" d="M111.9,44L111.9,44c0,0.1,0.1,0.1,0.1,0.2C112,44.2,112,44.1,111.9,44C112,44.1,112,44.1,111.9,44z"/>
	<path class="st1" d="M111.9,44c0-0.1-0.1-0.1-0.1-0.1C111.9,43.9,111.9,44,111.9,44z"/>
	<path class="st1" d="M111.3,43c0.1,0.1,0.3,0.3,0.5,0.5c0.1,0.1,0.2,0.2,0.3,0.3s0.2,0.2,0.3,0.3c0.1,0.1,0,0.1,0.1,0.2
		c0.2,0.4,0.5,0.7,0.7,1.1c0.1,0.1,0.1,0.2,0.1,0.3c0,0.1,0,0.2,0.1,0.3c0,0.1,0.1,0.2,0.2,0.4c0.1,0.1,0.1,0.3,0.2,0.4
		c0.1,0.2,0.2,0.4,0.1,0c-0.4-1-0.7-1.6-1.2-2.4c-0.5-0.6-0.9-1.1-1.5-1.6c-0.1-0.1-0.3-0.3-0.5-0.4C110.9,42.6,111.1,42.8,111.3,43
		z"/>
	<path class="st1" d="M109.2,41.4C109,41.3,108.9,41.3,109.2,41.4L109.2,41.4c0,0,0.1,0,0.2,0.1L109.2,41.4z"/>
	<path class="st1" d="M108.4,41c0.1,0,0.1,0,0.2,0.1C108.5,41.1,108.4,41.1,108.4,41z"/>
	<path class="st1" d="M108.2,41c0,0-0.2-0.1-0.2-0.1c-0.1,0-0.1,0-0.1-0.1c0.2,0.1,0.4,0.1,0.6,0.2C108.3,41,108.2,41,108.2,41z"/>
	<path class="st1" d="M108.5,41.1c0.2,0.1,0.4,0.2,0.6,0.3C108.9,41.3,108.7,41.2,108.5,41.1z"/>
	<path class="st1" d="M107.5,40.7L107.5,40.7c0.1,0,0.1,0,0.2,0.1C107.6,40.7,107.6,40.7,107.5,40.7z"/>
	<path class="st1" d="M107.7,40.8L107.7,40.8L107.7,40.8L107.7,40.8z"/>
	<path class="st1" d="M113.8,50.3L113.8,50.3C113.8,50.2,113.8,50.2,113.8,50.3L113.8,50.3z"/>
	<path class="st1" d="M112.6,55.5c0.7-1,1.1-2.1,1.3-3c-0.2,0.5-0.3,1-0.5,1.5c-0.1,0.2-0.2,0.5-0.3,0.7c-0.1,0.2-0.3,0.5-0.5,0.7
		C112.5,55.5,112.5,55.5,112.6,55.5c-0.1,0.1-0.1,0.1-0.1,0.2C112.4,55.7,112.5,55.6,112.6,55.5z"/>
	<path class="st1" d="M98.9,59.7c-0.1,0-0.2-0.1-0.3-0.1c-0.1,0-0.2-0.1-0.4-0.1h0C98.5,59.5,98.7,59.6,98.9,59.7z"/>
	<path class="st1" d="M92.8,52.8c0.1,0.5,0.2,1,0.4,1.4c0.4,0.9,0.9,1.8,1.5,2.6c0.1,0.2,0.3,0.4,0.5,0.6c0,0,0.1,0.1,0.1,0.1
		c-1.3-1.4-2.2-3.1-2.5-5C92.7,52.5,92.8,52.7,92.8,52.8z"/>
	<path class="st1" d="M112.4,55.8c0-0.1,0-0.1,0.1-0.2c0,0-0.1,0-0.1,0.1c0,0.1-0.1,0.2-0.1,0.3C112.3,55.8,112.3,55.8,112.4,55.8z"
		/>
	<path class="st1" d="M111.5,52.9L111.5,52.9C111.5,52.9,111.5,52.9,111.5,52.9C111.5,52.9,111.5,52.9,111.5,52.9z"/>
	<path class="st2" d="M113.8,50.3L113.8,50.3C113.8,50.2,113.8,50.2,113.8,50.3L113.8,50.3c0.1-0.4,0.2-0.6,0.3-0.9
		c0-0.2,0-0.4,0-0.5c0-0.1,0-0.2-0.1-0.4c-0.2-0.9-0.5-1.8-0.9-2.6l0,0c0.2,0.5,0.3,1,0.3,1.5c0-0.2,0.1-0.2,0.1,0l-0.1,0.2
		c-0.1-0.4-0.2-0.9-0.2-1.3c0,0-0.1-0.2-0.1-0.2c0-0.1,0-0.1,0-0.2c0-0.1-0.1-0.2-0.1-0.3c0,0.1,0.1,0.3,0.1,0.5
		c0,0.2,0.1,0.4,0.1,0.4c0.3,1.2,0.3,2.4-0.1,3.5c0,0,0,0.1,0,0.1l0,0c0,0.1,0,0.1,0,0.2c0,0.1-0.1,0.1-0.1,0.2c0,0,0,0,0,0.1
		c0,0.1-0.1,0.3-0.1,0.5c0,0.1,0,0.1,0,0.2l0,0c0,0.1,0.1,0.1,0.1,0.1c0.1,0,0.1-0.1,0.2-0.1c0,0-0.1,0.1-0.2,0.1
		c-0.1,0.1-0.1,0.1-0.2,0.2s0,0.1-0.1,0.2c0-0.1,0-0.1,0-0.2c0,0,0,0,0,0c0-0.1,0-0.2,0.1-0.3c0,0,0-0.1,0-0.1
		c-0.2,0.3-0.3,0.7-0.5,1c0,0.1-0.1,0.1-0.1,0.2c-0.1,0.2-0.2,0.5-0.5,0.5c0,0-0.1,0.1-0.1,0.1v0c0,0,0,0,0,0h0c0,0,0,0,0,0
		c-0.1,0.1-0.2,0.2-0.2,0.2c-0.1,0.1-0.2,0.2-0.4,0.3c-0.2,0.2-0.4,0.3-0.6,0.5c-0.1,0.1-0.2,0.1-0.4,0.2c-0.1,0.1-0.2,0.1-0.4,0.2
		c-1.3,0.6-2.6,1-4,1.1c-1.3,0.1-2.5-0.1-3.7-0.6c0,0,0,0-0.1,0c0,0-0.1,0-0.1,0c-0.1,0-0.1-0.1-0.2-0.1c-0.2-0.1-0.5-0.2-0.7-0.3
		c-0.2-0.1-0.4-0.2-0.6-0.4c-1.4-1-2.2-2.5-2.6-4c-0.1-0.7-0.3-1.4-0.4-2.1c0-0.7,0-1.4,0.2-2.2l0-0.1c0.1-0.4,0.2-0.7,0.4-1.1
		s0.4-0.8,0.7-1.1c0.2-0.2,0.5-0.5,0.7-0.7c0.1-0.1,0.2-0.2,0.4-0.3c0.3-0.2,0.7-0.5,1.1-0.7c0.4-0.2,0.9-0.5,1.5-0.7
		c0.4-0.1,0.8-0.3,1.2-0.4c0.2,0,0.5-0.1,0.8-0.1c0.1,0,0.1,0,0.2,0c0.2,0,0.4,0,0.6,0c0.5,0,1,0,1.3,0.1c0.2,0,0.4,0.1,0.6,0.1
		c0.1,0,0.2,0.1,0.4,0.1c0.1,0,0.1,0,0.2,0.1c-0.1,0-0.3-0.1-0.3-0.1c-0.1,0-0.3-0.1-0.4-0.1c-0.1,0-0.3-0.1-0.4-0.1
		c-0.1,0-0.3-0.1-0.5-0.1c-0.2,0-0.3,0-0.5-0.1c-0.4,0-0.7-0.1-1.2-0.1c-0.5,0-1,0-1.6,0.1c0.9,0,0.5,0-0.2,0.1
		c-0.7,0.1-1.9,0.4-2.7,0.6c-0.1,0-0.3,0-0.4,0.1c-0.2,0-0.4,0.1-0.6,0.1c-0.5,0.2-1.1,0.4-1.6,0.7c-0.6,0.4-1.1,0.8-1.6,1.4
		c-0.3,0.3-0.6,0.7-0.8,1.1l0.1-0.1c-0.8,1.1-1.3,2.5-1.7,3.8c-0.2,0.7-0.3,1.4-0.2,2.2c0,0.4,0,0.7,0.1,1.1c0,0.4,0,0.7,0.1,1.1
		c0.4,1.9,1.2,3.6,2.5,5c0.1,0.1,0.3,0.3,0.5,0.4c0.4,0.4,0.8,0.6,1.2,0.9c0.2,0.1,0.5,0.3,0.7,0.4c0.2,0.1,0.4,0.2,0.6,0.3
		c0.1,0,0.2,0.1,0.4,0.1c0.1,0,0.2,0.1,0.3,0.1c0,0,0,0,0.1,0l0.7,0.2c0,0,0,0,0,0c0.2,0.1,0.5,0.1,0.7,0.2c0,0,0.1,0,0.1,0
		c0.1,0,0.3,0.1,0.4,0.1l0.5,0.1c0.3,0,0.6,0.1,0.9,0.1c0.3,0,0.6,0,0.9,0c0.6,0,1.2,0,1.8-0.1c0.3,0,0.6-0.1,0.9-0.1
		c0.3,0,0.6-0.1,0.9-0.2c0.4-0.1,0.8-0.3,1.1-0.5c0.4-0.2,0.7-0.4,1-0.7c0.3-0.2,0.6-0.5,0.8-0.8c0.2-0.2,0.4-0.4,0.6-0.6
		c0,0,0.1-0.1,0.1-0.1c0.2-0.1,0.4-0.3,0.6-0.5c0,0,0.1-0.1,0.1-0.1c0.1-0.1,0.3-0.2,0.4-0.3c0.2-0.2,0.5-0.4,0.6-0.6
		c0-0.1,0.1-0.2,0.1-0.3c0,0,0,0,0,0c0-0.1,0-0.2,0-0.4c0-0.3,0.1-0.6,0.2-0.9c0-0.1,0.1-0.2,0.1-0.2c0,0,0-0.1,0.1-0.1
		c0.2-0.1,0.5-0.2,0.5-0.4c0.1-0.2,0.2-0.5,0.2-0.7c0-0.2,0.1-0.5,0.1-0.7s0.3-0.1,0.3-0.2c0-0.2,0-0.3,0-0.5c0-0.2,0-0.3-0.1-0.5
		c0-0.3-0.1-0.5,0-0.7C113.8,50.2,113.8,50.2,113.8,50.3z M109.3,54.6c0.1-0.4,0.5-0.3,0.9-0.3C110.1,54.6,109.7,54.7,109.3,54.6z"
		/>
	<line class="st0" x1="85.9" y1="49.6" x2="85.9" y2="49.6"/>
	<g>
		<path class="st2" d="M92.1,95.4c0,0-0.1,0.7-0.1-0.5l0-1l-0.1-0.7l0-0.7c0,0,0.3-0.2,3.5-0.6c0,0,1.3-0.4,3-0.4
			c0,0,12.5,0.2,13.4,0.7c0,0-7.8-0.6-8.3-0.5c0,0,7.4,0.5,8,0.9c0,0-7.2-0.6-7.9-0.1c0,0,6.7,0.6,7.5,1c0,0-1.3-0.2-1.6-0.1
			l0.6,0.1l-1,0l-0.6-0.1c0,0,1.5,0.4,1.6,0.5c0,0,0.7-0.2-2-0.1C108.1,93.9,101.7,92.7,92.1,95.4z"/>
		<path class="st2" d="M91.8,92.2c0,0,3.9-0.5,7.6-0.8c0,0,8.2,0.1,9.1,0.2c0,0,2.4,0,3.8,0.4"/>
		<path class="st2" d="M103.7,91.5c-0.7-0.1-5.6-0.1-5.6-0.1c-2,0-6.2,0.8-6.2,0.8"/>
		<path class="st2" d="M103.9,92.5c0,0,5.8,0.3,7.1,0.5"/>
		<path class="st2" d="M102.2,93.8c0,0,6.7,0.5,7.3,0.6"/>
	</g>
	<g>
		<path class="st2" d="M85.5,68.4c0,0,0.3,0.8-0.3-0.5l-0.5-1l-0.4-0.7l-0.4-0.8c0,0,0-0.3,1.2-1.4c0,0,0.4-0.7,1.1-1.1
			c0,0,5.6-2.5,6.2-2.2c0,0-3.8,1-3.9,1.4c0,0,3.6-1.1,4-0.8c0,0-3.5,1-3.5,1.6c0,0,3.2-0.9,3.8-0.5c0,0-0.7,0.1-0.8,0.2l0.4,0
			L92,62.7h-0.3c0,0,0.9,0,1,0.2c0,0,0.2-0.4-1,0.3C91.7,63.3,88.2,63.4,85.5,68.4z"/>
		<path class="st2" d="M83.6,65.1c0,0,1.4-1.4,2.9-2.6c0,0,3.7-1.7,4.1-1.7c0,0,1.1-0.5,1.9-0.5"/>
		<path class="st2" d="M88.4,61.6c-0.4,0-2.5,1.2-2.5,1.2c-0.9,0.4-2.3,2.3-2.3,2.3"/>
		<path class="st2" d="M89,62.7c0,0,2.7-1,3.4-1"/>
		<path class="st2" d="M89,64.5c0,0,3.2-1,3.5-0.9"/>
	</g>
	<g>
		<path class="st2" d="M118.2,67.4c0,0-0.3,0.7,0.3-0.5L119,66l0.4-0.7l0.3-0.7c0,0,0-0.2-1.2-1.4c0,0-0.4-0.7-1.1-1
			c0,0-5.6-2.5-6.2-2.3c0,0,3.7,1.1,3.8,1.4c0,0-3.5-1.1-4-0.9c0,0,3.5,1,3.5,1.6c0,0-3.2-0.9-3.8-0.6c0,0,0.7,0.1,0.8,0.2h-0.3
			l0.4,0.2h0.3c0,0-0.8,0-1,0.1c0,0-0.2-0.4,1,0.3C111.9,62.4,115.3,62.6,118.2,67.4z"/>
		<path class="st2" d="M119.9,64.4c0,0-1.4-1.4-3-2.5c0,0-3.6-1.7-4.1-1.7c0,0-1.1-0.5-1.8-0.5"/>
		<path class="st2" d="M115.1,61c0.4,0,2.5,1.2,2.5,1.2c0.9,0.4,2.4,2.2,2.4,2.2"/>
		<path class="st2" d="M114.5,61.9c0,0-2.7-1-3.4-1.1"/>
		<path class="st2" d="M114.6,63.6c0,0-3.2-1-3.5-1"/>
	</g>
</g>
</svg>
