<svg xmlns="http://www.w3.org/2000/svg" viewBox="0 0 118.68 119.8"><defs><style>.cls-1{fill:#136f84;}.cls-2{fill:#fff;}.cls-3{fill:#2feded;}</style></defs><g id="Capa_2" data-name="Capa 2"><g id="Capa_1-2" data-name="Capa 1"><g id="Capa_2-2" data-name="Capa 2"><g id="Capa_1-2-2" data-name="Capa 1-2"><rect class="cls-1" width="118.68" height="119.8" rx="13.14"/><path class="cls-2" d="M77.58,101.63a1,1,0,0,0,1,0l5-3.32,4.71,3.22a1,1,0,0,0,.74.15,1,1,0,0,0,.63-.42.9.9,0,0,0,.17-.53V94.49h13.95a1,1,0,0,0,1-1V33a1,1,0,0,0-1-1H97.57V25.77a1,1,0,0,0-1-1H22.51a1,1,0,0,0-1,1V32H15.27a1,1,0,0,0-.94,1V93.53a1,1,0,0,0,1,1H51.53l.23.42c1.07,1.93,4.13,3.18,7.78,3.18s6.76-1.28,7.78-3.18l.23-.42h9.51v6.25A1,1,0,0,0,77.58,101.63Zm10.29-2.77-3.71-2.54a1,1,0,0,0-1.09,0l-4,2.62V87.31h8.83Zm8.75-11.55a1,1,0,0,0,1-.82l0-.16V33.94h5.23V92.55H89.87V87.31ZM60.55,26.75H95.64v58.6H89v.18l-28.44,0Zm-37.06,0H58.58v58.6H23.49Zm43.27,65.8a1,1,0,0,0-1,1c0,1.47-3.36,2.61-6.25,2.61-3.21,0-6.25-1.27-6.25-2.61a1,1,0,0,0-1-1h-36V33.94h5.23V86.33a1,1,0,0,0,1,1h54.6v5.24Z"/><path class="cls-2" d="M66.27,47.51H88.93a1,1,0,1,0,0-2H66.27a1,1,0,0,0,0,2Z"/><path class="cls-2" d="M66.07,54.71H88.93a1,1,0,0,0,.65-.35.94.94,0,0,0,.22-.72,1,1,0,0,0-.88-.9H66.17a1,1,0,0,0-.65.22,1,1,0,0,0-.35.68,1,1,0,0,0,.9,1.07Z"/><path class="cls-2" d="M66.27,38.35a1,1,0,0,0,0,2H81.74a1,1,0,0,0,0-2Z"/><path class="cls-2" d="M89.91,75.31a1,1,0,0,0-1-1H66.27a1,1,0,0,0-1,1,1,1,0,0,0,1,1H88.93A1,1,0,0,0,89.91,75.31Z"/><path class="cls-2" d="M88.93,67.14H66.27a1,1,0,0,0-1,1,1,1,0,0,0,1,1H88.93a1,1,0,1,0,0-2Z"/><path class="cls-2" d="M88.93,59.94H66.27a1,1,0,0,0-1,1,1,1,0,0,0,1,1H88.93a1,1,0,1,0,0-2Z"/><path class="cls-2" d="M52.37,67.36H29.7a1,1,0,0,0,0,2H52.37a1,1,0,0,0,1-1,1,1,0,0,0-1-1Z"/><path class="cls-2" d="M28.83,61.23a1,1,0,0,0,.89.9H45.17a1,1,0,0,0,0-2H29.7a1,1,0,0,0-.65.35A.94.94,0,0,0,28.83,61.23Z"/><path class="cls-2" d="M52.37,76.52a1,1,0,0,0,1-1,1,1,0,0,0-1-1v-.25h0v.25H29.7a1,1,0,0,0-1,1,1,1,0,0,0,1,1Z"/><path class="cls-3" d="M40.94,36.62a8.41,8.41,0,0,1,5.52,1.92,11.35,11.35,0,0,1,3.28-.46c2.2,0,4.19.91,4,2.45-.24,2.3-4.64,3.39-7.82,3.7a16,16,0,0,1-3.25,0,21.41,21.41,0,0,1-6.25,6c.52.07,1.57.35,3.25.81a13,13,0,0,0,2.55.38A7.37,7.37,0,0,0,48,49.26c.07-.07.25-.21.35-.11s-.1.32-.28.49C45.76,52,44.22,53.07,42,53.07a9.17,9.17,0,0,1-3.35-.7,29.59,29.59,0,0,0-3.32-1.15A7.9,7.9,0,0,1,30.57,53c-1.44,0-2.13-.28-2.1-.81,0-1.15,3-2,5.2-2.09a16.68,16.68,0,0,1,2,0c1.64-1.74,2.55-4.54,3.88-6.35-2-.42-3.77-1.64-3.77-3.43S37.66,36.62,40.94,36.62ZM32,50.69c-.94,0-2.06.56-2,1.29,0,.39.42.63,1.12.6A6.61,6.61,0,0,0,34.72,51,8.92,8.92,0,0,0,32,50.69Zm7.75-7.19a11.34,11.34,0,0,1,6-4.75,8.43,8.43,0,0,0-5-1.33c-3,0-4.61,1.36-4.61,2.93S38,43.15,39.75,43.5Zm6.25.31c1.92-.24,6.18-1.47,6.39-3.56.11-1.33-1.11-1.89-2.41-1.89a5.1,5.1,0,0,0-2.86,1,2.78,2.78,0,0,1,.52,1.08,1.79,1.79,0,0,1,0,1.29c-.11,0,0-.31-.52-1.22a3.89,3.89,0,0,0-.56-.77A19.14,19.14,0,0,0,42.86,44,13.76,13.76,0,0,0,46,43.81Z"/></g></g></g></g></svg>