<svg xmlns="http://www.w3.org/2000/svg" viewBox="0 0 121.68 119.8"><defs><style>.cls-1{fill:#136f84;}.cls-2{fill:none;stroke:#fff;stroke-linecap:round;stroke-linejoin:round;stroke-width:2px;}.cls-3{fill:#2feded;opacity:0.65;}</style></defs><g id="Capa_2" data-name="Capa 2"><g id="Capa_1-2" data-name="Capa 1"><rect class="cls-1" width="121.68" height="119.8" rx="13.14"/><path class="cls-2" d="M44.53,19.55a28.93,28.93,0,0,1,23.29-3.87A28.42,28.42,0,0,1,88,35.44c1.89,0,3.78-.1,5.67.07a8.78,8.78,0,0,1,7.52,6.6,15.17,15.17,0,0,1,.06,5.12Q99.63,69.42,98,91.59c-.18,2-.13,4.22-1.07,6.12a10.17,10.17,0,0,1-8.85,5.84c-8.06,0-16.12,0-24.19,0,0-9.43,0-18.86,0-28.29a3.4,3.4,0,1,0-6.78,0q0,14.13,0,28.27H35.75a23.69,23.69,0,0,1-4.69-.24,10,10,0,0,1-7.83-8.81C22,78,20.79,61.44,19.54,44.9a8.74,8.74,0,0,1,4.83-8.52C27,35,30.1,35.54,33,35.44A28.19,28.19,0,0,1,44.53,19.55ZM56,22.77A20.94,20.94,0,0,0,40.25,37.83a20.29,20.29,0,0,0,4.34,18.33,21,21,0,0,0,33.08-1.62,20.22,20.22,0,0,0,3.4-15.27A20.71,20.71,0,0,0,70.35,24.75,21,21,0,0,0,56,22.77Z"/><path class="cls-3" d="M49.48,32.06a1.35,1.35,0,0,1,1.28-1.9c.7-.15,1.14.52,1.64.88,2.34,2.22,4.63,4.47,7,6.64,3.2-.58,6.63,2,6.37,5.38,0,3.65-4.31,6.15-7.51,4.52-2.56-1-3.5-4-2.85-6.58C53.7,37.9,51.31,35.13,49.48,32.06Z"/></g></g></svg>