<?xml version="1.0" encoding="iso-8859-1"?>
<svg version="1.1" id="Capa_1" xmlns="http://www.w3.org/2000/svg" xmlns:xlink="http://www.w3.org/1999/xlink" x="0px" y="0px"
	 viewBox="0 0 97 97" style="enable-background:new 0 0 97 97;" xml:space="preserve">
<g>
	
		<linearGradient id="SVGID_1_" gradientUnits="userSpaceOnUse" x1="-96.8615" y1="98.1125" x2="-38.1361" y2="156.8379" gradientTransform="matrix(1 0 0 -1 116 176)">
		<stop  offset="0" style="stop-color:#046973"/>
		<stop  offset="1" style="stop-color:#34A6AE"/>
	</linearGradient>
	<path style="fill:url(#SVGID_1_);" d="M12.688,1.163h71.626c6.353,0,11.549,5.197,11.549,11.549v71.625
		c0,6.353-5.196,11.55-11.549,11.55H12.688c-6.352,0-11.549-5.197-11.549-11.55V12.711C1.139,6.36,6.336,1.163,12.688,1.163z"/>
	<path style="fill:#08828B;" d="M84.314,96.887H12.688c-6.919,0-12.549-5.63-12.549-12.55V12.711
		c0-6.919,5.629-12.548,12.549-12.548h71.626c6.92,0,12.549,5.629,12.549,12.549v71.625C96.863,91.257,91.234,96.887,84.314,96.887z
		 M12.688,2.163c-5.816,0-10.549,4.732-10.549,10.548v71.626c0,5.817,4.732,10.55,10.549,10.55h71.626
		c5.816,0,10.549-4.732,10.549-10.55V12.712c0-5.816-4.732-10.549-10.549-10.549H12.688z"/>
</g>
<g>
	<rect x="24" y="2.477" style="opacity:0.5;fill:#2FEDED;" width="1" height="92.573"/>
	<rect x="48" y="2.477" style="opacity:0.5;fill:#2FEDED;" width="1" height="92.573"/>
	<rect x="72" y="2.477" style="opacity:0.5;fill:#2FEDED;" width="1" height="92.573"/>
</g>
<g>
	<rect x="1.833" y="72" style="opacity:0.5;fill:#2FEDED;" width="93.028" height="1"/>
	<rect x="1.833" y="48" style="opacity:0.5;fill:#2FEDED;" width="93.028" height="1"/>
	<rect x="1.833" y="24" style="opacity:0.5;fill:#2FEDED;" width="93.028" height="1"/>
</g>
<path style="fill:#FFFFFF;" d="M33.995,77.46c-0.001,0-0.002,0-0.003,0c-1.194-0.002-2.22-0.847-2.45-2.019L24.861,41.42
	l-1.79,8.332c-0.248,1.151-1.266,1.975-2.444,1.975H4.409c-1.381,0-2.5-1.119-2.5-2.5s1.119-2.5,2.5-2.5h14.198l3.92-18.245
	c0.248-1.153,1.267-1.975,2.444-1.975c0.008,0,0.015,0,0.022,0c1.187,0.011,2.203,0.854,2.431,2.018l6.586,33.543L44.744,8.133
	c0.233-1.17,1.26-2.012,2.452-2.012c0.002,0,0.004,0,0.006,0c1.195,0.003,2.221,0.851,2.449,2.024l9.495,48.948l1.812-8.709
	c0.24-1.157,1.259-1.987,2.44-1.991l10.746-0.03c0.002,0,0.005,0,0.007,0c1.378,0,2.496,1.115,2.5,2.493
	c0.004,1.381-1.112,2.503-2.493,2.507l-8.718,0.024l-3.933,18.902c-0.242,1.166-1.263,2.048-2.464,1.991
	c-1.191-0.008-2.211-0.854-2.438-2.023l-9.441-48.669l-10.718,53.86C36.214,76.617,35.187,77.46,33.995,77.46z"/>
<path style="fill:#FFFFFF;" d="M81.165,44.988c2.14,0,3.874,1.734,3.874,3.874s-1.734,3.874-3.874,3.874
	c-2.14,0-3.874-1.734-3.874-3.874S79.025,44.988,81.165,44.988 M81.165,39.988c-4.893,0-8.874,3.981-8.874,8.874
	s3.981,8.874,8.874,8.874s8.874-3.981,8.874-8.874S86.058,39.988,81.165,39.988L81.165,39.988z"/>
</svg>
