<?xml version="1.0" encoding="iso-8859-1"?>
<svg version="1.1" xmlns="http://www.w3.org/2000/svg" xmlns:xlink="http://www.w3.org/1999/xlink" x="0px" y="0px"
	 viewBox="0 0 97 97" style="enable-background:new 0 0 97 97;" xml:space="preserve">
<g id="Capa_3">
</g>
<g id="Capa_4">
</g>
<g id="Capa_1">
	<circle style="fill-rule:evenodd;clip-rule:evenodd;fill:#FFFFFF;" cx="59.475" cy="73.979" r="18.187"/>
	
		<linearGradient id="SVGID_1_" gradientUnits="userSpaceOnUse" x1="52.6892" y1="49.3074" x2="8.2501" y2="54.855" gradientTransform="matrix(-1 0 0 1 87.0509 0)">
		<stop  offset="0" style="stop-color:#F9BD72"/>
		<stop  offset="0.8223" style="stop-color:#FFFFFF"/>
	</linearGradient>
	<path style="fill-rule:evenodd;clip-rule:evenodd;fill:url(#SVGID_1_);" d="M63.691,102.32c-0.683-2.813,0.479-5.826-0.322-8.612
		c-0.367-1.277-1.142-2.484-1.114-3.806c0.049-2.271,2.335-3.835,3.733-5.692c1.942-2.58,2.208-5.928,2.164-9.084
		c-0.039-2.793-0.279-5.626-1.3-8.251s-2.906-5.047-5.568-6.311c-1.506-0.715-3.489-1.35-3.697-2.918
		c-0.231-1.748,1.949-2.796,3.094-4.194c1.513-1.848,1.138-4.621-0.32-6.507c-1.458-1.886-3.766-3.033-6.092-3.859
		c-1.259-0.447-2.854-1.546-2.112-2.596c0.635-0.898,2.307-0.438,3.102-1.217c0.798-0.782,0.047-2.126-0.954-2.666
		c-1.001-0.54-2.236-0.715-3.08-1.453c-1.373-1.2-1.086-3.384-0.038-4.843c1.048-1.46,2.661-2.467,3.964-3.734
		c3.145-3.055,4.31-7.395,5.355-11.523c0.482-1.904,0.948-3.98,0.068-5.755c-0.878-1.77-3.056-4.457-4.915-5.343
		c-4.902-2.336-11.118-3.971-15.088-6.221c-1.615-0.915-6.354,2.93-7.147,4.5c-0.344,0.68-0.414,3.086-0.397,3.838
		c0.178,7.659,3.176,13.897,4.769,21.782c0.189,0.936-0.283,1.919-0.806,2.739c-0.666,1.044-3.603-1.316-4.625-0.565
		c-5.489,4.038-6.18,13.702-7.588,20.1c-1.08,4.906-1.687,9.904-1.813,14.912c-0.056,2.242,0.24,4.912,2.339,5.994
		c1.672,0.861,4.12,0.456,5.22,1.916c0.427,0.566,0.883,1.357,0.579,1.98c-2.31,4.731-4.54,8.937-1.913,14.922
		c0.76,1.732,7.296,13.414,8.868,12.219c0.926-0.704,1.877-0.018,3.309,0c7.015,0.09,12.296,0.005,19.059,0
		c1.242-0.001,1.456-0.572,2.912,0"/>
	
		<linearGradient id="SVGID_2_" gradientUnits="userSpaceOnUse" x1="27.2952" y1="17.4669" x2="52.5807" y2="5.2914" gradientTransform="matrix(-1 0 0 1 87.0509 0)">
		<stop  offset="0" style="stop-color:#FFFFFF"/>
		<stop  offset="1" style="stop-color:#0EB3B7"/>
	</linearGradient>
	<path style="fill-rule:evenodd;clip-rule:evenodd;fill:url(#SVGID_2_);" d="M34.997,13.308c0.225,1.688,2.696,6.145,1.88,4.65
		c-1.928-3.529,4.073-6.802,4.915,1.677c0.121,1.222,2.469-0.134,3.623-0.554c0.654-0.238,1.276-0.561,1.937-0.78
		c1.448-0.479,3.011-0.436,4.516-0.686c2.046-0.339,3.96-1.213,5.845-2.078c0.643-0.295,1.309-0.607,1.761-1.153
		c0.337-0.407,0.527-0.913,0.711-1.408c0.371-1,0.746-2.027,0.739-3.094c-0.01-1.456-0.752-2.839-1.783-3.866
		s-2.336-1.738-3.667-2.328c-3.004-1.331-6.315-2.122-9.581-1.763c0.01-1.445-1.072-2.742-2.398-3.317s-2.843-0.537-4.263-0.267
		c-0.968,0.184-1.927,0.476-2.768,0.99c-1.354,0.826-2.327,2.191-2.883,3.676c-0.556,1.486-0.723,3.092-0.721,4.678
		c0.003,1.881,0.254,3.809,1.137,5.47c0.121,0.228,0.271,0.465,0.511,0.561c0.24,0.095,0.581-0.043,0.589-0.302"/>
	
		<path style="fill-rule:evenodd;clip-rule:evenodd;fill:none;stroke:#028189;stroke-width:3;stroke-linecap:round;stroke-linejoin:round;stroke-miterlimit:22.9256;" d="
		M37.212,30.018c-2.226-0.439-3.851-0.252-4.752,0.14c-6.43,2.795-10.436,29.98-10.064,37.739c0.023,0.486,0.106,1.398,0.699,2.236
		c1.131,1.6,3.339,1.826,4.613,1.957c1.922,0.197,3.349-0.204,6.709-1.258c7.462-2.34,11.192-3.51,12.3-4.473
		c0.637-0.554,1.792-1.681,3.215-1.538c1.043,0.105,1.277,0.798,2.795,1.118c1.049,0.221,1.959,0.106,2.795,0
		c1.672-0.212,1.865-0.609,2.795-0.419c0.942,0.192,1.223,0.697,1.957,0.559c0.509-0.096,1.052-0.467,1.258-0.978
		c0.452-1.122-0.879-2.522-1.538-3.215c-0.414-0.436-1.414-1.463-3.075-1.957c-1.06-0.316-1.918-0.257-3.634-0.14
		c-1.28,0.087-2.101,0.24-3.215,0.419c0,0-2.127,0.343-5.172,0.699c-3.2,0.374-3.196,0.164-6.709,0.559
		c-2.41,0.271-3.641,0.415-4.892,0.839c-2.365,0.801-3.479,1.839-3.774,1.538c-0.442-0.451,1.886-2.941,3.494-5.871
		c2.915-5.309,2.038-10.767,2.656-10.763c0.411,0.003,0.271,2.367,1.957,5.311c1.011,1.767,1.975,2.512,2.376,2.795
		c1.236,0.875,2.47,1.158,3.075,1.258c0.835,0.138,1.438,0.089,2.516,0c1.652-0.136,2.195-0.447,2.376-0.559
		c0.564-0.349,0.915-0.801,1.118-1.118"/>
	
		<path style="fill-rule:evenodd;clip-rule:evenodd;fill:none;stroke:#028189;stroke-width:3;stroke-linecap:round;stroke-linejoin:round;stroke-miterlimit:22.9256;" d="
		M30.363,75.444c-0.842,1.457-1.822,3.652-2.097,6.43c-0.245,2.473,0.166,4.428,0.419,5.591c0.422,1.933,1.036,3.363,1.398,4.193
		c0.736,1.69,1.506,2.944,1.957,3.634c0.729,1.115,1.642,2.492,3.215,3.914c1.014,0.917,1.968,1.549,2.656,1.957"/>
	
		<path style="fill-rule:evenodd;clip-rule:evenodd;fill:none;stroke:#028189;stroke-width:3;stroke-linecap:round;stroke-linejoin:round;stroke-miterlimit:22.9256;" d="
		M63.07,94.749c0.645,2.539,0.68,3.69,0.559,5.339"/>
	
		<path style="fill-rule:evenodd;clip-rule:evenodd;fill:none;stroke:#028189;stroke-width:3;stroke-linecap:round;stroke-linejoin:round;stroke-miterlimit:22.9256;" d="
		M51.329,33.931c0.484,0.008,1.59,0.093,2.656,0.839c1.166,0.815,1.596,1.938,1.817,2.516c0.403,1.053,0.409,1.932,0.419,3.355
		c0.007,0.989-0.069,1.808-0.14,2.376"/>
	
		<path style="fill-rule:evenodd;clip-rule:evenodd;fill:none;stroke:#028189;stroke-width:3;stroke-linecap:round;stroke-linejoin:round;stroke-miterlimit:22.9256;" d="
		M53.006,40.92c1.626,1.024,3.687,2.483,5.591,4.333c0.711,0.691,1.517,1.55,2.236,2.795c0.721,1.248,0.928,2.144,0.978,2.376
		c0.176,0.808,0.386,1.355,0,2.376c-0.317,0.838-0.836,1.904-1.677,2.516c-1.944,1.414,4.356,4.376,5.568,4.968
		c2.247,1.097,3.309,1.941,4.523,2.968c1.788,1.513,3.476,3.836,4.619,5.902c0.851,1.539,1.612,4.796,1.927,6.459
		c0.272,1.432,0.201,4.408,0,5.636c-0.153,0.932-0.62,3.291-2.195,5.879c-0.669,1.099-2.286,2.623-4.091,4.04
		c-2.167,1.7-4.614,2.157-6.183,2.614c-4.205,1.223-8.376,1.234-11.575,0.935"/>
	
		<path style="fill-rule:evenodd;clip-rule:evenodd;fill:none;stroke:#028189;stroke-width:3;stroke-linecap:round;stroke-linejoin:round;stroke-miterlimit:22.9256;" d="
		M36.932,26.383c0.355-1.853,0.256-3.389,0-4.613c-0.533-2.549-1.551-2.815-2.097-5.591c-0.422-2.149,0.082-2.531-0.559-4.613
		c-0.452-1.468-0.799-1.591-1.258-3.215c-0.419-1.483-0.748-2.647-0.419-4.053c0.383-1.639,1.028-3.124,1.677-3.774
		c0.755-0.756,1.914-1.635,2.656-2.097c0.911-0.567,1.432-0.471,2.236-0.699c1.202-0.34,2.19-0.226,2.935-0.14
		c1.129,0.13,1.786,0.625,2.376,1.118c0.785,0.655,0.476,1.233,1.118,1.957c0.713,0.803,1.509,0.559,4.473,1.118
		c1.241,0.234,2.162,0.408,3.355,0.839c1.823,0.658,3.052,1.473,3.355,1.677c1.668,1.128,2.664,2.321,2.935,2.656
		c1.159,1.428,2.013,2.481,1.957,3.914c-0.049,1.265-0.782,2.173-1.398,2.935c-0.865,1.072-1.8,1.614-3.634,2.656
		c-1.835,1.042-2.752,1.562-4.053,1.817c-1.699,0.332-3.153,0.091-4.053-0.14"/>
	
		<path style="fill-rule:evenodd;clip-rule:evenodd;fill:none;stroke:#028189;stroke-width:3;stroke-linecap:round;stroke-linejoin:round;stroke-miterlimit:22.9256;" d="
		M42.803,24.846c0.134,0.645,0.492,1.904,1.538,3.075c0.394,0.442,1.45,1.591,3.215,1.957c1.221,0.253,2.206,0.012,2.795-0.14
		c1.425-0.366,2.359-1.085,2.935-1.538c0.354-0.278,1.414-0.828,2.376-2.097c1.784-2.352,2.278-4.157,2.656-5.172
		c0.383-1.027,0.826-4.124,1.118-5.871"/>
</g>
</svg>
