<?xml version="1.0" encoding="iso-8859-1"?>
<svg version="1.1" xmlns="http://www.w3.org/2000/svg" xmlns:xlink="http://www.w3.org/1999/xlink" x="0px" y="0px"
	 viewBox="0 0 97 97" style="enable-background:new 0 0 97 97;" xml:space="preserve">
<g id="Capa_3">
</g>
<g id="Capa_4">
</g>
<g id="Capa_1">
	<circle style="fill-rule:evenodd;clip-rule:evenodd;fill:#FFFFFF;" cx="59.28" cy="85.673" r="20.052"/>
	
		<linearGradient id="SVGID_1_" gradientUnits="userSpaceOnUse" x1="54.4595" y1="55.4706" x2="5.4629" y2="61.5871" gradientTransform="matrix(-1 0 0 1 87.0509 0)">
		<stop  offset="0" style="stop-color:#F9BD72"/>
		<stop  offset="0.8223" style="stop-color:#FFFFFF"/>
	</linearGradient>
	<path style="fill-rule:evenodd;clip-rule:evenodd;fill:url(#SVGID_1_);" d="M64.929,113.92c-0.753-3.102,0.528-6.423-0.355-9.495
		c-0.405-1.408-1.259-2.739-1.228-4.196c0.054-2.504,2.574-4.229,4.116-6.276c2.142-2.844,2.435-6.537,2.386-10.016
		c-0.043-3.08-0.307-6.203-1.433-9.098c-1.126-2.894-3.204-5.565-6.139-6.959c-1.661-0.788-3.847-1.488-4.076-3.218
		c-0.255-1.928,2.149-3.083,3.412-4.625c1.668-2.037,1.254-5.095-0.353-7.175c-1.608-2.08-4.152-3.344-6.717-4.254
		c-1.388-0.493-3.147-1.704-2.328-2.863c0.7-0.99,2.544-0.483,3.42-1.342c0.88-0.863,0.052-2.344-1.052-2.94
		c-1.104-0.595-2.465-0.788-3.396-1.602c-1.514-1.323-1.198-3.731-0.042-5.34s2.934-2.72,4.371-4.116
		c3.468-3.369,4.752-8.154,5.904-12.705c0.531-2.1,1.046-4.388,0.075-6.345c-0.968-1.952-3.369-4.914-5.419-5.891
		c-5.405-2.576-12.258-4.378-16.636-6.859c-1.78-1.009-7.005,3.231-7.88,4.962c-0.379,0.75-0.457,3.403-0.438,4.232
		c0.196,8.444,3.502,15.322,5.258,24.016c0.208,1.032-0.312,2.116-0.888,3.019c-0.735,1.151-3.973-1.451-5.099-0.623
		c-6.052,4.452-6.814,15.107-8.367,22.162c-1.191,5.41-1.86,10.919-1.999,16.441c-0.062,2.472,0.264,5.416,2.579,6.609
		c1.844,0.95,4.542,0.503,5.755,2.112c0.471,0.624,0.974,1.496,0.638,2.183c-2.547,5.216-5.006,9.854-2.11,16.453
		c0.838,1.91,8.044,14.789,9.777,13.472c1.021-0.776,2.07-0.02,3.648,0c7.734,0.099,13.557,0.005,21.014,0
		c1.369-0.001,1.605-0.63,3.21,0"/>
	
		<linearGradient id="SVGID_2_" gradientUnits="userSpaceOnUse" x1="26.4612" y1="20.3647" x2="54.3399" y2="6.9405" gradientTransform="matrix(-1 0 0 1 87.0509 0)">
		<stop  offset="0" style="stop-color:#FFFFFF"/>
		<stop  offset="1" style="stop-color:#0EB3B7"/>
	</linearGradient>
	<path style="fill-rule:evenodd;clip-rule:evenodd;fill:url(#SVGID_2_);" d="M33.292,15.779c0.248,1.862,2.973,6.775,2.073,5.127
		c-2.125-3.891,4.491-7.5,5.419,1.849c0.134,1.348,2.722-0.148,3.995-0.611c0.721-0.262,1.407-0.619,2.136-0.86
		c1.597-0.528,3.32-0.481,4.98-0.756c2.256-0.374,4.366-1.337,6.444-2.291c0.709-0.325,1.444-0.67,1.941-1.271
		c0.371-0.449,0.581-1.006,0.784-1.553c0.409-1.102,0.823-2.235,0.815-3.411c-0.011-1.605-0.829-3.13-1.966-4.263
		c-1.138-1.133-2.575-1.916-4.043-2.567c-3.312-1.468-6.963-2.34-10.564-1.944c0.012-1.594-1.182-3.023-2.644-3.657
		s-3.134-0.593-4.7-0.295c-1.067,0.203-2.125,0.525-3.052,1.091c-1.493,0.911-2.565,2.415-3.179,4.053
		c-0.613,1.638-0.798,3.409-0.795,5.158c0.004,2.074,0.28,4.2,1.254,6.031c0.134,0.252,0.299,0.513,0.564,0.618
		c0.265,0.105,0.64-0.048,0.649-0.333"/>
	
		<path style="fill-rule:evenodd;clip-rule:evenodd;fill:none;stroke:#028189;stroke-width:3.3077;stroke-linecap:round;stroke-linejoin:round;stroke-miterlimit:22.9256;" d="
		M35.734,34.202c-2.454-0.484-4.246-0.278-5.24,0.154c-7.089,3.082-11.506,33.055-11.096,41.609
		c0.026,0.536,0.117,1.541,0.771,2.466c1.247,1.764,3.682,2.013,5.086,2.158c2.119,0.217,3.692-0.225,7.397-1.387
		c8.227-2.58,12.34-3.871,13.562-4.931c0.703-0.61,1.976-1.853,3.545-1.695c1.15,0.116,1.408,0.88,3.082,1.233
		c1.156,0.244,2.16,0.117,3.082,0c1.844-0.233,2.056-0.672,3.082-0.462c1.039,0.212,1.349,0.769,2.158,0.616
		c0.561-0.106,1.16-0.515,1.387-1.079c0.498-1.237-0.97-2.781-1.695-3.545c-0.457-0.48-1.56-1.613-3.39-2.158
		c-1.169-0.348-2.115-0.283-4.007-0.154c-1.411,0.096-2.317,0.264-3.545,0.462c0,0-2.345,0.378-5.702,0.771
		c-3.528,0.412-3.524,0.181-7.397,0.616c-2.657,0.299-4.014,0.457-5.394,0.925c-2.608,0.883-3.835,2.028-4.161,1.695
		c-0.487-0.497,2.079-3.242,3.853-6.473c3.214-5.853,2.247-11.871,2.928-11.866c0.453,0.003,0.299,2.61,2.158,5.856
		c1.115,1.948,2.178,2.769,2.62,3.082c1.363,0.965,2.724,1.277,3.39,1.387c0.92,0.152,1.586,0.098,2.774,0
		c1.822-0.15,2.42-0.493,2.62-0.616c0.622-0.385,1.009-0.883,1.233-1.233"/>
	
		<path style="fill-rule:evenodd;clip-rule:evenodd;fill:none;stroke:#028189;stroke-width:3.3077;stroke-linecap:round;stroke-linejoin:round;stroke-miterlimit:22.9256;" d="
		M28.183,84.288c-0.928,1.607-2.008,4.027-2.312,7.089c-0.27,2.726,0.183,4.883,0.462,6.164c0.465,2.131,1.142,3.708,1.541,4.623
		c0.812,1.863,1.661,3.246,2.158,4.007c0.804,1.23,1.81,2.748,3.545,4.315c1.118,1.011,2.169,1.708,2.928,2.158"/>
	
		<path style="fill-rule:evenodd;clip-rule:evenodd;fill:none;stroke:#028189;stroke-width:3.3077;stroke-linecap:round;stroke-linejoin:round;stroke-miterlimit:22.9256;" d="
		M64.244,105.572c0.712,2.799,0.749,4.069,0.616,5.886"/>
	
		<path style="fill-rule:evenodd;clip-rule:evenodd;fill:none;stroke:#028189;stroke-width:3.3077;stroke-linecap:round;stroke-linejoin:round;stroke-miterlimit:22.9256;" d="
		M51.299,38.517c0.533,0.009,1.753,0.103,2.928,0.925c1.285,0.899,1.759,2.137,2.003,2.774c0.445,1.161,0.451,2.13,0.462,3.699
		c0.008,1.091-0.076,1.994-0.154,2.62"/>
	
		<path style="fill-rule:evenodd;clip-rule:evenodd;fill:none;stroke:#028189;stroke-width:3.3077;stroke-linecap:round;stroke-linejoin:round;stroke-miterlimit:22.9256;" d="
		M53.148,46.223c1.792,1.129,4.066,2.738,6.164,4.777c0.784,0.761,1.672,1.709,2.466,3.082c0.795,1.376,1.023,2.364,1.079,2.62
		c0.194,0.891,0.426,1.494,0,2.62c-0.349,0.924-0.922,2.099-1.849,2.774c-2.144,1.559,4.803,4.825,6.139,5.477
		c2.477,1.21,3.649,2.14,4.987,3.273c1.971,1.669,3.832,4.229,5.093,6.507c0.939,1.697,1.777,5.288,2.125,7.122
		c0.3,1.579,0.222,4.86,0,6.214c-0.168,1.028-0.684,3.629-2.42,6.482c-0.737,1.211-2.52,2.892-4.511,4.454
		c-2.389,1.874-5.088,2.378-6.818,2.882c-4.636,1.348-9.235,1.36-12.762,1.031"/>
	
		<path style="fill-rule:evenodd;clip-rule:evenodd;fill:none;stroke:#028189;stroke-width:3.3077;stroke-linecap:round;stroke-linejoin:round;stroke-miterlimit:22.9256;" d="
		M35.426,30.196c0.391-2.043,0.282-3.736,0-5.086c-0.587-2.811-1.71-3.104-2.312-6.164c-0.465-2.37,0.09-2.791-0.616-5.086
		c-0.498-1.618-0.881-1.754-1.387-3.545c-0.462-1.636-0.824-2.919-0.462-4.469c0.422-1.807,1.133-3.444,1.849-4.161
		c0.833-0.834,2.11-1.803,2.928-2.312c1.005-0.625,1.579-0.52,2.466-0.771c1.325-0.375,2.415-0.249,3.236-0.154
		c1.244,0.144,1.969,0.69,2.62,1.233c0.866,0.723,0.524,1.359,1.233,2.158c0.786,0.885,1.663,0.616,4.931,1.233
		c1.368,0.258,2.383,0.45,3.699,0.925c2.01,0.726,3.365,1.624,3.699,1.849c1.839,1.244,2.937,2.559,3.236,2.928
		c1.278,1.575,2.219,2.735,2.158,4.315c-0.054,1.395-0.862,2.396-1.541,3.236c-0.954,1.182-1.985,1.78-4.007,2.928
		c-2.023,1.148-3.034,1.723-4.469,2.003c-1.874,0.366-3.476,0.1-4.469-0.154"/>
	
		<path style="fill-rule:evenodd;clip-rule:evenodd;fill:none;stroke:#028189;stroke-width:3.3077;stroke-linecap:round;stroke-linejoin:round;stroke-miterlimit:22.9256;" d="
		M41.898,28.5c0.148,0.711,0.542,2.099,1.695,3.39c0.435,0.487,1.598,1.754,3.545,2.158c1.346,0.279,2.432,0.013,3.082-0.154
		c1.571-0.404,2.601-1.196,3.236-1.695c0.391-0.307,1.559-0.913,2.62-2.312c1.967-2.594,2.511-4.584,2.928-5.702
		c0.422-1.133,0.911-4.547,1.233-6.473"/>
</g>
</svg>
