<?xml version="1.0" encoding="iso-8859-1"?>
<svg version="1.1" xmlns="http://www.w3.org/2000/svg" xmlns:xlink="http://www.w3.org/1999/xlink" x="0px" y="0px"
	 viewBox="0 0 97 97" style="enable-background:new 0 0 97 97;" xml:space="preserve">
<g id="Capa_3">
	<linearGradient id="SVGID_1_" gradientUnits="userSpaceOnUse" x1="57.0526" y1="48.4715" x2="16.344" y2="53.5534">
		<stop  offset="0" style="stop-color:#F9BD72"/>
		<stop  offset="0.8223" style="stop-color:#FFFFFF"/>
	</linearGradient>
	<path style="fill-rule:evenodd;clip-rule:evenodd;fill:url(#SVGID_1_);" d="M30.156,96.565c0.626-2.552-0.439-5.284,0.295-7.811
		c0.337-1.158,1.047-2.253,1.021-3.452c-0.045-2.06-2.14-3.479-3.422-5.163c-1.78-2.34-2.024-5.378-1.984-8.24
		c0.036-2.534,0.255-5.103,1.191-7.485c0.936-2.381,2.663-4.578,5.104-5.725c1.38-0.649,3.198-1.225,3.388-2.647
		c0.212-1.586-1.787-2.536-2.836-3.805c-1.387-1.676-1.043-4.192,0.294-5.903c1.337-1.711,3.452-2.751,5.584-3.5
		c1.154-0.405,2.616-1.402,1.936-2.355c-0.582-0.815-2.115-0.397-2.843-1.104c-0.731-0.71-0.044-1.929,0.874-2.419
		c0.918-0.49,2.049-0.649,2.823-1.318c1.259-1.089,0.996-3.069,0.035-4.393c-0.961-1.324-2.439-2.238-3.634-3.387
		c-2.883-2.771-3.951-6.708-4.908-10.452c-0.442-1.727-0.869-3.61-0.062-5.22c0.805-1.606,2.801-4.043,4.505-4.846
		c4.493-2.119,10.19-3.602,13.83-5.643c1.48-0.83,5.824,2.658,6.551,4.082c0.315,0.617,0.38,2.799,0.364,3.482
		c-0.163,6.947-2.912,12.606-4.371,19.758c-0.173,0.849,0.259,1.741,0.739,2.484c0.611,0.947,3.303-1.194,4.239-0.512
		c5.031,3.662,5.665,12.429,6.956,18.233c0.99,4.451,1.547,8.983,1.662,13.526c0.052,2.034-0.22,4.456-2.144,5.437
		c-1.533,0.781-3.776,0.414-4.784,1.738c-0.391,0.514-0.81,1.231-0.531,1.796c2.118,4.292,4.162,8.107,1.754,13.536
		c-0.697,1.571-6.687,12.167-8.128,11.084c-0.849-0.639-1.721-0.017-3.033,0c-6.43,0.082-11.27,0.004-17.469,0
		c-1.138-0.001-1.334-0.519-2.669,0"/>
</g>
<g id="Capa_4">
	<linearGradient id="SVGID_2_" gradientUnits="userSpaceOnUse" x1="33.7746" y1="19.6514" x2="56.9091" y2="8.5116">
		<stop  offset="0" style="stop-color:#FFFFFF"/>
		<stop  offset="1" style="stop-color:#0EB3B7"/>
	</linearGradient>
	<path style="fill-rule:evenodd;clip-rule:evenodd;fill:url(#SVGID_2_);" d="M56.456,15.824c-0.206,1.532-2.472,5.574-1.723,4.218
		c1.767-3.201-3.733-6.17-4.505,1.521c-0.111,1.109-2.263-0.122-3.321-0.503c-0.6-0.216-1.17-0.509-1.775-0.707
		c-1.327-0.435-2.76-0.396-4.14-0.622c-1.876-0.307-3.629-1.1-5.357-1.885c-0.59-0.268-1.2-0.551-1.614-1.046
		c-0.309-0.369-0.483-0.828-0.651-1.277c-0.34-0.907-0.684-1.839-0.677-2.806c0.009-1.321,0.689-2.575,1.635-3.507
		c0.946-0.932,2.141-1.576,3.361-2.112c2.753-1.208,5.789-1.925,8.782-1.599c-0.01-1.311,0.982-2.487,2.198-3.009
		c1.216-0.522,2.606-0.487,3.907-0.242c0.887,0.167,1.766,0.432,2.537,0.898c1.241,0.75,2.133,1.987,2.643,3.335
		c0.51,1.348,0.663,2.805,0.661,4.244c-0.003,1.706-0.233,3.455-1.042,4.962c-0.111,0.207-0.248,0.422-0.469,0.508
		c-0.22,0.086-0.532-0.039-0.54-0.274"/>
</g>
<g id="Capa_1">
	<path style="fill:#028189;" d="M62.311,70.672c-1.653,0-3.182-0.448-5.771-1.252c-7.465-2.317-10.555-3.276-11.808-4.353
		l-0.143-0.125c-0.443-0.386-1.116-0.964-1.67-0.914c-0.114,0.012-0.17,0.038-0.465,0.212c-0.411,0.244-0.974,0.578-1.937,0.779
		c-1.209,0.252-2.235,0.124-3.059,0.02c-0.775-0.097-1.258-0.232-1.611-0.331c-0.337-0.094-0.336-0.095-0.466-0.069
		c-0.177,0.036-0.3,0.096-0.487,0.187c-0.4,0.196-1.005,0.492-1.884,0.325c-1.01-0.187-1.9-0.891-2.266-1.791
		c-0.774-1.905,0.906-3.654,1.714-4.494c0.38-0.397,1.54-1.605,3.478-2.174c1.23-0.363,2.22-0.298,3.86-0.186
		c1.096,0.073,1.844,0.195,2.711,0.335l0.373,0.061c0.019,0.003,1.954,0.31,4.675,0.624c1.41,0.163,2.113,0.2,2.857,0.238
		c0.798,0.042,1.622,0.084,3.286,0.27c1.876,0.208,3.108,0.345,4.265,0.666c-0.343-0.518-0.688-1.072-1.007-1.647
		c-0.892-1.606-1.427-3.217-1.759-4.674c-0.726,1.195-1.555,2.124-2.466,2.762c-1.278,0.896-2.577,1.252-3.44,1.394
		c-0.945,0.156-1.628,0.101-2.666,0.016c-1.731-0.141-2.459-0.483-2.856-0.729c-0.591-0.36-1.096-0.857-1.495-1.472
		c-0.447-0.69-0.245-1.608,0.453-2.051c0.698-0.445,1.625-0.243,2.073,0.448c0.153,0.237,0.339,0.422,0.55,0.552
		c0.009,0.006,0.328,0.195,1.513,0.291c0.936,0.076,1.358,0.109,1.938,0.015c0.554-0.091,1.384-0.319,2.198-0.889
		c0.766-0.535,1.37-1.416,1.743-2.061c0.835-1.443,1.111-2.745,1.295-3.577C54.201,46.322,54.48,45,55.824,45
		c0.005,0,0.011,0,0.016,0c1.583,0,1.696,1.671,1.779,2.858c0.125,1.787,0.333,4.801,1.965,7.743
		c0.601,1.082,1.346,2.145,1.945,2.99c1.229,1.735,2.117,2.993,1.014,4.106c-0.915,0.925-2.049,0.338-2.799-0.051
		c-0.526-0.275-1.248-0.65-2.212-0.973c-0.976-0.328-1.983-0.448-4.17-0.691c-1.575-0.175-2.354-0.215-3.106-0.254
		c-0.76-0.039-1.544-0.079-3.05-0.253c-2.791-0.323-4.724-0.63-4.805-0.644l-0.38-0.061c-0.824-0.134-1.476-0.24-2.43-0.304
		c-1.589-0.107-2.122-0.132-2.8,0.07c-1.171,0.344-1.89,1.092-2.16,1.374c-0.583,0.607-0.864,0.983-0.99,1.217
		c0.26-0.126,0.633-0.295,1.139-0.397c0.843-0.169,1.395-0.015,1.881,0.12c0.291,0.081,0.621,0.174,1.17,0.243
		c0.695,0.088,1.351,0.17,2.065,0.02c0.471-0.099,0.71-0.241,1.015-0.42c0.383-0.228,0.909-0.539,1.705-0.619
		c1.864-0.186,3.275,1.049,3.955,1.641l0.126,0.109c0.781,0.672,4.743,1.901,10.74,3.761c3.016,0.936,4.112,1.223,5.547,1.081
		c0.942-0.096,2.515-0.256,3.157-1.156c0.292-0.408,0.35-0.878,0.367-1.243c0.402-8.304-3.797-30.851-8.324-32.799
		c-0.548-0.236-1.746-0.367-3.469-0.032c-0.808,0.158-1.602-0.365-1.762-1.17c-0.16-0.804,0.369-1.584,1.182-1.743
		c2.101-0.409,3.962-0.33,5.245,0.222c7.113,3.06,10.422,29.527,10.124,35.664c-0.02,0.407-0.08,1.647-0.914,2.814
		c-1.43,2.001-3.944,2.257-5.296,2.395C62.956,70.654,62.631,70.672,62.311,70.672z"/>
	<path style="fill:#028189;" d="M53.786,97c-0.512,0-1.011-0.26-1.291-0.728c-0.423-0.705-0.188-1.616,0.525-2.033
		c0.782-0.46,1.521-0.997,2.193-1.599c1.324-1.185,2.086-2.336,2.698-3.262c0.635-0.963,1.198-1.999,1.673-3.077
		c0.289-0.656,0.827-1.878,1.19-3.526c0.197-0.893,0.563-2.555,0.357-4.608c-0.182-1.823-0.763-3.584-1.728-5.237
		c-0.414-0.709-0.169-1.618,0.549-2.028c0.716-0.41,1.635-0.168,2.049,0.543c1.18,2.021,1.892,4.184,2.116,6.429
		c0.252,2.519-0.181,4.48-0.412,5.533c-0.427,1.935-1.065,3.384-1.372,4.081c-0.541,1.229-1.185,2.412-1.912,3.515
		c-0.67,1.013-1.586,2.399-3.197,3.84c-0.82,0.734-1.721,1.391-2.676,1.95C54.311,96.933,54.047,97,53.786,97z"/>
	<path style="fill:#028189;" d="M28.716,92.835c-0.114-1.547-0.229-3.109,0.417-5.626c0.063-0.245,0.09-0.365,0.1-0.428
		c0.013-0.264,0.114-0.473,0.174-0.597c0.025-0.05,0.07-0.143,0.153-0.329c0.338-0.748,1.224-1.082,1.981-0.751
		c0.756,0.334,1.096,1.212,0.758,1.961c-0.048,0.107-0.086,0.188-0.115,0.252c-0.027,0.146-0.07,0.339-0.144,0.623
		c-0.526,2.05-0.442,3.192-0.335,4.64L28.716,92.835z"/>
	<path style="fill:#028189;" d="M37.128,44.257c-0.746,0-1.392-0.549-1.486-1.301c-0.098-0.777-0.145-1.568-0.14-2.35
		c0.009-1.367,0.016-2.355,0.483-3.563c0.228-0.589,0.761-1.968,2.207-2.968c1.192-0.825,2.436-1.014,3.269-1.028
		c0.845-0.008,1.511,0.64,1.525,1.46c0.014,0.82-0.647,1.496-1.475,1.509c-0.415,0.007-1.028,0.098-1.6,0.493
		c-0.692,0.478-0.952,1.151-1.124,1.596c-0.262,0.678-0.276,1.23-0.285,2.522c-0.005,0.652,0.035,1.312,0.116,1.962
		c0.103,0.813-0.48,1.555-1.303,1.656C37.253,44.253,37.19,44.257,37.128,44.257z"/>
	<path style="fill:#028189;" d="M37.552,89.631c-1.708,0-3.4-0.268-5.623-1.355c-0.207-0.101-0.378-0.179-0.535-0.249
		c-0.923-0.416-1.454-0.69-3.436-2.358c-1.456-1.225-1.859-1.6-3.435-3.829l-0.086-0.123c-1.432-2.026-1.619-2.34-2.521-5.089
		l-0.033-0.101c-0.375-1.137-1.373-4.159-1.034-7.774c0.163-1.734,0.618-2.871,1.195-4.31l0.309-0.779
		c0.181-0.463,1.231-2.932,4.141-6.051c0.885-0.949,1.715-1.524,2.32-1.943c0.236-0.163,0.445-0.304,0.615-0.45
		c0.621-0.535,1.4-0.921,2.045-1.231c-0.412-0.559-0.758-1.183-1-1.815c-0.473-1.239-0.275-2.085-0.116-2.764l0.053-0.233
		c0.17-0.781,0.548-1.7,1.063-2.582c0.754-1.292,1.587-2.17,2.303-2.858c1.518-1.46,3.325-2.846,5.371-4.122
		c0.702-0.436,1.627-0.23,2.069,0.464s0.231,1.611-0.469,2.047c-1.87,1.166-3.511,2.424-4.879,3.739
		c-0.597,0.574-1.228,1.239-1.796,2.214c-0.508,0.871-0.679,1.497-0.729,1.727l-0.063,0.273c-0.123,0.524-0.152,0.648,0,1.044
		c0.24,0.627,0.682,1.285,1.152,1.717c0.689,0.631,0.702,1.328,0.648,1.686c-0.166,1.108-1.203,1.607-2.207,2.089
		c-0.528,0.254-1.126,0.541-1.476,0.842c-0.24,0.208-0.531,0.413-0.864,0.644c-0.549,0.381-1.171,0.812-1.837,1.526
		c-2.107,2.259-3.221,4.273-3.547,5.108l-0.318,0.802c-0.526,1.312-0.873,2.18-0.996,3.491c-0.282,3.003,0.576,5.6,0.898,6.578
		l0.035,0.105c0.793,2.419,0.843,2.49,2.125,4.303l0.086,0.123c1.416,2.001,1.646,2.196,2.921,3.269
		c1.75,1.474,2.08,1.623,2.735,1.918c0.182,0.082,0.381,0.172,0.621,0.289c2.495,1.221,3.902,1.119,6.456,0.942l0.386-0.027
		c0.828-0.065,1.543,0.559,1.601,1.377c0.058,0.818-0.566,1.527-1.392,1.584l-0.382,0.027
		C39.099,89.576,38.323,89.631,37.552,89.631z"/>
	<path style="fill:#028189;" d="M54.681,29.17c-0.705,0-1.334-0.495-1.472-1.206c-0.317-1.642-0.315-3.246,0.005-4.766
		c0.281-1.328,0.699-2.106,1.068-2.792c0.341-0.633,0.636-1.181,0.851-2.262c0.146-0.734,0.148-1.182,0.151-1.656
		c0.004-0.668,0.009-1.425,0.398-2.678c0.229-0.733,0.438-1.164,0.624-1.544c0.178-0.366,0.332-0.682,0.52-1.338
		c0.382-1.338,0.57-2.074,0.367-2.936c-0.354-1.506-0.887-2.462-1.138-2.711c-0.597-0.591-1.57-1.324-2.166-1.691
		c-0.325-0.2-0.498-0.23-0.878-0.297c-0.246-0.043-0.501-0.089-0.787-0.169c-0.816-0.228-1.505-0.149-2.109-0.08
		c-0.612,0.07-0.948,0.314-1.39,0.679c-0.06,0.068-0.091,0.168-0.115,0.241c-0.106,0.335-0.267,0.841-0.75,1.38
		c-0.81,0.903-1.742,1.024-2.921,1.177c-0.511,0.066-1.163,0.151-2.022,0.311c-1.124,0.21-1.864,0.348-2.843,0.698
		c-1.393,0.498-2.384,1.113-2.745,1.355c-1.218,0.815-2.005,1.675-2.366,2.115c-1.005,1.226-1.487,1.847-1.459,2.556
		c0.026,0.656,0.474,1.206,0.949,1.787c0.607,0.744,1.288,1.143,2.905,2.051c1.585,0.891,2.309,1.298,3.263,1.482
		c0.988,0.191,2.017,0.155,3.055-0.108c0.803-0.204,1.62,0.275,1.825,1.07c0.206,0.794-0.278,1.603-1.081,1.806
		c-1.472,0.374-2.944,0.424-4.375,0.145c-1.434-0.278-2.405-0.823-4.168-1.814c-1.667-0.936-2.769-1.555-3.757-2.767
		c-0.617-0.756-1.548-1.898-1.613-3.537c-0.073-1.859,0.996-3.163,2.127-4.543c0.466-0.568,1.477-1.674,3.015-2.704
		c0.564-0.377,1.758-1.099,3.406-1.688c1.205-0.431,2.131-0.604,3.303-0.823c0.934-0.174,1.64-0.266,2.192-0.338
		c0.437-0.057,0.932-0.121,1.047-0.181c0.069-0.078,0.081-0.101,0.151-0.321c0.122-0.385,0.327-1.03,1.055-1.631
		c0.687-0.567,1.539-1.186,2.967-1.349c0.75-0.086,1.882-0.216,3.271,0.173c0.178,0.05,0.337,0.075,0.49,0.102
		c0.501,0.087,1.125,0.196,1.943,0.7c0.749,0.461,1.917,1.335,2.702,2.113c1.134,1.122,1.733,3.265,1.938,4.135
		c0.389,1.647,0.005,2.991-0.401,4.414c-0.259,0.909-0.496,1.396-0.705,1.825c-0.16,0.327-0.298,0.61-0.459,1.129
		c-0.26,0.835-0.263,1.249-0.266,1.823c-0.004,0.535-0.008,1.202-0.208,2.21c-0.301,1.514-0.75,2.349-1.146,3.085
		c-0.328,0.609-0.587,1.09-0.779,2.003c-0.24,1.135-0.238,2.346,0.005,3.601c0.155,0.806-0.378,1.583-1.191,1.737
		C54.869,29.161,54.774,29.17,54.681,29.17z"/>
	<path style="fill:#028189;" d="M43.957,32.439c-0.871,0-1.554-0.173-1.946-0.273c-1.641-0.417-2.724-1.261-3.245-1.666
		c-0.043-0.033-0.106-0.072-0.18-0.122c-0.493-0.327-1.412-0.935-2.266-2.05c-1.565-2.042-2.158-3.707-2.512-4.701l-0.133-0.368
		c-0.311-0.826-0.594-2.491-0.932-4.581l-0.167-1.019c-0.137-0.808,0.415-1.573,1.232-1.709c0.815-0.141,1.59,0.411,1.727,1.22
		l0.17,1.038c0.206,1.271,0.55,3.398,0.781,4.013l0.152,0.419c0.333,0.937,0.79,2.221,2.072,3.893
		c0.551,0.718,1.149,1.115,1.545,1.377c0.152,0.101,0.275,0.185,0.364,0.254c0.442,0.344,1.109,0.863,2.138,1.125
		c0.43,0.109,1.081,0.274,1.885,0.111c1.166-0.239,1.867-1.017,2.131-1.31c0.666-0.738,0.944-1.551,1.06-2.103
		c0.168-0.803,0.962-1.321,1.774-1.151c0.811,0.167,1.332,0.953,1.163,1.756c-0.273,1.301-0.882,2.503-1.76,3.476
		c-1.078,1.195-2.343,1.949-3.76,2.24C44.787,32.403,44.353,32.439,43.957,32.439z"/>
</g>
</svg>
