<?xml version="1.0" encoding="iso-8859-1"?>
<svg version="1.1" id="Capa_1" xmlns="http://www.w3.org/2000/svg" xmlns:xlink="http://www.w3.org/1999/xlink" x="0px" y="0px"
	 viewBox="0 0 97 97" style="enable-background:new 0 0 97 97;" xml:space="preserve">
<g>
	<g>
		<linearGradient id="SVGID_1_" gradientUnits="userSpaceOnUse" x1="16.1022" y1="95.5026" x2="69.7874" y2="35.8792">
			<stop  offset="0" style="stop-color:#34A6AE"/>
			<stop  offset="1" style="stop-color:#FFFFFF"/>
		</linearGradient>
		<path style="fill:url(#SVGID_1_);" d="M95.137,78.133l-0.792-7.119c-4.742-8.777-19.771-29.377-25.156-35.658
			c-0.531-0.604-2.522-1.839-4.179-1.839h-9.417h-7.806H5.665c-1.629,0-2.949,1.323-2.949,2.955v41.593H2.253
			C1.561,78.065,1,78.627,1,79.321v1.997c0,0.693,0.611,1.348,1.303,1.348c0,0,3.113,0,3.362,0h6.779
			c0.852-4.637,4.841-8.148,9.641-8.148s8.789,3.512,9.641,8.148h23.866c0.249,0,0.49-0.034,0.721-0.093h8.602
			c0.887-4.591,4.858-8.056,9.627-8.056c4.769,0,8.74,3.464,9.627,8.056h10.579c0.692,0,1.253-0.562,1.253-1.255v-1.997
			C96,78.764,95.637,78.298,95.137,78.133z"/>
		<path style="fill:#08828B;" d="M55.592,83.666H31.726c-0.482,0-0.896-0.345-0.983-0.819c-0.781-4.247-4.421-7.329-8.657-7.329
			s-7.876,3.082-8.657,7.329c-0.087,0.475-0.501,0.819-0.983,0.819H2.303C1.076,83.666,0,82.569,0,81.318V79.32
			c0-1.058,0.732-1.948,1.715-2.19V36.473c0-2.181,1.772-3.955,3.95-3.955h59.344c2.01,0,4.244,1.397,4.931,2.18
			c5.14,5.994,20.396,26.793,25.284,35.842c0.062,0.113,0.1,0.237,0.114,0.365l0.734,6.598C96.646,77.917,97,78.586,97,79.32v1.998
			c0,1.243-1.011,2.255-2.253,2.255H84.169c-0.479,0-0.891-0.34-0.981-0.811c-0.813-4.198-4.448-7.245-8.646-7.245
			c-4.198,0-7.834,3.047-8.646,7.245c-0.091,0.471-0.502,0.811-0.981,0.811h-8.486C56.149,83.635,55.868,83.666,55.592,83.666z
			 M32.527,81.666h23.065c0.153,0,0.313-0.021,0.475-0.062c0.08-0.021,0.163-0.031,0.246-0.031h7.809
			c1.282-4.715,5.541-8.056,10.421-8.056c4.879,0,9.138,3.342,10.421,8.056h9.784c0.14,0,0.253-0.114,0.253-0.255V79.32
			c0-0.124-0.088-0.208-0.175-0.236c-0.372-0.122-0.639-0.45-0.683-0.84l-0.771-6.924c-4.931-9.038-19.888-29.417-24.942-35.313
			c-0.383-0.437-2.128-1.49-3.42-1.49H5.665c-1.075,0-1.95,0.877-1.95,1.955v41.593c0,0.553-0.448,1-1,1H2.253
			C2.113,79.065,2,79.18,2,79.32v1.998c0,0.161,0.183,0.348,0.303,0.348h9.34c1.251-4.769,5.518-8.148,10.442-8.148
			S31.275,76.897,32.527,81.666z"/>
	</g>
	<path style="fill:#FFFFFF;" d="M92.868,70.472H3.691V60.385h82.781C88.359,63.262,91.401,67.733,92.868,70.472z"/>
	<g>
		<g>
			<path style="fill-rule:evenodd;clip-rule:evenodd;fill:#288F95;" d="M26.252,67.163c7.981,0,14.49-6.521,14.49-14.517
				c0-7.995-6.509-14.516-14.49-14.516c-7.98,0-14.488,6.521-14.488,14.516C11.764,60.642,18.272,67.163,26.252,67.163z"/>
			<path style="fill:#288F95;" d="M26.252,68.475c-8.711,0-15.797-7.1-15.797-15.828c0-8.728,7.087-15.828,15.797-15.828
				c8.712,0,15.799,7.101,15.799,15.828C42.051,61.375,34.964,68.475,26.252,68.475z M26.252,39.442
				c-7.267,0-13.179,5.924-13.179,13.205s5.912,13.205,13.179,13.205c7.268,0,13.181-5.924,13.181-13.205
				S33.519,39.442,26.252,39.442z"/>
		</g>
		<rect x="23.848" y="43.589" style="fill:#FFFFFF;" width="5.237" height="18.116"/>
		<rect x="17.426" y="50.023" style="fill:#FFFFFF;" width="18.08" height="5.247"/>
	</g>
	<g>
		<g>
			<linearGradient id="SVGID_2_" gradientUnits="userSpaceOnUse" x1="40.0784" y1="28.3899" x2="50.8151" y2="28.3899">
				<stop  offset="0" style="stop-color:#F1D1A1"/>
				<stop  offset="1" style="stop-color:#D88622"/>
			</linearGradient>
			<path style="fill:url(#SVGID_2_);" d="M46.156,23.485h-1.418c-2.573,0-4.152,2.09-4.152,4.668l-0.507,5.142h10.737l-0.507-5.142
				C50.308,25.575,48.729,23.485,46.156,23.485z"/>
			<path style="fill:#09828B;" d="M50.815,34.295H40.079c-0.282,0-0.551-0.119-0.741-0.329c-0.189-0.209-0.282-0.489-0.254-0.77
				l0.507-5.142c-0.005-3.187,2.162-5.57,5.147-5.57h1.418c2.985,0,5.152,2.384,5.152,5.668l0.503,5.043
				c0.027,0.281-0.064,0.561-0.254,0.77C51.367,34.176,51.098,34.295,50.815,34.295z M41.181,32.295h8.531l-0.399-4.043
				c-0.005-1.924-0.979-3.767-3.157-3.767h-1.418c-2.178,0-3.152,1.842-3.152,3.668L41.181,32.295z"/>
		</g>
		<g>
			<path style="fill:#08828B;" d="M33.886,29.195h-7.398c-0.552,0-1-0.448-1-1s0.448-1,1-1h7.398c0.552,0,1,0.448,1,1
				S34.438,29.195,33.886,29.195z"/>
			<path style="fill:#08828B;" d="M37.136,21.325c-0.256,0-0.513-0.098-0.708-0.293l-6.157-6.168
				c-0.39-0.391-0.389-1.024,0.001-1.415c0.391-0.39,1.024-0.39,1.415,0.001l6.157,6.168c0.39,0.391,0.389,1.024-0.001,1.415
				C37.647,21.228,37.392,21.325,37.136,21.325z"/>
			<path style="fill:#08828B;" d="M45.512,15.497c-0.552,0-1-0.448-1-1V1.062c0-0.552,0.448-1,1-1s1,0.448,1,1v13.435
				C46.512,15.049,46.064,15.497,45.512,15.497z"/>
			<path style="fill:#08828B;" d="M64.591,29.195h-7.398c-0.553,0-1-0.448-1-1s0.447-1,1-1h7.398c0.553,0,1,0.448,1,1
				S65.144,29.195,64.591,29.195z"/>
			<path style="fill:#08828B;" d="M53.942,21.325c-0.256,0-0.512-0.097-0.706-0.292c-0.392-0.391-0.392-1.023-0.002-1.415
				l6.157-6.168c0.391-0.392,1.025-0.391,1.414-0.001c0.392,0.391,0.392,1.023,0.002,1.415l-6.157,6.168
				C54.455,21.228,54.198,21.325,53.942,21.325z"/>
		</g>
		<linearGradient id="SVGID_3_" gradientUnits="userSpaceOnUse" x1="45.4468" y1="28.6827" x2="42.6422" y2="28.6827">
			<stop  offset="0" style="stop-color:#FFFFFF;stop-opacity:0"/>
			<stop  offset="1" style="stop-color:#FFFFFF"/>
		</linearGradient>
		<path style="fill:url(#SVGID_3_);" d="M45.447,26.12h-0.37c-1.344,0-2.169,1.092-2.169,2.439l-0.265,2.686h2.805V26.12z"/>
	</g>
	<g>
		<g>
			<g>
				<ellipse style="fill:#08828B;" cx="22.123" cy="85.179" rx="11.668" ry="11.883"/>
			</g>
			<g>
				<ellipse style="fill:#FFFFFF;" cx="22.123" cy="85.179" rx="3.711" ry="3.529"/>
				<path style="fill:#FFFFFF;" d="M22.123,89.896c-2.7,0-4.896-2.116-4.896-4.716c0-2.6,2.196-4.716,4.896-4.716
					c2.699,0,4.895,2.116,4.895,4.716C27.019,87.78,24.822,89.896,22.123,89.896z M22.123,82.838c-1.393,0-2.526,1.05-2.526,2.342
					c0,1.292,1.133,2.342,2.526,2.342s2.525-1.05,2.525-2.342C24.649,83.888,23.516,82.838,22.123,82.838z"/>
			</g>
		</g>
		<linearGradient id="SVGID_4_" gradientUnits="userSpaceOnUse" x1="18.4981" y1="88.9333" x2="25.3218" y2="81.8672">
			<stop  offset="0" style="stop-color:#0A8991"/>
			<stop  offset="0.0102" style="stop-color:#1B8B93"/>
			<stop  offset="0.1537" style="stop-color:#6FA6AD"/>
			<stop  offset="0.2988" style="stop-color:#A0C0C6"/>
			<stop  offset="0.4429" style="stop-color:#C4D6DA"/>
			<stop  offset="0.5858" style="stop-color:#DEE8EB"/>
			<stop  offset="0.727" style="stop-color:#F1F5F6"/>
			<stop  offset="0.866" style="stop-color:#FCFDFD"/>
			<stop  offset="1" style="stop-color:#FFFFFF"/>
		</linearGradient>
		<ellipse style="fill-rule:evenodd;clip-rule:evenodd;fill:url(#SVGID_4_);" cx="22.123" cy="85.18" rx="5.043" ry="5.053"/>
	</g>
	<g>
		<g>
			<path style="fill:#ABD9DB;" d="M75.593,59.38H52.305c-0.665,0-1.204-0.54-1.204-1.206V45.082c0-0.666,0.539-1.206,1.204-1.206
				h13.955c0.302,0,0.593,0.114,0.815,0.319l9.332,13.092C77.215,58.031,76.689,59.38,75.593,59.38z"/>
			<path style="fill:#08828B;" d="M75.593,60.38H52.306c-1.216,0-2.204-0.989-2.204-2.206V45.082c0-1.216,0.988-2.206,2.204-2.206
				h13.955c0.554,0,1.084,0.207,1.492,0.582c0.051,0.047,0.098,0.099,0.138,0.156l9.28,13.021c0.606,0.619,0.793,1.526,0.475,2.342
				C77.313,59.829,76.507,60.38,75.593,60.38z M52.306,44.876c-0.112,0-0.204,0.092-0.204,0.206v13.092
				c0,0.113,0.092,0.206,0.204,0.206h23.287c0.034,0,0.139,0,0.189-0.131c0.052-0.132-0.026-0.203-0.052-0.227
				c-0.051-0.047-0.097-0.099-0.137-0.155l-9.245-12.971c-0.027-0.013-0.058-0.02-0.088-0.02H52.306z"/>
		</g>
		<linearGradient id="SVGID_5_" gradientUnits="userSpaceOnUse" x1="55.3322" y1="51.6281" x2="70.188" y2="51.6281">
			<stop  offset="0" style="stop-color:#B8DDE0"/>
			<stop  offset="0.7043" style="stop-color:#FFFFFF"/>
		</linearGradient>
		<path style="fill:url(#SVGID_5_);" d="M69.491,56.109H56.028c-0.384,0-0.696-0.312-0.696-0.697v-7.569
			c0-0.385,0.312-0.697,0.696-0.697h8.068c0.175,0,0.343,0.066,0.471,0.184l5.395,7.569C70.428,55.33,70.125,56.109,69.491,56.109z"
			/>
	</g>
	<g>
		<g>
			<g>
				<ellipse style="fill:#08828B;" cx="75.707" cy="85.18" rx="11.668" ry="11.883"/>
			</g>
			<g>
				<ellipse style="fill:#FFFFFF;" cx="75.707" cy="85.18" rx="3.711" ry="3.529"/>
				<path style="fill:#FFFFFF;" d="M75.708,89.896c-2.7,0-4.896-2.116-4.896-4.716c0-2.6,2.196-4.716,4.896-4.716
					c2.699,0,4.895,2.116,4.895,4.716C80.603,87.78,78.407,89.896,75.708,89.896z M75.708,82.838c-1.393,0-2.526,1.05-2.526,2.342
					c0,1.292,1.133,2.342,2.526,2.342s2.525-1.05,2.525-2.342C78.233,83.888,77.1,82.838,75.708,82.838z"/>
			</g>
		</g>
		<linearGradient id="SVGID_6_" gradientUnits="userSpaceOnUse" x1="72.0823" y1="88.9334" x2="78.9059" y2="81.8672">
			<stop  offset="0" style="stop-color:#0A8991"/>
			<stop  offset="0.0102" style="stop-color:#1B8B93"/>
			<stop  offset="0.1537" style="stop-color:#6FA6AD"/>
			<stop  offset="0.2988" style="stop-color:#A0C0C6"/>
			<stop  offset="0.4429" style="stop-color:#C4D6DA"/>
			<stop  offset="0.5858" style="stop-color:#DEE8EB"/>
			<stop  offset="0.727" style="stop-color:#F1F5F6"/>
			<stop  offset="0.866" style="stop-color:#FCFDFD"/>
			<stop  offset="1" style="stop-color:#FFFFFF"/>
		</linearGradient>
		<ellipse style="fill-rule:evenodd;clip-rule:evenodd;fill:url(#SVGID_6_);" cx="75.707" cy="85.18" rx="5.043" ry="5.053"/>
	</g>
</g>
</svg>
