<?xml version="1.0" encoding="iso-8859-1"?>
<svg version="1.1" id="Capa_1" xmlns="http://www.w3.org/2000/svg" xmlns:xlink="http://www.w3.org/1999/xlink" x="0px" y="0px"
	 viewBox="0 0 97 97" style="enable-background:new 0 0 97 97;" xml:space="preserve">
<g>
	<g>
		<linearGradient id="SVGID_1_" gradientUnits="userSpaceOnUse" x1="64.4695" y1="53.1995" x2="34.1338" y2="105.7424">
			<stop  offset="0" style="stop-color:#FFFFFF"/>
			<stop  offset="0.0636" style="stop-color:#D5EBED"/>
			<stop  offset="0.1515" style="stop-color:#A3D7DA"/>
			<stop  offset="0.2428" style="stop-color:#77C7CA"/>
			<stop  offset="0.3369" style="stop-color:#4EBCBF"/>
			<stop  offset="0.4351" style="stop-color:#2AB6B9"/>
			<stop  offset="0.5398" style="stop-color:#00B2B6"/>
			<stop  offset="0.7809" style="stop-color:#00B0B4"/>
		</linearGradient>
		<path style="fill-rule:evenodd;clip-rule:evenodd;fill:url(#SVGID_1_);" d="M82.577,96.12V68.767
			c0-10.2-8.225-18.547-18.277-18.547H33.759c-10.052,0-18.275,8.347-18.275,18.547V96.12H82.577z"/>
		<path style="fill:#007D86;" d="M82.576,97.12H15.483c-0.552,0-1-0.447-1-1V68.768c0-10.778,8.647-19.548,19.275-19.548H64.3
			c10.629,0,19.276,8.77,19.276,19.548V96.12C83.576,96.673,83.129,97.12,82.576,97.12z M16.483,95.12h65.093V68.768
			c0-9.676-7.75-17.548-17.276-17.548H33.759c-9.526,0-17.275,7.872-17.275,17.548V95.12z"/>
	</g>
	<g>
		<g>
			<path style="fill-rule:evenodd;clip-rule:evenodd;fill:#288F95;" d="M67.916,91.334c5.259,0,9.549-4.297,9.549-9.566
				c0-5.269-4.289-9.566-9.549-9.566c-5.259,0-9.547,4.297-9.547,9.566C58.368,87.036,62.657,91.334,67.916,91.334z"/>
			<path style="fill:#288F95;" d="M67.915,92.198c-5.74,0-10.41-4.679-10.41-10.43c0-5.751,4.67-10.43,10.41-10.43
				c5.741,0,10.411,4.679,10.411,10.43C78.327,87.519,73.656,92.198,67.915,92.198z M67.915,73.066
				c-4.789,0-8.684,3.904-8.684,8.702s3.896,8.702,8.684,8.702c4.789,0,8.686-3.904,8.686-8.702S72.705,73.066,67.915,73.066z"/>
		</g>
		<rect x="66.331" y="75.799" style="fill:#FFFFFF;" width="3.451" height="11.938"/>
		<rect x="62.1" y="80.039" style="fill:#FFFFFF;" width="11.914" height="3.458"/>
	</g>
	<g>
		<polygon style="fill-rule:evenodd;clip-rule:evenodd;fill:#FFFFFF;" points="32.293,50.558 66.151,50.558 49.221,90.378 		"/>
		<path style="fill:#FFFFFF;" d="M49.222,91.103L31.864,50.274h34.715L49.222,91.103z M32.722,50.841l16.5,38.813l16.5-38.813
			H32.722z"/>
	</g>
	<g>
		<g>
			<linearGradient id="SVGID_2_" gradientUnits="userSpaceOnUse" x1="44.3065" y1="65.5873" x2="53.7323" y2="56.1615">
				<stop  offset="0" style="stop-color:#0B6A74"/>
				<stop  offset="1" style="stop-color:#36A7AF"/>
			</linearGradient>
			<path style="fill:url(#SVGID_2_);" d="M44.223,56.446c3.134-0.065,6.276-0.027,9.412-0.018c0.594-0.035,1.078,0.664,0.901,1.328
				c-0.446,2.626-0.886,5.258-1.337,7.884c-0.046,0.649-0.522,1.186-1.109,1.098c-2.041,0.009-4.086-0.009-6.127,0.003
				c-0.522,0.068-1.045-0.342-1.088-0.965c-0.479-2.638-0.904-5.29-1.357-7.931C43.35,57.257,43.678,56.534,44.223,56.446z"/>
			<path style="fill:#0C838B;" d="M45.853,67.747c-0.441,0-0.878-0.155-1.229-0.442c-0.424-0.347-0.686-0.841-0.74-1.396
				c-0.31-1.708-0.597-3.423-0.884-5.136c-0.152-0.905-0.303-1.81-0.458-2.713c-0.149-0.586-0.046-1.235,0.281-1.752
				c0.295-0.466,0.737-0.768,1.242-0.849c0.046-0.008,0.092-0.012,0.138-0.013c2.456-0.051,4.95-0.039,7.361-0.027l2.074,0.009
				c0.501-0.032,1.068,0.221,1.456,0.695c0.431,0.527,0.583,1.233,0.409,1.89l-0.451,2.693c-0.287,1.701-0.574,3.403-0.866,5.103
				c-0.035,0.555-0.335,1.146-0.81,1.526c-0.39,0.311-0.865,0.454-1.344,0.402c-0.949,0.004-1.896,0.002-2.845,0.001
				c-1.057-0.002-2.113-0.004-3.168,0.002C45.964,67.745,45.909,67.747,45.853,67.747z M44.485,57.441
				c-0.011,0.041-0.016,0.09-0.005,0.126s0.019,0.072,0.025,0.108c0.158,0.921,0.313,1.844,0.467,2.767
				c0.288,1.72,0.577,3.439,0.888,5.154c0.007,0.036,0.011,0.072,0.014,0.109c1.161,0.028,2.24,0.03,3.318,0.032
				c0.965,0.001,1.93,0.002,2.896-0.001c0.021,0.002,0.044,0.001,0.065,0.002c0.021-0.035,0.045-0.095,0.051-0.172
				c0.303-1.795,0.59-3.495,0.876-5.194l0.471-2.784c0.02-0.081,0.018-0.132,0.011-0.163l-2.006-0.007
				C49.235,57.407,46.839,57.397,44.485,57.441z"/>
		</g>
		<g>
			<linearGradient id="SVGID_3_" gradientUnits="userSpaceOnUse" x1="42.2787" y1="83.846" x2="55.7384" y2="70.3863">
				<stop  offset="0" style="stop-color:#0B6A74"/>
				<stop  offset="1" style="stop-color:#36A7AF"/>
			</linearGradient>
			<path style="fill:url(#SVGID_3_);" d="M45.06,67.943c0.064-0.513,0.466-0.919,0.919-0.874c2.036-0.012,4.076-0.033,6.112,0.006
				c0.538-0.033,0.881,0.539,0.947,1.097c0.553,2.83,1.134,5.654,1.68,8.488c-1.713,4.179-3.61,9.979-5.712,13.915
				c-2.087-3.933-3.938-9.748-5.664-13.906C43.885,73.751,44.479,70.847,45.06,67.943z"/>
			<path style="fill:#0C838B;" d="M49.006,91.573L49.006,91.573c-0.371,0-0.71-0.205-0.883-0.531
				c-1.398-2.635-2.662-6.013-3.884-9.28c-0.634-1.694-1.232-3.295-1.82-4.711c-0.074-0.18-0.095-0.376-0.06-0.566
				c0.438-2.35,0.908-4.691,1.378-7.032l0.336-1.676c0.148-1.031,0.975-1.796,1.941-1.708l0.754-0.005
				c1.75-0.012,3.56-0.022,5.341,0.011c0.929-0.063,1.777,0.771,1.922,1.979c0.226,1.14,0.469,2.353,0.711,3.565
				c0.323,1.616,0.646,3.232,0.958,4.852c0.036,0.19,0.017,0.388-0.057,0.567c-0.543,1.325-1.102,2.805-1.692,4.37
				c-1.28,3.395-2.604,6.904-4.063,9.637C49.714,91.37,49.375,91.573,49.006,91.573z M44.38,76.56
				c0.564,1.378,1.132,2.898,1.732,4.502c0.933,2.493,1.89,5.052,2.897,7.252c1.067-2.303,2.082-4.992,3.07-7.611
				c0.556-1.473,1.082-2.87,1.6-4.146c-0.293-1.517-0.596-3.031-0.898-4.545c-0.243-1.216-0.486-2.432-0.725-3.647
				c-0.019-0.143-0.049-0.237-0.074-0.294c-1.78-0.027-3.492-0.018-5.202-0.006l-0.722,0.005c-0.007,0.027-0.015,0.057-0.018,0.07
				l-0.343,1.708C45.249,72.081,44.8,74.317,44.38,76.56z"/>
		</g>
	</g>
	<g>
		<circle style="fill-rule:evenodd;clip-rule:evenodd;fill:#F8BA7A;" cx="49.066" cy="36.35" r="21.739"/>
		<path style="fill:#0C838B;" d="M49.065,59.089c-12.538,0-22.739-10.201-22.739-22.74c0-12.538,10.201-22.739,22.739-22.739
			s22.739,10.201,22.739,22.739C71.805,48.888,61.604,59.089,49.065,59.089z M49.065,15.61c-11.436,0-20.739,9.303-20.739,20.739
			c0,11.436,9.303,20.74,20.739,20.74s20.739-9.304,20.739-20.74C69.805,24.914,60.501,15.61,49.065,15.61z"/>
	</g>
	<linearGradient id="SVGID_4_" gradientUnits="userSpaceOnUse" x1="38.5114" y1="47.8783" x2="59.6199" y2="25.2423">
		<stop  offset="0" style="stop-color:#FABF72"/>
		<stop  offset="1" style="stop-color:#FFFFFF"/>
	</linearGradient>
	<circle style="fill-rule:evenodd;clip-rule:evenodd;fill:url(#SVGID_4_);" cx="49.066" cy="36.56" r="16.103"/>
	<g>
		<g>
			<linearGradient id="SVGID_5_" gradientUnits="userSpaceOnUse" x1="27.8514" y1="53.7429" x2="70.2036" y2="11.3907">
				<stop  offset="0" style="stop-color:#0B6A74"/>
				<stop  offset="1" style="stop-color:#36A7AF"/>
			</linearGradient>
			<path style="fill:url(#SVGID_5_);" d="M79.672,28.877l-0.12,0.035c-0.008-0.162-0.063-0.303-0.166-0.424
				c-0.57-0.695-1.22-1.321-1.892-1.916c-1.389-1.27-3.093-2.407-3.771-4.242c-0.766-4.185-2.285-8.279-4.774-11.754
				c-2.023-2.841-4.713-5.212-7.815-6.815c-0.19-0.13-0.42-0.117-0.637-0.116l0.042-0.127c-0.742-0.453-1.564-0.744-2.376-1.039
				c-4.003-1.401-8.325-1.706-12.526-1.286c-3.192,0.36-6.343,1.255-9.169,2.797c-2.288,1.273-4.358,2.944-6.063,4.933
				c-3.131,3.622-5.049,8.172-5.961,12.843c-0.123,1.124-0.894,2.023-1.645,2.807c-1.52,1.482-3.317,2.704-4.548,4.464
				c-1.351,1.836-1.891,4.151-1.865,6.404c0.028,2.181,0.185,4.396,0.867,6.483c0.388,1.152,0.967,2.28,1.888,3.098
				c0.842,0.753,1.971,1.15,3.095,1.158c1.603,0.001,3.207-0.001,4.811,0c0.004-6.119-0.008-12.239,0.006-18.36
				c0.062-4.949,1.76-9.866,4.813-13.766c2.823-3.638,6.797-6.384,11.233-7.647c4.056-1.174,8.462-1.11,12.482,0.19
				c0.362,0.12,0.718,0.265,1.1,0.313c0.125,0.056,0.251,0.114,0.379,0.171c0.522,0.312,1.104,0.503,1.64,0.794
				c5.298,2.655,9.394,7.534,11.189,13.173c0.854,2.591,1.172,5.334,1.122,8.056c0.011,0.789,0.006,1.58,0,2.37
				c-0.147,0.103-0.293,0.229-0.433,0.396c-0.795,1.558-1.905,2.938-3.048,4.256c-2.037,2.288-4.355,4.326-6.869,6.077
				c-1.76,1.186-3.618,2.331-5.711,2.8c-0.702,0.155-1.09,1.029-0.781,1.668c0.23,0.579,0.916,0.854,1.502,0.687
				c1.509-0.33,2.907-1.025,4.245-1.778c2.481-1.432,4.761-3.196,6.861-5.142c1.554-1.46,3.022-3.029,4.289-4.747
				c0.01,0.198,0.012,0.396,0.025,0.594c0.02,0.481-0.145,0.959-0.034,1.438c-0.103,2.098-0.062,6.319-0.062,6.319l0.011,2.207
				c0,0,4.027-0.042,5.231-0.087c1.648-0.111,3.102-1.196,3.865-2.632c1.253-2.291,1.472-4.967,1.564-7.529
				C81.762,33.504,81.249,30.875,79.672,28.877z"/>
			<path style="fill:#0C838B;" d="M55.303,48.413c-0.873,0-1.729-0.53-2.064-1.377c-0.253-0.517-0.244-1.231,0.053-1.844
				c0.294-0.604,0.819-1.031,1.442-1.168c1.98-0.444,3.81-1.602,5.368-2.652c2.47-1.721,4.723-3.712,6.681-5.913
				c1.055-1.216,2.144-2.556,2.905-4.046c0.034-0.066,0.075-0.129,0.123-0.187c0.065-0.078,0.133-0.151,0.203-0.221
				c0.004-0.629,0.006-1.259-0.004-1.889c0.052-2.846-0.31-5.444-1.072-7.758c-1.742-5.475-5.637-10.061-10.687-12.592
				c-0.244-0.132-0.47-0.23-0.694-0.33c-0.313-0.138-0.635-0.281-0.958-0.468l-0.206-0.093c-0.341-0.06-0.646-0.166-0.919-0.26
				l-0.208-0.071c-3.809-1.231-8.032-1.295-11.889-0.179c-4.188,1.192-7.993,3.785-10.721,7.3c-2.91,3.715-4.543,8.39-4.604,13.166
				c-0.009,3.729-0.007,7.468-0.006,11.208v7.14c0,0.266-0.105,0.52-0.293,0.707c-0.188,0.188-0.441,0.292-0.707,0.292
				c0,0,0,0-0.001,0h-4.811c-1.398-0.008-2.767-0.523-3.76-1.412c-0.943-0.838-1.653-1.991-2.169-3.524
				c-0.763-2.333-0.893-4.74-0.919-6.789c-0.021-1.893,0.319-4.643,2.06-7.01c0.886-1.266,2.036-2.264,3.148-3.228
				c0.512-0.444,1.024-0.888,1.508-1.359c0.593-0.62,1.259-1.376,1.349-2.199c1.027-5.28,3.167-9.881,6.199-13.388
				c1.769-2.065,3.9-3.8,6.333-5.154c2.824-1.542,6.032-2.521,9.543-2.917c4.725-0.475,9.086-0.023,12.968,1.335
				c0.912,0.331,1.763,0.639,2.566,1.129c0.012,0.007,0.022,0.014,0.033,0.021c0.175,0.034,0.359,0.097,0.542,0.209
				c3.19,1.657,6,4.112,8.128,7.102c2.407,3.361,4.065,7.42,4.927,12.064c0.464,1.178,1.49,2.056,2.576,2.984
				c0.307,0.263,0.612,0.524,0.903,0.791c0.824,0.728,1.461,1.374,1.99,2.02c0.077,0.09,0.144,0.189,0.2,0.295
				c0.035,0.033,0.068,0.069,0.099,0.108c1.978,2.506,2.29,5.614,2.204,7.781c-0.091,2.528-0.303,5.442-1.686,7.969
				c-0.96,1.809-2.753,3.02-4.674,3.15c-1.233,0.047-5.123,0.087-5.288,0.089c-0.254-0.013-0.522-0.101-0.713-0.288
				c-0.189-0.187-0.297-0.441-0.298-0.708l-0.011-2.208c-0.002-0.147-0.031-3.301,0.03-5.497c-0.77,0.862-1.619,1.73-2.563,2.617
				c-2.304,2.135-4.672,3.91-7.045,5.279c-1.295,0.729-2.838,1.519-4.531,1.889C55.692,48.387,55.497,48.413,55.303,48.413z
				 M71.408,32.439c-0.854,1.632-2.004,3.049-3.123,4.34c-2.072,2.327-4.442,4.424-7.054,6.242
				c-1.723,1.161-3.741,2.435-6.063,2.955c-0.011,0.002-0.048,0.027-0.077,0.089c-0.035,0.073-0.034,0.144-0.022,0.168
				c0.056,0.136,0.203,0.196,0.326,0.16c1.498-0.33,2.874-1.037,4.03-1.688c2.234-1.29,4.481-2.975,6.671-5.003
				c1.677-1.577,3.041-3.085,4.164-4.607c0.251-0.341,0.69-0.484,1.094-0.364c0.404,0.123,0.688,0.486,0.71,0.908l0.023,0.579
				c0.011,0.267-0.013,0.511-0.04,0.753c-0.023,0.207-0.046,0.403-0.018,0.522c0.021,0.09,0.028,0.183,0.024,0.275
				c-0.101,2.045-0.061,6.219-0.061,6.261l0.006,1.206c1.272-0.015,3.394-0.044,4.199-0.075c1.187-0.081,2.384-0.907,3.019-2.102
				c1.178-2.155,1.364-4.792,1.447-7.096c0.068-1.738-0.152-4.171-1.538-6.146c-0.053-0.024-0.103-0.054-0.151-0.088
				c-0.223-0.158-0.369-0.398-0.41-0.665c-0.461-0.552-1.011-1.104-1.732-1.742c-0.288-0.264-0.577-0.51-0.867-0.758
				c-1.195-1.023-2.551-2.182-3.181-3.887c-0.02-0.054-0.035-0.109-0.045-0.166c-0.804-4.389-2.353-8.208-4.604-11.352
				c-1.955-2.747-4.534-4.997-7.46-6.51c-0.004-0.002-0.008-0.004-0.012-0.006c-0.037,0-0.072,0-0.109,0.001
				c-0.333-0.026-0.654-0.151-0.844-0.413c-0.013-0.018-0.025-0.036-0.037-0.055c-0.545-0.285-1.145-0.502-1.771-0.729
				c-3.673-1.287-7.74-1.702-12.165-1.259c-3.24,0.365-6.201,1.267-8.789,2.68c-2.217,1.234-4.165,2.819-5.782,4.706
				c-2.807,3.248-4.791,7.529-5.739,12.384c-0.138,1.295-0.998,2.361-1.905,3.308c-0.535,0.522-1.076,0.992-1.617,1.461
				c-1.068,0.926-2.076,1.801-2.834,2.883c-1.427,1.94-1.703,4.234-1.685,5.819c0.024,1.896,0.141,4.115,0.818,6.183
				c0.399,1.186,0.924,2.059,1.601,2.661c0.638,0.57,1.525,0.899,2.437,0.905h3.805v-6.139c-0.001-3.741-0.003-7.482,0.006-11.223
				c0.065-5.222,1.85-10.325,5.026-14.38c2.984-3.845,7.156-6.685,11.746-7.992c4.232-1.227,8.874-1.155,13.063,0.2l0.241,0.083
				c0.245,0.085,0.476,0.165,0.675,0.19c0.099,0.012,0.195,0.039,0.286,0.08l0.374,0.168C57.5,6.181,57.536,6.199,57.57,6.22
				c0.254,0.151,0.524,0.268,0.795,0.387c0.273,0.121,0.546,0.243,0.81,0.386c5.501,2.756,9.764,7.773,11.666,13.749
				c0.83,2.518,1.225,5.339,1.169,8.377c0.012,0.764,0.007,1.562,0.001,2.359c-0.002,0.324-0.161,0.627-0.427,0.813
				C71.519,32.336,71.461,32.385,71.408,32.439z"/>
		</g>
		<g>
			<linearGradient id="SVGID_6_" gradientUnits="userSpaceOnUse" x1="45.3909" y1="49.3957" x2="52.3252" y2="42.4614">
				<stop  offset="0" style="stop-color:#0B6A74"/>
				<stop  offset="1" style="stop-color:#36A7AF"/>
			</linearGradient>
			<path style="fill:url(#SVGID_6_);" d="M52.166,42.871c-2.297,0.011-4.596-0.023-6.892,0.017
				c-0.585,0.082-1.028,0.653-1.005,1.236c-0.001,1.229-0.007,2.46,0.003,3.691c0.003,0.658,0.616,1.215,1.27,1.18
				c2.204,0.001,4.409,0,6.612,0.001c0.668,0.047,1.301-0.529,1.291-1.203c0.006-1.224,0-2.448,0.003-3.673
				C53.488,43.438,52.854,42.808,52.166,42.871z"/>
			<path style="fill:#0C838B;" d="M52.23,50c-0.049,0-0.098-0.002-0.146-0.005l-3.236,0.002l-3.307-0.001
				c-0.541,0.029-1.131-0.192-1.577-0.613c-0.438-0.414-0.691-0.983-0.693-1.563c-0.008-0.966-0.006-1.937-0.004-2.907l0.001-0.789
				c-0.042-1.079,0.777-2.074,1.867-2.226c0.04-0.006,0.081-0.009,0.121-0.01c1.43-0.025,2.859-0.021,4.291-0.017
				c0.859,0.002,1.719,0.005,2.577,0c0.597-0.037,1.192,0.184,1.643,0.619c0.468,0.452,0.716,1.067,0.68,1.689l0.001,1.575
				l-0.002,2.044c0.009,0.575-0.244,1.159-0.693,1.583C53.334,49.779,52.785,50,52.23,50z M48.848,47.997l3.306,0
				c0.113,0.005,0.177-0.023,0.225-0.068c0.041-0.039,0.068-0.087,0.067-0.12l0.003-3.689c0.003-0.086-0.021-0.143-0.071-0.191
				c-0.044-0.042-0.059-0.063-0.12-0.062c-0.028,0.003-0.058,0.004-0.087,0.004c-0.874,0.004-1.751,0.002-2.628,0
				c-1.384-0.003-2.77-0.007-4.154,0.015c-0.054,0.028-0.124,0.12-0.121,0.2l-0.001,0.831c-0.002,0.963-0.003,1.927,0.004,2.891
				c0,0.032,0.021,0.078,0.066,0.121c0.046,0.043,0.113,0.072,0.15,0.069L48.848,47.997z"/>
		</g>
	</g>
	<linearGradient id="SVGID_7_" gradientUnits="userSpaceOnUse" x1="71.0561" y1="39.5795" x2="78.7375" y2="31.8982">
		<stop  offset="0" style="stop-color:#FFFFFF;stop-opacity:0"/>
		<stop  offset="1" style="stop-color:#FFFFFF;stop-opacity:0.5"/>
	</linearGradient>
	<path style="fill:url(#SVGID_7_);" d="M74.343,28.611v14.256c2.276,0,4.121-3.191,4.121-7.128S76.619,28.611,74.343,28.611z"/>
	
		<linearGradient id="SVGID_8_" gradientUnits="userSpaceOnUse" x1="200.1422" y1="40.1905" x2="192.4608" y2="32.5091" gradientTransform="matrix(-1 0 0 1 219.3292 0)">
		<stop  offset="0" style="stop-color:#FFFFFF;stop-opacity:0"/>
		<stop  offset="1" style="stop-color:#FFFFFF;stop-opacity:0.5"/>
	</linearGradient>
	<path style="fill:url(#SVGID_8_);" d="M23.581,29.222v14.256c-2.276,0-4.121-3.191-4.121-7.128S21.305,29.222,23.581,29.222z"/>
</g>
</svg>
