<?xml version="1.0" encoding="iso-8859-1"?>

<svg version="1.1" xmlns="http://www.w3.org/2000/svg" xmlns:xlink="http://www.w3.org/1999/xlink" x="0px" y="0px"
	 viewBox="0 0 97 97" style="enable-background:new 0 0 97 97;" xml:space="preserve">
<g id="Capa_1">
	<g>
		
			<path style="fill:none;stroke:#028189;stroke-width:8;stroke-linecap:round;stroke-linejoin:round;stroke-miterlimit:22.9256;" d="
			M91.981,39.279L44.683,86.403c-7.635,7.458-21.827,9.333-29.343,1.754l0,0c-8.79-8.863-6.658-23.204,2.329-31.867L66.626,7.193
			c4.495-4.334,11.64-4.245,16.027,0.199l3.639,3.687c3.975,4.028,3.98,10.501,0.01,14.534L36.598,76.108
			c-2.738,2.782-7.219,2.8-9.979,0.039l0,0c-2.662-2.662-2.625-6.989,0.082-9.605l31.778-30.711"/>
		<linearGradient id="SVGID_1_" gradientUnits="userSpaceOnUse" x1="8.7346" y1="48.5" x2="92.9809" y2="48.5">
			<stop  offset="0" style="stop-color:#32A5AE"/>
			<stop  offset="1" style="stop-color:#FFFFFF"/>
		</linearGradient>
		
			<path style="opacity:0.75;fill:none;stroke:url(#SVGID_1_);stroke-width:2;stroke-linecap:round;stroke-linejoin:round;stroke-miterlimit:22.9256;" d="
			M91.981,39.279L44.683,86.403c-7.635,7.458-21.827,9.333-29.343,1.754l0,0c-8.79-8.863-6.658-23.204,2.329-31.867L66.626,7.193
			c4.495-4.334,11.64-4.245,16.027,0.199l3.639,3.687c3.975,4.028,3.98,10.501,0.01,14.534L36.598,76.108
			c-2.738,2.782-7.219,2.8-9.979,0.039l0,0c-2.662-2.662-2.625-6.989,0.082-9.605l31.778-30.711"/>
	</g>
</g>
<g id="Capa_2">
	
		<radialGradient id="SVGID_2_" cx="663.4437" cy="-93.0686" r="132.9735" gradientTransform="matrix(0.1462 0 0 0.1462 -64.0191 46.1099)" gradientUnits="userSpaceOnUse">
		<stop  offset="0.6798" style="stop-color:#F9BD72"/>
		<stop  offset="0.8142" style="stop-color:#F9BE74"/>
		<stop  offset="0.8626" style="stop-color:#F9C17B"/>
		<stop  offset="0.8971" style="stop-color:#FAC786"/>
		<stop  offset="0.925" style="stop-color:#FBCE97"/>
		<stop  offset="0.9489" style="stop-color:#FCD9AD"/>
		<stop  offset="0.9701" style="stop-color:#FDE6C9"/>
		<stop  offset="0.9888" style="stop-color:#FEF4E8"/>
		<stop  offset="1" style="stop-color:#FFFFFF"/>
	</radialGradient>
	
		<line style="fill:url(#SVGID_2_);stroke:#E89613;stroke-width:10;stroke-linecap:round;stroke-linejoin:round;stroke-miterlimit:10;" x1="33" y1="5" x2="33" y2="60"/>
	
		<radialGradient id="SVGID_3_" cx="666.5989" cy="-93.6568" r="131.8261" gradientTransform="matrix(0.1462 0 0 0.1462 -64.0191 46.1099)" gradientUnits="userSpaceOnUse">
		<stop  offset="0.6798" style="stop-color:#F9BD72"/>
		<stop  offset="0.8142" style="stop-color:#F9BE74"/>
		<stop  offset="0.8626" style="stop-color:#F9C17B"/>
		<stop  offset="0.8971" style="stop-color:#FAC786"/>
		<stop  offset="0.925" style="stop-color:#FBCE97"/>
		<stop  offset="0.9489" style="stop-color:#FCD9AD"/>
		<stop  offset="0.9701" style="stop-color:#FDE6C9"/>
		<stop  offset="0.9888" style="stop-color:#FEF4E8"/>
		<stop  offset="1" style="stop-color:#FFFFFF"/>
	</radialGradient>
	
		<line style="fill:url(#SVGID_3_);stroke:#E89613;stroke-width:10.2268;stroke-linecap:round;stroke-linejoin:round;stroke-miterlimit:10;" x1="14.184" y1="13.136" x2="52.739" y2="51.692"/>
	
		<radialGradient id="SVGID_4_" cx="665.5809" cy="-94.6748" r="131.8261" gradientTransform="matrix(0.1462 0 0 0.1462 -64.0191 46.1099)" gradientUnits="userSpaceOnUse">
		<stop  offset="0.6798" style="stop-color:#F9BD72"/>
		<stop  offset="0.8142" style="stop-color:#F9BE74"/>
		<stop  offset="0.8626" style="stop-color:#F9C17B"/>
		<stop  offset="0.8971" style="stop-color:#FAC786"/>
		<stop  offset="0.925" style="stop-color:#FBCE97"/>
		<stop  offset="0.9489" style="stop-color:#FCD9AD"/>
		<stop  offset="0.9701" style="stop-color:#FDE6C9"/>
		<stop  offset="0.9888" style="stop-color:#FEF4E8"/>
		<stop  offset="1" style="stop-color:#FFFFFF"/>
	</radialGradient>
	
		<line style="fill:url(#SVGID_4_);stroke:#E89613;stroke-width:10.2268;stroke-linecap:round;stroke-linejoin:round;stroke-miterlimit:10;" x1="14.035" y1="51.543" x2="52.59" y2="12.987"/>
	
		<radialGradient id="SVGID_5_" cx="660.0245" cy="-103.326" r="132.9733" gradientTransform="matrix(0.1462 0 0 0.1462 -64.0191 46.1099)" gradientUnits="userSpaceOnUse">
		<stop  offset="0.6798" style="stop-color:#F9BD72"/>
		<stop  offset="0.8142" style="stop-color:#F9BE74"/>
		<stop  offset="0.8626" style="stop-color:#F9C17B"/>
		<stop  offset="0.8971" style="stop-color:#FAC786"/>
		<stop  offset="0.925" style="stop-color:#FBCE97"/>
		<stop  offset="0.9489" style="stop-color:#FCD9AD"/>
		<stop  offset="0.9701" style="stop-color:#FDE6C9"/>
		<stop  offset="0.9888" style="stop-color:#FEF4E8"/>
		<stop  offset="1" style="stop-color:#FFFFFF"/>
	</radialGradient>
	
		<line style="fill:url(#SVGID_5_);stroke:#E89613;stroke-width:10;stroke-linecap:round;stroke-linejoin:round;stroke-miterlimit:10;" x1="5" y1="31" x2="60" y2="31"/>
	
		<line style="fill:none;stroke:#FFFFFF;stroke-width:2;stroke-linecap:round;stroke-linejoin:round;stroke-miterlimit:10;" x1="33" y1="5" x2="33" y2="60"/>
	
		<line style="fill:none;stroke:#FFFFFF;stroke-width:2;stroke-linecap:round;stroke-linejoin:round;stroke-miterlimit:10;" x1="14.038" y1="13.222" x2="52.594" y2="51.778"/>
	
		<line style="fill:none;stroke:#FFFFFF;stroke-width:2;stroke-linecap:round;stroke-linejoin:round;stroke-miterlimit:10;" x1="13.889" y1="51.629" x2="52.445" y2="13.073"/>
	
		<line style="fill:none;stroke:#FFFFFF;stroke-width:2;stroke-linecap:round;stroke-linejoin:round;stroke-miterlimit:10;" x1="5" y1="31" x2="60" y2="31"/>
</g>
</svg>
