<?xml version="1.0" encoding="iso-8859-1"?>

<svg version="1.1" id="Capa_1" xmlns="http://www.w3.org/2000/svg" xmlns:xlink="http://www.w3.org/1999/xlink" x="0px" y="0px"
	 viewBox="0 0 97 97" style="enable-background:new 0 0 97 97;" xml:space="preserve">
<g>
	<g id="star">
		
			<linearGradient id="SVGID_1_" gradientUnits="userSpaceOnUse" x1="18.0003" y1="-10.1973" x2="-55.4873" y2="-55.5665" gradientTransform="matrix(1 -0.2 -0.2 -1 62 18.6)">
			<stop  offset="0.1886" style="stop-color:#FBD19E"/>
			<stop  offset="0.2533" style="stop-color:#F9C584"/>
			<stop  offset="0.366" style="stop-color:#F6B25C"/>
			<stop  offset="0.4824" style="stop-color:#F4A23B"/>
			<stop  offset="0.6015" style="stop-color:#F29621"/>
			<stop  offset="0.7246" style="stop-color:#F18E0F"/>
			<stop  offset="0.8539" style="stop-color:#F08905"/>
			<stop  offset="1" style="stop-color:#F08701"/>
		</linearGradient>
		<path style="fill:url(#SVGID_1_);" d="M48.903,76.54c-0.142-0.071-0.295-0.106-0.449-0.106c-0.153,0-0.306,0.035-0.447,0.105
			L19.801,90.636l5.406-29.846c0.061-0.336-0.053-0.679-0.302-0.91L2.223,38.756l31.431-4.32c0.322-0.044,0.602-0.242,0.751-0.53
			L48.537,6.687l14.067,27.249c0.149,0.289,0.429,0.487,0.75,0.532l31.421,4.387L72.044,59.93c-0.25,0.231-0.364,0.574-0.305,0.909
			l5.336,29.859L48.903,76.54z"/>
		<path style="fill:#028189;" d="M48.534,8.862l13.181,25.533c0.298,0.577,0.857,0.974,1.501,1.063l29.334,4.095L71.364,59.197
			c-0.499,0.463-0.729,1.148-0.609,1.818l4.984,27.892L49.352,75.646c-0.283-0.142-0.59-0.213-0.898-0.213
			c-0.306,0-0.613,0.07-0.894,0.211L21.142,88.849l5.05-27.88c0.121-0.67-0.107-1.356-0.605-1.82L4.446,39.46l29.344-4.033
			c0.643-0.088,1.204-0.484,1.503-1.06L48.534,8.862 M48.54,4.512L33.518,33.445L0,38.052l24.224,22.56l-5.762,31.812l29.992-14.991
			l29.957,15.055l-5.687-31.825L97,38.155l-33.507-4.678L48.54,4.512L48.54,4.512z"/>
	</g>
	<g id="ol" style="enable-background:new    ;">
		<path style="fill:#FFFFFF;" d="M48.522,14.33l11.496,22.247c0.336,0.65,0.967,1.097,1.692,1.198l25.251,3.532L68.762,58.204
			c-0.562,0.522-0.821,1.294-0.686,2.049l4.308,24.165l-22.922-11.52c-0.319-0.16-0.666-0.24-1.013-0.24
			c-0.345,0-0.691,0.079-1.008,0.238L24.518,84.35l4.347-24.152c0.136-0.755-0.121-1.526-0.682-2.049L10.034,41.224l25.249-3.465
			c0.726-0.1,1.358-0.545,1.695-1.195L48.522,14.33 M48.526,9.426l-13.55,26.099L5.023,39.635l21.622,20.163l-5.144,28.581
			l26.948-13.465l26.947,13.543l-5.098-28.599l21.677-20.126l-29.952-4.19L48.526,9.426L48.526,9.426z"/>
	</g>
</g>
</svg>
