<?xml version="1.0" encoding="iso-8859-1"?>

<svg version="1.1" id="Capa_1" xmlns="http://www.w3.org/2000/svg" xmlns:xlink="http://www.w3.org/1999/xlink" x="0px" y="0px"
	 viewBox="0 0 97 97" style="enable-background:new 0 0 97 97;" xml:space="preserve">
<g>
	<path style="fill:none;stroke:#028189;stroke-width:8;stroke-linecap:round;stroke-linejoin:round;stroke-miterlimit:22.9256;" d="
		M89.623,39.279L42.325,86.403c-7.635,7.458-21.827,9.333-29.343,1.754l0,0c-8.79-8.863-6.658-23.204,2.329-31.867L64.268,7.193
		c4.495-4.334,11.64-4.245,16.027,0.199l3.639,3.687c3.975,4.028,3.98,10.501,0.01,14.534L34.24,76.108
		c-2.738,2.782-7.219,2.8-9.979,0.039l0,0c-2.662-2.662-2.625-6.989,0.082-9.605l31.778-30.711"/>
	<linearGradient id="SVGID_1_" gradientUnits="userSpaceOnUse" x1="6.3769" y1="48.5" x2="90.6231" y2="48.5">
		<stop  offset="0" style="stop-color:#32A5AE"/>
		<stop  offset="1" style="stop-color:#FFFFFF"/>
	</linearGradient>
	
		<path style="opacity:0.75;fill:none;stroke:url(#SVGID_1_);stroke-width:2;stroke-linecap:round;stroke-linejoin:round;stroke-miterlimit:22.9256;" d="
		M89.623,39.279L42.325,86.403c-7.635,7.458-21.827,9.333-29.343,1.754l0,0c-8.79-8.863-6.658-23.204,2.329-31.867L64.268,7.193
		c4.495-4.334,11.64-4.245,16.027,0.199l3.639,3.687c3.975,4.028,3.98,10.501,0.01,14.534L34.24,76.108
		c-2.738,2.782-7.219,2.8-9.979,0.039l0,0c-2.662-2.662-2.625-6.989,0.082-9.605l31.778-30.711"/>
</g>
</svg>
