<?xml version="1.0" encoding="iso-8859-1"?>
<!-- Generator: Adobe Illustrator 19.0.0, SVG Export Plug-In . SVG Version: 6.00 Build 0)  -->
<svg version="1.1" id="Capa_1" xmlns="http://www.w3.org/2000/svg" xmlns:xlink="http://www.w3.org/1999/xlink" x="0px" y="0px"
	 viewBox="0 0 97 97" style="enable-background:new 0 0 97 97;" xml:space="preserve">
<g>
	<linearGradient id="SVGID_1_" gradientUnits="userSpaceOnUse" x1="85.399" y1="18.6198" x2="11.601" y2="78.3802">
		<stop  offset="0" style="stop-color:#FBD19E"/>
		<stop  offset="0.0229" style="stop-color:#FACC94"/>
		<stop  offset="0.1209" style="stop-color:#F8BA6D"/>
		<stop  offset="0.226" style="stop-color:#F5AA4B"/>
		<stop  offset="0.3379" style="stop-color:#F39D30"/>
		<stop  offset="0.459" style="stop-color:#F2931B"/>
		<stop  offset="0.5938" style="stop-color:#F18C0C"/>
		<stop  offset="0.7533" style="stop-color:#F08804"/>
		<stop  offset="1" style="stop-color:#F08701"/>
	</linearGradient>
	<path style="fill:url(#SVGID_1_);" d="M48.5,96C22.309,96,1,74.691,1,48.5S22.309,1,48.5,1S96,22.309,96,48.5S74.691,96,48.5,96z"
		/>
	<g>
		<path style="fill:#028189;" d="M48.5,2C74.14,2,95,22.86,95,48.5S74.14,95,48.5,95S2,74.14,2,48.5S22.86,2,48.5,2 M48.5,0
			C21.714,0,0,21.714,0,48.5S21.714,97,48.5,97S97,75.286,97,48.5S75.286,0,48.5,0L48.5,0z"/>
	</g>
</g>
<g>
	<path style="fill:#FFFFFF;" d="M39.67,56.635v-3.133c0-2.379,0.485-4.389,1.457-6.028c0.971-1.639,2.695-3.236,5.172-4.791
		c1.968-1.238,3.382-2.355,4.244-3.351c0.861-0.996,1.293-2.137,1.293-3.424c0-1.02-0.461-1.827-1.384-2.422
		c-0.924-0.595-2.125-0.892-3.606-0.892c-3.667,0-7.953,1.299-12.858,3.897l-5.063-9.908c6.047-3.448,12.36-5.172,18.941-5.172
		c5.415,0,9.665,1.19,12.75,3.57c3.083,2.38,4.626,5.622,4.626,9.726c0,2.938-0.687,5.482-2.059,7.631
		c-1.372,2.149-3.563,4.183-6.574,6.102c-2.55,1.651-4.147,2.859-4.79,3.625c-0.645,0.764-0.966,1.67-0.966,2.713v1.857H39.67z
		 M38.104,69.385c0-2.234,0.649-3.958,1.948-5.173c1.299-1.214,3.212-1.821,5.737-1.821c2.429,0,4.292,0.613,5.592,1.84
		c1.299,1.227,1.949,2.945,1.949,5.154c0,2.21-0.675,3.922-2.022,5.137c-1.348,1.213-3.187,1.82-5.519,1.82
		c-2.404,0-4.286-0.601-5.646-1.803C38.783,73.337,38.104,71.619,38.104,69.385z"/>
</g>
</svg>
