<?xml version="1.0" encoding="iso-8859-1"?>

<svg version="1.1" xmlns="http://www.w3.org/2000/svg" xmlns:xlink="http://www.w3.org/1999/xlink" x="0px" y="0px"
	 viewBox="0 0 97 97" style="enable-background:new 0 0 97 97;" xml:space="preserve">
<g id="Capa_1">
	<g>
		<g id="XMLID_49_">
			<linearGradient id="XMLID_3_" gradientUnits="userSpaceOnUse" x1="1.0128" y1="48.5" x2="95.989" y2="48.5">
				<stop  offset="0" style="stop-color:#036973"/>
				<stop  offset="1" style="stop-color:#32A5AE"/>
			</linearGradient>
			<path id="XMLID_50_" style="fill:url(#XMLID_3_);" d="M25.744,96c-6.609,0-12.824-2.573-17.498-7.245
				c-9.645-9.648-9.645-25.348,0-34.996L26.45,35.555c4.674-4.674,10.888-7.248,17.499-7.248c6.61,0,12.824,2.574,17.496,7.248
				c1.206,1.204,2.283,2.593,3.356,4.333l-7.907,7.905c-0.038,0.038-0.078,0.074-0.12,0.109c-0.697-1.789-1.709-3.352-3.017-4.66
				c-2.616-2.618-6.099-4.06-9.807-4.06c-3.708,0-7.192,1.442-9.81,4.06L15.934,61.445c-5.407,5.409-5.407,14.213,0,19.624
				c2.617,2.615,6.101,4.055,9.811,4.055s7.193-1.439,9.81-4.055l6.022-6.024c3.592,1.314,7.389,1.979,11.297,1.979
				c0.721,0,1.445-0.023,2.17-0.069l-11.801,11.8C38.568,93.427,32.354,96,25.744,96z M53.051,68.694
				c-6.61,0-12.824-2.574-17.497-7.249c-1.183-1.18-2.26-2.568-3.355-4.333l7.906-7.905c0.039-0.039,0.08-0.076,0.123-0.112
				c0.694,1.788,1.705,3.353,3.015,4.663c2.614,2.616,6.097,4.058,9.806,4.058c3.71,0,7.194-1.441,9.811-4.058l18.203-18.203
				c2.618-2.618,4.061-6.103,4.061-9.812c0-3.709-1.442-7.193-4.061-9.809c-2.614-2.616-6.097-4.057-9.806-4.057
				s-7.193,1.44-9.812,4.057l-6.017,6.024c-3.591-1.315-7.39-1.981-11.303-1.981c-0.719,0-1.442,0.023-2.166,0.069L53.758,8.248
				C58.433,3.574,64.646,1,71.256,1S84.08,3.574,88.755,8.248c9.646,9.648,9.646,25.347,0,34.995L70.546,61.445
				C65.873,66.12,59.66,68.694,53.051,68.694z"/>
		</g>
		<g id="XMLID_42_">
			<path id="XMLID_43_" style="fill:#028189;" d="M71.256,2c6.342,0,12.306,2.47,16.791,6.955c9.256,9.258,9.256,24.323,0,33.581
				l-18.21,18.204c-4.483,4.485-10.445,6.956-16.787,6.956c-6.343,0-12.305-2.47-16.791-6.958c-0.974-0.971-1.877-2.099-2.785-3.484
				l6.429-6.429c0.687,1.359,1.567,2.577,2.631,3.641c2.804,2.806,6.537,4.351,10.514,4.351c3.977,0,7.712-1.545,10.518-4.35
				l18.203-18.203c2.807-2.807,4.353-6.543,4.353-10.519c0-3.977-1.546-7.711-4.353-10.516c-2.804-2.805-6.538-4.35-10.514-4.35
				c-3.976,0-7.711,1.545-10.519,4.351l-5.57,5.576c-3.424-1.179-7.025-1.793-10.726-1.826L54.464,8.955
				C58.95,4.47,64.914,2,71.256,2 M43.949,29.308c6.343,0,12.305,2.47,16.79,6.956c0.993,0.991,1.897,2.118,2.789,3.484
				l-6.431,6.429c-0.689-1.36-1.569-2.578-2.631-3.64c-2.805-2.807-6.539-4.353-10.515-4.353c-3.975,0-7.71,1.546-10.517,4.352
				L15.227,60.739C9.43,66.537,9.43,75.974,15.228,81.777c2.805,2.803,6.54,4.347,10.517,4.347c3.977,0,7.711-1.544,10.517-4.348
				l5.575-5.577c3.426,1.179,7.026,1.792,10.724,1.824L42.535,88.048C38.05,92.531,32.087,95,25.744,95
				c-6.343,0-12.306-2.469-16.79-6.952c-9.255-9.258-9.255-24.323,0-33.582l18.203-18.203
				C31.642,31.777,37.605,29.308,43.949,29.308 M71.256,0C64.667,0,58.078,2.513,53.05,7.54L39.257,21.334
				c1.615-0.237,3.242-0.357,4.868-0.357c3.923,0,7.84,0.699,11.554,2.145l6.473-6.48c2.511-2.509,5.808-3.764,9.104-3.764
				s6.591,1.255,9.1,3.764c5.023,5.019,5.023,13.184,0,18.206L62.151,53.05c-2.509,2.509-5.806,3.765-9.103,3.765
				c-3.295,0-6.59-1.254-9.099-3.765c-1.572-1.572-2.593-3.464-3.178-5.462c-0.475,0.274-0.971,0.506-1.373,0.912l-8.461,8.46
				c1.088,1.835,2.326,3.614,3.91,5.192c5.026,5.028,11.615,7.542,18.203,7.542s13.177-2.514,18.202-7.542l18.209-18.203
				c10.051-10.053,10.051-26.355,0-36.409C84.434,2.513,77.845,0,71.256,0L71.256,0z M43.949,27.308
				c-6.589,0-13.179,2.514-18.206,7.541L7.54,53.052c-10.053,10.057-10.053,26.354,0,36.411C12.567,94.487,19.156,97,25.744,97
				s13.178-2.513,18.205-7.538l13.797-13.796c-1.617,0.238-3.247,0.359-4.875,0.359c-3.923,0-7.838-0.7-11.547-2.143l-6.478,6.48
				c-2.509,2.508-5.806,3.762-9.102,3.762s-6.593-1.254-9.103-3.762c-5.019-5.023-5.019-13.188,0-18.209l18.206-18.203
				c2.511-2.511,5.807-3.767,9.103-3.767c3.296,0,6.591,1.256,9.1,3.767c1.568,1.568,2.59,3.46,3.181,5.456
				c0.477-0.277,0.968-0.503,1.37-0.905l8.46-8.457c-1.081-1.842-2.326-3.614-3.91-5.195C57.126,29.821,50.538,27.308,43.949,27.308
				L43.949,27.308z M57.746,75.666h0.005H57.746z"/>
		</g>
	</g>
</g>
<g id="Capa_2">
	<linearGradient id="XMLID_4_" gradientUnits="userSpaceOnUse" x1="95.6735" y1="-4.4133" x2="81.9855" y2="14.8393">
		<stop  offset="0" style="stop-color:#FFFFFF"/>
		<stop  offset="1" style="stop-color:#FFFFFF;stop-opacity:0"/>
	</linearGradient>
	<path id="XMLID_1_" style="fill:url(#XMLID_4_);" d="M91.909,29.049c-0.27,0-0.543-0.055-0.806-0.17
		c-1.011-0.446-1.469-1.626-1.023-2.637c1.332-3.021-0.289-8.431-3.855-12.862c-4.214-5.236-9.935-7.712-15.308-6.625
		c-1.081,0.215-2.138-0.481-2.356-1.563c-0.22-1.083,0.48-2.138,1.563-2.357c6.867-1.39,14.048,1.616,19.217,8.038
		c4.594,5.708,6.361,12.533,4.399,16.983C93.41,28.604,92.678,29.049,91.909,29.049z"/>
	
		<linearGradient id="SVGID_1_" gradientUnits="userSpaceOnUse" x1="63.7081" y1="18.2698" x2="50.0201" y2="37.5224" gradientTransform="matrix(0.7744 -0.6327 0.6327 0.7744 -16.5796 39.9258)">
		<stop  offset="0" style="stop-color:#FFFFFF"/>
		<stop  offset="1" style="stop-color:#FFFFFF;stop-opacity:0"/>
	</linearGradient>
	<path style="fill:url(#SVGID_1_);" d="M62.572,42.064c-0.209,0.171-0.455,0.301-0.732,0.378c-1.065,0.294-2.166-0.33-2.461-1.394
		c-0.88-3.183-5.558-6.346-11.123-7.521c-6.576-1.389-12.573,0.313-16.046,4.555c-0.701,0.851-1.96,0.98-2.814,0.28
		c-0.855-0.699-0.981-1.96-0.281-2.815c4.439-5.421,11.901-7.636,19.967-5.934c7.168,1.514,12.855,5.681,14.152,10.368
		C63.452,40.769,63.167,41.577,62.572,42.064z"/>
</g>
</svg>
