<?xml version="1.0" encoding="iso-8859-1"?>

<svg version="1.1" id="Capa_1" xmlns="http://www.w3.org/2000/svg" xmlns:xlink="http://www.w3.org/1999/xlink" x="0px" y="0px"
	 viewBox="0 0 97 97" style="enable-background:new 0 0 97 97;" xml:space="preserve">
<g>
	<linearGradient id="SVGID_1_" gradientUnits="userSpaceOnUse" x1="-10.5378" y1="77.5378" x2="48.9682" y2="18.0318">
		<stop  offset="0" style="stop-color:#038890"/>
		<stop  offset="0.1049" style="stop-color:#349FA6"/>
		<stop  offset="0.2345" style="stop-color:#69B8BD"/>
		<stop  offset="0.3658" style="stop-color:#97CED1"/>
		<stop  offset="0.4961" style="stop-color:#BCE0E2"/>
		<stop  offset="0.6254" style="stop-color:#DAEDEF"/>
		<stop  offset="0.7531" style="stop-color:#EEF7F8"/>
		<stop  offset="0.8788" style="stop-color:#FBFDFD"/>
		<stop  offset="1" style="stop-color:#FFFFFF"/>
	</linearGradient>
	<path style="fill:url(#SVGID_1_);" d="M66,56.621C66,61.801,61.801,66,56.621,66H10.379C5.199,66,1,61.801,1,56.621V10.379
		C1,5.199,5.199,1,10.379,1h46.242C61.801,1,66,5.199,66,10.379V56.621z"/>
	<path style="fill:#028189;" d="M55.811,2C60.431,2,64,5.759,64,10.379v45.742C64,60.741,60.741,65,56.121,65H10.379
		C5.759,65,2,60.741,2,56.121V10.379C2,5.759,5.759,2,10.379,2H56 M56.121,0H10.379C4.67,0,0,4.67,0,10.379v45.742
		C0,61.83,4.67,67,10.379,67h45.742C61.83,67,66,61.83,66,56.121V10.379C66,4.67,61.58,0,55.871,0H56.121z"/>
</g>
<g>
	<path style="fill:#FFFFFF;" d="M59,52.533C59,57.209,55.209,61,50.533,61H13.467C8.791,61,5,57.209,5,52.533V15.467
		C5,10.791,8.791,7,13.467,7h37.066C55.209,7,59,10.791,59,15.467V52.533z"/>
</g>
<path style="fill:#016F72;stroke:#016F72;stroke-width:2;stroke-miterlimit:10;" d="M43.168,45.422l-7.001-6.919l0.083,0.207
	C41.045,33.363,44.463,27,46.475,21H55v-6H35v-5h-6v5H11v6h30.238c-1.847,5-4.769,10.094-8.738,14.504
	C29.937,32.665,27.814,29,26.133,26H20.62c2.012,5,4.769,8.705,8.214,12.536l-14.03,13.821l3.914,3.906L32.5,42.477l8.572,8.57
	L43.168,45.422z"/>
<g>
	<linearGradient id="SVGID_2_" gradientUnits="userSpaceOnUse" x1="21.3094" y1="106.6906" x2="80.8154" y2="47.1846">
		<stop  offset="0" style="stop-color:#038890"/>
		<stop  offset="0.1049" style="stop-color:#349FA6"/>
		<stop  offset="0.2345" style="stop-color:#69B8BD"/>
		<stop  offset="0.3658" style="stop-color:#97CED1"/>
		<stop  offset="0.4961" style="stop-color:#BCE0E2"/>
		<stop  offset="0.6254" style="stop-color:#DAEDEF"/>
		<stop  offset="0.7531" style="stop-color:#EEF7F8"/>
		<stop  offset="0.8788" style="stop-color:#FBFDFD"/>
		<stop  offset="1" style="stop-color:#FFFFFF"/>
	</linearGradient>
	<path style="fill:url(#SVGID_2_);" d="M96,87.621C96,92.801,91.801,97,86.621,97H40.379C35.199,97,31,92.801,31,87.621V41.379
		C31,36.199,35.199,32,40.379,32h46.242C91.801,32,96,36.199,96,41.379V87.621z"/>
	<path style="fill:#028189;" d="M86.621,33C91.241,33,95,36.259,95,40.879v45.742C95,91.241,91.241,95,86.621,95H40.879
		C36.259,95,32,91.241,32,86.621V40.879C32,36.259,36.259,33,40.879,33H87 M86.621,31H40.879C35.17,31,30,35.17,30,40.879v45.742
		C30,92.33,35.17,97,40.879,97h45.742C92.33,97,97,92.33,97,86.621V40.879C97,35.17,92.33,31,86.621,31L86.621,31z"/>
</g>
<g>
	<path style="fill:#FFFFFF;" d="M90,82.533C90,87.209,86.209,91,81.533,91H44.467C39.791,91,36,87.209,36,82.533V45.467
		C36,40.791,39.791,37,44.467,37h37.066C86.209,37,90,40.791,90,45.467V82.533z"/>
</g>
<path style="fill:#016F72;stroke:#016F72;stroke-width:2;stroke-miterlimit:10;" d="M66.988,42h-7.381L43,86h7.381l4.133-12h17.53
	l4.17,12h7.381L66.988,42z M57.319,68l5.979-15.98L69.276,68H57.319z"/>
</svg>
