<?xml version="1.0" encoding="iso-8859-1"?>

<svg version="1.1" xmlns="http://www.w3.org/2000/svg" xmlns:xlink="http://www.w3.org/1999/xlink" x="0px" y="0px"
	 viewBox="0 0 97 97" style="enable-background:new 0 0 97 97;" xml:space="preserve">
<g id="Capa_1">
	<g id="XMLID_9_">
		<linearGradient id="XMLID_2_" gradientUnits="userSpaceOnUse" x1="-15.5789" y1="107.7877" x2="55.1917" y2="39.4453">
			<stop  offset="0" style="stop-color:#036973"/>
			<stop  offset="1" style="stop-color:#32A5AE"/>
		</linearGradient>
		<path id="XMLID_36_" style="fill-rule:evenodd;clip-rule:evenodd;fill:url(#XMLID_2_);" d="M62,96V63.872
			C62,61.707,60.26,59,57.896,59H38.424C36.195,59,34,61.525,34,63.872V96H22.633C18.013,96,14,92.367,14,87.717V1h16v26.714
			C30,28.261,30.653,29,31.199,29h4.475c0.223,0,0.439-0.223,0.613-0.362l12.327-9.817l12.509,9.859
			c0.174,0.135,0.388,0.32,0.608,0.32h11.957C78.272,29,83,33.219,83,37.996v49.721C83,92.213,78.522,96,73.688,96H62z"/>
		<path id="XMLID_33_" style="fill:#028189;" d="M29,2v25.714C29,28.807,30.107,30,31.199,30h4.474c0.445,0,0.877-0.304,1.227-0.58
			l11.718-9.339l11.897,9.386C60.863,29.738,61.29,30,61.731,30h11.958C77.69,30,82,33.805,82,37.996v49.721
			C82,91.676,77.986,95,73.689,95H63V63.872C63,61.229,60.851,58,57.897,58H38.424C35.677,58,33,61.008,33,63.872V95H22.633
			C18.568,95,15,91.813,15,87.717V37.996V2H29 M31,0H13c0,9,0,29.669,0,37.996v49.721C13,92.9,17.452,97,22.633,97H35V63.872
			C35,62.143,36.697,60,38.424,60h19.472C59.624,60,61,62.149,61,63.872V97h12.689C78.87,97,84,92.906,84,87.717V37.996
			C84,32.808,78.867,28,73.689,28H61.731L48.61,17.775L35.674,28H31V0L31,0z"/>
	</g>
	<g id="XMLID_10_">
		<g id="XMLID_8_">
			<path id="XMLID_31_" style="fill-rule:evenodd;clip-rule:evenodd;fill:#F8B87A;" d="M89.063,51.2
				c-0.621,0-1.239-0.085-1.836-0.254c-0.864-0.242-1.668-0.652-2.389-1.22L49.108,21.488c-0.187-0.147-0.412-0.221-0.637-0.221
				s-0.45,0.074-0.636,0.221L12.104,49.727c-0.716,0.565-1.519,0.977-2.386,1.22C9.12,51.115,8.502,51.2,7.881,51.2
				c-0.277,0-0.553-0.017-0.827-0.051c-0.896-0.112-1.752-0.398-2.541-0.851c-0.761-0.435-1.425-1.01-1.977-1.708
				c-0.014-0.022-0.08-0.102-0.095-0.123c-0.538-0.713-0.929-1.507-1.163-2.359c-0.244-0.886-0.312-1.797-0.202-2.708
				c0.111-0.909,0.396-1.778,0.844-2.581c0.444-0.793,1.032-1.482,1.75-2.049L43.848,7.02c0.34-0.269,0.706-0.505,1.088-0.703
				c0.385-0.2,0.789-0.362,1.2-0.483c0.379-0.113,0.766-0.192,1.152-0.236c0.254-0.028,0.511-0.042,0.768-0.042
				c0.121,0,0.449,0.01,0.466,0.009c0.121-0.006,0.242-0.009,0.363-0.009c0.257,0,0.514,0.014,0.77,0.043
				c0.384,0.043,0.771,0.123,1.149,0.235c0.415,0.123,0.818,0.285,1.199,0.483c0.387,0.2,0.753,0.437,1.091,0.704l39.965,31.583
				c0.271,0.244,1.677,1.724,1.986,2.442l0.174,0.374c0.386,0.826,0.641,1.372,0.727,2.08c0.058,0.475,0.01,0.968-0.041,1.49
				c-0.027,0.277-0.054,0.556-0.068,0.839c-0.024,0.051-0.045,0.105-0.059,0.161c-0.19,0.745-0.54,1.488-1.04,2.212
				c-0.054,0.052-0.102,0.11-0.142,0.174c-0.029,0.046-0.063,0.086-0.09,0.121c-0.021,0.023-0.226,0.251-0.247,0.276
				c-0.551,0.652-1.203,1.187-1.938,1.589c-0.756,0.417-1.574,0.683-2.435,0.789C89.616,51.184,89.34,51.2,89.063,51.2z"/>
			<path id="XMLID_28_" style="fill:#028189;" d="M48.888,6.581c0.219,0,0.439,0.012,0.649,0.036
				c0.328,0.037,0.656,0.105,0.979,0.201c0.35,0.103,0.692,0.241,1.018,0.41c0.326,0.169,0.638,0.37,0.926,0.598L92.376,39.37
				c0.483,0.457,1.547,1.66,1.729,2.082c0.019,0.044,0.039,0.086,0.061,0.128l0.13,0.281c0.383,0.822,0.57,1.241,0.633,1.763
				c0.044,0.361,0.003,0.78-0.044,1.265c-0.022,0.222-0.045,0.461-0.061,0.714c-0.014,0.043-0.027,0.087-0.038,0.132
				c-0.151,0.59-0.438,1.208-0.834,1.8c-0.077,0.085-0.148,0.178-0.212,0.278l-0.019,0.025c-0.03,0.033-0.072,0.082-0.097,0.112
				c-0.009,0.01-0.017,0.02-0.026,0.03c-0.042,0.041-0.082,0.085-0.12,0.13c-0.469,0.555-1.024,1.01-1.649,1.353
				c-0.018,0.01-0.036,0.02-0.053,0.03c-0.627,0.336-1.304,0.551-2.011,0.639c-0.231,0.029-0.467,0.043-0.701,0.043
				c-0.527,0-1.052-0.072-1.562-0.216c-0.732-0.205-1.414-0.554-2.025-1.036L49.744,20.683c-0.373-0.295-0.823-0.442-1.273-0.442
				s-0.9,0.147-1.273,0.442L11.468,48.921c-0.609,0.481-1.292,0.83-2.029,1.037c-0.508,0.143-1.032,0.215-1.558,0.215
				c-0.233,0-0.469-0.014-0.697-0.043c-0.762-0.095-1.489-0.339-2.162-0.724c-0.645-0.369-1.21-0.857-1.679-1.452
				c-0.013-0.017-0.027-0.034-0.041-0.05c-0.013-0.019-0.027-0.038-0.041-0.056c-0.459-0.607-0.792-1.284-0.992-2.013
				c-0.208-0.756-0.266-1.534-0.173-2.308c0.095-0.779,0.338-1.521,0.722-2.207c0.377-0.675,0.879-1.262,1.491-1.745l40.176-31.75
				c0.289-0.228,0.601-0.43,0.925-0.598c0.327-0.169,0.669-0.307,1.023-0.412c0.319-0.095,0.646-0.162,0.97-0.199
				c0.213-0.024,0.433-0.036,0.652-0.036c0.104,0,0.208,0.003,0.312,0.008c0.035,0.002,0.07,0.003,0.105,0.003
				c0.035,0,0.07-0.001,0.105-0.003C48.68,6.584,48.784,6.581,48.888,6.581 M48.888,4.529c-0.139,0-0.278,0.004-0.417,0.011
				c-0.139-0.007-0.278-0.011-0.417-0.011c-0.295,0-0.589,0.016-0.882,0.049c-0.441,0.05-0.886,0.14-1.326,0.271
				c-0.472,0.139-0.935,0.325-1.382,0.556c-0.437,0.227-0.857,0.497-1.253,0.809L3.035,37.965c-0.843,0.665-1.516,1.47-2.01,2.354
				c-0.517,0.924-0.842,1.933-0.968,2.96c-0.124,1.025-0.05,2.081,0.231,3.102c0.261,0.953,0.705,1.873,1.333,2.706
				c0.031,0.049,0.068,0.097,0.109,0.141c0.647,0.82,1.422,1.477,2.272,1.963c0.914,0.523,1.911,0.852,2.926,0.979
				c0.315,0.039,0.633,0.058,0.952,0.058c0.707,0,1.419-0.096,2.115-0.292c0.969-0.272,1.903-0.738,2.745-1.402l35.732-28.239
				l35.732,28.239c0.842,0.664,1.776,1.131,2.745,1.402c0.696,0.196,1.408,0.292,2.116,0.292c0.319,0,0.729-0.02,1.043-0.058
				C91.081,52.047,92,51.743,93,51.262v-0.001c1-0.452,1.491-1.063,2.137-1.828l-0.044-0.001c0.058-0.061,0.097-0.128,0.156-0.202
				c0.021-0.022,0.034-0.007,0.053-0.033C95.352,49.134,95.405,49,95.464,49h0.021c0.593-1,1.12-1.777,1.362-2.72L97,46.241v-0.003
				c0-0.979,0.158-1.707,0.039-2.682C96.92,42.571,96.466,42,95.992,41h-0.002c-0.445-1-2.208-2.965-2.292-3.021L53.732,6.305
				c-0.396-0.312-0.816-0.628-1.254-0.855c-0.446-0.232-0.91-0.44-1.381-0.579c-0.441-0.131-0.886-0.232-1.327-0.282
				C49.478,4.556,49.183,4.529,48.888,4.529L48.888,4.529z"/>
		</g>
		
			<linearGradient id="XMLID_3_" gradientUnits="userSpaceOnUse" x1="446.5568" y1="30.2499" x2="452.2144" y2="23.0086" gradientTransform="matrix(-1 0 0 1 476.2754 0)">
			<stop  offset="0" style="stop-color:#F9BD72"/>
			<stop  offset="1" style="stop-color:#FFFFFF"/>
		</linearGradient>
		<path id="XMLID_7_" style="fill-rule:evenodd;clip-rule:evenodd;fill:url(#XMLID_3_);" d="M48.107,16.981L11.095,46.05
			c-0.888,0.702-1.69,0.973-2.723,0.845c-1.033-0.128-1.881-0.657-2.574-1.555l0,0l0,0c-0.694-0.898-0.891-1.995-0.764-3.04
			c0.127-1.045,0.685-2.045,1.573-2.747l39.79-30.925c0.416-0.329,1.461-0.877,1.461-0.87L48.107,16.981z"/>
		
			<linearGradient id="XMLID_4_" gradientUnits="userSpaceOnUse" x1="445.9471" y1="30.4152" x2="452.4172" y2="22.1339" gradientTransform="matrix(0.9999 0.0113 -0.0113 0.9999 -378.7398 -5.0714)">
			<stop  offset="0" style="stop-color:#F9BD72"/>
			<stop  offset="1" style="stop-color:#FFFFFF"/>
		</linearGradient>
		<path id="XMLID_6_" style="fill-rule:evenodd;clip-rule:evenodd;fill:url(#XMLID_4_);" d="M47.974,16.733l37.565,29.424
			c0.881,0.712,2.245,0.998,3.279,0.882c1.036-0.116,2.172-0.633,2.876-1.523l0,0l0,0c0.704-0.89,1.054-1.983,0.94-3.03
			c-0.116-1.047-0.591-2.052-1.472-2.764L51.757,8.35c-0.411-0.333-1.43-0.579-1.909-0.727c-0.395-0.121-1.057-0.164-1.998,0.265
			L47.974,16.733z"/>
	</g>
</g>
<g id="Capa_2">
</g>
</svg>
