<?xml version="1.0" encoding="iso-8859-1"?>

<svg version="1.1" xmlns="http://www.w3.org/2000/svg" xmlns:xlink="http://www.w3.org/1999/xlink" x="0px" y="0px"
	 viewBox="0 0 97 97" style="enable-background:new 0 0 97 97;" xml:space="preserve">
<g id="Capa_1">
	<g>
		<linearGradient id="SVGID_1_" gradientUnits="userSpaceOnUse" x1="-2.0668" y1="59.7652" x2="89.9656" y2="16.8498">
			<stop  offset="0" style="stop-color:#036973"/>
			<stop  offset="0.7" style="stop-color:#32A5AE"/>
		</linearGradient>
		<path style="fill:url(#SVGID_1_);" d="M10.978,74.171c-4.235-0.017-8.331-3.018-9.524-7.1C0.976,65.635,0.986,64.175,1,62.581
			c0.004-0.411,0-0.778,0-1.187V39.29c0-9.708,0-18.346,0.01-32.087c0.026-3.271,2.936-6.168,6.225-6.194
			c4.449-0.007,8.904-0.009,13.359-0.009c4.873,0,9.745,0.003,14.617,0.007c3.358,0.021,6.676,1.362,9.099,3.679
			c1.166,1.141,2.327,2.303,3.488,3.465c1.161,1.162,2.323,2.325,3.498,3.475c2.209,2.117,4.952,2.294,7.35,2.294
			c0.474,0,0.953-0.009,1.436-0.018c0.478-0.008,0.959-0.018,1.441-0.018c0,0,4.115,0.008,6.042,0.008l8.466-0.003
			c2.101,0,4.2,0.002,6.302,0.008c2.883,0.041,5.483,2.19,6.063,4.955c-0.354,0.131-1.292,0.356-3.579,0.356
			c-1.421,0-2.653-0.09-2.665-0.091c-0.001,0-0.001-0.164-0.001-0.164c-0.243,0-12.833,0.047-19.79,0.047h-0.82
			c-5.688,0-10.7-0.263-14.351-3.904c-1.094-1.082-2.177-2.085-3.261-3.169c-1.086-1.087-2.173-2.134-3.267-3.216
			c-1.468-1.464-3.507-2.285-5.593-2.285c-0.004,0-27.6,0.009-27.6,0.009c-0.265,0-0.519,0.11-0.706,0.298
			C6.573,6.919,6.468,7.176,6.468,7.441c0,0-0.001,42.576,0.003,56.746c-0.027,1.818,1.092,3.553,2.784,4.302
			c0.575,0.27,1.248,0.416,1.926,0.416c1.197,0,2.367-0.452,3.208-1.24c0.962-0.865,1.542-2.167,1.536-3.47
			c0.004-8.015,0.002-32.959,0.002-32.959c-0.022-2.253,1.296-4.5,3.28-5.601c0.966-0.554,2.082-0.843,3.24-0.843l42.521,0.002
			c8.271,0,16.543,0.001,24.814,0.008c3.276,0.03,6.183,2.928,6.211,6.201c0.01,7.521,0.009,12.149,0.007,17.376v12.097
			c0.013,3.304-1.244,6.45-3.447,8.943C89.964,72.401,86.085,74,82.172,74H36.214C27.801,74,19.39,74.176,10.978,74.171z"/>
		<path style="fill:#028189;" d="M20.462,1.997c4.917,0,9.832,0.003,14.737,0.007c3.112,0.02,6.181,1.26,8.404,3.386
			c1.168,1.143,2.324,2.3,3.48,3.457c1.167,1.168,2.334,2.336,3.53,3.506c2.352,2.254,5.25,2.564,8.031,2.564
			c0.481,0,0.967,0.05,1.457,0.041C60.571,14.95,61.047,15,61.524,15h0.256c1.926,0,3.852-0.052,5.778-0.052l4.253-0.031
			l4.251-0.016c2.089,0,4.176-0.005,6.243,0.001c2.051,0.029,3.981,1.379,4.798,3.202c-0.5,0.059-1.234,0.107-2.289,0.107
			c-1.38,0-2.579-0.146-2.591-0.147C82.174,18.061,82.124,18,82.075,18c-0.011,0-0.022,0-0.033,0c-0.126,0-12.725,0-19.681,0h-0.8
			c-5.475,0-10.283-0.236-13.673-3.618c-1.09-1.078-2.172-2.079-3.255-3.162c-1.088-1.089-2.176-2.36-3.264-3.437
			C39.711,6.131,37.415,5,35.067,5h-0.092c-3.257,0-6.514,0-9.77,0h-6.732h-6.732H7.467C6.937,5,6.194,5.433,5.82,5.808
			C5.445,6.183,5,6.914,5,7.444v23.289c0,10.154,0.233,19.281,0.238,33.427c-0.033,2.228,1.442,4.335,3.458,5.227
			c0.726,0.339,1.603,0.519,2.427,0.519c1.448,0,2.896-0.55,3.892-1.483c1.202-1.083,1.939-2.624,1.932-4.22
			C16.95,56.128,17,50.846,17,45.055V31.218c0-1.888,1.056-3.78,2.754-4.722c0.803-0.461,1.729-0.704,2.714-0.704l0.152,0.002
			c5.072,0.002,10.141,0.003,15.213,0.003l13.569-0.001l13.57-0.001c8.272,0,16.539,0.002,24.794,0.009
			c2.714,0.025,5.207,2.508,5.23,5.196c0.01,7.603,0.008,12.247,0.007,17.537c-0.001,3.397-0.002,7.06,0,11.95
			c0.012,3.058-1.153,5.961-3.208,8.286C89.397,71.53,85.799,73,82.169,73h-0.106H68.996h-16.2h-16.2
			c-8.54,0-17.078,0.176-25.611,0.172c-3.814-0.015-7.499-2.708-8.573-6.381c-0.007-0.024-0.014-0.003-0.022-0.026
			c-0.414-1.242-0.401-2.645-0.388-4.152c0.004-0.419,0.007-0.825,0.003-1.218c0.002-8.87,0.001-15.608,0-21.885
			c-0.001-9.8-0.003-18.462,0.007-32.295c0.022-2.706,2.515-5.188,5.219-5.21C11.641,1.998,16.052,1.997,20.462,1.997 M20.462,0
			c-4.411,0-8.823,0.002-13.234,0.009c-3.805,0.03-7.183,3.395-7.214,7.193c-0.016,22.718-0.002,31.486-0.007,54.203
			c0.023,2.016-0.161,4.088,0.487,6.035c1.32,4.514,5.759,7.888,10.483,7.907c8.54,0.004,17.078,0.005,25.619,0.005
			c10.801,0,21.6-0.177,32.4-0.177c4.355,0,8.712-0.174,13.067-0.174c0.036,0,0.071,0,0.106,0c4.216,0,8.373-1.742,11.132-4.917
			c2.364-2.674,3.712-6.128,3.698-9.693c-0.005-12.488,0.009-16.952-0.007-29.438c-0.033-3.795-3.406-7.134-7.209-7.168
			c-8.272-0.007-16.541,0.002-24.813,0.002c-9.047,0-18.095,0.008-27.142,0.008c-5.071,0-10.146,0.002-15.217,0
			c-0.054-0.001-0.108,0-0.162,0c-1.299,0-2.599,0.322-3.727,0.97c-2.304,1.279-3.819,3.84-3.793,6.474
			c-0.002,13.646,0.005,19.315-0.002,32.963c0.005,1.03-0.452,2.047-1.22,2.737c-0.677,0.634-1.603,0.97-2.526,0.97
			c-0.523,0-1.045-0.108-1.522-0.331c-1.308-0.579-2.211-2.18-2.19-3.61C7.463,40.403,7.469,31,7.466,7c1.426,0,2.849,0,4.275,0
			c4.488,0,8.977-0.002,13.464-0.002C28.461,6.998,31.718,7,34.974,7c0.031,0,0.062,0,0.093,0c1.817,0,3.604,0.957,4.89,2.239
			c2.185,2.16,4.34,4.455,6.525,6.616c3.959,3.949,9.45,4.344,15.053,4.414c0.265,0.001,0.54,0.029,0.825,0.029
			c7.053,0,19.715-0.199,19.715-0.199s1.26,0.101,2.739,0.101c2.142,0,4.743-0.193,4.629-1.156
			c-0.499-3.411-3.647-6.099-7.109-6.148c-2.091-0.006-4.181-0.007-6.271-0.007c-2.835,0-5.669,0.061-8.504,0.061
			c-1.924,0-3.848,0.051-5.772,0.051c-0.087,0-0.174,0-0.261,0c-0.972,0-1.938-0.022-2.882-0.022c-2.482,0-4.806-0.272-6.649-2.038
			c-2.35-2.3-4.647-4.665-6.995-6.963c-2.609-2.495-6.174-3.94-9.788-3.963C30.295,0.01,25.379,0,20.462,0L20.462,0z"/>
	</g>
	<g>
		<g>
			<g>
				<path style="fill:#AAD8DA;" d="M57.116,79.938c-13.268,0-24.062-10.763-24.062-23.992s10.794-23.993,24.062-23.993
					c13.269,0,24.063,10.763,24.063,23.993S70.385,79.938,57.116,79.938z"/>
				<g>
					<path style="fill:#028189;" d="M57.116,34.754c11.723,0,21.261,9.506,21.261,21.191S68.84,77.136,57.116,77.136
						S35.856,67.63,35.856,55.945S45.393,34.754,57.116,34.754 M57.116,29.151c-14.836,0-26.864,11.996-26.864,26.794
						S42.28,82.739,57.116,82.739S83.98,70.743,83.98,55.945S71.953,29.151,57.116,29.151L57.116,29.151z"/>
				</g>
			</g>
			
				<linearGradient id="SVGID_2_" gradientUnits="userSpaceOnUse" x1="84.7616" y1="82.1657" x2="85.1321" y2="81.7952" gradientTransform="matrix(-1 0 0 1 115.9347 0)">
				<stop  offset="0" style="stop-color:#036973"/>
				<stop  offset="0.6684" style="stop-color:#32A5AE"/>
			</linearGradient>
			
				<line style="fill:url(#SVGID_2_);stroke:#028189;stroke-width:7.0038;stroke-miterlimit:22.9256;" x1="38.979" y1="74.36" x2="22.997" y2="89.601"/>
			<g>
				
					<linearGradient id="SVGID_3_" gradientUnits="userSpaceOnUse" x1="117.5113" y1="133.2333" x2="117.5113" y2="123.1626" gradientTransform="matrix(-0.7071 0.7071 0.7071 0.7071 20.3694 -88.1784)">
					<stop  offset="0" style="stop-color:#036973"/>
					<stop  offset="1" style="stop-color:#32A5AE"/>
				</linearGradient>
				<path style="fill:url(#SVGID_3_);" d="M23.38,96.001c-0.619,0-1.21-0.23-1.665-0.649l-4.248-3.918
					c-0.321-0.296-0.504-0.699-0.514-1.135s0.152-0.846,0.458-1.157L32.229,74.14l7.422,6.82L25.1,95.3
					C24.64,95.752,24.029,96.001,23.38,96.001L23.38,96.001z"/>
				<path style="fill:#028189;" d="M32.263,75.527l5.94,5.458L24.401,94.586c-0.274,0.269-0.636,0.417-1.021,0.417
					c-0.367,0-0.718-0.137-0.987-0.385l-4.248-3.918c-0.154-0.142-0.19-0.309-0.193-0.424c-0.003-0.115,0.025-0.283,0.169-0.43
					L32.263,75.527 M32.196,72.753L16.7,88.442c-1.029,1.045-0.988,2.731,0.09,3.726l4.248,3.918C21.701,96.696,22.541,97,23.38,97
					c0.876,0,1.751-0.331,2.421-0.99L41.1,80.934L32.196,72.753L32.196,72.753z"/>
			</g>
			<g>
				
					<linearGradient id="SVGID_4_" gradientUnits="userSpaceOnUse" x1="47.134" y1="67.3731" x2="70.2461" y2="44.2609" gradientTransform="matrix(-1 0 0 1 115.9347 0)">
					<stop  offset="0" style="stop-color:#B7DCE0"/>
					<stop  offset="0.1613" style="stop-color:#C2E1E5"/>
					<stop  offset="0.4418" style="stop-color:#DEEFF1"/>
					<stop  offset="0.7043" style="stop-color:#FFFFFF"/>
				</linearGradient>
				<ellipse style="fill:url(#SVGID_4_);" cx="57.245" cy="55.817" rx="16.364" ry="16.322"/>
			</g>
			
				<linearGradient id="SVGID_5_" gradientUnits="userSpaceOnUse" x1="86.2713" y1="87.3665" x2="91.0887" y2="82.7633" gradientTransform="matrix(-1 0 0 1 115.9347 0)">
				<stop  offset="0.35" style="stop-color:#FFFFFF;stop-opacity:0"/>
				<stop  offset="1" style="stop-color:#B7DCE0"/>
			</linearGradient>
			<path style="opacity:0.5;fill:url(#SVGID_5_);" d="M22.212,94.276l14.621-14.428l-4.586-4.299L18.859,88.994
				c-1.386,1.311-1.035,1.466-0.164,2.228L22.212,94.276z"/>
			<g style="opacity:0.5;">
				
					<line style="fill:none;stroke:#FFFFFF;stroke-width:1.9974;stroke-linecap:round;stroke-linejoin:round;stroke-miterlimit:10;" x1="33.052" y1="82.202" x2="30.279" y2="79.604"/>
				
					<line style="fill:none;stroke:#FFFFFF;stroke-width:1.9974;stroke-linecap:round;stroke-linejoin:round;stroke-miterlimit:10;" x1="30.948" y1="84.3" x2="28.174" y2="81.703"/>
				
					<line style="fill:none;stroke:#FFFFFF;stroke-width:1.9974;stroke-linecap:round;stroke-linejoin:round;stroke-miterlimit:10;" x1="28.844" y1="86.399" x2="26.071" y2="83.802"/>
				
					<line style="fill:none;stroke:#FFFFFF;stroke-width:1.9974;stroke-linecap:round;stroke-linejoin:round;stroke-miterlimit:10;" x1="26.74" y1="88.498" x2="23.967" y2="85.901"/>
				
					<line style="fill:none;stroke:#FFFFFF;stroke-width:1.9974;stroke-linecap:round;stroke-linejoin:round;stroke-miterlimit:10;" x1="24.636" y1="90.597" x2="21.863" y2="87.999"/>
			</g>
		</g>
		
			<path style="fill-rule:evenodd;clip-rule:evenodd;fill:none;stroke:#FFFFFF;stroke-width:4.1804;stroke-linecap:round;stroke-linejoin:round;stroke-miterlimit:22.9256;" d="
			M62.153,43.746c5.6,1.073,10.173,6.844,8.96,12.988"/>
	</g>
</g>
<g id="Capa_2">
</g>
</svg>
