<?xml version="1.0" encoding="iso-8859-1"?>

<svg version="1.1" xmlns="http://www.w3.org/2000/svg" xmlns:xlink="http://www.w3.org/1999/xlink" x="0px" y="0px"
	 viewBox="0 0 97 97" style="enable-background:new 0 0 97 97;" xml:space="preserve">
<g id="Capa_1">
	<g>
		<linearGradient id="SVGID_1_" gradientUnits="userSpaceOnUse" x1="-3.6257" y1="78.3441" x2="90.7512" y2="34.3354">
			<stop  offset="0" style="stop-color:#036973"/>
			<stop  offset="0.7389" style="stop-color:#32A5AE"/>
		</linearGradient>
		<path style="fill:url(#SVGID_1_);" d="M10.978,96.131c-4.234-0.017-8.33-3.047-9.523-7.139c-0.477-1.439-0.468-2.914-0.453-4.512
			C1.005,84.067,1,83.689,1,83.279V58.705c0-12.171,0.001-23.849,0.01-37.758c0.026-3.279,2.935-6.186,6.224-6.212
			c4.392-0.007,8.792-0.009,13.19-0.009c4.929,0,9.857,0.003,14.786,0.007c3.357,0.022,6.675,1.366,9.097,3.688
			c1.166,1.144,2.327,2.309,3.488,3.475c1.162,1.166,2.323,2.331,3.498,3.484c2.796,2.686,6.615,4.238,10.486,4.266
			c1.923,0.005,3.842,0.007,5.761,0.007l8.612-0.003c2.06,0,4.119,0.001,6.179,0.008c2.883,0.041,5.484,2.197,6.062,4.971
			c-0.353,0.132-1.29,0.358-3.579,0.358c-1.421,0-2.651-0.09-2.664-0.091l-0.001-0.052C81.904,34.842,69.313,35,62.356,35h-0.818
			c-5.319,0-10.553-2.23-14.349-6.025c-1.089-1.08-2.167-2.136-3.246-3.219c-1.092-1.095-2.183-2.177-3.282-3.267
			c-1.468-1.468-3.508-2.306-5.595-2.306c-0.004,0-27.6,0.001-27.6,0.001c-0.265,0-0.52,0.107-0.707,0.295s-0.293,0.443-0.293,0.708
			c0,0-0.001,50.575,0.003,64.893c-0.027,1.822,1.092,3.56,2.784,4.311c0.575,0.271,1.249,0.418,1.927,0.418
			c1.198,0,2.368-0.453,3.21-1.243c0.962-0.868,1.541-2.173,1.536-3.478c0.004-8.123,0.002-39.045,0.002-39.045
			c-0.022-2.259,1.296-4.513,3.28-5.617c0.965-0.556,2.082-0.845,3.241-0.845l42.44,0.002c8.298,0,16.596,0.002,24.893,0.009
			c3.275,0.03,6.182,2.936,6.21,6.218C96.002,54.444,96,61.34,96,68.401V82.36c0,3.313-1.245,6.509-3.449,9.009
			C89.962,94.357,86.083,96,82.168,96C82.166,96,36.7,96,36.7,96C28.125,96,19.552,96.135,10.978,96.131z"/>
		<path style="fill:#028189;" d="M20.459,15.726c4.917,0,9.834,0.003,14.739,0.007c3.11,0.02,6.178,1.263,8.4,3.394
			c1.168,1.146,2.324,2.306,3.48,3.466c1.167,1.171,2.334,2.342,3.53,3.515c2.971,2.854,7.04,4.508,11.173,4.538
			c1.926,0.005,3.853,0.007,5.778,0.007l4.251-0.002l4.249-0.002c2.089,0,4.179,0.002,6.246,0.008
			c2.051,0.029,3.982,1.389,4.797,3.22c-0.5,0.059-1.233,0.109-2.289,0.109c-1.38,0-2.579-0.033-2.591-0.034
			C82.174,33.948,82.124,34,82.075,34c-0.011,0-0.022,0-0.033,0c-0.126,0-12.726,0-19.681,0h-0.8c-5.071,0-10.051-2.12-13.67-5.738
			c-1.089-1.08-2.172-2.14-3.254-3.226c-1.088-1.092-2.176-2.266-3.265-3.345C39.714,20.033,37.416,19,35.067,19h-0.092
			c-3.256,0-6.512,0-9.768,0h-6.738h-6.738H7.467c-0.531,0-1.273,0.305-1.648,0.68C5.444,20.055,5,20.659,5,21.189v25.857
			C5,59.637,5.232,71.76,5.237,86.053c-0.033,2.231,1.442,4.343,3.457,5.237c0.726,0.341,1.605,0.521,2.429,0.521
			c1.45,0,2.898-0.552,3.895-1.488c1.202-1.085,1.937-2.629,1.929-4.228C16.952,77.905,17,70.432,17,62.818V47.025
			c0-1.894,1.058-3.793,2.755-4.738c0.802-0.461,1.728-0.705,2.712-0.705l0.152,0.002c5.076,0.002,10.15,0.003,15.226,0.003
			l13.561-0.001l13.562-0.001c8.272,0,16.542,0.002,24.797,0.009c2.713,0.025,5.204,2.516,5.227,5.212
			c0.01,7.722,0.008,14.684,0.007,21.825c-0.001,4.434-0.002,8.936,0,13.739c0.012,3.068-1.154,6.021-3.209,8.352
			C89.394,93.486,85.797,95,82.169,95h-0.106H68.987H52.792H36.597c-8.541,0-17.078,0.136-25.612,0.132
			c-3.812-0.015-7.496-2.735-8.57-6.419C2.408,88.689,2.4,88.7,2.393,88.677c-0.414-1.247-0.401-2.658-0.388-4.171
			c0.004-0.42,0.007-0.83,0.003-1.223c0.002-8.756,0.001-16.623,0-24.29C2.006,46.716,2.004,34.966,2.014,20.96
			c0.022-2.714,2.514-5.205,5.217-5.226C11.64,15.728,16.05,15.726,20.459,15.726 M20.459,13.726c-4.41,0-8.821,0.002-13.231,0.009
			c-3.805,0.03-7.183,3.404-7.214,7.211c-0.016,22.777-0.002,39.568-0.007,62.344c0.023,2.021-0.161,4.099,0.487,6.05
			c1.32,4.525,5.759,7.909,10.483,7.927c8.542,0.004,17.079,0.005,25.62,0.005c10.796,0,21.594-0.138,32.39-0.138
			c4.358,0,8.718-0.135,13.076-0.135c0.036,0,0.071,0,0.106,0c4.216,0,8.373-1.786,11.132-4.97c2.364-2.681,3.712-6.164,3.698-9.738
			c-0.005-12.52,0.009-23.006-0.007-35.524c-0.033-3.805-3.406-7.157-7.209-7.192c-8.272-0.007-16.544,0-24.816,0
			c-9.043,0-18.083,0.006-27.126,0.006c-5.076,0-10.154,0.001-15.23-0.001c-0.054-0.001-0.108-0.001-0.162-0.001
			c-1.299,0-2.599,0.323-3.727,0.972c-2.304,1.282-3.819,3.85-3.793,6.491c-0.002,13.681,0.005,25.365-0.002,39.049
			c0.005,1.033-0.452,2.052-1.22,2.744c-0.677,0.636-1.603,0.973-2.526,0.973c-0.523,0-1.045-0.108-1.522-0.332
			c-1.308-0.581-2.211-2.058-2.19-3.492C7.463,62.362,7.469,45,7.466,21c1.422,0,2.843,0,4.265,0c4.492,0,8.984-0.002,13.476-0.002
			c3.255,0,6.511,0.002,9.767,0.002c0.031,0,0.062,0,0.093,0c1.817,0,3.604,0.832,4.89,2.117c2.185,2.166,4.34,4.403,6.525,6.569
			c3.959,3.959,9.45,6.324,15.053,6.394c0.265,0.001,0.54,0.013,0.825,0.013c7.053,0,19.715-0.208,19.715-0.208
			s1.26,0.097,2.739,0.097c2.142,0,4.743-0.196,4.629-1.161c-0.499-3.42-3.647-6.116-7.109-6.165
			c-2.092-0.006-4.183-0.008-6.274-0.008c-2.834,0-5.667,0.004-8.5,0.004c-1.924,0-3.849-0.001-5.773-0.007
			c-3.616-0.026-7.186-1.476-9.792-3.98c-2.35-2.306-4.647-4.663-6.995-6.967c-2.609-2.502-6.174-3.943-9.788-3.966
			C30.294,13.729,25.377,13.726,20.459,13.726L20.459,13.726z"/>
	</g>
</g>
<g id="Capa_2">
	<g>
		
			<radialGradient id="SVGID_2_" cx="889.1068" cy="-93.0686" r="132.9735" gradientTransform="matrix(0.1462 0 0 0.1462 -64.0191 46.1099)" gradientUnits="userSpaceOnUse">
			<stop  offset="0.6798" style="stop-color:#F9BD72"/>
			<stop  offset="0.8142" style="stop-color:#F9BE74"/>
			<stop  offset="0.8626" style="stop-color:#F9C17B"/>
			<stop  offset="0.8971" style="stop-color:#FAC786"/>
			<stop  offset="0.925" style="stop-color:#FBCE97"/>
			<stop  offset="0.9489" style="stop-color:#FCD9AD"/>
			<stop  offset="0.9701" style="stop-color:#FDE6C9"/>
			<stop  offset="0.9888" style="stop-color:#FEF4E8"/>
			<stop  offset="1" style="stop-color:#FFFFFF"/>
		</radialGradient>
		
			<line style="fill:url(#SVGID_2_);stroke:#E89613;stroke-width:10;stroke-linecap:round;stroke-linejoin:round;stroke-miterlimit:10;" x1="66" y1="5" x2="66" y2="60"/>
		
			<radialGradient id="SVGID_3_" cx="888.8429" cy="-100.4951" r="131.8261" gradientTransform="matrix(0.1462 0 0 0.1462 -64.0191 46.1099)" gradientUnits="userSpaceOnUse">
			<stop  offset="0.6798" style="stop-color:#F9BD72"/>
			<stop  offset="0.8142" style="stop-color:#F9BE74"/>
			<stop  offset="0.8626" style="stop-color:#F9C17B"/>
			<stop  offset="0.8971" style="stop-color:#FAC786"/>
			<stop  offset="0.925" style="stop-color:#FBCE97"/>
			<stop  offset="0.9489" style="stop-color:#FCD9AD"/>
			<stop  offset="0.9701" style="stop-color:#FDE6C9"/>
			<stop  offset="0.9888" style="stop-color:#FEF4E8"/>
			<stop  offset="1" style="stop-color:#FFFFFF"/>
		</radialGradient>
		
			<line style="fill:url(#SVGID_3_);stroke:#E89613;stroke-width:10.2268;stroke-linecap:round;stroke-linejoin:round;stroke-miterlimit:10;" x1="46.684" y1="12.136" x2="85.239" y2="50.692"/>
		
			<radialGradient id="SVGID_4_" cx="887.825" cy="-101.5131" r="131.8261" gradientTransform="matrix(0.1462 0 0 0.1462 -64.0191 46.1099)" gradientUnits="userSpaceOnUse">
			<stop  offset="0.6798" style="stop-color:#F9BD72"/>
			<stop  offset="0.8142" style="stop-color:#F9BE74"/>
			<stop  offset="0.8626" style="stop-color:#F9C17B"/>
			<stop  offset="0.8971" style="stop-color:#FAC786"/>
			<stop  offset="0.925" style="stop-color:#FBCE97"/>
			<stop  offset="0.9489" style="stop-color:#FCD9AD"/>
			<stop  offset="0.9701" style="stop-color:#FDE6C9"/>
			<stop  offset="0.9888" style="stop-color:#FEF4E8"/>
			<stop  offset="1" style="stop-color:#FFFFFF"/>
		</radialGradient>
		
			<line style="fill:url(#SVGID_4_);stroke:#E89613;stroke-width:10.2268;stroke-linecap:round;stroke-linejoin:round;stroke-miterlimit:10;" x1="46.535" y1="50.543" x2="85.09" y2="11.987"/>
		
			<radialGradient id="SVGID_5_" cx="878.8494" cy="-103.326" r="132.9733" gradientTransform="matrix(0.1462 0 0 0.1462 -64.0191 46.1099)" gradientUnits="userSpaceOnUse">
			<stop  offset="0.6798" style="stop-color:#F9BD72"/>
			<stop  offset="0.8142" style="stop-color:#F9BE74"/>
			<stop  offset="0.8626" style="stop-color:#F9C17B"/>
			<stop  offset="0.8971" style="stop-color:#FAC786"/>
			<stop  offset="0.925" style="stop-color:#FBCE97"/>
			<stop  offset="0.9489" style="stop-color:#FCD9AD"/>
			<stop  offset="0.9701" style="stop-color:#FDE6C9"/>
			<stop  offset="0.9888" style="stop-color:#FEF4E8"/>
			<stop  offset="1" style="stop-color:#FFFFFF"/>
		</radialGradient>
		
			<line style="fill:url(#SVGID_5_);stroke:#E89613;stroke-width:10;stroke-linecap:round;stroke-linejoin:round;stroke-miterlimit:10;" x1="37" y1="31" x2="92" y2="31"/>
		
			<line style="fill:none;stroke:#FFFFFF;stroke-width:2;stroke-linecap:round;stroke-linejoin:round;stroke-miterlimit:10;" x1="66" y1="5" x2="66" y2="60"/>
		
			<line style="fill:none;stroke:#FFFFFF;stroke-width:2;stroke-linecap:round;stroke-linejoin:round;stroke-miterlimit:10;" x1="46.538" y1="12.222" x2="85.094" y2="50.778"/>
		
			<line style="fill:none;stroke:#FFFFFF;stroke-width:2;stroke-linecap:round;stroke-linejoin:round;stroke-miterlimit:10;" x1="46.389" y1="50.629" x2="84.945" y2="12.073"/>
		
			<line style="fill:none;stroke:#FFFFFF;stroke-width:2;stroke-linecap:round;stroke-linejoin:round;stroke-miterlimit:10;" x1="37" y1="31" x2="92" y2="31"/>
	</g>
</g>
</svg>
