<?xml version="1.0" encoding="iso-8859-1"?>

<svg version="1.1" id="Capa_1" xmlns="http://www.w3.org/2000/svg" xmlns:xlink="http://www.w3.org/1999/xlink" x="0px" y="0px"
	 viewBox="0 0 97 97" style="enable-background:new 0 0 97 97;" xml:space="preserve">
<g style="opacity:0.6;">
	
		<linearGradient id="SVGID_1_" gradientUnits="userSpaceOnUse" x1="-82.0363" y1="138.5558" x2="42.9108" y2="-0.2121" gradientTransform="matrix(1 0 0 -1 0 49.1768)">
		<stop  offset="0" style="stop-color:#32A5AE"/>
		<stop  offset="1" style="stop-color:#FFFFFF"/>
	</linearGradient>
	
		<path style="fill-rule:evenodd;clip-rule:evenodd;fill:url(#SVGID_1_);stroke:#028189;stroke-width:2;stroke-linecap:round;stroke-linejoin:round;stroke-miterlimit:22.9256;" d="
		M4.717,80h41.919L69,57.146V5.227C69,2.987,67.268,1,65.072,1H4.717C2.521,1,1,2.987,1,5.227v70.725C1,78.19,2.521,80,4.717,80z"/>
	
		<linearGradient id="SVGID_2_" gradientUnits="userSpaceOnUse" x1="57.3585" y1="-18.5399" x2="47.6327" y2="-7.3517" gradientTransform="matrix(1 0 0 -1 0 49.1768)">
		<stop  offset="0" style="stop-color:#32A5AE"/>
		<stop  offset="1" style="stop-color:#FFFFFF"/>
	</linearGradient>
	
		<path style="fill-rule:evenodd;clip-rule:evenodd;fill:url(#SVGID_2_);stroke:#028189;stroke-width:2;stroke-linecap:round;stroke-linejoin:round;stroke-miterlimit:22.9256;" d="
		M69.063,57H50.627C48.432,57,47,58.956,47,61.193v18.789L69.063,57z"/>
	
		<line style="fill-rule:evenodd;clip-rule:evenodd;fill:none;stroke:#028189;stroke-width:3;stroke-linecap:round;stroke-linejoin:round;stroke-miterlimit:22.9256;" x1="12" y1="19.5" x2="57" y2="19.5"/>
	
		<line style="fill-rule:evenodd;clip-rule:evenodd;fill:none;stroke:#028189;stroke-width:3;stroke-linecap:round;stroke-linejoin:round;stroke-miterlimit:22.9256;" x1="12" y1="39.5" x2="57" y2="39.5"/>
	
		<line style="fill-rule:evenodd;clip-rule:evenodd;fill:none;stroke:#028189;stroke-width:3;stroke-linecap:round;stroke-linejoin:round;stroke-miterlimit:22.9256;" x1="12" y1="29.5" x2="57" y2="29.5"/>
	
		<line style="fill-rule:evenodd;clip-rule:evenodd;fill:none;stroke:#028189;stroke-width:3;stroke-linecap:round;stroke-linejoin:round;stroke-miterlimit:22.9256;" x1="12" y1="49.5" x2="34" y2="49.5"/>
</g>
<g>
	
		<linearGradient id="SVGID_3_" gradientUnits="userSpaceOnUse" x1="-55.0363" y1="122.5558" x2="69.9108" y2="-16.212" gradientTransform="matrix(1 0 0 -1 0 49.1768)">
		<stop  offset="0" style="stop-color:#32A5AE"/>
		<stop  offset="1" style="stop-color:#FFFFFF"/>
	</linearGradient>
	
		<path style="fill-rule:evenodd;clip-rule:evenodd;fill:url(#SVGID_3_);stroke:#028189;stroke-width:2;stroke-linecap:round;stroke-linejoin:round;stroke-miterlimit:22.9256;" d="
		M31.716,96h41.919L96,73.146v-51.92C96,18.987,94.268,17,92.072,17H31.716C29.521,17,28,18.987,28,21.227v70.725
		C28,94.19,29.521,96,31.716,96z"/>
	
		<linearGradient id="SVGID_4_" gradientUnits="userSpaceOnUse" x1="84.3585" y1="-34.5399" x2="74.6327" y2="-23.3517" gradientTransform="matrix(1 0 0 -1 0 49.1768)">
		<stop  offset="0" style="stop-color:#32A5AE"/>
		<stop  offset="1" style="stop-color:#FFFFFF"/>
	</linearGradient>
	
		<path style="fill-rule:evenodd;clip-rule:evenodd;fill:url(#SVGID_4_);stroke:#028189;stroke-width:2;stroke-linecap:round;stroke-linejoin:round;stroke-miterlimit:22.9256;" d="
		M96.063,73H77.627C75.432,73,74,74.956,74,77.193v18.789L96.063,73z"/>
	
		<line style="fill-rule:evenodd;clip-rule:evenodd;fill:none;stroke:#028189;stroke-width:3;stroke-linecap:round;stroke-linejoin:round;stroke-miterlimit:22.9256;" x1="39" y1="35.5" x2="84" y2="35.5"/>
	
		<line style="fill-rule:evenodd;clip-rule:evenodd;fill:none;stroke:#028189;stroke-width:3;stroke-linecap:round;stroke-linejoin:round;stroke-miterlimit:22.9256;" x1="39" y1="55.5" x2="84" y2="55.5"/>
	
		<line style="fill-rule:evenodd;clip-rule:evenodd;fill:none;stroke:#028189;stroke-width:3;stroke-linecap:round;stroke-linejoin:round;stroke-miterlimit:22.9256;" x1="39" y1="45.5" x2="84" y2="45.5"/>
	
		<line style="fill-rule:evenodd;clip-rule:evenodd;fill:none;stroke:#028189;stroke-width:3;stroke-linecap:round;stroke-linejoin:round;stroke-miterlimit:22.9256;" x1="39" y1="65.5" x2="61" y2="65.5"/>
</g>
</svg>
