<?xml version="1.0" encoding="iso-8859-1"?>

<svg version="1.1" id="Capa_1" xmlns="http://www.w3.org/2000/svg" xmlns:xlink="http://www.w3.org/1999/xlink" x="0px" y="0px"
	 viewBox="0 0 97 97" style="enable-background:new 0 0 97 97;" xml:space="preserve">
<g>
	<linearGradient id="SVGID_1_" gradientUnits="userSpaceOnUse" x1="53.9427" y1="14.3337" x2="87.6812" y2="173.7846">
		<stop  offset="0" style="stop-color:#FFFFFF"/>
		<stop  offset="0.0636" style="stop-color:#D4EAEC"/>
		<stop  offset="0.1515" style="stop-color:#A1D5D9"/>
		<stop  offset="0.2428" style="stop-color:#78C6C9"/>
		<stop  offset="0.3369" style="stop-color:#4DBBBE"/>
		<stop  offset="0.4351" style="stop-color:#27B4B7"/>
		<stop  offset="0.5398" style="stop-color:#00B0B5"/>
		<stop  offset="0.7809" style="stop-color:#00AFB3"/>
	</linearGradient>
	<path style="fill:url(#SVGID_1_);" d="M82.994,77.468c-3.037-1.913-6.077-3.821-9.118-5.729c-4.611-2.895-9.224-5.788-13.824-8.701
		c-0.163-0.104-0.35-0.155-0.535-0.155c-0.187,0-0.372,0.052-0.536,0.156c-4.606,2.925-9.229,5.824-13.852,8.723
		c-3.028,1.899-6.057,3.798-9.08,5.705c0.005-24.33,0.005-48.653,0-72.982c-0.002-0.653,0.1-2.236,1.1-2.902
		c0.808-0.514,1.947-0.548,3.049-0.581c6.454,0.004,12.892,0.007,19.329,0.007c6.437,0,12.873-0.003,19.31-0.008l0.097,0.003
		c1.192,0.036,2.425,0.072,3.201,0.757c0.779,0.787,0.87,2.238,0.866,3.257c-0.012,17.879-0.01,35.758-0.008,53.636L82.994,77.468z"
		/>
	<path style="fill:#007C84;" d="M40.242,2c6.429,0.005,12.857,0.008,19.284,0.008c6.427,0,12.854-0.003,19.28-0.008l0.097,0.003
		c0.982,0.029,1.996,0.06,2.519,0.467C81.816,2.911,82.005,3.745,82,5.02c-0.011,17.709-0.009,35.42-0.007,53.13l0.001,17.506
		c-2.51-1.579-5.021-3.155-7.533-4.731c-4.628-2.904-9.257-5.809-13.875-8.732c-0.327-0.207-0.698-0.31-1.07-0.31
		c-0.372,0-0.745,0.104-1.072,0.312c-4.604,2.924-9.305,5.872-13.85,8.722c-2.516,1.578-5.032,3.155-7.545,4.737
		c0.004-23.725,0.004-47.445-0.001-71.177c-0.004-1.001,0.247-1.791,0.619-2.04C38.255,2.062,39.198,2.031,40.242,2 M78.835,0
		c-6.436,0.005-12.872,0.008-19.309,0.008S46.652,0.005,40.213,0c-1.226,0.036-2.549,0.068-3.62,0.75
		c-1.194,0.797-1.55,2.375-1.545,3.734c0.005,24.934,0.005,49.862,0,74.795c8.146-5.146,16.333-10.23,24.468-15.397
		c8.146,5.157,16.327,10.256,24.478,15.397c0-24.751-0.01-49.508,0.005-74.259c0.005-1.396-0.175-2.974-1.205-4.011
		C81.714,0.057,80.195,0.042,78.835,0L78.835,0z"/>
</g>
<g>
	<linearGradient id="SVGID_2_" gradientUnits="userSpaceOnUse" x1="43.2512" y1="23.3244" x2="76.9897" y2="182.7753">
		<stop  offset="0" style="stop-color:#FFFFFF"/>
		<stop  offset="0.0636" style="stop-color:#D4EAEC"/>
		<stop  offset="0.1515" style="stop-color:#A1D5D9"/>
		<stop  offset="0.2428" style="stop-color:#78C6C9"/>
		<stop  offset="0.3369" style="stop-color:#4DBBBE"/>
		<stop  offset="0.4351" style="stop-color:#27B4B7"/>
		<stop  offset="0.5398" style="stop-color:#00B0B5"/>
		<stop  offset="0.7809" style="stop-color:#00AFB3"/>
	</linearGradient>
	<path style="fill:url(#SVGID_2_);" d="M72.305,86.458c-3.002-1.891-6.007-3.776-9.013-5.662c-4.646-2.916-9.295-5.832-13.931-8.767
		c-0.164-0.104-0.35-0.155-0.535-0.155c-0.187,0-0.373,0.052-0.536,0.156c-4.598,2.92-9.213,5.813-13.827,8.707
		c-3.037,1.904-6.073,3.808-9.104,5.72c0.005-24.33,0.005-48.652,0-72.982c-0.002-0.653,0.1-2.236,1.1-2.902
		c0.809-0.515,1.949-0.549,3.051-0.581c6.452,0.004,12.89,0.007,19.327,0.007c6.438,0,12.874-0.003,19.311-0.008l0.097,0.003
		c1.191,0.036,2.424,0.072,3.2,0.757c0.582,0.589,0.873,1.639,0.866,3.256c-0.011,17.59-0.009,35.178-0.007,52.766L72.305,86.458z"
		/>
	<path style="fill:#007C84;" d="M29.552,10.991c6.429,0.005,12.857,0.008,19.284,0.008c6.427,0,12.854-0.003,19.28-0.008
		l0.097,0.003c0.982,0.029,1.996,0.06,2.519,0.467c0.393,0.442,0.582,1.275,0.577,2.55c-0.011,17.709-0.009,35.42-0.007,53.13
		l0.001,17.506c-2.509-1.579-5.021-3.154-7.532-4.73c-4.629-2.904-9.258-5.809-13.876-8.732c-0.327-0.207-0.698-0.31-1.07-0.31
		c-0.372,0-0.745,0.104-1.072,0.312c-4.604,2.924-9.305,5.872-13.85,8.722c-2.516,1.578-5.032,3.155-7.545,4.737
		c0.004-23.725,0.004-47.445-0.001-71.177c-0.004-1.001,0.247-1.791,0.619-2.04C27.565,11.053,28.508,11.022,29.552,10.991
		 M68.145,8.991c-6.436,0.005-12.872,0.008-19.309,0.008S35.962,8.996,29.523,8.991c-1.226,0.036-2.549,0.068-3.62,0.75
		c-1.194,0.797-1.55,2.375-1.545,3.734c0.005,24.934,0.005,49.862,0,74.795c8.146-5.146,16.333-10.23,24.468-15.397
		c8.146,5.157,16.327,10.256,24.478,15.397c0-24.751-0.01-49.508,0.005-74.259c0.005-1.396-0.175-2.974-1.205-4.011
		C71.024,9.048,69.505,9.032,68.145,8.991L68.145,8.991z"/>
</g>
<g>
	<linearGradient id="SVGID_3_" gradientUnits="userSpaceOnUse" x1="31.8929" y1="32.0542" x2="65.6312" y2="191.5043">
		<stop  offset="0" style="stop-color:#FFFFFF"/>
		<stop  offset="0.0636" style="stop-color:#D4EAEC"/>
		<stop  offset="0.1515" style="stop-color:#A1D5D9"/>
		<stop  offset="0.2428" style="stop-color:#78C6C9"/>
		<stop  offset="0.3369" style="stop-color:#4DBBBE"/>
		<stop  offset="0.4351" style="stop-color:#27B4B7"/>
		<stop  offset="0.5398" style="stop-color:#00B0B5"/>
		<stop  offset="0.7809" style="stop-color:#00AFB3"/>
	</linearGradient>
	<path style="fill:url(#SVGID_3_);" d="M60.946,95.188c-3.007-1.894-6.018-3.782-9.028-5.672c-4.642-2.912-9.284-5.825-13.916-8.757
		c-0.163-0.104-0.349-0.155-0.535-0.155c-0.187,0-0.373,0.052-0.536,0.156c-4.598,2.92-9.213,5.813-13.827,8.707
		c-3.037,1.904-6.073,3.808-9.104,5.72c0.005-24.33,0.005-48.652,0-72.982c-0.002-0.653,0.1-2.236,1.1-2.902
		c0.808-0.514,1.947-0.548,3.049-0.581c6.454,0.004,12.892,0.007,19.329,0.007c6.438,0,12.874-0.003,19.311-0.008l0.097,0.003
		c1.191,0.036,2.424,0.072,3.2,0.757c0.582,0.589,0.873,1.639,0.866,3.256c-0.011,17.59-0.009,35.178-0.007,52.766L60.946,95.188z"
		/>
	<path style="fill:#007C84;" d="M18.194,19.72c6.429,0.005,12.857,0.008,19.284,0.008c6.427,0,12.854-0.003,19.28-0.008l0.097,0.003
		c0.982,0.029,1.996,0.06,2.519,0.467c0.393,0.442,0.582,1.276,0.577,2.55c-0.011,17.709-0.009,35.42-0.007,53.13l0.001,17.506
		c-2.509-1.579-5.021-3.154-7.532-4.73c-4.629-2.904-9.258-5.809-13.876-8.732c-0.327-0.207-0.698-0.31-1.07-0.31
		c-0.372,0-0.745,0.104-1.072,0.312c-4.604,2.924-9.305,5.872-13.85,8.722c-2.516,1.578-5.032,3.155-7.545,4.737
		C15.005,69.649,15.005,45.929,15,22.197c-0.004-1.001,0.247-1.791,0.619-2.04C16.207,19.783,17.15,19.751,18.194,19.72
		 M56.787,17.72c-6.436,0.005-12.872,0.008-19.309,0.008s-12.874-0.003-19.313-0.008c-1.226,0.036-2.549,0.068-3.62,0.75
		c-1.194,0.797-1.55,2.375-1.545,3.734C13.005,47.138,13.005,72.066,13,97c8.146-5.146,16.333-10.23,24.468-15.397
		C45.614,86.76,53.795,91.859,61.946,97c0-24.751-0.01-49.508,0.005-74.259c0.005-1.396-0.175-2.974-1.205-4.011
		C59.665,17.778,58.146,17.762,56.787,17.72L56.787,17.72z"/>
</g>
<g>
	<path style="fill:#07828A;" d="M37.528,21.069c0,0,3.43,10.68,4.819,14.858c4.942,0.218,15.473,0.378,15.473,0.378
		s-8.761,6.809-12.166,9.278c1.371,4.632,4.486,14.636,4.486,14.636s-8.506-6.037-12.421-8.816
		c-4.081,2.804-12.225,8.468-12.225,8.468s2.95-9.631,4.266-14.493c-3.952-2.897-12.474-9.309-12.474-9.309
		s11.356-0.073,15.585-0.185C34.154,31.538,37.528,21.069,37.528,21.069z"/>
</g>
</svg>
