<?xml version="1.0" encoding="iso-8859-1"?>

<svg version="1.1" id="Capa_1" xmlns="http://www.w3.org/2000/svg" xmlns:xlink="http://www.w3.org/1999/xlink" x="0px" y="0px"
	 viewBox="0 0 97 97" style="enable-background:new 0 0 97 97;" xml:space="preserve">
<linearGradient id="SVGID_1_" gradientUnits="userSpaceOnUse" x1="1" y1="53.1533" x2="96" y2="53.1533">
	<stop  offset="0.1452" style="stop-color:#076A72"/>
	<stop  offset="0.6684" style="stop-color:#33A8AE"/>
</linearGradient>
<path style="fill:url(#SVGID_1_);stroke:#118389;stroke-width:2;stroke-linecap:round;stroke-linejoin:round;stroke-miterlimit:22.9256;" d="
	M3.28,11.459c1.125-0.933,2.589-1.373,4.036-1.357c3.373-0.006,6.747-0.008,10.12,0.002c0,3.17-0.002,6.343-0.007,9.513
	c-0.002,0.627,0.018,1.256,0.106,1.877c0.306,2.148,1.711,4.1,3.652,5.053c1.494,0.789,3.236,0.821,4.88,0.705
	c1.961-0.125,3.833-1.183,4.978-2.786c0.904-1.23,1.321-2.762,1.306-4.281c-0.002-3.363-0.006-6.725,0.006-10.086
	c11.014-0.006,22.028-0.004,33.044,0c0.015,3.422-0.006,6.845,0.011,10.267c0,2.43,1.366,4.807,3.499,5.962
	c1.677,0.963,3.687,0.954,5.557,0.808c1.926-0.162,3.909-1.032,4.984-2.713c0.726-1.079,0.883-2.417,0.874-3.689
	c-0.021-3.542,0.009-7.084-0.009-10.627c3.127-0.009,6.253-0.026,9.379-0.008c1.531-0.015,3.074,0.497,4.223,1.532
	c1.299,1.118,2.028,2.807,2.082,4.514v74.12c-0.091,1.827-0.969,3.622-2.447,4.71c-1.15,0.896-2.62,1.269-4.058,1.237
	c-27.392-0.002-54.783,0.004-82.175-0.004c-1.599,0.024-3.214-0.539-4.379-1.657C1.757,93.453,1.084,91.867,1,90.258V16.135
	C1.059,14.344,1.868,12.573,3.28,11.459 M7.457,34c0,18.537-0.002,37.076,0,55.612c27.523,0.015,55.046,0.007,82.567,0.004
	c0.002-18.539,0.002-37.077,0-55.616C62.501,34,7,34,7,34"/>
<path style="fill:#FBB579;" d="M22.967,2.818c1.406-0.175,2.998-0.305,4.239,0.517c1.068,0.691,1.675,1.961,1.653,3.221
	c-0.004,4.649,0.018,9.302-0.007,13.951c0.007,1.824-1.502,3.495-3.329,3.625c-1.274,0.064-2.699,0.178-3.791-0.616
	c-1.037-0.691-1.653-1.927-1.619-3.171c0-4.349-0.017-8.699-0.006-13.05c0.002-0.728-0.026-1.483,0.243-2.175
	C20.769,3.98,21.784,3.086,22.967,2.818"/>
<path style="fill:#FBB579;" d="M71.343,2.809c0.983-0.274,2.028-0.222,3.035-0.136c1.789,0.219,3.219,1.908,3.154,3.708
	c0.009,4.656,0.004,9.315,0.006,13.971c0.026,1.704-1.257,3.322-2.941,3.632c-0.978,0.143-1.987,0.149-2.96-0.022
	c-1.651-0.351-2.877-1.95-2.851-3.629c-0.013-4.645-0.013-9.292-0.002-13.938C68.755,4.81,69.819,3.276,71.343,2.809"/>
<linearGradient id="SVGID_2_" gradientUnits="userSpaceOnUse" x1="26.0575" y1="92.718" x2="79.0328" y2="39.7428">
	<stop  offset="0.1452" style="stop-color:#076A72"/>
	<stop  offset="0.6684" style="stop-color:#33A8AE"/>
</linearGradient>
<path style="fill:url(#SVGID_2_);" d="M52.05,41.622c3.588-0.059,7.18-0.013,10.77-0.018c0.454-0.042,0.919,0.305,0.892,0.787
	c0.029,2.886-0.004,5.774,0.029,8.66c-0.033,0.454,0.085,1.057-0.371,1.344c-0.34,0.175-0.741,0.118-1.11,0.138
	c-3.313-0.024-6.625-0.006-9.938-0.017c-0.487,0.066-0.991-0.3-0.956-0.816c-0.022-3.086-0.024-6.175-0.002-9.261
	C51.346,42.041,51.639,41.644,52.05,41.622 M69.694,41.624c3.585-0.068,7.175-0.007,10.761-0.02c0.55-0.066,1.004,0.434,0.919,0.978
	c-0.009,3.013,0.026,6.026-0.002,9.039c0.057,0.515-0.399,0.956-0.91,0.895c-3.375,0.029-6.75-0.015-10.125,0.007
	c-0.358-0.024-0.785,0.055-1.07-0.215c-0.274-0.211-0.244-0.587-0.261-0.893c0.017-2.993-0.026-5.987,0.011-8.98
	C68.994,42.041,69.284,41.646,69.694,41.624 M16.542,56.999c0.342-0.099,0.706-0.063,1.059-0.072
	c3.311,0.022,6.622-0.028,9.932,0.011c0.513-0.063,0.95,0.397,0.884,0.904c0.015,2.947-0.002,5.892,0.009,8.838
	c-0.02,0.3,0.026,0.653-0.198,0.893c-0.257,0.325-0.717,0.257-1.085,0.281c-3.37-0.013-6.739,0-10.107-0.007
	c-0.489,0.063-1.007-0.289-0.976-0.814c-0.033-2.938,0.015-5.877-0.009-8.816C16.044,57.773,16.04,57.183,16.542,56.999
	 M34.193,56.997c0.274-0.081,0.566-0.063,0.849-0.07c3.379,0.017,6.759-0.022,10.138,0.011c0.502-0.061,0.945,0.379,0.888,0.881
	c0.018,3.018,0.002,6.037,0.009,9.055c0.079,0.535-0.358,1.053-0.915,0.976c-3.495,0-6.991,0.002-10.486-0.002
	c-0.494,0.068-1-0.303-0.96-0.825c-0.039-3,0.007-6-0.011-9C33.686,57.63,33.769,57.148,34.193,56.997 M51.835,57.001
	c0.278-0.088,0.575-0.064,0.864-0.074c3.377,0.007,6.754-0.015,10.131,0.011c0.513-0.063,0.958,0.391,0.888,0.904
	c0.013,3.007,0.002,6.015,0.013,9.022c0.077,0.544-0.36,1.068-0.93,0.987c-3.487-0.002-6.976,0-10.465-0.004
	c-0.507,0.074-1.015-0.316-0.972-0.847c-0.031-2.987,0.002-5.976-0.009-8.965C51.337,57.641,51.414,57.161,51.835,57.001
	 M69.488,57.001c0.52-0.125,1.064-0.055,1.594-0.07c3.002-0.018,6.002,0.009,9.002-0.004c0.358,0.02,0.794-0.048,1.064,0.246
	c0.237,0.222,0.213,0.568,0.23,0.866c-0.002,2.814-0.007,5.629,0.011,8.445c-0.026,0.397,0.057,0.895-0.294,1.18
	c-0.278,0.239-0.667,0.175-1.002,0.197c-3.423-0.026-6.846,0.006-10.267-0.02c-0.458,0.026-0.848-0.379-0.811-0.833
	c-0.018-3.041-0.013-6.083-0.006-9.123C68.994,57.527,69.124,57.135,69.488,57.001 M16.735,72.288
	c3.594-0.05,7.193-0.02,10.789-0.02c0.474-0.048,0.932,0.335,0.89,0.827c0.026,2.949-0.004,5.899,0.015,8.849
	c-0.022,0.344,0.035,0.763-0.25,1.02c-0.274,0.265-0.684,0.202-1.03,0.224c-3.439-0.02-6.879,0.017-10.318-0.018
	c-0.465,0.02-0.816-0.423-0.774-0.869c-0.011-3.002,0.006-6.004-0.002-9.004C16.007,72.852,16.237,72.321,16.735,72.288
	 M34.386,72.288c3.596-0.048,7.195-0.024,10.793-0.018c0.471-0.048,0.921,0.335,0.888,0.824c0.018,3.07,0.013,6.144,0.002,9.217
	c0.05,0.498-0.395,0.921-0.89,0.868c-3.5,0.013-7.002,0.006-10.504,0.004c-0.509,0.07-1.026-0.329-0.965-0.869
	c-0.018-3.007,0.009-6.019-0.002-9.026C33.659,72.843,33.888,72.315,34.386,72.288 M52.034,72.288
	c3.594-0.051,7.193-0.022,10.789-0.02c0.476-0.05,0.934,0.335,0.891,0.829c0.017,3.074,0.013,6.151,0.002,9.224
	c0.059,0.507-0.399,0.917-0.893,0.858c-3.498,0.009-6.997,0.004-10.495,0.002c-0.48,0.063-0.987-0.287-0.96-0.8
	c-0.048-3.029,0.006-6.061-0.013-9.09C51.315,72.852,51.536,72.319,52.034,72.288 M69.672,72.29
	c3.592-0.061,7.19-0.018,10.783-0.022c0.476-0.053,0.945,0.324,0.91,0.822c0.031,2.949-0.009,5.899,0.022,8.85
	c-0.022,0.346,0.029,0.772-0.257,1.029c-0.222,0.228-0.563,0.202-0.853,0.219c-3.439-0.009-6.877,0.004-10.316-0.006
	c-0.473,0.057-0.973-0.289-0.941-0.796c-0.035-3.081-0.007-6.164-0.006-9.245C68.986,72.744,69.249,72.321,69.672,72.29
	L69.672,72.29z"/>
<linearGradient id="SVGID_3_" gradientUnits="userSpaceOnUse" x1="-1848.7148" y1="1052.9784" x2="-1844.7148" y2="1052.9784" gradientTransform="matrix(1 0 0 -1 1871.7148 1066.4102)">
	<stop  offset="0" style="stop-color:#FCBA74"/>
	<stop  offset="1" style="stop-color:#FFFFFF"/>
</linearGradient>
<path style="fill:url(#SVGID_3_);" d="M27,19.6c0,1.639-0.895,2.967-2,2.967l0,0c-1.105,0-2-1.327-2-2.967V7.263
	c0-1.638,0.895-2.966,2-2.966l0,0c1.104,0,2,1.327,2,2.966V19.6z"/>
<linearGradient id="SVGID_4_" gradientUnits="userSpaceOnUse" x1="-1799.7148" y1="1053.0631" x2="-1795.7148" y2="1053.0631" gradientTransform="matrix(1 0 0 -1 1871.7148 1066.4102)">
	<stop  offset="0" style="stop-color:#FCBA74"/>
	<stop  offset="1" style="stop-color:#FFFFFF"/>
</linearGradient>
<path style="fill:url(#SVGID_4_);" d="M76,19.515c0,1.639-0.895,2.967-2,2.967l0,0c-1.105,0-2-1.327-2-2.967V7.178
	c0-1.638,0.895-2.966,2-2.966l0,0c1.105,0,2,1.327,2,2.966V19.515z"/>
</svg>
