<?xml version="1.0" encoding="iso-8859-1"?>

<svg version="1.1" xmlns="http://www.w3.org/2000/svg" xmlns:xlink="http://www.w3.org/1999/xlink" x="0px" y="0px"
	 viewBox="0 0 97 97" style="enable-background:new 0 0 97 97;" xml:space="preserve">
<g id="Capa_1">
	<g>
		<linearGradient id="XMLID_3_" gradientUnits="userSpaceOnUse" x1="24.2667" y1="50.8394" x2="24.8224" y2="95.3601">
			<stop  offset="0" style="stop-color:#FFFFFF"/>
			<stop  offset="0.0636" style="stop-color:#D4EAEC"/>
			<stop  offset="0.1515" style="stop-color:#A1D5D9"/>
			<stop  offset="0.2428" style="stop-color:#78C6C9"/>
			<stop  offset="0.3369" style="stop-color:#4DBBBE"/>
			<stop  offset="0.4351" style="stop-color:#27B4B7"/>
			<stop  offset="0.5398" style="stop-color:#00B0B5"/>
			<stop  offset="0.7809" style="stop-color:#00AFB3"/>
		</linearGradient>
		<path id="XMLID_39_" style="fill:url(#XMLID_3_);" d="M24.25,71.75c-12.268,0-22.683-10.089-23.228-22.25h46.455
			C46.933,61.661,36.518,71.75,24.25,71.75z"/>
		<path id="XMLID_36_" style="fill:#007C84;" d="M46.406,50.5C45.357,61.666,35.638,70.75,24.25,70.75S3.143,61.666,2.094,50.5
			H46.406 M48.5,48.5H0c0,13.227,11.023,24.25,24.25,24.25S48.5,61.727,48.5,48.5L48.5,48.5z"/>
	</g>
	<g id="XMLID_11_">
		<linearGradient id="XMLID_4_" gradientUnits="userSpaceOnUse" x1="45.942" y1="24.2802" x2="14.0407" y2="24.7479">
			<stop  offset="0" style="stop-color:#FFFFFF"/>
			<stop  offset="0.0636" style="stop-color:#D4EAEC"/>
			<stop  offset="0.1515" style="stop-color:#A1D5D9"/>
			<stop  offset="0.2428" style="stop-color:#78C6C9"/>
			<stop  offset="0.3369" style="stop-color:#4DBBBE"/>
			<stop  offset="0.4351" style="stop-color:#27B4B7"/>
			<stop  offset="0.5398" style="stop-color:#00B0B5"/>
			<stop  offset="0.7809" style="stop-color:#00AFB3"/>
		</linearGradient>
		<path id="XMLID_7_" style="fill:url(#XMLID_4_);" d="M48,47.478C35.839,46.933,25.75,36.518,25.75,24.25S35.839,1.567,48,1.022
			V47.478z"/>
		<path id="XMLID_8_" style="fill:#007C84;" d="M47,2.094v44.313C35.834,45.357,26.75,35.638,26.75,24.25S35.834,3.143,47,2.094
			 M49,0C35.773,0,24.75,11.023,24.75,24.25S35.773,48.5,49,48.5V0L49,0z"/>
	</g>
	<g id="XMLID_17_">
		<linearGradient id="XMLID_5_" gradientUnits="userSpaceOnUse" x1="72.7412" y1="47.297" x2="72.2064" y2="4.6511">
			<stop  offset="0" style="stop-color:#FFFFFF"/>
			<stop  offset="0.0636" style="stop-color:#D4EAEC"/>
			<stop  offset="0.1515" style="stop-color:#A1D5D9"/>
			<stop  offset="0.2428" style="stop-color:#78C6C9"/>
			<stop  offset="0.3369" style="stop-color:#4DBBBE"/>
			<stop  offset="0.4351" style="stop-color:#27B4B7"/>
			<stop  offset="0.5398" style="stop-color:#00B0B5"/>
			<stop  offset="0.7809" style="stop-color:#00AFB3"/>
		</linearGradient>
		<path id="XMLID_13_" style="fill:url(#XMLID_5_);" d="M49.522,48c0.544-12.161,10.959-22.25,23.228-22.25S95.434,35.839,95.978,48
			H49.522z"/>
		<path id="XMLID_14_" style="fill:#007C84;" d="M72.75,26.75c11.388,0,21.107,9.084,22.156,20.25H50.594
			C51.643,35.834,61.362,26.75,72.75,26.75 M72.75,24.75C59.523,24.75,48.5,35.773,48.5,49H97C97,35.773,85.977,24.75,72.75,24.75
			L72.75,24.75z"/>
	</g>
	<g id="XMLID_23_">
		<linearGradient id="XMLID_24_" gradientUnits="userSpaceOnUse" x1="50.7234" y1="72.75" x2="72.9734" y2="72.75">
			<stop  offset="0" style="stop-color:#FFFFFF"/>
			<stop  offset="0.0636" style="stop-color:#D4EAEC"/>
			<stop  offset="0.1515" style="stop-color:#A1D5D9"/>
			<stop  offset="0.2428" style="stop-color:#78C6C9"/>
			<stop  offset="0.3369" style="stop-color:#4DBBBE"/>
			<stop  offset="0.4351" style="stop-color:#27B4B7"/>
			<stop  offset="0.5398" style="stop-color:#00B0B5"/>
			<stop  offset="0.7809" style="stop-color:#00AFB3"/>
		</linearGradient>
		<path id="XMLID_19_" style="fill:url(#XMLID_24_);" d="M49.5,49.522c12.161,0.544,22.25,10.959,22.25,23.228
			S61.661,95.434,49.5,95.978V49.522z"/>
		<path id="XMLID_20_" style="fill:#007C84;" d="M50.5,50.594c11.166,1.049,20.25,10.768,20.25,22.156S61.666,93.857,50.5,94.906
			V50.594 M48.5,48.5V97c13.227,0,24.25-11.023,24.25-24.25S61.727,48.5,48.5,48.5L48.5,48.5z"/>
	</g>
</g>
<g id="Capa_2">
</g>
</svg>
