<?xml version="1.0" encoding="iso-8859-1"?>

<svg version="1.1" id="Capa_1" xmlns="http://www.w3.org/2000/svg" xmlns:xlink="http://www.w3.org/1999/xlink" x="0px" y="0px"
	 viewBox="0 0 97 97" style="enable-background:new 0 0 97 97;" xml:space="preserve">
<g>
	<g>
		<linearGradient id="SVGID_1_" gradientUnits="userSpaceOnUse" x1="16.4421" y1="104.0275" x2="80.5278" y2="39.9418">
			<stop  offset="0.1658" style="stop-color:#0A6B73"/>
			<stop  offset="0.5435" style="stop-color:#33A9AF"/>
		</linearGradient>
		<path style="fill:url(#SVGID_1_);" d="M85.006,95.996l-73.383,0.002c-2.318-0.027-4.549-1.072-5.955-2.796
			c-0.738-0.876-1.213-1.961-1.348-3.068l-0.634-6.051c-0.813-7.759-1.627-15.519-2.436-23.277L1.167,60.08
			c-0.155-1.32-0.301-2.567,0.042-3.713c0.608-2.385,2.674-4.234,5.153-4.642c0.438-0.083,0.908-0.123,1.505-0.129L86.796,51.6
			c0.275,0,1.646-0.014,1.646-0.014c1.459,0,2.65,0.106,3.723,0.623c2.474,1.044,4.089,3.733,3.802,6.275
			c-0.539,5.223-1.086,10.435-1.633,15.646C93.801,79.2,93.269,84.27,92.744,89.34c-0.084,1.251-0.367,2.259-0.843,3.032
			C90.545,94.612,87.99,96,85.232,96L85.006,95.996z"/>
		<path style="fill:#17717A;" d="M88.445,52.586c1.321,0,2.384,0.089,3.284,0.523c0.03,0.015,0.061,0.028,0.092,0.042
			c2.035,0.858,3.39,3.103,3.149,5.241c-0.545,5.284-1.1,10.567-1.654,15.85c-0.525,4.998-1.049,9.996-1.566,14.995
			c-0.002,0.024-0.004,0.048-0.006,0.072c-0.07,1.051-0.304,1.905-0.701,2.551c-1.156,1.908-3.436,3.142-5.81,3.142
			c-0.066,0-0.132-0.001-0.198-0.001c-0.02,0-0.039,0-0.059,0H57.879H43.06H28.24H11.646c-2.037,0-3.982-0.932-5.224-2.454
			c-0.604-0.717-0.998-1.617-1.106-2.5l-0.621-5.926c-0.819-7.806-1.637-15.613-2.451-23.42c-0.026-0.245-0.054-0.491-0.083-0.738
			c-0.142-1.215-0.277-2.362,0.007-3.309c0.008-0.026,0.015-0.053,0.022-0.08c0.492-1.935,2.275-3.523,4.335-3.862
			c0.018-0.003,0.035-0.006,0.052-0.009c0.353-0.068,0.754,0.1,1.279,0.094L29.83,53h17.42h17.42l21.87-0.2l0.257-0.1
			c0.28,0,0.561-0.054,0.843-0.057C87.908,52.64,88.176,52.586,88.445,52.586 M88.445,50.786c-0.551,0-1.102,0.214-1.647,0.214
			c-0.08,0-0.16,0-0.24,0c-7.297,0-14.59,0-21.887,0c-11.614,0-23.227,0-34.84,0c-7.324,0-14.651-0.201-21.974-0.203
			c-0.554,0.006-1.11-0.063-1.656,0.042c-2.694,0.443-5.221,2.432-5.949,5.292c-0.471,1.576-0.164,3.204,0.004,4.803
			c1.02,9.782,2.047,19.551,3.072,29.333c0.162,1.326,0.728,2.58,1.566,3.574C6.557,95.881,9.106,97,11.623,97
			c5.54,0,11.078,0,16.618,0c9.879,0,19.76,0,29.639,0c9.032,0,18.065-0.001,27.097-0.003C85.062,97,85.147,97,85.233,97
			c2.919,0,5.915-1.454,7.52-4.104c0.631-1.026,0.905-2.245,0.986-3.454c1.063-10.283,2.159-20.563,3.22-30.846
			c0.355-3.145-1.668-6.054-4.362-7.189C91.285,50.775,89.865,50.786,88.445,50.786L88.445,50.786z"/>
	</g>
</g>
<g>
	<g>
		<linearGradient id="SVGID_2_" gradientUnits="userSpaceOnUse" x1="31.6112" y1="37.2455" x2="13.094" y2="5.1727">
			<stop  offset="0" style="stop-color:#0A6B73"/>
			<stop  offset="0.3978" style="stop-color:#33A9AF"/>
		</linearGradient>
		<path style="fill:url(#SVGID_2_);" d="M15.805,45.132c0,0-4.783,0.004-5.281,0.002c1.008-6.217,2.249-13.154,3.452-19.876
			c1.269-7.091,2.58-14.424,3.616-20.896c0.212-1.443,1.198-2.699,2.454-3.137c0.482-0.194,1-0.218,1.494-0.218
			c0,0,0.526,0.005,0.53,0.005c0,0,12.592,0,14.267,0.003c-0.518,1.874-0.979,3.224-1.667,5.233
			c-0.179,0.523-0.372,1.088-0.584,1.714l-4.88,0.014C27.852,7.977,26.598,8,25.811,8c-0.001,0-0.003,0-0.004,0
			c-0.934,0-1.683,0.702-1.754,1.618c-0.857,5.419-1.987,11.754-3.08,17.889c-1.068,5.995-2.17,12.179-3.038,17.635
			C17.225,45.137,16.515,45.132,15.805,45.132z"/>
		<path style="fill:#17717A;" d="M21.54,2.006c0.134,0,0.268,0.002,0.402,0.004l0.127-0.004L25.05,2h3.094h3.093
			c1.257,0,2.515,0.006,3.772,0.007c-0.38,1.265-0.767,2.419-1.283,3.926C33.612,6.264,33.493,7,33.368,7h-1.697l-2.457-0.02
			c-1.325,0-2.556-0.008-3.35-0.003c-0.033-0.001-0.067-0.007-0.1-0.007c-1.375,0-2.541,1.069-2.7,2.454
			c-0.864,5.473-1.989,11.785-3.076,17.891c-1.014,5.694-2.06,11.563-2.906,16.818c-0.421-0.001-0.843-0.002-1.264-0.002
			l-1.903-0.066L12.02,44c-0.107,0-0.214,0-0.32,0c0.971-6,2.134-12.342,3.263-18.651c1.269-7.09,2.58-14.387,3.62-20.889
			c0.155-1.056,0.892-1.995,1.792-2.309c0.031-0.011,0.061-0.014,0.091-0.026C20.743,2.013,21.146,2.006,21.54,2.006 M21.54,0.006
			c-0.619,0-1.24,0.037-1.824,0.274c-1.617,0.564-2.849,2.14-3.112,3.924c-2.077,12.975-5.181,28.946-7.253,41.924
			c0.89,0.007,1.779,0.009,2.669,0.009c1.266,0,2.533-0.004,3.799-0.004c0.99,0,1.98,0.003,2.97,0.012
			c1.747-11.156,4.502-25.31,6.261-36.464c0.03-0.39,0.347-0.714,0.715-0.714c0.018,0,0.036,0.001,0.054,0.002
			c0.787-0.006,2.042,0.011,3.396,0.011C30.754,8.979,32.421,9,33.672,9c0.435,0,0.82,0,1.132,0c1.336-4,1.956-5.565,2.833-8.964
			c-2.133-0.005-4.267-0.016-6.4-0.016c-2.062,0-4.124-0.004-6.186-0.004c-0.993,0-1.987-0.003-2.98-0.003
			C21.894,0.011,21.717,0.006,21.54,0.006L21.54,0.006z"/>
	</g>
	<g>
		<linearGradient id="SVGID_3_" gradientUnits="userSpaceOnUse" x1="91.0639" y1="43.0979" x2="65.5423" y2="-1.1068">
			<stop  offset="0" style="stop-color:#0A6B73"/>
			<stop  offset="0.3978" style="stop-color:#33A9AF"/>
		</linearGradient>
		<path style="fill:url(#SVGID_3_);" d="M80.136,45.14c-0.863-5.32-1.935-11.35-2.973-17.189c-1.12-6.308-2.279-12.829-3.179-18.472
			c-0.088-0.843-0.832-1.517-1.725-1.517c-0.024,0-0.077,0.003-0.127,0.006c-0.658-0.005-1.638-0.007-2.724-0.007l-5.428,0.002
			c-0.381-1.049-0.657-2.077-0.946-3.155c-0.324-1.206-0.657-2.443-1.156-3.8c1.274,0.004,6.912,0.003,6.912,0.003l6.354,0.003
			c0.205,0,1.006-0.015,1.2-0.015c0.461,0,0.999,0.019,1.492,0.161c1.339,0.387,2.417,1.693,2.619,3.176
			c1.038,6.444,2.338,13.716,3.596,20.749c1.212,6.782,2.463,13.781,3.482,20.05l-4.702-0.003
			C81.934,45.132,81.034,45.134,80.136,45.14z"/>
		<path style="fill:#17717A;" d="M76.344,2c0.392,0,0.843,0.014,1.215,0.121c0.957,0.276,1.759,1.265,1.915,2.398
			c1.037,6.436,2.339,13.72,3.598,20.765c1.136,6.354,2.306,12.9,3.286,18.852l-1.452-0.002l-2.064-0.002
			c-0.619,0-1.238,0.001-1.857,0.004c-0.839-5.116-1.853-10.823-2.837-16.36c-1.117-6.289-2.273-12.792-3.17-18.418
			c-0.178-1.371-1.334-2.396-2.719-2.396c-0.059,0-0.119,0.002-0.178,0.006c-0.652-0.005-1.595-0.006-2.638-0.006l-2.471,0.02
			L64.779,7c-0.028,0-0.056,0-0.083,0C64.437,6,64.222,5.392,64,4.566C63.779,3.744,63.555,2.9,63.277,2.02
			c0.806,0.001,1.612-0.003,2.418-0.003l3.111-0.004l3.109-0.003c0.998,0,1.995,0,2.961,0.002l0.269,0.002
			c0.211,0,0.423-0.004,0.635-0.008C75.968,2.004,76.156,2,76.344,2 M76.344,0c-0.4,0-0.802,0.015-1.199,0.015
			c-0.078,0-0.156-0.001-0.233-0.002c-0.999-0.002-1.998-0.003-2.997-0.003c-2.074,0-4.147,0.003-6.22,0.003
			c-1.765,0-3.531-0.002-5.296-0.011c1.482,3.409,1.719,6.035,2.894,8.959c0.391,0.002,0.903,0.002,1.487,0.002
			c1.365,0,3.125-0.003,4.664-0.003c1.091,0,2.071,0.002,2.72,0.007c0.032-0.004,0.064-0.007,0.096-0.007
			c0.362,0,0.696,0.277,0.738,0.674c1.781,11.167,4.498,25.346,6.289,36.512c1.186-0.013,2.371-0.016,3.557-0.016
			c1.374,0,2.748,0.005,4.122,0.005c0.581,0,1.163-0.001,1.745-0.003c-2.08-12.979-5.171-28.955-7.261-41.932
			C81.192,2.33,79.829,0.695,78.114,0.2C77.535,0.033,76.94,0,76.344,0L76.344,0z"/>
	</g>
</g>
<g>
	<linearGradient id="SVGID_4_" gradientUnits="userSpaceOnUse" x1="18.6813" y1="102.6961" x2="80.4132" y2="40.9642">
		<stop  offset="0.7043" style="stop-color:#FFFFFF;stop-opacity:0"/>
		<stop  offset="1" style="stop-color:#FFFFFF;stop-opacity:0.95"/>
	</linearGradient>
	<path style="fill:url(#SVGID_4_);" d="M9.552,52.461c0.513-0.097,1.036-0.126,1.557-0.132c24.661,0.004,49.324-0.002,73.987,0.002
		c1.9,0.015,4.984-0.145,6.767,0.7c2.532,1.049,3.66,3.355,3.012,6.692c-0.997,9.504-2.028,19.005-3.027,28.509
		c-0.076,1.117-0.334,2.244-0.927,3.192c-1.553,2.521-4.492,3.871-7.311,3.789c-22.987,0.004-45.972,0-68.959,0.002
		c-2.365-0.027-4.762-1.039-6.327-2.924c-0.788-0.919-1.32-2.083-1.472-3.308c-0.964-9.041-1.93-18.082-2.888-27.123
		c-0.158-1.478-0.447-3.006-0.004-4.462C4.643,54.755,7.02,52.87,9.552,52.461z"/>
</g>
<path style="fill:#17717A;" d="M29.946,68.851c-1.394,0.541-2.476,2.056-2.365,3.689c0.162,3.154,0.265,6.313,0.456,9.465
	c0.215,2.086,2.223,3.403,4.05,3.41c10.72,0.008,21.442,0.004,32.162,0.002c1.893,0.078,3.972-1.318,4.179-3.464
	c0.164-3.21,0.31-6.423,0.444-9.633c0.084-1.641-1.113-3.042-2.498-3.531c-2.149-0.823-4.995,0.428-5.547,2.925
	c-0.209,2.092-0.138,4.207-0.251,6.309c-8.218,0.023-16.439-0.013-24.657,0.017c-0.035-1.836-0.105-3.67-0.15-5.506
	c-0.004-0.722-0.203-1.444-0.601-2.027C34.049,68.761,31.766,68.088,29.946,68.851z"/>
<path style="fill:#FBB579;" d="M29.859,64.851c-1.41,0.541-2.504,2.056-2.392,3.689c0.164,3.154,0.268,6.313,0.462,9.465
	c0.217,2.086,2.248,3.403,4.096,3.41c10.842,0.008,21.685,0.004,32.527,0.002c1.915,0.078,4.017-1.318,4.226-3.464
	c0.166-3.21,0.313-6.423,0.45-9.633c0.085-1.641-1.126-3.042-2.526-3.531c-2.173-0.822-5.052,0.428-5.61,2.925
	c-0.211,2.092-0.14,4.207-0.254,6.309c-8.312,0.023-16.625-0.013-24.937,0.017c-0.035-1.836-0.107-3.67-0.152-5.506
	c-0.004-0.722-0.205-1.444-0.607-2.027C34.008,64.761,31.699,64.088,29.859,64.851z"/>
<g>
	
		<linearGradient id="SVGID_5_" gradientUnits="userSpaceOnUse" x1="-4350.7705" y1="673.1602" x2="-4346.7705" y2="673.1602" gradientTransform="matrix(0 -1 1 0 -624.6602 -4272.7705)">
		<stop  offset="0" style="stop-color:#FCBA74"/>
		<stop  offset="1" style="stop-color:#FFFFFF"/>
	</linearGradient>
	<path style="fill:url(#SVGID_5_);" d="M62.404,74c0.899,0,1.625,0.896,1.625,1.999l0,0c0,1.105-0.726,2.001-1.625,2.001H34.595
		c-0.897,0-1.624-0.896-1.624-2.001l0,0c0-1.103,0.727-1.999,1.624-1.999H62.404z"/>
</g>
<linearGradient id="SVGID_6_" gradientUnits="userSpaceOnUse" x1="-25.3341" y1="76.0245" x2="16.6659" y2="76.0245" gradientTransform="matrix(4.489700e-011 1 1 -4.489700e-011 -26.3775 26.3775)">
	<stop  offset="0" style="stop-color:#FBD19E"/>
	<stop  offset="0.031" style="stop-color:#FACA90"/>
	<stop  offset="0.1235" style="stop-color:#F7B86A"/>
	<stop  offset="0.2234" style="stop-color:#F5A949"/>
	<stop  offset="0.3304" style="stop-color:#F39D2F"/>
	<stop  offset="0.4473" style="stop-color:#F2931A"/>
	<stop  offset="0.5792" style="stop-color:#F18C0C"/>
	<stop  offset="0.7385" style="stop-color:#F08804"/>
	<stop  offset="1" style="stop-color:#F08701"/>
</linearGradient>
<path style="fill:url(#SVGID_6_);stroke:#17717A;stroke-width:2;stroke-linecap:round;stroke-linejoin:round;stroke-miterlimit:22.9256;" d="
	M33.407,28.445l13.291,13.322c1.707,1.703,4.225,1.703,5.924,0l13.291-13.322c1.699-1.711,1.767-4.304,0.068-6.015
	c-1.639-1.634-3.89-1.437-5.529,0.137L55,28.573V5.293c0-1.164-0.95-2.327-1.838-3.072c-2.04-1.917-5.959-1.437-7.316,1.027
	C45.505,3.864,45,4.617,45,5.301v23.281c0,0-5.869-5.938-5.869-6.006c-1.562-1.574-4.33-1.771-5.892-0.137
	C31.609,24.073,31.709,26.734,33.407,28.445"/>
</svg>
