<?xml version="1.0" encoding="iso-8859-1"?>

<svg version="1.1" xmlns="http://www.w3.org/2000/svg" xmlns:xlink="http://www.w3.org/1999/xlink" x="0px" y="0px"
	 viewBox="0 0 97 97" style="enable-background:new 0 0 97 97;" xml:space="preserve">
<g id="Capa_1">
</g>
<g id="Capa_2">
	<g>
		<g>
			<linearGradient id="SVGID_1_" gradientUnits="userSpaceOnUse" x1="77.5821" y1="18.1105" x2="21.2801" y2="70.613">
				<stop  offset="0" style="stop-color:#FBD19E"/>
				<stop  offset="0.0379" style="stop-color:#FAC88A"/>
				<stop  offset="0.1413" style="stop-color:#F6B15A"/>
				<stop  offset="0.2393" style="stop-color:#F49F33"/>
				<stop  offset="0.3292" style="stop-color:#F29218"/>
				<stop  offset="0.4083" style="stop-color:#F08A07"/>
				<stop  offset="0.468" style="stop-color:#F08701"/>
			</linearGradient>
			<path style="fill:url(#SVGID_1_);" d="M82.355,90.977c-4.784-4.779-9.568-9.56-14.344-14.347
				c5.65-6.069,8.465-14.349,7.551-22.349c-0.705-7.508-4.698-14.788-10.679-19.454c-4.948-3.974-11.219-6.167-17.645-6.167
				c-1.482,0-2.965,0.121-4.407,0.358c-5.893,0.907-11.456,3.728-15.653,7.941c-0.388,0.389-0.389,1.018-0.002,1.409
				c1.709,1.729,3.431,3.444,5.153,5.16c1.75,1.744,3.546,3.534,5.321,5.331c-4.625,0.007-9.249,0.009-13.873,0.009L1,48.865v-9.256
				c0-9.135-0.001-18.272,0.004-27.406c1.356,1.348,2.707,2.703,4.056,4.057c2.096,2.104,4.193,4.207,6.314,6.286
				c0.194,0.19,0.447,0.286,0.7,0.286c0.254,0,0.508-0.096,0.703-0.289c7.32-7.236,16.827-12.049,26.768-13.553
				c2.516-0.392,5.087-0.591,7.648-0.591c8.999,0,17.68,2.376,25.106,6.87c10.599,6.283,18.571,16.668,21.883,28.498
				c2.56,9.195,2.4,19.225-0.449,28.24C91.413,79.209,87.489,85.748,82.355,90.977z"/>
			<path style="fill:#028189;" d="M47.194,9.4L47.194,9.4c8.816,0,17.318,2.326,24.603,6.735
				c10.371,6.148,18.179,16.318,21.421,27.9c2.509,9.011,2.353,18.838-0.437,27.662c-2.166,6.727-5.758,12.86-10.441,17.853
				c-4.32-4.316-8.639-8.632-12.951-12.954c5.415-6.207,8.078-14.446,7.171-22.387c-0.732-7.797-4.867-15.336-11.04-20.151
				c-5.136-4.124-11.629-6.395-18.281-6.395c-1.536,0-3.074,0.125-4.548,0.369c-6.113,0.941-11.873,3.862-16.22,8.225
				c-0.775,0.778-0.778,2.037-0.005,2.818c1.715,1.734,3.442,3.455,5.168,5.175c1.192,1.188,2.406,2.397,3.619,3.615
				c-3.824,0.004-7.649,0.006-11.472,0.006l-9.482,0.066L4.815,48H2v-8.148c0-8.414-0.001-16.828,0.003-25.241
				c0.793,0.793,1.581,1.583,2.357,2.363c2.06,2.067,4.19,4.205,6.314,6.286c0.389,0.381,0.894,0.572,1.4,0.572
				c0.508,0,1.017-0.193,1.406-0.578c7.171-7.088,16.481-11.802,26.224-13.276C42.164,9.594,44.684,9.4,47.194,9.4 M47.193,7.4
				c-2.61,0-5.22,0.2-7.798,0.602c-10.28,1.555-19.94,6.534-27.322,13.83C8.02,17.858,4.056,13.861,0.006,9.877
				C-0.004,23.227,0.001,37,0.001,50c1.605,0,3.208,0,4.814,0c6.322,0,12.645-0.064,18.966-0.064c5.416,0,10.833-0.037,16.251-0.047
				c-4.009-4.105-8.109-8.126-12.143-12.206c4.055-4.07,9.432-6.795,15.107-7.668c1.404-0.232,2.823-0.35,4.243-0.349
				c6.126,0,12.246,2.112,17.029,5.953c5.786,4.514,9.614,11.466,10.3,18.777c0.929,8.134-2.201,16.48-7.958,22.247
				c5.241,5.256,10.492,10.502,15.744,15.748c5.68-5.539,9.902-12.537,12.33-20.081c2.934-9.281,3.07-19.435,0.459-28.811
				C91.767,31.43,83.592,20.802,72.817,14.414C65.128,9.76,56.159,7.399,47.193,7.4L47.193,7.4z"/>
		</g>
	</g>
</g>
</svg>
