<?xml version="1.0" encoding="iso-8859-1"?>

<svg version="1.1" id="Capa_1" xmlns="http://www.w3.org/2000/svg" xmlns:xlink="http://www.w3.org/1999/xlink" x="0px" y="0px"
	 viewBox="0 0 97 97" style="enable-background:new 0 0 97 97;" xml:space="preserve">
<g>
	<g>
		<linearGradient id="SVGID_1_" gradientUnits="userSpaceOnUse" x1="-5.106" y1="61.1167" x2="76.0062" y2="23.2935">
			<stop  offset="0" style="stop-color:#036973"/>
			<stop  offset="1" style="stop-color:#32A5AE"/>
		</linearGradient>
		<path style="fill:url(#SVGID_1_);" d="M39.642,96c-0.217,0-0.413-0.052-0.615-0.154L3.004,76.778C1.816,76.135,1,74.767,1,73.379
			V4.85C1,2.727,2.719,1,4.782,1h58.465C65.31,1,67,2.727,67,4.85V20h-7v-7.88C60,10.197,58.028,9,56.141,9H14.315l24.764,12.888
			C40.271,22.531,41,23.743,41,25.131V67h15.131C58.018,67,59,65.774,59,63.852V46h8v25.121C67,73.244,65.3,75,63.237,75H41v19.552
			C41,95.458,40.326,96,39.642,96z"/>
		<path style="fill:#028189;" d="M63.13,2C64.641,2,66,3.279,66,4.85V19h-5v-6.88C61,9.636,58.589,8,56.141,8h-37.77H10.26
			l7.181,3.616l21.154,11.071C39.468,23.157,40,24.116,40,25.131v41.15V68h2.155h13.976C58.579,68,60,66.335,60,63.851V47h6v24.121
			C66,72.693,64.749,74,63.238,74H42.066H40v1.971v18.58C40,94.919,39.75,95,39.641,95c-0.059,0-0.102-0.015-0.13-0.029
			L3.489,75.904C2.619,75.433,2,74.394,2,73.379V4.85C2,3.279,3.27,2,4.782,2H63 M63.247,0H4.782C2.179,0,0,2.177,0,4.85v68.529
			c0,1.772,1.05,3.473,2.544,4.283l36.038,19.076C38.936,96.917,39.276,97,39.636,97C40.888,97,42,95.999,42,94.552V76h21.238
			C65.851,76,68,73.784,68,71.121V45H58v18.851C58,65.228,57.477,66,56.131,66H42V25.131c0-1.772-0.952-3.318-2.456-4.128L18.371,10
			h37.77C57.487,10,59,10.743,59,12.12V21h9v-1.423v1v-1V4.85C68,2.177,65.856,0,63.253,0H63.247z"/>
	</g>
</g>
<linearGradient id="SVGID_2_" gradientUnits="userSpaceOnUse" x1="47.3159" y1="33.0434" x2="96.0159" y2="33.0434">
	<stop  offset="0" style="stop-color:#FBD19E"/>
	<stop  offset="0.031" style="stop-color:#FACA90"/>
	<stop  offset="0.1235" style="stop-color:#F7B86A"/>
	<stop  offset="0.2234" style="stop-color:#F5A949"/>
	<stop  offset="0.3304" style="stop-color:#F39D2F"/>
	<stop  offset="0.4473" style="stop-color:#F2931A"/>
	<stop  offset="0.5792" style="stop-color:#F18C0C"/>
	<stop  offset="0.7385" style="stop-color:#F08804"/>
	<stop  offset="1" style="stop-color:#F08701"/>
</linearGradient>
<path style="fill:url(#SVGID_2_);stroke:#028189;stroke-width:2;stroke-linecap:round;stroke-linejoin:round;stroke-miterlimit:22.9256;" d="
	M79.089,14.189L94.535,29.6c1.974,1.98,1.974,4.899,0,6.869L79.089,51.88c-1.984,1.97-4.99,2.049-6.974,0.079
	c-1.895-1.9-1.667-5.124,0.159-7.024L79.237,38H52.243c-1.349,0-2.698-0.488-3.562-1.518c-2.222-2.366-1.667-6.419,1.19-7.992
	c0.714-0.396,1.587-0.49,2.381-0.49h26.994c0,0-6.885-6.99-6.964-6.99c-1.825-1.811-2.054-5.113-0.159-6.924
	C74.019,12.196,77.104,12.22,79.089,14.189"/>
<line style="fill:none;stroke:#028189;stroke-width:2;stroke-miterlimit:10;" x1="41" y1="65" x2="41" y2="75"/>
</svg>
