<?xml version="1.0" encoding="iso-8859-1"?>

<svg version="1.1" xmlns="http://www.w3.org/2000/svg" xmlns:xlink="http://www.w3.org/1999/xlink" x="0px" y="0px"
	 viewBox="0 0 97 97" style="enable-background:new 0 0 97 97;" xml:space="preserve">
<g id="Capa_1">
</g>
<g id="Capa_2">
	<g>
		<linearGradient id="SVGID_1_" gradientUnits="userSpaceOnUse" x1="50.2522" y1="-21.0926" x2="59.6777" y2="113.6989">
			<stop  offset="0" style="stop-color:#03878F"/>
			<stop  offset="0.0113" style="stop-color:#138F96"/>
			<stop  offset="0.0449" style="stop-color:#3FA4AA"/>
			<stop  offset="0.0834" style="stop-color:#69B7BC"/>
			<stop  offset="0.125" style="stop-color:#8DC9CC"/>
			<stop  offset="0.1708" style="stop-color:#ACD8DA"/>
			<stop  offset="0.222" style="stop-color:#C6E4E6"/>
			<stop  offset="0.2805" style="stop-color:#DBEEEF"/>
			<stop  offset="0.3501" style="stop-color:#ECF6F6"/>
			<stop  offset="0.4383" style="stop-color:#F7FBFB"/>
			<stop  offset="0.5675" style="stop-color:#FDFEFE"/>
			<stop  offset="1" style="stop-color:#FFFFFF"/>
		</linearGradient>
		<ellipse style="fill-rule:evenodd;clip-rule:evenodd;fill:url(#SVGID_1_);" cx="55.127" cy="48.611" rx="31.253" ry="32.087"/>
		
			<line style="fill-rule:evenodd;clip-rule:evenodd;fill:none;stroke:#038089;stroke-width:7.6294;stroke-miterlimit:22.9256;" x1="65.117" y1="62.479" x2="46.491" y2="43.485"/>
		
			<line style="fill-rule:evenodd;clip-rule:evenodd;fill:none;stroke:#038089;stroke-width:7.6294;stroke-miterlimit:22.9256;" x1="71.194" y1="31.463" x2="46.988" y2="56.146"/>
		
			<ellipse style="fill-rule:evenodd;clip-rule:evenodd;fill:#FFFFFF;stroke:#038089;stroke-width:1.5259;stroke-linecap:round;stroke-linejoin:round;stroke-miterlimit:22.9256;" cx="52.744" cy="50.033" rx="4.602" ry="4.694"/>
	</g>
	<g>
		<linearGradient id="SVGID_2_" gradientUnits="userSpaceOnUse" x1="92.2589" y1="6.0164" x2="28.8301" y2="79.4593">
			<stop  offset="0" style="stop-color:#FFFFFF"/>
			<stop  offset="0.0636" style="stop-color:#D4EAEC"/>
			<stop  offset="0.1515" style="stop-color:#A1D5D9"/>
			<stop  offset="0.2428" style="stop-color:#78C6C9"/>
			<stop  offset="0.3369" style="stop-color:#4DBBBE"/>
			<stop  offset="0.4351" style="stop-color:#27B4B7"/>
			<stop  offset="0.5398" style="stop-color:#00B0B5"/>
			<stop  offset="0.7809" style="stop-color:#00AFB3"/>
		</linearGradient>
		<path style="fill:url(#SVGID_2_);" d="M55.136,91.352c-10.901,0-21.162-4.416-28.894-12.436c-0.374-0.388-0.374-1.001,0-1.389
			l6.291-6.524c0.188-0.195,0.448-0.306,0.72-0.306c0,0,0.001,0,0.002,0c0.272,0.001,0.533,0.112,0.721,0.309
			c5.648,5.904,13.163,9.156,21.161,9.156c16.547,0,30.009-13.979,30.009-31.162S71.683,17.838,55.136,17.838
			c-16.225,0-29.483,13.44-29.994,30.162h12.274c0.401,0,0.764,0.24,0.92,0.609s0.078,0.797-0.201,1.086L20.239,68.211
			c-0.19,0.196-0.45,0.305-0.719,0.305c-0.053,0-0.106-0.004-0.159-0.013c-0.323-0.052-0.6-0.258-0.742-0.553l-0.24-0.498
			L1.258,49.694c-0.279-0.289-0.357-0.716-0.201-1.085S1.576,48,1.978,48h12.301C14.794,25.108,32.924,6.649,55.136,6.649
			c22.535,0,40.868,18.999,40.868,42.351S77.671,91.352,55.136,91.352z"/>
		<path style="fill:#007C84;" d="M55.136,7.649c22.016,0,39.868,18.516,39.868,41.351S77.152,90.351,55.136,90.351
			c-11.03,0-20.953-4.641-28.174-12.13l6.29-6.524c5.582,5.835,13.334,9.465,21.883,9.465c17.143,0,31.009-14.381,31.009-32.162
			c0-17.781-13.865-32.162-31.009-32.162S24.127,31.219,24.127,49h13.289L19.52,67.516l-0.31-0.643L1.978,49h13.289
			C15.267,26.165,33.119,7.649,55.136,7.649 M55.136,5.649C32.696,5.649,14.323,24.02,13.311,47H1.978
			c-0.802,0-1.527,0.479-1.841,1.218c-0.314,0.738-0.156,1.593,0.401,2.17L17.547,68.03l0.171,0.354
			c0.284,0.589,0.838,1.002,1.484,1.106c0.106,0.017,0.212,0.025,0.318,0.025c0.538,0,1.058-0.217,1.438-0.61L38.854,50.39
			c0.558-0.577,0.717-1.432,0.403-2.171C38.944,47.48,38.219,47,37.416,47H26.19c0.993-15.703,13.597-28.162,28.946-28.162
			c15.996,0,29.009,13.531,29.009,30.162S71.131,79.162,55.136,79.162c-7.722,0-14.981-3.142-20.438-8.847
			c-0.376-0.393-0.897-0.616-1.441-0.618c-0.001,0-0.003,0-0.004,0c-0.543,0-1.063,0.221-1.44,0.612l-6.29,6.524
			c-0.747,0.775-0.747,2.002,0,2.776c7.922,8.216,18.439,12.742,29.613,12.742c23.086,0,41.868-19.447,41.868-43.351
			S78.222,5.649,55.136,5.649L55.136,5.649z"/>
	</g>
</g>
</svg>
