<?xml version="1.0" encoding="iso-8859-1"?>

<svg version="1.1" id="Capa_1" xmlns="http://www.w3.org/2000/svg" xmlns:xlink="http://www.w3.org/1999/xlink" x="0px" y="0px"
	 viewBox="0 0 97 97" style="enable-background:new 0 0 97 97;" xml:space="preserve">
<g>
	<linearGradient id="SVGID_1_" gradientUnits="userSpaceOnUse" x1="41.6103" y1="17.447" x2="83.1666" y2="213.846">
		<stop  offset="0" style="stop-color:#FFFFFF"/>
		<stop  offset="0.0636" style="stop-color:#D4EAEC"/>
		<stop  offset="0.1515" style="stop-color:#A1D5D9"/>
		<stop  offset="0.2428" style="stop-color:#78C6C9"/>
		<stop  offset="0.3369" style="stop-color:#4DBBBE"/>
		<stop  offset="0.4351" style="stop-color:#27B4B7"/>
		<stop  offset="0.5398" style="stop-color:#00B0B5"/>
		<stop  offset="0.7809" style="stop-color:#00AFB3"/>
	</linearGradient>
	<path style="fill:url(#SVGID_1_);" d="M77.493,95.189c-3.839-2.414-7.683-4.822-11.526-7.229
		c-5.652-3.54-11.304-7.081-16.942-10.644c-0.163-0.103-0.349-0.154-0.534-0.154c-0.186,0-0.372,0.052-0.536,0.155
		c-5.636,3.573-11.292,7.113-16.947,10.653c-3.838,2.402-7.676,4.805-11.507,7.217c0.006-29.903,0.006-59.798,0-89.701
		c-0.003-0.834,0.131-2.86,1.448-3.737c1.047-0.666,2.477-0.708,3.86-0.749C32.722,1.006,40.612,1.01,48.502,1.01
		S64.281,1.006,72.171,1l0.124,0.004c1.501,0.044,3.054,0.091,4.068,0.983c1.023,1.032,1.142,2.866,1.137,4.152
		c-0.014,21.729-0.012,43.459-0.009,65.187L77.493,95.189z"/>
	<path style="fill:#007C84;" d="M24.859,2c7.882,0,15.763,0.01,23.644,0.01S64.261,2.006,72.14,2l0.127,0.004
		c1.354,0.04,2.635,0.079,3.385,0.692c0.584,0.628,0.854,1.725,0.848,3.446c-0.014,21.671-0.011,43.346-0.009,65.019l0.002,22.218
		c-3.308-2.078-6.619-4.152-9.93-6.226c-5.578-3.494-11.347-7.107-17.004-10.682c-0.326-0.206-0.697-0.309-1.068-0.309
		c-0.372,0-0.744,0.104-1.071,0.311c-5.645,3.579-11.407,7.186-16.979,10.674c-3.315,2.075-6.629,4.149-9.939,6.231
		c0.006-29.298,0.005-58.592-0.001-87.898c-0.005-1.393,0.369-2.476,0.966-2.874C22.299,2.075,23.531,2,24.835,2H25 M72.17,0
		c-7.889,0.006-15.778,0.01-23.667,0.01S32.722,0.006,24.83,0c-1.502,0.045-3.124,0.083-4.437,0.918
		c-1.464,0.975-1.9,2.906-1.893,4.569c0.006,30.507,0.006,61.007,0,91.513c9.984-6.296,20.019-12.516,29.99-18.838
		C58.475,84.471,68.503,90.71,78.493,97c0-30.283-0.013-60.573,0.006-90.857c0.006-1.708-0.215-3.639-1.477-4.907
		C75.698,0.07,73.836,0.051,72.17,0L72.17,0z"/>
</g>
<g>
	<path style="fill:#07828A;" d="M48.565,4.098c0,0,4.204,13.067,5.906,18.179c6.057,0.266,18.966,0.463,18.966,0.463
		S62.698,31.07,58.524,34.091c1.68,5.667,5.499,17.907,5.499,17.907s-10.426-7.386-15.225-10.787
		c-5.002,3.431-14.985,10.361-14.985,10.361s3.616-11.784,5.228-17.733c-4.844-3.545-15.29-11.39-15.29-11.39
		s13.919-0.09,19.102-0.227C44.428,16.906,48.565,4.098,48.565,4.098z"/>
</g>
</svg>
