<?xml version="1.0" encoding="iso-8859-1"?>

<svg version="1.1" id="Capa_1" xmlns="http://www.w3.org/2000/svg" xmlns:xlink="http://www.w3.org/1999/xlink" x="0px" y="0px"
	 viewBox="0 0 97 97" style="enable-background:new 0 0 97 97;" xml:space="preserve">
<g>
	<g>
		<linearGradient id="SVGID_1_" gradientUnits="userSpaceOnUse" x1="2.1491" y1="114.9779" x2="73.2602" y2="36.001">
			<stop  offset="0" style="stop-color:#32A5AE"/>
			<stop  offset="0.2219" style="stop-color:#83C9CE"/>
			<stop  offset="0.5706" style="stop-color:#FFFFFF"/>
		</linearGradient>
		<path style="fill:url(#SVGID_1_);" d="M96,89.211C96,92.96,92.96,96,89.21,96H7.79C4.04,96,1,92.96,1,89.211V37.789
			C1,34.04,4.04,31,7.79,31H89.21c3.75,0,6.79,3.04,6.79,6.789V89.211z"/>
		<path style="fill:#028189;" d="M89.21,32c3.192,0,5.79,2.454,5.79,5.646v51.118C95,91.956,92.403,95,89.21,95H7.789
			C4.597,95,2,91.956,2,88.764V37.646C2,34.454,4.597,32,7.789,32H89 M89.21,30H7.789C3.487,30,0,33.344,0,37.646v51.118
			C0,93.066,3.487,97,7.789,97H89.21c4.302,0,7.79-3.934,7.79-8.236V37.646C97,33.344,93.512,30,89.21,30L89.21,30z"/>
	</g>
	<g>
		
			<polyline style="fill:none;stroke:#028189;stroke-width:3;stroke-linecap:round;stroke-linejoin:round;stroke-miterlimit:10;" points="
			6.712,31.631 50.49,75.343 93.287,32.659 		"/>
		
			<line style="fill:none;stroke:#028189;stroke-width:3;stroke-linecap:round;stroke-linejoin:round;stroke-miterlimit:10;" x1="39.539" y1="64.451" x2="8.204" y2="95.513"/>
		
			<line style="fill:none;stroke:#028189;stroke-width:3;stroke-linecap:round;stroke-linejoin:round;stroke-miterlimit:10;" x1="60.882" y1="65.039" x2="91.085" y2="94.95"/>
	</g>
</g>
<g>
	
		<radialGradient id="SVGID_2_" cx="889.1068" cy="-93.0686" r="132.9735" gradientTransform="matrix(0.1462 0 0 0.1462 -64.0191 46.1099)" gradientUnits="userSpaceOnUse">
		<stop  offset="0.6798" style="stop-color:#F9BD72"/>
		<stop  offset="0.8142" style="stop-color:#F9BE74"/>
		<stop  offset="0.8626" style="stop-color:#F9C17B"/>
		<stop  offset="0.8971" style="stop-color:#FAC786"/>
		<stop  offset="0.925" style="stop-color:#FBCE97"/>
		<stop  offset="0.9489" style="stop-color:#FCD9AD"/>
		<stop  offset="0.9701" style="stop-color:#FDE6C9"/>
		<stop  offset="0.9888" style="stop-color:#FEF4E8"/>
		<stop  offset="1" style="stop-color:#FFFFFF"/>
	</radialGradient>
	
		<line style="fill:url(#SVGID_2_);stroke:#E89613;stroke-width:10;stroke-linecap:round;stroke-linejoin:round;stroke-miterlimit:10;" x1="66" y1="5" x2="66" y2="60"/>
	
		<radialGradient id="SVGID_3_" cx="888.8429" cy="-100.4951" r="131.8261" gradientTransform="matrix(0.1462 0 0 0.1462 -64.0191 46.1099)" gradientUnits="userSpaceOnUse">
		<stop  offset="0.6798" style="stop-color:#F9BD72"/>
		<stop  offset="0.8142" style="stop-color:#F9BE74"/>
		<stop  offset="0.8626" style="stop-color:#F9C17B"/>
		<stop  offset="0.8971" style="stop-color:#FAC786"/>
		<stop  offset="0.925" style="stop-color:#FBCE97"/>
		<stop  offset="0.9489" style="stop-color:#FCD9AD"/>
		<stop  offset="0.9701" style="stop-color:#FDE6C9"/>
		<stop  offset="0.9888" style="stop-color:#FEF4E8"/>
		<stop  offset="1" style="stop-color:#FFFFFF"/>
	</radialGradient>
	
		<line style="fill:url(#SVGID_3_);stroke:#E89613;stroke-width:10.2268;stroke-linecap:round;stroke-linejoin:round;stroke-miterlimit:10;" x1="46.684" y1="12.136" x2="85.239" y2="50.692"/>
	
		<radialGradient id="SVGID_4_" cx="887.825" cy="-101.5131" r="131.8261" gradientTransform="matrix(0.1462 0 0 0.1462 -64.0191 46.1099)" gradientUnits="userSpaceOnUse">
		<stop  offset="0.6798" style="stop-color:#F9BD72"/>
		<stop  offset="0.8142" style="stop-color:#F9BE74"/>
		<stop  offset="0.8626" style="stop-color:#F9C17B"/>
		<stop  offset="0.8971" style="stop-color:#FAC786"/>
		<stop  offset="0.925" style="stop-color:#FBCE97"/>
		<stop  offset="0.9489" style="stop-color:#FCD9AD"/>
		<stop  offset="0.9701" style="stop-color:#FDE6C9"/>
		<stop  offset="0.9888" style="stop-color:#FEF4E8"/>
		<stop  offset="1" style="stop-color:#FFFFFF"/>
	</radialGradient>
	
		<line style="fill:url(#SVGID_4_);stroke:#E89613;stroke-width:10.2268;stroke-linecap:round;stroke-linejoin:round;stroke-miterlimit:10;" x1="46.535" y1="50.543" x2="85.09" y2="11.987"/>
	
		<radialGradient id="SVGID_5_" cx="878.8494" cy="-103.326" r="132.9733" gradientTransform="matrix(0.1462 0 0 0.1462 -64.0191 46.1099)" gradientUnits="userSpaceOnUse">
		<stop  offset="0.6798" style="stop-color:#F9BD72"/>
		<stop  offset="0.8142" style="stop-color:#F9BE74"/>
		<stop  offset="0.8626" style="stop-color:#F9C17B"/>
		<stop  offset="0.8971" style="stop-color:#FAC786"/>
		<stop  offset="0.925" style="stop-color:#FBCE97"/>
		<stop  offset="0.9489" style="stop-color:#FCD9AD"/>
		<stop  offset="0.9701" style="stop-color:#FDE6C9"/>
		<stop  offset="0.9888" style="stop-color:#FEF4E8"/>
		<stop  offset="1" style="stop-color:#FFFFFF"/>
	</radialGradient>
	
		<line style="fill:url(#SVGID_5_);stroke:#E89613;stroke-width:10;stroke-linecap:round;stroke-linejoin:round;stroke-miterlimit:10;" x1="37" y1="31" x2="92" y2="31"/>
	
		<line style="fill:none;stroke:#FFFFFF;stroke-width:2;stroke-linecap:round;stroke-linejoin:round;stroke-miterlimit:10;" x1="66" y1="5" x2="66" y2="60"/>
	
		<line style="fill:none;stroke:#FFFFFF;stroke-width:2;stroke-linecap:round;stroke-linejoin:round;stroke-miterlimit:10;" x1="46.538" y1="12.222" x2="85.094" y2="50.778"/>
	
		<line style="fill:none;stroke:#FFFFFF;stroke-width:2;stroke-linecap:round;stroke-linejoin:round;stroke-miterlimit:10;" x1="46.389" y1="50.629" x2="84.945" y2="12.073"/>
	
		<line style="fill:none;stroke:#FFFFFF;stroke-width:2;stroke-linecap:round;stroke-linejoin:round;stroke-miterlimit:10;" x1="37" y1="31" x2="92" y2="31"/>
</g>
</svg>
