<?xml version="1.0" encoding="iso-8859-1"?>
<svg version="1.1" id="Capa_1" xmlns="http://www.w3.org/2000/svg" xmlns:xlink="http://www.w3.org/1999/xlink" x="0px" y="0px"
	 viewBox="0 0 97 97" style="enable-background:new 0 0 97 97;" xml:space="preserve">
  <g>
    <linearGradient id="SVGID_1_" gradientUnits="userSpaceOnUse" x1="83.2368" y1="35.3733" x2="10.8784" y2="102.8486">
      <stop  offset="0" style="stop-color:#FBD19E"/>
      <stop  offset="0.0229" style="stop-color:#FACC94"/>
      <stop  offset="0.1209" style="stop-color:#F8BA6D"/>
      <stop  offset="0.226" style="stop-color:#F5AA4B"/>
      <stop  offset="0.3379" style="stop-color:#F39D30"/>
      <stop  offset="0.459" style="stop-color:#F2931B"/>
      <stop  offset="0.5938" style="stop-color:#F18C0C"/>
      <stop  offset="0.7533" style="stop-color:#F08804"/>
      <stop  offset="1" style="stop-color:#F08701"/>
    </linearGradient>
    <path style="fill:url(#SVGID_1_);" d="M7.163,96c-2.143,0-4.098-1.092-5.228-2.921c-1.138-1.842-1.239-4.098-0.27-6.035
		L43.002,4.406C44.068,2.273,46.124,1,48.5,1s4.432,1.273,5.498,3.406l41.338,82.638c0.969,1.937,0.868,4.192-0.271,6.034
		C93.936,94.908,91.98,96,89.837,96H7.163z"/>
    <path style="fill:#028189;" d="M48.5,2c1.989,0,3.71,1.067,4.604,2.853l41.337,82.638c0.813,1.625,0.728,3.517-0.227,5.062
		C93.268,94.085,91.632,95,89.837,95L7.163,95c-1.794,0-3.431-0.915-4.377-2.447c-0.955-1.545-1.039-3.437-0.227-5.062L43.896,4.853
		C44.79,3.067,46.511,2,48.5,2 M48.5,0c-2.536,0-5.073,1.32-6.393,3.959L0.77,86.597C-1.619,91.372,1.84,97,7.163,97h82.675
		c5.323,0,8.781-5.628,6.393-10.403L54.893,3.959C53.573,1.32,51.036,0,48.5,0L48.5,0z"/>
  </g>
  <g id="g6498" transform="matrix(0.555088,0,0,0.555052,7.749711,17.80196)" r_cx="true" r_cy="true">
    <path id="path6500" r_cx="true" r_cy="true" style="fill:#FFFFFF;" d="M73.072,118.974
		c-7.611,0-13.466-5.855-13.466-13.466c0-8.196,5.269-13.466,13.466-13.466s12.88,5.269,13.466,13.466
		C86.537,113.119,81.268,118.974,73.072,118.974L73.072,118.974z M64.875,85.034l-3.513-68.462h23.418l-3.513,68.462H64.29H64.875z"
		/>
  </g>
</svg>
