<?xml version="1.0" encoding="iso-8859-1"?>
<svg version="1.1" id="Capa_1" xmlns="http://www.w3.org/2000/svg" xmlns:xlink="http://www.w3.org/1999/xlink" x="0px" y="0px"
	 viewBox="0 0 97 97" style="enable-background:new 0 0 97 97;" xml:space="preserve">
<g>
	<path style="fill:#AAD8DA;" d="M38.306,72.612C19.39,72.612,4,57.223,4,38.306S19.39,4,38.306,4s34.306,15.39,34.306,34.306
		S57.223,72.612,38.306,72.612z"/>
	<g>
		<path style="fill:#028189;" d="M38.306,8c16.711,0,30.306,13.595,30.306,30.306S55.017,68.612,38.306,68.612S8,55.017,8,38.306
			S21.595,8,38.306,8 M38.306,0C17.15,0,0,17.15,0,38.306s17.15,38.306,38.306,38.306s38.306-17.15,38.306-38.306S59.462,0,38.306,0
			L38.306,0z"/>
	</g>
</g>
<linearGradient id="SVGID_1_" gradientUnits="userSpaceOnUse" x1="75.3135" y1="75.7774" x2="75.8136" y2="75.2774">
	<stop  offset="0" style="stop-color:#036973"/>
	<stop  offset="0.6684" style="stop-color:#32A5AE"/>
</linearGradient>
<line style="fill:url(#SVGID_1_);stroke:#028189;stroke-width:10;stroke-miterlimit:22.9256;" x1="64.169" y1="64.632" x2="86.959" y2="86.422"/>
<g>
	
		<linearGradient id="SVGID_2_" gradientUnits="userSpaceOnUse" x1="108.3164" y1="138.0333" x2="108.3164" y2="122.7974" gradientTransform="matrix(0.7071 0.7071 -0.7071 0.7071 95.5653 -88.1784)">
		<stop  offset="0" style="stop-color:#036973"/>
		<stop  offset="1" style="stop-color:#32A5AE"/>
	</linearGradient>
	<path style="fill:url(#SVGID_2_);" d="M86.412,96c-1.036,0-2.014-0.4-2.751-1.128L62.593,74.058l11.215-10.332l21.417,21.741
		c0.517,0.526,0.793,1.226,0.774,1.965c-0.018,0.739-0.327,1.423-0.87,1.925l-6.058,5.602C88.345,95.63,87.4,96,86.412,96z"/>
	<path style="fill:#028189;" d="M73.773,65.117l20.736,21.049c0.327,0.333,0.501,0.774,0.49,1.241
		c-0.011,0.467-0.206,0.899-0.549,1.216l-6.058,5.602C87.851,94.725,87.148,95,86.411,95c-0.772,0-1.499-0.298-2.047-0.838
		l-20.324-20.08L73.773,65.117 M73.841,62.335L61.144,74.032l21.815,21.553C83.915,96.527,85.162,97,86.411,97
		c1.197,0,2.395-0.434,3.339-1.307l6.058-5.602c1.537-1.422,1.596-3.832,0.129-5.326L73.841,62.335L73.841,62.335z"/>
</g>
<g>
	<linearGradient id="SVGID_3_" gradientUnits="userSpaceOnUse" x1="20.4454" y1="55.8007" x2="55.8007" y2="20.4453">
		<stop  offset="0" style="stop-color:#B7DCE0"/>
		<stop  offset="0.1613" style="stop-color:#C2E1E5"/>
		<stop  offset="0.4418" style="stop-color:#DEEFF1"/>
		<stop  offset="0.7043" style="stop-color:#FFFFFF"/>
	</linearGradient>
	<circle style="fill:url(#SVGID_3_);" cx="38.123" cy="38.123" r="25"/>
</g>
<linearGradient id="SVGID_4_" gradientUnits="userSpaceOnUse" x1="77.9563" y1="82.6531" x2="84.8264" y2="76.0883">
	<stop  offset="0.35" style="stop-color:#FFFFFF;stop-opacity:0"/>
	<stop  offset="1" style="stop-color:#B7DCE0"/>
</linearGradient>
<path style="opacity:0.5;fill:url(#SVGID_4_);" d="M89.389,93.337L67.113,71.285l6.539-6.145L94.17,85.786
	c1.036,1.098,1.241,2.009,0,3.098L89.389,93.337z"/>
<g style="opacity:0.5;">
	
		<line style="fill:none;stroke:#FFFFFF;stroke-width:2;stroke-linecap:round;stroke-linejoin:round;stroke-miterlimit:10;" x1="73.875" y1="74.246" x2="77.83" y2="70.533"/>
	
		<line style="fill:none;stroke:#FFFFFF;stroke-width:2;stroke-linecap:round;stroke-linejoin:round;stroke-miterlimit:10;" x1="76.875" y1="77.246" x2="80.83" y2="73.533"/>
	
		<line style="fill:none;stroke:#FFFFFF;stroke-width:2;stroke-linecap:round;stroke-linejoin:round;stroke-miterlimit:10;" x1="79.875" y1="80.247" x2="83.83" y2="76.533"/>
	
		<line style="fill:none;stroke:#FFFFFF;stroke-width:2;stroke-linecap:round;stroke-linejoin:round;stroke-miterlimit:10;" x1="82.875" y1="83.248" x2="86.83" y2="79.534"/>
	
		<line style="fill:none;stroke:#FFFFFF;stroke-width:2;stroke-linecap:round;stroke-linejoin:round;stroke-miterlimit:10;" x1="85.875" y1="86.248" x2="89.83" y2="82.534"/>
</g>
<path style="fill-rule:evenodd;clip-rule:evenodd;fill:none;stroke:#FFFFFF;stroke-width:6.0001;stroke-linecap:round;stroke-linejoin:round;stroke-miterlimit:22.9256;" d="
	M32.153,20.704c-8.027,1.542-14.583,9.837-12.843,18.667"/>
</svg>
