<?xml version="1.0" encoding="iso-8859-1"?>

<svg version="1.1" xmlns="http://www.w3.org/2000/svg" xmlns:xlink="http://www.w3.org/1999/xlink" x="0px" y="0px"
	 viewBox="0 0 97 97" style="enable-background:new 0 0 97 97;" xml:space="preserve">
<g id="Capa_1">
	<g id="XMLID_1_">
		<linearGradient id="XMLID_5_" gradientUnits="userSpaceOnUse" x1="14.9282" y1="82.0718" x2="82.0718" y2="14.9282">
			<stop  offset="0" style="stop-color:#036973"/>
			<stop  offset="1" style="stop-color:#32A5AE"/>
		</linearGradient>
		<circle id="XMLID_18_" style="fill:url(#XMLID_5_);" cx="48.5" cy="48.5" r="47.5"/>
		<path id="XMLID_15_" style="fill:#028189;" d="M48.5,2C74.14,2,95,22.86,95,48.5S74.14,95,48.5,95S2,74.14,2,48.5S22.86,2,48.5,2
			 M48.5,0C21.714,0,0,21.714,0,48.5S21.714,97,48.5,97S97,75.286,97,48.5S75.286,0,48.5,0L48.5,0z"/>
	</g>
	<g id="XMLID_4_">
		<g id="g24" transform="translate(18,31.0005)">
			<path id="path26" style="fill:#FFFFFF;" d="M-1,16v-0.111V36h11V15.948c0-8.836,7.102-16.425,15.921-16.97
				C35.791-1.631,44,6.177,44,15.888V32h8V15.888c0-14.513-11.772-26.659-26.284-26.595C11.07-10.642-0.595,1.29-0.595,15.952"/>
		</g>
		<path id="XMLID_2_" style="fill:#FFFFFF;" d="M69.197,70.347c-1.846,1.764-4.742,1.769-6.592,0.013L45.94,54.52
			c-0.956-0.913-1.484-2.144-1.484-3.465c0-1.228,0.466-2.398,1.314-3.293c1.815-1.904,4.846-1.982,6.756-0.17l12.877,12.245
			c0.27,0.257,0.693,0.256,0.963-0.001l12.789-12.232c0.922-0.882,2.132-1.353,3.407-1.325c1.275,0.029,2.463,0.553,3.345,1.476
			c0.857,0.894,1.324,2.061,1.324,3.294c0,0.037,0,0.074-0.001,0.112c-0.029,1.275-0.553,2.462-1.475,3.345L69.197,70.347z"/>
	</g>
</g>
<g id="Capa_2">
</g>
</svg>
