<?xml version="1.0" encoding="iso-8859-1"?>

<svg version="1.1" id="Capa_1" xmlns="http://www.w3.org/2000/svg" xmlns:xlink="http://www.w3.org/1999/xlink" x="0px" y="0px"
	 viewBox="0 0 97 97" style="enable-background:new 0 0 97 97;" xml:space="preserve">
<g>
	<g>
		<linearGradient id="SVGID_1_" gradientUnits="userSpaceOnUse" x1="13.235" y1="12.5" x2="83.765" y2="12.5">
			<stop  offset="0" style="stop-color:#036973"/>
			<stop  offset="1" style="stop-color:#32A5AE"/>
		</linearGradient>
		<path style="fill:url(#SVGID_1_);" d="M13.25,24c0-0.42-0.005-0.8-0.009-1.148c-0.017-1.494-0.026-2.318,0.302-3.456
			c0.7-2.558,2.713-4.805,5.014-5.605c1.024-0.391,2.001-0.584,2.932-0.586c1.403-0.004,2.804-0.016,4.206-0.027
			c1.499-0.013,2.998-0.025,4.497-0.028c0.497-0.001,0.918-0.367,0.988-0.859c0.161-1.133,0.319-2.274,0.477-3.415
			c0.197-1.426,0.395-2.852,0.599-4.267C32.541,2.688,34.29,1,35.999,1h24.969c1.753,0,3.483,1.644,3.778,3.59
			c0.206,1.436,0.407,2.883,0.608,4.329l0.464,3.269C65.888,12.68,66.308,13,66.804,13h5.412c1.283,0,2.565,0.052,3.849,0.071
			c2.955,0.07,6.044,2.509,7.175,5.64c0.548,1.378,0.537,2.601,0.521,4.433c-0.003,0.269-0.005,0.562-0.006,0.856H13.25z M37.142,4
			c-0.515,0-0.946,0.392-0.996,0.905c-0.139,1.457-0.279,2.452-0.415,3.414c-0.141,1.005-0.288,2.044-0.431,3.589
			c-0.026,0.28,0.067,0.559,0.256,0.766C35.746,12.881,36.015,13,36.296,13h24.409c0.281,0,0.55-0.119,0.739-0.327
			s0.282-0.486,0.257-0.767c-0.145-1.539-0.29-2.576-0.431-3.578c-0.136-0.965-0.275-1.962-0.416-3.424
			C60.806,4.392,60.375,4,59.859,4H37.142z"/>
		<path style="fill:#028189;" d="M60.984,2c1.242,0,2.564,1.306,2.779,2.725c0.213,1.482,0.416,2.967,0.622,4.452
			c0.148,1.067,0.295,2.134,0.446,3.2c0.139,0.983,0.977,1.715,1.97,1.72c0.619,0.003,1.237,0.004,1.857,0.004l1.78-0.002
			l1.774-0.002c1.28,0,2.56,0.004,3.82,0.022c2.575,0.061,5.27,2.192,6.268,4.956c0.007,0.02,0.015,0.04,0.023,0.061
			c0.451,1.132,0.454,2.177,0.439,3.865H14.243c-0.001-0.053-0.001-0.106-0.002-0.158c-0.016-1.446-0.025-2.172,0.271-3.195
			c0.613-2.241,2.371-4.214,4.374-4.911c0.019-0.007,0.038-0.013,0.056-0.021c0.87-0.332,1.752-0.509,2.551-0.51
			c1.415-0.004,2.83-0.015,4.244-0.027c1.485-0.012,2.971-0.025,4.456-0.027c0.994-0.002,1.836-0.734,1.976-1.718
			c0.16-1.127,0.317-2.262,0.474-3.397c0.198-1.431,0.396-2.862,0.6-4.276C33.459,3.315,34.771,2,35.999,2H61 M36,14h24.705
			c0.563,0,1.1-0.237,1.479-0.653c0.379-0.416,0.565-0.973,0.513-1.533c-0.146-1.561-0.294-2.609-0.436-3.622
			c-0.14-0.998-0.273-1.941-0.41-3.381C61.752,3.783,60.89,3,59.859,3H37.142c-1.031,0-1.893,0.783-1.991,1.81
			c-0.137,1.435-0.27,2.376-0.41,3.371c-0.143,1.016-0.291,2.067-0.437,3.634c-0.052,0.56,0.134,1.117,0.513,1.533
			C35.196,13.763,35.585,14,36.148,14 M60.968,0H35.999c-2.313,0-4.389,2.141-4.732,4.467c-0.368,2.547-0.714,5.134-1.076,7.683
			c-2.901,0.006-5.801,0.047-8.702,0.055c-1.107,0.002-2.221,0.245-3.259,0.642c-2.719,0.946-4.887,3.498-5.646,6.272
			C12.07,20.898,12.29,22,12.243,25c24.171,0,48.343,0,72.514,0c-0.04-3,0.208-4.632-0.578-6.605
			c-1.207-3.342-4.54-6.191-8.101-6.276c-1.289-0.018-2.578-0.022-3.868-0.022c-1.185,0-2.37,0.004-3.555,0.004
			c-0.616,0-1.232-0.001-1.847-0.004C66.448,9.547,66.1,6.989,65.734,4.44C65.381,2.108,63.294,0,60.968,0L60.968,0z M36.296,12
			c0.279-3,0.559-4,0.846-7c7.572,0,15.145,0,22.717,0c0.287,3,0.565,4,0.846,7C52.568,12,44.431,12,36.296,12L36.296,12z"/>
	</g>
</g>
<g>
	<g>
		<linearGradient id="SVGID_2_" gradientUnits="userSpaceOnUse" x1="15.2772" y1="63.5" x2="81.723" y2="63.5">
			<stop  offset="0" style="stop-color:#036973"/>
			<stop  offset="1" style="stop-color:#32A5AE"/>
		</linearGradient>
		<path style="fill:url(#SVGID_2_);" d="M25.373,96c-2.18,0-4.1-1.996-4.8-3.873c-0.269-0.67-0.336-1.486-0.402-2.275l-4.87-53.627
			c-0.142-1.385,0.348-2.917,1.275-3.822C17.385,31.579,18.565,31,19.831,31h57.337c1.26,0,2.438,0.578,3.233,1.383
			c0.979,0.946,1.464,2.472,1.285,3.905c-0.704,7.726-1.402,15.474-2.102,23.198c-0.942,10.418-1.886,20.858-2.835,31.234
			C76.518,93.479,74.106,96,71.691,96H25.373z"/>
		<path style="fill:#028189;" d="M52.89,32.114l24.18,0.06l0.097,0.028c0.981,0,1.923,0.377,2.556,1.018
			c0.74,0.715,1.112,1.867,0.971,2.994c-0.003,0.022-0.005,0.048-0.007,0.071c-0.707,7.768-1.412,15.565-2.118,23.364
			c-0.936,10.342-1.872,20.693-2.815,31.007C75.565,92.888,73.591,95,71.692,95H25.373c-1.667,0-3.273-1.638-3.863-3.222
			c-0.006-0.016-0.012-0.032-0.018-0.048c-0.203-0.505-0.265-1.243-0.324-1.957l-0.015-0.183l-1.949-21.454
			c-0.97-10.669-1.94-21.342-2.908-32.024c-0.108-1.061,0.276-2.191,1.011-2.909c0.597-0.609,1.541-1.088,2.527-1.088L19.936,32
			c0.018,0,0.035,0,0.053,0L52.89,32.114 M52.89,30.23c-10.966,0-21.934,0.001-32.901,0.002c-0.053-0.001-0.106-0.002-0.159-0.002
			c-1.453,0-2.927,0.526-3.953,1.571c-1.176,1.148-1.739,2.887-1.573,4.513c1.615,17.808,3.239,35.65,4.855,53.456
			c0.076,0.888,0.14,1.868,0.476,2.705C20.524,94.859,22.845,97,25.373,97h46.319c3.076,0,5.792-3.063,6.054-6.175
			c1.652-18.068,3.288-36.287,4.932-54.355c0.212-1.688-0.33-3.48-1.565-4.674c-1.027-1.042-2.497-1.565-3.946-1.565
			c-0.048,0-0.096,0.001-0.144,0.002C68.978,30.231,60.935,30.23,52.89,30.23L52.89,30.23z"/>
	</g>
</g>
<linearGradient id="SVGID_3_" gradientUnits="userSpaceOnUse" x1="16.4837" y1="15.9536" x2="81.0349" y2="21.6011">
	<stop  offset="0.67" style="stop-color:#FFFFFF;stop-opacity:0"/>
	<stop  offset="1" style="stop-color:#FFFFFF;stop-opacity:0.75"/>
</linearGradient>
<path style="fill:url(#SVGID_3_);" d="M74.915,15H22.609C18.829,15,16,18.03,16,21.81V22h65v-1.239C81,17.56,78.115,15,74.915,15z"
	/>
<g style="opacity:0.6;">
	<linearGradient id="SVGID_4_" gradientUnits="userSpaceOnUse" x1="16.2769" y1="63.5" x2="80.7236" y2="63.5">
		<stop  offset="0.67" style="stop-color:#FFFFFF;stop-opacity:0"/>
		<stop  offset="1" style="stop-color:#FFFFFF;stop-opacity:0.75"/>
	</linearGradient>
	<path style="fill:url(#SVGID_4_);" d="M80.687,36.285c0.002-0.022,0.004-0.049,0.007-0.071c0.141-1.127-0.231-2.279-0.971-2.994
		c-0.633-0.641-1.576-1.018-2.556-1.018l-0.097-0.028l-24.18-0.06L19.99,32c-0.018,0-0.035,0-0.053,0l-0.103,0.114
		c-0.986,0-1.93,0.479-2.527,1.088c-0.735,0.718-1.12,1.848-1.011,2.909c0.969,10.682,1.939,21.355,2.908,32.024l1.949,21.455
		l0.016,0.183c0.06,0.714,0.122,1.452,0.324,1.957c0.006,0.016,0.013,0.032,0.018,0.048C22.1,93.362,23.707,95,25.373,95h46.319
		c1.899,0,3.873-2.112,4.061-4.344c0.943-10.314,1.88-20.665,2.815-31.007C79.274,51.85,79.98,44.052,80.687,36.285z"/>
</g>
<g>
	
		<line style="fill:none;stroke:#028189;stroke-width:6;stroke-linecap:round;stroke-linejoin:round;stroke-miterlimit:22.9256;" x1="49" y1="82" x2="49" y2="45"/>
	
		<line style="fill:none;stroke:#028189;stroke-width:6;stroke-linecap:round;stroke-linejoin:round;stroke-miterlimit:22.9256;" x1="66" y1="82" x2="68" y2="45"/>
	
		<line style="fill:none;stroke:#028189;stroke-width:6;stroke-linecap:round;stroke-linejoin:round;stroke-miterlimit:22.9256;" x1="34" y1="82" x2="32" y2="45"/>
</g>
<g style="opacity:0.75;">
	<linearGradient id="SVGID_5_" gradientUnits="userSpaceOnUse" x1="46.3938" y1="63.3595" x2="49.6062" y2="63.6405">
		<stop  offset="0.67" style="stop-color:#FFFFFF;stop-opacity:0"/>
		<stop  offset="1" style="stop-color:#FFFFFF;stop-opacity:0.75"/>
	</linearGradient>
	
		<line style="fill:url(#SVGID_5_);stroke:#FFFFFF;stroke-width:6;stroke-linecap:round;stroke-linejoin:round;stroke-miterlimit:10;" x1="48" y1="82" x2="48" y2="45"/>
	<linearGradient id="SVGID_6_" gradientUnits="userSpaceOnUse" x1="64.3862" y1="63.4463" x2="65.6138" y2="63.5537">
		<stop  offset="0.67" style="stop-color:#FFFFFF;stop-opacity:0"/>
		<stop  offset="1" style="stop-color:#FFFFFF;stop-opacity:0.75"/>
	</linearGradient>
	
		<line style="fill:url(#SVGID_6_);stroke:#FFFFFF;stroke-width:6;stroke-linecap:round;stroke-linejoin:round;stroke-miterlimit:10;" x1="64" y1="82" x2="66" y2="45"/>
	
		<linearGradient id="SVGID_7_" gradientUnits="userSpaceOnUse" x1="98.3862" y1="63.4463" x2="99.6138" y2="63.5537" gradientTransform="matrix(-1 0 0 1 130 0)">
		<stop  offset="0.67" style="stop-color:#FFFFFF;stop-opacity:0"/>
		<stop  offset="1" style="stop-color:#FFFFFF;stop-opacity:0.75"/>
	</linearGradient>
	
		<line style="fill:url(#SVGID_7_);stroke:#FFFFFF;stroke-width:6;stroke-linecap:round;stroke-linejoin:round;stroke-miterlimit:10;" x1="32" y1="82" x2="30" y2="45"/>
</g>
</svg>
