<?xml version="1.0" encoding="iso-8859-1"?>

<svg version="1.1" id="Capa_1" xmlns="http://www.w3.org/2000/svg" xmlns:xlink="http://www.w3.org/1999/xlink" x="0px" y="0px"
	 viewBox="0 0 97 97" style="enable-background:new 0 0 97 97;" xml:space="preserve">
<g>
	<linearGradient id="SVGID_1_" gradientUnits="userSpaceOnUse" x1="1.3407" y1="72.2943" x2="99.7935" y2="26.385">
		<stop  offset="0" style="stop-color:#036973"/>
		<stop  offset="1" style="stop-color:#32A5AE"/>
	</linearGradient>
	<path style="fill:url(#SVGID_1_);" d="M19.404,96c-2.834,0-5.504-1.039-7.326-2.85c-1.794-1.646-2.865-3.429-3.303-5.481
		c-0.328-1.206-0.316-2.424-0.304-3.713c0.003-0.354,0.007-0.707,0.003-1.06C8.448,60.087,8.45,36.792,8.481,11.692
		c0.126-2.297,0.981-4.604,2.407-6.442c1.14-1.362,2.347-2.355,3.668-3.008C15.967,1.43,17.416,1,18.69,1h68.396
		c0.341,0,0.699,0.17,0.982,0.466c0.313,0.327,0.489,0.761,0.472,1.161c0.003,24.257,0.003,48.483,0,72.697
		c0.018,0.661-0.333,1.529-0.75,1.778C87.339,77.398,86.564,78,86.057,78H20.908c-0.346,0-0.695-0.121-1.044-0.147
		c-0.398-0.029-0.796-0.105-1.188-0.105c-0.567,0-1.419,0.027-2.261,0.467c-2.777,1.219-4.585,3.646-4.776,6.481
		c-0.272,3.334,1.669,6.778,4.617,8.156C17.472,93.567,18.932,94,20.288,94h52.366c2.175,0,4.38-0.095,6.512-0.167
		c1.754-0.059,3.508-0.128,5.261-0.147l1.002-0.017l-0.013-1.004c-0.019-1.411-0.016-2.924-0.014-4.412
		c0.002-0.92,0.003-1.832,0-2.704c-0.008-0.527,0.084-0.903,0.273-1.125l0.039-0.045l0.033-0.05
		c0.234-0.353,0.688-0.564,1.211-0.564c0.358,0,0.936,0.106,1.185,0.292C88.536,84.379,89,84.889,89,85.361v3.401
		c0,1.988-0.225,3.942-0.236,6.017C88.761,95.441,87.967,96,87.299,96H19.404z"/>
	<path style="fill:#028189;" d="M87.043,2c0.042,0,0.172,0.043,0.282,0.158c0.122,0.128,0.441,0.298,0.436,0.425L88,2.627v0.045
		c0,24.213,0,48.439,0,72.652v0.027v0.027c0,0.289-0.4,0.689-0.493,0.772l-0.15,0.021l-0.092,0.117
		C86.67,76.679,86.219,77,86.056,77H20.908c-0.295,0-0.623-0.118-0.97-0.144c-0.404-0.03-0.821-0.108-1.263-0.108
		c-0.659,0-1.645,0.037-2.659,0.548c-3.152,1.408-5.16,4.138-5.373,7.305c-0.303,3.717,1.84,7.543,5.105,9.116
		C17.177,94.535,18.785,95,20.288,95h52.365c2.191,0,4.402-0.095,6.541-0.167c1.722-0.058,3.504-0.128,5.243-0.147l2.003-0.028
		l-0.026-2.006c-0.018-1.397-0.016-2.895-0.013-4.368c0.002-0.932,0.003-1.855-0.001-2.761c-0.005-0.325,0.045-0.456,0.039-0.456
		l-0.001,0l0.074-0.087l0.065-0.098c0.027-0.041,0.167-0.118,0.379-0.118c0.148,0,0.264,0.038,0.331,0.076
		c0.171,0.158,0.487,0.36,0.483,0.481L88,85.361v0.038c0,1.151-0.229,2.265-0.228,3.368c0.002,1.985-0.111,3.935-0.122,6.009
		C87.649,94.913,87.395,95,87.299,95H19.404c-2.572,0-4.985-0.933-6.621-2.559l-0.029-0.029l-0.03-0.027
		c-1.606-1.472-2.578-3.083-2.971-4.924l-0.012-0.056L9.727,87.35c-0.278-1.017-0.267-2.168-0.255-3.386
		c0.003-0.36,0.007-0.719,0.004-1.061C9.448,60.033,9.45,36.757,9.481,11.748c0.125-2.119,0.897-4.196,2.175-5.857
		C12.72,4.625,13.814,3.724,15,3.137l0.057-0.028l0.055-0.032C16.317,2.383,17.588,2,18.69,2h0.583h0.595h21.182h7.16H87 M87,0
		H48.21h-7.16H19.868h-0.595H18.69c-1.566,0-3.178,0.538-4.577,1.344c-1.579,0.781-2.893,1.95-4.015,3.292
		C8.532,6.657,7.62,9.137,7.481,11.69c-0.03,23.743-0.034,47.473-0.006,71.216c0.016,1.662-0.122,3.349,0.323,4.972
		c0.511,2.395,1.77,4.326,3.575,5.981C13.497,95.972,16.449,97,19.404,97h67.895c1.195,0,2.232-0.971,2.237-2.216
		c0.017-3.225,0.003-6.158,0.006-9.383c0.033-0.83-0.397-1.631-1.03-2.147c-0.438-0.326-0.996-0.489-1.553-0.489
		c-0.798,0-1.596,0.335-2.044,1.01c-0.416,0.489-0.522,1.155-0.513,1.778c0.009,2.286-0.016,4.858,0.014,7.144
		C80.496,92.74,76.573,93,72.653,93c-17.456,0-34.911,0-52.365,0c-1.236,0-2.522-0.425-3.608-1.061
		c-2.612-1.22-4.277-4.306-4.043-7.178c0.175-2.593,1.864-4.633,4.241-5.679c0.568-0.296,1.175-0.286,1.798-0.286
		c0.736,0,1.493,0.203,2.233,0.203c21.717,0,43.433,0,65.148,0c0.761,0,1.585-0.604,2.247-1.039c0.787-0.47,1.262-1.676,1.237-2.59
		c0.003-24.213-0.04-48.463-0.045-72.676C89.557,1.334,88,0.012,87,0.012V0z"/>
</g>
<g>
	
		<path style="fill:#FFFFFF;stroke:#028189;stroke-width:2;stroke-linecap:round;stroke-linejoin:round;stroke-miterlimit:22.9256;" d="
		M71.106,1.906c-0.957-0.836-2.301-0.849-3.503-0.886c-11.389,0.009-22.779,0.009-34.173,0c-1.084,0.032-2.255,0.059-3.203,0.658
		C29.17,2.377,28.856,3.76,28.86,4.952c0.005,21.862,0.005,43.719,0,65.581c7.207-4.512,14.451-8.969,21.649-13.5
		c7.207,4.521,14.446,8.992,21.658,13.5c0-21.702-0.009-43.408,0.005-65.11C72.176,4.199,72.017,2.815,71.106,1.906z"/>
	<g>
		<path style="fill:#07828A;" d="M50.562,3.957c0,0,3.035,9.364,4.264,13.027c4.372,0.191,13.691,0.332,13.691,0.332
			s-7.752,5.97-10.765,8.135c1.213,4.061,3.969,12.833,3.969,12.833s-7.526-5.293-10.99-7.73
			c-3.611,2.459-10.817,7.425-10.817,7.425s2.61-8.445,3.774-12.708c-3.497-2.54-11.037-8.162-11.037-8.162
			s10.047-0.064,13.789-0.162C47.577,13.135,50.562,3.957,50.562,3.957z"/>
	</g>
</g>
</svg>
