<?xml version="1.0" encoding="iso-8859-1"?>

<svg version="1.1" id="Capa_1" xmlns="http://www.w3.org/2000/svg" xmlns:xlink="http://www.w3.org/1999/xlink" x="0px" y="0px"
	 viewBox="0 0 97 97" style="enable-background:new 0 0 97 97;" xml:space="preserve">
<g>
	<linearGradient id="SVGID_1_" gradientUnits="userSpaceOnUse" x1="-108.1745" y1="222.9672" x2="66.2661" y2="29.2313">
		<stop  offset="0" style="stop-color:#32A5AE"/>
		<stop  offset="1" style="stop-color:#FFFFFF"/>
	</linearGradient>
	<path style="fill-rule:evenodd;clip-rule:evenodd;fill:url(#SVGID_1_);" d="M11.636,96C9.529,96,8,94.377,8,92.14V4.86
		C8,2.624,9.529,1,11.636,1h74.373C88.21,1,90,2.732,90,4.86V92.14c0,2.129-1.79,3.86-3.991,3.86H11.636z"/>
	<path style="fill:#028189;" d="M86.009,2C87.686,2,89,3.256,89,4.86v23.301v40.677V92.14c0,1.604-1.314,2.86-2.991,2.86H63.291
		H11.636C10.084,95,9,93.824,9,92.14v-0.129V4.989V4.86C9,3.176,10.084,2,11.636,2h51.655H86.009 M86.009,0H63.291H11.636
		C8.931,0,7,2.101,7,4.86v0.129v87.022v0.129C7,94.899,8.931,97,11.636,97h51.655h22.719C88.714,97,91,94.899,91,92.14V68.839
		V28.161V4.86C91,2.101,88.714,0,86.009,0L86.009,0z"/>
</g>
<g>
	<linearGradient id="SVGID_2_" gradientUnits="userSpaceOnUse" x1="22.0921" y1="46" x2="75.9079" y2="46">
		<stop  offset="0" style="stop-color:#F08701"/>
		<stop  offset="0.1303" style="stop-color:#F08701"/>
		<stop  offset="1" style="stop-color:#F08701"/>
	</linearGradient>
	<path style="fill:url(#SVGID_2_);" d="M44.878,17L22.092,75h9.928l4.48-12h25l4.48,12h9.928L53.164,17H44.878z M39.113,54
		l9.908-26.351L58.929,54H39.113z"/>
</g>
</svg>
