<?xml version="1.0" encoding="iso-8859-1"?>

<svg version="1.1" id="Capa_1" xmlns="http://www.w3.org/2000/svg" xmlns:xlink="http://www.w3.org/1999/xlink" x="0px" y="0px"
	 viewBox="0 0 97 97" style="enable-background:new 0 0 97 97;" xml:space="preserve">
<g>
	<linearGradient id="SVGID_1_" gradientUnits="userSpaceOnUse" x1="5.41" y1="102.3164" x2="62.5487" y2="45.1776">
		<stop  offset="0" style="stop-color:#038890"/>
		<stop  offset="0.1103" style="stop-color:#23979E"/>
		<stop  offset="0.3096" style="stop-color:#57B0B5"/>
		<stop  offset="0.407" style="stop-color:#6CBABE"/>
		<stop  offset="0.4133" style="stop-color:#71BCC0"/>
		<stop  offset="0.4691" style="stop-color:#96CED1"/>
		<stop  offset="0.5295" style="stop-color:#B7DDDF"/>
		<stop  offset="0.5941" style="stop-color:#D1EAEB"/>
		<stop  offset="0.6649" style="stop-color:#E6F3F4"/>
		<stop  offset="0.7447" style="stop-color:#F4FAFA"/>
		<stop  offset="0.8411" style="stop-color:#FCFEFE"/>
		<stop  offset="1" style="stop-color:#FFFFFF"/>
	</linearGradient>
	<path style="fill:url(#SVGID_1_);" d="M24.25,84C11.43,84,1,72.337,1,58c0-13.324,8.917-24.427,20.741-25.827l0.552-0.065
		l0.236-0.504C27.608,20.746,37.56,14,48.5,14c13.939,0,26.019,11.083,28.722,26.354l0.135,0.763l0.772,0.06
		C88.15,41.95,96,51.315,96,62.5C96,74.355,87.384,84,76.792,84H24.25z"/>
	<path style="fill:#028189;" d="M48.5,15c13.453,0,25.118,10.736,27.737,25.529l0.27,1.526l1.545,0.119
		C87.556,42.907,95,51.835,95,62.5C95,73.804,86.832,83,76.792,83H24.25C11.981,83,2,71.785,2,58
		c0-12.818,8.537-23.494,19.858-24.834l1.105-0.131l0.471-1.008C28.348,21.525,37.952,15,48.5,15 M48.5,13
		c-11.68,0-21.825,7.38-26.877,18.18C9.458,32.62,0,44.095,0,58c0,14.895,10.872,27,24.25,27h52.542C87.947,85,97,74.92,97,62.5
		c0-11.88-8.285-21.51-18.794-22.32C75.458,24.655,63.212,13,48.5,13L48.5,13z"/>
</g>
<linearGradient id="SVGID_2_" gradientUnits="userSpaceOnUse" x1="11.1659" y1="73.9942" x2="58.1659" y2="73.9942" gradientTransform="matrix(4.489700e-011 1 1 -4.489700e-011 -26.3775 14.3775)">
	<stop  offset="0" style="stop-color:#FBD19E"/>
	<stop  offset="0.031" style="stop-color:#FACA90"/>
	<stop  offset="0.1235" style="stop-color:#F7B86A"/>
	<stop  offset="0.2234" style="stop-color:#F5A949"/>
	<stop  offset="0.3304" style="stop-color:#F39D2F"/>
	<stop  offset="0.4473" style="stop-color:#F2931A"/>
	<stop  offset="0.5792" style="stop-color:#F18C0C"/>
	<stop  offset="0.7385" style="stop-color:#F08804"/>
	<stop  offset="1" style="stop-color:#F08701"/>
</linearGradient>
<path style="fill:url(#SVGID_2_);stroke:#17717A;stroke-width:2;stroke-linecap:round;stroke-linejoin:round;stroke-miterlimit:22.9256;" d="
	M29.474,56.207l14.873,14.907c1.91,1.905,4.728,1.905,6.629,0l14.873-14.907c1.901-1.915,1.977-4.816,0.076-6.731
	c-1.834-1.829-4.172-1.609-6.006,0.153L54,56.351V30.299c0-1.302-1.245-2.604-2.238-3.437c-2.283-2.145-6.983-1.609-8.501,1.149
	C42.879,28.7,42,29.542,42,30.308V56.36c0,0-6.344-6.645-6.344-6.721c-1.748-1.762-4.734-1.982-6.482-0.153
	C27.349,51.314,27.573,54.292,29.474,56.207"/>
</svg>
