<?xml version="1.0" encoding="iso-8859-1"?>

<svg version="1.1" id="Capa_1" xmlns="http://www.w3.org/2000/svg" xmlns:xlink="http://www.w3.org/1999/xlink" x="0px" y="0px"
	 viewBox="0 0 97 97" style="enable-background:new 0 0 97 97;" xml:space="preserve">
<g>
	<linearGradient id="SVGID_1_" gradientUnits="userSpaceOnUse" x1="91.9498" y1="8.0959" x2="4.054" y2="90.0601">
		<stop  offset="0.2632" style="stop-color:#FFFFFF"/>
		<stop  offset="1" style="stop-color:#3BC2C4;stop-opacity:0.2271"/>
	</linearGradient>
	<path style="fill-rule:evenodd;clip-rule:evenodd;fill:url(#SVGID_1_);" d="M12.14,96C6.102,96,1,91.019,1,85.123V12.086
		C1,6.18,6.206,1,12.14,1h73.037C91.044,1,96,6.077,96,12.086v73.037C96,91.019,91.044,96,85.177,96H12.14z"/>
	<path style="fill:#007C84;" d="M85.089,2C90.413,2,95,6.619,95,12.086v73.037C95,90.477,90.502,95,85.177,95H12.14
		C6.738,95,2,90.385,2,85.123V12.086C2,6.713,6.738,2,12.14,2H85 M85.177,0H12.14C5.664,0,0,5.61,0,12.086v73.037
		C0,91.602,5.664,97,12.14,97h73.037C91.655,97,97,91.602,97,85.123V12.086C97,5.61,91.655,0,85.177,0L85.177,0z"/>
</g>
<g>
	<g>
		<path style="fill:#007C84;stroke:#007C84;stroke-width:2;stroke-miterlimit:10;" d="M20.072,11.403
			c0.332-0.791,1.161-1.341,2.02-1.326c0.889-0.017,1.744,0.576,2.052,1.408c0.218,0.546,0.132,1.146,0.148,1.719
			c0.013,0.833-0.03,1.667,0.023,2.499c2.988,0.565,5.691,2.405,7.367,4.935c1.505,2.242,2.175,5.029,1.848,7.71
			c-0.299,2.607-1.541,5.086-3.43,6.906c-1.588,1.549-3.632,2.607-5.804,3.043c-0.012,15.522,0.001,31.044-0.007,46.566
			c0.004,0.762-0.423,1.506-1.084,1.885c-0.694,0.42-1.623,0.401-2.302-0.043c-0.655-0.411-1.048-1.184-1.013-1.955
			c0.002-15.375-0.002-30.75,0.001-46.125c-0.019-0.123,0.048-0.359-0.145-0.365c-2.561-0.523-4.918-1.962-6.57-3.985
			c-1.646-1.994-2.584-4.557-2.604-7.142c-0.038-2.321,0.66-4.646,1.968-6.565c1.68-2.497,4.366-4.3,7.325-4.866
			c0.054-0.832,0.011-1.666,0.024-2.499C19.908,12.603,19.814,11.968,20.072,11.403z M21.023,19.973
			c-2.844,0.398-5.298,2.69-5.885,5.501c-0.44,1.968,0.002,4.125,1.223,5.736c0.976,1.338,2.435,2.314,4.046,2.703
			c1.604,0.39,3.346,0.201,4.824-0.538c1.682-0.833,3.01-2.355,3.598-4.138c0.483-1.453,0.48-3.063-0.017-4.511
			c-0.638-1.882-2.099-3.466-3.925-4.252C23.68,19.949,22.324,19.779,21.023,19.973z"/>
	</g>
	<g>
		<path style="fill:#007C84;stroke:#007C84;stroke-width:2;stroke-miterlimit:10;" d="M47.096,10.677
			c0.553-0.524,1.388-0.72,2.116-0.502c0.66,0.188,1.214,0.703,1.447,1.349c0.181,0.464,0.13,0.972,0.137,1.46
			c-0.001,11.61,0,23.22,0,34.83c0.009,2.468-0.018,4.936,0.013,7.404c3.39,0.638,6.411,2.912,7.998,5.972
			c1.204,2.279,1.593,4.97,1.099,7.499c-0.605,3.227-2.687,6.125-5.525,7.767c-1.099,0.639-2.302,1.108-3.553,1.341
			c-0.055,0.323-0.029,0.651-0.032,0.977c0,1.993-0.001,3.985,0.001,5.976c0.011,0.472-0.107,0.951-0.377,1.342
			c-0.503,0.772-1.521,1.152-2.407,0.895c-0.937-0.242-1.639-1.162-1.617-2.131c-0.007-2.349,0.007-4.698-0.006-7.046
			c-3.571-0.679-6.734-3.158-8.249-6.461c-1.146-2.447-1.378-5.304-0.651-7.905c0.867-3.184,3.186-5.924,6.168-7.331
			c0.868-0.423,1.796-0.704,2.738-0.909c-0.001-14.296-0.002-28.592,0-42.887C46.386,11.704,46.643,11.093,47.096,10.677z
			 M47.457,59.493c-2.919,0.438-5.389,2.883-5.865,5.794c-0.334,1.88,0.126,3.891,1.275,5.419c0.98,1.341,2.439,2.328,4.056,2.713
			c1.723,0.425,3.601,0.165,5.145-0.71c1.465-0.832,2.634-2.187,3.208-3.775c0.512-1.389,0.566-2.94,0.158-4.363
			c-0.538-1.927-1.941-3.587-3.74-4.458C50.391,59.476,48.889,59.261,47.457,59.493z"/>
	</g>
	<g>
		<path style="fill:#007C84;stroke:#007C84;stroke-width:2;stroke-miterlimit:10;" d="M74.143,10.311
			c0.718-0.36,1.63-0.28,2.272,0.203c0.568,0.411,0.907,1.108,0.896,1.808c0.003,4.888,0,9.778,0.001,14.666
			c3.459,0.661,6.539,3.001,8.102,6.157c1.139,2.252,1.493,4.887,1.002,7.363c-0.609,3.183-2.652,6.044-5.44,7.688
			c-1.13,0.674-2.378,1.138-3.665,1.406c0.007,11.529,0,23.06,0.002,34.589c0,0.538,0.041,1.107-0.208,1.604
			c-0.415,0.932-1.533,1.471-2.519,1.205c-0.964-0.22-1.696-1.155-1.673-2.145c-0.001-11.751-0.004-23.502,0.002-35.253
			c-1.779-0.37-3.481-1.128-4.908-2.258c-1.594-1.248-2.855-2.922-3.602-4.805c-0.893-2.228-1.055-4.74-0.462-7.067
			c0.808-3.263,3.138-6.096,6.168-7.545c0.887-0.437,1.836-0.736,2.802-0.94c0.001-4.888-0.001-9.778,0.001-14.666
			C72.888,11.487,73.391,10.671,74.143,10.311z M73.992,31.292c-0.975,0.19-1.929,0.537-2.761,1.088
			c-1.397,0.899-2.461,2.303-2.933,3.897c-0.548,1.817-0.322,3.855,0.634,5.497c0.966,1.705,2.67,2.951,4.57,3.413
			c2.971,0.791,6.297-0.768,7.786-3.417c1.161-1.981,1.236-4.541,0.2-6.59C80.167,32.466,76.981,30.761,73.992,31.292z"/>
	</g>
</g>
<linearGradient id="SVGID_2_" gradientUnits="userSpaceOnUse" x1="43.7273" y1="71.1555" x2="53.6955" y2="61.1872">
	<stop  offset="0.4" style="stop-color:#32A5AE"/>
	<stop  offset="0.85" style="stop-color:#FFFFFF"/>
</linearGradient>
<path style="fill-rule:evenodd;clip-rule:evenodd;fill:url(#SVGID_2_);" d="M43.386,61.185c2.846-2.849,7.464-2.849,10.312,0
	c2.848,2.848,2.848,7.466,0,10.312c-2.848,2.848-7.466,2.848-10.312,0C40.536,68.651,40.536,64.033,43.386,61.185z"/>
<linearGradient id="SVGID_3_" gradientUnits="userSpaceOnUse" x1="17.3105" y1="31.8325" x2="27.2788" y2="21.8643">
	<stop  offset="0.4" style="stop-color:#32A5AE"/>
	<stop  offset="0.85" style="stop-color:#FFFFFF"/>
</linearGradient>
<path style="fill-rule:evenodd;clip-rule:evenodd;fill:url(#SVGID_3_);" d="M16.969,21.862c2.846-2.849,7.464-2.849,10.312,0
	c2.848,2.848,2.848,7.466,0,10.312c-2.848,2.848-7.466,2.848-10.312,0C14.12,29.328,14.12,24.71,16.969,21.862z"/>
<linearGradient id="SVGID_4_" gradientUnits="userSpaceOnUse" x1="70.5565" y1="43.1187" x2="80.5248" y2="33.1505">
	<stop  offset="0.4" style="stop-color:#32A5AE"/>
	<stop  offset="0.85" style="stop-color:#FFFFFF"/>
</linearGradient>
<path style="fill-rule:evenodd;clip-rule:evenodd;fill:url(#SVGID_4_);" d="M70.215,33.148c2.846-2.849,7.464-2.849,10.312,0
	c2.848,2.848,2.848,7.466,0,10.312c-2.848,2.848-7.466,2.848-10.312,0C67.366,40.614,67.366,35.996,70.215,33.148z"/>
</svg>
