<?xml version="1.0" encoding="iso-8859-1"?>

<svg version="1.1" id="Capa_1" xmlns="http://www.w3.org/2000/svg" xmlns:xlink="http://www.w3.org/1999/xlink" x="0px" y="0px"
	 viewBox="0 0 97 97" style="enable-background:new 0 0 97 97;" xml:space="preserve">
<g>
	<g>
		
			<linearGradient id="SVGID_1_" gradientUnits="userSpaceOnUse" x1="-99.5361" y1="197.7947" x2="44.928" y2="37.3511" gradientTransform="matrix(1 0 0 -1 0 97.1338)">
			<stop  offset="0" style="stop-color:#32A5AE"/>
			<stop  offset="1" style="stop-color:#FFFFFF"/>
		</linearGradient>
		<path style="fill-rule:evenodd;clip-rule:evenodd;fill:url(#SVGID_1_);" d="M3.189,96C1.466,96,1,94.378,1,92.775V4.224
			C1,2.622,1.466,1,3.189,1H66.04C67.645,1,69,2.477,69,4.224l0.994,68.958L48.319,96H3.189z"/>
		<path style="fill:#028189;" d="M66.02,2c1.062,0,1.97,1.019,1.97,2.253l0.993,68.536L47.889,95h-44.7C2.123,95,2,93.881,2,92.776
			V4.224C2,3.119,2.123,2,3.189,2H66 M66.04,0H3.189C1.011,0,0,1.938,0,4.224v88.551C0,95.062,1.011,97,3.189,97h45.559L71,73.575
			L70,4.224C70,1.938,68.218,0,66.04,0L66.04,0z"/>
	</g>
	<g>
		
			<linearGradient id="SVGID_2_" gradientUnits="userSpaceOnUse" x1="57.7296" y1="13.1687" x2="49.3739" y2="22.7809" gradientTransform="matrix(1 0 0 -1 0 97.1338)">
			<stop  offset="0" style="stop-color:#32A5AE"/>
			<stop  offset="1" style="stop-color:#FFFFFF"/>
		</linearGradient>
		<path style="fill-rule:evenodd;clip-rule:evenodd;fill:url(#SVGID_2_);" d="M49,77.707C49,76.17,49.966,75,51.708,75h15.99
			L49,94.355V77.707z"/>
		<path style="fill:#028189;" d="M65.396,76L50,91.819V77.707C50,76.893,50.496,76,51.708,76H65 M70,74h0.005H70z M70,74H51.708
			C49.53,74,48,75.423,48,77.707v19.185L70,74L70,74z"/>
	</g>
	
		<line style="fill-rule:evenodd;clip-rule:evenodd;fill:none;stroke:#028189;stroke-width:3;stroke-linecap:round;stroke-linejoin:round;stroke-miterlimit:22.9256;" x1="11" y1="31.5" x2="60" y2="31.5"/>
	
		<line style="fill-rule:evenodd;clip-rule:evenodd;fill:none;stroke:#028189;stroke-width:3;stroke-linecap:round;stroke-linejoin:round;stroke-miterlimit:22.9256;" x1="11" y1="51.5" x2="60" y2="51.5"/>
	
		<line style="fill-rule:evenodd;clip-rule:evenodd;fill:none;stroke:#028189;stroke-width:3;stroke-linecap:round;stroke-linejoin:round;stroke-miterlimit:22.9256;" x1="11" y1="21.5" x2="60" y2="21.5"/>
	
		<line style="fill-rule:evenodd;clip-rule:evenodd;fill:none;stroke:#028189;stroke-width:3;stroke-linecap:round;stroke-linejoin:round;stroke-miterlimit:22.9256;" x1="11" y1="41.5" x2="60" y2="41.5"/>
	
		<line style="fill-rule:evenodd;clip-rule:evenodd;fill:none;stroke:#028189;stroke-width:3;stroke-linecap:round;stroke-linejoin:round;stroke-miterlimit:22.9256;" x1="11" y1="61.5" x2="60" y2="61.5"/>
	
		<line style="fill-rule:evenodd;clip-rule:evenodd;fill:none;stroke:#028189;stroke-width:3;stroke-linecap:round;stroke-linejoin:round;stroke-miterlimit:22.9256;" x1="11" y1="71.5" x2="37" y2="71.5"/>
</g>
<g>
	
		<radialGradient id="SVGID_3_" cx="889.1068" cy="-93.0686" r="132.9735" gradientTransform="matrix(0.1462 0 0 0.1462 -64.0191 46.1099)" gradientUnits="userSpaceOnUse">
		<stop  offset="0.6798" style="stop-color:#F9BD72"/>
		<stop  offset="0.8142" style="stop-color:#F9BE74"/>
		<stop  offset="0.8626" style="stop-color:#F9C17B"/>
		<stop  offset="0.8971" style="stop-color:#FAC786"/>
		<stop  offset="0.925" style="stop-color:#FBCE97"/>
		<stop  offset="0.9489" style="stop-color:#FCD9AD"/>
		<stop  offset="0.9701" style="stop-color:#FDE6C9"/>
		<stop  offset="0.9888" style="stop-color:#FEF4E8"/>
		<stop  offset="1" style="stop-color:#FFFFFF"/>
	</radialGradient>
	
		<line style="fill:url(#SVGID_3_);stroke:#E89613;stroke-width:10;stroke-linecap:round;stroke-linejoin:round;stroke-miterlimit:10;" x1="66" y1="5" x2="66" y2="60"/>
	
		<radialGradient id="SVGID_4_" cx="888.8429" cy="-100.4951" r="131.8261" gradientTransform="matrix(0.1462 0 0 0.1462 -64.0191 46.1099)" gradientUnits="userSpaceOnUse">
		<stop  offset="0.6798" style="stop-color:#F9BD72"/>
		<stop  offset="0.8142" style="stop-color:#F9BE74"/>
		<stop  offset="0.8626" style="stop-color:#F9C17B"/>
		<stop  offset="0.8971" style="stop-color:#FAC786"/>
		<stop  offset="0.925" style="stop-color:#FBCE97"/>
		<stop  offset="0.9489" style="stop-color:#FCD9AD"/>
		<stop  offset="0.9701" style="stop-color:#FDE6C9"/>
		<stop  offset="0.9888" style="stop-color:#FEF4E8"/>
		<stop  offset="1" style="stop-color:#FFFFFF"/>
	</radialGradient>
	
		<line style="fill:url(#SVGID_4_);stroke:#E89613;stroke-width:10.2268;stroke-linecap:round;stroke-linejoin:round;stroke-miterlimit:10;" x1="46.684" y1="12.136" x2="85.239" y2="50.692"/>
	
		<radialGradient id="SVGID_5_" cx="887.825" cy="-101.5131" r="131.8261" gradientTransform="matrix(0.1462 0 0 0.1462 -64.0191 46.1099)" gradientUnits="userSpaceOnUse">
		<stop  offset="0.6798" style="stop-color:#F9BD72"/>
		<stop  offset="0.8142" style="stop-color:#F9BE74"/>
		<stop  offset="0.8626" style="stop-color:#F9C17B"/>
		<stop  offset="0.8971" style="stop-color:#FAC786"/>
		<stop  offset="0.925" style="stop-color:#FBCE97"/>
		<stop  offset="0.9489" style="stop-color:#FCD9AD"/>
		<stop  offset="0.9701" style="stop-color:#FDE6C9"/>
		<stop  offset="0.9888" style="stop-color:#FEF4E8"/>
		<stop  offset="1" style="stop-color:#FFFFFF"/>
	</radialGradient>
	
		<line style="fill:url(#SVGID_5_);stroke:#E89613;stroke-width:10.2268;stroke-linecap:round;stroke-linejoin:round;stroke-miterlimit:10;" x1="46.535" y1="50.543" x2="85.09" y2="11.987"/>
	
		<radialGradient id="SVGID_6_" cx="878.8494" cy="-103.326" r="132.9733" gradientTransform="matrix(0.1462 0 0 0.1462 -64.0191 46.1099)" gradientUnits="userSpaceOnUse">
		<stop  offset="0.6798" style="stop-color:#F9BD72"/>
		<stop  offset="0.8142" style="stop-color:#F9BE74"/>
		<stop  offset="0.8626" style="stop-color:#F9C17B"/>
		<stop  offset="0.8971" style="stop-color:#FAC786"/>
		<stop  offset="0.925" style="stop-color:#FBCE97"/>
		<stop  offset="0.9489" style="stop-color:#FCD9AD"/>
		<stop  offset="0.9701" style="stop-color:#FDE6C9"/>
		<stop  offset="0.9888" style="stop-color:#FEF4E8"/>
		<stop  offset="1" style="stop-color:#FFFFFF"/>
	</radialGradient>
	
		<line style="fill:url(#SVGID_6_);stroke:#E89613;stroke-width:10;stroke-linecap:round;stroke-linejoin:round;stroke-miterlimit:10;" x1="37" y1="31" x2="92" y2="31"/>
	
		<line style="fill:none;stroke:#FFFFFF;stroke-width:2;stroke-linecap:round;stroke-linejoin:round;stroke-miterlimit:10;" x1="66" y1="5" x2="66" y2="60"/>
	
		<line style="fill:none;stroke:#FFFFFF;stroke-width:2;stroke-linecap:round;stroke-linejoin:round;stroke-miterlimit:10;" x1="46.538" y1="12.222" x2="85.094" y2="50.778"/>
	
		<line style="fill:none;stroke:#FFFFFF;stroke-width:2;stroke-linecap:round;stroke-linejoin:round;stroke-miterlimit:10;" x1="46.389" y1="50.629" x2="84.945" y2="12.073"/>
	
		<line style="fill:none;stroke:#FFFFFF;stroke-width:2;stroke-linecap:round;stroke-linejoin:round;stroke-miterlimit:10;" x1="37" y1="31" x2="92" y2="31"/>
</g>
</svg>
