<?xml version="1.0" encoding="iso-8859-1"?>

<svg version="1.1" id="Capa_1" xmlns="http://www.w3.org/2000/svg" xmlns:xlink="http://www.w3.org/1999/xlink" x="0px" y="0px"
	 viewBox="0 0 97 97" style="enable-background:new 0 0 97 97;" xml:space="preserve">
<g>
	
		<linearGradient id="SVGID_1_" gradientUnits="userSpaceOnUse" x1="-64.6182" y1="150.606" x2="55.7236" y2="16.9529" gradientTransform="matrix(1 0 0 1 0 32.4503)">
		<stop  offset="0" style="stop-color:#32A5AE"/>
		<stop  offset="1" style="stop-color:#FFFFFF"/>
	</linearGradient>
	<path style="fill-rule:evenodd;clip-rule:evenodd;fill:url(#SVGID_1_);" d="M19.115,20H59.4L81,41.942v49.927
		C81,94.022,79.227,96,77.117,96H19.115C17.006,96,15,94.022,15,91.869v-68.01C15,21.706,17.006,20,19.115,20z"/>
</g>
<g>
	<g>
		<linearGradient id="SVGID_2_" gradientUnits="userSpaceOnUse" x1="14.8998" y1="82.3456" x2="95.7771" y2="5.9615">
			<stop  offset="0" style="stop-color:#036973"/>
			<stop  offset="1" style="stop-color:#32A5AE"/>
		</linearGradient>
		<path style="fill:url(#SVGID_2_);" d="M82.152,70.919C82.147,68.646,82,66.374,82,64.102v-5.214c0-0.552-0.297-0.999-0.849-0.999
			c-10.441-0.007-20.809-0.009-31.25-0.009c-11.426,0-22.815,0.003-34.241,0.007c-0.55,0-0.979,0.445-0.981,0.996
			c-0.009,2.396,0.002,4.832,0.004,7.228c0.001,1.616,0.011,2.89,0.009,4.89H1v-1.313c0-12.954-0.008-24.309,0.008-37.455
			c0.05-2.502,2.382-4.742,4.99-4.774c1.465-0.008,2.938-0.011,4.41-0.011l4.282,0.004c0.003,1.281,0.001,6.763,0.001,6.763
			c0.001,0.552,0.449,0.999,1.001,0.999L81.15,35.21c0.552,0,0.85-0.447,0.85-0.999v-3.188c0-1.162,0.147-2.28,0.151-3.572
			c1.2-0.002,2.475-0.003,3.677-0.003l5.326,0.005c1.907,0.036,3.755,1.296,4.441,3.066C95.981,31.424,96,32.463,96,33.456v1.946
			c0,12.333-0.083,23.107-0.079,35.52L82.152,70.919z M18.714,42.394c-0.476,0-0.938,0.084-1.372,0.251
			c-1.877,0.643-3.035,2.773-2.545,4.736c0.352,1.768,2.064,3.137,3.974,3.137l0,0c0.41,0,0.811-0.065,1.192-0.194
			c1.034-0.284,1.948-1.077,2.455-2.159c0.502-1.072,0.526-2.271,0.066-3.288C21.934,43.438,20.375,42.394,18.714,42.394z
			 M30.938,42.394c-0.477,0-0.939,0.084-1.374,0.251c-1.885,0.646-3.039,2.784-2.538,4.753c0.355,1.758,2.064,3.119,3.965,3.119
			c0,0,0,0,0,0c0.405,0,0.802-0.064,1.179-0.19c1.039-0.279,1.959-1.073,2.469-2.161c0.506-1.078,0.528-2.282,0.061-3.302
			C34.15,43.432,32.593,42.394,30.938,42.394z M43.165,42.394c-0.484,0-0.953,0.087-1.393,0.259c-1.874,0.651-3.02,2.787-2.52,4.748
			c0.358,1.756,2.069,3.115,3.968,3.116l0,0c0.411,0,0.813-0.066,1.195-0.195c1.032-0.284,1.945-1.076,2.451-2.156
			c0.501-1.07,0.527-2.266,0.069-3.281C46.39,43.441,44.83,42.394,43.165,42.394z"/>
		<path style="fill:#028189;" d="M10.389,28.223L13.519,28H14c0,1,0,2.172,0,3.024c0,0.988-0.156,2.008-0.154,3.191
			c0.002,1.104,0.819,1.997,1.923,1.997l-0.038-0.105C25.113,36.105,34.459,36,43.841,36h18.729H81.3
			c1.103,0,1.849-0.788,1.85-1.892C83.152,32.924,83,32.01,83,31.022c0-0.852,0-1.68,0-2.572c1-0.001,1.885-0.002,2.753-0.002
			c1.762,0,3.598,0.002,5.327,0.005c1.505,0.028,3.023,1.049,3.559,2.428c0.008,0.021,0.04,0.042,0.049,0.063
			C94.985,31.641,95,32.549,95,33.427c0,0.019,0,0.039,0,0.058v1.943c0,11.989-0.008,22.549-0.005,34.534L92.934,70h-3.328h-3.328
			c-0.993,0-1.986-0.04-2.978-0.04c-0.003-1.939-0.001-3.897,0-5.835c0.001-1.739,0.002-3.488,0-5.228
			c-0.001-1.103-0.895-2.002-1.999-2.003c-10.441-0.007-20.884-0.012-31.326-0.012c-11.427,0-22.852,0.002-34.278,0.006
			c-1.101,0-1.841,0.891-1.845,1.992C13.843,61.266,14,63.651,14,66.037C14,67.331,14,69,14,70h-0.902l-6.941-0.038
			c-1.384,0-2.768-0.021-4.151-0.022C2,56.89,1.995,45.468,2.01,32.282c0.039-1.97,1.946-3.905,3.988-3.931
			C7.461,28.343,8.926,28.223,10.389,28.223 M29.24,41.699c-2.363,0.832-3.786,3.462-3.194,5.899
			c0.479,2.238,2.597,3.919,4.946,3.919c0.494,0,0.978-0.075,1.441-0.223c1.354-0.385,2.487-1.367,3.113-2.703
			c0.622-1.326,0.653-2.812,0.089-4.088c-0.747-1.862-2.627-3.109-4.697-3.109C30.351,41.393,29.779,41.496,29.24,41.699
			 M41.444,41.708c-2.351,0.839-3.765,3.466-3.172,5.893c0.482,2.235,2.601,3.915,4.948,3.915c0.501,0,0.993-0.077,1.463-0.23
			c1.343-0.389,2.467-1.369,3.089-2.695c0.617-1.315,0.653-2.792,0.1-4.062c-0.741-1.878-2.624-3.136-4.706-3.136
			C42.569,41.394,41.99,41.5,41.444,41.708 M17.017,41.699c-2.354,0.828-3.78,3.449-3.202,5.878c0.473,2.25,2.594,3.941,4.955,3.941
			c0.5,0,0.991-0.077,1.459-0.229c1.345-0.389,2.47-1.371,3.093-2.7c0.618-1.318,0.652-2.798,0.096-4.069
			c-0.743-1.872-2.625-3.126-4.704-3.126C18.127,41.394,17.556,41.497,17.017,41.699 M10.389,26.448
			c-1.467,0-2.935,0.002-4.403,0.011c-3.069,0.039-5.915,2.661-5.976,5.774C-0.006,46.127,0,58.021,0.006,71.918
			c2.05,0.002,4.1,0.003,6.151,0.003c3.178,0,6.356-0.002,9.532-0.003c0.01-4.344-0.008-8.687,0.008-13.031
			c11.426-0.004,22.851-0.007,34.277-0.007c10.441,0,20.884,0.003,31.325,0.009c0.004,4.344-0.008,8.685,0.004,13.029
			c1.658,0.003,3.316,0.003,4.974,0.003c2.219,0,4.437-0.001,6.656-0.001c1.352,0,2.705,0,4.057,0.002
			c-0.004-13.479-0.002-24.958,0-38.437c0.033-1.123-0.002-2.28-0.45-3.327c-0.837-2.158-3.042-3.661-5.349-3.704
			c-1.764-0.003-3.527-0.005-5.29-0.005c-1.533,0-3.065,0.002-4.598,0.005c-0.012,2.919,0,4.837-0.004,7.756
			c-12.487,0-24.971-0.001-37.459-0.001c-9.382,0-18.767,0.001-28.15,0.003c-0.004-2.919,0.008-4.841-0.004-7.76
			C13.921,26.451,12.155,26.448,10.389,26.448L10.389,26.448z M30.992,49.517c-1.37,0-2.717-0.99-2.996-2.365
			c-0.371-1.459,0.503-3.084,1.927-3.573c0.328-0.126,0.672-0.185,1.015-0.185c1.208,0,2.408,0.733,2.854,1.886
			c0.729,1.593-0.253,3.643-1.938,4.099C31.573,49.473,31.282,49.517,30.992,49.517L30.992,49.517z M18.77,49.518
			c-1.376,0-2.728-0.996-3.003-2.378c-0.363-1.457,0.513-3.074,1.934-3.561c0.327-0.125,0.671-0.185,1.014-0.185
			c1.211,0,2.415,0.737,2.858,1.896c0.719,1.589-0.257,3.624-1.93,4.087C19.357,49.473,19.063,49.518,18.77,49.518L18.77,49.518z
			 M43.22,49.517c-1.37,0-2.717-0.987-2.999-2.363c-0.371-1.455,0.497-3.076,1.915-3.569c0.332-0.13,0.681-0.191,1.029-0.191
			c1.212,0,2.417,0.739,2.858,1.902c0.715,1.587-0.259,3.616-1.93,4.079C43.809,49.472,43.514,49.517,43.22,49.517L43.22,49.517z"/>
	</g>
</g>
<g>
	<linearGradient id="SVGID_3_" gradientUnits="userSpaceOnUse" x1="13.6323" y1="10.4776" x2="83.3605" y2="10.4776">
		<stop  offset="0" style="stop-color:#036973"/>
		<stop  offset="1" style="stop-color:#32A5AE"/>
	</linearGradient>
	<path style="fill:url(#SVGID_3_);" d="M13.632,20c0.006-2,0.004-4.012,0.002-6.116c-0.002-2.76-0.005-5.421,0.011-8.18
		c0.035-2.507,2.448-4.749,5.063-4.749l59.645,0.021c1.846,0,3.594,1.061,4.414,2.621c0.396,0.746,0.601,1.647,0.594,2.599
		c-0.007,2.631-0.005,3.377-0.004,4.19c0.001,0.64,0.002,1.323,0,3.005c-0.353,0-0.705,0.002-1.057,0.004l-0.004-7.38
		c0.031-1.489-0.832-2.921-2.148-3.543c-0.712-0.37-1.493-0.451-2.159-0.451L76.944,2H40.199C33.083,2,18.85,2.035,18.848,2.035
		c-1.197,0-2.278,0.482-3.066,1.295C15.053,4.083,14.668,5.05,14.7,6.039c-0.011,2.789-0.01,5.42-0.008,8.245
		c0.001,1.97,0.002,3.716,0,5.716C14.691,20,13.744,20,13.632,20z"/>
	<path style="fill:#028189;" d="M78.414,0c-0.021,0-0.042,0-0.063,0c-4.953,0.002-9.907,0.003-14.86,0.003
		c-8.272,0-16.541-0.002-24.813-0.002c-6.608,0-13.219,0.001-19.827,0.005c-0.048-0.001-0.096-0.002-0.144-0.002
		c-3.099,0-6.018,2.64-6.062,5.792c-0.031,5.199,0.006,10.204-0.016,15.405C13.074,21.197,13.519,21,13.964,21
		c0.334,0,0.668,0,1.002,0c0.241,0,0.482,0.196,0.723,0.195c0.012-5.126-0.01-10.153,0.01-15.279
		c-0.052-1.632,1.479-2.903,3.057-2.903c0.033,0,0.066,0.025,0.099,0.026c7.152-0.005,14.303,0.007,21.455,0.007
		c7.812,0,15.625,0.008,23.438,0.008c4.391,0,8.784,0.003,13.175,0.001c0.066,0.001,0.133,0.004,0.2,0.004
		c0.286,0,0.576-0.01,0.865-0.01c0.598,0,1.192,0.046,1.733,0.327c0.992,0.469,1.597,1.557,1.575,2.641
		c0.008,5.128,0,3.258,0.004,8.386c1.017-0.008,2.035-0.01,3.054-0.01c0.01-5.061-0.006-3.121,0.006-8.182
		c0.008-1.059-0.21-2.127-0.709-3.066C82.65,1.239,80.56,0,78.414,0L78.414,0z"/>
</g>
<g>
	
		<linearGradient id="SVGID_4_" gradientUnits="userSpaceOnUse" x1="71.3293" y1="12.3249" x2="64.478" y2="20.2065" gradientTransform="matrix(1 0 0 -1 0 97.1338)">
		<stop  offset="0" style="stop-color:#32A5AE"/>
		<stop  offset="1" style="stop-color:#FFFFFF"/>
	</linearGradient>
	<path style="fill-rule:evenodd;clip-rule:evenodd;fill:url(#SVGID_4_);" d="M64,79.776C64,78.65,64.302,78,65.708,78h14.567
		L64,93.478V79.776z"/>
	<path style="fill:#028189;" d="M76.552,79L65,89.954V79.776C65,79.013,65.562,79,65.708,79H77 M84,76h0.005H84z M84,76H65.708
		C63.53,76,62,77.725,62,79.776V97L84,76L84,76z"/>
</g>
<line style="fill-rule:evenodd;clip-rule:evenodd;fill:none;stroke:#028189;stroke-width:3;stroke-linecap:round;stroke-linejoin:round;stroke-miterlimit:22.9256;" x1="24" y1="77.5" x2="50" y2="77.5"/>
<g>
	<linearGradient id="SVGID_5_" gradientUnits="userSpaceOnUse" x1="13.6323" y1="86.5" x2="61" y2="86.5">
		<stop  offset="0" style="stop-color:#036973"/>
		<stop  offset="1" style="stop-color:#32A5AE"/>
	</linearGradient>
	<path style="fill:url(#SVGID_5_);" d="M18.708,95.974c-2.615,0-5.028-2.302-5.063-4.817c-0.016-2.751-0.013-5.298-0.011-8.057
		C13.637,80.995,13.639,79,13.632,77c0.112,0,1.059,0,1.059,0c0.003,2,0.002,3.722,0,5.693c-0.002,2.823-0.003,5.538,0.007,8.361
		c-0.031,0.954,0.354,1.858,1.083,2.611c0.789,0.814,1.873,1.255,2.973,1.255l0.136,0.035C26.116,94.961,33.376,95,40.636,95H61v1
		H39.487C32.61,96,18.708,95.974,18.708,95.974z"/>
	<path style="fill:#028189;" d="M12.629,75.776c0.022,5.201-0.014,10.293,0.016,15.492c0.044,3.152,2.963,5.737,6.062,5.737
		c0.048,0,0.096-0.028,0.144-0.029c7.363,0.005,14.518-0.008,21.881-0.008c7.159,0,14.268-0.015,21.268-0.015v-3.058
		c-7,0-14.071,0.001-21.21,0.001c-7.381,0-14.657-0.001-22.039-0.006c-0.033,0.001-0.014,0.002-0.047,0.002
		c-1.577,0-3.083-1.32-3.031-2.952c-0.02-5.126,0.015-10.033,0.003-15.159C15.435,75.781,15.206,76,14.965,76
		c-0.334,0-0.669,0-1.003,0C13.517,76,13.073,75.78,12.629,75.776L12.629,75.776z"/>
</g>
<line style="fill-rule:evenodd;clip-rule:evenodd;fill:none;stroke:#028189;stroke-width:3;stroke-linecap:round;stroke-linejoin:round;stroke-miterlimit:22.9256;" x1="24" y1="67.5" x2="73" y2="67.5"/>
<linearGradient id="SVGID_6_" gradientUnits="userSpaceOnUse" x1="103.856" y1="29.0444" x2="103.856" y2="29.0444">
	<stop  offset="0" style="stop-color:#036973"/>
	<stop  offset="1" style="stop-color:#32A5AE"/>
</linearGradient>
<path style="fill:url(#SVGID_6_);stroke:#028189;stroke-width:1.9999;stroke-linecap:round;stroke-linejoin:round;stroke-miterlimit:22.9256;" d="
	M103.856,29.044"/>
<linearGradient id="SVGID_7_" gradientUnits="userSpaceOnUse" x1="84.1169" y1="48.5584" x2="99.7463" y2="48.3715">
	<stop  offset="0.2764" style="stop-color:#FFFFFF;stop-opacity:0"/>
	<stop  offset="1" style="stop-color:#FFFFFF;stop-opacity:0.75"/>
</linearGradient>
<path style="fill:url(#SVGID_7_);" d="M95,70H83V27h8.233C93.313,27,95,28.821,95,30.902V70z"/>
<g>
	
		<radialGradient id="SVGID_8_" cx="889.1068" cy="-93.0686" r="132.9735" gradientTransform="matrix(0.1462 0 0 0.1462 -64.0191 46.1099)" gradientUnits="userSpaceOnUse">
		<stop  offset="0.6798" style="stop-color:#F9BD72"/>
		<stop  offset="0.8142" style="stop-color:#F9BE74"/>
		<stop  offset="0.8626" style="stop-color:#F9C17B"/>
		<stop  offset="0.8971" style="stop-color:#FAC786"/>
		<stop  offset="0.925" style="stop-color:#FBCE97"/>
		<stop  offset="0.9489" style="stop-color:#FCD9AD"/>
		<stop  offset="0.9701" style="stop-color:#FDE6C9"/>
		<stop  offset="0.9888" style="stop-color:#FEF4E8"/>
		<stop  offset="1" style="stop-color:#FFFFFF"/>
	</radialGradient>
	
		<line style="fill:url(#SVGID_8_);stroke:#E89613;stroke-width:10;stroke-linecap:round;stroke-linejoin:round;stroke-miterlimit:10;" x1="66" y1="5" x2="66" y2="60"/>
	
		<radialGradient id="SVGID_9_" cx="888.8429" cy="-100.4951" r="131.8261" gradientTransform="matrix(0.1462 0 0 0.1462 -64.0191 46.1099)" gradientUnits="userSpaceOnUse">
		<stop  offset="0.6798" style="stop-color:#F9BD72"/>
		<stop  offset="0.8142" style="stop-color:#F9BE74"/>
		<stop  offset="0.8626" style="stop-color:#F9C17B"/>
		<stop  offset="0.8971" style="stop-color:#FAC786"/>
		<stop  offset="0.925" style="stop-color:#FBCE97"/>
		<stop  offset="0.9489" style="stop-color:#FCD9AD"/>
		<stop  offset="0.9701" style="stop-color:#FDE6C9"/>
		<stop  offset="0.9888" style="stop-color:#FEF4E8"/>
		<stop  offset="1" style="stop-color:#FFFFFF"/>
	</radialGradient>
	
		<line style="fill:url(#SVGID_9_);stroke:#E89613;stroke-width:10.2268;stroke-linecap:round;stroke-linejoin:round;stroke-miterlimit:10;" x1="46.684" y1="12.136" x2="85.239" y2="50.692"/>
	
		<radialGradient id="SVGID_10_" cx="887.825" cy="-101.5131" r="131.8261" gradientTransform="matrix(0.1462 0 0 0.1462 -64.0191 46.1099)" gradientUnits="userSpaceOnUse">
		<stop  offset="0.6798" style="stop-color:#F9BD72"/>
		<stop  offset="0.8142" style="stop-color:#F9BE74"/>
		<stop  offset="0.8626" style="stop-color:#F9C17B"/>
		<stop  offset="0.8971" style="stop-color:#FAC786"/>
		<stop  offset="0.925" style="stop-color:#FBCE97"/>
		<stop  offset="0.9489" style="stop-color:#FCD9AD"/>
		<stop  offset="0.9701" style="stop-color:#FDE6C9"/>
		<stop  offset="0.9888" style="stop-color:#FEF4E8"/>
		<stop  offset="1" style="stop-color:#FFFFFF"/>
	</radialGradient>
	
		<line style="fill:url(#SVGID_10_);stroke:#E89613;stroke-width:10.2268;stroke-linecap:round;stroke-linejoin:round;stroke-miterlimit:10;" x1="46.535" y1="50.543" x2="85.09" y2="11.987"/>
	
		<radialGradient id="SVGID_11_" cx="878.8494" cy="-103.326" r="132.9733" gradientTransform="matrix(0.1462 0 0 0.1462 -64.0191 46.1099)" gradientUnits="userSpaceOnUse">
		<stop  offset="0.6798" style="stop-color:#F9BD72"/>
		<stop  offset="0.8142" style="stop-color:#F9BE74"/>
		<stop  offset="0.8626" style="stop-color:#F9C17B"/>
		<stop  offset="0.8971" style="stop-color:#FAC786"/>
		<stop  offset="0.925" style="stop-color:#FBCE97"/>
		<stop  offset="0.9489" style="stop-color:#FCD9AD"/>
		<stop  offset="0.9701" style="stop-color:#FDE6C9"/>
		<stop  offset="0.9888" style="stop-color:#FEF4E8"/>
		<stop  offset="1" style="stop-color:#FFFFFF"/>
	</radialGradient>
	
		<line style="fill:url(#SVGID_11_);stroke:#E89613;stroke-width:10;stroke-linecap:round;stroke-linejoin:round;stroke-miterlimit:10;" x1="37" y1="31" x2="92" y2="31"/>
	
		<line style="fill:none;stroke:#FFFFFF;stroke-width:2;stroke-linecap:round;stroke-linejoin:round;stroke-miterlimit:10;" x1="66" y1="5" x2="66" y2="60"/>
	
		<line style="fill:none;stroke:#FFFFFF;stroke-width:2;stroke-linecap:round;stroke-linejoin:round;stroke-miterlimit:10;" x1="46.538" y1="12.222" x2="85.094" y2="50.778"/>
	
		<line style="fill:none;stroke:#FFFFFF;stroke-width:2;stroke-linecap:round;stroke-linejoin:round;stroke-miterlimit:10;" x1="46.389" y1="50.629" x2="84.945" y2="12.073"/>
	
		<line style="fill:none;stroke:#FFFFFF;stroke-width:2;stroke-linecap:round;stroke-linejoin:round;stroke-miterlimit:10;" x1="37" y1="31" x2="92" y2="31"/>
</g>
</svg>
