<?xml version="1.0" encoding="iso-8859-1"?>

<svg version="1.1" id="Capa_1" xmlns="http://www.w3.org/2000/svg" xmlns:xlink="http://www.w3.org/1999/xlink" x="0px" y="0px"
	 viewBox="0 0 97 97" style="enable-background:new 0 0 97 97;" xml:space="preserve">
<g>
	<g>
		<linearGradient id="SVGID_1_" gradientUnits="userSpaceOnUse" x1="2.1491" y1="114.9779" x2="73.2602" y2="36.001">
			<stop  offset="0" style="stop-color:#32A5AE"/>
			<stop  offset="0.2219" style="stop-color:#83C9CE"/>
			<stop  offset="0.5706" style="stop-color:#FFFFFF"/>
		</linearGradient>
		<path style="fill:url(#SVGID_1_);" d="M96,89.211C96,92.96,92.96,96,89.21,96H7.79C4.04,96,1,92.96,1,89.211V37.789
			C1,34.04,4.04,31,7.79,31H89.21c3.75,0,6.79,3.04,6.79,6.789V89.211z"/>
		<path style="fill:#028189;" d="M89.21,32c3.192,0,5.79,2.454,5.79,5.646v51.118C95,91.956,92.403,95,89.21,95H7.789
			C4.597,95,2,91.956,2,88.764V37.646C2,34.454,4.597,32,7.789,32H89 M89.21,30H7.789C3.487,30,0,33.344,0,37.646v51.118
			C0,93.066,3.487,97,7.789,97H89.21c4.302,0,7.79-3.934,7.79-8.236V37.646C97,33.344,93.512,30,89.21,30L89.21,30z"/>
	</g>
	<g>
		
			<polyline style="fill:none;stroke:#028189;stroke-width:3;stroke-linecap:round;stroke-linejoin:round;stroke-miterlimit:10;" points="
			6.712,31.631 50.49,75.343 93.287,32.659 		"/>
		
			<line style="fill:none;stroke:#028189;stroke-width:3;stroke-linecap:round;stroke-linejoin:round;stroke-miterlimit:10;" x1="39.539" y1="64.451" x2="8.204" y2="95.513"/>
		
			<line style="fill:none;stroke:#028189;stroke-width:3;stroke-linecap:round;stroke-linejoin:round;stroke-miterlimit:10;" x1="60.882" y1="65.039" x2="91.085" y2="94.95"/>
	</g>
</g>
</svg>
