<?xml version="1.0" encoding="iso-8859-1"?>

<svg version="1.1" id="Capa_1" xmlns="http://www.w3.org/2000/svg" xmlns:xlink="http://www.w3.org/1999/xlink" x="0px" y="0px"
	 viewBox="0 0 97 97" style="enable-background:new 0 0 97 97;" xml:space="preserve">
<g>
	
		<linearGradient id="SVGID_1_" gradientUnits="userSpaceOnUse" x1="-34.3884" y1="64.2273" x2="54.5768" y2="-34.5786" gradientTransform="matrix(1 0 0 -1 0 49.1768)">
		<stop  offset="0" style="stop-color:#32A5AE"/>
		<stop  offset="1" style="stop-color:#FFFFFF"/>
	</linearGradient>
	<path style="fill-rule:evenodd;clip-rule:evenodd;fill:url(#SVGID_1_);" d="M19.115,95H59.4L81,84.148V60.065
		C81,59.027,79.227,58,77.117,58H19.115C17.006,58,15,59.027,15,60.065V92.87C15,93.908,17.006,95,19.115,95z"/>
</g>
<g>
	<g>
		
			<polyline style="fill:none;stroke:#028189;stroke-width:2.862;stroke-linecap:round;stroke-linejoin:round;stroke-miterlimit:10;" points="
			16.952,50.89 49.249,80.242 80.822,51.581 		"/>
		
			<line style="fill:none;stroke:#028189;stroke-width:2.862;stroke-linecap:round;stroke-linejoin:round;stroke-miterlimit:10;" x1="41.169" y1="72.928" x2="18.052" y2="93.784"/>
		
			<line style="fill:none;stroke:#028189;stroke-width:2.862;stroke-linecap:round;stroke-linejoin:round;stroke-miterlimit:10;" x1="56.916" y1="73.323" x2="79.198" y2="93.406"/>
	</g>
</g>
<g>
	<g>
		<linearGradient id="SVGID_2_" gradientUnits="userSpaceOnUse" x1="14.4439" y1="81.8083" x2="96.4704" y2="4.3389">
			<stop  offset="0" style="stop-color:#036973"/>
			<stop  offset="1" style="stop-color:#32A5AE"/>
		</linearGradient>
		<path style="fill:url(#SVGID_2_);" d="M82.152,70.951C82.147,68.678,82,66.404,82,64.131v-5.216c0-0.552-0.297-0.999-0.849-0.999
			c-10.449-0.007-20.827-0.009-31.277-0.009c-11.418,0-22.797,0.003-34.215,0.007c-0.551,0-0.979,0.445-0.981,0.996
			c-0.009,2.396,0.002,4.817,0.004,7.215C14.683,67.742,14.693,69,14.691,71H1.006C1,57,0.995,43.839,1.01,30.271
			c0.05-2.503,2.381-4.757,4.989-4.79c1.465-0.008,2.938-0.017,4.41-0.017l4.281,0c0.003,1.406,0.001,7.766,0.001,7.766
			c0,0.552,0.448,0.998,1,0.998L81.3,34.226c0.552,0,0.999-0.447,1-0.999c0,0-0.002-6.345,0.001-7.764
			c1.199-0.002,2.398-0.003,3.598-0.003l5.292,0.005c1.907,0.036,3.735,1.297,4.422,3.067C96,29.437,96,30.477,96,31.471v0.154
			c0,13.11-0.083,26.22-0.079,39.33L82.152,70.951z M18.714,42.414c-0.476,0-0.938,0.084-1.372,0.251
			c-1.877,0.644-3.035,2.774-2.546,4.738c0.352,1.769,2.064,3.138,3.974,3.138l0,0c0.41,0,0.812-0.065,1.193-0.194
			c1.033-0.283,1.947-1.076,2.454-2.159c0.502-1.073,0.527-2.271,0.066-3.289C21.935,43.458,20.375,42.414,18.714,42.414z
			 M43.166,42.414c-0.484,0-0.953,0.087-1.394,0.259c-1.874,0.651-3.021,2.788-2.52,4.75c0.359,1.757,2.069,3.117,3.967,3.117
			c0,0,0,0,0,0c0.411,0,0.814-0.065,1.196-0.195c1.031-0.284,1.943-1.075,2.45-2.155c0.502-1.07,0.528-2.267,0.07-3.284
			C46.39,43.462,44.83,42.414,43.166,42.414z M30.939,42.413c-0.477,0-0.939,0.085-1.375,0.252
			c-1.885,0.647-3.039,2.786-2.538,4.755c0.355,1.758,2.064,3.12,3.965,3.12l0,0c0.405,0,0.802-0.063,1.18-0.19
			c1.039-0.279,1.959-1.073,2.469-2.161c0.506-1.079,0.528-2.283,0.062-3.304C34.151,43.452,32.594,42.413,30.939,42.413z"/>
		<path style="fill:#028189;" d="M10.39,26.228L13.532,26h0.16c0.001,2,0,2.403-0.001,3.49c-0.001,1.17-0.002,2.456,0,3.626
			c0.002,1.104,0.897,2.055,2,2.055l0.001-0.084C25.044,35.084,34.396,35,43.748,35h18.776H81.3c1.104,0,1.999-0.781,2-1.884
			c0.002-1.171,0.001-2.284,0-3.454c-0.001-1.085-0.002-2.142-0.001-3.227c0.867-0.001,1.733,0.013,2.6,0.013
			c1.763,0,3.526,0.009,5.256,0.012c1.505,0.028,2.985,1.053,3.521,2.433c0.008,0.021,0.021,0.044,0.03,0.065
			C95.004,29.652,95,30.563,95,31.442c0,0.019,0,0.038,0,0.058v0.157c0,12.766-0.009,25.555-0.005,38.321L92.934,70h-3.328h-3.328
			c-0.993,0-1.985-0.023-2.978-0.024c-0.003-1.94-0.001-3.891,0-5.83c0.001-1.74,0.002-3.486,0-5.226
			c-0.001-1.104-0.896-2.001-1.999-2.001c-10.441-0.007-20.885-0.011-31.326-0.011c-11.427,0-22.852,0.002-34.278,0.007
			c-1.102,0-1.841,0.891-1.845,1.993C13.843,61.294,14,63.681,14,66.068C14,67.362,14,69,14,70h-0.938l-6.898-0.022
			c-1.386,0-2.772-0.012-4.158-0.013C2,56.92,1.995,43.48,2.01,30.291c0.039-1.971,1.946-3.908,3.987-3.934
			C7.462,26.349,8.926,26.228,10.39,26.228 M29.24,41.719c-2.364,0.832-3.787,3.463-3.194,5.9c0.479,2.239,2.597,3.921,4.947,3.921
			c0.494,0,0.978-0.075,1.441-0.224c1.354-0.385,2.486-1.367,3.113-2.704c0.622-1.326,0.654-2.813,0.09-4.09
			c-0.747-1.863-2.627-3.111-4.698-3.111C30.351,41.413,29.78,41.516,29.24,41.719 M41.444,41.728
			c-2.351,0.839-3.765,3.468-3.173,5.896c0.482,2.236,2.601,3.917,4.949,3.917c0.502,0,0.994-0.078,1.463-0.23
			c1.343-0.39,2.466-1.369,3.088-2.695c0.617-1.315,0.653-2.793,0.101-4.063c-0.74-1.879-2.624-3.138-4.707-3.138
			C42.569,41.414,41.99,41.519,41.444,41.728 M17.017,41.718c-2.354,0.828-3.782,3.45-3.203,5.88
			c0.473,2.251,2.594,3.942,4.955,3.942c0.5,0,0.991-0.077,1.459-0.229c1.345-0.389,2.47-1.371,3.093-2.7
			c0.618-1.319,0.652-2.799,0.097-4.07c-0.743-1.873-2.626-3.128-4.705-3.128C18.127,41.414,17.556,41.516,17.017,41.718
			 M10.39,24.459c-1.468,0-2.936,0.002-4.403,0.011c-3.069,0.039-5.915,2.662-5.976,5.776C-0.006,44.147,0,58.048,0.006,71.951
			c2.053,0.002,4.105,0.003,6.158,0.003c3.175,0,6.351-0.002,9.525-0.003c0.01-4.346-0.008-8.691,0.008-13.037
			c11.426-0.004,22.851-0.007,34.277-0.007c10.441,0,20.884,0.003,31.325,0.009c0.004,4.346-0.008,8.689,0.004,13.035
			c1.658,0.003,3.316,0.003,4.974,0.003c2.219,0,4.437-0.001,6.656-0.001c1.352,0,2.705,0,4.057,0.002
			c-0.004-13.485-0.002-26.97,0-40.455c0.033-1.123-0.002-2.281-0.45-3.328c-0.837-2.159-3.042-3.663-5.349-3.706
			c-1.765-0.003-3.529-0.005-5.293-0.005c-1.531,0-3.063,0.002-4.595,0.005c-0.012,2.921,0,5.84-0.004,8.76
			c-12.517,0-25.034-0.001-37.552-0.001c-9.352,0-18.704,0.001-28.056,0.003c-0.004-2.921,0.008-5.844-0.004-8.764
			C13.921,24.462,12.156,24.459,10.39,24.459L10.39,24.459z M30.992,49.54c-1.37,0-2.717-0.99-2.996-2.366
			c-0.371-1.459,0.503-3.086,1.927-3.575c0.328-0.126,0.672-0.185,1.015-0.185c1.208,0,2.408,0.734,2.854,1.887
			c0.729,1.594-0.253,3.644-1.938,4.101C31.573,49.496,31.282,49.54,30.992,49.54L30.992,49.54z M18.77,49.541
			c-1.376,0-2.728-0.997-3.003-2.379c-0.363-1.457,0.513-3.076,1.934-3.563c0.327-0.126,0.671-0.185,1.014-0.185
			c1.211,0,2.415,0.737,2.858,1.897c0.719,1.59-0.257,3.626-1.93,4.089C19.357,49.496,19.063,49.541,18.77,49.541L18.77,49.541z
			 M43.22,49.54c-1.37,0-2.717-0.988-2.999-2.364c-0.371-1.455,0.497-3.078,1.915-3.571c0.332-0.13,0.681-0.191,1.029-0.191
			c1.212,0,2.417,0.739,2.858,1.903c0.715,1.588-0.259,3.618-1.93,4.081C43.809,49.494,43.514,49.54,43.22,49.54L43.22,49.54z"/>
	</g>
</g>
<linearGradient id="SVGID_3_" gradientUnits="userSpaceOnUse" x1="84.1169" y1="48.5584" x2="99.7461" y2="48.3715">
	<stop  offset="0.2764" style="stop-color:#FFFFFF;stop-opacity:0"/>
	<stop  offset="1" style="stop-color:#FFFFFF;stop-opacity:0.75"/>
</linearGradient>
<path style="fill:url(#SVGID_3_);" d="M95,70H83V27h8.06c2.176,0,3.94,1.739,3.94,3.915V70z"/>
<g>
	<linearGradient id="SVGID_4_" gradientUnits="userSpaceOnUse" x1="13.6325" y1="10.6799" x2="83.3605" y2="10.6799">
		<stop  offset="0" style="stop-color:#036973"/>
		<stop  offset="1" style="stop-color:#32A5AE"/>
	</linearGradient>
	<path style="fill:url(#SVGID_4_);" d="M82,14.813c0-2.932,0.151-5.864,0.146-8.795c0.031-1.489-0.757-2.923-2.074-3.544
		c-0.712-0.371-1.457-0.423-2.124-0.423l-0.844,0.011L40.413,2.06c-7.19,0-21.568,0.006-21.57,0.006
		c-1.197,0-2.275,0.467-3.064,1.281C15.05,4.1,14.667,5.059,14.699,6.049c-0.012,2.791-0.009,5.415-0.007,8.241
		c0.001,1.971,0.003,3.71,0,5.71c0,0-0.947,0-1.059,0c0.006-2,0.004-4.01,0.002-6.115c-0.003-2.761-0.006-5.421,0.01-8.181
		c0.035-2.508,2.448-4.75,5.063-4.75l59.645,0.021c1.845,0,3.594,1.061,4.413,2.622c0.396,0.747,0.602,1.649,0.595,2.602
		c-0.007,2.671-0.006,5.341-0.004,8.007c0.001,2.064-0.148,4.13-0.151,6.194C82.854,20.402,83,20.404,82,20.406V14.813z"/>
	<path style="fill:#028189;" d="M78.414,0c-0.021,0-0.042,0-0.063,0c-4.958,0-9.917,0.003-14.875,0.003
		c-8.264,0-16.527-0.002-24.792-0.002c-6.611,0-13.223,0.001-19.833,0.005c-0.048-0.001-0.096-0.002-0.144-0.002
		c-3.099,0-6.018,2.641-6.062,5.795c-0.031,5.202,0.006,10.204-0.016,15.408C13.074,21.202,13.519,21,13.965,21c0.333,0,0.666,0,1,0
		c0.242,0,0.483,0.201,0.725,0.2c0.012-5.128-0.01-10.156,0.01-15.284c-0.052-1.633,1.479-2.903,3.057-2.903
		c0.033,0,0.066,0.026,0.099,0.027c7.152-0.005,14.303,0.007,21.455,0.007c7.812,0,15.625,0.008,23.438,0.008
		c4.391,0,8.784,0.003,13.175,0.001c0.066,0.001,0.133,0.004,0.2,0.004c0.286,0,0.576-0.01,0.865-0.01
		c0.598,0,1.192,0.046,1.733,0.327c0.992,0.469,1.597,1.557,1.575,2.642c0.008,5.13,0,10.263,0.004,15.393
		c1.017-0.008,2.035-0.01,3.054-0.01c0.01-5.063-0.006-10.126,0.006-15.189c0.008-1.06-0.21-2.128-0.709-3.068
		C82.65,1.24,80.56,0,78.414,0L78.414,0z"/>
</g>
<g>
	
		<linearGradient id="SVGID_5_" gradientUnits="userSpaceOnUse" x1="13.6325" y1="-64.8233" x2="83.3231" y2="-64.8233" gradientTransform="matrix(1 0 0 -1 0 21.4736)">
		<stop  offset="0" style="stop-color:#036973"/>
		<stop  offset="1" style="stop-color:#32A5AE"/>
	</linearGradient>
	<path style="fill:url(#SVGID_5_);" d="M18.707,95.995c-2.614,0-5.027-2.292-5.062-4.808c-0.016-2.753-0.013-5.311-0.01-8.073
		C13.637,81.009,13.639,79,13.633,77c0.11,0,1.059,0,1.059,0c0.003,2,0.001,3.74,0,5.71c-0.002,2.826-0.004,5.552,0.007,8.377
		c-0.031,0.955,0.354,1.865,1.083,2.618c0.79,0.814,1.874,1.257,2.974,1.257c0.012,0,58.367-0.011,58.367-0.011l0.86,0.004
		c0.668,0,1.451-0.056,2.197-0.443c1.282-0.605,1.996-2.04,1.965-3.551C82.151,88.052,82,85.118,82,82.187v-5.593
		c1,0.002,0.854,0.003,1.206,0.003c0.003,2.064,0.077,4.129,0.076,6.193c-0.002,2.667,0.035,5.333,0.041,8
		c0.007,0.957-0.18,1.853-0.573,2.596C81.927,94.951,80.187,96,78.405,96L18.707,95.995z"/>
	<path style="fill:#028189;" d="M81.3,75.588c-0.004,5.13,0.004,10.263-0.004,15.393c0.022,1.084-0.583,2.173-1.575,2.642
		c-0.541,0.281-1.135,0.327-1.733,0.327c-0.289,0-0.579-0.011-0.865-0.011c-0.067,0-0.133,0.001-0.2,0.002
		c-4.391-0.001-8.784-0.002-13.175-0.002c-7.813,0-15.625,0.001-23.438,0.001c-7.152,0-14.302-0.001-21.455-0.006
		c-0.033,0.001-0.066,0.002-0.099,0.002c-1.577,0-3.109-1.32-3.057-2.953c-0.02-5.128,0.002-10.055-0.01-15.183
		c-0.242-0.001-0.483,0.2-0.725,0.2c-0.333,0-0.667,0-1,0c-0.446,0-0.891-0.202-1.336-0.207c0.022,5.204-0.014,10.307,0.016,15.508
		c0.044,3.153,2.963,5.744,6.062,5.744c0.048,0,0.096-0.026,0.144-0.027c6.611,0.004,13.223-0.007,19.833-0.007
		c8.264,0,16.527-0.008,24.792-0.008c4.958,0,9.917-0.003,14.875-0.003c0.021,0,0.042,0,0.063,0c2.146,0,4.236-1.24,5.237-3.145
		c0.499-0.94,0.717-2.008,0.709-3.068c-0.012-5.063,0.004-10.126-0.006-15.189C83.335,75.598,82.317,75.596,81.3,75.588L81.3,75.588
		z"/>
</g>
</svg>
