<?xml version="1.0" encoding="iso-8859-1"?>

<svg version="1.1" id="Capa_1" xmlns="http://www.w3.org/2000/svg" xmlns:xlink="http://www.w3.org/1999/xlink" x="0px" y="0px"
	 viewBox="0 0 97 97" style="enable-background:new 0 0 97 97;" xml:space="preserve">
<path style="fill:#028189;" d="M88.16,5.872c0.704-1.153,0.694-2.705-0.045-3.841c-0.675-1.11-1.962-1.802-3.258-1.752
	c-7.844,0-15.686-0.001-23.53,0.001c-1.935-0.015-3.653,1.701-3.639,3.637c-0.007,7.661,0.001,15.321-0.004,22.983
	c-0.023,0.78,0.011,1.593,0.383,2.3c0.606,1.279,1.993,2.109,3.4,2.07c1.885,0,3.596-1.641,3.62-3.537
	c0.018-6.68,0-13.359,0.007-20.039c6.631-0.009,13.263,0.004,19.896-0.009C86.272,7.708,87.515,6.973,88.16,5.872z"/>
<circle style="fill:none;stroke:#028189;stroke-width:12.5448;stroke-linejoin:round;stroke-miterlimit:10;" cx="35.525" cy="79.878" r="10.845"/>
<path style="fill:none;stroke:#028189;stroke-width:9.069;stroke-linejoin:round;stroke-miterlimit:10;stroke-dasharray:9.9797,7.9837,9.9797,7.9837,9.9797,7.9837;" d="
	M15.464,66.777c-25.476-17.497-1.013-45.921,20.112-24.759c9.659,9.675,18.529,15.542,26.247,18.531
	c32.424,12.558,44.497-25.675,9.144-45.686"/>
<g>
	<linearGradient id="SVGID_1_" gradientUnits="userSpaceOnUse" x1="42.7594" y1="73.9603" x2="28.3949" y2="85.5924">
		<stop  offset="0.1872" style="stop-color:#FBD19E"/>
		<stop  offset="0.2058" style="stop-color:#FACC94"/>
		<stop  offset="0.2854" style="stop-color:#F8BA6D"/>
		<stop  offset="0.3709" style="stop-color:#F5AA4B"/>
		<stop  offset="0.4618" style="stop-color:#F39D30"/>
		<stop  offset="0.5603" style="stop-color:#F2931B"/>
		<stop  offset="0.6698" style="stop-color:#F18C0C"/>
		<stop  offset="0.7995" style="stop-color:#F08804"/>
		<stop  offset="1" style="stop-color:#F08701"/>
	</linearGradient>
	<circle style="fill:url(#SVGID_1_);" cx="35.577" cy="79.776" r="9.246"/>
	<path style="fill:#FFFFFF;" d="M35.577,72.051c4.26,0,7.726,3.466,7.726,7.726c0,4.26-3.466,7.726-7.726,7.726
		s-7.726-3.466-7.726-7.726C27.851,75.516,31.317,72.051,35.577,72.051 M35.577,69.011c-5.946,0-10.766,4.82-10.766,10.766
		c0,5.946,4.82,10.766,10.766,10.766s10.766-4.82,10.766-10.766C46.343,73.831,41.523,69.011,35.577,69.011L35.577,69.011z"/>
</g>
</svg>
