<?xml version="1.0" encoding="iso-8859-1"?>
<svg version="1.1" xmlns="http://www.w3.org/2000/svg" xmlns:xlink="http://www.w3.org/1999/xlink" x="0px" y="0px"
	 viewBox="0 0 97 97" style="enable-background:new 0 0 97 97;" xml:space="preserve">
<g id="Capa_1">
	<g id="XMLID_1_">
		<linearGradient id="XMLID_3_" gradientUnits="userSpaceOnUse" x1="-3.354" y1="100.354" x2="45.0994" y2="51.9006">
			<stop  offset="0" style="stop-color:#32A5AE"/>
			<stop  offset="1" style="stop-color:#FFFFFF"/>
		</linearGradient>
		<path id="XMLID_22_" style="fill:url(#XMLID_3_);" d="M48.5,96C22.309,96,1,74.691,1,48.5S22.309,1,48.5,1S96,22.309,96,48.5
			S74.691,96,48.5,96z"/>
		<path id="XMLID_14_" style="fill:#028189;" d="M48.5,2C74.14,2,95,22.86,95,48.5S74.14,95,48.5,95S2,74.14,2,48.5S22.86,2,48.5,2
			 M48.5,0C21.714,0,0,21.714,0,48.5S21.714,97,48.5,97S97,75.286,97,48.5S75.286,0,48.5,0L48.5,0z"/>
	</g>
	<g id="text1314" sodipodi:nodetypes="ccccccccccccc">
		<linearGradient id="XMLID_4_" gradientUnits="userSpaceOnUse" x1="27.2278" y1="69.7053" x2="68.7" y2="28.2332">
			<stop  offset="0" style="stop-color:#036973"/>
			<stop  offset="1" style="stop-color:#32A5AE"/>
		</linearGradient>
		<polygon id="XMLID_40_" style="fill:url(#XMLID_4_);" points="15.085,40.35 81,40.533 81,57.432 15.005,57.482 		"/>
		<g id="XMLID_36_">
			<path id="XMLID_37_" style="fill:#028189;" d="M16.081,41.352L80,41.53v14.901l-63.991,0.05L16.081,41.352 M14.09,39.347
				L14,58.484l68-0.053V39.536L14.09,39.347L14.09,39.347z"/>
		</g>
	</g>
</g>
<g id="Capa_2">
</g>
</svg>
