<?xml version="1.0" encoding="iso-8859-1"?>

<svg version="1.1" xmlns="http://www.w3.org/2000/svg" xmlns:xlink="http://www.w3.org/1999/xlink" x="0px" y="0px"
	 viewBox="0 0 97 97" style="enable-background:new 0 0 97 97;" xml:space="preserve">
<g id="Capa_1">
	<g id="XMLID_1_">
		
			<linearGradient id="XMLID_3_" gradientUnits="userSpaceOnUse" x1="89.5715" y1="41.7093" x2="21.3771" y2="55.9666" gradientTransform="matrix(1.0098 -0.0031 -0.0031 0.9981 -0.0597 0.0733)">
			<stop  offset="0" style="stop-color:#FFFFFF"/>
			<stop  offset="0.0636" style="stop-color:#D4EAEC"/>
			<stop  offset="0.1515" style="stop-color:#A1D5D9"/>
			<stop  offset="0.2428" style="stop-color:#78C6C9"/>
			<stop  offset="0.3369" style="stop-color:#4DBBBE"/>
			<stop  offset="0.4351" style="stop-color:#27B4B7"/>
			<stop  offset="0.5398" style="stop-color:#00B0B5"/>
			<stop  offset="0.7809" style="stop-color:#00AFB3"/>
		</linearGradient>
		<path id="XMLID_43_" style="fill:url(#XMLID_3_);" d="M34.584,74.253c-3-13.154-6.001-26.309-8.984-39.468
			c2.999-3.401,7.02-7.439,11.952-9.528c2.276-0.94,4.611-1.419,6.932-1.419c0.359,0,0.718,0.012,1.076,0.035
			c3.141,0.188,6.104,1.114,9.24,2.094c2.857,0.893,5.813,1.816,8.89,2.117c0.555,0.056,1.122,0.084,1.686,0.084
			c3.505,0,6.939-1.05,9.932-3.038c4.425-2.853,7.852-6.972,10.729-10.89c0.643,2.801,1.279,5.604,1.915,8.408
			c1.199,5.282,2.397,10.563,3.638,15.833c0.83,3.842,1.727,7.751,2.594,11.531c0.587,2.559,1.174,5.116,1.746,7.678
			c-3.32,4.707-7.092,9.413-12.076,12.301c-2.406,1.438-5.194,2.195-8.072,2.195c-0.785,0-1.576-0.057-2.352-0.17
			c-2.564-0.351-5.111-1.149-7.573-1.921c-2.439-0.766-4.961-1.556-7.565-1.947c-1.085-0.18-2.206-0.272-3.318-0.272
			c-2.183,0-4.32,0.35-6.353,1.038c-5.387,1.881-9.738,5.875-13.078,9.53L34.584,74.253z"/>
		<path id="XMLID_40_" style="fill:#007C84;" d="M85.541,16.562c0.483,2.116,0.964,4.233,1.444,6.349
			c1.176,5.181,2.392,10.538,3.622,15.763c0.833,3.854,1.727,7.754,2.592,11.525c0.556,2.424,1.112,4.848,1.656,7.275
			c-3.192,4.491-6.811,8.932-11.529,11.664c-2.24,1.339-4.85,2.047-7.547,2.047c-0.737,0-1.479-0.054-2.225-0.163
			c-2.472-0.338-4.866-1.088-7.4-1.883c-2.476-0.776-5.035-1.579-7.685-1.976c-1.155-0.192-2.333-0.29-3.501-0.29
			c-2.291,0-4.535,0.367-6.689,1.098c-4.903,1.711-8.951,5.085-12.182,8.419l-0.389-1.703c-3.013-13.206-6.025-26.412-9.02-39.624
			c2.888-3.236,6.683-6.952,11.237-8.88c2.162-0.893,4.369-1.346,6.558-1.347c0.337,0,0.677,0.011,1.023,0.034
			c3.013,0.18,5.919,1.088,8.996,2.049c2.906,0.908,5.911,1.846,9.086,2.157c0.59,0.059,1.191,0.089,1.788,0.089
			c3.703,0,7.329-1.108,10.463-3.19C79.753,23.453,82.882,20.006,85.541,16.562 M86.515,11.866
			c-3.344,4.699-6.985,9.351-11.761,12.431c-2.806,1.864-6.092,2.87-9.379,2.87c-0.53,0-1.06-0.026-1.588-0.079
			c-6.212-0.608-11.912-3.838-18.162-4.213c-0.381-0.025-0.762-0.038-1.143-0.038c-2.496,0-4.988,0.534-7.321,1.498
			c-4.976,2.107-9.037,6.031-12.649,10.172c3.479,15.354,6.983,30.7,10.484,46.048c3.917-4.493,8.401-8.762,13.943-10.696
			c1.95-0.661,3.99-0.986,6.03-0.986c1.062,0,2.124,0.088,3.172,0.263c5.16,0.774,9.97,3.161,15.143,3.868
			c0.826,0.121,1.66,0.181,2.496,0.181c2.977,0,5.962-0.769,8.574-2.331C89.56,67.839,93.492,62.909,97,57.903
			c-1.46-6.555-3.02-13.085-4.439-19.651C90.495,29.472,88.544,20.659,86.515,11.866L86.515,11.866z"/>
	</g>
	<g id="XMLID_14_">
		<linearGradient id="XMLID_4_" gradientUnits="userSpaceOnUse" x1="0.9983" y1="54.1838" x2="27.3816" y2="54.1838">
			<stop  offset="0" style="stop-color:#32A5AE"/>
			<stop  offset="1" style="stop-color:#036973"/>
		</linearGradient>
		<path id="XMLID_36_" style="fill:url(#XMLID_4_);" d="M22.423,96c-0.193,0-0.386-0.014-0.577-0.042
			c-1.914-0.263-3.618-1.898-4.063-3.889c-0.486-1.727-0.069-3.716,1.048-5.12c0.189-0.237,0.26-0.548,0.192-0.844
			C14.281,65.262,9.537,44.419,4.783,23.578c-0.07-0.306-0.279-0.561-0.564-0.689c-0.982-0.443-1.774-1.107-2.29-1.921
			c-0.922-1.433-1.18-3.308-0.678-4.9c0.616-2.155,2.574-3.7,4.662-3.7c0.204,0,0.408,0.015,0.611,0.046
			c1.922,0.262,3.63,1.897,4.077,3.892c0.486,1.728,0.07,3.715-1.048,5.118c-0.189,0.238-0.26,0.548-0.193,0.845
			c4.742,20.843,9.489,41.686,14.24,62.526c0.07,0.305,0.277,0.559,0.562,0.688c0.983,0.445,1.775,1.108,2.29,1.917
			c0.762,1.184,1.083,2.732,0.861,4.147c-0.28,1.714-1.329,3.223-2.736,3.931C23.874,95.817,23.125,96,22.423,96z"/>
		<path id="XMLID_33_" style="fill:#028189;" d="M5.913,13.368c0.154,0,0.308,0.012,0.494,0.04c1.506,0.205,2.859,1.516,3.218,3.117
			c0.008,0.036,0.017,0.071,0.027,0.106c0.388,1.374,0.043,3.011-0.881,4.169c-0.379,0.475-0.521,1.097-0.386,1.69
			c4.742,20.843,9.489,41.686,14.24,62.527c0.139,0.61,0.555,1.119,1.125,1.377c0.561,0.254,1.339,0.728,1.863,1.551
			c0.63,0.98,0.896,2.269,0.714,3.435c-0.226,1.389-1.09,2.647-2.171,3.191C23.575,94.852,22.976,95,22.423,95
			c-0.147,0-0.291-0.01-0.453-0.034c-1.504-0.207-2.854-1.517-3.212-3.115c-0.008-0.036-0.017-0.072-0.027-0.107
			c-0.388-1.373-0.042-3.01,0.881-4.171c0.378-0.475,0.52-1.097,0.385-1.689c-4.742-20.845-9.487-41.687-14.241-62.529
			c-0.139-0.611-0.557-1.121-1.128-1.379c-0.56-0.252-1.337-0.725-1.864-1.556c-0.75-1.165-0.97-2.756-0.562-4.052
			c0.005-0.017,0.011-0.035,0.016-0.052C2.7,14.635,4.288,13.368,5.913,13.368 M5.913,11.368c-2.472,0-4.873,1.8-5.616,4.399
			c-0.6,1.902-0.268,4.096,0.787,5.735c0.664,1.049,1.65,1.814,2.724,2.298c4.754,20.841,9.498,41.683,14.241,62.528
			c-1.28,1.609-1.821,3.905-1.241,5.959c0.548,2.45,2.606,4.346,4.891,4.66C21.939,96.983,22.181,97,22.423,97
			c0.894,0,1.787-0.234,2.602-0.628c1.706-0.857,2.949-2.669,3.275-4.67c0.261-1.67-0.113-3.451-1.005-4.839
			c-0.665-1.045-1.65-1.806-2.72-2.291c-4.751-20.84-9.498-41.683-14.24-62.526c1.281-1.608,1.821-3.905,1.241-5.959
			c-0.55-2.453-2.612-4.35-4.9-4.662C6.422,11.387,6.167,11.368,5.913,11.368L5.913,11.368z"/>
	</g>
	<g id="XMLID_10_">
		
			<linearGradient id="XMLID_5_" gradientUnits="userSpaceOnUse" x1="18.3855" y1="34.6193" x2="77.7863" y2="34.6193" gradientTransform="matrix(1.0098 -0.0031 -0.0031 0.9981 -0.0597 0.0733)">
			<stop  offset="0" style="stop-color:#D88622"/>
			<stop  offset="1" style="stop-color:#FFFFFF"/>
		</linearGradient>
		<path id="XMLID_39_" style="fill:url(#XMLID_5_);" d="M23.661,62.939c-3.042-13.339-6.085-26.678-9.11-40.021
			c2.999-3.401,7.019-7.439,11.951-9.527c2.276-0.94,4.611-1.419,6.932-1.419c0.359,0,0.718,0.012,1.077,0.035
			c3.142,0.188,6.104,1.114,9.241,2.094c2.857,0.893,5.812,1.815,8.889,2.117c0.555,0.056,1.122,0.084,1.686,0.084
			c3.505,0,6.939-1.05,9.932-3.038c4.427-2.855,7.853-6.974,10.729-10.89c0.652,2.843,1.298,5.688,1.943,8.534
			c1.189,5.24,2.379,10.479,3.608,15.707c0.828,3.832,1.723,7.729,2.587,11.499c0.59,2.569,1.18,5.138,1.754,7.709
			c-3.32,4.708-7.091,9.414-12.076,12.301c-2.408,1.438-5.196,2.195-8.074,2.195c-0.784,0-1.575-0.058-2.35-0.17
			c-2.565-0.351-5.111-1.149-7.574-1.922c-2.438-0.765-4.96-1.555-7.565-1.946c-1.085-0.181-2.208-0.273-3.32-0.273
			c-2.182,0-4.318,0.35-6.351,1.039c-5.387,1.881-9.738,5.875-13.078,9.53L23.661,62.939z"/>
		<path id="XMLID_32_" style="fill:#007C84;" d="M74.492,4.696c0.483,2.116,0.964,4.233,1.444,6.35
			c1.176,5.181,2.392,10.537,3.622,15.762c0.833,3.854,1.727,7.753,2.592,11.524c0.556,2.424,1.112,4.848,1.656,7.276
			c-3.192,4.491-6.811,8.932-11.529,11.664c-2.24,1.339-4.85,2.047-7.547,2.047c-0.737,0-1.479-0.054-2.225-0.163
			c-2.472-0.338-4.866-1.088-7.4-1.883c-2.476-0.776-5.035-1.579-7.685-1.976c-1.155-0.192-2.333-0.29-3.501-0.29
			c-2.291,0-4.535,0.367-6.689,1.098c-4.903,1.711-8.951,5.085-12.182,8.419l-0.386-1.691c-3.014-13.211-6.027-26.421-9.023-39.636
			c2.888-3.236,6.683-6.952,11.236-8.88c2.162-0.893,4.369-1.347,6.558-1.347c0.337,0,0.677,0.011,1.023,0.034
			c3.013,0.18,5.919,1.088,8.996,2.049c2.906,0.908,5.911,1.846,9.086,2.157c0.59,0.059,1.191,0.089,1.788,0.089
			c3.703,0,7.329-1.108,10.463-3.19C68.704,11.587,71.833,8.14,74.492,4.696 M75.466,0c-3.344,4.699-6.985,9.351-11.761,12.431
			c-2.806,1.864-6.092,2.87-9.379,2.87c-0.53,0-1.06-0.026-1.588-0.079c-6.212-0.608-11.912-3.838-18.161-4.213
			c-0.381-0.025-0.762-0.038-1.143-0.038c-2.496,0-4.988,0.534-7.321,1.498c-4.976,2.107-9.037,6.031-12.649,10.172
			c3.479,15.354,6.983,30.7,10.484,46.048c3.917-4.493,8.401-8.762,13.943-10.696c1.95-0.661,3.99-0.986,6.03-0.986
			c1.062,0,2.124,0.088,3.172,0.263c5.16,0.774,9.97,3.161,15.143,3.868c0.826,0.121,1.66,0.181,2.496,0.181
			c2.977,0,5.962-0.769,8.574-2.331c5.208-3.016,9.139-7.946,12.647-12.952c-1.46-6.555-3.02-13.085-4.439-19.651
			C79.446,17.605,77.495,8.792,75.466,0L75.466,0z"/>
	</g>
	<linearGradient id="XMLID_6_" gradientUnits="userSpaceOnUse" x1="7.8921" y1="16.1388" x2="3.3337" y2="19.2548">
		<stop  offset="0" style="stop-color:#FFFFFF"/>
		<stop  offset="0.0636" style="stop-color:#D4EAEC"/>
		<stop  offset="0.1515" style="stop-color:#A1D5D9"/>
		<stop  offset="0.2428" style="stop-color:#78C6C9"/>
		<stop  offset="0.3369" style="stop-color:#4DBBBE"/>
		<stop  offset="0.4351" style="stop-color:#27B4B7"/>
		<stop  offset="0.5398" style="stop-color:#00B0B5"/>
		<stop  offset="0.7809" style="stop-color:#00AFB3"/>
	</linearGradient>
	<circle id="XMLID_19_" style="fill-rule:evenodd;clip-rule:evenodd;fill:url(#XMLID_6_);" cx="5.87" cy="17.521" r="3.293"/>
</g>
<g id="Capa_2">
</g>
</svg>
