<?xml version="1.0" encoding="iso-8859-1"?>

<svg version="1.1" xmlns="http://www.w3.org/2000/svg" xmlns:xlink="http://www.w3.org/1999/xlink" x="0px" y="0px"
	 viewBox="0 0 97 97" style="enable-background:new 0 0 97 97;" xml:space="preserve">
<g id="Capa_1">
</g>
<g id="Capa_2">
	<g>
		<g>
			<linearGradient id="SVGID_1_" gradientUnits="userSpaceOnUse" x1="12.6143" y1="147.526" x2="67.6138" y2="11.3975">
				<stop  offset="0" style="stop-color:#32A5AE"/>
				<stop  offset="1" style="stop-color:#FFFFFF"/>
			</linearGradient>
			<path style="fill-rule:evenodd;clip-rule:evenodd;fill:url(#SVGID_1_);" d="M70.421,92.555c-0.206,0-0.412-0.027-0.612-0.081
				L16.182,78.109c-0.624-0.167-1.146-0.575-1.471-1.15c-0.328-0.58-0.413-1.257-0.24-1.904L33.819,2.871
				C34.115,1.77,35.102,1,36.219,1c0.205,0,0.41,0.027,0.61,0.08l53.625,14.366c1.302,0.349,2.069,1.719,1.712,3.055L72.819,90.685
				C72.524,91.786,71.538,92.555,70.421,92.555z"/>
			<path style="fill:#028189;" d="M36.218,2c0.118,0,0.237,0.016,0.351,0.046l15.362,4.116l22.901,6.134l15.362,4.116
				c0.769,0.206,1.22,1.027,1.005,1.83l-4.195,15.651L71.853,90.426c-0.175,0.654-0.778,1.129-1.433,1.129
				c-0.119,0-0.238-0.016-0.354-0.047L16.441,77.143c-0.362-0.097-0.667-0.337-0.859-0.676c-0.198-0.351-0.25-0.761-0.145-1.153
				L30.59,18.782l4.194-15.651C34.96,2.475,35.563,2,36.218,2 M36.218,0c-1.528,0-2.945,1.044-3.366,2.613l-4.194,15.652
				L13.506,74.796c-0.5,1.865,0.588,3.789,2.417,4.279L69.55,93.44c0.29,0.078,0.583,0.115,0.871,0.115
				c1.528,0,2.944-1.043,3.364-2.611l15.151-56.533l4.195-15.651c0.499-1.865-0.59-3.789-2.419-4.279L75.35,10.364L52.449,4.23
				L37.087,0.114C36.797,0.037,36.506,0,36.218,0L36.218,0z"/>
		</g>
		
			<line style="fill-rule:evenodd;clip-rule:evenodd;fill:none;stroke:#028189;stroke-width:2.9994;stroke-linecap:round;stroke-linejoin:round;stroke-miterlimit:22.9256;" x1="40.37" y1="16.29" x2="79.159" y2="26.681"/>
		
			<line style="fill-rule:evenodd;clip-rule:evenodd;fill:none;stroke:#028189;stroke-width:2.9994;stroke-linecap:round;stroke-linejoin:round;stroke-miterlimit:22.9256;" x1="38.324" y1="23.923" x2="77.113" y2="34.313"/>
		
			<line style="fill-rule:evenodd;clip-rule:evenodd;fill:none;stroke:#028189;stroke-width:2.9994;stroke-linecap:round;stroke-linejoin:round;stroke-miterlimit:22.9256;" x1="36.279" y1="31.554" x2="56.606" y2="36.999"/>
	</g>
	<g>
		<g>
			<linearGradient id="SVGID_2_" gradientUnits="userSpaceOnUse" x1="-4.9288" y1="76.2827" x2="87.1167" y2="33.3612">
				<stop  offset="0" style="stop-color:#036973"/>
				<stop  offset="0.7389" style="stop-color:#32A5AE"/>
			</linearGradient>
			<path style="fill:url(#SVGID_2_);" d="M10.483,96c-1.003,0-2.173-0.051-3.244-0.433c-3.6-1.135-6.207-4.635-6.234-8.335
				C0.999,65.954,0.997,41.687,1.007,20.401c0.022-2.831,2.629-5.435,5.468-5.455c3.025-0.005,7.326-0.006,11.528-0.006
				l12.561,0.004l-1.138,4.639c-3.295,0.008-16.176,0.04-22.76,0.041c-0.552,0-1,0.448-1,1l0.005,65.567
				C5.666,86.87,5.658,87.64,5.96,88.405c0.611,1.63,2.276,2.778,4.042,2.778c0.3,0,0.598-0.034,0.886-0.102
				c2.231-0.547,4.161-2.265,5.049-4.484c2.227-5.554,4.449-11.111,6.672-16.669c2.47-6.175,4.939-12.338,7.416-18.511
				C30.833,49.398,32.923,48,35.11,48h32.323c7.711,0,15.423-0.01,23.133-0.001c2.366,0.014,4.625,1.827,5.248,4.227
				c0.318,1.148,0.225,2.416-0.26,3.592c-2.37,5.915-13.058,32.622-13.058,32.622c-1.111,2.727-3.243,5.038-5.848,6.311
				C74.995,95.571,73.08,96,70.952,96H12.736c-0.379,0-0.76-0.007-1.142,0C11.225,96.007,10.854,96,10.483,96z"/>
			<path style="fill:#028189;" d="M18.091,15.94c4.362,0,8.607,0.002,11.199,0.003l-0.648,2.642
				c-4.202,0.01-15.831,0.038-21.975,0.039c-1.104,0-1.999,0.895-1.999,1.999C4.666,30.975,4.668,42.075,4.67,53.175
				c0.002,11.116,0.004,22.233,0.003,32.621c0.001,0.128,0,0.257-0.001,0.386c-0.007,0.732-0.015,1.643,0.347,2.561
				c0.761,2.026,2.811,3.441,4.985,3.441c0.375,0,0.749-0.042,1.137-0.132c2.527-0.621,4.721-2.568,5.726-5.08
				c2.243-5.596,4.483-11.194,6.722-16.793c2.453-6.134,4.907-12.268,7.367-18.402c0.647-1.622,2.395-2.788,4.154-2.788L35.212,49
				c0.017,0,0.033,0,0.05,0h7.646l12.306-0.011l12.305-0.006c7.682,0,15.364-0.001,23.036,0.007c1.901,0.011,3.786,1.54,4.299,3.515
				c0.255,0.918,0.175,1.958-0.232,2.947c-2.25,5.614-4.496,11.23-6.743,16.846c-2.103,5.256-4.206,10.512-6.307,15.757
				c-1.021,2.508-2.976,4.63-5.372,5.801C74.69,94.605,72.925,95,70.952,95H12.736c-0.385,0-0.772-0.007-1.161,0.001
				c-0.363,0.007-0.727,0.007-1.09,0.007c-0.918,0-1.982-0.048-2.911-0.379c-0.023-0.008-0.047-0.018-0.07-0.025
				c-3.162-0.996-5.475-4.099-5.5-7.363C1.999,65.955,1.997,41.688,2.007,20.417c0.018-2.323,2.152-4.454,4.464-4.471
				C9.522,15.942,13.862,15.94,18.091,15.94 M18.091,13.94c-4.23,0-8.571,0.001-11.623,0.006c-3.41,0.025-6.433,3.046-6.461,6.454
				c-0.01,21.286-0.008,45.553-0.002,66.84c0.031,4.147,2.953,8.025,6.899,9.268c1.157,0.412,2.367,0.506,3.582,0.506
				c0.752,0,1.506-0.015,2.251-0.015c19.407,0,38.811,0,58.216,0c2.116,0,4.24-0.411,6.137-1.352
				c2.867-1.402,5.135-3.886,6.335-6.831c4.355-10.871,8.7-21.749,13.055-32.618c0.547-1.329,0.689-2.837,0.303-4.228
				c-0.718-2.764-3.32-4.966-6.214-4.983c-7.682-0.008-15.365,0-23.048,0C59.316,46.988,51.112,47,42.908,47
				c-2.549,0-5.097,0-7.646,0c-0.051,0-0.102-0.012-0.152-0.012c-2.579,0-5.055,1.652-6.012,4.052
				c-4.704,11.728-9.387,23.462-14.088,35.19c-0.747,1.867-2.378,3.397-4.347,3.881c-0.218,0.051-0.439,0.074-0.659,0.074
				c-1.334,0-2.64-0.886-3.113-2.144c-0.284-0.72-0.209-1.51-0.218-2.266c0.002-20.717-0.008-44.433-0.006-65.15
				c7.589-0.002,23.544-0.043,23.544-0.043l1.628-6.637C31.839,13.944,25.117,13.94,18.091,13.94L18.091,13.94z"/>
		</g>
	</g>
</g>
</svg>
