<?xml version="1.0" encoding="iso-8859-1"?>

<svg version="1.1" id="Capa_1" xmlns="http://www.w3.org/2000/svg" xmlns:xlink="http://www.w3.org/1999/xlink" x="0px" y="0px"
	 viewBox="0 0 97 97" style="enable-background:new 0 0 97 97;" xml:space="preserve">
<g>
	<g>
		
			<linearGradient id="SVGID_1_" gradientUnits="userSpaceOnUse" x1="-93.367" y1="157.878" x2="57.7288" y2="-9.9309" gradientTransform="matrix(1 0 0 -1 0 49.1768)">
			<stop  offset="0" style="stop-color:#32A5AE"/>
			<stop  offset="1" style="stop-color:#FFFFFF"/>
		</linearGradient>
		<path style="fill-rule:evenodd;clip-rule:evenodd;fill:url(#SVGID_1_);" d="M11.136,96C9.063,96,7,94.285,7,92.011V4.86
			C7,2.624,9.029,1,11.136,1h74.373C87.71,1,89,2.732,89,4.86V68.43L62.372,96H11.136z"/>
		<path style="fill:#028189;" d="M85.505,2C87.182,2,88,3.256,88,4.86V68.02L61.953,95H11.136C9.405,95,8,93.496,8,92.011V4.86
			C8,3.176,9.584,2,11.136,2H86 M85.509,0H11.136C8.431,0,6,2.101,6,4.86v87.15C6,94.77,8.431,97,11.136,97h51.655L90,68.839V4.86
			C90,2.101,87.964,0,85.259,0H85.509z"/>
	</g>
	<g>
		
			<linearGradient id="SVGID_2_" gradientUnits="userSpaceOnUse" x1="74.7104" y1="-32.6216" x2="64.2073" y2="-20.5392" gradientTransform="matrix(1 0 0 -1 0 49.1768)">
			<stop  offset="0" style="stop-color:#32A5AE"/>
			<stop  offset="1" style="stop-color:#FFFFFF"/>
		</linearGradient>
		<path style="fill-rule:evenodd;clip-rule:evenodd;fill:url(#SVGID_2_);" d="M63,74.825C63,72.48,65.663,70,67.709,70h20.366
			L63,95.5V74.825z"/>
		<path style="fill:#028189;" d="M85.611,71L64,93.021V74.825C64,73.074,66.239,71,67.709,71H86 M90.427,69h0.005H90.427z
			 M90.427,69H67.709C65.004,69,62,72.069,62,74.825v23.153L90.177,69H90.427z"/>
	</g>
</g>
<g>
	<path style="fill:#016F72;" d="M25.216,40.71c4.423-0.416,5.983-0.988,5.983-3.018c0-1.613-1.457-2.862-4.371-2.862
		c-2.81,0-5.151,1.145-7.024,3.434l-3.85-3.278c2.549-3.59,5.996-5.359,10.627-5.359c6.504,0,10.419,3.122,10.419,8.481v11.603
		C37,51.532,37.964,52,39.473,52H40v4.579c-1,0.364-1.799,0.573-3.099,0.573c-1.405,0-2.59-0.417-3.423-1.249
		c-0.364-0.364-0.723-0.937-0.983-1.718c-1.821,2.134-4.81,3.227-8.921,3.227c-5.776,0-9.69-3.174-9.69-7.961
		C13.885,44.092,17.463,41.387,25.216,40.71z M24.388,52.104c4.163,0,6.612-1.873,6.612-5.203v-2.914
		c0,0.312-0.628,0.572-1.201,0.78c-1.197,0.417-1.927,0.521-4.425,0.781c-3.642,0.416-5.488,1.561-5.488,3.382
		C19.886,50.96,21.526,52.104,24.388,52.104z"/>
	<path style="fill:#E58115;" d="M51.649,57h-7.023l25.6-38.035L80.424,57h-6.4l-1.821-7H56.28L51.649,57z M60.027,44H70.85
		l-2.966-11.811L60.027,44z"/>
</g>
<line style="fill:none;stroke:#E58115;stroke-width:4;stroke-miterlimit:10;" x1="45" y1="62" x2="80" y2="62"/>
</svg>
