<?xml version="1.0" encoding="iso-8859-1"?>

<svg version="1.1" id="Capa_1" xmlns="http://www.w3.org/2000/svg" xmlns:xlink="http://www.w3.org/1999/xlink" x="0px" y="0px"
	 viewBox="0 0 97 97" style="enable-background:new 0 0 97 97;" xml:space="preserve">
<g>
	<g>
		<linearGradient id="SVGID_1_" gradientUnits="userSpaceOnUse" x1="14.8438" y1="82.1578" x2="82.1761" y2="14.8255">
			<stop  offset="0.1452" style="stop-color:#126069"/>
			<stop  offset="0.6684" style="stop-color:#349DA4"/>
		</linearGradient>
		<path style="fill:url(#SVGID_1_);" d="M47.948,96.109c-18.709,0-37.07-12.547-43.657-29.834
			C-3.163,48.198,2.065,25.89,16.397,13.418c-0.595,0.59-1.069,1.279-1.417,2.059c-0.129,0.291-0.094,0.628,0.093,0.886
			c0.168,0.232,0.438,0.367,0.721,0.367c0.031,0,0.062-0.001,0.093-0.005l0.629-0.066c-0.526,0.674-1.059,1.357-1.409,1.809
			c-0.183,0.236-0.235,0.548-0.139,0.831c0.512,1.51,1.07,3.113,1.765,4.638c0.115,0.252,0.34,0.437,0.61,0.499
			c0.066,0.016,0.133,0.023,0.2,0.023c0.205,0,0.406-0.071,0.567-0.204c0.984-0.812,1.868-1.723,2.723-2.604
			c0.93-0.958,1.814-1.871,2.812-2.66c0.833,0.335,4.146,1.655,4.964,1.984c0.48,0.98,0.469,1.971,0.456,3.104
			c-0.014,1.237-0.03,2.629,0.702,4.04c-0.097,1.133-0.581,2.309-1.091,3.549c-0.67,1.628-1.363,3.312-1.222,5.078
			c0.008,0.105,0.035,0.208,0.08,0.303c2.638,5.702,6.812,11.287,10.494,16.214l0.437,0.584c0.087,0.116,0.201,0.21,0.333,0.271
			c1.643,0.777,4.097,1.311,6.696,1.875c3.109,0.676,6.323,1.374,8.043,2.479c1.067,1.008,1.945,2.185,2.874,3.428
			c0.338,0.453,0.677,0.906,1.024,1.351c0.17,0.217,0.429,0.342,0.701,0.342c0.033,0,0.067-0.002,0.102-0.006
			c0.273-0.031,0.65-0.074,1.051-0.119c-0.331,0.548-2.104,3.498-2.104,3.498c-0.12,0.198-0.158,0.437-0.105,0.662
			c0.699,3.01,1.377,5.959,1.986,8.95c0.042,0.204,0.154,0.388,0.317,0.519c1.356,1.083,2.737,2.153,4.118,3.215
			c-1.613,5.031-3.291,10.22-6.079,14.701C54.353,95.74,51.168,96.109,47.948,96.109z M69.466,91.143
			c3.192-2.494,6.277-5.189,7.112-9.406l0.521-0.349c0.77-0.516,1.542-1.033,2.318-1.546c0.179-0.117,0.309-0.295,0.366-0.5
			c0.377-1.326,1.667-2.806,2.914-4.237c1.499-1.719,3.048-3.495,3.429-5.396c0.077-0.385-0.106-0.775-0.453-0.96l-3.385-1.802
			l-0.132-1.104c-0.085-0.705-0.17-1.408-0.25-2.113c-0.025-0.227-0.138-0.435-0.313-0.582c-0.529-0.444-1.285-1.187-2.085-1.973
			c-1.759-1.727-3.752-3.685-5.206-4.4c-0.084-0.042-0.174-0.069-0.267-0.083c-2.168-0.312-4.369-0.45-6.498-0.584
			c-0.793-0.05-1.587-0.1-2.38-0.158c-0.021-0.002-0.044-0.003-0.065-0.003c-0.315,0-0.609,0.167-0.77,0.442l-1.363,2.349
			c-0.957-0.468-1.321-1.519-1.786-3.063c-0.14-0.464-0.279-0.925-0.444-1.356c-0.122-0.321-0.419-0.544-0.762-0.57
			c0,0-1.75-0.133-2.104-0.16c0.344-1.035,0.682-2.072,1.016-3.12c0.079-0.248,0.046-0.519-0.092-0.739
			c-0.137-0.222-0.363-0.372-0.621-0.411c-0.271-0.042-0.538-0.063-0.798-0.063c-1.848,0-3.348,1.005-4.672,1.926
			c-0.425-0.615-0.85-1.23-1.271-1.846c0.497-1.385,0.996-2.765,1.51-4.137l2.526-0.312c1.276-0.159,2.551-0.317,3.826-0.47
			c0.053,0.12,0.106,0.242,0.159,0.363c0.578,1.325,1.233,2.826,2.686,3.741c0.145,0.091,0.31,0.137,0.475,0.137
			c0.155,0,0.312-0.041,0.45-0.123c0.287-0.168,0.457-0.482,0.439-0.815c-0.214-4.05,0.377-5.229,2.792-7.993
			c2.746-1.918,6.014-3.104,9.175-4.251l1.322-0.483c0.223-0.082,0.403-0.249,0.502-0.464c0.099-0.215,0.107-0.461,0.024-0.683
			c-1.674-4.48-3.166-8.066-4.695-11.287c-0.152-0.319-0.471-0.508-0.805-0.508c-0.109,0-0.219,0.02-0.326,0.062
			c-0.258,0.102-0.488,0.153-0.683,0.153c-0.739,0-1.18-0.909-1.767-2.296c-0.284-0.673-0.579-1.369-0.974-1.927
			c-0.147-0.208-0.377-0.343-0.631-0.371l-1.032-0.113c-0.982-0.108-1.963-0.216-2.944-0.31c-0.028-0.002-0.057-0.004-0.085-0.004
			c-0.216,0-0.426,0.079-0.589,0.223c-0.185,0.163-0.294,0.395-0.302,0.641c-0.063,2.043-0.165,4.225-0.328,6.98L60.983,25
			c-1.88-1.97-4.021-4.023-6.682-6.407c0.232-0.585,0.522-1.312,0.752-1.881c1.21-0.129,2.423-0.236,3.638-0.343
			c1.012-0.089,2.024-0.178,3.038-0.28c0.25-0.025,0.478-0.154,0.627-0.356s0.206-0.457,0.158-0.703
			c-0.331-1.678-0.663-3.347-0.997-5.014c-0.079-0.396-0.415-0.689-0.819-0.714c-0.884-0.054-1.808-0.08-2.822-0.08
			c-1.829,0-3.684,0.087-5.478,0.172c-1.767,0.083-3.594,0.169-5.369,0.169c-4.399,0-7.68-0.552-10.637-1.79
			c-0.11-0.046-0.227-0.069-0.344-0.069c-0.123,0-0.245,0.025-0.36,0.076c-1.61,0.711-3.033,1.373-4.335,2.017
			c-2.604-0.602-4.978-1.341-7.204-2.245C31.5,3.248,40.122,0.891,48.618,0.891c3.292,0,6.555,0.349,9.702,1.037
			c11.784,2.341,22.526,9.513,29.489,19.679c6.837,9.923,9.645,22.426,7.704,34.306C93.256,71.201,83.067,84.735,69.466,91.143z"/>
		<path style="fill:#157880;" d="M49,0v1.781h-0.19c3.226,0,6.33,0.342,9.447,1.023c11.541,2.293,22.031,9.33,28.866,19.31
			c6.707,9.733,9.438,21.999,7.529,33.682c-1.854,12.562-9.187,23.921-19.364,30.967c0.952-1.308,1.693-2.781,2.09-4.487
			l0.291-0.197c0.744-0.498,1.488-0.998,2.239-1.493c0.356-0.235,0.615-0.59,0.732-1c0.322-1.135,1.545-2.538,2.728-3.895
			c1.575-1.806,3.203-3.674,3.63-5.807c0.154-0.77-0.214-1.551-0.907-1.921c-0.985-0.526-1.971-1.051-2.974-1.583
			c-0.028-0.238-0.057-0.476-0.086-0.713c-0.082-0.68-0.164-1.358-0.241-2.038c-0.052-0.453-0.275-0.869-0.624-1.162
			c-0.503-0.423-1.247-1.153-2.034-1.927c-1.806-1.774-3.853-3.785-5.436-4.564c-0.168-0.083-0.348-0.139-0.534-0.165
			c-2.202-0.316-4.42-0.456-6.565-0.591c-0.791-0.05-1.583-0.1-2.373-0.158c-0.044-0.003-0.088-0.005-0.132-0.005
			c-0.631,0-1.219,0.335-1.539,0.885l-0.761,1.312c-0.014,0.025-0.029,0.05-0.043,0.075c-0.24-0.407-0.452-1.013-0.722-1.91
			c-0.14-0.465-0.285-0.946-0.465-1.418c-0.245-0.642-0.838-1.086-1.524-1.14l-0.972-0.074c0.225-0.687,0.445-1.366,0.662-2.048
			c0.158-0.496,0.091-1.036-0.183-1.478c-0.274-0.442-0.728-0.743-1.242-0.823c-0.31-0.048-0.625-0.072-0.934-0.072
			c-1.767,0-3.19,0.754-4.442,1.581c-0.17-0.246-0.34-0.493-0.509-0.739c0.372-1.036,0.761-2.109,1.163-3.19
			c0.661-0.081,1.322-0.164,1.983-0.246c1.059-0.132,2.116-0.263,3.174-0.391c0.582,1.325,1.335,2.895,2.92,3.894
			c0.29,0.183,0.62,0.274,0.95,0.274c0.311,0,0.623-0.081,0.901-0.245c0.574-0.337,0.912-0.965,0.877-1.63
			c-0.197-3.736,0.266-4.711,2.501-7.278c2.632-1.815,5.806-2.967,8.878-4.082c0.444-0.161,0.888-0.322,1.329-0.485
			c0.445-0.164,0.806-0.498,1.003-0.929c0.198-0.431,0.215-0.922,0.049-1.366c-1.684-4.505-3.185-8.113-4.725-11.356
			c-0.303-0.639-0.94-1.017-1.61-1.017c-0.217,0-0.438,0.04-0.651,0.124c-0.216,0.085-0.328,0.091-0.344,0.099
			c-0.28-0.155-0.722-1.2-0.959-1.761c-0.303-0.717-0.616-1.458-1.067-2.094c-0.295-0.417-0.755-0.687-1.262-0.742l-1.003-0.11
			c-0.997-0.109-1.99-0.219-2.985-0.314c-0.057-0.005-0.113-0.008-0.169-0.008c-0.139,0-0.277,0.016-0.411,0.048
			c0.04-0.044,0.078-0.09,0.113-0.138c0.299-0.403,0.414-0.913,0.316-1.406c-0.331-1.678-0.663-3.349-0.997-5.016
			c-0.159-0.792-0.831-1.379-1.638-1.428c-0.903-0.055-1.845-0.082-2.88-0.082c-1.849,0-3.714,0.088-5.517,0.172
			c-1.756,0.083-3.573,0.168-5.327,0.168c-4.275,0-7.45-0.531-10.293-1.72c-0.22-0.092-0.454-0.138-0.687-0.138
			c-0.245,0-0.49,0.051-0.719,0.152c-1.502,0.663-2.844,1.285-4.084,1.892c-1.764-0.418-3.229-0.902-4.803-1.459
			C33.28,3.76,41,1.781,49,1.781V0 M14.241,16.713c0.034,0.06,0.071,0.118,0.112,0.174c0.136,0.188,0.305,0.344,0.496,0.463
			c-0.167,0.214-0.318,0.409-0.445,0.574c-0.365,0.472-0.47,1.097-0.278,1.662c0.521,1.535,1.088,3.163,1.798,4.72
			c0.23,0.504,0.681,0.873,1.22,0.997c0.133,0.031,0.267,0.046,0.401,0.046c0.409,0,0.811-0.141,1.133-0.407
			c1.023-0.844,1.925-1.774,2.797-2.673c0.781-0.805,1.528-1.575,2.328-2.256c0.678,0.272,1.358,0.543,2.038,0.814
			c0.698,0.278,1.397,0.556,2.095,0.837c0.259,0.711,0.25,1.479,0.24,2.405c-0.014,1.212-0.031,2.688,0.678,4.209
			c-0.131,0.936-0.555,1.968-1.001,3.051c-0.677,1.645-1.444,3.509-1.286,5.488c0.017,0.21,0.071,0.415,0.159,0.606
			c2.678,5.787,6.882,11.413,10.591,16.376l0.434,0.581c0.174,0.233,0.403,0.42,0.666,0.544c1.734,0.82,4.237,1.364,6.887,1.939
			c2.851,0.619,6.073,1.319,7.683,2.315c0.986,0.945,1.826,2.07,2.714,3.258c0.341,0.457,0.682,0.914,1.033,1.362
			c0.242,0.309,0.574,0.525,0.942,0.623c-0.052,0.087-0.105,0.175-0.157,0.262c-0.365,0.608-0.729,1.215-1.095,1.82
			c-0.24,0.397-0.316,0.872-0.211,1.324c0.701,3.022,1.381,5.978,1.982,8.927c0.083,0.409,0.307,0.775,0.633,1.036
			c1.219,0.975,2.451,1.932,3.635,2.844c-1.502,4.673-3.094,9.451-5.604,13.594c-2.889,0.658-5.882,0.991-8.907,0.991
			c-18.354,0-36.365-12.306-42.842-29.306C-1.703,49.402,2.286,29.273,14.241,16.713 M62.052,16.937
			c-0.284,0.312-0.449,0.718-0.462,1.144c-0.064,2.092-0.168,4.174-0.271,5.984c-1.706-1.771-3.632-3.619-5.96-5.718
			c0.106-0.267,0.216-0.541,0.321-0.803c1.032-0.105,2.074-0.196,3.09-0.286c1.015-0.089,2.032-0.179,3.049-0.281
			C61.898,16.968,61.976,16.955,62.052,16.937 M48.618,0c-9.282,0-18.566,2.705-26.401,7.691c2.969,1.353,6.073,2.331,9.248,3.047
			c1.507-0.753,3.041-1.46,4.584-2.141c3.566,1.492,7.251,1.858,10.981,1.858c3.596,0,7.233-0.34,10.844-0.34
			c0.926,0,1.85,0.022,2.771,0.079c0.334,1.666,0.665,3.334,0.996,5.011c-2.41,0.243-4.817,0.412-7.211,0.682
			c-0.305,0.744-0.889,2.214-1.185,2.958c2.529,2.251,5.007,4.564,7.33,7.02c0.61,0.044,1.811,0.134,2.412,0.179
			c0.161-2.636,0.303-5.273,0.384-7.908c1.321,0.126,2.639,0.277,3.966,0.421c1.073,1.516,1.442,4.6,3.467,4.6
			c0.298,0,0.632-0.067,1.009-0.215c1.742,3.667,3.248,7.424,4.666,11.216c-3.697,1.362-7.544,2.609-10.79,4.903
			c-2.664,3.04-3.307,4.424-3.081,8.707c-1.534-0.967-2.036-2.77-2.781-4.311c-2.51,0.296-5.016,0.618-7.535,0.924
			c-0.636,1.684-1.248,3.38-1.858,5.082c0.673,0.987,1.356,1.972,2.037,2.958c1.52-1.029,3.02-2.274,4.898-2.274
			c0.215,0,0.436,0.016,0.662,0.051c-0.448,1.407-0.904,2.796-1.373,4.187c0.808,0.072,2.433,0.188,3.24,0.251
			c0.762,1.997,0.942,4.643,3.471,5.173c0.576-0.988,1.15-1.983,1.725-2.97c2.94,0.218,5.892,0.316,8.817,0.736
			c1.984,0.977,5.434,4.849,7.112,6.257c0.14,1.228,0.293,2.448,0.437,3.685c1.265,0.672,2.531,1.344,3.794,2.019
			c-0.644,3.215-5.429,6.409-6.326,9.565c-1.06,0.699-2.109,1.407-3.158,2.107c-0.987,6.104-7.177,8.992-11.294,12.846
			c16.674-5.262,29.376-20.789,31.916-37.996c1.974-12.083-0.905-24.877-7.849-34.953C81.573,10.926,70.648,3.469,58.509,1.057
			C55.256,0.346,51.938,0,48.618,0L48.618,0z M17.462,11.385C1.281,24.043-4.308,47.756,3.46,66.592
			C10.29,84.519,28.961,97,47.948,97c3.355,0,6.722-0.39,10.032-1.208c3.077-4.823,4.817-10.382,6.558-15.806
			c-1.543-1.183-3.087-2.376-4.602-3.586c-0.61-2.995-1.301-5.998-1.992-8.974c1.014-1.677,2.018-3.37,3.042-5.039
			c-0.718,0.073-2.135,0.233-2.852,0.314c-1.311-1.677-2.488-3.477-4.048-4.932c-3.291-2.178-11.385-2.788-14.91-4.455
			c-3.857-5.164-8.135-10.802-10.835-16.639c-0.233-2.914,2.223-5.836,2.33-8.759c-1.489-2.563,0.058-5.092-1.43-7.646
			c-1.91-0.772-3.83-1.524-5.733-2.295c-2.216,1.631-3.857,3.856-5.964,5.594c-0.673-1.479-1.212-3.021-1.732-4.554
			c0.672-0.869,2.027-2.6,2.702-3.461l-2.72,0.287c0.52-1.165,1.346-2.071,2.458-2.735C18.055,12.676,17.651,11.815,17.462,11.385
			L17.462,11.385z M18.513,16h0.005H18.513z"/>
	</g>
</g>
</svg>
