<?xml version="1.0" encoding="iso-8859-1"?>

<svg version="1.1" xmlns="http://www.w3.org/2000/svg" xmlns:xlink="http://www.w3.org/1999/xlink" x="0px" y="0px"
	 viewBox="0 0 97 97" style="enable-background:new 0 0 97 97;" xml:space="preserve">
<g id="Capa_1">
</g>
<g id="Capa_2">
	<g id="XMLID_8_">
		<ellipse id="XMLID_113_" style="fill:#AAD8DA;" cx="45.967" cy="47.615" rx="33.132" ry="33.153"/>
	</g>
	<g id="XMLID_54_">
		<g id="XMLID_3_">
			
				<linearGradient id="XMLID_18_" gradientUnits="userSpaceOnUse" x1="-35.5239" y1="77.6873" x2="3.9963" y2="38.1671" gradientTransform="matrix(0.9827 -0.1851 0.1851 0.9827 48.9888 -11.7261)">
				<stop  offset="0" style="stop-color:#B7DCE0"/>
				<stop  offset="0.1613" style="stop-color:#C2E1E5"/>
				<stop  offset="0.4418" style="stop-color:#DEEFF1"/>
				<stop  offset="0.7043" style="stop-color:#FFFFFF"/>
			</linearGradient>
			<ellipse id="XMLID_114_" style="fill:url(#XMLID_18_);" cx="44.218" cy="48.118" rx="27.933" ry="27.951"/>
		</g>
	</g>
	<g id="XMLID_9_">
		<g id="XMLID_7_">
			<linearGradient id="XMLID_19_" gradientUnits="userSpaceOnUse" x1="1.5079" y1="90.9179" x2="86.3651" y2="6.0607">
				<stop  offset="0" style="stop-color:#036973"/>
				<stop  offset="1" style="stop-color:#32A5AE"/>
			</linearGradient>
			<path id="XMLID_75_" style="fill:url(#XMLID_19_);" d="M10.355,95.999c-2.33-0.093-4.62-1.002-6.239-2.494
				C2.188,91.786,1,89.253,1,86.718v-7.846c0-4.734,0.008-9.932,0-13.613c2.286-0.007,4.574-0.01,6.86-0.01l8.707,0.007
				c3.479,5.513,8.644,9.936,14.6,12.49c3.946,1.717,8.363,2.626,12.765,2.626c2.333,0,4.662-0.251,6.92-0.746
				c5.189-1.125,10.075-3.563,14.126-7.049c4.351-3.72,7.642-8.539,9.513-13.933c1.92-5.483,2.32-11.405,1.156-17.122
				c-1.328-6.654-4.816-12.842-9.82-17.421c-4.327-3.993-9.649-6.72-15.389-7.883c-2.12-0.438-4.307-0.66-6.498-0.66
				c-4.214,0-8.47,0.838-12.306,2.424c-6.122,2.504-11.467,7.008-15.104,12.714c0,0-5.625-0.01-8.158-0.01
				c-2.453,0-4.904,0.004-7.356,0.017c-0.013-3.286-0.011-7.582-0.009-11.68c0.002-3.19,0.003-6.261-0.002-8.643
				C0.999,7.933,2.001,5.527,3.755,3.78C5.47,2.043,7.807,1.032,10.171,1l67.602,0.002c2.524,0.057,5.064,1.282,6.772,3.279
				c1.577,1.83,2.491,4.329,2.385,6.859C86.927,22.755,87,36.805,87,50.743v35.992c0,2.62-1.399,5.211-3.349,6.893
				C82,95.081,79.662,96,77.355,96H32.697L10.355,95.999z"/>
			<path id="XMLID_70_" style="fill:#028189;" d="M10,2h25.154h13.608H62.37h15.359c2.267,0,4.531,1.146,6.063,2.936
				c1.411,1.637,2.165,3.883,2.07,6.162c-0.001,0.028-0.002,0.056-0.002,0.084c-0.002,11.08-0.001,24.429-0.001,37.778
				c0,13.332,0.001,26.664-0.001,37.736c-0.102,2.373-1.195,4.68-2.945,6.188C81.441,94.177,79.407,95,77.38,95H55.038H32.697
				l-22.3-0.001c-2.122-0.092-4.161-0.904-5.624-2.251c-1.709-1.524-2.743-3.781-2.765-6.021c-0.001-2.123-0.001-4.921,0-7.899
				c0.001-4.308,0.003-8.995-0.002-12.571c1.99-0.005,3.981-0.134,5.971-0.134c2.423,0,4.845-0.122,7.268-0.122h0.777
				c3.58,6,8.78,9.976,14.741,12.534c4.076,1.773,8.63,2.775,13.169,2.775c2.405,0,4.805-0.227,7.129-0.736
				c5.353-1.161,10.39-3.658,14.564-7.249c4.487-3.836,7.879-8.796,9.808-14.354c1.98-5.655,2.393-11.756,1.195-17.643
				c-1.37-6.864-4.966-13.242-10.121-17.959c-4.465-4.119-9.953-6.93-15.864-8.128c-2.19-0.452-4.445-0.68-6.703-0.68
				c-4.345,0-8.732,1.017-12.681,2.649C25.111,19.724,19.726,24,15.988,30h-0.17c-2.483,0-4.967-0.161-7.45-0.161
				c-2.119,0-4.237-0.073-6.355-0.063c-0.009-3.129-0.007-7.013-0.005-10.754c0.002-3.177,0.003-6.251-0.002-8.625
				C2,8.246,2.917,6.035,4.473,4.487C5.996,2.944,8.072,2,10.172,2 M10.158-0.001C7.507,0.035,4.908,1.189,3.05,3.071
				C1.129,4.984-0.002,7.67,0.006,10.383C0.02,16.147-0.01,25.946,0.022,31.71c2.782-0.018,5.564-0.023,8.347-0.023
				c2.905,0,5.81,0.006,8.715,0.011c3.486-5.683,8.756-10.263,14.932-12.79c3.771-1.559,7.847-2.348,11.924-2.348
				c2.114,0,4.228,0.212,6.299,0.64c5.543,1.124,10.754,3.804,14.912,7.641c4.844,4.433,8.229,10.437,9.515,16.882
				c1.119,5.499,0.734,11.297-1.121,16.595c-1.809,5.212-5.03,9.92-9.22,13.503c-3.907,3.361-8.654,5.738-13.688,6.83
				c-2.201,0.482-4.453,0.722-6.705,0.722c-4.24,0-8.48-0.851-12.371-2.545c-5.959-2.557-11.071-7.024-14.436-12.571
				c-3.05-0.003-6.099-0.008-9.149-0.008c-2.658,0-5.317,0.003-7.975,0.014c0.016,5.808,0.002,16.659,0.006,22.465
				c0.028,2.84,1.318,5.627,3.434,7.513C5.313,95.966,7.828,97,10.355,97c7.448,0,14.894,0,22.342,0
				c14.894,0,29.79-0.001,44.683-0.001c2.489-0.062,4.974-0.962,6.853-2.615c2.202-1.898,3.512-4.752,3.624-7.649
				c0.004-22.159-0.002-53.395,0.002-75.554c0.114-2.713-0.774-5.488-2.553-7.552C83.441,1.45,80.649,0,77.773,0
				C72.638,0,67.505,0,62.37,0c-9.072,0-18.143,0-27.215,0C26.824,0,18.489,0.001,10.158-0.001L10.158-0.001z"/>
		</g>
		<g id="XMLID_10_">
			<g id="XMLID_11_">
				<linearGradient id="XMLID_20_" gradientUnits="userSpaceOnUse" x1="7.8712" y1="64.4493" x2="41.035" y2="31.2855">
					<stop  offset="0" style="stop-color:#036973"/>
					<stop  offset="1" style="stop-color:#32A5AE"/>
				</linearGradient>
				<path id="XMLID_129_" style="fill:url(#XMLID_20_);" d="M1.003,57.581c0.009-3.537,0.007-7.075,0.006-10.612
					c-0.001-2.877-0.003-5.921,0.001-8.798C6.478,38.166,26.921,38,26.921,38s16.95,0,16.951,0c2.92,0,5.759,1.525,7.509,3.714
					c1.452,1.766,2.232,4.189,2.148,6.514c-0.069,2.239-0.969,4.505-2.469,6.152c-1.767,1.975-4.382,3.176-7.002,3.188
					C44.058,57.567,5.712,57.585,1.003,57.581z M43.89,42.07c-0.566,0-1.12,0.085-1.647,0.254c-1.912,0.558-3.493,2.176-4.003,4.115
					c-0.577,1.995,0.064,4.32,1.601,5.764c1.012,1.029,2.509,1.636,4.079,1.636h0c1.595,0,3.107-0.622,4.151-1.707
					c1.639-1.592,2.188-4.211,1.311-6.345C48.581,43.613,46.317,42.07,43.89,42.07z"/>
				<path id="XMLID_124_" style="fill:#028189;" d="M17,39h10.168h9.799h6.923h0.08c2.524,0,5.065,1.381,6.647,3.36
					c1.29,1.569,1.987,3.748,1.911,5.843c-0.061,1.999-0.866,4.031-2.22,5.517c-1.575,1.76-3.914,3.045-6.248,3.055
					C40.07,56.772,36.076,57,32.085,57h-8.48h-8.479c-4.374,0-8.747-0.208-13.121-0.211c0.006-3.212,0.005-6.528,0.003-9.74
					c-0.001-2.537-0.002-5.29,0-7.827C7.129,39.218,12.249,39,17.369,39 M41.963,41.364c-2.256,0.668-4.095,2.558-4.678,4.774
					c-0.693,2.393,0.03,5.045,1.842,6.767c1.225,1.229,2.97,1.934,4.792,1.934c1.854,0,3.619-0.725,4.849-1.99
					c1.921-1.887,2.557-4.923,1.552-7.409c-0.967-2.575-3.606-4.369-6.431-4.369C43.229,41.071,42.581,41.169,41.963,41.364
					 M17.369,37.164c-5.786,0-11.572,0.084-17.357,0.09C-0.002,44.334,0.022,51.457,0,58.539c5.042,0.005,10.084,0.027,15.126,0.027
					c5.654,0,11.306,0.009,16.959,0.009c3.991,0,7.983,0.006,11.974,0.009c2.918-0.012,5.796-1.317,7.74-3.49
					c1.669-1.832,2.653-4.27,2.728-6.747c0.092-2.545-0.746-5.286-2.365-7.256C50.203,38.638,47.105,37,43.97,37
					c-0.033,0-0.067,0-0.101,0c-2.301,0-4.601,0-6.902,0C30.435,37,23.902,37.164,17.369,37.164L17.369,37.164z M43.919,52.839
					c-1.249,0-2.499-0.455-3.394-1.365c-1.268-1.192-1.803-3.106-1.318-4.78c0.425-1.615,1.741-2.95,3.341-3.417
					c0.438-0.14,0.891-0.206,1.342-0.206c1.949,0,3.881,1.234,4.567,3.096c0.728,1.77,0.263,3.94-1.107,5.271
					C46.452,52.372,45.186,52.839,43.919,52.839L43.919,52.839z"/>
			</g>
		</g>
	</g>
	<g id="XMLID_1_">
		<path id="XMLID_79_" style="fill:#028189;" d="M65.766,40.316c-0.391,0-0.761-0.246-0.88-0.585
			c-1.866-4.322-5.035-8.056-8.936-10.546c-3.755-2.423-8.304-3.758-12.808-3.758c-1.241,0-2.482,0.1-3.689,0.298
			c-1.874,0.289-3.774,0.848-5.804,1.707c-0.048,0.014-0.133,0.029-0.215,0.029c-0.419,0-0.734-0.374-0.85-0.72
			c-0.05-0.15-0.179-0.664,0.256-0.991c2.979-1.449,6.592-2.242,10.368-2.242c0.482,0,0.964,0.013,1.444,0.038
			c5.899,0.333,11.739,2.845,16.021,6.892c2.523,2.366,4.585,5.308,5.962,8.507c0.118,0.242,0.12,0.523,0.017,0.776
			c-0.101,0.245-0.284,0.429-0.505,0.505C65.998,40.292,65.886,40.316,65.766,40.316z"/>
		<path id="XMLID_76_" style="fill:#028189;" d="M43.206,24.007c0.47,0,0.947,0.013,1.416,0.037
			c5.785,0.326,11.51,2.788,15.711,6.758c2.473,2.319,4.493,5.203,5.843,8.339c0.007,0.016,0.014,0.031,0.021,0.046
			c0.045,0.091,0.042,0.222-0.008,0.343c-0.045,0.111-0.122,0.194-0.205,0.223c-0.032,0.011-0.063,0.024-0.093,0.038
			c-0.036,0.017-0.078,0.025-0.125,0.025c-0.173,0-0.36-0.115-0.408-0.25c-0.008-0.022-0.016-0.044-0.026-0.065
			c-1.894-4.381-5.13-8.194-9.109-10.735c-3.836-2.476-8.481-3.839-13.079-3.839c-1.268,0-2.537,0.103-3.762,0.303
			c-1.906,0.293-3.829,0.856-5.879,1.72c-0.025,0.006-0.048,0.009-0.069,0.009c-0.14,0-0.305-0.166-0.376-0.378
			c-0.04-0.119-0.062-0.277,0.036-0.39C36.061,24.762,39.555,24.007,43.206,24.007 M43.206,23.007c-3.67,0-7.37,0.727-10.666,2.342
			c-1.075,0.808-0.314,2.611,0.894,2.611c0.132,0,0.269-0.022,0.41-0.068c1.824-0.772,3.728-1.371,5.69-1.673
			c1.194-0.196,2.402-0.292,3.609-0.292c4.414,0,8.825,1.284,12.537,3.679c3.85,2.458,6.922,6.099,8.734,10.291
			c0.196,0.559,0.774,0.919,1.351,0.919c0.186,0,0.372-0.037,0.545-0.118c0.764-0.264,1.137-1.235,0.784-1.952
			c-1.406-3.266-3.485-6.241-6.077-8.673c-4.401-4.159-10.295-6.687-16.339-7.027C44.188,23.02,43.698,23.007,43.206,23.007
			L43.206,23.007z"/>
	</g>
	<g id="XMLID_2_">
		<path id="XMLID_85_" style="fill:#028189;" d="M59.073,43.201c-0.398,0-0.757-0.235-0.873-0.572
			c-1.325-3.025-3.526-5.612-6.213-7.323c-2.556-1.663-5.697-2.58-8.843-2.58c-2.239,0-4.468,0.465-6.444,1.345
			c-0.13,0.063-0.246,0.091-0.359,0.091c-0.352,0-0.709-0.282-0.868-0.687c-0.069-0.175-0.189-0.618,0.177-0.959
			c0.247-0.228,0.602-0.358,0.978-0.497c0.128-0.047,0.256-0.095,0.381-0.146c1.951-0.711,4.033-1.076,6.172-1.076
			c2.339,0,4.603,0.432,6.73,1.285c4.502,1.763,8.153,5.311,10.021,9.734c0.224,0.44,0.032,1.026-0.378,1.239
			C59.39,43.158,59.235,43.201,59.073,43.201z"/>
		<path id="XMLID_69_" style="fill:#028189;" d="M43.18,31.299c2.275,0,4.477,0.42,6.551,1.251c4.309,1.688,7.95,5.225,9.739,9.463
			c0.009,0.022,0.02,0.044,0.031,0.066c0.085,0.166-0.008,0.446-0.178,0.534c-0.025,0.013-0.049,0.027-0.072,0.041
			c-0.06,0.038-0.13,0.046-0.177,0.046c-0.179,0-0.355-0.103-0.4-0.235c-0.009-0.026-0.019-0.051-0.03-0.075
			c-1.349-3.076-3.618-5.742-6.379-7.5c-2.639-1.717-5.878-2.663-9.119-2.663c-2.309,0-4.608,0.48-6.679,1.403
			c-0.047,0.023-0.087,0.034-0.125,0.034c-0.142,0-0.323-0.166-0.403-0.37c-0.104-0.265,0.014-0.374,0.048-0.407
			c0.176-0.162,0.486-0.277,0.814-0.398c0.134-0.049,0.267-0.099,0.361-0.138C39.075,31.653,41.1,31.299,43.18,31.299 M43.18,30.299
			c-2.163,0-4.326,0.37-6.361,1.113c-0.515,0.211-1.092,0.354-1.51,0.74c-0.951,0.886-0.106,2.512,1.032,2.512
			c0.182,0,0.372-0.042,0.563-0.135c1.963-0.874,4.101-1.302,6.241-1.302c3.017,0,6.038,0.851,8.574,2.501
			c2.649,1.687,4.748,4.19,6.009,7.064c0.195,0.566,0.771,0.909,1.345,0.909c0.247,0,0.494-0.063,0.71-0.2
			c0.653-0.339,0.946-1.217,0.608-1.877c-1.913-4.532-5.719-8.213-10.295-10.005C47.902,30.74,45.541,30.299,43.18,30.299
			L43.18,30.299z"/>
	</g>
	<g id="XMLID_4_">
		<g id="XMLID_12_">
			<path id="XMLID_102_" style="fill:#FFFFFF;" d="M10.031,14.314c-2.5,0-4.533-2.034-4.533-4.533s2.033-4.533,4.533-4.533
				s4.533,2.033,4.533,4.533S12.53,14.314,10.031,14.314z"/>
			<path id="XMLID_99_" style="fill:#028189;" d="M10.031,6.248c1.951,0,3.533,1.582,3.533,3.533s-1.582,3.533-3.533,3.533
				s-3.533-1.582-3.533-3.533S8.08,6.248,10.031,6.248 M10.031,4.248c-3.051,0-5.533,2.482-5.533,5.533s2.482,5.533,5.533,5.533
				s5.533-2.482,5.533-5.533S13.082,4.248,10.031,4.248L10.031,4.248z"/>
		</g>
		<g id="XMLID_13_">
			<path id="XMLID_98_" style="fill:#FFFFFF;" d="M77.108,14.314c-2.5,0-4.533-2.034-4.533-4.533s2.033-4.533,4.533-4.533
				s4.533,2.033,4.533,4.533S79.608,14.314,77.108,14.314z"/>
			<path id="XMLID_95_" style="fill:#028189;" d="M77.108,6.248c1.951,0,3.533,1.582,3.533,3.533s-1.582,3.533-3.533,3.533
				c-1.951,0-3.533-1.582-3.533-3.533S75.157,6.248,77.108,6.248 M77.108,4.248c-3.051,0-5.533,2.482-5.533,5.533
				s2.482,5.533,5.533,5.533s5.533-2.482,5.533-5.533S80.159,4.248,77.108,4.248L77.108,4.248z"/>
		</g>
	</g>
	<g id="XMLID_14_">
		<g id="XMLID_16_">
			<path id="XMLID_94_" style="fill:#FFFFFF;" d="M10.031,91.065c-2.5,0-4.533-2.033-4.533-4.532c0-2.5,2.033-4.533,4.533-4.533
				s4.533,2.033,4.533,4.533C14.564,89.032,12.53,91.065,10.031,91.065z"/>
			<path id="XMLID_89_" style="fill:#028189;" d="M10.031,83c1.951,0,3.533,1.582,3.533,3.533s-1.582,3.533-3.533,3.533
				s-3.533-1.582-3.533-3.533S8.08,83,10.031,83 M10.031,81c-3.051,0-5.533,2.482-5.533,5.533s2.482,5.533,5.533,5.533
				s5.533-2.482,5.533-5.533S13.082,81,10.031,81L10.031,81z"/>
		</g>
		<g id="XMLID_15_">
			<path id="XMLID_87_" style="fill:#FFFFFF;" d="M77.108,91.065c-2.5,0-4.533-2.033-4.533-4.532c0-2.5,2.033-4.533,4.533-4.533
				s4.533,2.033,4.533,4.533C81.642,89.032,79.608,91.065,77.108,91.065z"/>
			<path id="XMLID_72_" style="fill:#028189;" d="M77.108,83c1.951,0,3.533,1.582,3.533,3.533s-1.582,3.533-3.533,3.533
				c-1.951,0-3.533-1.582-3.533-3.533S75.157,83,77.108,83 M77.108,81c-3.051,0-5.533,2.482-5.533,5.533s2.482,5.533,5.533,5.533
				s5.533-2.482,5.533-5.533S80.159,81,77.108,81L77.108,81z"/>
		</g>
	</g>
</g>
</svg>
