<?xml version="1.0" encoding="iso-8859-1"?>
<svg version="1.1" xmlns="http://www.w3.org/2000/svg" xmlns:xlink="http://www.w3.org/1999/xlink" x="0px" y="0px"
	 viewBox="0 0 97 97" style="enable-background:new 0 0 97 97;" xml:space="preserve">
<g id="Capa_1">
</g>
<g id="Capa_2">
	<path id="XMLID_2_" style="fill:#FFFFFF;" d="M93,86.333C93,90.015,90.015,93,86.333,93H10.667C6.985,93,4,90.015,4,86.333V72.667
		C4,68.985,6.985,66,10.667,66h75.667C90.015,66,93,68.985,93,72.667V86.333z"/>
	<g id="XMLID_24_">
		<linearGradient id="XMLID_3_" gradientUnits="userSpaceOnUse" x1="48.5851" y1="1.3967" x2="48.8942" y2="49.3771">
			<stop  offset="0" style="stop-color:#FBD19E"/>
			<stop  offset="0.0798" style="stop-color:#F9C584"/>
			<stop  offset="0.2187" style="stop-color:#F6B25C"/>
			<stop  offset="0.3621" style="stop-color:#F4A23B"/>
			<stop  offset="0.5089" style="stop-color:#F29621"/>
			<stop  offset="0.6606" style="stop-color:#F18E0F"/>
			<stop  offset="0.82" style="stop-color:#F08905"/>
			<stop  offset="1" style="stop-color:#F08701"/>
		</linearGradient>
		<path id="XMLID_28_" style="fill:url(#XMLID_3_);" d="M48.771,58.789c-0.503,0-0.995-0.069-1.462-0.205
			c-1.117-0.303-2.141-0.962-2.981-1.912L26.363,35.963c-0.695-0.803-1.405-1.761-1.393-2.772c-0.005-0.56,0.459-1.034,0.921-1.265
			c0.99-0.525,2.231-0.533,3.432-0.542l5.552,0.005c0.549,0,0.995-0.442,1-0.992c0.035-4.174,0.03-8.349,0.024-12.523
			c-0.003-2.737-0.007-5.474,0.001-8.21c0.004-0.281,0.001-0.575-0.002-0.87c-0.01-0.978-0.02-1.901,0.239-2.74
			c0.46-1.628,1.629-3.074,3.214-3.987c0.92-0.553,1.982-0.824,3.085-1.067h12.402c1.681,0.194,3.149,0.762,4.252,1.643
			c1.576,1.21,2.535,3.016,2.58,4.844c0.018,3.34,0.014,6.7,0.009,10.06c-0.007,4.21-0.013,8.564,0.028,12.848
			c0.005,0.544,0.445,0.985,0.99,0.99c0.501,0.005,1.002,0.007,1.503,0.007l3.051-0.007c0.661,0,1.323,0.003,1.985,0.013
			c1.372,0.036,2.35,0.331,2.976,0.902c0.429,0.394,0.469,1.064,0.318,1.553c-0.275,0.927-0.957,1.705-1.679,2.528l-5.206,5.998
			c-3.712,4.278-7.424,8.555-11.128,12.838c-0.171,0.194-0.346,0.399-0.521,0.605c-0.668,0.787-1.299,1.53-2.09,2.026
			C50.976,58.458,49.867,58.789,48.771,58.789z"/>
		<path id="XMLID_20_" style="fill:#028189;" d="M54.78,2c1.05,0,2.507,0.481,3.717,1.448c1.304,1.001,2.137,2.558,2.175,4.024
			c0.018,3.343,0.013,6.745,0.008,10.036c-0.006,4.225-0.012,8.594,0.029,12.896c0.01,1.089,0.891,1.97,1.98,1.981
			c0.503,0.005,1.007,0.007,1.51,0.007c0.51,0,1.02-0.002,1.53-0.004c0.505-0.002,1.011-0.003,1.516-0.003
			c0.659,0,1.318,0.003,1.956,0.012c1.116,0.029,1.903,0.245,2.332,0.636c0.065,0.06,0.114,0.294,0.036,0.544
			c-0.21,0.706-0.821,1.404-1.468,2.142l-0.316,0.362l-4.909,5.658c-3.708,4.272-7.416,8.545-11.102,12.809
			c-0.181,0.205-0.359,0.415-0.538,0.625c-0.617,0.727-1.201,1.413-1.895,1.849c-0.754,0.495-1.667,0.767-2.57,0.767
			c-0.409,0-0.807-0.056-1.221-0.176c-0.894-0.242-1.773-0.811-2.461-1.589c-3.365-3.881-6.731-7.76-10.098-11.64l-7.874-9.075
			c-0.54-0.623-1.158-1.425-1.15-2.141c0.011-0.054,0.134-0.423,0.414-0.563C27.134,32.207,28.201,32,29.331,32h0.085l3.639,0.001
			L34.873,32c0.001,0,0.001,0,0.002,0c1.098,0,1.991-0.69,2-1.788c0.035-4.182,0.03-8.333,0.025-12.441
			c-0.003-2.734-0.007-5.419,0.001-8.13c0.004-0.301,0.001-0.579-0.002-0.882c-0.009-0.897-0.018-1.733,0.208-2.467
			c0.383-1.357,1.384-2.58,2.775-3.382C40.633,2.458,41.566,2,42.546,2H55 M54.895,0H42.327c-1.199,0-2.414,0.563-3.476,1.201
			c-1.729,0.997-3.123,2.625-3.67,4.559C34.793,7.024,34.919,8.36,34.9,9.661c-0.02,6.909,0.033,13.82-0.026,20.728
			c-1.818-0.002-3.637-0.002-5.455-0.005c-1.341,0.009-2.76,0.002-3.975,0.647c-0.81,0.405-1.484,1.207-1.475,2.147
			c-0.016,1.333,0.802,2.476,1.637,3.44c5.991,6.907,11.983,13.809,17.972,20.716c0.916,1.035,2.107,1.847,3.45,2.209
			c0.567,0.165,1.155,0.245,1.743,0.245c1.292,0,2.585-0.385,3.667-1.095c1.148-0.72,1.955-1.825,2.836-2.824
			c5.331-6.167,10.68-12.319,16.022-18.479c0.85-0.986,1.809-1.967,2.189-3.245c0.274-0.888,0.104-1.94-0.599-2.587
			c-0.976-0.89-2.357-1.13-3.635-1.163c-0.669-0.01-1.338-0.013-2.007-0.013c-1.016,0-2.031,0.007-3.047,0.007
			c-0.497,0-0.994-0.002-1.49-0.007c-0.073-7.64,0.004-15.283-0.037-22.923c-0.055-2.193-1.23-4.275-2.957-5.6
			C58.344,0.766,56.624,0,54.895,0L54.895,0z"/>
	</g>
	<g id="XMLID_41_">
		<g id="XMLID_55_">
			<linearGradient id="XMLID_4_" gradientUnits="userSpaceOnUse" x1="19.9616" y1="108.4247" x2="77.0439" y2="51.3424">
				<stop  offset="0" style="stop-color:#036973"/>
				<stop  offset="1" style="stop-color:#32A5AE"/>
			</linearGradient>
			<path id="XMLID_49_" style="fill:url(#XMLID_4_);" d="M11.167,96c-2.698-0.321-5.141-1.477-6.886-3.257
				C2.48,90.988,1.322,88.552,1,85.861v-11.78c0.178-1.579,0.537-2.889,1.097-4.001c1.483-3.097,4.47-5.426,7.804-6.094
				c0.892-0.191,1.794-0.23,2.879-0.23l1.237,0.006l70.867,0.002c2.995,0,5.975,1.285,8.014,3.437
				c1.766,1.802,2.865,4.254,3.107,6.916L96,85.556c-0.192,3.2-1.868,6.297-4.48,8.223c-1.535,1.176-3.497,1.939-5.691,2.222H11.167
				z M84.906,90.226c2.792,0,5.304-2.218,5.485-4.973c0.048-1.025,0.037-3.662,0.029-5.824c-0.005-1.169-0.009-2.165-0.003-2.695
				c-0.006-0.293,0-0.543,0.005-0.808c0.017-0.88,0.035-1.87-0.313-2.847c-0.704-2.17-2.9-3.761-5.213-3.761
				c-0.086,0-0.171,0.004-0.257,0.008l-72.135-0.003c-0.51,0-1.088,0-1.688,0.154c-2.382,0.581-4.166,2.748-4.23,5.151
				c-0.014,1.046-0.012,3.186-0.009,5.269c0.002,1.87,0.005,3.693-0.005,4.619c-0.132,1.4,0.402,2.702,1.471,3.873
				C9.107,89.552,10.564,90,12.043,90h72.625C84.748,90,84.827,90.226,84.906,90.226z"/>
			<path id="XMLID_44_" style="fill:#028189;" d="M12.78,64.756l0.642,0.122L14.017,65h16.148h14.259h14.259l26.245-0.117
				c2.681,0,5.388,1.109,7.265,3.09c1.574,1.607,2.569,3.748,2.806,6.147v11.374c-0.192,2.947-1.713,5.74-4.104,7.502
				c-1.366,1.047-3.139,1.738-5.134,2.005H11.228c-2.45-0.304-4.66-1.352-6.265-2.989C3.354,90.444,2.305,88.242,2,85.801V74.138
				c0.167-1.434,0.491-2.616,1.007-3.643c1.341-2.802,4.058-4.92,7.117-5.534C10.916,64.791,11.758,64.756,12.78,64.756
				 M84.645,68.165C75.335,68.162,66.02,68,56.709,68H45.286H33.864l-21.358,0.161c-0.542,0-1.216,0.081-1.913,0.261
				c-2.823,0.687-4.928,3.292-5.005,6.165c-0.014,1.047-0.011,3.223-0.009,5.309c0.002,1.811,0.005,3.587-0.004,4.527
				c-0.133,1.732,0.495,3.28,1.731,4.634C8.557,90.428,10.284,91,12.043,91h0.076h24.191h24.191h24.143
				c0.087,0,0.175,0.225,0.262,0.225c3.356,0,6.263-2.589,6.484-5.946c0.048-1.028-0.171-3.554-0.18-5.832
				C91.207,78.276,91,77.303,91,76.772c0-0.021,0-0.042,0-0.063c0-0.249,0.209-0.501,0.214-0.753
				c0.018-0.957,0.143-2.042-0.257-3.179c-0.852-2.584-3.387-4.537-6.111-4.537C84.762,68.24,84.73,68.161,84.645,68.165
				 M12.78,62.875c-1.032,0-2.064-0.027-3.076,0.19c-3.658,0.733-6.892,3.236-8.501,6.596C0.515,71.029,0.167,72.509,0,74.025V85.92
				c0.324,2.808,1.527,5.535,3.567,7.523C5.56,95.477,8.294,96.677,11.11,97H85.89c2.232-0.278,4.426-1.041,6.222-2.417
				c2.855-2.103,4.678-5.494,4.888-9.027V74.025c-0.254-2.786-1.41-5.385-3.378-7.394C91.391,64.276,88.181,63,84.929,63
				c-0.015,0-0.031,0-0.046,0c-8.734,0-17.465,0-26.199,0c-9.506,0-19.013,0-28.518,0c-5.382,0-10.766,0-16.148,0
				C13.606,63,13.193,62.875,12.78,62.875L12.78,62.875z M84.691,70.165c0.069-0.004,0.138,0.076,0.207,0.076
				c1.885,0,3.689,1.349,4.27,3.141c0.381,1.068,0.227,2.237,0.25,3.348c-0.017,1.516,0.045,7.043-0.025,8.557
				c-0.149,2.259-2.231,3.934-4.486,3.934c-0.071,0-0.143-0.22-0.214-0.22c-8.065,0-16.127,0-24.191,0c-16.127,0-32.256,0-48.383,0
				c-0.026,0-0.051,0-0.076,0c-2.527,0-4.699-2.185-4.469-4.694c0.021-1.956-0.013-7.804,0.013-9.762
				c0.053-1.967,1.576-3.691,3.478-4.154c0.47-0.121,0.959-0.257,1.44-0.257C19.625,70.134,26.744,70,33.864,70
				c7.616,0,15.229,0,22.845,0C66.035,70,75.365,70.162,84.691,70.165L84.691,70.165z"/>
		</g>
	</g>
	<linearGradient id="XMLID_5_" gradientUnits="userSpaceOnUse" x1="57.6117" y1="71.5332" x2="-67.4029" y2="180.8392">
		<stop  offset="0" style="stop-color:#FFFFFF"/>
		<stop  offset="0.0636" style="stop-color:#D4EAEC"/>
		<stop  offset="0.1515" style="stop-color:#A1D5D9"/>
		<stop  offset="0.2428" style="stop-color:#78C6C9"/>
		<stop  offset="0.3369" style="stop-color:#4DBBBE"/>
		<stop  offset="0.4351" style="stop-color:#27B4B7"/>
		<stop  offset="0.5398" style="stop-color:#00B0B5"/>
		<stop  offset="0.7809" style="stop-color:#00AFB3"/>
	</linearGradient>
	<path id="XMLID_26_" style="opacity:0.65;fill:url(#XMLID_5_);" d="M87,83.731C87,85.536,85.536,87,83.731,87H13.269
		C11.464,87,10,85.536,10,83.731v-8.462C10,73.464,11.464,72,13.269,72h70.462C85.536,72,87,73.464,87,75.269V83.731z"/>
	<g id="XMLID_21_">
		<linearGradient id="XMLID_6_" gradientUnits="userSpaceOnUse" x1="74.6572" y1="82.4494" x2="81.8057" y2="75.3009">
			<stop  offset="0" style="stop-color:#036973"/>
			<stop  offset="1" style="stop-color:#32A5AE"/>
		</linearGradient>
		<path id="XMLID_18_" style="fill:url(#XMLID_6_);" d="M78.203,83.936c-0.415,0-0.821-0.053-1.209-0.157
			c-1.564-0.397-2.885-1.554-3.458-3.02c-0.868-2.077-0.114-4.686,1.709-5.96c0.603-0.433,1.28-0.729,1.967-0.866
			c0.343-0.076,0.675-0.112,1.009-0.112c1.972,0,3.878,1.23,4.634,2.99c0.776,1.683,0.51,3.765-0.653,5.206
			C81.271,83.204,79.741,83.936,78.203,83.936z"/>
		<path id="XMLID_15_" style="fill:#028189;" d="M78.22,74.821L78.22,74.821c1.584,0,3.112,0.981,3.715,2.384
			c0.007,0.017,0.015,0.033,0.022,0.05c0.601,1.299,0.381,2.999-0.553,4.156c-0.737,0.94-1.963,1.524-3.201,1.524
			c-0.327,0-0.647-0.041-0.976-0.13c-1.225-0.311-2.309-1.258-2.777-2.454c-0.674-1.612-0.06-3.735,1.389-4.747
			c0.477-0.343,1.02-0.581,1.614-0.7C77.7,74.849,77.958,74.821,78.22,74.821 M78.22,72.821c-0.402,0-0.805,0.043-1.203,0.131
			c-0.845,0.168-1.648,0.527-2.345,1.028c-2.215,1.548-3.105,4.66-2.067,7.143c0.693,1.773,2.285,3.152,4.13,3.621
			c0.481,0.129,0.975,0.191,1.469,0.191c1.825,0,3.645-0.848,4.776-2.291c1.391-1.723,1.724-4.216,0.794-6.229
			C82.844,74.252,80.553,72.821,78.22,72.821L78.22,72.821z"/>
	</g>
</g>
</svg>
