<?xml version="1.0" encoding="iso-8859-1"?>

<svg version="1.1" id="Capa_1" xmlns="http://www.w3.org/2000/svg" xmlns:xlink="http://www.w3.org/1999/xlink" x="0px" y="0px"
	 viewBox="0 0 97 97" style="enable-background:new 0 0 97 97;" xml:space="preserve">
<g>
	<g>
		
			<linearGradient id="SVGID_1_" gradientUnits="userSpaceOnUse" x1="-93.367" y1="157.878" x2="57.7288" y2="-9.9309" gradientTransform="matrix(1 0 0 -1 0 49.1768)">
			<stop  offset="0" style="stop-color:#32A5AE"/>
			<stop  offset="1" style="stop-color:#FFFFFF"/>
		</linearGradient>
		<path style="fill-rule:evenodd;clip-rule:evenodd;fill:url(#SVGID_1_);" d="M11.136,96C9.063,96,7,94.285,7,92.011V4.86
			C7,2.624,9.029,1,11.136,1h74.373C87.71,1,89,2.732,89,4.86V68.43L62.372,96H11.136z"/>
		<path style="fill:#028189;" d="M85.505,2C87.182,2,88,3.256,88,4.86V68.02L61.953,95H11.136C9.405,95,8,93.496,8,92.011V4.86
			C8,3.176,9.584,2,11.136,2H86 M85.509,0H11.136C8.431,0,6,2.101,6,4.86v87.15C6,94.77,8.431,97,11.136,97h51.655L90,68.839V4.86
			C90,2.101,87.964,0,85.259,0H85.509z"/>
	</g>
	<g>
		
			<linearGradient id="SVGID_2_" gradientUnits="userSpaceOnUse" x1="74.7104" y1="-32.6216" x2="64.2073" y2="-20.5392" gradientTransform="matrix(1 0 0 -1 0 49.1768)">
			<stop  offset="0" style="stop-color:#32A5AE"/>
			<stop  offset="1" style="stop-color:#FFFFFF"/>
		</linearGradient>
		<path style="fill-rule:evenodd;clip-rule:evenodd;fill:url(#SVGID_2_);" d="M63,74.825C63,72.48,65.663,70,67.709,70h20.366
			L63,95.5V74.825z"/>
		<path style="fill:#028189;" d="M85.611,71L64,93.021V74.825C64,73.074,66.239,71,67.709,71H86 M90.427,69h0.005H90.427z
			 M90.427,69H67.709C65.004,69,62,72.069,62,74.825v23.153L90.177,69H90.427z"/>
	</g>
</g>
<g>
	<path style="fill:#028189;stroke:#028189;stroke-miterlimit:10;" d="M52.541,28.972c1.285-0.285,2.709,0.398,3.283,1.584
		c0.466,0.887,0.413,1.983-0.063,2.854c-4.271,8.942-8.535,17.888-12.806,26.831c-0.423,0.892-1.32,1.522-2.297,1.642
		c-1.111,0.163-2.279-0.368-2.888-1.31c-0.625-0.895-0.661-2.13-0.15-3.085c4.26-8.928,8.521-17.857,12.781-26.783
		C50.784,29.827,51.604,29.166,52.541,28.972z"/>
	<path style="fill:#028189;stroke:#028189;stroke-miterlimit:10;" d="M29.455,29.852c0.44-0.452,1.014-0.776,1.636-0.89
		c1.232-0.237,2.576,0.389,3.165,1.501c0.652,1.125,0.432,2.655-0.497,3.562c-3.789,3.8-7.589,7.589-11.38,11.388
		c3.794,3.8,7.596,7.594,11.391,11.394c0.692,0.686,0.998,1.727,0.81,2.683c-0.207,1.128-1.13,2.087-2.246,2.344
		c-0.983,0.232-2.083-0.059-2.799-0.779c-4.517-4.514-9.034-9.03-13.547-13.547c-1.124-1.101-1.133-3.08-0.003-4.181
		C20.471,38.831,24.966,34.344,29.455,29.852z"/>
	<path style="fill:#028189;stroke:#028189;stroke-miterlimit:10;" d="M60.741,31.167c0.257-1.063,1.152-1.946,2.224-2.173
		c1.022-0.249,2.155,0.091,2.868,0.862c4.49,4.49,8.981,8.979,13.47,13.471c1.116,1.099,1.118,3.065,0.002,4.165
		c-4.382,4.39-8.772,8.77-13.156,13.16c-0.433,0.46-0.918,0.906-1.536,1.097c-1.079,0.385-2.348,0.067-3.131-0.762
		c-1.079-1.079-1.119-2.998-0.048-4.097c3.814-3.834,7.648-7.648,11.468-11.476c-3.791-3.802-7.596-7.591-11.385-11.396
		C60.771,33.299,60.48,32.167,60.741,31.167z"/>
</g>
</svg>
