<?xml version="1.0" encoding="iso-8859-1"?>

<svg version="1.1" id="Capa_1" xmlns="http://www.w3.org/2000/svg" xmlns:xlink="http://www.w3.org/1999/xlink" x="0px" y="0px"
	 viewBox="0 0 97 97" style="enable-background:new 0 0 97 97;" xml:space="preserve">
<g>
	<path style="fill:#028189;" d="M24.045,44c-1,0-2.028-0.049-3.023-0.097c-0.674-0.032-1.365-0.065-2.058-0.083
		c0.001-1.682,0-3.381-0.001-5.085c-0.002-3.303-0.005-6.624,0.012-9.87c0.099-8.159,3.889-16.231,10.139-21.586
		c2.959-2.6,6.735-4.444,11.893-5.811C42.593,1.035,44.26,1,46.117,1h3.696c2.408,0,4.57,0.05,6.639,0.662
		c7.135,2.033,13.116,6.457,16.853,12.458c2.925,4.657,4.473,9.923,4.479,15.234c0.005,2.509,0.04,5.004,0.075,7.499
		c0.032,2.268,0.063,4.536,0.073,6.813c-0.774-0.003-3.384-0.022-3.932-0.024v-0.006L72.998,44H67.77
		c-0.008-2-0.039-4.312-0.07-6.37c-0.037-2.414-0.073-4.925-0.072-7.34c0.028-3.885-0.901-7.556-2.688-10.516
		c-2.858-4.893-7.86-8.362-13.373-9.226c-1.023-0.182-2.099-0.288-3.174-0.288c-4.904,0-9.694,1.908-13.141,5.246
		c-2.303,2.123-4.045,4.716-5.019,7.487C29.395,25.179,29,27.713,29,30.951v12.687c-0.7,0.038-1.386,0.106-2.057,0.173
		C25.967,43.908,25.046,44,24.109,44H24.045z"/>
	<path style="fill:#028189;" d="M46,2h0.402h0.286l3.127,0c2.329,0,4.414,0.047,6.374,0.626c6.885,1.962,12.662,6.232,16.271,12.03
		c2.823,4.495,4.319,9.578,4.324,14.702c0.005,2.519,0.041,5.059,0.075,7.516c0.027,1.898,0.054,3.844,0.067,5.788
		c-0.426-0.003-0.849-0.006-1.272-0.009c-0.218-0.002-0.436-0.003-0.654-0.005v-0.043l-2.004,0.198L70.387,43h-1.623
		c-0.013-2-0.039-3.684-0.065-5.387c-0.036-2.371-0.073-4.919-0.072-7.309c0.029-4.078-0.95-7.929-2.817-11.022
		c-3.016-5.162-8.283-8.811-14.049-9.714C50.66,9.371,49.527,9.26,48.392,9.26c-5.162,0-10.205,2.011-13.801,5.494
		c-2.434,2.244-4.264,4.967-5.293,7.882C28.413,24.958,28,27.599,28,30.951v11.755c-0.391,0.033-0.776,0.072-1.157,0.11
		C25.893,42.91,24.996,43,24.109,43h-0.064c-0.975,0-1.947-0.046-2.975-0.095c-0.365-0.017-0.734-0.035-1.106-0.05
		c0-1.36-0.001-2.729-0.002-4.101c-0.002-3.308-0.005-6.633,0.011-9.869c0.095-7.883,3.755-15.676,9.808-20.863
		c2.829-2.485,6.477-4.261,11.491-5.591C42.739,2.032,44.27,2,46.118,2 M46.118,0c-1.803,0-3.613,0.023-5.369,0.5
		c-4.514,1.198-8.774,2.933-12.287,6.019c-6.445,5.523-10.386,13.852-10.488,22.341c-0.027,5.249-0.004,10.696-0.011,15.945
		C19.991,44.808,22.019,45,24.045,45h0.064C26.083,45,28,44.611,30,44.609c0-4.553,0-9.106,0-13.659
		c0-2.577,0.246-5.204,1.176-7.629c0.948-2.701,2.669-5.166,4.771-7.104c3.298-3.193,7.868-4.97,12.445-4.97
		c1.011,0,2.021,0.087,3.019,0.264c5.254,0.824,10,4.156,12.672,8.73c1.802,2.985,2.569,6.487,2.544,9.95
		c-0.002,4.807,0.144,9.612,0.144,14.418c1.172,0.001,2.401,0.002,3.615,0.002c0.888,0,1.769-0.001,2.613-0.002
		c0,0.01,0,0.02,0,0.029C74.933,44.642,76.779,45,78.732,45c0.067,0,0.134,0,0.202,0c-0.004-5-0.141-10.356-0.15-15.48
		c-0.006-5.591-1.659-11.116-4.63-15.845C70.222,7.361,63.895,2.785,56.737,0.744C54.484,0.078,52.148,0,49.814,0h-3.127
		C46.498,0,46.308,0,46.118,0L46.118,0z"/>
</g>
<g>
	<path style="fill:#036973;" d="M42.657,59.576c1.534-1.719,3.823-2.936,6.266-2.952c4.01,0.066,7.466,3.164,8.281,6.706
		c0.307,1.972-0.044,4.13-1.374,5.748c-0.559,0.644-1.323,1.108-1.88,1.752c-0.2,0.364-0.284,0.798-0.145,1.196
		c1.09,3.914,2.315,7.794,3.363,11.718c0.218,1.334,0.145,2.689,0.149,4.034c-2.802,0.01-5.603,0-8.405,0.006
		c-2.796-0.006-5.594,0.004-8.392-0.006c0.008-1.595-0.116-3.221,0.347-4.776c1.034-3.618,2.109-7.228,3.147-10.845
		c0.164-0.473,0.128-1.026-0.202-1.433c-0.748-0.742-1.697-1.334-2.233-2.243c-0.725-1.098-1.013-2.395-1.042-3.67
		C40.401,62.88,41.346,61.023,42.657,59.576z"/>
</g>
<g>
	
		<linearGradient id="SVGID_1_" gradientUnits="userSpaceOnUse" x1="11.4995" y1="70.8037" x2="86" y2="70.8037" gradientTransform="matrix(-1 0 0 1 97 0)">
		<stop  offset="0.432" style="stop-color:#FBD19E"/>
		<stop  offset="1" style="stop-color:#F08701"/>
	</linearGradient>
	<path style="fill:url(#SVGID_1_);" d="M13.313,96c-1.155-0.885-2.057-1.436-2.056-2.209C11.248,84.462,11,74.987,11,65.548
		c0,0,1-17.564,1-17.698c-1-0.372-0.256-0.693-0.155-0.909c0.249-0.657,0.701-1.139,1.385-1.31c0.473-0.019,1.143-0.023,1.932-0.023
		l2.628,0.007c0.332,0,0.606-0.001,0.828-0.005c0,0,24.308,0.004,32.602,0.004c6.826,0,28.197-0.004,28.197-0.004l0.688,0.004
		l1.968-0.005c0.588,0,1.142,0.004,1.55,0.02c0.484,0.023,0.977,0.274,1.344,0.689c0.372,0.42,0.564,0.947,0.528,1.446l-0.002,15.27
		c0.002,10.204,0.004,20.465-0.007,30.556c0.026,0.833-0.573,1.484-1.766,2.412H13.313z M43.591,71.16
		c0.052,0.138,0.059,0.272,0.035,0.346c-0.436,1.678-0.877,3.301-1.318,4.925c-0.588,2.165-1.197,4.404-1.745,6.61
		c-0.186,1.197-0.177,2.338-0.168,3.441l0.004,0.67C40.398,87.704,40.844,88,41.396,88h0.206c1.569,0,5.243,0.1,8.631,0.048
		c2.727-0.042,5.269-0.003,6.369-0.007c0.266-0.001,0.52-0.069,0.706-0.257c0.188-0.188,0.291-0.424,0.29-0.69
		c-0.001-0.282,0.001-0.556,0.004-0.839c0.012-1.325,0.024-2.69-0.354-4.063c-0.492-1.854-0.997-3.714-1.502-5.576
		c-0.45-1.661-0.9-3.321-1.344-4.983c-0.066-0.213-0.063-0.4-0.003-0.509c0.188-0.195,0.391-0.38,0.593-0.565
		c0.524-0.481,1.118-1.026,1.524-1.77c0.664-1.08,1.031-2.452,1.066-4.035c0.125-1.902-0.639-3.966-2.152-5.767
		c-1.662-2.007-4.067-3.218-6.43-3.233c-0.002,0-0.073,0.002-0.106,0.005c-3.91,0.112-7.5,3.248-8.371,7.327
		c-0.356,2.457,0.167,4.774,1.426,6.424c0.316,0.394,0.648,0.697,0.97,0.991C43.166,70.725,43.4,70.938,43.591,71.16z"/>
	<path style="fill:#028189;" d="M15.108,46.607c0.475,0,0.969,0.002,1.441,0.003l1.212,0.003c0.337,0,0.631-0.001,0.826-0.005
		l3.514,0.002l2.563-0.002l2.572,0.002l3.515-0.002c3.347,0.002,12.212,0.004,20.526,0.004c6.802,0,13.236-0.001,15.968-0.004
		l3.043,0.001l3.039-0.001l3.516,0.002l2.54-0.002c0.21,0.003,0.456,0.004,0.725,0.004l0.935-0.003l1.033-0.003
		c0.573,0,1.113,0.004,1.493,0.018c0.221,0.01,0.465,0.143,0.652,0.354c0.191,0.216,0.295,0.481,0.278,0.709
		c-0.004,0.049-0.005,0.098-0.005,0.147c-0.001,5.047-0.243,10.136-0.242,15.239C84.253,73.264,84,83.51,84,93.586
		c0,0.022,0,0.044,0,0.065C84,94.016,83.998,95,83.376,95H49.004H13.653c-0.591,0-1.146-0.929-1.146-1.212
		c-0.008-9.325-0.007-18.798-0.006-28.236c0.001-5.803,0.002-11.593,0-17.279c0.003-0.143,0.002-0.288,0.001-0.433
		c-0.002-0.174-0.004-0.436,0.001-0.478c0.022-0.047,0.042-0.095,0.06-0.144c0.095-0.255,0.373-0.487,0.698-0.592
		C13.654,46.614,14.263,46.607,15.108,46.607 M48.835,54.883c-4.346,0.141-8.326,3.547-9.289,8.056
		c-0.009,0.044-0.017,0.057-0.024,0.101c-0.383,2.655,0.212,5.23,1.632,7.092c0.011,0.014,0.021,0.02,0.032,0.033
		c0.349,0.433,0.726,0.774,1.059,1.077c0.117,0.106,0.23,0.208,0.334,0.308c-0.4,1.539-0.819,3.08-1.238,4.623
		c-0.589,2.169-1.199,4.412-1.748,6.628c-0.015,0.06-0.027,0.12-0.036,0.181c-0.18,1.186-0.171,2.369-0.161,3.513
		c0.002,0.273,0.004,0.389,0.004,0.655C39.396,88.253,40.288,89,41.392,89h0.203c1.573,0,5.156,0.101,8.621,0.048
		c2.722-0.042,5.294-0.003,6.39-0.007c0.531-0.002,1.039-0.176,1.413-0.553c0.374-0.377,0.582-0.868,0.58-1.398
		c-0.001-0.277,0.001-0.544,0.004-0.822c0.012-1.33,0.026-2.833-0.384-4.321c-0.492-1.854-0.994-3.704-1.496-5.556
		c-0.439-1.619-0.878-3.236-1.31-4.857c0.083-0.078,0.169-0.157,0.258-0.238c0.543-0.498,1.216-1.116,1.7-1.981
		c0.761-1.26,1.168-2.772,1.211-4.496c0.13-2.192-0.716-4.366-2.376-6.339C54.353,56.241,51.663,55,49.008,55
		c-0.005,0-0.009,0-0.014,0C48.941,55,48.888,54.879,48.835,54.883 M15.108,44.607c-0.862,0-1.659,0.006-2.138,0.028
		c-1.002,0.214-1.918,0.911-2.281,1.883c-0.249,0.535-0.175,1.137-0.188,1.708c0.004,15.059-0.008,30.504,0.006,45.563
		C10.505,95.183,11.67,96,12.974,97h36.03h35.057c1.317-1,2.471-1.967,2.425-3.411c0.017-15.124,0.004-30.63,0.006-45.753
		c0.118-1.598-1.226-3.131-2.83-3.207c-0.418-0.016-0.986-0.02-1.588-0.02c-0.666,0-1.374,0.005-1.967,0.005
		c-0.258,0-0.495-0.001-0.697-0.004c-0.856,0.002-1.712,0.002-2.568,0.002c-1.172,0-2.343-0.001-3.514-0.002
		c-1.014,0.001-2.028,0.001-3.041,0.001s-2.027,0-3.041-0.001c-2.736,0.003-9.169,0.004-15.97,0.004
		c-8.314,0-17.178-0.002-20.525-0.004c-1.172,0.001-2.344,0.002-3.516,0.002c-0.856,0-1.712-0.001-2.568-0.002
		c-0.855,0.002-1.711,0.002-2.566,0.002c-1.171,0-2.342-0.001-3.514-0.002c-0.217,0.003-0.5,0.005-0.825,0.005
		C17.005,44.614,16.02,44.607,15.108,44.607L15.108,44.607z M41.595,87c-0.07,0-0.135,0-0.196,0c0.004-1-0.063-2.573,0.135-3.873
		c0.948-3.824,2.057-7.577,3.043-11.391c0.125-0.387,0.049-0.796-0.131-1.15c-0.504-0.628-1.196-1.072-1.701-1.701
		c-1.203-1.577-1.518-3.676-1.24-5.599C42.242,59.834,45,56.821,49,56.756c0-0.001,0-0.002,0-0.003c2,0.015,4.28,1.201,5.667,2.877
		c1.186,1.41,2.04,3.221,1.917,5.101c-0.027,1.243-0.288,2.507-0.943,3.577c-0.485,0.886-1.344,1.463-2.021,2.186
		c-0.298,0.397-0.331,0.936-0.183,1.397c0.939,3.526,1.912,7.045,2.847,10.571c0.418,1.516,0.306,2.946,0.314,4.5
		C54.127,86.972,44.418,87,41.595,87L41.595,87z"/>
</g>
<linearGradient id="SVGID_2_" gradientUnits="userSpaceOnUse" x1="20.0453" y1="22.9352" x2="77" y2="22.9352">
	<stop  offset="0" style="stop-color:#32A5AE"/>
	<stop  offset="1" style="stop-color:#FFFFFF"/>
</linearGradient>
<path style="fill:url(#SVGID_2_);" d="M72.831,44.062c0.608,0.006,1.34,0.015,1.948,0.024c0.699,0.011,1.22,0.021,2.22,0.026v-5.252
	c0-2.959-0.207-5.91-0.213-8.903c-0.006-5.271-1.557-10.321-4.407-15.011c-3.476-5.772-9.276-10.08-16.242-12.131
	c-1.382-0.423-2.255-0.731-4.27-0.879c-0.67-0.049-1.41-0.178-2.083-0.178l-2.968,0.089c-0.681,0-0.387-0.089-2.165,0.178
	c-1.213,0.182-2.338,0.192-3.414,0.496c-4.566,1.252-8.304,2.482-11.427,5.319c-6.016,5.329-9.659,13.374-9.754,21.488
	c-0.016,3.216-0.014,6.451-0.011,9.674c0.001,1.662,0.017,3.329,0.016,4.99c1.309,0,2.937,0.007,3.937,0.005v-4.818
	c0-2.906-0.016-5.811-0.013-8.716c0.011-2.474,0.234-4.592,0.698-6.48c1.469-6.473,5.532-12.175,11.15-15.627
	c6.091-3.835,13.793-4.632,20.597-2.124c3.235,1.15,6.345,3.16,8.985,5.809c3.856,3.938,6.508,9.101,7.167,14.546
	C72.839,28.457,73,30.363,73,32.206v0.928C73,36.769,72.83,40.425,72.831,44.062z"/>
</svg>
