<?xml version="1.0" encoding="iso-8859-1"?>

<svg version="1.1" xmlns="http://www.w3.org/2000/svg" xmlns:xlink="http://www.w3.org/1999/xlink" x="0px" y="0px"
	 viewBox="0 0 97 97" style="enable-background:new 0 0 97 97;" xml:space="preserve">
<g id="Capa_1">
	<g id="XMLID_1_">
		<linearGradient id="XMLID_3_" gradientUnits="userSpaceOnUse" x1="-3.354" y1="100.354" x2="45.0994" y2="51.9006">
			<stop  offset="0" style="stop-color:#32A5AE"/>
			<stop  offset="1" style="stop-color:#FFFFFF"/>
		</linearGradient>
		<path id="XMLID_17_" style="fill:url(#XMLID_3_);" d="M48.5,96C22.309,96,1,74.691,1,48.5S22.309,1,48.5,1S96,22.309,96,48.5
			S74.691,96,48.5,96z"/>
		<path id="XMLID_14_" style="fill:#028189;" d="M48.5,2C74.14,2,95,22.86,95,48.5S74.14,95,48.5,95S2,74.14,2,48.5S22.86,2,48.5,2
			 M48.5,0C21.714,0,0,21.714,0,48.5S21.714,97,48.5,97S97,75.286,97,48.5S75.286,0,48.5,0L48.5,0z"/>
	</g>
	<g id="text1314" sodipodi:nodetypes="ccccccccccccc">
		<linearGradient id="XMLID_4_" gradientUnits="userSpaceOnUse" x1="27.2415" y1="69.6935" x2="68.9176" y2="28.0175">
			<stop  offset="0" style="stop-color:#036973"/>
			<stop  offset="1" style="stop-color:#32A5AE"/>
		</linearGradient>
		<path id="XMLID_27_" style="fill:url(#XMLID_4_);" d="M40.819,80.929l-0.452-22.525c-0.009-0.547-0.501-0.984-1.047-0.984
			c-0.001,0-24.291,0.062-24.291,0.062l0.068-16.143l24.168-0.227c0.549-0.005,0.988-0.452,0.988-1l-0.012-24.916l15.671-0.183
			l0.021,24.757c0,0.552,0.448,1.231,1,1.231H81v16.435l-23.193,0.101c-0.551,0.002-0.807,0.449-0.807,1v22.461L40.819,80.929z"/>
		<g id="XMLID_23_">
			<path id="XMLID_24_" style="fill:#028189;" d="M54.912,16.023l0.021,23.746c0.001,1.104,0.896,2.23,2,2.23H80v14.439
				l-22.197,0.096c-1.101,0.005-1.803,0.899-1.803,2v21.457l-14.197-0.059l-0.436-21.755C41.349,57.085,40.364,56,39.272,56
				c-0.002,0-0.004,0-0.005,0L16.01,56.269l0.07-14.045l23.188-0.165c1.098-0.01,1.982-0.877,1.981-1.975L41.24,16.17L54.912,16.023
				 M56.91,14.232l-17.671,0.091l0.011,25.846l-25.16,0.207L14,58.498l25.272-0.072l0.562,23.502L58,82V58.535l24-0.104V40H56.932
				L56.91,14.232L56.91,14.232z"/>
		</g>
	</g>
</g>
<g id="Capa_2">
</g>
</svg>
