<?xml version="1.0" encoding="iso-8859-1"?>

<svg version="1.1" id="Capa_1" xmlns="http://www.w3.org/2000/svg" xmlns:xlink="http://www.w3.org/1999/xlink" x="0px" y="0px"
	 viewBox="0 0 97 97" style="enable-background:new 0 0 97 97;" xml:space="preserve">
<g>
	<linearGradient id="SVGID_1_" gradientUnits="userSpaceOnUse" x1="14.9282" y1="82.0718" x2="82.0718" y2="14.9282">
		<stop  offset="0" style="stop-color:#036973"/>
		<stop  offset="1" style="stop-color:#32A5AE"/>
	</linearGradient>
	<path style="fill:url(#SVGID_1_);" d="M48.5,96C22.309,96,1,74.691,1,48.5S22.309,1,48.5,1S96,22.309,96,48.5S74.691,96,48.5,96z"
		/>
	<path style="fill:#028189;" d="M48.5,2C74.14,2,95,22.86,95,48.5S74.14,95,48.5,95S2,74.14,2,48.5S22.86,2,48.5,2 M48.5,0
		C21.714,0,0,21.714,0,48.5S21.714,97,48.5,97S97,75.286,97,48.5S75.286,0,48.5,0L48.5,0z"/>
</g>
<g>
	<path style="fill:#FFFFFF;" d="M55.746,23.841c0,3.78-2.88,6.84-7.38,6.84c-4.319,0-7.199-3.06-7.109-6.84
		c-0.09-3.959,2.79-6.929,7.2-6.929S55.656,19.881,55.746,23.841z M42,80V36h13v44H42z"/>
</g>
</svg>
