<?xml version="1.0" encoding="iso-8859-1"?>

<svg version="1.1" id="Capa_1" xmlns="http://www.w3.org/2000/svg" xmlns:xlink="http://www.w3.org/1999/xlink" x="0px" y="0px"
	 viewBox="0 0 97 97" style="enable-background:new 0 0 97 97;" xml:space="preserve">
<g>
	<linearGradient id="SVGID_1_" gradientUnits="userSpaceOnUse" x1="85.399" y1="18.6198" x2="11.601" y2="78.3802">
		<stop  offset="0" style="stop-color:#FBD19E"/>
		<stop  offset="1" style="stop-color:#F08701"/>
	</linearGradient>
	<circle style="fill:url(#SVGID_1_);" cx="48.5" cy="48.5" r="47.5"/>
	<path style="fill:#028189;" d="M48.5,2C74.14,2,95,22.86,95,48.5S74.14,95,48.5,95S2,74.14,2,48.5S22.86,2,48.5,2 M48.5,0
		C21.714,0,0,21.714,0,48.5S21.714,97,48.5,97S97,75.286,97,48.5S75.286,0,48.5,0L48.5,0z"/>
</g>
<path style="fill-rule:evenodd;clip-rule:evenodd;fill:#FFFFFF;" d="M25.599,32.116c-1.889-1.89-1.889-4.953,0-6.843
	c1.889-1.889,4.953-1.889,6.842,0l16.741,16.74l16.741-16.741c1.888-1.889,4.953-1.889,6.843,0c1.889,1.889,1.889,4.953,0,6.843
	l-16.742,16.74l16.741,16.74c1.89,1.89,1.89,4.954,0,6.843c-1.889,1.889-4.954,1.889-6.843,0l-16.74-16.74l-16.74,16.74
	c-1.889,1.888-4.953,1.888-6.842,0c-1.889-1.891-1.889-4.954,0-6.843l16.74-16.74L25.599,32.116z"/>
</svg>
