<?xml version="1.0" encoding="iso-8859-1"?>

<svg version="1.1" xmlns="http://www.w3.org/2000/svg" xmlns:xlink="http://www.w3.org/1999/xlink" x="0px" y="0px"
	 viewBox="0 0 97 97" style="enable-background:new 0 0 97 97;" xml:space="preserve">
<g id="Capa_1">
	<g id="XMLID_5_">
		<linearGradient id="XMLID_7_" gradientUnits="userSpaceOnUse" x1="-0.147" y1="90.788" x2="97.1469" y2="6.2118">
			<stop  offset="0" style="stop-color:#32A5AE"/>
			<stop  offset="0.0059" style="stop-color:#36A7AF"/>
			<stop  offset="0.0979" style="stop-color:#6BBEC4"/>
			<stop  offset="0.1912" style="stop-color:#98D2D6"/>
			<stop  offset="0.2839" style="stop-color:#BDE2E5"/>
			<stop  offset="0.376" style="stop-color:#DAEFF0"/>
			<stop  offset="0.4673" style="stop-color:#EFF8F8"/>
			<stop  offset="0.5575" style="stop-color:#FBFDFD"/>
			<stop  offset="0.6453" style="stop-color:#FFFFFF"/>
		</linearGradient>
		<path id="XMLID_21_" style="fill:url(#XMLID_7_);" d="M7.21,96C3.786,96,1,93.214,1,89.79V7.21C1,3.786,3.786,1,7.21,1h82.58
			C93.214,1,96,3.786,96,7.21v82.58c0,3.424-2.786,6.21-6.21,6.21H7.21z"/>
		<path id="XMLID_18_" style="fill:#028189;" d="M89.895,2C92.768,2,95,4.337,95,7.21v82.58c0,2.873-2.337,5.21-5.21,5.21H7.21
			C4.337,95,2,92.663,2,89.79V7.21C2,4.337,4.337,2,7.21,2H90 M89.79,0H7.21C3.228,0,0,3.228,0,7.21v82.58
			C0,93.772,3.228,97,7.21,97h82.58c3.982,0,7.21-3.228,7.21-7.21V7.21C97,3.228,93.772,0,89.79,0L89.79,0z"/>
	</g>
	<linearGradient id="XMLID_8_" gradientUnits="userSpaceOnUse" x1="10.7007" y1="10.6466" x2="40.7007" y2="39.3132">
		<stop  offset="0" style="stop-color:#036973"/>
		<stop  offset="1" style="stop-color:#32A5AE"/>
	</linearGradient>
	<path id="XMLID_4_" style="fill:url(#XMLID_8_);" d="M9.749,9.449l0.225-0.225c0.646-0.545,1.462-0.895,2.316-0.888
		c2.526-0.029,5.054-0.011,7.582-0.011c1.014-0.003,2.027-0.002,3.041-0.005c2.403,0,4.807,0.005,7.21-0.002
		c1.241-0.078,2.566,0.096,3.499,1.005c1.262,1.296,1.281,3.437,0.105,4.795c-0.697,0.649-1.594,1.101-2.561,1.093
		c-2.782,0.02-5.564,0-8.346,0.008c-0.735-0.002-1.471,0-2.206-0.008c0.758,0.758,1.515,1.518,2.278,2.272
		c3.606,3.615,7.216,7.226,10.831,10.834c0.987,0.993,1.978,1.981,2.968,2.971c1.657,1.684,3.367,3.318,4.995,5.028
		c1.247,1.342,1.096,3.667-0.315,4.832c-1.252,1.163-3.339,1.122-4.588-0.029c-0.984-0.959-1.94-1.943-2.916-2.91
		c-3.579-3.578-7.154-7.157-10.735-10.732c-0.994-1-1.993-1.996-2.991-2.991c-1.463-1.469-2.933-2.933-4.399-4.399
		c0.015,3.466,0.006,6.932,0.008,10.396c0.058,1.501-0.935,2.966-2.376,3.417c-1.434,0.515-3.087-0.123-3.955-1.342
		c-0.407-0.72-0.601-1.543-0.571-2.368C8.861,24.1,8.836,18.009,8.862,11.916C8.832,11.014,9.171,10.139,9.749,9.449z"/>
	<linearGradient id="XMLID_9_" gradientUnits="userSpaceOnUse" x1="11.5272" y1="86.1396" x2="39.5272" y2="56.8062">
		<stop  offset="0" style="stop-color:#036973"/>
		<stop  offset="1" style="stop-color:#32A5AE"/>
	</linearGradient>
	<path id="XMLID_3_" style="fill:url(#XMLID_9_);" d="M8.849,66.292c-0.009-0.764,0.181-1.521,0.553-2.188
		c0.964-1.43,3.009-1.998,4.526-1.133c1.206,0.627,1.9,1.98,1.821,3.32c0,3.417,0.003,6.834-0.005,10.25
		c1.482-1.479,2.965-2.956,4.442-4.439c0.993-0.99,1.986-1.983,2.975-2.975c3.562-3.556,7.119-7.116,10.676-10.676
		c0.987-0.972,1.949-1.97,2.948-2.933c1.241-1.159,3.327-1.189,4.582-0.038c1.406,1.171,1.575,3.502,0.315,4.841
		c-1.625,1.707-3.33,3.336-4.982,5.016c-0.964,0.964-1.928,1.928-2.892,2.892c-3.639,3.639-7.28,7.277-10.917,10.92
		c-0.76,0.757-1.517,1.514-2.275,2.272c0.793-0.005,1.587,0,2.382-0.003c2.622-0.003,5.244-0.003,7.867-0.003
		c1.022-0.05,2.021,0.333,2.774,1.017c1.243,1.303,1.259,3.428,0.088,4.781c-0.694,0.646-1.588,1.098-2.551,1.095
		c-2.781,0.018-5.563-0.002-8.342,0.006c-0.869-0.002-1.742,0-2.612-0.002c-2.592-0.003-5.183,0.012-7.775-0.006
		c-0.915,0.02-1.809-0.32-2.499-0.918l-0.192-0.192c-0.57-0.694-0.918-1.567-0.894-2.474C8.846,78.578,8.856,72.434,8.849,66.292z"
		/>
	<linearGradient id="XMLID_10_" gradientUnits="userSpaceOnUse" x1="86.9088" y1="10.2421" x2="58.2421" y2="38.9088">
		<stop  offset="0" style="stop-color:#036973"/>
		<stop  offset="1" style="stop-color:#32A5AE"/>
	</linearGradient>
	<path id="XMLID_2_" style="fill:url(#XMLID_10_);" d="M64.079,14.223c-1.34-1.367-1.282-3.706,0.114-5.014
		c0.973-0.851,2.301-0.952,3.531-0.891c2.395,0.011,4.789,0.002,7.186,0.005c1.119-0.002,2.24,0.002,3.361,0.005
		c2.325-0.005,4.652-0.014,6.977,0.003c0.911-0.018,1.8,0.32,2.488,0.914l0.187,0.187c0.585,0.697,0.924,1.582,0.911,2.494
		c0.021,6.14-0.003,12.28,0.008,18.421c0.011,0.763-0.178,1.524-0.557,2.187c-0.914,1.346-2.785,1.954-4.277,1.247
		c-1.284-0.538-2.106-1.908-2.06-3.288c-0.009-3.466-0.006-6.932,0-10.397c-1.41,1.407-2.825,2.813-4.229,4.226
		c-0.961,0.955-1.919,1.916-2.875,2.875c-3.615,3.609-7.226,7.222-10.834,10.834c-0.972,0.962-1.932,1.935-2.899,2.902
		c-0.635,0.62-1.474,1.057-2.374,1.074c-1.386,0.082-2.762-0.786-3.297-2.063c-0.57-1.255-0.265-2.826,0.716-3.792
		c1.678-1.721,3.4-3.4,5.092-5.11c0.975-0.972,1.948-1.945,2.918-2.918c4.305-4.299,8.605-8.602,12.899-12.908
		c-3.464,0.017-6.93,0.005-10.396,0.002C65.709,15.249,64.789,14.853,64.079,14.223z"/>
	<linearGradient id="XMLID_11_" gradientUnits="userSpaceOnUse" x1="87.3971" y1="87.9137" x2="58.0638" y2="55.9137">
		<stop  offset="0" style="stop-color:#036973"/>
		<stop  offset="1" style="stop-color:#32A5AE"/>
	</linearGradient>
	<path id="XMLID_1_" style="fill:url(#XMLID_11_);" d="M55.319,59.122c-0.503-1.471,0.154-3.218,1.498-4.002
		c1.351-0.857,3.227-0.553,4.314,0.598c0.955,0.967,1.914,1.932,2.88,2.889c3.595,3.601,7.195,7.195,10.79,10.793
		c0.994,0.994,1.989,1.989,2.983,2.983c1.389,1.389,2.778,2.778,4.168,4.165c-0.024-3.268,0.003-6.533-0.017-9.799
		c-0.09-1.348,0.32-2.826,1.52-3.591c1.599-1.145,3.996-0.554,4.96,1.144c0.306,0.668,0.445,1.401,0.428,2.133
		c-0.011,6.093,0.011,12.184-0.014,18.275c0.03,0.905-0.305,1.785-0.883,2.473l-0.227,0.227c-0.649,0.56-1.477,0.898-2.337,0.891
		c-2.51,0.027-5.021,0.005-7.53,0.011c-0.955,0.005-1.91-0.003-2.863,0.003c-2.418,0-4.835-0.005-7.253,0.002
		c-1.287,0.069-2.685-0.038-3.656-1c-1.339-1.363-1.281-3.696,0.102-5.005c0.894-0.772,2.097-0.964,3.24-0.901
		c3.215,0.026,6.429-0.015,9.644,0.014c-4.285-4.3-8.579-8.591-12.873-12.886c-0.975-0.975-1.951-1.951-2.928-2.925
		c-1.599-1.602-3.199-3.205-4.804-4.801C55.977,60.328,55.52,59.786,55.319,59.122z"/>
</g>
<g id="Capa_2">
</g>
</svg>
