<?xml version="1.0" encoding="iso-8859-1"?>

<svg version="1.1" xmlns="http://www.w3.org/2000/svg" xmlns:xlink="http://www.w3.org/1999/xlink" x="0px" y="0px"
	 viewBox="0 0 97 97" style="enable-background:new 0 0 97 97;" xml:space="preserve">
<g id="Capa_1">
</g>
<g id="Capa_2">
	<g>
		<linearGradient id="SVGID_1_" gradientUnits="userSpaceOnUse" x1="97.9803" y1="69.6569" x2="7.187" y2="70.4764">
			<stop  offset="0" style="stop-color:#FFFFFF"/>
			<stop  offset="0.0636" style="stop-color:#D4EAEC"/>
			<stop  offset="0.1515" style="stop-color:#A1D5D9"/>
			<stop  offset="0.2428" style="stop-color:#78C6C9"/>
			<stop  offset="0.3369" style="stop-color:#4DBBBE"/>
			<stop  offset="0.4351" style="stop-color:#27B4B7"/>
			<stop  offset="0.5398" style="stop-color:#00B0B5"/>
			<stop  offset="0.7809" style="stop-color:#00AFB3"/>
		</linearGradient>
		<path style="fill:url(#SVGID_1_);" d="M48.751,95c-10.41,0-20.319-3.038-28.656-9.185c-0.177-0.131-0.386-0.089-0.593-0.089
			c-0.251,0-0.5,0.147-0.692,0.332l-9.206,8.846L5.218,64.217l31.415,4.388l-7.995,7.798c-0.217,0.212-0.327,0.512-0.297,0.814
			c0.029,0.302,0.194,0.575,0.448,0.741c5.851,3.823,12.67,5.843,19.72,5.843c9.544-0.001,18.52-3.67,25.271-10.333
			c7.643-7.532,11.304-17.883,10.162-28.587l12.04,2.377c0.367,13.123-4.509,25.133-13.78,34.283C73.271,90.358,61.392,95,48.755,95
			C48.754,95,48.753,95,48.751,95z"/>
		<path style="fill:#007C84;" d="M85.056,46.122l9.942,1.963c0.144,12.54-4.616,24.193-13.499,32.959
			c-8.744,8.629-20.374,13.382-32.748,13.382c-10.193,0-19.897-3.182-28.062-9.203c-0.355-0.262-0.771-0.39-1.186-0.39
			c-0.501,0-1,0.188-1.384,0.556l-7.799,7.473L6.396,65.404l28.078,3.916l-6.534,6.371c-0.434,0.424-0.653,1.022-0.594,1.626
			c0.059,0.604,0.389,1.149,0.897,1.481c6.014,3.929,13.022,6.005,20.266,6.005c9.809,0,19.033-3.772,25.973-10.62
			C82.024,66.75,85.797,56.65,85.056,46.122 M82.778,43.633c1.5,10.321-1.649,21.191-9.7,29.125
			c-6.787,6.698-15.679,10.045-24.569,10.045c-6.69,0-13.377-1.894-19.173-5.68l9.455-9.22L4.04,63.056L8.89,97l10.612-10.167
			c8.656,6.382,18.961,9.593,29.249,9.593c12.362,0,24.702-4.631,34.153-13.958c10.039-9.907,14.617-23.058,14.049-36.036
			L82.778,43.633L82.778,43.633z"/>
	</g>
	<g>
		<linearGradient id="SVGID_2_" gradientUnits="userSpaceOnUse" x1="0.9987" y1="26.8623" x2="91.7656" y2="26.8623">
			<stop  offset="0" style="stop-color:#FFFFFF"/>
			<stop  offset="0.0636" style="stop-color:#D4EAEC"/>
			<stop  offset="0.1515" style="stop-color:#A1D5D9"/>
			<stop  offset="0.2428" style="stop-color:#78C6C9"/>
			<stop  offset="0.3369" style="stop-color:#4DBBBE"/>
			<stop  offset="0.4351" style="stop-color:#27B4B7"/>
			<stop  offset="0.5398" style="stop-color:#00B0B5"/>
			<stop  offset="0.7809" style="stop-color:#00AFB3"/>
		</linearGradient>
		<path style="fill:url(#SVGID_2_);" d="M1.018,49.756C0.654,36.631,5.53,24.409,14.797,15.268
			C23.736,6.451,35.619,1.595,48.256,1.595c10.405,0,20.312,3.25,28.647,9.401c0.178,0.131,0.386,0.195,0.594,0.195
			c0.251,0,0.501-0.094,0.693-0.279l9.193-8.838l4.382,30.711l-31.412-4.384l8.007-7.792c0.218-0.212,0.327-0.511,0.298-0.813
			s-0.193-0.575-0.448-0.741c-5.849-3.825-12.665-5.846-19.714-5.846c-9.542,0-18.517,3.671-25.269,10.337
			c-7.645,7.538-11.309,17.888-10.17,28.583L1.018,49.756z"/>
		<path style="fill:#007C84;" d="M48.256,2.595c10.191,0,19.892,3.183,28.055,9.206c0.355,0.262,0.772,0.391,1.187,0.391
			c0.502,0,1.002-0.189,1.387-0.558l7.785-7.485l3.919,27.464l-28.073-3.919l6.543-6.367c0.435-0.423,0.654-1.021,0.596-1.626
			s-0.388-1.149-0.896-1.482c-6.012-3.931-13.018-6.009-20.262-6.009c-9.808,0.001-19.031,3.774-25.97,10.624
			c-7.544,7.438-11.32,17.537-10.582,28.057l-9.942-1.96C1.861,36.389,6.62,24.739,15.5,15.98
			C24.25,7.348,35.883,2.595,48.256,2.595 M88.097,0l-10.6,10.191c-8.657-6.387-18.956-9.596-29.242-9.596
			c-12.362,0-24.706,4.635-34.16,13.962C4.056,24.459-0.518,37.61,0.046,50.584l14.175,2.794c-1.5-10.325,1.657-21.183,9.708-29.121
			c6.786-6.699,15.676-10.048,24.566-10.048c6.688,0,13.373,1.894,19.168,5.683l-9.471,9.216l34.752,4.851L88.097,0L88.097,0z"/>
	</g>
</g>
</svg>
