<?xml version="1.0" encoding="iso-8859-1"?>

<svg version="1.1" id="Capa_1" xmlns="http://www.w3.org/2000/svg" xmlns:xlink="http://www.w3.org/1999/xlink" x="0px" y="0px"
	 viewBox="0 0 97 97" style="enable-background:new 0 0 97 97;" xml:space="preserve">
<g>
	<linearGradient id="SVGID_1_" gradientUnits="userSpaceOnUse" x1="26.6409" y1="33.817" x2="72.2019" y2="-5.7886">
		<stop  offset="0" style="stop-color:#038890"/>
		<stop  offset="0.1103" style="stop-color:#23979E"/>
		<stop  offset="0.3096" style="stop-color:#57B0B5"/>
		<stop  offset="0.407" style="stop-color:#6CBABE"/>
		<stop  offset="0.4133" style="stop-color:#71BCC0"/>
		<stop  offset="0.4691" style="stop-color:#96CED1"/>
		<stop  offset="0.5295" style="stop-color:#B7DDDF"/>
		<stop  offset="0.5941" style="stop-color:#D1EAEB"/>
		<stop  offset="0.6649" style="stop-color:#E6F3F4"/>
		<stop  offset="0.7447" style="stop-color:#F4FAFA"/>
		<stop  offset="0.8411" style="stop-color:#FCFEFE"/>
		<stop  offset="1" style="stop-color:#FFFFFF"/>
	</linearGradient>
	<polygon style="fill:url(#SVGID_1_);" points="34.624,43 9.406,10 85.927,10 60.71,43 	"/>
	<path style="fill:#028189;" d="M83.904,11L60.216,42H35.118L11.429,11H83.904 M87.95,9H7.384l26.745,35h27.075L87.95,9L87.95,9z"/>
</g>
<g>
	<linearGradient id="SVGID_2_" gradientUnits="userSpaceOnUse" x1="23.8413" y1="82.0531" x2="64.3429" y2="46.8456">
		<stop  offset="0" style="stop-color:#038890"/>
		<stop  offset="0.0192" style="stop-color:#128F96"/>
		<stop  offset="0.0906" style="stop-color:#43A6AC"/>
		<stop  offset="0.1674" style="stop-color:#70BBC0"/>
		<stop  offset="0.2481" style="stop-color:#96CED1"/>
		<stop  offset="0.3336" style="stop-color:#B7DDDF"/>
		<stop  offset="0.4252" style="stop-color:#D1E9EB"/>
		<stop  offset="0.5254" style="stop-color:#E6F3F4"/>
		<stop  offset="0.6385" style="stop-color:#F4FAFA"/>
		<stop  offset="0.775" style="stop-color:#FCFEFE"/>
		<stop  offset="1" style="stop-color:#FFFFFF"/>
	</linearGradient>
	<polygon style="fill:url(#SVGID_2_);" points="35,43 61,43 61,79.104 35,94.89 	"/>
	<path style="fill:#028189;" d="M60,44v34.541L36,93.113V44H60 M62,42H34v54.667l28-17V42L62,42z"/>
</g>
<g>
	<linearGradient id="SVGID_3_" gradientUnits="userSpaceOnUse" x1="20.2948" y1="30.5183" x2="76.705" y2="-18.5183">
		<stop  offset="0" style="stop-color:#038890"/>
		<stop  offset="0.0192" style="stop-color:#128F96"/>
		<stop  offset="0.0906" style="stop-color:#43A6AC"/>
		<stop  offset="0.1674" style="stop-color:#70BBC0"/>
		<stop  offset="0.2481" style="stop-color:#96CED1"/>
		<stop  offset="0.3336" style="stop-color:#B7DDDF"/>
		<stop  offset="0.4252" style="stop-color:#D1E9EB"/>
		<stop  offset="0.5254" style="stop-color:#E6F3F4"/>
		<stop  offset="0.6385" style="stop-color:#F4FAFA"/>
		<stop  offset="0.775" style="stop-color:#FCFEFE"/>
		<stop  offset="1" style="stop-color:#FFFFFF"/>
	</linearGradient>
	<path style="fill:url(#SVGID_3_);" d="M5.272,11C2.917,11,1,9.083,1,6.728V5.272C1,2.917,2.917,1,5.272,1h86.455
		C94.083,1,96,2.917,96,5.272v1.455C96,9.083,94.083,11,91.728,11H5.272z"/>
	<path style="fill:#028189;" d="M91.728,2C93.532,2,95,3.468,95,5.272v1.455C95,8.532,93.532,10,91.728,10H5.272
		C3.468,10,2,8.532,2,6.728V5.272C2,3.468,3.468,2,5.272,2H91.728 M91.728,0H5.272C2.373,0,0,2.373,0,5.272v1.455
		C0,9.627,2.373,12,5.272,12h86.455C94.627,12,97,9.627,97,6.728V5.272C97,2.373,94.627,0,91.728,0L91.728,0z"/>
</g>
</svg>
