<?xml version="1.0" encoding="iso-8859-1"?>
<svg version="1.1" xmlns="http://www.w3.org/2000/svg" xmlns:xlink="http://www.w3.org/1999/xlink" x="0px" y="0px"
	 viewBox="0 0 97 97" style="enable-background:new 0 0 97 97;" xml:space="preserve">
  <g id="Capa_1">
    <g id="rect29408" connector-curvature="0">
      <linearGradient id="XMLID_2_" gradientUnits="userSpaceOnUse" x1="-45.2718" y1="101.0908" x2="75.257" y2="1.8352">
        <stop  offset="0.1564" style="stop-color:#D88622"/>
        <stop  offset="0.8411" style="stop-color:#FFFFFF"/>
      </linearGradient>
      <path id="XMLID_28_" style="fill:url(#XMLID_2_);" d="M12.259,70.415c3.035-4.78,2.612-8.269,2.217-9.725L13.506,60H5.67
			C3.267,60,1,57,1,54.755V14.02C1,11.835,3.185,10,5.67,10h59.453C67.367,10,69,11.643,69,14.02v40.735
			C69,57.182,67.339,60,65.123,60H26.879l-0.656,0.192c-0.424,0.366-0.904,0.814-1.46,1.363
			C22.465,63.822,18.831,67.381,12.259,70.415z"/>
      <path id="XMLID_25_" style="fill:#007C84;" d="M65.123,11C66.811,11,68,12.196,68,14.02v40.735C68,56.629,66.711,59,65.123,59
			H26.879l-1.313,0.434c-0.449,0.388-0.94,0.845-1.508,1.406c-1.9,1.875-4.733,4.656-9.442,7.268
			c1.553-3.689,1.178-6.391,0.831-7.672L13.506,59H5.67C4.028,59,2,56.611,2,54.755V14.02C2,12.399,3.754,11,5.67,11H65 M65.123,9
			H5.67C2.772,9,0,11.18,0,14.02v40.735C0,57.595,2.772,61,5.67,61h7.836c0.542,2,0.553,6.312-4.259,11.853
			C20.055,68.825,24.562,63,26.879,61h38.244C68.021,61,70,57.595,70,54.755V14.02C70,11.18,68.021,9,65.123,9L65.123,9z"/>
    </g>
    <g id="path29441" connector-curvature="0">
      <linearGradient id="XMLID_3_" gradientUnits="userSpaceOnUse" x1="66.3545" y1="58.149" x2="-44.2644" y2="154.8681">
        <stop  offset="0" style="stop-color:#FFFFFF"/>
        <stop  offset="0.0636" style="stop-color:#D4EAEC"/>
        <stop  offset="0.1515" style="stop-color:#A1D5D9"/>
        <stop  offset="0.2428" style="stop-color:#78C6C9"/>
        <stop  offset="0.3369" style="stop-color:#4DBBBE"/>
        <stop  offset="0.4351" style="stop-color:#27B4B7"/>
        <stop  offset="0.5398" style="stop-color:#00B0B5"/>
        <stop  offset="0.7809" style="stop-color:#00AFB3"/>
      </linearGradient>
      <path id="XMLID_24_" style="fill:url(#XMLID_3_);" d="M85.562,94.494c-7.689-3.552-11.25-7.396-13.31-10.146L71.447,84H34.354
			C32.159,84,30,81.563,30,79.19V38.116C30,35.067,33.628,35,34.354,35h57.664C93.503,35,96,35.329,96,38.116V79.19
			c0,2.219-1.706,4.81-3.982,4.81h-7.601l-0.989,0.776C82.991,87.263,82.814,90.173,85.562,94.494z"/>
      <path id="XMLID_21_" style="fill:#007C84;" d="M92.017,36C94.99,36,95,37.572,95,38.116V79.19c0,1.9-1.454,3.81-2.983,3.81h-7.6
			l-1.979,1.605c-0.431,2.456-0.41,4.818,0.752,7.603c-5.588-3.046-8.408-6.142-10.134-8.447L71.447,83H34.354
			C32.729,83,31,80.986,31,79.19V38.116C31,36.076,33.57,36,34.354,36H92 M92.017,34H34.354C31.543,34,29,35.252,29,38.116V79.19
			c0,2.864,2.543,5.81,5.354,5.81h37.093c2.247,3,6.619,7.89,17.101,11.952C83.881,91.364,83.891,88,84.417,85h7.6
			C94.828,85,97,82.054,97,79.19V38.116C97,35.252,94.828,34,92.017,34L92.017,34z"/>
    </g>
  </g>
  <g id="Capa_2"></g>
</svg>
