<?xml version="1.0" encoding="iso-8859-1"?>
<svg version="1.1" id="Capa_1" xmlns="http://www.w3.org/2000/svg" xmlns:xlink="http://www.w3.org/1999/xlink" x="0px" y="0px"
	 viewBox="0 0 97 97" style="enable-background:new 0 0 97 97;" xml:space="preserve">
<linearGradient id="SVGID_1_" gradientUnits="userSpaceOnUse" x1="9.0055" y1="37.0139" x2="46.3792" y2="4.5255">
	<stop  offset="0" style="stop-color:#32A5AE"/>
	<stop  offset="1" style="stop-color:#FFFFFF"/>
</linearGradient>
<path style="fill:url(#SVGID_1_);" d="M6.922,6.922c13.848,0.002,27.693,0.002,41.54,0c-0.002,9.231-0.002,18.464,0,27.695
	c-13.848-0.002-27.693-0.002-41.54,0C6.924,25.386,6.924,16.153,6.922,6.922z"/>
<linearGradient id="SVGID_2_" gradientUnits="userSpaceOnUse" x1="50.5416" y1="85.4727" x2="87.9152" y2="52.9843">
	<stop  offset="0" style="stop-color:#32A5AE"/>
	<stop  offset="1" style="stop-color:#FFFFFF"/>
</linearGradient>
<path style="fill:url(#SVGID_2_);" d="M48.458,55.381c13.848,0.002,27.693,0.002,41.54,0c-0.002,9.231-0.004,18.462,0,27.695
	c-13.848-0.002-27.693-0.002-41.54,0C48.463,73.843,48.46,64.612,48.458,55.381z"/>
<g>
	<g>
		<linearGradient id="SVGID_3_" gradientUnits="userSpaceOnUse" x1="3.7968" y1="41.5458" x2="51.5914" y2="-0.0014">
			<stop  offset="0" style="stop-color:#0E686F"/>
			<stop  offset="0.3978" style="stop-color:#36A0A5"/>
		</linearGradient>
		<path style="fill:url(#SVGID_3_);" d="M0.008,6.695c0.032-3.528,3.158-6.652,6.687-6.687c13.999-0.011,27.998-0.011,41.995,0
			c3.528,0.035,6.652,3.158,6.687,6.685c0.017,9.09-0.002,18.181,0.011,27.271c0.032,1.136-0.087,2.293-0.552,3.34
			c-1.006,2.436-3.502,4.175-6.146,4.227c-4.703,0.024-9.408-0.015-14.114,0.019c0.087,1.261,0.764,2.503,1.925,3.068
			c1.086,0.593,2.352,0.294,3.524,0.405c0.761,0.067,1.419,0.727,1.491,1.488c0.054,0.649,0.013,1.3,0.022,1.951
			c-9.231-0.002-18.46-0.004-27.691,0c0.058-1.06-0.305-2.447,0.74-3.15c1.153-0.684,2.587-0.024,3.814-0.493
			c1.408-0.435,2.332-1.83,2.406-3.271c-4.779-0.037-9.558,0.019-14.334-0.028c-3.444-0.149-6.427-3.228-6.464-6.676
			C-0.003,25.462-0.003,16.077,0.008,6.695z M6.922,6.922c0.002,9.231,0.002,18.464,0,27.695c13.848-0.002,27.693-0.002,41.54,0
			c-0.002-9.231-0.002-18.464,0-27.695C34.615,6.924,20.77,6.924,6.922,6.922z"/>
		<path style="fill:#196D76;" d="M27.693,1.779c6.999,0,13.997,0.003,20.979,0.008c2.553,0.025,4.9,2.371,4.925,4.909
			c0.009,4.828,0.008,9.657,0.007,14.485c-0.001,4.262-0.002,8.524,0.005,12.834c0.03,1.055-0.1,1.895-0.418,2.61
			c-0.745,1.803-2.61,3.089-4.51,3.127c-1.254,0.006-2.509,0.008-3.763,0.008l-2.722-0.002l-2.726-0.002
			c-1.635,0-3.271,0.003-4.907,0.015c-0.491,0.004-0.958,0.21-1.292,0.57c-0.334,0.36-0.504,0.842-0.47,1.331
			c0.136,1.98,1.24,3.71,2.885,4.528c0.477,0.255,0.961,0.56,1.429,0.642L25.551,47c-2.403,0-4.807,0-7.21,0
			c0.207,0,0.421-0.258,0.64-0.338c2.043-0.657,3.488-2.683,3.603-4.943c0.025-0.485-0.15-0.998-0.482-1.351
			c-0.333-0.353-0.796-0.575-1.281-0.578c-1.35-0.01-2.701,0.095-4.051,0.095L14.029,40h-2.734c-1.591,0-3.182-0.124-4.773-0.139
			c-2.499-0.124-4.708-2.474-4.735-4.959c-0.011-9.381-0.011-18.794,0-28.161c0.023-2.552,2.371-4.914,4.909-4.939
			C13.695,1.797,20.694,1.779,27.693,1.779 M27.692,5.144L6.922,5.143c-0.472,0-0.925,0.187-1.259,0.521
			C5.33,5.998,5.143,6.451,5.143,6.923c0.002,9.231,0.002,18.464,0,27.694c0,0.472,0.187,0.925,0.521,1.259
			c0.334,0.334,0.786,0.521,1.258,0.521c0,0,0,0,0,0l20.77-0.002l20.77,0.002c0.472,0,0.925-0.187,1.259-0.521
			c0.334-0.334,0.521-0.787,0.521-1.259c-0.002-9.231-0.002-18.464,0-27.694c0-0.472-0.187-0.925-0.521-1.259
			c-0.334-0.334-0.786-0.521-1.258-0.521c0,0,0,0,0,0L27.692,5.144 M27.693,0C20.694,0,13.694,0.003,6.695,0.008
			C3.167,0.043,0.041,3.167,0.008,6.695c-0.011,9.382-0.011,18.767,0,28.149c0.037,3.448,3.02,6.527,6.464,6.676
			c1.608,0.016,3.215,0.02,4.823,0.02c1.825,0,3.649-0.005,5.474-0.005c1.345,0,2.691,0.003,4.037,0.013
			c-0.074,1.441-0.997,2.836-2.406,3.271c-0.392,0.15-0.806,0.185-1.225,0.185c-0.358,0-0.72-0.025-1.076-0.025
			c-0.529,0-1.044,0.056-1.513,0.334c-1.045,0.703-0.681,2.09-0.74,3.15c3.902-0.002,7.802-0.003,11.704-0.003
			c5.329,0,10.658,0.001,15.987,0.003c-0.009-0.651,0.032-1.302-0.022-1.951c-0.071-0.762-0.729-1.421-1.491-1.488
			c-0.23-0.022-0.463-0.028-0.698-0.028c-0.284,0-0.57,0.009-0.855,0.009c-0.682,0-1.355-0.05-1.971-0.386
			c-1.162-0.565-1.839-1.806-1.925-3.068c1.631-0.012,3.262-0.015,4.893-0.015c1.816,0,3.632,0.004,5.448,0.004
			c1.257,0,2.515-0.002,3.772-0.008c2.644-0.052,5.14-1.791,6.146-4.227c0.465-1.047,0.584-2.204,0.552-3.34
			c-0.013-9.09,0.007-18.181-0.011-27.271c-0.035-3.526-3.158-6.65-6.687-6.685C41.691,0.003,34.692,0,27.693,0L27.693,0z
			 M48.463,6.922c-0.002,9.231-0.002,18.464,0,27.695c-6.924-0.001-13.847-0.002-20.77-0.002s-13.846,0.001-20.77,0.002
			c0.002-9.231,0.002-18.464,0-27.695c6.924,0.001,13.847,0.002,20.77,0.002S41.539,6.923,48.463,6.922L48.463,6.922z"/>
	</g>
</g>
<g>
	<g>
		<linearGradient id="SVGID_4_" gradientUnits="userSpaceOnUse" x1="45.9995" y1="89.4088" x2="92.4556" y2="49.0252">
			<stop  offset="0" style="stop-color:#0E686F"/>
			<stop  offset="0.3978" style="stop-color:#36A0A5"/>
		</linearGradient>
		<path style="fill:url(#SVGID_4_);" d="M56.27,96c-0.028-1-0.03-1.144,0.247-1.416c0.194-0.193,0.47-0.26,0.982-0.26
			c0.167,0,0.335,0.011,0.503,0.018c0.191,0.009,0.382,0.018,0.569,0.018c0.204,0,0.405-0.008,0.601-0.032
			c2.13-0.065,3.988-1.994,4.061-4.292c0.007-0.239-0.082-0.471-0.248-0.644c-0.166-0.172-0.396-0.27-0.635-0.272
			c-1.37-0.011-2.741-0.014-4.111-0.014l-5.41,0.005c-1.604,0-3.208-0.004-4.811-0.02c-2.931-0.128-5.554-2.837-5.583-5.796
			c-0.011-9.373-0.011-18.758,0-28.142c0.028-3.056,2.741-5.768,5.806-5.796c6.99-0.005,13.989-0.008,20.988-0.008
			s13.998,0.003,20.997,0.008c3.055,0.03,5.769,2.743,5.799,5.806c0.011,9.374,0.011,18.759,0,28.143
			c-0.033,2.948-2.655,5.656-5.611,5.786c-1.547,0.016-3.125,0.02-4.702,0.02l-5.452-0.006c-1.385,0-2.769,0.004-4.153,0.016
			c-0.245,0.002-0.479,0.105-0.645,0.285c-0.167,0.18-0.252,0.421-0.235,0.665c0.114,1.678,1.043,3.136,2.424,3.807
			c0.758,0.415,1.584,0.476,2.357,0.476l0.857-0.009c0.207,0,0.412,0.005,0.615,0.023c0.337,0.03,0.656,0.334,0.688,0.67
			C82.191,95.356,82.191,96,82.188,96H56.27z M89.999,84c0.236,0,0.462-0.111,0.629-0.278s0.261-0.402,0.261-0.637
			c-0.005-9.233-0.003-18.468,0-27.7c0-0.235-0.094-0.71-0.261-0.877S90.235,54,89.999,54H48.458c-0.236,0-0.462,0.339-0.629,0.506
			c-0.167,0.167-0.26,0.516-0.26,0.752c0.002,9.231,0.004,18.523,0,27.757c0,0.235,0.094,0.51,0.26,0.677
			C47.996,83.858,48.222,84,48.458,84h20.771H89.999z"/>
		<path style="fill:#196D76;" d="M69.228,50.238c6.999,0,13.998,0.003,20.981,0.008c2.553,0.025,4.9,2.373,4.925,4.91
			c0.011,9.381,0.011,18.764,0,28.129c-0.028,2.5-2.237,4.789-4.734,4.915c-1.561,0.016-3.124,0.02-4.685,0.02l-2.723-0.003
			l-2.728-0.003c-1.389,0-2.778,0.003-4.166,0.015c-0.49,0.004-0.957,0.211-1.291,0.571c-0.333,0.36-0.503,0.841-0.469,1.331
			c0.136,1.979,1.24,3.71,2.885,4.528c0.475,0.254,0.956,0.399,1.423,0.481c-3.139-0.001-6.278-0.002-9.417-0.002
			c-3.121,0-6.242,0-9.364,0.001c2.333-0.446,4.179-2.58,4.256-5.078c0.015-0.479-0.164-0.943-0.496-1.289
			c-0.332-0.345-0.789-0.542-1.269-0.546c-1.35-0.01-2.701-0.013-4.051-0.013l-2.74,0.003l-2.734,0.003
			c-1.591,0-3.182-0.004-4.773-0.02c-2.5-0.124-4.71-2.414-4.735-4.899c-0.011-9.381-0.011-18.764,0-28.133
			c0.023-2.552,2.37-4.898,4.909-4.922C55.23,50.241,62.229,50.238,69.228,50.238 M69.228,53.603l-20.77-0.002
			c-0.472,0-0.925,0.187-1.259,0.521c-0.334,0.334-0.521,0.787-0.521,1.259c0.002,9.231,0.004,18.461,0,27.694
			c0,0.472,0.187,0.925,0.521,1.259c0.334,0.334,0.786,0.521,1.258,0.521c0,0,0,0,0,0l20.77-0.002l20.77,0.002
			c0.472,0,0.925-0.187,1.259-0.521c0.334-0.334,0.521-0.787,0.521-1.259c-0.004-9.233-0.002-18.463,0-27.694
			c0-0.472-0.187-0.925-0.521-1.259c-0.334-0.334-0.786-0.521-1.258-0.521c0,0,0,0,0,0L69.228,53.603 M69.228,48.459
			c-6.999,0-13.998,0.003-20.997,0.008c-3.528,0.032-6.654,3.158-6.687,6.685c-0.011,9.385-0.011,18.769,0,28.152
			c0.035,3.448,3.02,6.527,6.464,6.676c1.608,0.016,3.215,0.02,4.823,0.02c1.825,0,3.649-0.005,5.474-0.005
			c1.345,0,2.692,0.003,4.037,0.013c-0.054,1.757-1.488,3.379-3.282,3.438c-0.159,0.02-0.323,0.027-0.49,0.027
			c-0.351,0-0.715-0.03-1.07-0.03c-0.593,0-1.162,0.083-1.609,0.524c-0.787,0.777-0.433,1.973-0.508,2.955
			c4.615-0.002,9.23-0.003,13.845-0.003c4.615,0,9.23,0.001,13.845,0.003c-0.011-0.651,0.03-1.305-0.022-1.951
			c-0.071-0.762-0.729-1.421-1.491-1.488c-0.23-0.022-0.464-0.028-0.699-0.028c-0.284,0-0.57,0.009-0.855,0.009
			c-0.681,0-1.354-0.05-1.97-0.386c-1.162-0.565-1.839-1.809-1.925-3.068c1.384-0.012,2.767-0.015,4.151-0.015
			c1.817,0,3.634,0.006,5.451,0.006c1.579,0,3.158-0.004,4.736-0.021c3.442-0.151,6.423-3.23,6.462-6.674
			c0.011-9.385,0.011-18.769,0-28.152c-0.035-3.528-3.161-6.652-6.687-6.687C83.226,48.462,76.227,48.459,69.228,48.459
			L69.228,48.459z M89.999,55.381c-0.002,9.231-0.004,18.462,0,27.695c-6.924-0.001-13.847-0.002-20.77-0.002
			s-13.846,0.001-20.77,0.002c0.004-9.233,0.002-18.464,0-27.695c6.924,0.001,13.847,0.002,20.77,0.002S83.075,55.382,89.999,55.381
			L89.999,55.381z"/>
	</g>
</g>
<g>
	<path style="fill:#E1945C;" d="M13.858,51.928c2.3-0.011,4.601-0.013,6.903,0.002c0.004,8.723,0.011,17.445,0.006,26.168
		c0.019,0.98-0.117,2.023,0.314,2.942c0.539,1.205,1.809,2.04,3.133,2.027c4.614,0.019,9.227-0.004,13.841,0.011
		c0.028,2.529,0.995,4.984,2.624,6.91c-5.484,0.022-10.968,0.002-16.452,0.009c-2.719,0.009-5.421-1.112-7.334-3.046
		c-1.936-1.91-3.055-4.614-3.046-7.334C13.849,70.388,13.849,61.157,13.858,51.928z"/>
</g>
<linearGradient id="SVGID_5_" gradientUnits="userSpaceOnUse" x1="17.1614" y1="68.9991" x2="39" y2="68.9991">
	<stop  offset="0" style="stop-color:#F3B573"/>
	<stop  offset="1" style="stop-color:#FFFFFF"/>
</linearGradient>
<path style="fill:none;stroke:url(#SVGID_5_);stroke-miterlimit:10;" d="M17.758,52l-0.097,28.475
	c0.335,2.707,1.592,5.025,4.155,5.025H39"/>
</svg>
