<?xml version="1.0" encoding="iso-8859-1"?>

<svg version="1.1" id="Capa_1" xmlns="http://www.w3.org/2000/svg" xmlns:xlink="http://www.w3.org/1999/xlink" x="0px" y="0px"
	 viewBox="0 0 97 97" style="enable-background:new 0 0 97 97;" xml:space="preserve">
<g>
	<linearGradient id="SVGID_1_" gradientUnits="userSpaceOnUse" x1="-108.9418" y1="222.962" x2="65.5182" y2="29.2045">
		<stop  offset="0" style="stop-color:#32A5AE"/>
		<stop  offset="1" style="stop-color:#FFFFFF"/>
	</linearGradient>
	<path style="fill-rule:evenodd;clip-rule:evenodd;fill:url(#SVGID_1_);" d="M11.136,96C9.029,96,7,94.377,7,92.14V4.86
		C7,2.624,9.029,1,11.136,1h74.373C87.71,1,89,2.732,89,4.86V92.14c0,2.129-1.29,3.86-3.491,3.86H11.136z"/>
	<path style="fill:#028189;" d="M85.505,2C87.182,2,88,3.256,88,4.86v23.301v40.677V92.14c0,1.604-0.814,2.86-2.491,2.86H62.791
		H11.136C9.584,95,8,93.824,8,92.14v-0.129V4.989V4.86C8,3.176,9.584,2,11.136,2h51.655H86 M85.509,0H62.791H11.136
		C8.431,0,6,2.101,6,4.86v0.129v87.022v0.129C6,94.899,8.431,97,11.136,97h51.655h22.719C88.214,97,90,94.899,90,92.14V68.839
		V28.161V4.86C90,2.101,87.964,0,85.259,0H85.509z"/>
</g>
<path style="fill:#028189;" d="M32,64h33v-7H32V64z M19,77h59v-7H19V77z M19,51h59v-7H19V51z M32,37h33v-6H32V37z M19,24h59v-6H19
	V24z"/>
</svg>
