<?xml version="1.0" encoding="iso-8859-1"?>

<svg version="1.1" xmlns="http://www.w3.org/2000/svg" xmlns:xlink="http://www.w3.org/1999/xlink" x="0px" y="0px"
	 viewBox="0 0 97 97" style="enable-background:new 0 0 97 97;" xml:space="preserve">
<g id="Capa_1">
</g>
<g id="Capa_2">
	<linearGradient id="SVGID_1_" gradientUnits="userSpaceOnUse" x1="51.3828" y1="48.4166" x2="-106.7384" y2="186.6692">
		<stop  offset="0" style="stop-color:#FFFFFF"/>
		<stop  offset="0.0636" style="stop-color:#D4EAEC"/>
		<stop  offset="0.1515" style="stop-color:#A1D5D9"/>
		<stop  offset="0.2428" style="stop-color:#78C6C9"/>
		<stop  offset="0.3369" style="stop-color:#4DBBBE"/>
		<stop  offset="0.4351" style="stop-color:#27B4B7"/>
		<stop  offset="0.5398" style="stop-color:#00B0B5"/>
		<stop  offset="0.7809" style="stop-color:#00AFB3"/>
	</linearGradient>
	<path style="fill:url(#SVGID_1_);" d="M87,68.216C87,70.306,85.306,72,83.216,72H14.784C12.694,72,11,70.306,11,68.216V32.784
		C11,30.694,12.694,29,14.784,29h68.432C85.306,29,87,30.694,87,32.784V68.216z"/>
	<g>
		<g>
			<g>
				<linearGradient id="SVGID_2_" gradientUnits="userSpaceOnUse" x1="-2.3224" y1="64.6555" x2="99.9795" y2="16.9514">
					<stop  offset="0" style="stop-color:#036973"/>
					<stop  offset="0.3251" style="stop-color:#2EA0A9"/>
				</linearGradient>
				<path style="fill:url(#SVGID_2_);" d="M11.667,80.644c-2.344-0.022-4.842-0.864-6.52-2.197C3.004,76.784,2.028,74.211,1,71.02
					V10.835c0.319-0.774,0.563-1.531,0.799-2.265C2.271,7.103,2.68,5.835,3.548,4.783C5.364,2.516,8.431,1,11.19,1h75.644
					c3.461,0,6.862,2.375,8.463,5.911C95.915,8.241,96,9.793,96,11.272V70.39c0,1.826-0.352,4.429-2.025,6.461
					c-1.884,2.359-4.761,3.771-7.707,3.791L74.862,80.64c0.003-1.213,0.011-2.427,0.019-3.64l0.009-1.793l11.481,0.002
					c2.453,0,4.613-2.147,4.655-4.596l0.003-9.482c0.004-11.708,0.009-23.415-0.003-35.124c-0.001-0.552-0.448-0.999-0.999-0.999
					C78.825,25.002,67.622,25,56.421,25L7.999,25.002c-0.265,0-0.519,0.105-0.706,0.293S7,25.737,7,26.002v44.391
					c0,1.144,0.397,2.363,1.254,3.297c0.846,0.921,2.006,1.472,3.183,1.511l13.937,0.007c0.001,1.096,0.001,5.431,0.001,5.431
					L11.667,80.644z M24.403,9.903c-0.418,0-0.971,0.013-1.54,0.112c-1.783,0.363-3.048,2.063-2.908,3.875
					c0.022,0.335,0.01,0.687-0.001,1.038c-0.022,0.745-0.048,1.588,0.212,2.429c0.491,1.463,1.959,2.469,3.58,2.469
					c0.143,0,0.285-0.008,0.427-0.024c0.095-0.007,0.231-0.01,0.368-0.01c0.19,0,0.383,0.006,0.576,0.012
					c0.216,0.007,0.434,0.014,0.649,0.014c0.782,0,1.791-0.086,2.655-0.76c1.015-0.723,1.557-2.005,1.578-3.784
					c-0.017-0.318-0.009-0.572-0.002-0.827c0.021-0.827,0.044-1.765-0.492-2.66c-0.571-1.12-1.893-1.881-3.337-1.881l-0.148,0.002
					c-0.15,0.006-0.299,0.008-0.447,0.008C25.573,9.917,24.604,9.903,24.403,9.903z M11.117,9.9c-0.434,0-1.007,0.018-1.599,0.158
					c-1.544,0.365-2.693,1.787-2.732,3.381L6.779,13.92c-0.013,0.871-0.026,1.772,0.028,2.672c0.225,1.839,1.833,3.232,3.667,3.232
					c0.132,0,0.263-0.007,0.396-0.022c0.107-0.008,0.248-0.012,0.39-0.012c0.205,0,0.413,0.008,0.621,0.015
					c0.233,0.009,0.467,0.017,0.7,0.017c0.733,0,1.685-0.077,2.538-0.676c1.093-0.721,1.702-2.104,1.69-3.878
					c-0.015-0.293-0.008-0.546-0.002-0.8c0.02-0.87,0.044-1.951-0.624-2.907c-0.616-1.017-1.845-1.657-3.252-1.657l-0.207,0.005
					c-0.141,0.007-0.28,0.01-0.418,0.01C12.115,9.918,11.322,9.9,11.117,9.9z M90.036,19.784c0.266,0,0.521-0.212,0.708-0.4
					c0.187-0.188,0.292-0.495,0.292-0.761l0.002-2.4c0.002-1.682,0.004-3.378-0.01-5.059c-0.005-0.549-0.45-0.998-0.999-0.998
					c-9.06-0.007-17.082-0.012-25.012-0.012l-29.645,0.003c-0.266,0-0.52,0.105-0.708,0.293s-0.293,0.442-0.292,0.708l0.002,7.631
					c0,0.552,0.448,1.211,1,1.211h6.015L90.036,19.784z"/>
				<path style="fill:#028189;" d="M86.834,2c3.076,0,6.111,2.139,7.561,5.342C94.897,8.422,95,9.695,95,11.272V70.39
					c0,1.662-0.312,4.201-1.817,6.028C91.496,78.531,88.908,80,86.274,80h-4.74h-1.466l-4.202-0.181
					c0.004-0.852,0.009-1.793,0.014-2.644c0.002-0.293,0.004-0.733,0.005-1.026L78.533,76h1.954c1.15,0,2.492,0,5.865,0
					c0.007,0,0.043,0,0.05,0c2.996,0,5.572-2.45,5.624-5.508l0.003-9.946c0.004-11.531,0.008-23.035-0.003-34.567
					c-0.001-1.103-0.896-1.984-1.999-1.985c-11.337-0.006-22.678-0.001-34.015-0.001l-20.695,0.003L14.622,24H7.999
					c-0.53,0-1.039,0.212-1.414,0.587C6.21,24.962,6,25.472,6,26.003v22.195v22.151c0,1.442,0.493,2.903,1.517,4.018
					c1.026,1.117,2.443,1.786,3.886,1.835c0.021,0.001,0.042-0.102,0.064-0.102C13.249,76.102,14.712,76,16.035,76h2.695h2.633
					C22.284,76,23,76.205,24,76.206c0,0.752,0,1.503,0,2.254c0,0.393,0,0.786,0,1.179C23,79.641,21.529,80,20.298,80h-1.689h-1.746
					l-5.183-0.177c-2.132-0.019-4.398-0.867-5.929-2.084C3.873,76.282,2.957,73.818,2,70.863V11.03
					c0.296-0.743,0.527-1.458,0.751-2.153c0.441-1.37,0.822-2.553,1.587-3.48C5.965,3.365,8.719,2,11.19,2H87 M10.474,20.824
					c0.156,0,0.312-0.008,0.469-0.025c0.104-0.008,0.21-0.01,0.316-0.01c0.193,0,0.389,0.008,0.585,0.015
					c0.246,0.009,0.492,0.017,0.737,0.017c0.874,0,2.013-0.096,3.088-0.841c1.394-0.933,2.153-2.608,2.139-4.721
					c0-0.031-0.001-0.063-0.003-0.094c-0.012-0.221-0.005-0.447,0.001-0.675c0.022-0.948,0.052-2.241-0.767-3.45
					c-0.842-1.339-2.372-2.136-4.108-2.136c-0.085,0-0.171,0.002-0.262,0.006c-0.121,0.006-0.242,0.008-0.363,0.008
					c-0.183,0-0.366-0.004-0.549-0.009c-0.214-0.005-0.428-0.01-0.642-0.01c-0.488,0-1.136,0.021-1.827,0.185
					c-1.98,0.468-3.453,2.289-3.503,4.353l-0.007,0.462c-0.013,0.891-0.027,1.813,0.03,2.753c0.003,0.041,0.006,0.083,0.011,0.124
					C6.101,19.046,8.145,20.824,10.474,20.824 M23.746,20.826c0.165,0,0.329-0.008,0.493-0.025c0.099-0.007,0.199-0.008,0.301-0.008
					c0.18,0,0.362,0.006,0.545,0.012c0.227,0.007,0.455,0.014,0.682,0.014c0.933,0,2.141-0.108,3.237-0.945
					c1.3-0.946,1.971-2.489,1.996-4.587c0.001-0.047-0.001-0.094-0.003-0.142c-0.011-0.191-0.005-0.424,0.001-0.671
					c0.021-0.853,0.051-2.016-0.6-3.142c-0.786-1.475-2.438-2.425-4.229-2.425c-0.062,0-0.123,0.001-0.19,0.004
					c-0.134,0.005-0.269,0.007-0.404,0.007c-0.184,0-0.368-0.003-0.552-0.006c-0.207-0.003-0.414-0.007-0.62-0.007
					c-0.458,0-1.066,0.014-1.71,0.127c-0.019,0.003-0.037,0.007-0.055,0.01c-2.24,0.457-3.856,2.621-3.679,4.904
					c0.019,0.283,0.009,0.609-0.002,0.954c-0.025,0.822-0.053,1.755,0.271,2.799C19.844,19.539,21.703,20.826,23.746,20.826 M35,21
					h7.364h13.095h12.15c7.099,0,14.349-0.213,22.427-0.216c0.531,0,1.039-0.317,1.414-0.692c0.375-0.375,0.585-0.937,0.585-1.468
					c-0.001-0.792,0.001-1.611,0.002-2.404c0.002-1.683,0.005-3.38-0.009-5.063c-0.009-1.098-0.901-1.99-1.998-1.99
					C81.022,9.16,73.039,9.155,65.153,9.155l-19.93,0.001l-9.85,0.001c-0.531,0-1.04,0.211-1.415,0.587s-0.773,0.885-0.772,1.416
					C33.188,12.573,33,13.985,33,15.398v3.179C33,19.681,34.271,21,35.375,21 M86.834,0H11.19C8.055,0,4.738,1.698,2.776,4.146
					C1.275,5.967,1,8.289,0,10.634v60.543c1,3.116,2.042,6.126,4.524,8.052c1.934,1.536,4.665,2.572,7.138,2.593
					c2.079-0.002,3.714,0.177,5.2,0.177c1.189,0,2.284,0,3.435,0c1.727,0,3.582-0.18,6.077-0.183
					c-0.004-2.476,0.004-5.041-0.004-7.518c-1.983-0.004-3.569-0.05-5.008-0.05c-1.842,0-3.444-0.021-5.328-0.021
					c-1.322,0-2.784-0.012-4.564-0.015C9.531,74.148,7.901,72.317,8,70.398C7.998,55.601,8,41,7.999,26c2.208,0,4.416,0,6.624,0
					c13.798,0,27.592-0.001,41.39-0.001c11.337,0,22.678,0.002,34.014,0.008c0.015,14.864,0.004,29.622,0,44.484
					C89.994,72.386,88.323,74,86.402,74c-0.01,0-0.02,0-0.03,0c-3.393,0-4.735,0.1-5.885,0.1c-1.388,0-2.497,0.054-6.592,0.055
					c-0.009,2.477-0.034,5.16-0.034,7.637C77.607,81.794,78.838,82,80.068,82c1.23,0,2.461,0,6.206,0
					c3.295,0,6.421-1.766,8.472-4.334C96.378,75.685,97,72.945,97,70.39c0-19.706,0-39.411,0-59.117
					c0-1.638-0.101-3.289-0.792-4.774C94.528,2.786,90.916,0,86.834,0L86.834,0z M10.474,18.824c-1.291,0-2.509-0.999-2.669-2.292
					c-0.062-1.019-0.033-2.046-0.02-3.069c0.027-1.126,0.858-2.171,1.963-2.432c0.449-0.106,0.907-0.131,1.367-0.131
					c0.396,0,0.795,0.018,1.191,0.018c0.155,0,0.31-0.003,0.464-0.011c0.054-0.003,0.107-0.004,0.161-0.004
					c0.951,0,1.925,0.396,2.432,1.23c0.647,0.925,0.388,2.089,0.445,3.139c0.007,1.115-0.268,2.396-1.265,3.054
					c-0.59,0.414-1.268,0.494-1.963,0.494c-0.44,0-0.886-0.032-1.321-0.032c-0.17,0-0.338,0.005-0.503,0.018
					C10.662,18.819,10.568,18.824,10.474,18.824L10.474,18.824z M23.746,18.826c-1.128,0-2.259-0.676-2.624-1.764
					c-0.324-1.048-0.098-2.167-0.17-3.248c-0.098-1.277,0.811-2.554,2.083-2.813c0.452-0.079,0.908-0.097,1.366-0.097
					c0.391,0,0.782,0.013,1.173,0.013c0.161,0,0.322-0.002,0.483-0.009c0.037-0.001,0.074-0.002,0.111-0.002
					c0.994,0,2.017,0.493,2.479,1.395c0.536,0.896,0.293,1.975,0.352,2.962c-0.013,1.086-0.244,2.33-1.192,3.007
					c-0.597,0.465-1.31,0.549-2.041,0.549c-0.409,0-0.824-0.026-1.227-0.026c-0.162,0-0.322,0.004-0.48,0.016
					C23.956,18.82,23.851,18.826,23.746,18.826L23.746,18.826z M35.375,19c-0.002,0,0.002-5.158-0.002-7.631
					c10.877-0.002,20.258-0.111,29.78-0.111c7.886,0,15.868-0.051,24.876-0.044c0.02,2.47,0.005,4.916,0.007,7.386
					c-8.078,0.004-15.328,0.204-22.426,0.204C59.338,18.802,51.276,19,42.364,19C40.096,19,37.771,19,35.375,19L35.375,19z"/>
			</g>
		</g>
	</g>
	<g>
		<linearGradient id="SVGID_3_" gradientUnits="userSpaceOnUse" x1="30.237" y1="80.0136" x2="64.3391" y2="56.135">
			<stop  offset="0.2217" style="stop-color:#036973"/>
			<stop  offset="1" style="stop-color:#32A5AE"/>
		</linearGradient>
		<path style="fill:url(#SVGID_3_);" d="M63.996,95.508c-1.494,0-3.018-0.855-3.976-2.232L49.729,78.502
			C49.449,78.096,48.987,78,48.495,78c-0.009,0-0.019,0-0.028,0c-0.503,0-0.968,0.125-1.238,0.55l-8.593,13.457l-9.84-50.91
			l44.184,27.375L57.213,71.59c-0.495,0.099-0.908,0.435-1.098,0.903c-0.19,0.469-0.132,0.999,0.155,1.414l10.295,14.918
			c0.783,1.137,1.101,2.502,0.871,3.748c-0.183,0.988-0.702,1.821-1.464,2.343C65.406,95.302,64.722,95.508,63.996,95.508
			L63.996,95.508z"/>
		<path style="fill:#028189;" d="M30.919,44.143l38.034,23.58L56.921,70.11c-0.991,0.197-1.816,0.879-2.196,1.815
			c-0.38,0.936-0.263,2,0.311,2.832L65.33,89.675c0.559,0.811,0.789,1.768,0.631,2.624c-0.078,0.421-0.286,1.002-0.829,1.375
			c-0.325,0.222-0.707,0.334-1.136,0.334c-1.011,0-2.063-0.609-2.737-1.579L50.964,77.401C50.404,76.588,49.48,76,48.495,76
			c-0.019,0-0.038,0-0.057,0c-1.006,0-1.936,0.646-2.475,1.495l-6.571,10.398L30.919,44.143 M28.156,38.901l-1.152,0.799
			l10.875,56.223l10.616-16.714l10.295,14.924c1.287,1.85,3.283,2.875,5.207,2.875c0.998,0,1.976-0.276,2.826-0.855
			c2.474-1.701,2.918-5.366,0.978-8.181L57.505,73.053l19.499-3.867L28.156,38.901L28.156,38.901z"/>
	</g>
</g>
</svg>
