<?xml version="1.0" encoding="iso-8859-1"?>

<svg version="1.1" xmlns="http://www.w3.org/2000/svg" xmlns:xlink="http://www.w3.org/1999/xlink" x="0px" y="0px"
	 viewBox="0 0 97 97" style="enable-background:new 0 0 97 97;" xml:space="preserve">
<g id="Capa_1">
	<g id="XMLID_6_">
		
			<linearGradient id="XMLID_2_" gradientUnits="userSpaceOnUse" x1="-10.8798" y1="-7.4039" x2="35.4783" y2="36.8939" gradientTransform="matrix(0.714 -0.7002 0.7002 0.714 -10.2653 25.1952)">
			<stop  offset="0.2999" style="stop-color:#036973"/>
			<stop  offset="1" style="stop-color:#32A5AE"/>
		</linearGradient>
		<path id="XMLID_19_" style="fill:url(#XMLID_2_);" d="M26.337,52.762c-0.255,0-0.51-0.021-0.757-0.063
			c-1.059-0.318-2.016-0.927-2.771-1.762c-2.929-3.021-5.842-6.008-8.754-8.995c-3.871-3.97-7.743-7.941-11.596-11.93
			c-0.854-0.82-1.364-1.946-1.462-3.195l0.008-0.422c0.107-1.111,0.584-2.171,1.337-2.901c2.061-2.082,4.135-4.121,6.21-6.161
			l2.392-2.354l3.449-3.416l2.439-2.406c1.917-1.89,3.833-3.78,5.744-5.675c1.504-1.68,2.927-2.478,4.391-2.483
			c2.28,0.053,4.278,2.009,4.452,4.371c-0.075,1.393-0.566,2.596-1.386,3.394c-1.854,1.856-3.712,3.686-5.571,5.516
			c-1.303,1.282-2.605,2.564-3.902,3.853l-0.657,0.646c-0.614,0.604-1.228,1.209-1.848,1.809l-1.753,1.695l3.492,0.035
			c1.356,0.014,2.712,0.027,4.068,0.033c8.111,0.09,16.229,0.17,24.352,0.243c1.629,0.021,3.264,0.037,4.898,0.052l1.777,0.017
			c1.484,0.027,2.978,0.036,4.471,0.044c2.224,0.013,4.521,0.026,6.772,0.104c1.096,0.051,2.187,0.611,2.982,1.537
			c0.803,0.934,1.195,2.216,1.078,3.336C70.086,29.926,68.13,32,65.914,32h-0.315c-1.16,0-2.319-0.118-3.479-0.133
			c-0.906-0.012-1.812-0.075-2.719-0.08l-6.462-0.09c-5.89-0.059-11.778-0.131-17.668-0.183c-2.233-0.029-4.472-0.054-6.706-0.072
			c-2.188-0.026-4.36-0.049-6.533-0.069l-5.793-0.057l1.695,1.724c2.687,2.734,5.361,5.481,8.034,8.227l3.545,3.64
			c1.455,1.384,1.848,3.694,0.94,5.399C29.738,51.79,28.092,52.762,26.337,52.762z"/>
		<path id="XMLID_16_" style="fill:#007C84;" d="M26.943,2c1.773,0.055,3.307,1.557,3.473,3.381
			c-0.046,0.693-0.254,1.862-1.101,2.686c-1.849,1.852-3.714,3.687-5.578,5.523c-1.296,1.276-2.591,2.551-3.875,3.825l-0.631,0.621
			c-0.622,0.612-1.243,1.225-1.871,1.831l-3.506,3.39l4.876,0.048l1.021,0.01c1.369,0.014,2.737,0.028,4.091,0.033
			c8.119,0.09,16.238,0.17,24.353,0.243c1.672,0.022,3.344,0.037,5.016,0.053l1.65,0.016c1.493,0.027,2.987,0.036,4.481,0.044
			c2.219,0.013,4.514,0.026,6.73,0.103c0.834,0.039,1.666,0.473,2.283,1.19c0.624,0.726,0.931,1.63,0.842,2.478l-0.006,0.058
			l-0.003,0.162C69.112,29.341,67.583,31,65.909,31h-0.32c-1.153,0-2.305-0.118-3.458-0.133c-0.908-0.012-1.816-0.075-2.716-0.08
			l-6.032-0.086c-6.035-0.06-12.068-0.133-18.096-0.187c-2.246-0.029-4.491-0.054-6.726-0.073c-2.201-0.026-4.403-0.05-6.604-0.07
			l-3.291-0.032l-4.836-0.048l3.39,3.449c2.694,2.741,5.374,5.495,8.054,8.249l3.522,3.616l0.027,0.027l0.028,0.026
			c1.114,1.059,1.424,2.855,0.72,4.177l-0.019,0.036l-0.018,0.037c-0.532,1.108-1.816,1.852-3.195,1.852
			c-0.179,0-0.358-0.013-0.531-0.039c-0.859-0.27-1.637-0.772-2.255-1.456l-0.023-0.026l-0.024-0.025
			c-2.918-3.009-5.843-6.009-8.769-9.009c-3.794-3.891-7.717-7.915-11.556-11.889L3.152,29.29l-0.027-0.026
			c-0.633-0.607-1.03-1.473-1.124-2.446l0.003-0.323c0.102-0.926,0.468-1.736,1.063-2.313c2.035-2.055,4.137-4.122,6.17-6.121
			c0.803-0.79,1.607-1.58,2.413-2.376c0.572-0.569,1.146-1.135,1.719-1.702c0.576-0.57,1.152-1.139,1.724-1.707l2.455-2.422
			c1.913-1.886,3.825-3.772,5.732-5.663l0.043-0.042l0.04-0.045C24.616,2.703,25.787,2.014,26.943,2 M26.962,0
			c-2.072,0.007-3.769,1.293-5.091,2.773c-2.721,2.7-5.456,5.389-8.183,8.081c-1.148,1.14-2.299,2.273-3.447,3.413
			c-2.87,2.833-5.759,5.644-8.595,8.508c-0.978,0.949-1.515,2.263-1.641,3.61L0,26.895c0.113,1.435,0.702,2.816,1.74,3.812
			c6.753,6.991,13.561,13.924,20.328,20.901c0.884,0.977,2.021,1.698,3.284,2.066c0.325,0.058,0.655,0.087,0.985,0.087
			c2.045,0,4.088-1.095,4.997-2.985c1.134-2.129,0.63-4.916-1.107-6.567c-3.858-3.957-7.706-7.928-11.581-11.871
			c3.297,0.032,6.594,0.058,9.891,0.097c2.239,0.019,4.482,0.037,6.724,0.066c8.046,0.072,16.088,0.258,24.134,0.337
			C61.461,32.85,63.523,33,65.589,33c0.119,0,0.238,0,0.356,0c2.699,0,5.115-2.479,5.241-5.211c0.306-2.913-2.112-5.791-5.021-5.926
			c-3.752-0.13-7.512-0.107-11.267-0.175c-2.225-0.022-4.451-0.053-6.676-0.082c-8.121-0.073-16.239-0.159-24.357-0.25
			c-1.705-0.006-3.41-0.03-5.115-0.047c0.843-0.815,1.677-1.643,2.513-2.465c3.15-3.126,6.33-6.222,9.466-9.362
			c1.106-1.075,1.621-2.597,1.69-4.12C32.242,2.493,29.838,0.066,26.962,0L26.962,0z"/>
	</g>
	<g id="XMLID_12_">
		
			<linearGradient id="XMLID_3_" gradientUnits="userSpaceOnUse" x1="-12.5694" y1="51.6507" x2="33.7863" y2="95.9461" gradientTransform="matrix(-0.714 -0.7002 -0.7002 0.714 155.8251 25.1952)">
			<stop  offset="0.3765" style="stop-color:#036973"/>
			<stop  offset="1" style="stop-color:#32A5AE"/>
		</linearGradient>
		<path id="XMLID_23_" style="fill:url(#XMLID_3_);" d="M70.662,96c-1.754,0-3.4-0.972-4.096-2.419
			c-0.926-1.742-0.533-4.051,0.895-5.408l3.595-3.689c2.666-2.739,5.332-5.479,8.011-8.205l1.695-1.725l-5.567,0.053
			c-2.248,0.021-4.496,0.041-6.743,0.068c-2.248,0.019-4.486,0.037-6.726,0.065c-6.016,0.055-12.033,0.114-18.052,0.174
			l-6.079,0.061c-0.894,0.005-1.792,0-2.689,0.012C33.739,75.001,32.572,75,31.404,75h-0.347c-2.187,0-4.144-1.955-4.244-4.138
			c-0.122-1.179,0.271-2.349,1.073-3.284c0.795-0.925,1.887-1.481,2.995-1.533c2.24-0.077,4.539-0.089,6.763-0.102
			c1.492-0.009,2.984-0.017,4.476-0.044l1.53-0.014c1.713-0.016,3.427-0.032,5.141-0.053c8.118-0.073,16.237-0.153,24.354-0.243
			c1.321-0.005,2.649-0.018,3.978-0.032l3.574-0.035l-1.752-1.695c-0.646-0.625-1.287-1.257-1.928-1.888l-0.579-0.57
			c-1.274-1.265-2.557-2.527-3.839-3.79c-1.879-1.85-3.758-3.699-5.621-5.565c-0.83-0.806-1.321-2.01-1.396-3.403
			c0.174-2.362,2.172-4.318,4.479-4.371c1.438,0.005,2.86,0.803,4.323,2.439c2.031,2.019,4.029,3.988,6.026,5.957l2.2,2.17
			l3.443,3.411l2.35,2.313c2.09,2.054,4.18,4.108,6.241,6.189C95.412,67.463,96,68.523,96,69.717v0.427
			c0,1.161-0.604,2.287-1.433,3.081c-3.856,3.991-7.703,7.937-11.551,11.883c-2.937,3.012-5.873,6.023-8.802,9.044
			c-0.78,0.86-1.737,1.469-2.794,1.786C71.173,95.979,70.918,96,70.662,96L70.662,96z"/>
		<path id="XMLID_20_" style="fill:#007C84;" d="M70.057,45.239c1.156,0.014,2.327,0.703,3.581,2.105l0.04,0.045l0.043,0.042
			c1.907,1.892,3.821,3.779,5.734,5.666l2.449,2.415c0.575,0.571,1.151,1.14,1.727,1.71c0.574,0.567,1.147,1.134,1.725,1.707
			c0.802,0.791,1.605,1.581,2.408,2.371c2.033,1.999,4.136,4.066,6.199,6.15c0.567,0.55,0.932,1.359,1.034,2.285l0.003,0.323
			c-0.093,0.972-0.491,1.838-1.124,2.446l-0.027,0.026l-0.026,0.027c-3.839,3.974-7.762,7.998-11.556,11.889
			c-2.925,3-5.851,6.001-8.769,9.009l-0.024,0.025l-0.023,0.026c-0.618,0.684-1.396,1.185-2.255,1.456
			C71.02,94.987,70.842,95,70.663,95c-1.378,0-2.662-0.744-3.195-1.852l-0.018-0.037l-0.019-0.036
			c-0.704-1.322-0.395-3.118,0.72-4.177l0.028-0.026l0.027-0.027l3.52-3.615c2.68-2.754,5.361-5.509,8.056-8.25l3.39-3.449
			l-4.836,0.048l-3.298,0.031c-2.199,0.02-4.398,0.04-6.59,0.066c-2.242,0.019-4.488,0.037-6.726,0.066
			c-6.033,0.054-12.065,0.114-18.097,0.174l-6.029,0.06c-0.909,0.005-1.818,0-2.726,0.012C33.716,74.001,32.564,74,31.411,74h-0.32
			c-1.674,0-3.203-1.539-3.279-3.184l-0.003-0.05l-0.006-0.054c-0.089-0.848,0.218-1.749,0.842-2.476
			c0.617-0.718,1.449-1.15,2.259-1.188c2.239-0.078,4.534-0.09,6.753-0.103c1.494-0.009,2.988-0.017,4.464-0.044l1.667-0.016
			c1.672-0.016,3.344-0.032,5.008-0.053c8.123-0.073,16.242-0.153,24.346-0.243c1.369-0.005,2.737-0.019,4.106-0.033l1.021-0.01
			l4.876-0.048l-3.506-3.39c-0.628-0.607-1.25-1.22-1.873-1.833l-0.622-0.612c-1.29-1.281-2.586-2.556-3.881-3.832
			c-1.865-1.836-3.729-3.672-5.6-5.545c-0.828-0.804-1.034-1.973-1.08-2.665C66.75,46.796,68.284,45.294,70.057,45.239
			 M70.038,43.239c-2.876,0.066-5.28,2.492-5.457,5.362c0.07,1.523,0.584,3.045,1.69,4.119c3.136,3.14,6.316,6.235,9.466,9.361
			c0.837,0.822,1.67,1.648,2.513,2.464c-1.705,0.017-3.41,0.037-5.115,0.043c-8.118,0.09-16.235,0.17-24.357,0.243
			c-2.225,0.029-4.451,0.047-6.676,0.069c-3.756,0.068-7.516,0.019-11.267,0.149c-2.909,0.136-5.326,2.945-5.021,5.858
			C25.94,73.64,28.356,76,31.055,76c0.119,0,0.238,0,0.356,0c2.066,0,4.128-0.031,6.193-0.042
			c8.046-0.079,16.088-0.154,24.134-0.226c2.242-0.029,4.485-0.043,6.724-0.062c3.297-0.039,6.594-0.063,9.891-0.095
			c-3.875,3.943-7.723,7.915-11.581,11.872c-1.737,1.651-2.241,4.438-1.107,6.567C66.574,95.905,68.618,97,70.663,97
			c0.33,0,0.66-0.028,0.985-0.087c1.263-0.367,2.4-1.089,3.284-2.066c6.767-6.977,13.575-13.91,20.328-20.901
			c1.038-0.996,1.627-2.377,1.74-3.812l-0.005-0.51c-0.126-1.346-0.663-2.661-1.641-3.61c-2.836-2.864-5.725-5.676-8.595-8.508
			c-1.148-1.14-2.299-2.273-3.447-3.413c-2.728-2.693-5.462-5.382-8.183-8.081C73.807,44.532,72.109,43.246,70.038,43.239
			L70.038,43.239z"/>
	</g>
</g>
<g id="Capa_2">
</g>
</svg>
