<?xml version="1.0" encoding="iso-8859-1"?>

<svg version="1.1" xmlns="http://www.w3.org/2000/svg" xmlns:xlink="http://www.w3.org/1999/xlink" x="0px" y="0px"
	 viewBox="0 0 97 97" style="enable-background:new 0 0 97 97;" xml:space="preserve">
<g id="Capa_1">
	<g id="XMLID_1_">
		<linearGradient id="XMLID_4_" gradientUnits="userSpaceOnUse" x1="14.9282" y1="82.0718" x2="82.0718" y2="14.9282">
			<stop  offset="0" style="stop-color:#036973"/>
			<stop  offset="1" style="stop-color:#32A5AE"/>
		</linearGradient>
		<circle id="XMLID_18_" style="fill:url(#XMLID_4_);" cx="48.5" cy="48.5" r="47.5"/>
		<path id="XMLID_15_" style="fill:#028189;" d="M48.5,2C74.14,2,95,22.86,95,48.5S74.14,95,48.5,95S2,74.14,2,48.5S22.86,2,48.5,2
			 M48.5,0C21.714,0,0,21.714,0,48.5S21.714,97,48.5,97S97,75.286,97,48.5S75.286,0,48.5,0L48.5,0z"/>
	</g>
	<path id="XMLID_3_" style="fill:#FFFFFF;" d="M27.567,43.476c-2.53,2.647-2.538,6.8-0.018,9.455L50.265,76.83
		c1.31,1.371,3.074,2.128,4.969,2.128c1.762,0,3.438-0.669,4.723-1.884c2.73-2.603,2.842-6.95,0.244-9.688L42.639,48.917
		c-0.368-0.387-0.367-0.994,0.002-1.38l17.542-18.341c1.266-1.323,1.94-3.058,1.9-4.886c-0.041-1.828-0.793-3.532-2.117-4.797
		c-1.282-1.229-2.955-1.899-4.725-1.899c-0.054,0-0.106,0-0.16,0.002c-1.828,0.042-3.531,0.792-4.797,2.115L27.567,43.476z"/>
</g>
<g id="Capa_2">
</g>
</svg>
