<?xml version="1.0" encoding="iso-8859-1"?>
<!-- Generator: Adobe Illustrator 19.0.0, SVG Export Plug-In . SVG Version: 6.00 Build 0)  -->
<svg version="1.1" id="Capa_1" xmlns="http://www.w3.org/2000/svg" xmlns:xlink="http://www.w3.org/1999/xlink" x="0px" y="0px"
	 viewBox="0 0 97 97" style="enable-background:new 0 0 97 97;" xml:space="preserve">
<g>
	<linearGradient id="SVGID_1_" gradientUnits="userSpaceOnUse" x1="9.0129" y1="37.044" x2="46.417" y2="4.5291">
		<stop  offset="0" style="stop-color:#32A5AE"/>
		<stop  offset="1" style="stop-color:#FFFFFF"/>
	</linearGradient>
	<path style="fill:url(#SVGID_1_);" d="M6.928,6.928c13.859,0.002,27.716,0.002,41.574,0c-0.002,9.238-0.002,18.479,0,27.718
		c-13.859-0.002-27.716-0.002-41.574,0C6.93,25.407,6.93,16.166,6.928,6.928z"/>
	<linearGradient id="SVGID_2_" gradientUnits="userSpaceOnUse" x1="50.583" y1="85.5421" x2="87.9871" y2="53.0272">
		<stop  offset="0" style="stop-color:#32A5AE"/>
		<stop  offset="1" style="stop-color:#FFFFFF"/>
	</linearGradient>
	<path style="fill:url(#SVGID_2_);" d="M48.498,55.426c13.859,0.002,27.716,0.002,41.574,0c-0.002,9.238-0.004,18.477,0,27.718
		c-13.859-0.002-27.716-0.002-41.574,0C48.502,73.903,48.5,64.664,48.498,55.426z"/>
</g>
<g>
	<g>
		<linearGradient id="SVGID_3_" gradientUnits="userSpaceOnUse" x1="4.4715" y1="40.9868" x2="50.9648" y2="0.5707">
			<stop  offset="0" style="stop-color:#0E686F"/>
			<stop  offset="0.3978" style="stop-color:#36A0A5"/>
		</linearGradient>
		<path style="fill:url(#SVGID_3_);" d="M14.741,48c-0.026-1,0.009-1.485,0.354-1.717c0.208-0.122,0.516-0.28,1.018-0.28
			c0.167,0,0.336-0.042,0.505-0.036c0.19,0.007,0.381-0.011,0.571-0.011c0.422,0,0.98-0.039,1.544-0.256
			c1.635-0.503,2.883-2.186,2.978-4.067c0.012-0.242-0.075-0.483-0.241-0.659c-0.167-0.177-0.398-0.279-0.641-0.281
			c-1.345-0.01-2.69-0.014-4.035-0.014l-5.505,0.005c-1.602,0-3.202-0.005-4.803-0.021c-2.931-0.127-5.556-2.838-5.588-5.8
			c-0.011-9.381-0.011-18.773,0-28.162c0.028-3.058,2.743-5.772,5.811-5.803C13.706,0.893,20.711,0.89,27.716,0.89
			s14.009,0.003,21.013,0.009c3.057,0.03,5.772,2.744,5.802,5.808c0.01,4.861,0.009,9.73,0.007,14.599
			c-0.001,4.229-0.002,8.458,0.004,12.687c0.034,1.216-0.121,2.183-0.475,2.981c-0.886,2.144-3.084,3.657-5.355,3.701
			c-1.245,0.006-2.504,0.008-3.762,0.008l-5.453-0.004c-1.633,0-3.266,0.003-4.898,0.015c-0.246,0.002-0.479,0.105-0.646,0.285
			s-0.252,0.421-0.235,0.667c0.115,1.679,1.044,3.138,2.426,3.81c0.76,0.416,1.588,0.476,2.364,0.476l0.852-0.009
			c0.208,0,0.414,0.004,0.616,0.024c0.338,0.029,0.657,0.544,0.688,0.88C40.69,47.148,40.69,47,40.687,48H14.741z M48.502,35.536
			c0.236,0,0.463-0.094,0.63-0.261s0.261-0.394,0.261-0.629c-0.002-9.239-0.002-18.479,0-27.718c0-0.236-0.094-0.481-0.261-0.648
			C48.964,6.112,48.738,6,48.502,6H6.928c-0.236,0-0.463,0.113-0.63,0.28S6.037,6.683,6.037,6.918
			c0.002,9.238,0.002,18.484,0,27.722c0,0.236,0.094,0.465,0.261,0.632c0.167,0.167,0.394,0.262,0.63,0.262l20.787-0.001
			L48.502,35.536z"/>
		<path style="fill:#196D76;" d="M27.716,1.781c7.004,0,14.009,0.003,20.996,0.008c2.555,0.025,4.904,2.373,4.929,4.913
			c0.009,4.832,0.008,9.664,0.007,14.496c-0.001,4.266-0.002,8.531,0.005,12.845c0.03,1.056-0.101,1.896-0.418,2.612
			c-0.745,1.805-2.612,3.092-4.514,3.13c-1.255,0.006-2.51,0.008-3.765,0.008L42.23,39.79l-2.73-0.002
			c-1.636,0-3.273,0.003-4.909,0.015c-0.491,0.004-0.959,0.21-1.293,0.57c-0.334,0.36-0.504,0.842-0.471,1.333
			c0.136,1.981,1.241,3.714,2.888,4.532c0.478,0.255,0.961,0.541,1.43,0.623L25.571,47c-2.405,0-4.81,0-7.216,0
			c0.207,0,0.421-0.239,0.64-0.319c2.044-0.657,3.491-2.676,3.606-4.937c0.025-0.485-0.15-0.994-0.483-1.348
			c-0.333-0.353-0.796-0.573-1.282-0.577c-1.351-0.01-2.702-0.022-4.052-0.022l-2.744-0.002l-2.738,0.001
			c-1.592,0-3.184-0.005-4.776-0.021c-2.501-0.124-4.712-2.417-4.738-4.904c-0.011-9.389-0.011-18.78,0-28.154
			c0.023-2.554,2.373-4.903,4.913-4.928C13.707,1.784,20.711,1.781,27.716,1.781 M27.715,5.149L6.928,5.147
			c-0.472,0-0.926,0.188-1.26,0.522c-0.334,0.334-0.522,0.787-0.522,1.26c0.002,9.238,0.002,18.479,0,27.717
			c0,0.472,0.188,0.926,0.522,1.26c0.334,0.334,0.787,0.522,1.259,0.522c0,0,0,0,0,0l20.787-0.002l20.787,0.002
			c0.472,0,0.926-0.188,1.26-0.522c0.334-0.334,0.522-0.787,0.522-1.26c-0.002-9.238-0.002-18.479,0-27.717
			c0-0.472-0.188-0.926-0.522-1.26c-0.334-0.334-0.787-0.522-1.259-0.522c0,0,0,0,0,0L27.715,5.149 M27.716,0
			C20.711,0,13.706,0.003,6.7,0.008C3.169,0.043,0.041,3.169,0.008,6.7c-0.011,9.39-0.011,18.782,0,28.172
			c0.037,3.451,3.022,6.532,6.469,6.681c1.609,0.016,3.217,0.02,4.826,0.02c1.827,0,3.654-0.005,5.481-0.005
			c1.346,0,2.693,0.003,4.039,0.013c-0.074,1.442-0.998,2.838-2.408,3.274c-0.393,0.15-0.807,0.185-1.226,0.185
			c-0.359,0-0.721-0.025-1.077-0.025c-0.529,0-1.045,0.056-1.514,0.334c-1.046,0.704-0.682,2.091-0.74,3.152
			c3.905-0.002,7.809-0.003,11.713-0.003c5.333,0,10.667,0.001,16,0.003c-0.009-0.652,0.032-1.303-0.022-1.953
			c-0.071-0.762-0.73-1.422-1.492-1.49c-0.23-0.022-0.464-0.028-0.699-0.028c-0.284,0-0.571,0.009-0.856,0.009
			c-0.682,0-1.356-0.05-1.973-0.386c-1.163-0.565-1.84-1.808-1.927-3.07c1.632-0.012,3.264-0.015,4.896-0.015
			c1.819,0,3.637,0.004,5.455,0.004c1.258,0,2.516-0.002,3.774-0.008c2.646-0.052,5.144-1.793,6.151-4.231
			c0.465-1.048,0.585-2.206,0.552-3.343c-0.013-9.098,0.007-18.195-0.011-27.293c-0.035-3.529-3.161-6.655-6.692-6.69
			C41.725,0.003,34.721,0,27.716,0L27.716,0z M48.502,6.928c-0.002,9.238-0.002,18.479,0,27.718
			c-6.929-0.001-13.858-0.002-20.787-0.002s-13.858,0.001-20.787,0.002c0.002-9.238,0.002-18.479,0-27.718
			c6.929,0.001,13.858,0.002,20.787,0.002S41.573,6.929,48.502,6.928L48.502,6.928z"/>
	</g>
</g>
<g>
	<g>
		<linearGradient id="SVGID_4_" gradientUnits="userSpaceOnUse" x1="46.0367" y1="89.4812" x2="92.5309" y2="49.0644">
			<stop  offset="0" style="stop-color:#0E686F"/>
			<stop  offset="0.3978" style="stop-color:#36A0A5"/>
		</linearGradient>
		<path style="fill:url(#SVGID_4_);" d="M56.315,96c-0.028-1-0.029-1.104,0.247-1.377c0.196-0.194,0.472-0.242,0.986-0.242
			c0.166,0,0.334,0.021,0.502,0.027c0.191,0.008,0.382,0.022,0.568,0.022c0.205,0,0.406-0.005,0.602-0.03
			c2.133-0.066,3.992-1.994,4.063-4.295c0.008-0.24-0.082-0.471-0.248-0.644s-0.396-0.271-0.635-0.273
			c-1.344-0.01-2.688-0.012-4.032-0.012l-5.437,0.005c-1.625,0-3.25-0.004-4.875-0.02c-2.933-0.127-5.558-2.838-5.588-5.799
			c-0.01-9.382-0.01-18.773,0-28.165c0.028-3.059,2.743-5.772,5.81-5.801c6.996-0.005,14-0.008,21.005-0.008
			s14.01,0.003,21.015,0.008c3.058,0.03,5.772,2.745,5.803,5.811c0.011,9.382,0.011,18.773,0,28.165
			c-0.033,2.95-2.658,5.66-5.616,5.79c-1.555,0.016-3.14,0.021-4.725,0.021l-5.349-0.006c-1.416,0-2.83,0.004-4.245,0.016
			c-0.245,0.002-0.479,0.105-0.646,0.286c-0.167,0.18-0.252,0.42-0.235,0.665c0.115,1.68,1.045,3.139,2.427,3.81
			c0.759,0.416,1.586,0.476,2.36,0.476l0.855-0.008c0.207,0,0.413,0.004,0.616,0.023c0.338,0.029,0.657,0.295,0.688,0.631
			C82.259,95.395,82.259,96,82.255,96H56.315z M90.072,84.034c0.236,0,0.463-0.094,0.63-0.261s0.261-0.394,0.261-0.63
			c-0.004-9.241-0.002-18.479,0-27.718c0-0.236-0.094-0.23-0.261-0.397S90.309,55,90.072,55H48.498c-0.236,0-0.463-0.139-0.63,0.028
			s-0.261,0.277-0.261,0.514c0.002,9.238,0.004,18.418,0,27.66c0,0.236,0.094,0.434,0.261,0.601s0.394,0.246,0.63,0.246
			l20.787-0.009L90.072,84.034z"/>
		<path style="fill:#196D76;" d="M69.284,50.279c7.004,0,14.009,0.003,20.998,0.008c2.555,0.025,4.904,2.374,4.929,4.914
			c0.011,9.389,0.011,18.779,0,28.152c-0.028,2.502-2.239,4.793-4.738,4.919c-1.563,0.016-3.126,0.02-4.69,0.02l-2.725-0.003
			l-2.73-0.003c-1.39,0-2.78,0.003-4.17,0.015c-0.491,0.004-0.958,0.211-1.292,0.571c-0.333,0.36-0.503,0.842-0.47,1.332
			c0.136,1.981,1.241,3.714,2.888,4.532c0.476,0.254,0.957,0.399,1.423,0.481c-3.141-0.001-6.283-0.002-9.424-0.002
			c-3.124,0-6.247,0-9.371,0.001c2.335-0.447,4.183-2.583,4.26-5.082c0.015-0.479-0.164-0.944-0.497-1.29
			c-0.332-0.345-0.79-0.542-1.27-0.546c-1.351-0.01-2.702-0.013-4.054-0.013l-2.742,0.003l-2.736,0.003
			c-1.593,0-3.185-0.004-4.777-0.02c-2.502-0.124-4.713-2.416-4.738-4.903c-0.011-9.389-0.011-18.779,0-28.156
			c0.024-2.554,2.372-4.902,4.913-4.926C55.276,50.282,62.28,50.279,69.284,50.279 M69.285,53.647l-20.787-0.002
			c-0.472,0-0.926,0.188-1.26,0.522c-0.334,0.334-0.522,0.787-0.522,1.26c0.002,9.238,0.004,18.476,0,27.716
			c0,0.472,0.187,0.926,0.521,1.26c0.334,0.334,0.787,0.522,1.259,0.522c0,0,0,0,0,0l20.787-0.002l20.787,0.002
			c0.473,0,0.926-0.188,1.26-0.522c0.334-0.334,0.522-0.787,0.521-1.26c-0.004-9.24-0.002-18.478,0-27.716
			c0-0.472-0.188-0.926-0.522-1.26c-0.334-0.334-0.787-0.522-1.259-0.522c0,0,0,0,0,0L69.285,53.647 M69.284,48.498
			c-7.005,0-14.01,0.003-21.014,0.008c-3.531,0.032-6.66,3.161-6.692,6.69c-0.011,9.392-0.011,18.784,0,28.174
			c0.035,3.451,3.022,6.532,6.469,6.681c1.609,0.016,3.218,0.02,4.827,0.02c1.826,0,3.653-0.005,5.479-0.005
			c1.347,0,2.693,0.003,4.04,0.013c-0.054,1.758-1.49,3.382-3.284,3.44c-0.159,0.02-0.323,0.027-0.491,0.027
			c-0.351,0-0.715-0.03-1.071-0.03c-0.593,0-1.163,0.083-1.61,0.525c-0.788,0.777-0.433,1.975-0.509,2.958
			c4.619-0.002,9.238-0.003,13.857-0.003S78.522,96.998,83.142,97c-0.011-0.652,0.03-1.306-0.022-1.953
			c-0.071-0.762-0.73-1.422-1.492-1.49c-0.23-0.022-0.464-0.028-0.699-0.028c-0.284,0-0.571,0.009-0.856,0.009
			c-0.682,0-1.355-0.05-1.972-0.386c-1.163-0.565-1.84-1.81-1.927-3.07c1.385-0.012,2.769-0.015,4.155-0.015
			c1.818,0,3.637,0.006,5.455,0.006c1.58,0,3.161-0.004,4.741-0.021c3.445-0.152,6.428-3.232,6.467-6.679
			c0.011-9.392,0.011-18.784,0-28.174c-0.035-3.531-3.163-6.658-6.692-6.692C83.294,48.501,76.289,48.498,69.284,48.498
			L69.284,48.498z M90.072,55.426c-0.002,9.238-0.004,18.477,0,27.718c-6.929-0.001-13.858-0.002-20.787-0.002
			s-13.858,0.001-20.787,0.002c0.004-9.241,0.002-18.479,0-27.718c6.929,0.001,13.858,0.002,20.787,0.002
			S83.143,55.427,90.072,55.426L90.072,55.426z"/>
	</g>
</g>
<g>
	<path style="fill:#E1945C;" d="M13.869,51.97c2.302-0.011,4.605-0.013,6.909,0.002c0.004,8.73,0.011,17.459,0.006,26.189
		c0.019,0.981-0.117,2.024,0.314,2.945c0.539,1.206,1.81,2.042,3.135,2.029c4.618,0.019,9.234-0.004,13.852,0.011
		c0.028,2.531,0.996,4.988,2.626,6.915c-5.489,0.022-10.977,0.002-16.466,0.009c-2.722,0.009-5.426-1.113-7.34-3.048
		c-1.938-1.912-3.057-4.618-3.048-7.34C13.86,70.445,13.86,61.207,13.869,51.97z"/>
</g>
<linearGradient id="SVGID_5_" gradientUnits="userSpaceOnUse" x1="17.1679" y1="69.003" x2="39" y2="69.003">
	<stop  offset="0" style="stop-color:#F3B573"/>
	<stop  offset="1" style="stop-color:#FFFFFF"/>
</linearGradient>
<path style="fill:none;stroke:url(#SVGID_5_);stroke-miterlimit:10;" d="M17.757,52.007l-0.089,28.48
	c0.336,2.709,1.601,5.012,4.166,5.012H39"/>
<g>
	<g>
		<path style="fill-rule:evenodd;clip-rule:evenodd;fill:#ED4106;" d="M18.894,90.571C9.757,90.571,2.323,83.138,2.323,74
			s7.434-16.571,16.571-16.571S35.465,64.862,35.465,74S28.031,90.571,18.894,90.571z"/>
		<path style="fill:#FFFFFF;" d="M18.894,58.858c8.349,0,15.142,6.793,15.142,15.142s-6.793,15.142-15.142,15.142
			S3.752,82.349,3.752,74S10.545,58.858,18.894,58.858 M18.894,56c-9.941,0-18,8.059-18,18s8.059,18,18,18s18-8.059,18-18
			S28.835,56,18.894,56L18.894,56z"/>
	</g>
	<path style="fill:#FFFFFF;" d="M21.563,74l4.227-4.227c0.709-0.709,0.709-1.859,0-2.568c-0.709-0.709-1.859-0.709-2.568,0
		l-4.227,4.227l-4.227-4.227c-0.709-0.709-1.859-0.709-2.568,0c-0.709,0.709-0.709,1.859,0,2.568L16.426,74L12.2,78.227
		c-0.709,0.709-0.709,1.859,0,2.568c0.354,0.354,0.819,0.532,1.284,0.532s0.93-0.178,1.284-0.532l4.227-4.227l4.227,4.227
		c0.354,0.354,0.819,0.532,1.284,0.532s0.93-0.178,1.284-0.532c0.709-0.709,0.709-1.859,0-2.568L21.563,74z"/>
</g>
</svg>
