<?xml version="1.0" encoding="iso-8859-1"?>

<svg version="1.1" id="Capa_1" xmlns="http://www.w3.org/2000/svg" xmlns:xlink="http://www.w3.org/1999/xlink" x="0px" y="0px"
	 viewBox="0 0 97 97" style="enable-background:new 0 0 97 97;" xml:space="preserve">
<g>
	<g>
		
			<linearGradient id="SVGID_1_" gradientUnits="userSpaceOnUse" x1="-93.367" y1="157.878" x2="57.7288" y2="-9.9309" gradientTransform="matrix(1 0 0 -1 0 49.1768)">
			<stop  offset="0" style="stop-color:#32A5AE"/>
			<stop  offset="1" style="stop-color:#FFFFFF"/>
		</linearGradient>
		<path style="fill-rule:evenodd;clip-rule:evenodd;fill:url(#SVGID_1_);" d="M11.136,96C9.063,96,7,94.285,7,92.011V4.86
			C7,2.624,9.029,1,11.136,1h74.373C87.71,1,89,2.732,89,4.86V68.43L62.372,96H11.136z"/>
		<path style="fill:#028189;" d="M85.505,2C87.182,2,88,3.256,88,4.86V68.02L61.953,95H11.136C9.405,95,8,93.496,8,92.011V4.86
			C8,3.176,9.584,2,11.136,2H86 M85.509,0H11.136C8.431,0,6,2.101,6,4.86v87.15C6,94.77,8.431,97,11.136,97h51.655L90,68.839V4.86
			C90,2.101,87.964,0,85.259,0H85.509z"/>
	</g>
	<g>
		
			<linearGradient id="SVGID_2_" gradientUnits="userSpaceOnUse" x1="74.7104" y1="-32.6216" x2="64.2073" y2="-20.5392" gradientTransform="matrix(1 0 0 -1 0 49.1768)">
			<stop  offset="0" style="stop-color:#32A5AE"/>
			<stop  offset="1" style="stop-color:#FFFFFF"/>
		</linearGradient>
		<path style="fill-rule:evenodd;clip-rule:evenodd;fill:url(#SVGID_2_);" d="M63,74.825C63,72.48,65.663,70,67.709,70h20.366
			L63,95.5V74.825z"/>
		<path style="fill:#028189;" d="M85.611,71L64,93.021V74.825C64,73.074,66.239,71,67.709,71H86 M90.427,69h0.005H90.427z
			 M90.427,69H67.709C65.004,69,62,72.069,62,74.825v23.153L90.177,69H90.427z"/>
	</g>
</g>
<rect x="41" y="13" style="fill:#F2AA0A;" width="43" height="52"/>
<g>
	<path style="fill:#016F72;" d="M24.921,41.047c4.423-0.416,5.983-0.988,5.983-3.018c0-1.613-1.457-2.862-4.371-2.862
		c-2.81,0-5.151,1.145-7.024,3.434l-3.85-3.278c2.549-3.59,6.144-5.359,10.774-5.359c6.504,0,10.566,3.122,10.566,8.481v11.603
		C37,51.87,37.669,52,39.178,52H39v4.917c0,0.364-1.446,0.573-2.747,0.573c-1.405,0-2.414-0.417-3.247-1.249
		c-0.364-0.364-0.635-0.937-0.895-1.718c-1.821,2.134-4.766,3.227-8.877,3.227c-5.776,0-9.668-3.174-9.668-7.961
		C13.567,44.43,17.168,41.724,24.921,41.047z M24.24,52.442c4.163,0,6.76-1.873,6.76-5.203v-2.914c0,0.312-0.776,0.572-1.349,0.78
		c-1.197,0.417-2.001,0.521-4.499,0.781c-3.642,0.416-5.451,1.561-5.451,3.382C19.701,51.298,21.378,52.442,24.24,52.442z"/>
	<path style="fill:#016F72;" d="M44.278,57l17.951-38.036L80.129,57h-6.92l-3.227-7H54.373l-3.227,7H44.278z M56.818,44h10.719
		l-5.359-11.811L56.818,44z"/>
</g>
</svg>
