<?xml version="1.0" encoding="iso-8859-1"?>

<svg version="1.1" id="Capa_1" xmlns="http://www.w3.org/2000/svg" xmlns:xlink="http://www.w3.org/1999/xlink" x="0px" y="0px"
	 viewBox="0 0 97 97" style="enable-background:new 0 0 97 97;" xml:space="preserve">
<linearGradient id="SVGID_1_" gradientUnits="userSpaceOnUse" x1="22.8282" y1="88.9057" x2="70.5089" y2="47.4575">
	<stop  offset="0" style="stop-color:#038890"/>
	<stop  offset="0.0192" style="stop-color:#128F96"/>
	<stop  offset="0.0906" style="stop-color:#43A6AC"/>
	<stop  offset="0.1674" style="stop-color:#70BBC0"/>
	<stop  offset="0.2481" style="stop-color:#96CED1"/>
	<stop  offset="0.3336" style="stop-color:#B7DDDF"/>
	<stop  offset="0.4252" style="stop-color:#D1E9EB"/>
	<stop  offset="0.5254" style="stop-color:#E6F3F4"/>
	<stop  offset="0.6385" style="stop-color:#F4FAFA"/>
	<stop  offset="0.775" style="stop-color:#FCFEFE"/>
	<stop  offset="1" style="stop-color:#FFFFFF"/>
</linearGradient>
<path style="opacity:0.9;fill:url(#SVGID_1_);" d="M46.783,45.508l34.973,14.887c-1.591,5.454-6.59,19.769-17.724,34.767
	C37.367,93.227,17.152,82.524,1.996,64.94c18.622-0.823,33.631-7.351,44.765-19.997"/>
<linearGradient id="SVGID_2_" gradientUnits="userSpaceOnUse" x1="74.6136" y1="14.9213" x2="85.8438" y2="20.158">
	<stop  offset="0" style="stop-color:#036973"/>
	<stop  offset="0.3153" style="stop-color:#036973"/>
	<stop  offset="0.3338" style="stop-color:#066D77"/>
	<stop  offset="0.4832" style="stop-color:#19858F"/>
	<stop  offset="0.6396" style="stop-color:#2797A0"/>
	<stop  offset="0.8061" style="stop-color:#2FA2AB"/>
	<stop  offset="1" style="stop-color:#32A5AE"/>
</linearGradient>
<path style="fill:url(#SVGID_2_);stroke:#028189;stroke-width:2.9761;stroke-linecap:round;stroke-linejoin:round;stroke-miterlimit:22.9256;" d="
	M88.866,3.786c-0.989-1.185-2.272-1.832-3.791-2.057c-1.655-0.245-2.547,0.186-3.311,1.626c-4.584,8.59-9.158,17.171-13.742,25.761
	c-0.147,0.264-0.274,0.549-0.411,0.823c0.108,0.098,0.157,0.176,0.235,0.215c3.654,1.626,7.317,3.262,11.019,4.907
	c0.108-0.215,0.176-0.323,0.225-0.421c3.409-9.403,6.807-18.826,10.226-28.229C89.679,5.421,89.513,4.569,88.866,3.786z"/>
<linearGradient id="SVGID_3_" gradientUnits="userSpaceOnUse" x1="48.8833" y1="44.2783" x2="85.0869" y2="44.2783">
	<stop  offset="0" style="stop-color:#036973"/>
	<stop  offset="0.3153" style="stop-color:#036973"/>
	<stop  offset="0.3338" style="stop-color:#066D77"/>
	<stop  offset="0.4832" style="stop-color:#19858F"/>
	<stop  offset="0.6396" style="stop-color:#2797A0"/>
	<stop  offset="0.8061" style="stop-color:#2FA2AB"/>
	<stop  offset="1" style="stop-color:#32A5AE"/>
</linearGradient>
<path style="fill:url(#SVGID_3_);stroke:#028189;stroke-width:2.9761;stroke-linecap:round;stroke-linejoin:round;stroke-miterlimit:22.9256;" d="
	M78.209,40.311c-4.653-2.155-9.354-4.222-14.056-6.269c-3.654-1.597-7.258-1.361-10.706,0.666c-2.067,1.215-3.595,2.929-4.564,5.191
	c11.764,5.23,23.439,10.432,35.203,15.662c0.186-0.509,0.362-0.931,0.5-1.371C86.251,48.539,83.675,42.848,78.209,40.311z"/>
<path style="fill:none;stroke:#028189;stroke-width:2.9761;stroke-linecap:round;stroke-linejoin:round;stroke-miterlimit:22.9256;" d="
	M81.254,60.897c-1.591,5.454-6.59,19.769-17.724,34.767C36.866,93.729,16.65,83.025,1.495,65.442
	c18.622-0.823,33.631-7.351,44.765-19.997"/>
<path style="fill:none;stroke:#028189;stroke-width:2.9761;stroke-linecap:round;stroke-linejoin:round;stroke-miterlimit:22.9256;" d="
	M32.065,88.224c11.289-0.657,20.074-5.406,26.363-14.236"/>
<path style="fill:none;stroke:#028189;stroke-width:2.9761;stroke-linecap:round;stroke-linejoin:round;stroke-miterlimit:22.9256;" d="
	M14.653,77.561c7.986,1.162,14.487-1.232,19.86-6.333"/>
<linearGradient id="SVGID_4_" gradientUnits="userSpaceOnUse" x1="63.5052" y1="45.6618" x2="82.4554" y2="45.6618" gradientTransform="matrix(0.9998 0.0188 -0.0188 0.9998 0.8714 -1.383)">
	<stop  offset="0.4975" style="stop-color:#FFFFFF;stop-opacity:0"/>
	<stop  offset="1" style="stop-color:#FFFFFF;stop-opacity:0.5"/>
</linearGradient>
<path style="fill:url(#SVGID_4_);" d="M78.884,43.632c-2.321-1.128-4.666-2.215-7.012-3.29c-1.92-0.88-4.188-0.909-6.012,0.156
	c-1.01,0.59-1.778,1.413-2.295,2.492c-0.035,0.073-0.002,0.165,0.071,0.199c6.075,2.839,12.105,5.663,18.181,8.502
	c0.103-0.265,0.199-0.485,0.276-0.715C83.022,48.028,81.726,45.017,78.884,43.632z"/>
<linearGradient id="SVGID_5_" gradientUnits="userSpaceOnUse" x1="73.9523" y1="14.8055" x2="84.2697" y2="19.6166">
	<stop  offset="0.4975" style="stop-color:#FFFFFF;stop-opacity:0"/>
	<stop  offset="1" style="stop-color:#FFFFFF;stop-opacity:0.5"/>
</linearGradient>
<path style="fill:url(#SVGID_5_);" d="M86.905,4.33c-0.906-1.108-2.081-1.712-3.471-1.922c-1.516-0.229-2.332,0.174-3.032,1.519
	c-4.198,8.027-8.387,16.045-12.584,24.072c-0.135,0.247-0.251,0.513-0.377,0.769c0.099,0.092,0.144,0.165,0.215,0.201
	c3.346,1.519,6.7,3.048,10.091,4.586c0.099-0.201,0.161-0.302,0.206-0.394c3.121-8.787,6.234-17.592,9.364-26.378
	C87.65,5.858,87.497,5.062,86.905,4.33z"/>
</svg>
