<?xml version="1.0" encoding="iso-8859-1"?>

<svg version="1.1" xmlns="http://www.w3.org/2000/svg" xmlns:xlink="http://www.w3.org/1999/xlink" x="0px" y="0px"
	 viewBox="0 0 97 97" style="enable-background:new 0 0 97 97;" xml:space="preserve">
<g id="Capa_1">
	<g id="XMLID_1_">
		<linearGradient id="XMLID_11_" gradientUnits="userSpaceOnUse" x1="14.9282" y1="82.0718" x2="82.0718" y2="14.9282">
			<stop  offset="0" style="stop-color:#036973"/>
			<stop  offset="1" style="stop-color:#32A5AE"/>
		</linearGradient>
		<path id="XMLID_21_" style="fill:url(#XMLID_11_);" d="M48.5,96C22.309,96,1,74.691,1,48.5S22.309,1,48.5,1S96,22.309,96,48.5
			S74.691,96,48.5,96z"/>
		<path id="XMLID_18_" style="fill:#028189;" d="M48.5,2C74.14,2,95,22.86,95,48.5S74.14,95,48.5,95S2,74.14,2,48.5S22.86,2,48.5,2
			 M48.5,0C21.714,0,0,21.714,0,48.5S21.714,97,48.5,97S97,75.286,97,48.5S75.286,0,48.5,0L48.5,0z"/>
	</g>
	<path id="XMLID_6_" style="fill:#FFFFFF;" d="M31,69h49v-7H31V69z M31,52h49v-7H31V52z M31,34h49v-7H31V34z"/>
	<path id="XMLID_2_" style="fill:#FFFFFF;" d="M17,69h7v-7h-7V69z M17,52h7v-7h-7V52z M17,34h7v-7h-7V34z"/>
</g>
<g id="Capa_2">
</g>
</svg>
