<?xml version="1.0" encoding="iso-8859-1"?>

<svg version="1.1" id="Capa_1" xmlns="http://www.w3.org/2000/svg" xmlns:xlink="http://www.w3.org/1999/xlink" x="0px" y="0px"
	 viewBox="0 0 97 97" style="enable-background:new 0 0 97 97;" xml:space="preserve">
<g>
	<g>
		
			<linearGradient id="SVGID_1_" gradientUnits="userSpaceOnUse" x1="-98.6065" y1="156.6392" x2="52.075" y2="-10.7096" gradientTransform="matrix(-1 0 0 1 85 48.8015)">
			<stop  offset="0" style="stop-color:#32A5AE"/>
			<stop  offset="1" style="stop-color:#FFFFFF"/>
		</linearGradient>
		<path style="fill-rule:evenodd;clip-rule:evenodd;fill:url(#SVGID_1_);" d="M5.491,96C3.29,96,1,94.247,1,92.118V28.549L28.628,1
			h51.236C81.937,1,83,2.693,83,4.967v87.151C83,94.355,81.971,96,79.864,96H5.491z"/>
		<path style="fill:#028189;" d="M79.864,2C81.595,2,82,3.482,82,4.968v87.15C82,93.802,81.416,95,79.864,95H5.491
			C3.814,95,2,93.722,2,92.118V28.959L29.047,2H80 M79.864,0H28.209L0,28.14v63.978C0,94.877,2.786,97,5.491,97h74.373
			C82.569,97,84,94.877,84,92.118V4.968C84,2.209,82.569,0,79.864,0L79.864,0z"/>
	</g>
	<g>
		
			<linearGradient id="SVGID_2_" gradientUnits="userSpaceOnUse" x1="69.3857" y1="-33.8126" x2="58.6113" y2="-21.4181" gradientTransform="matrix(-1 0 0 1 85 48.8015)">
			<stop  offset="0" style="stop-color:#32A5AE"/>
			<stop  offset="1" style="stop-color:#FFFFFF"/>
		</linearGradient>
		<path style="fill-rule:evenodd;clip-rule:evenodd;fill:url(#SVGID_2_);" d="M2.925,27L27,1.479v20.674
			C27,24.498,25.336,27,23.291,27H2.925z"/>
		<path style="fill:#028189;" d="M26,4v18.153C26,23.905,24.761,26,23.291,26H5.278L26,3.957 M28-1L0.573,28h22.718
			C25.996,28,28,24.91,28,22.153V-1L28-1z"/>
	</g>
</g>
<g id="XMLID_31_">
	<g id="XMLID_66_">
		<path style="fill:#F18704;" d="M85.724,37.751c-1.067,0-2.188-0.509-3.073-1.397L69.8,23.5c-1.582-1.59-1.856-3.799-0.626-5.032
			l6.905-6.91c0.495-0.496,1.189-0.77,1.955-0.77c1.066,0,2.188,0.509,3.075,1.396l12.849,12.856
			c1.583,1.588,1.856,3.798,0.624,5.032l-6.903,6.908C87.184,37.477,86.489,37.751,85.724,37.751z"/>
		<path style="fill:#257A80;" d="M78.034,11.925c0.731,0,1.58,0.371,2.272,1.063l12.848,12.856c1.118,1.121,1.396,2.652,0.624,3.426
			l-6.904,6.907c-0.295,0.296-0.7,0.438-1.151,0.438c-0.729,0-1.578-0.371-2.269-1.064L70.604,22.697
			c-1.118-1.123-1.398-2.653-0.626-3.425l6.904-6.91C77.177,12.067,77.583,11.925,78.034,11.925 M78.034,9.653L78.034,9.653
			c-1.069,0-2.048,0.392-2.759,1.103l-6.904,6.91c-1.681,1.682-1.407,4.596,0.623,6.635l12.854,12.857
			c1.096,1.098,2.509,1.729,3.875,1.729c1.07,0,2.05-0.393,2.761-1.106l6.901-6.904c1.682-1.685,1.408-4.599-0.622-6.636
			l-12.85-12.858C80.814,10.283,79.4,9.653,78.034,9.653L78.034,9.653z"/>
	</g>
	<g id="XMLID_61_">
		<path style="fill:#FCE0C3;" d="M28.367,79.593c-0.288,0-0.569-0.11-0.782-0.315c-0.285-0.274-0.406-0.679-0.317-1.064
			l5.223-22.784c0.092-0.4,0.394-0.719,0.788-0.832c0.103-0.029,0.208-0.044,0.312-0.044c0.295,0,0.583,0.116,0.798,0.331
			l16.814,16.827c0.284,0.284,0.396,0.699,0.292,1.088s-0.407,0.693-0.796,0.798l-22.037,5.957
			C28.564,79.58,28.465,79.593,28.367,79.593z"/>
		<path style="fill:#257A80;" d="M33.59,55.681l16.814,16.827l-22.037,5.957L33.59,55.681 M33.59,53.425
			c-0.208,0-0.417,0.029-0.623,0.088c-0.789,0.227-1.392,0.864-1.576,1.664l-5.223,22.784c-0.177,0.772,0.064,1.581,0.635,2.13
			c0.426,0.41,0.988,0.63,1.564,0.63c0.196,0,0.394-0.026,0.589-0.078l22.037-5.957c0.777-0.21,1.383-0.818,1.591-1.596
			c0.208-0.778-0.015-1.607-0.584-2.177L35.186,54.086C34.757,53.657,34.18,53.425,33.59,53.425L33.59,53.425z"/>
	</g>
	<linearGradient id="XMLID_10_" gradientUnits="userSpaceOnUse" x1="45.6792" y1="76.9275" x2="37.6119" y2="68.6869">
		<stop  offset="0.1675" style="stop-color:#F18704;stop-opacity:0.65"/>
		<stop  offset="1" style="stop-color:#F18704;stop-opacity:0"/>
	</linearGradient>
	<polygon id="XMLID_18_" style="fill:url(#XMLID_10_);" points="40.474,65.617 34.42,71.446 38.531,75.668 47.984,73.239 	"/>
	<g id="XMLID_52_">
		<polygon style="fill:#FFFFFF;" points="29.545,68.276 38.237,76.969 26.848,80.043 		"/>
		<path style="fill:#257A80;" d="M30.189,70.515l5.871,5.872l-7.693,2.077L30.189,70.515 M28.901,66.036l-0.911,3.975l-1.822,7.95
			l-0.839,3.661l3.626-0.979l7.693-2.077l3.764-1.016l-2.757-2.757l-5.871-5.872L28.901,66.036L28.901,66.036z"/>
	</g>
	<g id="XMLID_49_">
		<path style="fill:#FCD29F;" d="M50.404,73.636c-0.3,0-0.586-0.119-0.798-0.331L32.792,56.478c-0.44-0.44-0.44-1.153,0-1.595
			l36.556-36.579c0.212-0.212,0.499-0.331,0.798-0.331s0.586,0.119,0.798,0.331L87.759,35.13c0.44,0.44,0.44,1.154,0,1.595
			L51.202,73.306C50.99,73.517,50.703,73.636,50.404,73.636L50.404,73.636z"/>
		<path style="fill:#257A80;" d="M70.146,19.101l16.815,16.826L50.404,72.508L33.59,55.681L70.146,19.101 M70.146,16.845
			c-0.599,0-1.173,0.238-1.596,0.661l-36.556,36.58c-0.88,0.881-0.88,2.308,0,3.189l16.814,16.827
			c0.423,0.423,0.997,0.661,1.596,0.661c0.599,0,1.173-0.238,1.596-0.661l36.557-36.581c0.88-0.881,0.88-2.309,0-3.19L71.741,17.507
			C71.318,17.083,70.744,16.845,70.146,16.845L70.146,16.845z"/>
	</g>
	<g id="XMLID_48_">
		<path style="fill:#F0F1F1;" d="M86.977,37.071c-0.3,0-0.587-0.119-0.798-0.331L69.348,19.899c-0.44-0.441-0.44-1.155-0.001-1.596
			l3.034-3.037c0.212-0.211,0.499-0.331,0.799-0.331c0.299,0,0.587,0.119,0.798,0.331l16.834,16.841c0.44,0.441,0.44,1.155,0,1.596
			l-3.037,3.038C87.563,36.952,87.276,37.071,86.977,37.071L86.977,37.071z"/>
		<path style="fill:#257A80;" d="M73.18,16.064l16.833,16.841l-3.037,3.038L70.146,19.101L73.18,16.064 M73.18,13.807L73.18,13.807
			c-0.599,0-1.173,0.238-1.597,0.662l-3.034,3.037c-0.881,0.881-0.88,2.31,0,3.191L85.38,37.538
			c0.423,0.424,0.998,0.662,1.596,0.662c0.599,0,1.173-0.238,1.596-0.661L91.61,34.5c0.881-0.881,0.881-2.31,0-3.191L74.776,14.469
			C74.353,14.045,73.779,13.807,73.18,13.807L73.18,13.807z"/>
	</g>
	<g id="XMLID_17_">
		
			<linearGradient id="SVGID_3_" gradientUnits="userSpaceOnUse" x1="77.7903" y1="72.7958" x2="97.658" y2="72.7958" gradientTransform="matrix(-1 -2.387182e-004 2.402762e-004 -1 167.7836 98.8201)">
			<stop  offset="0" style="stop-color:#B7DCE0"/>
			<stop  offset="0.1613" style="stop-color:#C2E1E5"/>
			<stop  offset="0.4418" style="stop-color:#DEEFF1"/>
			<stop  offset="0.7043" style="stop-color:#FFFFFF"/>
		</linearGradient>
		<polygon style="fill:url(#SVGID_3_);" points="73.182,16.063 90.009,32.908 86.974,35.944 70.145,19.1 		"/>
	</g>
	<g id="XMLID_35_">
		<polygon style="fill:#F18704;" points="50.404,72.508 41.921,64.017 76.73,28.834 85.416,37.568 		"/>
	</g>
	<g id="XMLID_19_">
		<linearGradient id="SVGID_4_" gradientUnits="userSpaceOnUse" x1="33.6429" y1="78.7834" x2="27.7711" y2="72.9116">
			<stop  offset="0" style="stop-color:#F18704;stop-opacity:0.65"/>
			<stop  offset="0.6677" style="stop-color:#F18704;stop-opacity:0"/>
		</linearGradient>
		<polygon style="fill:url(#SVGID_4_);" points="30.214,70.469 28.392,78.418 36.085,76.341 		"/>
	</g>
</g>
</svg>
