<?xml version="1.0" encoding="iso-8859-1"?>

<svg version="1.1" id="Capa_1" xmlns="http://www.w3.org/2000/svg" xmlns:xlink="http://www.w3.org/1999/xlink" x="0px" y="0px"
	 viewBox="0 0 97 97" style="enable-background:new 0 0 97 97;" xml:space="preserve">
<g>
	<g>
		
			<linearGradient id="SVGID_1_" gradientUnits="userSpaceOnUse" x1="-84.9224" y1="189.2852" x2="43.5644" y2="46.5862" gradientTransform="matrix(1 0 0 1 0 -0.1338)">
			<stop  offset="0" style="stop-color:#32A5AE"/>
			<stop  offset="1" style="stop-color:#FFFFFF"/>
		</linearGradient>
		<path style="fill-rule:evenodd;clip-rule:evenodd;fill:url(#SVGID_1_);" d="M3.608,96C1.895,96,1,94.379,1,92.775V19.224
			C1,17.621,1.895,16,3.608,16h44.926l21.577,22.815l-0.989,53.941c0,1.768-1.348,3.243-2.943,3.243H3.608z"/>
		<path style="fill:#028189;" d="M48.104,17l21.002,22.206l-0.981,53.569c0,1.187-0.91,2.225-1.947,2.225H3.608
			C2.549,95,2,93.883,2,92.776V19.224C2,18.117,2.549,17,3.608,17H48 M48.964,15H3.608C1.44,15,0,16.938,0,19.224v73.551
			C0,95.062,1.44,97,3.608,97h62.57c2.168,0,3.942-1.938,3.942-4.224l0.995-54.351L48.964,15L48.964,15z"/>
	</g>
	<g>
		
			<linearGradient id="SVGID_2_" gradientUnits="userSpaceOnUse" x1="57.7418" y1="27.7649" x2="49.1924" y2="37.5999" gradientTransform="matrix(1 0 0 1 0 -0.1338)">
			<stop  offset="0" style="stop-color:#32A5AE"/>
			<stop  offset="1" style="stop-color:#FFFFFF"/>
		</linearGradient>
		<path style="fill-rule:evenodd;clip-rule:evenodd;fill:url(#SVGID_2_);" d="M51.52,37.002c-1.732,0-2.522-1.656-2.522-3.194
			V17.163l18.442,19.839H51.52z"/>
		<path style="fill:#028189;" d="M49.995,19.702L65.15,36.005H51.52c-1.203,0-1.524-1.38-1.524-2.196V19.702 M48,14.624v19.185
			C48,36.093,49.351,38,51.52,38h18.21L48,14.624L48,14.624z"/>
	</g>
	
		<line style="fill-rule:evenodd;clip-rule:evenodd;fill:none;stroke:#028189;stroke-width:3;stroke-linecap:round;stroke-linejoin:round;stroke-miterlimit:22.9256;" x1="11.5" y1="80.5" x2="60.5" y2="80.5"/>
	
		<line style="fill-rule:evenodd;clip-rule:evenodd;fill:none;stroke:#028189;stroke-width:3;stroke-linecap:round;stroke-linejoin:round;stroke-miterlimit:22.9256;" x1="11.5" y1="60.5" x2="60.5" y2="60.5"/>
	
		<line style="fill-rule:evenodd;clip-rule:evenodd;fill:none;stroke:#028189;stroke-width:3;stroke-linecap:round;stroke-linejoin:round;stroke-miterlimit:22.9256;" x1="11.5" y1="70.5" x2="60.5" y2="70.5"/>
	
		<line style="fill-rule:evenodd;clip-rule:evenodd;fill:none;stroke:#028189;stroke-width:3;stroke-linecap:round;stroke-linejoin:round;stroke-miterlimit:22.9256;" x1="11.5" y1="50.5" x2="60.5" y2="50.5"/>
	
		<line style="fill-rule:evenodd;clip-rule:evenodd;fill:none;stroke:#028189;stroke-width:3;stroke-linecap:round;stroke-linejoin:round;stroke-miterlimit:22.9256;" x1="11.5" y1="40.5" x2="37.5" y2="40.5"/>
</g>
<path style="fill-rule:evenodd;clip-rule:evenodd;fill:#FFFFFF;" d="M82.031,0H39.803C27.42,7.291,19.1,20.791,19.1,36.25
	c0,23.196,18.72,42,41.812,42c15.39,0,28.829-8.358,36.088-20.796V15.046C93.376,8.836,88.21,3.643,82.031,0z"/>
<g>
	<g>
		<linearGradient id="SVGID_3_" gradientUnits="userSpaceOnUse" x1="35.8775" y1="62.1772" x2="83.2355" y2="13.1366">
			<stop  offset="0" style="stop-color:#167F86"/>
			<stop  offset="0.0681" style="stop-color:#348F96"/>
			<stop  offset="0.2031" style="stop-color:#69ADB1"/>
			<stop  offset="0.3398" style="stop-color:#97C6C9"/>
			<stop  offset="0.4755" style="stop-color:#BDDADC"/>
			<stop  offset="0.61" style="stop-color:#DAEAEC"/>
			<stop  offset="0.743" style="stop-color:#EEF6F6"/>
			<stop  offset="0.8738" style="stop-color:#FBFDFD"/>
			<stop  offset="1" style="stop-color:#FFFFFF"/>
		</linearGradient>
		<path style="fill-rule:evenodd;clip-rule:evenodd;fill:url(#SVGID_3_);" d="M61.036,71.252c-19.28,0-34.966-15.758-34.966-35.128
			c0-19.369,15.686-35.126,34.966-35.126c19.28,0,34.966,15.758,34.966,35.126C96.002,55.494,80.316,71.252,61.036,71.252z"/>
		<path style="fill:#157880;" d="M61.036,1.996c18.73,0,33.968,15.31,33.968,34.128c0,18.82-15.238,34.131-33.968,34.131
			c-18.73,0-33.968-15.311-33.968-34.131C27.068,17.305,42.306,1.996,61.036,1.996 M61.036,0C41.175,0,25.073,16.174,25.073,36.124
			c0,19.952,16.102,36.126,35.964,36.126C80.899,72.25,97,56.076,97,36.124C97,16.174,80.899,0,61.036,0L61.036,0z"/>
	</g>
	<linearGradient id="SVGID_4_" gradientUnits="userSpaceOnUse" x1="56.5881" y1="-27.4871" x2="65.1899" y2="95.5247">
		<stop  offset="0" style="stop-color:#167F86"/>
		<stop  offset="0.0343" style="stop-color:#42979D"/>
		<stop  offset="0.0713" style="stop-color:#69ADB1"/>
		<stop  offset="0.1134" style="stop-color:#8DC0C4"/>
		<stop  offset="0.1598" style="stop-color:#ACD2D4"/>
		<stop  offset="0.2116" style="stop-color:#C6E0E2"/>
		<stop  offset="0.2709" style="stop-color:#DBEBED"/>
		<stop  offset="0.3414" style="stop-color:#ECF4F5"/>
		<stop  offset="0.4309" style="stop-color:#F7FBFB"/>
		<stop  offset="0.5617" style="stop-color:#FDFEFE"/>
		<stop  offset="1" style="stop-color:#FFFFFF"/>
	</linearGradient>
	<ellipse style="fill-rule:evenodd;clip-rule:evenodd;fill:url(#SVGID_4_);" cx="61.036" cy="36.125" rx="29.149" ry="29.28"/>
	
		<line style="fill-rule:evenodd;clip-rule:evenodd;fill:none;stroke:#157880;stroke-width:7.6294;stroke-miterlimit:22.9256;" x1="72.592" y1="47.691" x2="54.209" y2="29.225"/>
	
		<line style="fill-rule:evenodd;clip-rule:evenodd;fill:none;stroke:#157880;stroke-width:7.6294;stroke-miterlimit:22.9256;" x1="78.59" y1="17.536" x2="54.7" y2="41.534"/>
	
		<ellipse style="fill-rule:evenodd;clip-rule:evenodd;fill:#FFFFFF;stroke:#157880;stroke-width:1.5259;stroke-linecap:round;stroke-linejoin:round;stroke-miterlimit:22.9256;" cx="60.381" cy="35.591" rx="4.542" ry="4.563"/>
</g>
</svg>
