<?xml version="1.0" encoding="iso-8859-1"?>
<svg version="1.1" id="Capa_1" xmlns="http://www.w3.org/2000/svg" xmlns:xlink="http://www.w3.org/1999/xlink" x="0px" y="0px"
	 viewBox="0 0 97 97" style="enable-background:new 0 0 97 97;" xml:space="preserve">
<g>
	<linearGradient id="SVGID_1_" gradientUnits="userSpaceOnUse" x1="48.2536" y1="19.6527" x2="-47.374" y2="103.2642">
		<stop  offset="0" style="stop-color:#FFFFFF"/>
		<stop  offset="0.0636" style="stop-color:#D4EAEC"/>
		<stop  offset="0.1515" style="stop-color:#A1D5D9"/>
		<stop  offset="0.2428" style="stop-color:#78C6C9"/>
		<stop  offset="0.3369" style="stop-color:#4DBBBE"/>
		<stop  offset="0.4351" style="stop-color:#27B4B7"/>
		<stop  offset="0.5398" style="stop-color:#00B0B5"/>
		<stop  offset="0.7809" style="stop-color:#00AFB3"/>
	</linearGradient>
	<path style="fill:url(#SVGID_1_);" d="M77,24.132C77,25.164,76.164,26,75.132,26H22.868C21.836,26,21,25.164,21,24.132V13.868
		C21,12.836,21.836,12,22.868,12h52.265C76.164,12,77,12.836,77,13.868V24.132z"/>
	<g>
		<g>
			<path style="fill:#016F72;" d="M52,25h-3v-6.497l0.333-1.135l0.195-1.241c-0.42,0.419-0.634,0.694-0.797,0.825l-1.334,1.103
				L46.2,16.299L50.066,13H52V25z"/>
			<path style="fill:#016F72;" d="M64,25h-8v-1.344l2.997-3.03c0.888-0.909,1.467-1.54,1.739-1.891s0.469-0.677,0.588-0.976
				c0.12-0.299,0.18-0.61,0.18-0.931c0-0.479-0.132-0.835-0.396-1.07c-0.265-0.234-0.617-0.351-1.058-0.351
				c-0.463,0-0.912,0.106-1.348,0.318s-0.891,0.515-1.364,0.907l-1.372-1.625c0.588-0.501,1.075-0.855,1.462-1.062
				c0.387-0.207,0.809-0.366,1.266-0.478c0.458-0.112,0.97-0.167,1.536-0.167c0.745,0,1.404,0.136,1.977,0.408
				c0.571,0.272,1.015,0.653,1.331,1.144c0.315,0.49,0.474,1.051,0.474,1.682c0,0.55-0.097,1.066-0.29,1.548
				s-0.493,0.976-0.898,1.482c-0.406,0.506-1.192,1.228-2.215,2.165L59,23.174V23h5V25z"/>
			<path style="fill:#016F72;" d="M75.335,16.019c0,0.746-0.603,1.38-1.055,1.903C73.828,18.444,73,18.804,72,19v0.049
				c1,0.12,2.07,0.412,2.565,0.878c0.496,0.465,0.932,1.093,0.932,1.882c0,1.149-0.322,2.043-1.155,2.683
				c-0.833,0.64-2.186,0.96-3.733,0.96c-1.296,0-2.61-0.215-3.61-0.646v-2.148c0,0.234,1.182,0.425,1.738,0.572
				s1.211,0.221,1.755,0.221c0.833,0,1.501-0.142,1.898-0.425s0.623-0.738,0.623-1.364c0-0.561-0.215-1.018-0.673-1.252
				C71.883,20.177,71.167,20,70.165,20H69v-2h1.182c0.926,0,1.602-0.03,2.029-0.272c0.428-0.242,0.642-0.611,0.642-1.199
				c0-0.904-0.566-1.333-1.699-1.333c-0.392,0-0.791,0.077-1.196,0.208c-0.405,0.13-0.856,0.362-1.352,0.683l-1.168-1.737
				c1.089-0.784,2.388-1.174,3.896-1.174c1.236,0,2.212,0.251,2.928,0.752S75.335,15.126,75.335,16.019z"/>
		</g>
	</g>
	<g>
		<linearGradient id="SVGID_2_" gradientUnits="userSpaceOnUse" x1="6.8679" y1="89.64" x2="90.1658" y2="6.3421">
			<stop  offset="0" style="stop-color:#036973"/>
			<stop  offset="1" style="stop-color:#32A5AE"/>
		</linearGradient>
		<path style="fill:url(#SVGID_2_);" d="M14.811,96C12.796,96,10,93.411,10,91.14V3.86C10,1.749,12.822,1,14.811,1h68.377
			C86.124,1,86,2.529,86,3.86V91.14c0,2.299-0.86,4.86-2.812,4.86H14.811z M79,10c0-0.552-0.448-1-1-1H18c-0.552,0-1,0.448-1,1v18
			c0,0.552,0.448,1,1,1h60c0.552,0,1-0.448,1-1V10z"/>
		<path style="fill:#028189;" d="M82.844,2C84.982,2,85,2.843,85,3.86v87.279C85,92.888,84.469,95,83.189,95H14.811
			C13.357,95,11,92.835,11,91.139V3.86C11,2.052,14.472,2,14.811,2H83 M18,30h60.5c1.105,0,1.5-0.895,1.5-2V10
			c0-1.105-0.395-2-1.5-2h-60C17.395,8,16,8.895,16,10v18C16,29.105,16.895,30,18,30 M83.189,0H14.811C12.154,0,9,1.176,9,3.86
			v87.279C9,93.824,12.154,97,14.811,97h68.378C85.846,97,87,93.824,87,91.139V3.86C87,1.176,85.596,0,82.939,0H83.189z M18,28V10
			h60v18H18L18,28z"/>
	</g>
	<g>
		<g>
			<linearGradient id="SVGID_3_" gradientUnits="userSpaceOnUse" x1="18.9276" y1="52.5724" x2="32.8949" y2="38.6051">
				<stop  offset="0.0895" style="stop-color:#32A5AE"/>
				<stop  offset="0.85" style="stop-color:#FFFFFF"/>
			</linearGradient>
			<path style="fill-rule:evenodd;clip-rule:evenodd;fill:url(#SVGID_3_);" d="M36,49.09c0,0.502-0.407,0.91-0.909,0.91H21.909
				C21.407,50,21,49.593,21,49.09V36.91c0-0.502,0.407-0.91,0.909-0.91h13.182C35.593,36,36,36.407,36,36.91V49.09z"/>
			<path style="fill:#028189;" d="M35,37v11H22V37H35 M34.786,35H22.017C21.013,35,20,35.647,20,36.652v11.697
				C20,49.354,21.013,50,22.017,50h12.769C35.79,50,37,49.354,37,48.349V36.652C37,35.647,35.79,35,34.786,35L34.786,35z"/>
		</g>
		<g>
			<linearGradient id="SVGID_4_" gradientUnits="userSpaceOnUse" x1="38.9276" y1="52.5724" x2="52.8949" y2="38.6051">
				<stop  offset="0.0895" style="stop-color:#32A5AE"/>
				<stop  offset="0.85" style="stop-color:#FFFFFF"/>
			</linearGradient>
			<path style="fill-rule:evenodd;clip-rule:evenodd;fill:url(#SVGID_4_);" d="M56,49.09c0,0.502-0.407,0.91-0.909,0.91H41.909
				C41.407,50,41,49.593,41,49.09V36.91c0-0.502,0.407-0.91,0.909-0.91h13.182C55.593,36,56,36.407,56,36.91V49.09z"/>
			<path style="fill:#028189;" d="M55,37v11H42V37H55 M54.884,35H42.116C41.111,35,40,35.647,40,36.652v11.697
				C40,49.354,41.111,50,42.116,50h12.769C55.889,50,57,49.354,57,48.349V36.652C57,35.647,55.889,35,54.884,35L54.884,35z"/>
		</g>
		<g>
			<linearGradient id="SVGID_5_" gradientUnits="userSpaceOnUse" x1="58.9276" y1="52.5724" x2="72.8949" y2="38.6051">
				<stop  offset="0.0895" style="stop-color:#32A5AE"/>
				<stop  offset="0.85" style="stop-color:#FFFFFF"/>
			</linearGradient>
			<path style="fill-rule:evenodd;clip-rule:evenodd;fill:url(#SVGID_5_);" d="M76,49.09c0,0.502-0.407,0.91-0.909,0.91H61.909
				C61.407,50,61,49.593,61,49.09V36.91c0-0.502,0.407-0.91,0.909-0.91h13.182C75.593,36,76,36.407,76,36.91V49.09z"/>
			<path style="fill:#028189;" d="M75,37v11H62V37H75 M74.983,35H62.214C61.21,35,60,35.647,60,36.652v11.697
				C60,49.354,61.21,50,62.214,50h12.769C75.987,50,77,49.354,77,48.349V36.652C77,35.647,75.987,35,74.983,35L74.983,35z"/>
		</g>
		<g>
			<linearGradient id="SVGID_6_" gradientUnits="userSpaceOnUse" x1="18.9275" y1="71.5725" x2="32.8949" y2="57.6051">
				<stop  offset="0.0895" style="stop-color:#32A5AE"/>
				<stop  offset="0.85" style="stop-color:#FFFFFF"/>
			</linearGradient>
			<path style="fill-rule:evenodd;clip-rule:evenodd;fill:url(#SVGID_6_);" d="M36,68.091C36,68.593,35.593,69,35.091,69H21.909
				C21.407,69,21,68.593,21,68.091V55.909C21,55.407,21.407,55,21.909,55h13.182C35.593,55,36,55.407,36,55.909V68.091z"/>
			<path style="fill:#028189;" d="M35,56v11H22V56H35 M34.786,54H22.017C21.013,54,20,54.647,20,55.652v11.697
				C20,68.354,21.013,69,22.017,69h12.769C35.79,69,37,68.354,37,67.349V55.652C37,54.647,35.79,54,34.786,54L34.786,54z"/>
		</g>
		<g>
			<linearGradient id="SVGID_7_" gradientUnits="userSpaceOnUse" x1="38.9275" y1="71.5725" x2="52.8949" y2="57.6051">
				<stop  offset="0.0895" style="stop-color:#32A5AE"/>
				<stop  offset="0.85" style="stop-color:#FFFFFF"/>
			</linearGradient>
			<path style="fill-rule:evenodd;clip-rule:evenodd;fill:url(#SVGID_7_);" d="M56,68.091C56,68.593,55.593,69,55.091,69H41.909
				C41.407,69,41,68.593,41,68.091V55.909C41,55.407,41.407,55,41.909,55h13.182C55.593,55,56,55.407,56,55.909V68.091z"/>
			<path style="fill:#028189;" d="M55,56v11H42V56H55 M54.884,54H42.116C41.111,54,40,54.647,40,55.652v11.697
				C40,68.354,41.111,69,42.116,69h12.769C55.889,69,57,68.354,57,67.349V55.652C57,54.647,55.889,54,54.884,54L54.884,54z"/>
		</g>
		<g>
			<linearGradient id="SVGID_8_" gradientUnits="userSpaceOnUse" x1="58.9275" y1="71.5725" x2="72.8949" y2="57.6051">
				<stop  offset="0.0895" style="stop-color:#32A5AE"/>
				<stop  offset="0.85" style="stop-color:#FFFFFF"/>
			</linearGradient>
			<path style="fill-rule:evenodd;clip-rule:evenodd;fill:url(#SVGID_8_);" d="M76,68.091C76,68.593,75.593,69,75.091,69H61.909
				C61.407,69,61,68.593,61,68.091V55.909C61,55.407,61.407,55,61.909,55h13.182C75.593,55,76,55.407,76,55.909V68.091z"/>
			<path style="fill:#028189;" d="M75,56v11H62V56H75 M74.983,54H62.214C61.21,54,60,54.647,60,55.652v11.697
				C60,68.354,61.21,69,62.214,69h12.769C75.987,69,77,68.354,77,67.349V55.652C77,54.647,75.987,54,74.983,54L74.983,54z"/>
		</g>
		<g>
			<linearGradient id="SVGID_9_" gradientUnits="userSpaceOnUse" x1="18.9275" y1="91.5725" x2="32.8949" y2="77.6051">
				<stop  offset="0.0895" style="stop-color:#32A5AE"/>
				<stop  offset="0.85" style="stop-color:#FFFFFF"/>
			</linearGradient>
			<path style="fill-rule:evenodd;clip-rule:evenodd;fill:url(#SVGID_9_);" d="M36,88.091C36,88.593,35.593,89,35.091,89H21.909
				C21.407,89,21,88.593,21,88.091V75.909C21,75.407,21.407,75,21.909,75h13.182C35.593,75,36,75.407,36,75.909V88.091z"/>
			<path style="fill:#028189;" d="M35,76v11H22V76H35 M34.786,74H22.017C21.013,74,20,74.647,20,75.652v11.697
				C20,88.354,21.013,89,22.017,89h12.769C35.79,89,37,88.354,37,87.349V75.652C37,74.647,35.79,74,34.786,74L34.786,74z"/>
		</g>
		<g>
			<linearGradient id="SVGID_10_" gradientUnits="userSpaceOnUse" x1="38.9275" y1="91.5725" x2="52.8949" y2="77.6051">
				<stop  offset="0.0895" style="stop-color:#32A5AE"/>
				<stop  offset="0.85" style="stop-color:#FFFFFF"/>
			</linearGradient>
			<path style="fill-rule:evenodd;clip-rule:evenodd;fill:url(#SVGID_10_);" d="M56,88.091C56,88.593,55.593,89,55.091,89H41.909
				C41.407,89,41,88.593,41,88.091V75.909C41,75.407,41.407,75,41.909,75h13.182C55.593,75,56,75.407,56,75.909V88.091z"/>
			<path style="fill:#028189;" d="M55,76v11H42V76H55 M54.884,74H42.116C41.111,74,40,74.647,40,75.652v11.697
				C40,88.354,41.111,89,42.116,89h12.769C55.889,89,57,88.354,57,87.349V75.652C57,74.647,55.889,74,54.884,74L54.884,74z"/>
		</g>
		<g>
			
				<linearGradient id="SVGID_11_" gradientUnits="userSpaceOnUse" x1="64.5922" y1="86.8406" x2="78.5596" y2="72.8732" gradientTransform="matrix(-1 0 0 -1 138.932 163.0008)">
				<stop  offset="0.1316" style="stop-color:#FFFFFF"/>
				<stop  offset="0.1819" style="stop-color:#FEF8F1"/>
				<stop  offset="0.2777" style="stop-color:#FCE6CB"/>
				<stop  offset="0.4088" style="stop-color:#F8CA8E"/>
				<stop  offset="0.5685" style="stop-color:#F3A33B"/>
				<stop  offset="0.6737" style="stop-color:#F08701"/>
			</linearGradient>
			<path style="fill-rule:evenodd;clip-rule:evenodd;fill:url(#SVGID_11_);" d="M76,88.091C76,88.593,75.593,89,75.091,89H61.909
				C61.407,89,61,88.593,61,88.091V75.909C61,75.407,61.407,75,61.909,75h13.182C75.593,75,76,75.407,76,75.909V88.091z"/>
			<path style="fill:#028189;" d="M75,76v11H62V76H75 M74.983,74H62.214C61.21,74,60,74.647,60,75.652v11.697
				C60,88.354,61.21,89,62.214,89h12.769C75.987,89,77,88.354,77,87.349V75.652C77,74.647,75.987,74,74.983,74L74.983,74z"/>
		</g>
	</g>
</g>
</svg>
