<?xml version="1.0" encoding="UTF-8"?>
<!-- Created with Inkscape (http://www.inkscape.org/) -->
<svg width="22.265mm" height="22.265mm" version="1.1" viewBox="0 0 22.265 22.265" xmlns="http://www.w3.org/2000/svg" xmlns:cc="http://creativecommons.org/ns#" xmlns:dc="http://purl.org/dc/elements/1.1/" xmlns:rdf="http://www.w3.org/1999/02/22-rdf-syntax-ns#">
 <metadata>
  <rdf:RDF>
   <cc:Work rdf:about="">
    <dc:format>image/svg+xml</dc:format>
    <dc:type rdf:resource="http://purl.org/dc/dcmitype/StillImage"/>
    <dc:title/>
   </cc:Work>
  </rdf:RDF>
 </metadata>
 <g transform="translate(-41.784 -93.1)">
  <g transform="matrix(.26458 0 0 .26458 84.754 89.184)">
   <path d="m-154.11 96.869c-6.6676-3.3004-8.3008-7.7736-8.3008-22.736v-12.184h10v12.3c0 8.2333 0.39675 12.697 1.2 13.5s5.2667 1.2 13.5 1.2h12.3v10l-12.25-7.9e-4c-10.39-6.7e-4 -12.888-0.31641-16.449-2.0794z" fill="#459ed7"/>
   <path d="m-115.41 93.949v-5h11.929c15.528 0 15.071 0.45667 15.071-15.071v-11.929h10l-2e-3 12.75c-2e-3 14.512-1.1381 18.133-6.8963 21.98-3.1085 2.0769-4.5328 2.2699-16.75 2.2699h-13.352z" fill="#404041"/>
   <path d="m-142.91 56.949v-24h11.428l0.57242 19.5h21v-19.503l11.5 0.0028v48l-5.75 0.0015-5.75 0.0014v-18.503h-21l-0.28753 9.25-0.28752 9.25h-11.425z" fill="#459ed7"/>
   <path d="m-162.41 39.199c2e-3 -14.109 1.0882-17.837 6.3178-21.679 2.4708-1.8151 4.5414-2.1113 16.75-2.3967l13.931-0.32558v10.151h-12.465c-11.3 0-12.562 0.18073-13.5 1.9343-0.56935 1.0638-1.0352 7.1388-1.0352 13.5v11.566h-10l2e-3 -12.75z" fill="#2261ae"/>
   <path d="m-88.407 40.021c0-15.528 0.45667-15.071-15.071-15.071h-11.929v-10l12.75 0.0016c14.109 0.0017 17.837 1.0882 21.679 6.3178 1.815 2.4708 2.1113 4.5414 2.3967 16.75l0.32559 13.931h-10.151z" fill="#184276"/>
  </g>
 </g>
</svg>
