<svg xmlns="http://www.w3.org/2000/svg" xmlns:xlink="http://www.w3.org/1999/xlink" viewBox="0 0 495.15 195.15"><defs><style>.cls-1{fill:#27cfd5;}.cls-2{fill:#108498;}.cls-11,.cls-3{fill:#fff;}.cls-4{isolation:isolate;}.cls-5{clip-path:url(#clip-path);}.cls-6{clip-path:url(#clip-path-2);}.cls-7{clip-path:url(#clip-path-3);}.cls-8{clip-path:url(#clip-path-4);}.cls-9{clip-path:url(#clip-path-5);}.cls-10{clip-path:url(#clip-path-6);}.cls-11{stroke:#fff;stroke-miterlimit:10;stroke-width:1.87px;}</style><clipPath id="clip-path"><rect class="cls-1" x="216.79" y="25.84" width="1.19" height="110.16"/></clipPath><clipPath id="clip-path-2"><rect class="cls-1" x="245.35" y="25.84" width="1.19" height="110.16"/></clipPath><clipPath id="clip-path-3"><rect class="cls-1" x="273.91" y="25.84" width="1.19" height="110.16"/></clipPath><clipPath id="clip-path-4"><rect class="cls-1" x="190.41" y="108.57" width="110.7" height="1.19"/></clipPath><clipPath id="clip-path-5"><rect class="cls-1" x="190.41" y="80.01" width="110.7" height="1.19"/></clipPath><clipPath id="clip-path-6"><rect class="cls-1" x="190.41" y="51.45" width="110.7" height="1.19"/></clipPath></defs><g id="Capa_2" data-name="Capa 2"><g id="Capa_1-2" data-name="Capa 1"><rect class="cls-2" width="495.15" height="195.15" rx="15.91"/><path class="cls-3" d="M230.54,177.94v-22.3h8.07a6.29,6.29,0,0,1,4.41,1.63,5.17,5.17,0,0,1,1.82,4.07,4.51,4.51,0,0,1-2.84,4.48,5.28,5.28,0,0,1,4.48,5.53,6.26,6.26,0,0,1-2,4.74,6.58,6.58,0,0,1-4.83,1.85Zm4-13.31h3.52a2.69,2.69,0,0,0,2.88-2.75,2.65,2.65,0,0,0-2.85-2.62h-3.55Zm0,9.7H239a3.19,3.19,0,1,0,0-6.34h-4.45Z"/><path class="cls-3" d="M249,157.66a2.29,2.29,0,1,1,2.3,2.27A2.26,2.26,0,0,1,249,157.66Zm.38,20.28V161.82h3.84v16.12Z"/><path class="cls-3" d="M255.41,169.88A8.13,8.13,0,0,1,258,163.8a9.13,9.13,0,0,1,12.47,0,8.48,8.48,0,0,1,0,12.16A9.13,9.13,0,0,1,258,176,8.13,8.13,0,0,1,255.41,169.88Zm12.35,3.62a5,5,0,0,0,1.44-3.62,4.84,4.84,0,0,0-1.44-3.58,5.07,5.07,0,0,0-7.14,0,4.93,4.93,0,0,0-1.41,3.58,5.08,5.08,0,0,0,1.41,3.62,5.15,5.15,0,0,0,7.14,0Z"/><g class="cls-4"><rect class="cls-1" x="216.79" y="25.84" width="1.19" height="110.16"/><g class="cls-5"><rect class="cls-1" x="216.79" y="25.84" width="1.19" height="110.16"/></g></g><g class="cls-4"><rect class="cls-1" x="245.35" y="25.84" width="1.19" height="110.16"/><g class="cls-6"><rect class="cls-1" x="245.35" y="25.84" width="1.19" height="110.16"/></g></g><g class="cls-4"><rect class="cls-1" x="273.91" y="25.84" width="1.19" height="110.16"/><g class="cls-7"><rect class="cls-1" x="273.91" y="25.84" width="1.19" height="110.16"/></g></g><g class="cls-4"><rect class="cls-1" x="190.41" y="108.57" width="110.7" height="1.19"/><g class="cls-8"><rect class="cls-1" x="190.41" y="108.57" width="110.7" height="1.19"/></g></g><g class="cls-4"><rect class="cls-1" x="190.41" y="80.01" width="110.7" height="1.19"/><g class="cls-9"><rect class="cls-1" x="190.41" y="80.01" width="110.7" height="1.19"/></g></g><g class="cls-4"><rect class="cls-1" x="190.41" y="51.45" width="110.7" height="1.19"/><g class="cls-10"><rect class="cls-1" x="190.41" y="51.45" width="110.7" height="1.19"/></g></g><path class="cls-3" d="M227.68,115.07h0a3,3,0,0,1-2.92-2.4l-7.95-40.49-2.13,9.92a3,3,0,0,1-2.91,2.35H192.48a3,3,0,1,1,0-6h16.89L214,56.79a3,3,0,0,1,2.9-2.35h0a3,3,0,0,1,2.89,2.4l7.84,39.91,12.77-64.18a3,3,0,0,1,2.92-2.39h0a3,3,0,0,1,2.91,2.41l11.3,58.24,2.16-10.36a3,3,0,0,1,2.9-2.37l12.79,0h0a3,3,0,0,1,0,6L265.1,84l-4.68,22.5a2.92,2.92,0,0,1-2.93,2.37,3,3,0,0,1-2.9-2.41L243.35,48.58l-12.75,64.1a3,3,0,0,1-2.92,2.39"/><path class="cls-3" d="M285.06,76a4.61,4.61,0,1,1-4.61,4.61A4.6,4.6,0,0,1,285.06,76m0-6a10.56,10.56,0,1,0,10.56,10.56,10.58,10.58,0,0,0-10.56-10.56"/><path class="cls-11" d="M287.49,138.47H202.25a15,15,0,0,1-14.93-14.93V38.31a15,15,0,0,1,14.93-14.94h85.24a15,15,0,0,1,14.93,14.94v85.23a15,15,0,0,1-14.93,14.93M202.25,25.75A12.57,12.57,0,0,0,189.7,38.31v85.23a12.56,12.56,0,0,0,12.55,12.55h85.24A12.56,12.56,0,0,0,300,123.54V38.31a12.57,12.57,0,0,0-12.55-12.56Z"/></g></g></svg>