<?xml version="1.0" encoding="UTF-8" standalone="no"?>
<svg
   xmlns:dc="http://purl.org/dc/elements/1.1/"
   xmlns:cc="http://creativecommons.org/ns#"
   xmlns:rdf="http://www.w3.org/1999/02/22-rdf-syntax-ns#"
   xmlns:svg="http://www.w3.org/2000/svg"
   xmlns="http://www.w3.org/2000/svg"
   xmlns:sodipodi="http://sodipodi.sourceforge.net/DTD/sodipodi-0.dtd"
   xmlns:inkscape="http://www.inkscape.org/namespaces/inkscape"
   inkscape:version="1.0 (4035a4fb49, 2020-05-01)"
   height="90.849342"
   width="90"
   sodipodi:docname="blood-pressure-icon.svg"
   id="svg28"
   version="1.1"
   viewBox="0 0 90 90.84934">
  <metadata
     id="metadata32">
    <rdf:RDF>
      <cc:Work
         rdf:about="">
        <dc:format>image/svg+xml</dc:format>
        <dc:type
           rdf:resource="http://purl.org/dc/dcmitype/StillImage" />
      </cc:Work>
    </rdf:RDF>
  </metadata>
  <sodipodi:namedview
     inkscape:current-layer="svg28"
     inkscape:window-maximized="1"
     inkscape:window-y="0"
     inkscape:window-x="0"
     inkscape:cy="47.463492"
     inkscape:cx="16.966582"
     inkscape:zoom="5.9682803"
     showgrid="false"
     id="namedview30"
     inkscape:window-height="1015"
     inkscape:window-width="1920"
     inkscape:pageshadow="2"
     inkscape:pageopacity="0"
     guidetolerance="10"
     gridtolerance="10"
     objecttolerance="10"
     borderopacity="1"
     bordercolor="#666666"
     pagecolor="#ffffff" />
  <defs
     id="defs4">
    <style
       id="style2">.cls-1{fill:#136f84;}.cls-2,.cls-5{fill:#fff;}.cls-3,.cls-5{isolation:isolate;}.cls-4{fill:#27cfd5;}.cls-5{opacity:0.5;}</style>
  </defs>
  <g
     transform="scale(0.75834176)"
     data-name="Capa 2"
     id="Capa_2">
    <g
       data-name="Capa 1"
       id="Capa_1-2">
      <rect
         y="0"
         x="0"
         id="rect6"
         rx="13.14"
         height="119.8"
         width="118.68"
         class="cls-1" />
      <path
         id="path8"
         d="m 91.12,104 h -64 A 11.22,11.22 0 0 1 15.92,92.79 v -64 a 11.22,11.22 0 0 1 11.2,-11.21 h 64 a 11.22,11.22 0 0 1 11.21,11.21 v 64 A 11.22,11.22 0 0 1 91.12,104 Z m -64,-84.61 a 9.44,9.44 0 0 0 -9.42,9.42 v 64 a 9.43,9.43 0 0 0 9.42,9.42 h 64 a 9.43,9.43 0 0 0 9.43,-9.42 v -64 a 9.44,9.44 0 0 0 -9.43,-9.42 z"
         class="cls-2" />
      <g
         id="g12"
         class="cls-3">
        <path
           id="path10"
           d="m 27.57,66.91 a 5.16,5.16 0 0 1 5.43,0.32 4.11,4.11 0 0 1 1.52,3.63 6.33,6.33 0 0 1 2.48,-3.46 5.36,5.36 0 0 1 6.22,-0.21 4.35,4.35 0 0 1 1,5.49 c -1.15,2.33 -3.23,4.14 -5.2,5.86 -2.34,2 -5,3.85 -6.94,6.26 A 16.86,16.86 0 0 0 29.3,80.87 32.09,32.09 0 0 1 25,75.14 6,6 0 0 1 24.22,71 6.21,6.21 0 0 1 27.57,66.91 Z"
           class="cls-4" />
      </g>
      <path
         id="path14"
         d="m 44.59,43.51 -1.49,10.54 -3.5,-4 0.8,-5.48 2.91,-2.57 z m -3.24,-5.59 0.8,-5.48 4.67,-4 -1.52,10.49 -1.78,1.55 z"
         class="cls-2" />
      <path
         id="path16"
         d="M 55,44.52 54.16,50 49.49,54 51,43.51 52.78,42 Z M 66,54.81 H 50.15 l 4.66,-4 h 7.68 z m 4,-27.18 -4.67,4 H 57.6 l -3.48,-4 z m -5.31,11.57 1.77,2 -2.35,2 h -8.7 l -1.73,-2 2.31,-2 z m 0.42,-1.28 0.8,-5.55 4.66,-4 -1.51,10.56 -1.78,1.55 z"
         class="cls-2" />
      <path
         id="path18"
         d="M 76.87,44.52 76.07,50 71.44,54 72.92,43.48 74.7,42 Z M 87.93,54.81 H 72.1 l 4.66,-4 h 7.68 z m -14.3,-15.88 1.52,-10.51 3.5,4 -0.79,5.46 -3,2.56 z m 18.26,-11.3 -4.66,4 h -7.68 l -3.49,-4 z M 90.28,43.51 88.79,54 85.29,50 86.08,44.52 89,42 Z M 87,37.92 l 0.8,-5.55 4.67,-4 -1.47,10.56 -1.77,1.55 z"
         class="cls-2" />
      <path
         id="path20"
         d="m 54.92,83.8 -0.79,5.47 -4.64,4 L 51,82.79 52.77,81.28 Z M 66,94.09 H 50.15 l 4.66,-4 h 7.68 z M 51.68,78.21 53.21,67.7 l 3.5,4 -0.79,5.46 -3,2.56 z M 70,66.91 l -4.66,4 h -7.73 l -3.49,-4 z m -5.31,11.57 1.77,2 -2.35,2 h -8.7 l -1.73,-2 2.32,-2 z m 3.65,4.31 -1.49,10.53 -3.51,-4 0.8,-5.48 2.92,-2.52 z m -3.24,-5.59 0.8,-5.55 4.67,-4 -1.57,10.56 -1.77,1.55 z"
         class="cls-2" />
      <path
         id="path22"
         d="m 76.87,83.8 -0.8,5.47 -4.63,4 1.48,-10.52 1.78,-1.51 z M 87.93,94.09 H 72.1 l 4.66,-4 h 7.68 z m -14.3,-15.88 1.52,-10.51 3.5,4 -0.79,5.46 -3,2.56 z m 18.26,-11.3 -4.66,4 h -7.68 l -3.49,-4 z m -1.61,15.88 -1.49,10.53 -3.5,-4 0.79,-5.48 L 89,81.28 Z M 87,77.2 l 0.8,-5.55 4.67,-4 -1.47,10.56 -1.77,1.55 z"
         class="cls-2" />
      <rect
         id="rect24"
         height="0.88999999"
         width="83.099998"
         y="60.139999"
         x="17.450001"
         class="cls-5" />
    </g>
  </g>
</svg>
