<svg xmlns="http://www.w3.org/2000/svg" viewBox="0 0 491.15 195.15"><defs><style>.cls-1{fill:#108498;}.cls-2,.cls-4{fill:none;stroke-linecap:round;stroke-linejoin:round;stroke-width:5px;}.cls-2{stroke:#fff;fill-rule:evenodd;}.cls-3{fill:#fff;}.cls-4{stroke:#2feded;opacity:0.65;}</style></defs><g id="Capa_2" data-name="Capa 2"><g id="Capa_1-2" data-name="Capa 1"><rect class="cls-1" width="491.15" height="195.15" rx="15.91"/><path class="cls-2" d="M214.13,60.19h14.39s0,0,0,0h9.13a7.11,7.11,0,0,1,4.5,1.59c1.43,1.19,2.29,2.88,3.36,4.37.73,1,1.4,2.42,2.82,2.45,1.95.06,3.9,0,5.86,0l-.09-.09H261a.72.72,0,0,0,.46.07c4.08,0,8.16,0,12.24,0l-.08-.08h4.61s0,.06,0,.08c3.58,0,7.16,0,10.74,0l0,0s4.4.18,5.89.32l2.78-10.4L303,38.28a4.51,4.51,0,0,0-3.12-5.53l-19.78-5.32-29.5-7.93-19.79-5.31a4.48,4.48,0,0,0-5.45,3.22L220,37.64,214,60.2Z"/><path class="cls-3" d="M315.64,75.77a4,4,0,0,0-4.09-3.48q-6.29,0-12.55,0a5.54,5.54,0,0,0-2.84-5.8c.09-.12-6.38-.39-6.38-.39l0,0c-3.58.09-7.16,0-10.74,0,0,0,0,0,0-.08h-4.61l.08.07c-4.08,0-8.16,0-12.24,0a.74.74,0,0,1-.45-.07H254.9l.09.09c-2-.06-3.91,0-5.86,0-1.42,0-2.09-1.46-2.81-2.46-1.08-1.48-1.94-3.18-3.37-4.36a7.11,7.11,0,0,0-4.5-1.59h-9.12s0,0,0,0H215c-.86.06-1.56.11-2,.16-3,.48-4.75,3.1-6.25,5.48-.79,1-1.37,2.59-2.83,2.79-2.45.15-4.91-.08-7.36.09a4.83,4.83,0,0,0-4.15,5q0,32.15,0,64.3a4.75,4.75,0,0,0,5,4.9h97a5.09,5.09,0,0,0,3.84-1.89c1-1,1.26-2.53,1.66-3.87,4.91-18,9.92-36,14.79-54A15.63,15.63,0,0,0,315.64,75.77ZM294.21,91.05c0,14.89,0,29.78,0,44.67H197.1c0-16.56,0-33.12,0-49.69h0v-15l.07-.11c2.85-.1,5.79.37,8.58-.39,3.28-1,4.58-4.45,6.53-6.94a2.55,2.55,0,0,1,2.3-1.13c8,0,15.9,0,23.85,0,1.64-.06,2.37,1.6,3.18,2.72,1.21,1.65,2.13,3.64,4,4.66a7.21,7.21,0,0,0,3.92,1.07q22.37,0,44.74,0c.07,3.38-.23,6.79.14,10.15C293.89,84.39,294.48,87.73,294.21,91.05ZM310,80.34c-.15.42-.29.84-.43,1.26a26.13,26.13,0,0,0-1.11,3.69q-4.69,17.16-9.44,34.33c-.1-10.22,0-20.45,0-30.67-.24-4,.08-8,0-11.94,3.61,0,7.21,0,10.82,0v0h.85l.07,0C310.45,78.12,310.2,79.22,310,80.34Z"/><line class="cls-4" x1="236.39" y1="30.1" x2="286.35" y2="43.52"/><line class="cls-4" x1="233.75" y1="39.96" x2="283.71" y2="53.38"/><line class="cls-4" x1="230.95" y1="49.78" x2="253.23" y2="55.69"/><path class="cls-3" d="M165.38,175.67v-22.3h8c3.68,0,6.56,1,8.61,3.1a12.12,12.12,0,0,1,0,16.16c-2.05,2-4.93,3-8.61,3Zm4-3.61h3.72c5.53,0,8-2.92,8-7.49s-2.4-7.58-8-7.58h-3.68Z"/><path class="cls-3" d="M187.37,167.61a8.13,8.13,0,0,1,2.56-6.08,9.14,9.14,0,0,1,12.48,0,8.5,8.5,0,0,1,0,12.16,9.14,9.14,0,0,1-12.48,0A8.13,8.13,0,0,1,187.37,167.61Zm12.35,3.61a5,5,0,0,0,1.44-3.61,4.84,4.84,0,0,0-1.44-3.58,5,5,0,0,0-7.14,0,5,5,0,0,0-1.4,3.58,5.09,5.09,0,0,0,1.4,3.61,5.15,5.15,0,0,0,7.14,0Z"/><path class="cls-3" d="M222.18,161.82l-2.37,2.46a5.43,5.43,0,0,0-4.09-1.76,4.82,4.82,0,0,0-3.55,1.44,5.34,5.34,0,0,0,0,7.23,4.82,4.82,0,0,0,3.55,1.44,5.39,5.39,0,0,0,4.09-1.76l2.37,2.47a8.47,8.47,0,0,1-6.46,2.78,8.63,8.63,0,0,1-6.24-2.43,8.61,8.61,0,0,1,0-12.19,8.66,8.66,0,0,1,6.24-2.47A8.44,8.44,0,0,1,222.18,161.82Z"/><path class="cls-3" d="M224.33,159.54h3.87V169c0,2.43,1.37,3.62,3.52,3.62s3.52-1.22,3.52-3.65v-9.38h3.87v9.64a6.36,6.36,0,0,1-2.11,5.15,8,8,0,0,1-5.31,1.76,7.8,7.8,0,0,1-5.28-1.76,6.29,6.29,0,0,1-2.08-5.06Z"/><path class="cls-3" d="M242.31,175.67V159.54h3.81v2.31a4.55,4.55,0,0,1,4.35-2.62A4.44,4.44,0,0,1,255,162c.93-1.89,2.69-2.81,5.28-2.81,3.55,0,5.6,2.46,5.6,6.46v10H262v-9.44c0-2.2-1.06-3.58-2.88-3.58s-3.2,1.53-3.2,3.74v9.28h-3.81v-9.44c0-2.2-1-3.58-2.88-3.58s-3.13,1.57-3.13,3.74v9.28Z"/><path class="cls-3" d="M268.39,167.61a8.06,8.06,0,0,1,8.45-8.51,7.55,7.55,0,0,1,5.73,2.33,8,8,0,0,1,2.23,5.79c0,.49,0,.93-.06,1.35H272.2c.13,2.56,2,4.22,4.86,4.22a5.93,5.93,0,0,0,4.35-1.85l2.31,2.24a9,9,0,0,1-6.79,2.88,8.58,8.58,0,0,1-6.17-2.28,8,8,0,0,1-2.37-6Zm12.51-1.73a3.12,3.12,0,0,0-1.21-2.46,4.11,4.11,0,0,0-2.85-1.06,5,5,0,0,0-3.11,1,3.56,3.56,0,0,0-1.44,2.5Z"/><path class="cls-3" d="M287.37,175.67V159.54h3.8v2.31a5.24,5.24,0,0,1,4.9-2.62c3.84,0,6.11,2.46,6.11,6.46v10h-3.84v-9.44a3.24,3.24,0,0,0-3.42-3.58,3.59,3.59,0,0,0-3.75,3.74v9.28Z"/><path class="cls-3" d="M306.37,163h-2v-3.49h2v-6.17h3.84v6.17h3.55V163h-3.55v7.2c0,1.76.61,2.4,2,2.4a5.7,5.7,0,0,0,1.34-.13v3.43a8.68,8.68,0,0,1-2,.19c-3.49,0-5.22-1.82-5.22-5.47Z"/><path class="cls-3" d="M317.19,170.74a5,5,0,0,0,4.26,2c2,0,2.88-.77,2.88-1.76a1.54,1.54,0,0,0-.93-1.28,8.48,8.48,0,0,0-1.51-.61c-.48-.16-1.44-.44-2-.67-2.59-.93-4-2.24-4-4.54a4.24,4.24,0,0,1,1.63-3.52,6.42,6.42,0,0,1,4.07-1.31,6.21,6.21,0,0,1,5.21,2.36l-2.14,2.28a3.76,3.76,0,0,0-3.14-1.35c-1.18,0-1.95.58-1.95,1.44a1.27,1.27,0,0,0,.74,1.12,9.89,9.89,0,0,0,1.31.58c.48.12,1.38.45,2,.67,3,1.05,4.32,2.5,4.32,4.8,0,3-2.24,5.12-6.62,5.12-3.23,0-5.63-1.25-6.65-3.27Z"/></g></g></svg>