<svg xmlns="http://www.w3.org/2000/svg" viewBox="0 0 119.68 119.8"><defs><style>.cls-1{fill:#136f84;}.cls-2{fill:none;stroke:#fff;stroke-miterlimit:10.43;stroke-width:2px;}.cls-3{opacity:0.65;}.cls-4{fill:#2feded;}</style></defs><g id="Capa_2" data-name="Capa 2"><g id="Capa_1-2" data-name="Capa 1"><rect class="cls-1" width="119.68" height="119.8" rx="13.14"/><path class="cls-2" d="M31.19,18.43a74.29,74.29,0,0,1,35-5.68,71,71,0,0,1,23.57,5.68,12.06,12.06,0,0,1,5.46,5,12.34,12.34,0,0,1,1.61,6.88q-1.62,29.07-3.23,58.15c-.07,1.09-.09,2.19-.24,3.27a12.22,12.22,0,0,1-12,10.41c-5.59,0-11.18,0-16.77,0v8.15H56.39v-8.15H41.72a32.73,32.73,0,0,1-3.57-.09A12.24,12.24,0,0,1,27.46,90.39L24.16,31a13.38,13.38,0,0,1,.23-4.09A12.14,12.14,0,0,1,31.19,18.43Zm21,2.74a61.5,61.5,0,0,0-17.53,4.65,4,4,0,0,0-2.38,4q1.09,19.88,2.21,39.75h52q1.11-19.88,2.21-39.75a4.12,4.12,0,0,0-1.22-3.2,8.68,8.68,0,0,0-2.78-1.45A67.49,67.49,0,0,0,52.16,21.17Z"/><g class="cls-3"><path class="cls-4" d="M51.63,43.7a128.48,128.48,0,0,1,8.3-13.42c3.16,4.78,6.52,9.48,8.91,14.72a12.64,12.64,0,0,1,1.43,6,10.35,10.35,0,1,1-20.64-1.67A20,20,0,0,1,51.63,43.7Z"/></g><path class="cls-2" d="M43.31,81.76H56.39V89.9H43.72Q43.53,85.82,43.31,81.76Z"/><path class="cls-2" d="M64.54,81.76c4.36,0,8.72,0,13.08,0q-.21,4.06-.41,8.14H64.54Z"/></g></g></svg>