<svg xmlns="http://www.w3.org/2000/svg" viewBox="0 0 491.15 195.15"><defs><style>.cls-1{fill:#108498;}.cls-2{fill:#fff;}.cls-3{fill:#24c8cf;}</style></defs><g id="Capa_2" data-name="Capa 2"><g id="Capa_1-2" data-name="Capa 1"><rect class="cls-1" width="491.15" height="195.15" rx="15.91"/><path class="cls-2" d="M125.1,175.67v-22.3h4.38l10.69,13.85V153.37h4.76v22.3h-4l-11-14.24v14.24Z"/><path class="cls-2" d="M148,167.58a8,8,0,0,1,2.46-6.11,8.7,8.7,0,0,1,6.27-2.34,8,8,0,0,1,8.29,8.19c0,.54,0,1.06-.06,1.54H152.78c.09,1.92,1.76,3.16,4.28,3.16a5.56,5.56,0,0,0,3.94-1.56l2.78,2.65a9.33,9.33,0,0,1-6.94,2.95,9,9,0,0,1-6.4-2.28,7.92,7.92,0,0,1-2.43-6.07Zm12.22-1.83c0-1.5-1.57-2.68-3.49-2.68-2.08,0-3.77,1.18-3.9,2.68Z"/><path class="cls-2" d="M168.33,163.87h-2.11v-4.32h2.11v-6.18H173v6.18h3.58v4.32H173v5.76c0,1.53.6,2.14,2.05,2.14a7,7,0,0,0,1.21-.13v4.22a9.75,9.75,0,0,1-2.33.23c-3.72,0-5.57-1.92-5.57-5.76Z"/><path class="cls-2" d="M182.22,175.67l-5.09-16.12h4.41l2.85,9,2.75-9h3.71l2.79,9,2.85-9h4.41l-5.12,16.12h-3.93L189,166.46l-2.82,9.21Z"/><path class="cls-2" d="M216.13,161.56a7.91,7.91,0,0,1,2.63,6.05,8,8,0,0,1-2.63,6.08,9.43,9.43,0,0,1-12.7,0,8.11,8.11,0,0,1-2.59-6.08,8,8,0,0,1,2.59-6.05,9.34,9.34,0,0,1,12.7,0Zm-9.31,9.06a4.26,4.26,0,0,0,6,0,4.21,4.21,0,0,0,1.22-3,4.07,4.07,0,0,0-1.22-3,4.17,4.17,0,0,0-6,0,4.07,4.07,0,0,0-1.21,3A4.13,4.13,0,0,0,206.82,170.62Z"/><path class="cls-2" d="M221.26,175.67V159.55H226v2.2a4.82,4.82,0,0,1,4.67-2.56,11.59,11.59,0,0,1,1.25.1v4.48a7.88,7.88,0,0,0-1.6-.16c-2.72,0-4.32,1.53-4.32,4.19v7.87Z"/><path class="cls-2" d="M234.34,175.67v-22.3h4.77v12.32l5.31-6.14H250l-6.43,7.29,7,8.83h-5.37l-4.68-5.95-1.34,1.44v4.51Z"/><path class="cls-2" d="M265.74,168.63a6,6,0,0,0,5.59,3c2.28,0,3.33-1,3.33-2.21a2.16,2.16,0,0,0-1.21-1.86,7.67,7.67,0,0,0-1.92-.83c-.55-.22-1.83-.64-2.47-.89-3.49-1.28-5.4-3.11-5.4-6.47a5.47,5.47,0,0,1,2.14-4.57,8.14,8.14,0,0,1,5.28-1.73,8.52,8.52,0,0,1,7.42,3.65l-3.29,2.49a4.78,4.78,0,0,0-4-1.73c-1.64,0-2.69.77-2.69,1.83a1.63,1.63,0,0,0,.86,1.6c.35.19.71.35,1,.48l1.6.54c.74.26,1.38.48,1.92.71,4.07,1.53,5.7,3.42,5.7,6.62,0,4.13-2.82,6.81-8.29,6.81-4.51,0-7.64-2-9.15-4.92Z"/><path class="cls-2" d="M281.35,167.58a8,8,0,0,1,2.46-6.11,8.73,8.73,0,0,1,6.28-2.34,8,8,0,0,1,8.28,8.19c0,.54,0,1.06-.06,1.54H286.12c.09,1.92,1.76,3.16,4.29,3.16a5.55,5.55,0,0,0,3.93-1.56l2.79,2.65a9.36,9.36,0,0,1-6.95,2.95,9,9,0,0,1-6.4-2.28,7.92,7.92,0,0,1-2.43-6.07Zm12.22-1.83c0-1.5-1.56-2.68-3.48-2.68-2.08,0-3.78,1.18-3.91,2.68Z"/><path class="cls-2" d="M301.67,163.87h-2.11v-4.32h2.11v-6.18h4.64v6.18h3.58v4.32h-3.58v5.76c0,1.53.61,2.14,2.05,2.14a7,7,0,0,0,1.21-.13v4.22a9.7,9.7,0,0,1-2.33.23q-5.57,0-5.57-5.76Z"/><path class="cls-2" d="M312.9,163.87h-2.11v-4.32h2.11v-6.18h4.64v6.18h3.58v4.32h-3.58v5.76c0,1.53.61,2.14,2,2.14a7.07,7.07,0,0,0,1.22-.13v4.22a9.78,9.78,0,0,1-2.34.23q-5.57,0-5.57-5.76Z"/><path class="cls-2" d="M325.57,152.76a2.71,2.71,0,1,1-2.72,2.72A2.7,2.7,0,0,1,325.57,152.76Zm-2.36,6.79H328V170c0,1.18.29,1.69,1.09,1.69a2.17,2.17,0,0,0,.58-.06v4.06a6.81,6.81,0,0,1-2.21.26c-2.82,0-4.22-1.5-4.22-4.54Z"/><path class="cls-2" d="M331.81,175.67V159.55h4.77v2a5,5,0,0,1,4.64-2.37c3.87,0,6.11,2.5,6.11,6.69v4.06c0,1.25.26,1.7,1.06,1.7h.32l.19,0v4a6.28,6.28,0,0,1-2.08.22c-2.85,0-4.25-1.53-4.25-4.6v-4.8c0-1.89-1-3-2.88-3a3,3,0,0,0-3.11,3.2v9Z"/><path class="cls-2" d="M353.48,177a9.13,9.13,0,0,0,5,1.54,5.86,5.86,0,0,0,3.29-.83c.93-.64,1.41-1.83,1.41-3.52v-.35c-.67,1.15-2.59,2-4.93,2a7.67,7.67,0,0,1-5.72-2.34,8.1,8.1,0,0,1-2.28-5.82,8.32,8.32,0,0,1,2.28-5.92,7.53,7.53,0,0,1,5.72-2.43c2.43,0,4.32,1,4.8,2.4v-2.11h4.77V173c0,3.75-.61,6.18-2.82,7.88a9.12,9.12,0,0,1-5.85,1.85,13.45,13.45,0,0,1-7.91-2.27Zm2.68-6.55a4.07,4.07,0,0,0,2.92,1.15,4.15,4.15,0,0,0,3-1.15,3.69,3.69,0,0,0,1.25-2.82,3.75,3.75,0,0,0-1.25-2.85,4,4,0,0,0-3-1.18,3.94,3.94,0,0,0-2.92,1.18,3.83,3.83,0,0,0-1.18,2.85A3.77,3.77,0,0,0,356.16,170.43Z"/><path class="cls-2" d="M372.39,170.3a5.91,5.91,0,0,0,4.41,1.76c1.64,0,2.44-.45,2.44-1.32a.89.89,0,0,0-.55-.76,7.86,7.86,0,0,0-1.95-.64c-1-.23-1.7-.45-2.18-.61-2.46-.87-3.71-2.34-3.71-4.48a4.47,4.47,0,0,1,1.83-3.81,7,7,0,0,1,4.44-1.37,7.64,7.64,0,0,1,5.54,2.08l-2.27,3.13A4.83,4.83,0,0,0,377,163.1c-1,0-1.6.41-1.6,1,0,.42.16.64.67.87s1.95.48,3.74,1.11c2.66.9,4,2.44,4,4.58,0,3.3-2.37,5.44-7.1,5.44-3.14,0-5.48-1-7-2.88Z"/><path class="cls-2" d="M343,50.28H325.31l-10.62-12a3.42,3.42,0,0,0-2.57-1.16H282.26V30.5a3.45,3.45,0,0,0-6.89,0v92.27a3.45,3.45,0,0,0,6.89,0V116.1h29.86a3.46,3.46,0,0,0,2.57-1.16l10.62-12H343a3.44,3.44,0,0,0,3.44-3.44V53.72A3.45,3.45,0,0,0,343,50.28Zm-60.74,58.93V44.05h28.31l10.62,12a3.45,3.45,0,0,0,2.58,1.15h15.79V96.1H323.77a3.43,3.43,0,0,0-2.58,1.16l-10.62,11.95Z"/><path class="cls-2" d="M253.15,91.69h-26.3V61.58h26.3a3.45,3.45,0,0,0,0-6.89h-26.3V30.5a3.44,3.44,0,0,0-6.88,0v6.67H190.11a3.44,3.44,0,0,0-2.58,1.16l-10.62,12H159.22a3.45,3.45,0,0,0-3.44,3.44V99.54a3.45,3.45,0,0,0,3.44,3.44h17.69l10.62,12a3.46,3.46,0,0,0,2.58,1.16H220v6.67a3.44,3.44,0,1,0,6.88,0V98.57h26.3a3.44,3.44,0,0,0,0-6.88ZM220,44.05v65.16H191.65L181,97.26a3.42,3.42,0,0,0-2.57-1.16H162.67V57.17h15.79A3.46,3.46,0,0,0,181,56l10.62-12Z"/><path class="cls-3" d="M191.32,64.16a12.48,12.48,0,1,0,12.47,12.47A12.49,12.49,0,0,0,191.32,64.16Zm0,19.06a6.59,6.59,0,1,1,6.59-6.59A6.59,6.59,0,0,1,191.32,83.22Z"/></g></g></svg>