<svg xmlns="http://www.w3.org/2000/svg" viewBox="0 0 121.68 119.8"><defs><style>.cls-1{fill:#136f84;}.cls-2{fill:none;}.cls-3{fill:#fff;}.cls-4{fill:#27cfd5;isolation:isolate;}</style></defs><g id="Capa_2" data-name="Capa 2"><g id="Capa_1-2" data-name="Capa 1"><rect class="cls-1" width="121.68" height="119.8" rx="13.14"/><path class="cls-2" d="M93.42,70.7A59.06,59.06,0,0,0,88.9,57.62C84.21,47.5,78.29,38,72.17,28.71c-2.52-3.74-5-7.49-7.7-11.15a4.33,4.33,0,0,0-3.23-1.68h-.19a4.37,4.37,0,0,0-3.37,1.86c-5.3,7.43-10.36,15-15.11,22.83A164,164,0,0,0,32.25,60.21a45.08,45.08,0,0,0-3.73,13,32.64,32.64,0,0,0,28.18,33.5,38.86,38.86,0,0,0,4,.33h.69a38.44,38.44,0,0,0,4.16-.33,32.66,32.66,0,0,0,28-28.34A24,24,0,0,0,93.42,70.7Z"/><path class="cls-3" d="M60.73,108c-.57-.05-1-.07-1.54-.09a17.73,17.73,0,0,1-2.67-.26,33.6,33.6,0,0,1-29-34.48,46.19,46.19,0,0,1,3.8-13.37A169.29,169.29,0,0,1,41.74,40.08c4.57-7.49,9.67-15.19,15.15-22.89A5.33,5.33,0,0,1,61,14.92h.23a5.3,5.3,0,0,1,4,2.07c2.69,3.7,5.25,7.5,7.74,11.18,5.86,8.91,12,18.59,16.8,29a60.93,60.93,0,0,1,4.59,13.3,24.85,24.85,0,0,1,.15,8,33.62,33.62,0,0,1-28.8,29.19,20,20,0,0,1-2.78.26c-.48,0-1,0-1.43.08Zm.46-91.2h-.14a3.38,3.38,0,0,0-2.58,1.45C53,26,47.92,33.63,43.39,41.08A165.14,165.14,0,0,0,33.13,60.59a44.19,44.19,0,0,0-3.65,12.74A31.68,31.68,0,0,0,56.83,105.8a16.66,16.66,0,0,0,2.45.23c.52,0,1,0,1.54.1h.6c.42,0,.92-.07,1.42-.09a19.18,19.18,0,0,0,2.57-.23A31.7,31.7,0,0,0,92.6,78.3a22.94,22.94,0,0,0-.12-7.38v0A57.17,57.17,0,0,0,88,58c-4.8-10.33-10.84-19.93-16.66-28.77-2.47-3.66-5-7.45-7.68-11.11A3.32,3.32,0,0,0,61.19,16.84Z"/><path class="cls-3" d="M74,61.65Q74,72,70,77.81a12.86,12.86,0,0,1-11.26,5.77,13,13,0,0,1-11.32-5.72q-3.94-5.73-4-16.27t4-16.19A13,13,0,0,1,58.8,39.75,12.84,12.84,0,0,1,70,45.48Q74,51.23,74,61.65Zm-24.84,0q0,7.86,2.42,11.93a7.87,7.87,0,0,0,7.19,4.06,7.84,7.84,0,0,0,7.16-4q2.41-4,2.42-12t-2.4-11.88a7.76,7.76,0,0,0-7.13-4.05,7.93,7.93,0,0,0-7.23,4.05Q49.14,53.82,49.14,61.65Z"/><path class="cls-4" d="M56.87,100.05h-.31c-.69-.05-16.83-1.57-22-19.74A3.84,3.84,0,0,1,42,78.21c3.7,13.1,15.09,14.17,15.2,14.18a3.84,3.84,0,0,1-.31,7.66Z"/><path class="cls-3" d="M86.35,89.4H74V86.8l4.43-4.51C79.77,80.94,80.62,80,81,79.48A5.84,5.84,0,0,0,81.89,78a3.61,3.61,0,0,0,.27-1.38,2,2,0,0,0-.59-1.59A2.25,2.25,0,0,0,80,74.54,4.57,4.57,0,0,0,78,75a10.71,10.71,0,0,0-2,1.35l-2-2.42a13.36,13.36,0,0,1,2.15-1.58A8.52,8.52,0,0,1,78,71.65a9.88,9.88,0,0,1,2.27-.24,6.69,6.69,0,0,1,2.91.6,4.69,4.69,0,0,1,2,1.7,4.51,4.51,0,0,1,.7,2.5,6.07,6.07,0,0,1-.43,2.3,8.78,8.78,0,0,1-1.32,2.2,31.92,31.92,0,0,1-3.17,3.22l-2.27,2.15v.17h7.68V89.4Z"/></g></g></svg>