<svg xmlns="http://www.w3.org/2000/svg" viewBox="0 0 265.95 157.12"><defs><style>.cls-1{fill:#24c8cf;}.cls-2{fill:none;stroke:#08828b;stroke-linecap:round;stroke-linejoin:round;stroke-width:4px;}.cls-3{fill:#fff;}.cls-4{fill:#08828b;}</style></defs><g id="Capa_2" data-name="Capa 2"><g id="Capa_1-2" data-name="Capa 1"><rect class="cls-1" y="77.31" width="138.31" height="56.41"/><path class="cls-2" d="M183.47,14.12A36.61,36.61,0,0,1,247.26,37.6c.08,7,0,14,0,21,2.75.05,5.51-.1,8.26.09a9.6,9.6,0,0,1,8.38,9.56q0,36.78,0,73.58c0,2.59.3,5.34-.9,7.75a9.68,9.68,0,0,1-8.76,5.56H169.72a20.53,20.53,0,0,1-5.31-.35,9.65,9.65,0,0,1-6.65-6.66,12.69,12.69,0,0,1-.36-3.63q0-38.11,0-76.23a9.63,9.63,0,0,1,8.39-9.58c2.74-.18,5.49-.06,8.24-.09q0-10.16,0-20.31A36.52,36.52,0,0,1,183.47,14.12Zm20.12,9.45A16.63,16.63,0,0,0,194.7,34a22,22,0,0,0-.68,6.67c0,6,0,12,0,17.95,11.1,0,22.19,0,33.29,0q0-9.48,0-19a18.77,18.77,0,0,0-.68-5.63,16.6,16.6,0,0,0-23-10.42Z"/><line class="cls-2" x1="171.27" y1="58.59" x2="249.79" y2="58.59"/><path class="cls-3" d="M23.17,115.8l-4.75-3.53,5.18-5.83-7.56-2L18,99,25,102.12l-.72-7.71h6.05l-.65,7.71L36.85,99l1.87,5.54-7.49,2,5.19,5.83-4.9,3.53-4.17-6.48Z"/><path class="cls-3" d="M51.79,115.8,47,112.27l5.18-5.83-7.56-2,2-5.54,7,3.17-.72-7.71H59l-.65,7.71L65.47,99l1.87,5.54-7.48,2L65,112.27l-4.9,3.53L56,109.32Z"/><path class="cls-3" d="M80.41,115.8l-4.75-3.53,5.18-5.83-7.56-2,2-5.54,7,3.17-.72-7.71h6L87,102.12,94.09,99,96,104.49l-7.49,2,5.18,5.83-4.9,3.53-4.17-6.48Z"/><path class="cls-3" d="M109,115.8l-4.75-3.53,5.18-5.83-7.56-2L103.85,99l7.06,3.17-.72-7.71h6l-.64,7.71L122.71,99l1.88,5.54-7.49,2,5.18,5.83-4.89,3.53-4.18-6.48Z"/><line class="cls-2" x1="158.4" y1="79.56" x2="173.92" y2="79.56"/><line class="cls-2" x1="158.4" y1="88.56" x2="173.92" y2="88.56"/><line class="cls-2" x1="158.4" y1="106.57" x2="173.92" y2="106.57"/><line class="cls-2" x1="158.4" y1="115.57" x2="173.92" y2="115.57"/><line class="cls-2" x1="158.4" y1="133.57" x2="173.92" y2="133.57"/><line class="cls-2" x1="158.4" y1="97.56" x2="173.92" y2="97.56"/><line class="cls-2" x1="158.4" y1="124.57" x2="173.92" y2="124.57"/><path class="cls-2" d="M182.26,31.09a27.56,27.56,0,0,1,16.87-19.51"/><path class="cls-4" d="M168.92,72A2.92,2.92,0,1,1,171.83,69,2.92,2.92,0,0,1,168.92,72Z"/><path class="cls-4" d="M168.92,66.62A2.42,2.42,0,1,1,166.5,69a2.41,2.41,0,0,1,2.42-2.41m0-1A3.42,3.42,0,1,0,172.33,69a3.42,3.42,0,0,0-3.41-3.41Z"/><path class="cls-4" d="M253.4,72A2.92,2.92,0,1,1,256.32,69,2.92,2.92,0,0,1,253.4,72Z"/><path class="cls-4" d="M253.4,66.62A2.42,2.42,0,1,1,251,69a2.41,2.41,0,0,1,2.41-2.41m0-1A3.42,3.42,0,1,0,256.82,69a3.41,3.41,0,0,0-3.42-3.41Z"/><path class="cls-4" d="M167.92,147.81a2.92,2.92,0,1,1,2.91-2.92A2.92,2.92,0,0,1,167.92,147.81Z"/><path class="cls-4" d="M167.92,142.48a2.42,2.42,0,1,1-2.42,2.41,2.41,2.41,0,0,1,2.42-2.41m0-1a3.42,3.42,0,1,0,3.41,3.41,3.42,3.42,0,0,0-3.41-3.41Z"/><path class="cls-4" d="M253.4,147.37a2.92,2.92,0,1,1,2.92-2.92A2.92,2.92,0,0,1,253.4,147.37Z"/><path class="cls-4" d="M253.4,142a2.42,2.42,0,1,1-2.41,2.41A2.41,2.41,0,0,1,253.4,142m0-1a3.42,3.42,0,1,0,3.42,3.41A3.41,3.41,0,0,0,253.4,141Z"/><path class="cls-4" d="M220.18,109.74l.38-.29a15.13,15.13,0,0,0-9-27.28,14.31,14.31,0,0,0-2.17.16A15.21,15.21,0,0,0,196.5,95.61v0a15.05,15.05,0,0,0,6,13.78l.39.29v.49c0,1.56,0,3.12,0,4.68,0,1.95,0,4,.06,5.94a8.66,8.66,0,0,0,7.91,8,8.62,8.62,0,0,0,9.21-7.62c.12-2.16.1-4.41.08-6.58,0-1.47,0-2.93,0-4.39Zm-1.07-4.53a12.92,12.92,0,0,1-1.24,1c-1.09.78-1.75,1.32-1.81,2.18-.06,2-.05,4.19,0,6.25,0,1.81,0,3.67,0,5.51a4.57,4.57,0,0,1-2.07,3.87,4.15,4.15,0,0,1-2.36.7,5.26,5.26,0,0,1-.89-.08,4.39,4.39,0,0,1-2.82-1.86,5.12,5.12,0,0,1-.81-3c0-1.61,0-3.21,0-4.8,0-2.18,0-4.44,0-6.64,0-.83-.8-1.43-1.86-2.19a10.71,10.71,0,0,1-4.58-8.22A11,11,0,0,1,221.19,92,10.9,10.9,0,0,1,219.11,105.21Z"/><circle class="cls-4" cx="211.53" cy="97.13" r="2.92"/><path class="cls-4" d="M211.53,94.72a2.42,2.42,0,1,1-2.42,2.41,2.41,2.41,0,0,1,2.42-2.41m0-1a3.42,3.42,0,1,0,3.41,3.41,3.42,3.42,0,0,0-3.41-3.41Z"/><line class="cls-2" x1="248.4" y1="79.56" x2="263.92" y2="79.56"/><line class="cls-2" x1="248.4" y1="88.56" x2="263.92" y2="88.56"/><line class="cls-2" x1="248.4" y1="106.57" x2="263.92" y2="106.57"/><line class="cls-2" x1="248.4" y1="115.57" x2="263.92" y2="115.57"/><line class="cls-2" x1="248.4" y1="133.57" x2="263.92" y2="133.57"/><line class="cls-2" x1="248.4" y1="97.56" x2="263.92" y2="97.56"/><line class="cls-2" x1="248.4" y1="124.57" x2="263.92" y2="124.57"/></g></g></svg>