<svg xmlns="http://www.w3.org/2000/svg" viewBox="0 0 495.15 195.15"><defs><style>.cls-1{fill:#108498;}.cls-2{fill:none;stroke:#fff;stroke-miterlimit:10;stroke-width:6px;}.cls-3{opacity:0.65;}.cls-4{fill:#2feded;}.cls-5{fill:#fff;}</style></defs><g id="Capa_2" data-name="Capa 2"><g id="Capa_1-2" data-name="Capa 1"><rect class="cls-1" width="495.15" height="195.15" rx="15.91"/><path class="cls-2" d="M253.74,19.39c-61.89-11.79-64,43.72-64,43.72l-9.54,24.56A2.59,2.59,0,0,0,182.94,91h4.76c1.57,0,2.12.88,2.12,2.23v20.14c0,4.84,4.67,8.71,10.12,8.71v0H214c1,.78,1.46.41,1.46.8V133c0,2,1.93,3.59,4.24,3.58l53.79-.14a2.14,2.14,0,0,0,2.32-2.43c-1.24-5-1.82-28.09,5.72-40C299.75,65.38,294.87,27.22,253.74,19.39Z"/><g class="cls-3"><path class="cls-4" d="M257.44,48.47l4.06,0c.49,2,.91,4,1.27,6a19.77,19.77,0,0,1,6.66,2.88c1.78-1.06,3.47-2.27,5.29-3.27l2.85,3c-1.17,1.68-2.22,3.43-3.36,5.14a18.27,18.27,0,0,1,2.68,6.65c2,.46,4,.95,6,1.42l0,4.13c-2,.4-4,.83-6,1.28a18.76,18.76,0,0,1-2.8,6.59c1,1.79,2.21,3.48,3.21,5.27-1,1-1.95,2-3,2.88-1.66-1.19-3.41-2.22-5.1-3.37a18.89,18.89,0,0,1-6.65,2.72c-.53,2-.92,4-1.43,6l-4.1,0c-.48-2-.89-4-1.28-6a18.75,18.75,0,0,1-6.65-2.82q-2.54,1.59-5.1,3.17c-1.15-.68-2-1.94-3-2.85,1.05-1.76,2.23-3.44,3.32-5.17a19.26,19.26,0,0,1-2.71-6.69c-2-.45-4-.94-6-1.37l0-4.13c2-.47,4-.84,6.06-1.32a18.28,18.28,0,0,1,2.79-6.6c-1.12-1.72-2.15-3.49-3.26-5.22,1-.95,1.93-1.95,2.9-2.92,1.79,1,3.47,2.28,5.23,3.37A19.49,19.49,0,0,1,256,54.47C256.51,52.48,256.9,50.46,257.44,48.47Zm-.58,10.4a13.52,13.52,0,1,0,15.62,10.61,13.5,13.5,0,0,0-15.62-10.61Z"/><path class="cls-4" d="M257.68,68a4.43,4.43,0,1,1-2.81,3.62A4.53,4.53,0,0,1,257.68,68Z"/><path class="cls-4" d="M221.75,27.6l2.67-1.08q1.37,1.79,2.61,3.65a14.22,14.22,0,0,1,5.2.11c.85-1.19,1.59-2.45,2.48-3.61l2.75,1.22c-.27,1.43-.43,2.89-.67,4.33a14,14,0,0,1,3.73,3.7c1.45-.25,2.91-.46,4.36-.69l1.2,2.76q-1.79,1.21-3.55,2.48a13.75,13.75,0,0,1,.14,5.15c1.19.92,2.47,1.72,3.66,2.64-.37.91-.69,1.83-1.09,2.72-1.44-.34-2.89-.55-4.33-.85a12.78,12.78,0,0,1-3.53,3.61c.24,1.46.59,2.91.84,4.37l-2.68,1.09c-.9-1.19-1.77-2.42-2.62-3.65a13.29,13.29,0,0,1-5.18-.07c-.78,1.17-1.58,2.33-2.38,3.5a17.63,17.63,0,0,1-2.81-1.08c.17-1.46.43-2.9.64-4.35a14.58,14.58,0,0,1-3.76-3.71c-1.44.24-2.88.45-4.32.7l-1.2-2.75c1.17-.86,2.39-1.66,3.56-2.53a13.15,13.15,0,0,1-.14-5.15c-1.25-.84-2.44-1.74-3.68-2.59.36-.9.68-1.82,1-2.73,1.48.22,2.94.57,4.42.83a13.15,13.15,0,0,1,3.5-3.63C222.34,30.52,222,29.07,221.75,27.6Zm2.72,7.08A9.49,9.49,0,0,0,221,46.1a10.34,10.34,0,0,0,5.35,5.62,9.64,9.64,0,0,0,8.33-.17,9.2,9.2,0,0,0,4.86-6.7,10,10,0,0,0-1.72-7.35,10.14,10.14,0,0,0-6.59-4.18A9.41,9.41,0,0,0,224.47,34.68Z"/><path class="cls-4" d="M227.72,40.55a3.22,3.22,0,0,1,4.73.43,3.13,3.13,0,0,1-1.08,4.81,3.3,3.3,0,0,1-4.4-2.07A3.19,3.19,0,0,1,227.72,40.55Z"/></g><path class="cls-5" d="M197.14,176.89V154.58h8.51a7.33,7.33,0,0,1,5.06,2,7.26,7.26,0,0,1,0,10.43,7.08,7.08,0,0,1-5.06,2.05h-4.51v7.81Zm4-11.43h4.32a3.63,3.63,0,0,0,0-7.26h-4.32Z"/><path class="cls-5" d="M216.12,172a5,5,0,0,0,4.25,2c2,0,2.88-.76,2.88-1.75a1.5,1.5,0,0,0-.92-1.28,8.06,8.06,0,0,0-1.51-.61c-.48-.16-1.44-.45-2-.67-2.59-.93-4-2.24-4-4.55a4.23,4.23,0,0,1,1.63-3.52,6.48,6.48,0,0,1,4.07-1.31,6.19,6.19,0,0,1,5.21,2.37l-2.14,2.27a3.76,3.76,0,0,0-3.14-1.34c-1.18,0-1.95.57-1.95,1.44a1.27,1.27,0,0,0,.74,1.12,10,10,0,0,0,1.31.57c.48.13,1.37.45,2,.67,3,1.06,4.32,2.5,4.32,4.8,0,3-2.24,5.12-6.62,5.12-3.23,0-5.63-1.25-6.66-3.26Z"/><path class="cls-5" d="M229.59,180.12a5.76,5.76,0,0,0,1.79.25,2.49,2.49,0,0,0,1.41-.35,2.8,2.8,0,0,0,.93-1.37l.41-1.15-6.75-16.74h3.87L236,172.92l4.45-12.16h3.87l-7.23,18.75a8.18,8.18,0,0,1-1.73,2.88,5.41,5.41,0,0,1-3.87,1.34,6.71,6.71,0,0,1-1.89-.25Z"/><path class="cls-5" d="M260,163l-2.37,2.47a5.39,5.39,0,0,0-4.09-1.76,4.82,4.82,0,0,0-3.55,1.44,5.34,5.34,0,0,0,0,7.23,4.82,4.82,0,0,0,3.55,1.44,5.43,5.43,0,0,0,4.09-1.76l2.37,2.46a8.44,8.44,0,0,1-6.46,2.79,8.6,8.6,0,0,1-6.24-2.44,8.61,8.61,0,0,1,0-12.19,8.66,8.66,0,0,1,6.24-2.46A8.47,8.47,0,0,1,260,163Z"/><path class="cls-5" d="M262.36,176.89V154.58h3.81V163a5,5,0,0,1,4.7-2.56c3.71,0,5.89,2.46,5.89,6.46v10H273v-9.44c0-2.21-1.18-3.59-3.23-3.59a3.5,3.5,0,0,0-3.55,3.75v9.28Z"/><path class="cls-5" d="M279.38,168.82a8.14,8.14,0,0,1,2.56-6.08,9.14,9.14,0,0,1,12.48,0,8.5,8.5,0,0,1,0,12.16,9.12,9.12,0,0,1-12.48,0A8.13,8.13,0,0,1,279.38,168.82Zm12.35,3.62a5,5,0,0,0,1.44-3.62,4.84,4.84,0,0,0-1.44-3.58,5.06,5.06,0,0,0-7.13,0,4.93,4.93,0,0,0-1.41,3.58,5.08,5.08,0,0,0,1.41,3.62,5.13,5.13,0,0,0,7.13,0Z"/></g></g></svg>