<svg xmlns="http://www.w3.org/2000/svg" viewBox="0 0 495.15 195.15"><defs><style>.cls-1{fill:#108498;}.cls-2,.cls-3{fill:#fff;}.cls-3{stroke:#1998a9;stroke-miterlimit:10;stroke-width:0.5px;}.cls-4{fill:none;stroke:#2feded;stroke-linecap:round;stroke-linejoin:round;stroke-width:7.49px;opacity:0.65;}</style></defs><g id="Capa_2" data-name="Capa 2"><g id="Capa_1-2" data-name="Capa 1"><rect class="cls-1" width="495.15" height="195.15" rx="15.91"/><path class="cls-2" d="M211.85,169.29a5.81,5.81,0,0,0,5.6,3.39c2.78,0,3.77-1.47,3.77-2.91a2.46,2.46,0,0,0-1.28-2.27,12.62,12.62,0,0,0-3.26-1.54,14.71,14.71,0,0,1-4.51-2.36,5.34,5.34,0,0,1-1.89-4.39,5.46,5.46,0,0,1,2-4.35,7.43,7.43,0,0,1,4.93-1.66,7.66,7.66,0,0,1,6.88,3.61l-2.85,2a4.4,4.4,0,0,0-4-2c-1.75,0-3,1-3,2.37a2.43,2.43,0,0,0,.93,1.92,18.67,18.67,0,0,0,1.67.86l1.15.45,1.31.51a12.81,12.81,0,0,1,4.54,2.79,5.62,5.62,0,0,1,1.41,4c0,3.93-2.72,6.59-7.81,6.59-4.12,0-7.16-1.92-8.57-5.09Z"/><path class="cls-2" d="M227.33,167.82a8.16,8.16,0,0,1,2.56-6.08,9.14,9.14,0,0,1,12.48,0,8.5,8.5,0,0,1,0,12.16,9.14,9.14,0,0,1-12.48,0A8.16,8.16,0,0,1,227.33,167.82Zm12.36,3.62a5,5,0,0,0,1.44-3.62,4.84,4.84,0,0,0-1.44-3.58,5,5,0,0,0-7.14,0,4.93,4.93,0,0,0-1.41,3.58,5.09,5.09,0,0,0,1.41,3.62,5.15,5.15,0,0,0,7.14,0Z"/><path class="cls-2" d="M262.15,162l-2.37,2.46a5.43,5.43,0,0,0-4.09-1.76,4.84,4.84,0,0,0-3.56,1.44,5.37,5.37,0,0,0,0,7.23,4.84,4.84,0,0,0,3.56,1.44,5.39,5.39,0,0,0,4.09-1.76l2.37,2.47a8.47,8.47,0,0,1-6.46,2.78,8.63,8.63,0,0,1-6.24-2.43,8.61,8.61,0,0,1,0-12.19,8.66,8.66,0,0,1,6.24-2.46A8.43,8.43,0,0,1,262.15,162Z"/><path class="cls-2" d="M264.1,155.6a2.29,2.29,0,1,1,2.31,2.27A2.27,2.27,0,0,1,264.1,155.6Zm.39,20.28V159.76h3.84v16.12Z"/><path class="cls-2" d="M277.67,166.06c2.72-.26,3.68-.61,3.68-1.85,0-1-.9-1.76-2.69-1.76a5.35,5.35,0,0,0-4.32,2.11l-2.37-2a7.64,7.64,0,0,1,6.63-3.29c4,0,6.49,1.91,6.49,5.21v7.14c0,1.12.42,1.24,1.35,1.24h.09v3a3.71,3.71,0,0,1-1.79.35,2.74,2.74,0,0,1-2.05-.77,2.68,2.68,0,0,1-.57-1.05c-1.12,1.31-2.95,2-5.47,2-3.56,0-6-2-6-4.89C270.69,168.14,272.9,166.48,277.67,166.06Zm-.45,7c2.56,0,4.13-1.15,4.13-3.2v-1.79a2,2,0,0,1-.8.48,11.13,11.13,0,0,1-2.75.48c-2.24.25-3.36,1-3.36,2.08S275.46,173.07,277.22,173.07Z"/><path class="cls-2" d="M288.49,153.58h3.84v17c0,1.57.51,2.24,1.92,2.24a4.37,4.37,0,0,0,1.15-.12v3.42a6.87,6.87,0,0,1-1.83.19c-3.39,0-5.08-1.73-5.08-5.21Z"/><path class="cls-3" d="M294.46,99.19h0V76.29A23.69,23.69,0,0,0,282.94,55.9l0,0c-.5-.29-1-.56-1.54-.81h0l0,0-.3-.14c-7.45-3.4-14.45-3.35-21.4.17l0,.11a23.69,23.69,0,0,0-12.84,21.12V92.93h-15.8V89.64c4.53-3,7.44-8.39,7.44-14.81v-5.9a14.85,14.85,0,0,0,4.16-10.3V50.48H221.31a14.89,14.89,0,0,0-14.87,14.87v10.8a16,16,0,0,0,7.45,13.53v3.25h-7.64a16.65,16.65,0,0,0-16.63,16.63v19.79a11.13,11.13,0,0,0,11.12,11.12h91.63a11.13,11.13,0,0,0,11.12-11.12V115.14A18.61,18.61,0,0,0,294.46,99.19Zm-43.14-22.9A19.24,19.24,0,0,1,261.93,59a2.17,2.17,0,0,0,.52-.38c5.47-2.52,10.82-2.43,16.76.29l.3.14A19.28,19.28,0,0,1,290,76.29v21a18.61,18.61,0,0,0-5.14-.72h-5.95V93.14A14.35,14.35,0,0,0,285,81.41V74.6a2.23,2.23,0,0,0-2.23-2.23h-4a4.82,4.82,0,0,1-3.57-1.58,10,10,0,0,0,.88-4.1,2.23,2.23,0,1,0-4.45,0,5.69,5.69,0,0,1-5.69,5.68h-7.41a2.22,2.22,0,0,0-2.22,2.23v6.81a14.35,14.35,0,0,0,6,11.69v3.43h-6.74a13.71,13.71,0,0,0-4.29-2.63Zm19.35,15a9.93,9.93,0,0,1-9.92-9.91V76.82h5.19a10,10,0,0,0,6.57-2.43,9.29,9.29,0,0,0,6.26,2.43h1.81v4.59A9.93,9.93,0,0,1,270.67,91.32Zm3.82,3.93v3.88a3.85,3.85,0,0,1-7.69,0v-3.9a14.13,14.13,0,0,0,3.87.54A14.61,14.61,0,0,0,274.49,95.25Zm-28,2.22a9.09,9.09,0,1,1-9.09,9.09A9.1,9.1,0,0,1,246.53,97.47ZM210.89,65.35a10.43,10.43,0,0,1,10.42-10.42h16.91v3.7A10.44,10.44,0,0,1,227.8,69.05H210.89Zm0,10.8h0V73.5H227.8a14.75,14.75,0,0,0,6.26-1.39v2.72c0,7.48-4.87,12.9-11.58,12.9A11.6,11.6,0,0,1,210.89,76.15Zm15.73,15.49v3.91a4.14,4.14,0,0,1-8.28,0V91.64a16.15,16.15,0,0,0,4.14.54A15.67,15.67,0,0,0,226.62,91.64ZM223.17,136H200.74a6.68,6.68,0,0,1-6.67-6.67V109.56a12.2,12.2,0,0,1,12.18-12.18h7.84a8.59,8.59,0,0,0,16.78,0h5.73A13.5,13.5,0,0,0,238,117a18.9,18.9,0,0,0-8.91,7.42H205.61a2.22,2.22,0,0,0,0,4.44h17.56Zm7.38,0h-2.93V128.9h2.93a3.56,3.56,0,0,1,0,7.12Zm24.79,0H237.72a7.88,7.88,0,0,0,.84-3.56,8,8,0,0,0-4.56-7.22,14.49,14.49,0,0,1,11.08-5.14H248a14.48,14.48,0,0,1,11.08,5.14,8,8,0,0,0-4.56,7.22A7.88,7.88,0,0,0,255.34,136Zm10.1,0h-2.93a3.56,3.56,0,0,1,0-7.12h2.93Zm26.93,0H269.89V128.9h17.56a2.22,2.22,0,1,0,0-4.44H264a18.92,18.92,0,0,0-8.9-7.42A13.53,13.53,0,0,0,258.86,101h3.7a8.29,8.29,0,0,0,16.16,0h6.16a14.19,14.19,0,0,1,14.17,14.17v14.21h0A6.68,6.68,0,0,1,292.37,136Z"/><polyline class="cls-4" points="179.97 54.8 248.41 13.29 317.22 54.8"/><path d="M320,121.67a2.08,2.08,0,0,0,2.94,0"/></g></g></svg>