<svg xmlns="http://www.w3.org/2000/svg" xmlns:xlink="http://www.w3.org/1999/xlink" viewBox="0 0 118.68 119.8"><defs><style>.cls-1,.cls-4{fill:none;}.cls-2{fill:#1998a9;}.cls-3{clip-path:url(#clip-path);}.cls-4{stroke:#fff;stroke-linecap:round;stroke-linejoin:round;stroke-width:2px;}.cls-5{clip-path:url(#clip-path-2);}.cls-6{fill:#fabf73;}.cls-7{fill:#27cfd5;}</style><clipPath id="clip-path"><rect class="cls-1" x="21.3" y="15.41" width="77.13" height="88.54"/></clipPath><clipPath id="clip-path-2"><rect class="cls-1" x="19.13" y="15.41" width="77.13" height="88.54"/></clipPath></defs><g id="Capa_2" data-name="Capa 2"><g id="Capa_1-2" data-name="Capa 1"><rect class="cls-2" width="118.68" height="119.8" rx="13.14"/><g class="cls-3"><path class="cls-4" d="M25.86,16.32H77L97.52,37.23V99.32A3.71,3.71,0,0,1,93.87,103h-68a3.71,3.71,0,0,1-3.65-3.72V20A3.71,3.71,0,0,1,25.86,16.32Z"/></g><g class="cls-5"><path class="cls-4" d="M97.35,37.09H80.48a3.7,3.7,0,0,1-3.65-3.72V16.18Z"/><path class="cls-6" d="M32.5,48h9.31a1.84,1.84,0,0,1,1.82,1.85V92.42a1.84,1.84,0,0,1-1.82,1.85H32.5a1.84,1.84,0,0,1-1.81-1.85V49.84A1.84,1.84,0,0,1,32.5,48"/><path class="cls-7" d="M32.5,48h9.31a1.84,1.84,0,0,1,1.82,1.85V92.42a1.84,1.84,0,0,1-1.82,1.85H32.5a1.84,1.84,0,0,1-1.81-1.85V49.84A1.84,1.84,0,0,1,32.5,48Z"/><path class="cls-1" d="M52.91,67.4h9.31A1.84,1.84,0,0,1,64,69.25V92.42a1.84,1.84,0,0,1-1.81,1.85H52.91a1.83,1.83,0,0,1-1.81-1.85V69.25a1.84,1.84,0,0,1,1.81-1.85"/><path class="cls-4" d="M52.91,67.4h9.31A1.84,1.84,0,0,1,64,69.25V92.42a1.84,1.84,0,0,1-1.81,1.85H52.91a1.83,1.83,0,0,1-1.81-1.85V69.25A1.84,1.84,0,0,1,52.91,67.4Z"/><path class="cls-1" d="M73.31,56.31h9.31a1.85,1.85,0,0,1,1.82,1.85V92.42a1.84,1.84,0,0,1-1.82,1.85H73.31a1.84,1.84,0,0,1-1.81-1.85V58.16a1.84,1.84,0,0,1,1.81-1.85"/><path class="cls-4" d="M73.31,56.31h9.31a1.85,1.85,0,0,1,1.82,1.85V92.42a1.84,1.84,0,0,1-1.82,1.85H73.31a1.84,1.84,0,0,1-1.81-1.85V58.16A1.84,1.84,0,0,1,73.31,56.31Z"/></g></g></g></svg>