<?xml version="1.0" encoding="utf-8"?>
<!DOCTYPE svg PUBLIC "-//W3C//DTD SVG 1.1//EN" "http://www.w3.org/Graphics/SVG/1.1/DTD/svg11.dtd">
<svg version="1.1" id="Capa_1" xmlns="http://www.w3.org/2000/svg" xmlns:xlink="http://www.w3.org/1999/xlink" x="0px" y="0px"
	 width="97px" height="97px" viewBox="0 0 97 97" enable-background="new 0 0 97 97" xml:space="preserve">
<linearGradient id="SVGID_1_" gradientUnits="userSpaceOnUse" x1="-97.7383" y1="157.7402" x2="-36.6559" y2="96.6579" gradientTransform="matrix(1 0 0 -1 116 176)">
	<stop  offset="0" style="stop-color:#046973"/>
	<stop  offset="1" style="stop-color:#34A6AE"/>
</linearGradient>
<path fill="url(#SVGID_1_)" stroke="#08828B" stroke-width="2.0001" stroke-linecap="round" stroke-linejoin="round" stroke-miterlimit="22.9256" d="
	M96.302,90.271c0,3.33-2.698,6.029-6.028,6.029H7.332c-3.33,0-6.03-2.699-6.03-6.029V7.332c0-3.331,2.7-6.03,6.03-6.03h82.941
	c3.33,0,6.028,2.699,6.028,6.03V90.271z"/>
<linearGradient id="SVGID_2_" gradientUnits="userSpaceOnUse" x1="-111.0005" y1="127.5" x2="-25.9995" y2="127.5" gradientTransform="matrix(1 0 0 -1 116 176)">
	<stop  offset="0" style="stop-color:#046973"/>
	<stop  offset="1" style="stop-color:#046973"/>
</linearGradient>
<path fill="url(#SVGID_2_)" stroke="#046973" stroke-width="2" stroke-miterlimit="10" d="M77.461,26.374
	c-7.087-7.859-16.637-12.933-27.245-13.692V7h-5.579v5.678C33.857,13.459,24.2,18.695,17.111,26.759
	C9.55,35.359,4.917,47.18,5,60.182c0.024,3.713,0.357,7.34,1.03,10.826c0.65,3.35,1.624,6.561,2.956,9.6
	c0.806,1.841,2.93,3.156,5.324,3.709c0.945,0.224,1.952,0.326,2.936,0.3c1.023-0.031,2.031-0.195,2.934-0.525
	c1.771-0.637,3.171-1.85,3.702-3.735c2.192-7.758,5.624-14.283,9.913-18.797c3.199-3.367,6.877-5.57,10.841-6.313V66.13h-4.799
	v3.207h4.799v5.396h-4.799v3.211h4.799v5.395h-4.799v3.209h4.799V90h5.579v-3.455h4.799v-3.209h-4.799v-5.395h4.799V74.73h-4.799
	v-5.396h4.799v-3.207h-4.799V55.193c4.01,0.676,7.749,2.836,11.021,6.182c4.354,4.449,7.879,10.91,10.169,18.615
	c0.569,1.914,2.011,3.127,3.813,3.754c0.904,0.316,1.903,0.473,2.922,0.492c0.983,0.012,1.984-0.103,2.922-0.334
	c2.345-0.572,4.41-1.896,5.188-3.732c1.296-3.061,2.233-6.297,2.847-9.664c0.637-3.504,0.924-7.141,0.9-10.867
	C89.915,46.637,85.132,34.876,77.461,26.374z M15.508,34.785c1.218,0.9,2.538,1.518,3.858,1.898c2.34,0.818,4.681,0.818,6.812,0.818
	c0,0,0.012,0,18.458,0v6.324c-2.617-0.006-5.043,0.184-7.471,0.49c-3.495,0.408-6.523,0.815-10.023,1.635
	c-0.463,0-1.164,0.206-1.865,0.206c-2.564,0.203-5.593,0-8.159-0.821c-2.366-0.752-4.124-2.037-4.93-3.997
	C13.13,39.039,14.245,36.849,15.508,34.785z M50.216,37.501c2.635,0,7.917,0,18.512,0c2.371,0,4.527,0,6.901-0.818
	c1.308-0.372,2.616-0.977,3.829-1.848c1.204,1.964,2.266,4.047,3.18,6.224c-0.748,2.12-2.543,3.489-4.998,4.276
	c-2.547,0.821-5.555,1.024-8.098,0.821c-0.689,0-1.387-0.206-1.85-0.206c-3.469-0.819-6.478-1.227-9.942-1.635
	c-2.444-0.311-4.89-0.502-7.534-0.49V37.501z M74.681,28.432c1.182,1.31,2.282,2.71,3.311,4.18c-0.999,0.733-2.11,1.219-3.227,1.614
	c-1.938,0.615-4.096,0.615-6.037,0.615c0,0-0.015,0-18.512,0V27.38c2.184,0,5.811,0,11.852,0c1.715,0,3.613,0,5.332-0.82
	c1.203-0.39,2.336-1.03,3.312-1.969C72.106,25.773,73.437,27.053,74.681,28.432z M68.718,23.011
	c-0.603,0.455-1.264,0.799-2.006,1.093c-1.551,0.614-3.098,0.614-4.646,0.614c0,0-0.01,0-11.851,0v-8.762
	C57.005,16.501,63.325,19.015,68.718,23.011z M44.637,24.718c-2.183,0-5.81,0-11.849,0c-1.548,0-3.097,0-4.646-0.614
	c-0.732-0.29-1.385-0.629-1.981-1.076c5.378-3.995,11.685-6.522,18.477-7.071L44.637,24.718L44.637,24.718z M19.915,28.781
	c1.323-1.504,2.742-2.898,4.245-4.174c0.973,0.931,2.099,1.566,3.293,1.953c1.725,0.82,3.617,0.82,5.336,0.82c0,0,0.01,0,11.849,0
	v7.461c-2.535,0-7.739,0-18.458,0c-1.914,0-4.044,0-5.962-0.615c-1.126-0.404-2.249-0.905-3.25-1.668
	C17.888,31.24,18.868,29.972,19.915,28.781z M18.854,81.064c-0.515,0.186-1.094,0.283-1.7,0.301
	c-0.643,0.016-1.312-0.053-1.952-0.205c-1.362-0.314-2.526-0.945-2.881-1.76c-0.58-1.324-1.081-2.689-1.519-4.088
	c0.819,0.328,1.679,0.594,2.566,0.805c2.685,0.551,5.709,0.605,8.006,0.318c-0.343,1.016-0.667,2.053-0.966,3.112
	C20.198,80.301,19.607,80.793,18.854,81.064z M22.474,73.457c-0.034,0-0.069,0.002-0.102,0.002c-0.646,0.205,0.212,0-0.86,0.205
	c-1.927,0.408-4.93,0.408-7.5-0.205c-1.627-0.313-3.008-0.863-4.141-1.648c-0.103-0.455-0.213-0.908-0.303-1.373
	c-0.323-1.664-0.562-3.371-0.722-5.11c1.713,0.774,3.657,1.307,5.708,1.684c3.674,0.574,7.827,0.605,10.868,0.271
	C24.34,69.205,23.349,71.262,22.474,73.457z M31.084,59.432c-1.336,1.408-2.583,3.004-3.752,4.736
	c-0.5,0.176-0.771,0.182-1.035,0.182c-1.119,0.205,0.278,0-1.119,0.205c-2.516,0.408-6.434,0.408-9.786-0.205
	c-2.797-0.41-5.036-1.229-6.711-2.457c0,0-0.001,0.002-0.039,0.023c-0.021-0.586-0.044-1.168-0.048-1.76
	c-0.01-1.533,0.05-3.049,0.176-4.545c1.73,1.227,3.751,2.184,4.501,2.307c3.787,1.021,8.445,1.227,12.232,1.021
	c0.872-0.205,1.749-0.205,2.621-0.408c1.298-0.184,2.843-0.375,4.605-0.703C32.169,58.336,31.621,58.869,31.084,59.432z
	 M37.305,54.484c-1.809,0.188-3.193,0.393-4.81,0.77c-1.455,0.209-3.205,0.41-5.243,0.617c-0.582,0.203-1.458,0.203-2.331,0.406
	c-3.205,0.205-6.992,0-10.196-1.023c-2.46-0.627-4.396-1.502-5.563-2.893c0.397-2.629,0.992-5.181,1.781-7.629
	c1.27,1.357,3.05,2.322,5.011,3.061c3.028,1.023,6.758,1.227,9.79,1.023c0.701,0,1.397-0.205,2.099-0.408
	c3.261-0.615,6.527-1.229,9.555-1.433c2.447-0.308,4.76-0.499,7.238-0.489v5.42C42.065,52.289,39.611,53.168,37.305,54.484z
	 M50.216,46.489c2.504-0.017,4.838,0.174,7.305,0.486c3.008,0.204,6.24,0.817,9.479,1.433c0.692,0.203,1.388,0.408,2.081,0.408
	c3.004,0.203,6.706,0,9.714-1.023c2.034-0.773,3.886-1.79,5.153-3.252c0.785,2.379,1.384,4.859,1.799,7.415
	c-1.115,1.629-3.174,2.612-5.859,3.299c-3.197,1.022-6.979,1.229-10.18,1.022c-0.872-0.202-1.744-0.202-2.328-0.405
	c-2.033-0.207-3.781-0.408-5.232-0.617c-1.418-0.33-2.66-0.526-4.162-0.696c-2.441-1.41-5.045-2.328-7.77-2.693V46.489z
	 M62.604,57.957c1.476,0.254,2.777,0.416,3.904,0.574c0.87,0.203,1.743,0.203,2.618,0.408c3.78,0.205,8.433,0,12.214-1.021
	c1.164-0.148,3.192-0.949,4.885-2.018c0.102,1.24,0.168,2.492,0.176,3.76c0.005,0.799-0.01,1.588-0.033,2.373
	c-0.08-0.047-0.154-0.09-0.238-0.141c-1.671,1.229-3.898,2.047-6.675,2.457c-3.345,0.612-7.235,0.612-9.741,0.205
	c-1.39-0.205-0.277,0-1.111-0.205c-0.172,0-0.352-0.007-0.59-0.056c-1.271-1.871-2.633-3.586-4.095-5.08
	C63.487,58.777,63.049,58.361,62.604,57.957z M85.293,71.246c-0.103-0.082-0.187-0.15-0.301-0.242
	c-1.218,1.227-2.833,2.043-4.857,2.455c-2.428,0.613-5.262,0.613-7.081,0.205c-0.046-0.01-0.07-0.014-0.109-0.021
	c-0.904-2.244-1.924-4.354-3.039-6.313c2.98,0.282,6.9,0.229,10.384-0.318c2.123-0.391,4.135-0.952,5.894-1.78
	c-0.141,1.614-0.344,3.203-0.625,4.754C85.478,70.408,85.382,70.826,85.293,71.246z M80.131,80.76
	c-0.633,0.154-1.288,0.232-1.926,0.223c-0.603-0.012-1.185-0.102-1.704-0.28c-0.779-0.272-1.398-0.779-1.631-1.562
	c-0.266-0.891-0.553-1.758-0.85-2.617c2.037,0.177,4.502,0.076,6.723-0.405c1.313-0.332,2.564-0.791,3.695-1.429
	c-0.436,1.478-0.944,2.918-1.539,4.314C82.56,79.807,81.446,80.436,80.131,80.76z"/>
<path fill="#FFFFFF" stroke="#FFFFFF" stroke-width="0.75" stroke-miterlimit="10" d="M78.961,24.873
	c-7.086-7.859-16.636-12.933-27.244-13.692V5.5h-5.58v5.677c-10.779,0.781-20.437,6.017-27.525,14.081
	c-7.561,8.6-12.194,20.42-12.111,33.424c0.024,3.713,0.357,7.34,1.03,10.825c0.65,3.351,1.624,6.562,2.956,9.601
	c0.806,1.84,2.93,3.156,5.324,3.709c0.945,0.223,1.952,0.326,2.936,0.3c1.023-0.031,2.031-0.196,2.934-0.525
	c1.771-0.638,3.171-1.85,3.702-3.737c2.192-7.756,5.624-14.281,9.913-18.797c3.199-3.365,6.877-5.57,10.841-6.313v10.885h-4.799
	v3.207h4.799v5.396h-4.799v3.209h4.799v5.396h-4.799v3.209h4.799V88.5h5.58v-3.456h4.799v-3.209h-4.799v-5.396h4.799V73.23h-4.799
	v-5.396h4.799v-3.207h-4.799V53.693c4.01,0.675,7.749,2.836,11.021,6.181c4.354,4.45,7.879,10.911,10.169,18.615
	c0.569,1.915,2.011,3.127,3.813,3.755c0.904,0.314,1.902,0.473,2.921,0.492c0.983,0.012,1.984-0.104,2.922-0.334
	c2.345-0.573,4.41-1.896,5.188-3.732c1.296-3.063,2.233-6.298,2.847-9.664c0.637-3.505,0.924-7.141,0.9-10.867
	C91.415,45.137,86.632,33.375,78.961,24.873z M17.009,33.284c1.218,0.901,2.538,1.519,3.858,1.898
	c2.34,0.819,4.681,0.819,6.812,0.819c0,0,0.012,0,18.458,0v6.325c-2.617-0.006-5.043,0.184-7.471,0.49
	c-3.495,0.408-6.522,0.815-10.022,1.635c-0.463,0-1.164,0.206-1.865,0.206c-2.564,0.203-5.593,0-8.159-0.821
	c-2.366-0.752-4.124-2.038-4.93-3.998C14.631,37.538,15.746,35.349,17.009,33.284z M51.717,36.001c2.635,0,7.917,0,18.512,0
	c2.371,0,4.527,0,6.901-0.819c1.307-0.372,2.615-0.976,3.828-1.847c1.204,1.963,2.266,4.046,3.18,6.223
	c-0.748,2.12-2.543,3.49-4.998,4.277c-2.546,0.821-5.554,1.024-8.097,0.821c-0.689,0-1.387-0.206-1.85-0.206
	c-3.469-0.82-6.478-1.227-9.942-1.635c-2.444-0.311-4.89-0.502-7.534-0.49V36.001z M76.182,26.932c1.182,1.31,2.281,2.71,3.31,4.18
	c-0.999,0.733-2.109,1.219-3.226,1.615c-1.938,0.615-4.096,0.615-6.037,0.615c0,0-0.015,0-18.512,0V25.88c2.184,0,5.811,0,11.852,0
	c1.715,0,3.613,0,5.332-0.82c1.203-0.389,2.336-1.03,3.312-1.968C73.607,24.273,74.938,25.553,76.182,26.932z M70.219,21.51
	c-0.603,0.456-1.264,0.8-2.006,1.093c-1.551,0.615-3.098,0.615-4.646,0.615c0,0-0.01,0-11.851,0v-8.762
	C58.506,15.001,64.826,17.515,70.219,21.51z M46.137,23.218c-2.183,0-5.81,0-11.849,0c-1.548,0-3.097,0-4.646-0.615
	c-0.732-0.29-1.385-0.629-1.981-1.076c5.378-3.996,11.685-6.522,18.477-7.071L46.137,23.218L46.137,23.218z M21.416,27.28
	c1.323-1.503,2.742-2.898,4.245-4.174c0.973,0.931,2.099,1.566,3.293,1.953c1.725,0.82,3.617,0.82,5.336,0.82c0,0,0.01,0,11.849,0
	v7.462c-2.535,0-7.739,0-18.458,0c-1.914,0-4.044,0-5.962-0.615c-1.126-0.405-2.249-0.906-3.25-1.668
	C19.389,29.739,20.369,28.472,21.416,27.28z M20.354,79.563c-0.515,0.187-1.094,0.285-1.7,0.303
	c-0.643,0.016-1.312-0.053-1.952-0.205c-1.362-0.314-2.526-0.946-2.881-1.76c-0.58-1.324-1.081-2.69-1.519-4.088
	c0.819,0.326,1.679,0.593,2.566,0.805c2.685,0.55,5.709,0.604,8.006,0.316c-0.343,1.018-0.667,2.055-0.966,3.114
	C21.699,78.801,21.108,79.293,20.354,79.563z M23.975,71.956c-0.034,0.001-0.069,0.002-0.102,0.002c-0.646,0.205,0.212,0-0.86,0.205
	c-1.927,0.407-4.93,0.407-7.5-0.205c-1.627-0.312-3.008-0.863-4.141-1.647c-0.103-0.455-0.213-0.908-0.303-1.373
	c-0.323-1.664-0.562-3.371-0.722-5.11c1.713,0.774,3.657,1.307,5.708,1.683c3.674,0.575,7.827,0.605,10.868,0.27
	C25.841,67.704,24.85,69.761,23.975,71.956z M32.585,57.932c-1.336,1.407-2.583,3.004-3.752,4.735
	c-0.5,0.177-0.771,0.183-1.035,0.183c-1.119,0.205,0.278,0-1.119,0.205c-2.516,0.407-6.434,0.407-9.786-0.205
	c-2.797-0.41-5.036-1.229-6.711-2.457c0,0-0.001,0.002-0.039,0.022c-0.021-0.585-0.044-1.168-0.048-1.759
	c-0.01-1.534,0.05-3.051,0.176-4.545c1.73,1.227,3.751,2.184,4.501,2.306c3.787,1.021,8.445,1.228,12.232,1.021
	c0.872-0.205,1.749-0.205,2.621-0.406c1.298-0.186,2.843-0.375,4.605-0.703C33.67,56.835,33.122,57.368,32.585,57.932z
	 M38.805,52.984c-1.809,0.188-3.193,0.393-4.81,0.769c-1.455,0.209-3.205,0.411-5.243,0.617c-0.582,0.203-1.458,0.203-2.331,0.405
	c-3.205,0.205-6.992,0-10.196-1.022c-2.46-0.626-4.396-1.501-5.563-2.894c0.397-2.627,0.992-5.18,1.781-7.627
	c1.27,1.357,3.05,2.322,5.011,3.06c3.028,1.024,6.758,1.227,9.79,1.024c0.701,0,1.397-0.205,2.099-0.408
	c3.261-0.616,6.527-1.229,9.555-1.433c2.447-0.307,4.76-0.499,7.238-0.49v5.42C43.566,50.788,41.112,51.667,38.805,52.984z
	 M51.717,44.988c2.504-0.017,4.838,0.174,7.305,0.486c3.008,0.204,6.24,0.817,9.479,1.433c0.692,0.203,1.388,0.408,2.081,0.408
	c3.004,0.203,6.706,0,9.713-1.024c2.034-0.772,3.886-1.79,5.153-3.251c0.785,2.379,1.384,4.86,1.799,7.414
	c-1.115,1.629-3.174,2.614-5.859,3.299c-3.197,1.022-6.979,1.229-10.179,1.022c-0.872-0.202-1.744-0.202-2.328-0.405
	c-2.033-0.206-3.781-0.408-5.232-0.617c-1.418-0.33-2.66-0.526-4.162-0.696c-2.441-1.41-5.045-2.328-7.77-2.692V44.988z
	 M64.105,56.457c1.476,0.254,2.777,0.415,3.904,0.574c0.87,0.201,1.743,0.201,2.618,0.406c3.78,0.207,8.432,0,12.213-1.021
	c1.164-0.147,3.192-0.949,4.885-2.017c0.102,1.24,0.168,2.492,0.176,3.76c0.005,0.798-0.01,1.587-0.033,2.372
	c-0.08-0.048-0.154-0.091-0.238-0.14c-1.671,1.229-3.898,2.045-6.675,2.457c-3.344,0.611-7.234,0.611-9.74,0.203
	c-1.39-0.203-0.277,0-1.111-0.203c-0.172,0-0.352-0.007-0.59-0.056c-1.271-1.871-2.633-3.586-4.095-5.08
	C64.988,57.275,64.55,56.861,64.105,56.457z M86.793,69.746c-0.103-0.082-0.187-0.151-0.301-0.243
	c-1.218,1.228-2.833,2.044-4.857,2.455c-2.428,0.612-5.261,0.612-7.08,0.205c-0.046-0.009-0.07-0.015-0.109-0.021
	c-0.904-2.244-1.924-4.354-3.039-6.314c2.98,0.283,6.899,0.229,10.383-0.318c2.123-0.391,4.135-0.951,5.894-1.779
	c-0.141,1.614-0.344,3.203-0.625,4.752C86.978,68.908,86.882,69.325,86.793,69.746z M81.631,79.259
	c-0.633,0.154-1.288,0.233-1.926,0.224c-0.603-0.012-1.185-0.103-1.704-0.281c-0.778-0.273-1.397-0.779-1.63-1.561
	c-0.266-0.891-0.553-1.758-0.85-2.617c2.037,0.176,4.501,0.076,6.722-0.405c1.313-0.333,2.564-0.791,3.695-1.429
	c-0.436,1.478-0.944,2.918-1.539,4.313C84.06,78.307,82.946,78.936,81.631,79.259z"/>
</svg>
