<?xml version="1.0" encoding="utf-8"?>
<!DOCTYPE svg PUBLIC "-//W3C//DTD SVG 1.1//EN" "http://www.w3.org/Graphics/SVG/1.1/DTD/svg11.dtd">
<svg version="1.1" id="Capa_1" xmlns="http://www.w3.org/2000/svg" xmlns:xlink="http://www.w3.org/1999/xlink" x="0px" y="0px"
	 width="97px" height="97px" viewBox="0 0 97 97" enable-background="new 0 0 97 97" xml:space="preserve">
<linearGradient id="SVGID_1_" gradientUnits="userSpaceOnUse" x1="141.2617" y1="-133.2598" x2="202.3443" y2="-194.3424" gradientTransform="matrix(1 0 0 -1 -123 -115)">
	<stop  offset="0" style="stop-color:#046973"/>
	<stop  offset="1" style="stop-color:#34A6AE"/>
</linearGradient>
<path fill="url(#SVGID_1_)" stroke="#08828B" stroke-width="2.0001" stroke-linecap="round" stroke-linejoin="round" stroke-miterlimit="22.9256" d="
	M96.302,90.271c0,3.33-2.698,6.029-6.028,6.029H7.332c-3.33,0-6.03-2.699-6.03-6.029V7.332c0-3.331,2.7-6.03,6.03-6.03h82.941
	c3.33,0,6.028,2.699,6.028,6.03V90.271z"/>
<g>
	<rect x="45.703" y="9" fill="#FFFFFF" stroke="#FFFFFF" stroke-width="0.75" stroke-miterlimit="10" width="6.454" height="80"/>
	
		<rect x="42.319" y="63.066" fill="#FFFFFF" stroke="#FFFFFF" stroke-width="0.75" stroke-miterlimit="10" width="12.5" height="3.254"/>
	
		<rect x="42.319" y="72.05" fill="#FFFFFF" stroke="#FFFFFF" stroke-width="0.75" stroke-miterlimit="10" width="12.5" height="3.253"/>
	
		<rect x="42.319" y="81.021" fill="#FFFFFF" stroke="#FFFFFF" stroke-width="0.75" stroke-miterlimit="10" width="12.5" height="3.254"/>
	<path fill="#FFFFFF" stroke="#FFFFFF" stroke-width="0.75" stroke-miterlimit="10" d="M50.168,17.656L50.13,49.305
		c10.688,0.092,14.81,7.37,19.997,16.51c1.354,2.396,2.801,4.936,4.454,7.474c0.246,0.401,0.541,0.717,0.853,0.951
		c0.688,0.52,1.51,0.739,2.352,0.729c0.863-0.014,1.729-0.272,2.465-0.755c0.373-0.259,0.727-0.572,0.996-0.926
		c1.96-2.629,3.42-7.604,4.425-13.307c1.269-7.195,1.757-15.438,1.577-21.674c-0.223-7.382-1.912-12.524-4.57-15.87
		c-2.92-3.659-7.088-5.168-11.783-5.091L50.168,17.656z M46.915,50.959l0.039-34.904v-1.588l1.587-0.026l22.311-0.338
		c5.666-0.09,10.729,1.784,14.328,6.301c3.084,3.866,5.049,9.66,5.28,17.81c0.194,6.444-0.31,14.931-1.612,22.327
		c-1.086,6.146-2.738,11.611-5.035,14.697c-0.506,0.666-1.108,1.236-1.81,1.691c-1.213,0.807-2.696,1.266-4.183,1.276
		c-1.51,0.024-3.033-0.404-4.313-1.381c-0.617-0.47-1.175-1.056-1.627-1.761c-1.717-2.627-3.175-5.205-4.558-7.64
		c-4.894-8.632-8.74-15.417-18.705-14.844l-1.705,0.091L46.915,50.959L46.915,50.959z"/>
	<path fill="#FFFFFF" stroke="#FFFFFF" stroke-width="0.75" stroke-miterlimit="10" d="M48.361,24.843l21.844,0.013
		c2.232,0,4.622-0.182,6.842-0.885c2.092-0.664,4.028-1.823,5.475-3.776l2.58,1.94c-1.91,2.578-4.398,4.088-7.086,4.934
		c-2.558,0.821-5.293,1.029-7.811,1.029l-21.844-0.014V24.843z"/>
	<path fill="#FFFFFF" stroke="#FFFFFF" stroke-width="0.75" stroke-miterlimit="10" d="M49.046,34.333l24.567,0.015
		c2.221,0,4.621-0.183,6.826-0.885c2.095-0.664,4.031-1.824,5.475-3.776l2.583,1.94c-1.896,2.578-4.401,4.088-7.086,4.933
		c-2.558,0.821-5.279,1.029-7.798,1.029l-24.567-0.014V34.333z"/>
	<path fill="#FFFFFF" stroke="#FFFFFF" stroke-width="0.75" stroke-miterlimit="10" d="M49.061,42.705
		c3.869-0.22,7.484,0,11.049,0.468c3.525,0.469,6.983,1.199,10.586,2.006c0.595,0.13,1.267,0.234,1.986,0.313
		c2.739,0.26,6.082,0.025,8.909-1.054c2.595-1.004,4.726-2.722,5.319-5.457c0.064-0.286,0.115-0.585,0.141-0.897l3.202,0.299
		c-0.039,0.442-0.103,0.886-0.208,1.301c-0.875,3.985-3.779,6.433-7.318,7.787c-3.315,1.275-7.203,1.562-10.354,1.248
		c-0.839-0.09-1.637-0.207-2.374-0.375c-3.513-0.796-6.881-1.498-10.301-1.953c-3.372-0.444-6.794-0.651-10.458-0.444L49.061,42.705
		z"/>
	<path fill="#FFFFFF" stroke="#FFFFFF" stroke-width="0.75" stroke-miterlimit="10" d="M61.824,54.355
		c1.564,0.248,3.021,0.509,4.419,0.795c1.262,0.248,2.798,0.586,4.45,0.964c0.595,0.131,1.267,0.235,1.988,0.313
		c2.737,0.261,6.08,0.025,8.907-1.055c2.597-1.005,4.728-2.724,5.319-5.457c0.063-0.285,0.113-0.586,0.141-0.897l3.202,0.301
		c-0.039,0.439-0.104,0.887-0.208,1.303c-0.875,3.982-3.779,6.43-7.316,7.786c-3.317,1.276-7.203,1.561-10.354,1.247
		c-0.839-0.09-1.638-0.207-2.374-0.375c-1.329-0.303-2.738-0.604-4.389-0.938c-1.512-0.299-2.942-0.573-4.273-0.78L61.824,54.355z"
		/>
	<path fill="#FFFFFF" stroke="#FFFFFF" stroke-width="0.75" stroke-miterlimit="10" d="M68.693,64.523
		c0.543,0.119,0.865,0.185,0.994,0.209c0.931,0.209-0.233-0.053,1.006,0.233c2.375,0.533,5.746,0.611,8.871-0.131
		c2.359-0.562,4.543-1.574,5.924-3.202l2.455,2.109C86.044,65.969,83.257,67.311,80.3,68c-3.601,0.861-7.516,0.756-10.302,0.131
		C69.43,68,70.605,68.26,69.005,67.909c-0.519-0.117-0.866-0.181-0.981-0.208L68.693,64.523z"/>
	<path fill="#FFFFFF" stroke="#FFFFFF" stroke-width="0.75" stroke-miterlimit="10" d="M51.046,16.055l0.04,34.904v1.717
		l-1.691-0.091c-9.979-0.573-13.828,6.212-18.72,14.845c-1.381,2.436-2.839,5.012-4.543,7.639c-0.465,0.705-1.021,1.291-1.641,1.761
		c-1.276,0.978-2.801,1.405-4.312,1.381c-1.485-0.015-2.969-0.471-4.182-1.276c-0.697-0.455-1.305-1.025-1.808-1.691
		c-2.298-3.086-3.95-8.553-5.035-14.697C7.851,53.146,7.346,44.659,7.54,38.214c0.246-8.15,2.195-13.944,5.28-17.81
		c3.602-4.517,8.663-6.392,14.33-6.301l22.309,0.338l1.587,0.026V16.055z M47.869,49.305l-0.038-31.646l-20.72-0.313
		c-4.698-0.078-8.868,1.432-11.786,5.091c-2.659,3.345-4.351,8.488-4.57,15.87c-0.179,6.237,0.31,14.479,1.575,21.674
		c1.007,5.703,2.466,10.678,4.442,13.307c0.258,0.354,0.606,0.667,0.981,0.926c0.735,0.48,1.601,0.741,2.466,0.755
		c0.838,0.013,1.665-0.21,2.35-0.729c0.31-0.234,0.607-0.548,0.865-0.951c1.64-2.538,3.084-5.076,4.442-7.474
		C33.063,56.675,37.18,49.396,47.869,49.305L47.869,49.305z"/>
	<path fill="#FFFFFF" stroke="#FFFFFF" stroke-width="0.75" stroke-miterlimit="10" d="M49.641,28.084l-21.845,0.014
		c-2.518,0-5.242-0.208-7.811-1.029c-2.685-0.846-5.177-2.356-7.087-4.934l2.582-1.94c1.446,1.953,3.383,3.112,5.475,3.776
		c2.22,0.703,4.609,0.885,6.842,0.885l21.844-0.013V28.084L49.641,28.084z"/>
	<path fill="#FFFFFF" stroke="#FFFFFF" stroke-width="0.75" stroke-miterlimit="10" d="M48.955,37.575l-24.554,0.014
		c-2.519,0-5.255-0.208-7.812-1.029c-2.685-0.845-5.176-2.355-7.087-4.933l2.583-1.94c1.446,1.952,3.382,3.112,5.474,3.776
		c2.208,0.703,4.609,0.885,6.843,0.885l24.554-0.015L48.955,37.575L48.955,37.575z"/>
	<path fill="#FFFFFF" stroke="#FFFFFF" stroke-width="0.75" stroke-miterlimit="10" d="M48.761,45.946
		c-3.667-0.208-7.087,0-10.457,0.444c-3.409,0.456-6.789,1.157-10.302,1.953c-0.736,0.168-1.537,0.286-2.375,0.375
		c-3.15,0.313-7.036,0.027-10.353-1.248c-3.538-1.354-6.442-3.801-7.321-7.787c-0.089-0.415-0.167-0.859-0.207-1.301l3.202-0.299
		c0.026,0.312,0.077,0.611,0.142,0.897c0.607,2.734,2.724,4.453,5.32,5.457c2.827,1.079,6.17,1.314,8.907,1.054
		c0.724-0.079,1.395-0.183,1.988-0.313c3.603-0.808,7.062-1.537,10.586-2.006c3.563-0.468,7.178-0.688,11.052-0.468L48.761,45.946z"
		/>
	<path fill="#FFFFFF" stroke="#FFFFFF" stroke-width="0.75" stroke-miterlimit="10" d="M36.665,57.561
		c-1.316,0.207-2.764,0.481-4.273,0.78c-1.652,0.337-3.06,0.638-4.389,0.938c-0.736,0.168-1.537,0.285-2.375,0.375
		c-3.15,0.313-7.036,0.029-10.353-1.247c-3.538-1.356-6.442-3.804-7.321-7.786c-0.089-0.416-0.167-0.861-0.207-1.303l3.202-0.301
		c0.026,0.313,0.077,0.612,0.142,0.897c0.607,2.733,2.724,4.452,5.32,5.457c2.827,1.08,6.17,1.313,8.907,1.055
		c0.724-0.077,1.395-0.184,1.988-0.313c1.653-0.378,3.188-0.716,4.454-0.964c1.395-0.286,2.853-0.547,4.416-0.795L36.665,57.561z"/>
	<path fill="#FFFFFF" stroke="#FFFFFF" stroke-width="0.75" stroke-miterlimit="10" d="M29.977,67.701
		c-0.116,0.027-0.451,0.091-0.981,0.208c-1.691,0.378-0.425,0.091-0.993,0.222c-2.79,0.625-6.701,0.73-10.302-0.131
		c-2.957-0.689-5.746-2.031-7.643-4.256l2.453-2.109c1.381,1.629,3.563,2.643,5.924,3.202c3.125,0.742,6.494,0.664,8.869,0.131
		c1.239-0.288-0.013,0,1.007-0.235c0.13-0.022,0.453-0.09,0.994-0.209L29.977,67.701z"/>
</g>
<circle fill="#FFFFFF" cx="41.67" cy="64.688" r="2.003"/>
<circle fill="#FFFFFF" cx="41.67" cy="73.688" r="2.003"/>
<circle fill="#FFFFFF" cx="41.67" cy="82.688" r="2.003"/>
<circle fill="#FFFFFF" cx="55.669" cy="64.688" r="2.002"/>
<circle fill="#FFFFFF" cx="55.669" cy="73.688" r="2.002"/>
<circle fill="#FFFFFF" cx="55.669" cy="82.688" r="2.002"/>
</svg>
